<?xml version="1.0" encoding="UTF-8"?>
<svg xmlns="http://www.w3.org/2000/svg" xmlns:xlink="http://www.w3.org/1999/xlink" version="1.2" >
<font id="AmpleSoft-Light">
<font-face  font-family="AmpleSoft" units-per-em="1000" ascent="750" descent="-250" font-style="normal" font-weight="300" font-stretch="normal" cap-height="650" x-height="490" underline-position="-75" underline-thickness="50" />
<missing-glyph  horiz-adv-x="192" d="" />
<glyph glyph-name="space" unicode="&#x20;" horiz-adv-x="286" d="" />
<glyph glyph-name="exclam" unicode="&#x21;" horiz-adv-x="244" d="M120 650 L126 650 Q140 650 145 645 Q150 640 150 626 L150 408 Q150 264 142 171 Q140 153 125 153 L121 153 Q106 153 104 171 Q96 251 96 408 L96 626 Q96 640 101 645 Q106 650 120 650 Z M79 38 Q79 56 91.5 68.5 Q104 81 122 81 Q140 81 152.5 68.5 Q165 56 165 38 Q165 19 152.5 6.5 Q140 -6 122 -6 Q104 -6 91.5 6.5 Q79 19 79 38 Z " />
<glyph glyph-name="quotedbl" unicode="&#x22;" horiz-adv-x="247" d="M160 534 L160 703 Q160 715 164 719 Q168 723 180 723 L184 723 Q196 723 200 719 Q204 715 204 703 L204 534 Q204 522 200 518 Q196 514 184 514 L180 514 Q168 514 164 518 Q160 522 160 534 Z M43 534 L43 703 Q43 715 47 719 Q51 723 63 723 L67 723 Q79 723 83 719 Q87 715 87 703 L87 534 Q87 522 83 518 Q79 514 67 514 L63 514 Q51 514 47 518 Q43 522 43 534 Z " />
<glyph glyph-name="numbersign" unicode="&#x23;" horiz-adv-x="637" d="M329 21 L364 162 L192 162 L157 21 Q154 8 148.5 4 Q143 0 130 0 L124 0 Q111 0 107.5 4 Q104 8 107 21 L142 162 L59 162 Q46 162 42 166 Q38 170 38 183 L38 188 Q38 201 42 205 Q46 209 59 209 L154 209 L212 441 L104 441 Q91 441 87 445 Q83 449 83 462 L83 467 Q83 480 87 484 Q91 488 104 488 L223 488 L259 629 Q262 642 267.5 646 Q273 650 286 650 L292 650 Q305 650 308.5 646 Q312 642 309 629 L273 488 L445 488 L481 629 Q484 642 489.5 646 Q495 650 508 650 L514 650 Q527 650 530.5 646 Q534 642 531 629 L495 488 L578 488 Q591 488 595 484 Q599 480 599 467 L599 462 Q599 449 595 445 Q591 441 578 441 L484 441 L426 209 L533 209 Q546 209 550 205 Q554 201 554 188 L554 183 Q554 170 550 166 Q546 162 533 162 L414 162 L379 21 Q376 8 370.5 4 Q365 0 352 0 L346 0 Q333 0 329.5 4 Q326 8 329 21 Z M262 441 L204 209 L375 209 L433 441 L262 441 Z " />
<glyph glyph-name="dollar" unicode="&#x24;" horiz-adv-x="488" d="M213 -62 L213 -4 Q127 -2 71 22 Q48 31 48 51 L48 59 Q48 88 72 77 Q130 50 229 50 Q307 50 345.5 72 Q384 94 384 144 Q384 185 361 211.5 Q338 238 289 270 L150 360 Q53 423 53 515 Q53 642 213 652 L213 712 Q213 726 217.5 730 Q222 734 235 734 L239 734 Q252 734 256.5 730 Q261 726 261 712 L261 653 Q330 652 389 629 Q399 625 403 622.5 Q407 620 409.5 614.5 Q412 609 412 600 L412 592 Q412 562 389 574 Q333 600 244 600 Q172 600 141 579 Q110 558 110 513 Q110 476 128 452.5 Q146 429 185 403 L325 311 Q382 274 411 237.5 Q440 201 440 144 Q440 8 261 -2 L261 -62 Q261 -76 256.5 -80 Q252 -84 239 -84 L235 -84 Q222 -84 217.5 -80 Q213 -76 213 -62 Z " />
<glyph glyph-name="percent" unicode="&#x25;" horiz-adv-x="738" d="M535 650 L542 650 Q557 650 559.5 646 Q562 642 555 628 L241 22 Q234 9 226.5 4.5 Q219 0 204 0 L197 0 Q182 0 179.5 4 Q177 8 184 22 L498 628 Q505 641 512.5 645.5 Q520 650 535 650 Z M196 657 Q340 657 340 498 Q340 339 196 339 Q52 339 52 498 Q52 657 196 657 Z M291 498 Q291 558 268.5 584.5 Q246 611 196 611 Q145 611 123 584.5 Q101 558 101 498 Q101 437 123 410.5 Q145 384 196 384 Q246 384 268.5 410.5 Q291 437 291 498 Z M542 311 Q686 311 686 152 Q686 -7 542 -7 Q398 -7 398 152 Q398 311 542 311 Z M615 65 Q637 91 637 152 Q637 213 615 239.5 Q593 266 542 266 Q492 266 469.5 239.5 Q447 213 447 152 Q447 92 469.5 65.5 Q492 39 542 39 Q593 39 615 65 Z " />
<glyph glyph-name="ampersand" unicode="&#x26;" horiz-adv-x="598" d="M557 317 L499 317 L499 210 Q499 -9 285 -9 Q238 -9 201 -1 Q164 7 131 26 Q98 45 80 82 Q62 119 62 173 Q62 314 191 342 Q83 366 83 486 Q83 575 133 616.5 Q183 658 285 658 Q332 658 362 652 Q386 649 386 625 L386 619 Q386 594 361 599 Q319 606 285 606 Q207 606 172.5 575.5 Q138 545 138 486 Q138 426 169 395.5 Q200 365 281 365 L443 365 L443 431 Q443 445 448 450 Q453 455 467 455 L475 455 Q489 455 494 450 Q499 445 499 431 L499 365 L557 365 Q570 365 574.5 360.5 Q579 356 579 343 L579 339 Q579 326 574.5 321.5 Q570 317 557 317 Z M119 175 Q119 133 132.5 105.5 Q146 78 171.5 65 Q197 52 223 47.5 Q249 43 284 43 Q317 43 341.5 48.5 Q366 54 391 70 Q416 86 429.5 121.5 Q443 157 443 211 L443 317 L282 317 Q203 317 161 285.5 Q119 254 119 175 Z " />
<glyph glyph-name="quotesingle" unicode="&#x27;" horiz-adv-x="130" d="M43 534 L43 703 Q43 715 47 719 Q51 723 63 723 L67 723 Q79 723 83 719 Q87 715 87 703 L87 534 Q87 522 83 518 Q79 514 67 514 L63 514 Q51 514 47 518 Q43 522 43 534 Z " />
<glyph glyph-name="parenleft" unicode="&#x28;" horiz-adv-x="316" d="M58 250 Q58 535 240 711 Q255 726 270 712 L273 709 Q289 696 275 682 Q107 516 107 250 Q107 -19 277 -182 Q291 -195 275 -208 L270 -212 Q255 -226 242 -214 Q58 -34 58 250 Z " />
<glyph glyph-name="parenright" unicode="&#x29;" horiz-adv-x="316" d="M257 250 Q257 -34 73 -214 Q60 -226 45 -212 L40 -208 Q24 -195 38 -182 Q208 -19 208 250 Q208 516 40 682 Q26 696 42 709 L45 712 Q60 726 75 711 Q257 535 257 250 Z " />
<glyph glyph-name="asterisk" unicode="&#x2a;" horiz-adv-x="450" d="M245 708 L244 569 L377 613 Q388 617 391.5 615 Q395 613 399 602 L401 596 Q405 586 402.5 581.5 Q400 577 390 574 L256 531 L339 419 Q349 405 336 394 L330 389 Q317 378 306 394 L224 508 L143 395 Q132 379 119 390 L114 394 Q105 401 104.5 406 Q104 411 110 419 L192 531 L60 573 Q50 576 48 580.5 Q46 585 49 595 L51 602 Q54 612 58 614.5 Q62 617 73 613 L205 568 L203 708 Q203 718 206.5 722 Q210 726 221 726 L227 726 Q238 726 241.5 722 Q245 718 245 708 Z " />
<glyph glyph-name="plus" unicode="&#x2b;" horiz-adv-x="553" d="M494 315 L494 310 Q494 298 490 294 Q486 290 474 290 L301 290 L301 119 Q301 106 296.5 101.5 Q292 97 279 97 L274 97 Q260 97 256 101.5 Q252 106 252 119 L252 290 L78 290 Q66 290 62 294 Q58 298 58 310 L58 315 Q58 327 62 331 Q66 335 78 335 L252 335 L252 507 Q252 520 256 524.5 Q260 529 274 529 L279 529 Q292 529 296.5 524.5 Q301 520 301 507 L301 335 L474 335 Q486 335 490 331 Q494 327 494 315 Z " />
<glyph glyph-name="comma" unicode="&#x2c;" horiz-adv-x="182" d="M42 -135 Q34 -133 35 -118 Q41 -60 59 16 Q74 79 105 79 Q130 79 130 49 Q130 3 59 -125 Q51 -138 42 -135 Z " />
<glyph glyph-name="hyphen" unicode="&#x2d;" horiz-adv-x="358" d="M334 315 L334 310 Q334 298 330 294 Q326 290 314 290 L44 290 Q32 290 28 294 Q24 298 24 310 L24 315 Q24 327 28 331 Q32 335 44 335 L314 335 Q326 335 330 331 Q334 327 334 315 Z " />
<glyph glyph-name="period" unicode="&#x2e;" horiz-adv-x="190" d="M52 37 Q52 56 64.5 68.5 Q77 81 95 81 Q113 81 125.5 68.5 Q138 56 138 37 Q138 19 125.5 6.5 Q113 -6 95 -6 Q77 -6 64.5 6.5 Q52 19 52 37 Z " />
<glyph glyph-name="slash" unicode="&#x2f;" horiz-adv-x="277" d="M256 726 L263 726 Q277 726 279.5 722 Q282 718 278 705 L49 -9 Q44 -22 38.5 -26 Q33 -30 20 -30 L14 -30 Q0 -30 -2.5 -26 Q-5 -22 -1 -9 L227 705 Q232 718 237.5 722 Q243 726 256 726 Z " />
<glyph glyph-name="zero" unicode="0" horiz-adv-x="546" d="M438 230 L438 417 Q438 519 399 562.5 Q360 606 273 606 Q187 606 147.5 562.5 Q108 519 108 417 L108 230 Q108 128 147 85.5 Q186 43 273 43 Q360 43 399 85.5 Q438 128 438 230 Z M273 -9 Q156 -9 103.5 48.5 Q51 106 51 230 L51 417 Q51 543 103 600.5 Q155 658 273 658 Q392 658 443.5 600.5 Q495 543 495 417 L495 230 Q495 105 443.5 48 Q392 -9 273 -9 Z " />
<glyph glyph-name="one" unicode="1" horiz-adv-x="317" d="M21 491 L16 496 Q6 506 6 512.5 Q6 519 14 529 L78 610 Q117 658 167 658 Q208 658 227.5 634 Q247 610 247 551 L247 24 Q247 10 242 5 Q237 0 223 0 L215 0 Q201 0 196 5 Q191 10 191 24 L191 530 Q191 564 190 577 Q189 590 182.5 598 Q176 606 161 606 Q138 606 113 573 L51 493 Q43 483 37 482.5 Q31 482 21 491 Z " />
<glyph glyph-name="two" unicode="2" horiz-adv-x="483" d="M432 497 Q432 403 329 319 L137 160 Q93 123 93 91 Q93 70 105.5 61 Q118 52 158 52 L408 52 Q422 52 427 47 Q432 42 432 28 L432 24 Q432 10 427 5 Q422 0 408 0 L156 0 Q91 0 64.5 22 Q38 44 38 86 Q38 149 103 202 L289 353 Q339 394 358 425 Q377 456 377 492 Q377 550 341.5 578 Q306 606 225 606 Q135 606 77 580 Q54 570 54 598 L54 607 Q54 620 58.5 625 Q63 630 77 635 Q146 658 226 658 Q432 658 432 497 Z " />
<glyph glyph-name="three" unicode="3" horiz-adv-x="474" d="M171 336 L171 340 Q171 354 175.5 358.5 Q180 363 194 363 L217 363 Q300 363 331 393.5 Q362 424 362 482 Q362 544 329.5 575 Q297 606 211 606 Q136 606 68 585 Q55 581 49.5 585.5 Q44 590 44 604 L44 614 Q44 627 48.5 631.5 Q53 636 68 641 Q122 658 211 658 Q322 658 370 613.5 Q418 569 418 483 Q418 425 394.5 390.5 Q371 356 323 337 Q372 325 400 284.5 Q428 244 428 180 Q428 -9 211 -9 Q129 -9 57 9 Q42 13 37.5 17.5 Q33 22 33 36 L33 44 Q33 72 57 64 Q120 43 211 43 Q301 43 336.5 76.5 Q372 110 372 180 Q372 313 217 313 L194 313 Q180 313 175.5 317.5 Q171 322 171 336 Z " />
<glyph glyph-name="four" unicode="4" horiz-adv-x="476" d="M53 304 L159 624 Q164 640 171 645 Q178 650 195 650 L199 650 Q216 650 219.5 645 Q223 640 218 624 L103 278 Q90 237 103.5 219 Q117 201 161 201 L366 201 L366 466 Q366 480 371 485 Q376 490 390 490 L398 490 Q412 490 417 485 Q422 480 422 466 L422 24 Q422 10 417 5 Q412 0 398 0 L390 0 Q376 0 371 5 Q366 10 366 24 L366 149 L167 149 Q82 149 54 186 Q26 223 53 304 Z " />
<glyph glyph-name="five" unicode="5" horiz-adv-x="482" d="M55 421 L55 546 Q55 601 79.5 625.5 Q104 650 159 650 L386 650 Q400 650 405 645 Q410 640 410 626 L410 622 Q410 608 405 603 Q400 598 386 598 L165 598 Q110 598 110 544 L110 423 Q110 369 165 369 L216 369 Q332 369 387 324 Q442 279 442 183 Q442 88 389 40.5 Q336 -7 222 -7 Q136 -7 69 11 Q54 15 49.5 19.5 Q45 24 45 38 L45 46 Q45 74 69 66 Q134 45 224 45 Q314 45 350.5 79 Q387 113 387 182 Q387 260 346 288.5 Q305 317 210 317 L159 317 Q104 317 79.5 341.5 Q55 366 55 421 Z " />
<glyph glyph-name="six" unicode="6" horiz-adv-x="509" d="M266 388 Q373 388 422.5 341.5 Q472 295 472 196 Q472 93 421.5 43 Q371 -7 266 -7 Q149 -7 100 55 Q51 117 51 238 L51 429 Q51 548 104.5 603 Q158 658 283 658 Q355 658 421 636 Q435 631 440 625.5 Q445 620 445 607 L445 599 Q445 570 422 580 Q364 606 278 606 Q180 606 143 565 Q106 524 106 431 L106 366 Q181 388 266 388 Z M262 338 Q174 338 106 315 L106 241 Q106 142 140 93.5 Q174 45 270 45 Q349 45 382.5 80 Q416 115 416 193 Q416 271 380.5 304.5 Q345 338 262 338 Z " />
<glyph glyph-name="seven" unicode="7" horiz-adv-x="477" d="M147 0 L142 0 Q125 0 121.5 5 Q118 10 126 26 L344 477 Q366 522 366 556 Q366 578 350 588 Q334 598 296 598 L52 598 Q38 598 33 603 Q28 608 28 622 L28 626 Q28 640 33 645 Q38 650 52 650 L298 650 Q422 650 422 558 Q422 513 368 401 L187 25 Q180 10 172 5 Q164 0 147 0 Z " />
<glyph glyph-name="eight" unicode="8" horiz-adv-x="535" d="M267 658 Q376 658 422.5 614.5 Q469 571 469 485 Q469 428 449.5 394 Q430 360 380 340 Q437 320 462.5 281 Q488 242 488 178 Q488 -9 266 -9 Q47 -9 47 178 Q47 243 73.5 281.5 Q100 320 159 340 Q107 361 86 394.5 Q65 428 65 485 Q65 569 112 613.5 Q159 658 267 658 Z M102 180 Q102 110 139.5 76.5 Q177 43 267 43 Q357 43 394.5 76.5 Q432 110 432 180 Q432 248 392.5 281 Q353 314 267 314 Q181 314 141.5 281 Q102 248 102 180 Z M120 483 Q120 418 154.5 389.5 Q189 361 267 361 Q345 361 379.5 389.5 Q414 418 414 482 Q414 545 383.5 575.5 Q353 606 267 606 Q182 606 151 576.5 Q120 547 120 483 Z " />
<glyph glyph-name="nine" unicode="9" horiz-adv-x="509" d="M248 263 Q137 263 87 309 Q37 355 37 455 Q37 558 88 608 Q139 658 243 658 Q361 658 410 596 Q459 534 459 413 L459 220 Q459 101 405 46 Q351 -9 227 -9 Q143 -9 87 14 Q77 18 72.5 20.5 Q68 23 65.5 28.5 Q63 34 63 43 L63 51 Q63 79 86 69 Q148 43 231 43 Q329 43 366 84.5 Q403 126 403 219 L403 286 Q342 263 248 263 Z M257 314 Q347 314 403 336 L403 411 Q403 510 369 558 Q335 606 239 606 Q160 606 126.5 571 Q93 536 93 459 Q93 378 129.5 346 Q166 314 257 314 Z " />
<glyph glyph-name="colon" unicode="&#x3a;" horiz-adv-x="190" d="M52 37 Q52 56 64.5 68.5 Q77 81 95 81 Q113 81 125.5 68.5 Q138 56 138 37 Q138 19 125.5 6.5 Q113 -6 95 -6 Q77 -6 64.5 6.5 Q52 19 52 37 Z M52 453 Q52 471 64.5 483.5 Q77 496 95 496 Q113 496 125.5 483.5 Q138 471 138 453 Q138 435 125.5 422.5 Q113 410 95 410 Q77 410 64.5 422 Q52 434 52 453 Z " />
<glyph glyph-name="semicolon" unicode="&#x3b;" horiz-adv-x="183" d="M48 453 Q48 471 60.5 483.5 Q73 496 92 496 Q110 496 122.5 483.5 Q135 471 135 453 Q135 435 122.5 422.5 Q110 410 92 410 Q73 410 60.5 422 Q48 434 48 453 Z M45 -135 Q37 -133 38 -118 Q44 -60 62 16 Q77 79 108 79 Q133 79 133 49 Q133 3 62 -125 Q54 -138 45 -135 Z " />
<glyph glyph-name="less" unicode="&#x3c;" horiz-adv-x="430" d="M380 118 L380 113 Q380 99 376 96 Q372 93 359 100 L84 240 Q48 258 35.5 278 Q23 298 23 325 Q23 379 84 410 L359 551 Q372 558 376 555 Q380 552 380 538 L380 533 Q380 509 359 498 L93 362 Q69 350 69 325 Q69 299 93 287 L359 153 Q380 142 380 118 Z " />
<glyph glyph-name="equal" unicode="&#x3d;" horiz-adv-x="533" d="M474 213 L474 208 Q474 196 470 192 Q466 188 454 188 L78 188 Q66 188 62 192 Q58 196 58 208 L58 213 Q58 225 62 229 Q66 233 78 233 L454 233 Q466 233 470 229 Q474 225 474 213 Z M474 443 L474 438 Q474 426 470 422 Q466 418 454 418 L78 418 Q66 418 62 422 Q58 426 58 438 L58 443 Q58 455 62 459 Q66 463 78 463 L454 463 Q466 463 470 459 Q474 455 474 443 Z " />
<glyph glyph-name="greater" unicode="&#x3e;" horiz-adv-x="430" d="M50 113 L50 118 Q50 142 71 153 L337 287 Q361 299 361 325 Q361 350 337 362 L71 498 Q50 509 50 533 L50 538 Q50 552 54 555 Q58 558 71 551 L346 410 Q407 379 407 325 Q407 298 394.5 278 Q382 258 346 240 L71 100 Q58 93 54 96 Q50 99 50 113 Z " />
<glyph glyph-name="question" unicode="&#x3f;" horiz-adv-x="393" d="M66 38 Q66 56 78.5 68.5 Q91 81 109 81 Q128 81 140.5 68.5 Q153 56 153 38 Q153 19 140.5 6.5 Q128 -6 109 -6 Q91 -6 78.5 6.5 Q66 19 66 38 Z M347 478 Q347 439 337.5 410 Q328 381 306.5 358 Q285 335 269.5 323 Q254 311 222 291 Q180 265 160 239.5 Q140 214 136 181 Q134 170 130 167 Q126 164 113 164 L108 164 Q95 164 90.5 167.5 Q86 171 85 182 Q82 265 196 337 Q220 352 231.5 360.5 Q243 369 260 386.5 Q277 404 284 426 Q291 448 291 478 Q291 550 257.5 578 Q224 606 152 606 Q99 606 63 594 Q39 587 39 614 L39 622 Q39 644 65 649 Q110 658 149 658 Q248 658 297.5 616 Q347 574 347 478 Z " />
<glyph glyph-name="at" unicode="&#x40;" horiz-adv-x="915" d="M639 276 L639 207 Q639 81 718 81 Q773 81 792.5 118 Q812 155 812 217 L812 276 Q812 365 783 432.5 Q754 500 703.5 538.5 Q653 577 591.5 595.5 Q530 614 458 614 Q383 614 321.5 595.5 Q260 577 211 538 Q162 499 135 432.5 Q108 366 108 276 L108 206 Q108 119 134.5 54 Q161 -11 208.5 -48.5 Q256 -86 315.5 -104 Q375 -122 448 -122 Q570 -122 651 -61 Q660 -54 665 -54.5 Q670 -55 677 -65 L680 -69 Q688 -79 687.5 -84.5 Q687 -90 678 -97 Q652 -120 589.5 -143 Q527 -166 445 -166 Q274 -166 167 -72.5 Q60 21 60 206 L60 276 Q60 374 91.5 449 Q123 524 178 569 Q233 614 303.5 636 Q374 658 458 658 Q540 658 610 636.5 Q680 615 737 570.5 Q794 526 826.5 450.5 Q859 375 859 276 L859 217 Q859 38 721 38 Q679 38 647 62 Q615 86 604 134 Q569 38 448 38 Q277 38 277 217 L277 276 Q277 359 321 406.5 Q365 454 458 454 Q550 454 594.5 406.5 Q639 359 639 276 Z M326 275 L326 217 Q326 147 355 114 Q384 81 453 81 Q525 81 558 120.5 Q591 160 591 217 L591 275 Q591 339 561.5 375 Q532 411 458 411 Q385 411 355.5 375 Q326 339 326 275 Z " />
<glyph glyph-name="A" unicode="A" horiz-adv-x="590" d="M419 529 L562 25 Q566 10 562.5 5 Q559 0 543 0 L539 0 Q523 0 517 5 Q511 10 506 25 L451 219 L139 219 L84 25 Q79 10 73 5 Q67 0 51 0 L47 0 Q31 0 27.5 5 Q24 10 28 25 L171 529 Q193 606 217.5 632 Q242 658 295 658 Q348 658 372.5 632 Q397 606 419 529 Z M230 544 L153 270 L437 270 L360 544 Q349 582 335 595.5 Q321 609 295 609 Q269 609 255 595.5 Q241 582 230 544 Z " />
<glyph glyph-name="B" unicode="B" horiz-adv-x="584" d="M183 650 L296 650 Q413 650 461.5 607.5 Q510 565 510 481 Q510 416 483.5 381.5 Q457 347 390 337 L390 333 Q469 325 499.5 286.5 Q530 248 530 179 Q530 91 481.5 45.5 Q433 0 314 0 L183 0 Q128 0 103.5 24.5 Q79 49 79 104 L79 546 Q79 601 103.5 625.5 Q128 650 183 650 Z M314 307 L134 307 L134 106 Q134 78 147 65 Q160 52 188 52 L309 52 Q403 52 438.5 82 Q474 112 474 179 Q474 246 440 276.5 Q406 307 314 307 Z M296 598 L188 598 Q160 598 147 585 Q134 572 134 544 L134 358 L296 358 Q386 358 420 387 Q454 416 454 478 Q454 540 420 569 Q386 598 296 598 Z " />
<glyph glyph-name="C" unicode="C" horiz-adv-x="520" d="M115 399 L115 239 Q115 141 158.5 92 Q202 43 301 43 Q395 43 455 73 Q478 84 478 54 L478 48 Q478 39 475 33.5 Q472 28 468.5 25.5 Q465 23 455 19 Q393 -9 305 -9 Q178 -9 118.5 51.5 Q59 112 59 239 L59 399 Q59 531 117.5 594.5 Q176 658 302 658 Q322 658 340.5 656.5 Q359 655 370.5 653.5 Q382 652 396.5 648 Q411 644 416 642.5 Q421 641 434 636 L447 631 Q461 626 465.5 621 Q470 616 470 602 L470 595 Q470 565 447 576 Q382 606 298 606 Q201 606 158 556 Q115 506 115 399 Z " />
<glyph glyph-name="D" unicode="D" horiz-adv-x="599" d="M79 104 L79 546 Q79 601 103.5 625.5 Q128 650 183 650 L267 650 Q418 650 479 594 Q540 538 540 393 L540 257 Q540 116 478.5 58 Q417 0 267 0 L183 0 Q128 0 103.5 24.5 Q79 49 79 104 Z M267 52 Q394 52 439 96 Q484 140 484 257 L484 393 Q484 509 439 553.5 Q394 598 267 598 L188 598 Q160 598 147 585 Q134 572 134 544 L134 106 Q134 78 147 65 Q160 52 188 52 L267 52 Z " />
<glyph glyph-name="E" unicode="E" horiz-adv-x="525" d="M134 315 L134 106 Q134 78 147 65 Q160 52 188 52 L459 52 Q473 52 478 47 Q483 42 483 28 L483 24 Q483 10 478 5 Q473 0 459 0 L183 0 Q128 0 103.5 24.5 Q79 49 79 104 L79 546 Q79 601 103.5 625.5 Q128 650 183 650 L459 650 Q473 650 478 645 Q483 640 483 626 L483 622 Q483 608 478 603 Q473 598 459 598 L188 598 Q160 598 147 585 Q134 572 134 544 L134 367 L419 367 Q433 367 438 362 Q443 357 443 343 L443 339 Q443 325 438 320 Q433 315 419 315 L134 315 Z " />
<glyph glyph-name="F" unicode="F" horiz-adv-x="512" d="M134 313 L134 24 Q134 10 129 5 Q124 0 110 0 L103 0 Q89 0 84 5 Q79 10 79 24 L79 546 Q79 601 103.5 625.5 Q128 650 183 650 L455 650 Q469 650 474 645 Q479 640 479 626 L479 622 Q479 608 474 603 Q469 598 455 598 L188 598 Q160 598 147 585 Q134 572 134 544 L134 365 L415 365 Q429 365 434 360 Q439 355 439 341 L439 337 Q439 323 434 318 Q429 313 415 313 L134 313 Z " />
<glyph glyph-name="G" unicode="G" horiz-adv-x="567" d="M459 117 L459 328 Q459 342 464 347 Q469 352 483 352 L488 352 Q502 352 507 347 Q512 342 512 328 L512 131 Q512 69 491 38 Q470 7 415 -2 Q378 -9 327 -9 Q187 -9 123 51.5 Q59 112 59 240 L59 400 Q59 531 122.5 594.5 Q186 658 322 658 Q404 658 477 630 Q487 626 491 623.5 Q495 621 497.5 615.5 Q500 610 500 601 L500 594 Q500 567 477 576 Q404 606 318 606 Q210 606 162.5 556 Q115 506 115 398 L115 238 Q115 139 163 91 Q211 43 322 43 Q370 43 407 50 Q436 56 447.5 72 Q459 88 459 117 Z " />
<glyph glyph-name="H" unicode="H" horiz-adv-x="602" d="M134 316 L134 24 Q134 10 129 5 Q124 0 110 0 L103 0 Q89 0 84 5 Q79 10 79 24 L79 626 Q79 640 84 645 Q89 650 103 650 L110 650 Q124 650 129 645 Q134 640 134 626 L134 369 L468 369 L468 626 Q468 640 473 645 Q478 650 492 650 L499 650 Q513 650 518 645 Q523 640 523 626 L523 24 Q523 10 518 5 Q513 0 499 0 L492 0 Q478 0 473 5 Q468 10 468 24 L468 316 L134 316 Z " />
<glyph glyph-name="I" unicode="I" horiz-adv-x="224" d="M84 24 L84 626 Q84 640 89 645 Q94 650 108 650 L116 650 Q130 650 135 645 Q140 640 140 626 L140 24 Q140 10 135 5 Q130 0 116 0 L108 0 Q94 0 89 5 Q84 10 84 24 Z " />
<glyph glyph-name="J" unicode="J" horiz-adv-x="224" d="M140 626 L140 118 Q140 -1 108.5 -69 Q77 -137 19 -179 Q12 -184 7 -185 Q2 -186 -2 -182.5 Q-6 -179 -11 -171 L-15 -166 Q-28 -146 -12 -135 Q37 -100 60.5 -41.5 Q84 17 84 116 L84 626 Q84 640 89 645 Q94 650 108 650 L116 650 Q130 650 135 645 Q140 640 140 626 Z " />
<glyph glyph-name="K" unicode="K" horiz-adv-x="527" d="M235 434 L400 626 Q421 650 453 650 L458 650 Q477 650 479.5 645 Q482 640 469 626 L274 397 Q239 357 239 340 Q239 325 274 282 L489 25 Q502 10 499.5 5 Q497 0 478 0 L473 0 Q453 0 442.5 4.5 Q432 9 420 24 L235 245 Q207 279 196 298.5 Q185 318 185 340 Q185 362 196 381.5 Q207 401 235 434 Z M79 24 L79 626 Q79 640 84 645 Q89 650 103 650 L110 650 Q124 650 129 645 Q134 640 134 626 L134 24 Q134 10 129 5 Q124 0 110 0 L103 0 Q89 0 84 5 Q79 10 79 24 Z " />
<glyph glyph-name="L" unicode="L" horiz-adv-x="465" d="M79 104 L79 626 Q79 640 84 645 Q89 650 103 650 L110 650 Q124 650 129 645 Q134 640 134 626 L134 106 Q134 78 147 65 Q160 52 188 52 L419 52 Q433 52 438 47 Q443 42 443 28 L443 24 Q443 10 438 5 Q433 0 419 0 L183 0 Q128 0 103.5 24.5 Q79 49 79 104 Z " />
<glyph glyph-name="M" unicode="M" horiz-adv-x="775" d="M700 532 L738 24 Q739 10 734.5 5 Q730 0 716 0 L708 0 Q694 0 688.5 5 Q683 10 682 24 L645 547 Q642 582 628 594 Q614 606 589 606 Q567 606 554.5 593.5 Q542 581 537 547 L469 83 Q463 40 445 20 Q427 0 388 0 Q350 0 331.5 20 Q313 40 307 83 L238 547 Q233 582 220.5 594 Q208 606 186 606 Q162 606 148.5 593.5 Q135 581 132 547 L93 24 Q92 10 86.5 5 Q81 0 67 0 L59 0 Q45 0 40.5 5 Q36 10 37 24 L75 532 Q81 603 108 629.5 Q135 656 185 656 Q232 656 258 629.5 Q284 603 294 532 L358 87 Q362 62 368 54 Q374 46 388 46 Q400 46 406.5 54.5 Q413 63 417 87 L481 532 Q491 603 517 629.5 Q543 656 590 656 Q640 656 667 629.5 Q694 603 700 532 Z " />
<glyph glyph-name="N" unicode="N" horiz-adv-x="618" d="M79 24 L79 563 Q79 657 162 657 Q199 657 218.5 638.5 Q238 620 252 577 L416 83 Q424 57 433 49.5 Q442 42 456 42 Q484 42 484 83 L484 626 Q484 640 489 645 Q494 650 508 650 L515 650 Q529 650 534 645 Q539 640 539 626 L539 87 Q539 37 519 15 Q499 -7 458 -7 Q419 -7 399.5 12.5 Q380 32 365 78 L202 566 Q194 590 186 599 Q178 608 164 608 Q133 608 133 565 L133 24 Q133 10 128 5 Q123 0 109 0 L103 0 Q89 0 84 5 Q79 10 79 24 Z " />
<glyph glyph-name="O" unicode="O" horiz-adv-x="611" d="M497 251 L497 399 Q497 508 458 557 Q419 606 306 606 Q192 606 153 557 Q114 508 114 399 L114 251 Q114 197 121.5 161 Q129 125 149.5 97 Q170 69 208.5 56 Q247 43 306 43 Q419 43 458 92.5 Q497 142 497 251 Z M306 -9 Q167 -9 113 54.5 Q59 118 59 251 L59 399 Q59 531 113 594.5 Q167 658 306 658 Q445 658 498.5 594.5 Q552 531 552 399 L552 251 Q552 119 498 55 Q444 -9 306 -9 Z " />
<glyph glyph-name="P" unicode="P" horiz-adv-x="571" d="M183 650 L324 650 Q443 650 491 600 Q539 550 539 448 Q539 348 490.5 297.5 Q442 247 324 247 L134 247 L134 24 Q134 10 129 5 Q124 0 110 0 L103 0 Q89 0 84 5 Q79 10 79 24 L79 546 Q79 601 103.5 625.5 Q128 650 183 650 Z M324 598 L188 598 Q160 598 147 585 Q134 572 134 544 L134 299 L324 299 Q417 299 450.5 333.5 Q484 368 484 448 Q484 527 450 562.5 Q416 598 324 598 Z " />
<glyph glyph-name="Q" unicode="Q" horiz-adv-x="611" d="M552 251 Q552 139 515 77 Q478 15 386 -1 L489 -104 Q503 -118 500.5 -122.5 Q498 -127 479 -127 L470 -127 Q440 -127 420 -105 L329 -8 Q312 -8 282 -6 Q156 -1 107.5 61.5 Q59 124 59 251 L59 399 Q59 531 113 594.5 Q167 658 306 658 Q445 658 498.5 594.5 Q552 531 552 399 L552 251 Z M497 251 L497 399 Q497 508 458 557 Q419 606 306 606 Q192 606 153 557 Q114 508 114 399 L114 251 Q114 197 121.5 161 Q129 125 149.5 97 Q170 69 208.5 56 Q247 43 306 43 Q419 43 458 92.5 Q497 142 497 251 Z " />
<glyph glyph-name="R" unicode="R" horiz-adv-x="592" d="M539 462 Q539 381 506 335 Q473 289 389 278 L545 26 Q555 10 552 5 Q549 0 531 0 L527 0 Q509 0 500 5 Q491 10 481 26 L329 275 L134 275 L134 24 Q134 10 129 5 Q124 0 110 0 L103 0 Q89 0 84 5 Q79 10 79 24 L79 546 Q79 601 103.5 625.5 Q128 650 183 650 L332 650 Q449 650 494 603.5 Q539 557 539 462 Z M332 598 L188 598 Q160 598 147 585 Q134 572 134 544 L134 327 L332 327 Q422 327 453 359 Q484 391 484 462 Q484 535 453 566.5 Q422 598 332 598 Z " />
<glyph glyph-name="S" unicode="S" horiz-adv-x="513" d="M53 45 L53 53 Q53 81 77 72 Q143 45 245 45 Q329 45 369 66.5 Q409 88 409 142 Q409 171 394.5 194.5 Q380 218 363.5 231 Q347 244 312 265 L156 364 Q111 392 84.5 427.5 Q58 463 58 518 Q58 658 258 658 Q350 658 412 633 Q422 629 426.5 626.5 Q431 624 433.5 618.5 Q436 613 436 604 L436 596 Q436 568 414 578 Q352 605 258 605 Q181 605 148 584 Q115 563 115 516 Q115 478 133.5 455 Q152 432 191 408 L349 307 Q386 284 406.5 267.5 Q427 251 446 218 Q465 185 465 143 Q465 -9 242 -9 Q147 -9 76 17 Q65 21 61.5 23.5 Q58 26 55.5 31 Q53 36 53 45 Z " />
<glyph glyph-name="T" unicode="T" horiz-adv-x="547" d="M30 622 L30 626 Q30 640 35 645 Q40 650 54 650 L493 650 Q507 650 512 645 Q517 640 517 626 L517 622 Q517 608 512 603 Q507 598 493 598 L301 598 L301 24 Q301 10 296 5 Q291 0 277 0 L270 0 Q256 0 251 5 Q246 10 246 24 L246 598 L54 598 Q40 598 35 603 Q30 608 30 622 Z " />
<glyph glyph-name="U" unicode="U" horiz-adv-x="613" d="M69 199 L69 626 Q69 640 74 645 Q79 650 93 650 L100 650 Q114 650 119 645 Q124 640 124 626 L124 199 Q124 114 168.5 78.5 Q213 43 307 43 Q400 43 444.5 78.5 Q489 114 489 199 L489 626 Q489 640 494 645 Q499 650 513 650 L520 650 Q534 650 539 645 Q544 640 544 626 L544 199 Q544 -9 307 -9 Q69 -9 69 199 Z " />
<glyph glyph-name="V" unicode="V" horiz-adv-x="571" d="M543 627 L410 121 Q390 44 365 18 Q340 -8 285 -8 Q231 -8 205.5 18 Q180 44 160 121 L28 627 Q24 640 28 645 Q32 650 46 650 L55 650 Q69 650 75 645.5 Q81 641 85 627 L220 106 Q230 68 244.5 54.5 Q259 41 285 41 Q312 41 326.5 54.5 Q341 68 350 106 L486 627 Q490 641 496 645.5 Q502 650 516 650 L525 650 Q539 650 543 645 Q547 640 543 627 Z " />
<glyph glyph-name="W" unicode="W" horiz-adv-x="892" d="M861 626 L773 104 Q763 41 737.5 16.5 Q712 -8 663 -8 Q616 -8 592 16.5 Q568 41 557 104 L479 553 Q474 584 467 594 Q460 604 446 604 Q432 604 425 594 Q418 584 413 553 L335 104 Q324 41 300 16.5 Q276 -8 228 -8 Q180 -8 154 16.5 Q128 41 118 104 L31 626 Q29 640 33 645 Q37 650 51 650 L58 650 Q72 650 78 645 Q84 640 86 626 L173 103 Q179 67 192.5 54 Q206 41 228 41 Q251 41 263.5 54 Q276 67 282 103 L362 555 Q371 607 389 628.5 Q407 650 446 650 Q484 650 502 628.5 Q520 607 529 555 L609 103 Q615 67 628 54 Q641 41 663 41 Q686 41 699 54 Q712 67 718 103 L806 626 Q808 640 814 645 Q820 650 834 650 L841 650 Q855 650 859 645 Q863 640 861 626 Z " />
<glyph glyph-name="X" unicode="X" horiz-adv-x="584" d="M496 650 L501 650 Q518 650 521 645 Q524 640 516 625 L419 435 Q396 390 381.5 370.5 Q367 351 350 344 Q368 336 381 317.5 Q394 299 419 252 L536 25 Q544 10 541 5 Q538 0 521 0 L515 0 Q486 0 474 25 L358 256 Q339 294 327.5 306 Q316 318 291 318 Q267 318 255.5 306.5 Q244 295 225 256 L108 25 Q96 0 67 0 L62 0 Q46 0 42.5 5 Q39 10 47 25 L164 252 Q189 299 202 317.5 Q215 336 233 344 Q215 351 201 370 Q187 389 164 435 L67 625 Q62 635 61.5 640.5 Q61 646 66 648 Q71 650 82 650 L87 650 Q116 650 128 625 L225 430 Q243 394 255.5 381.5 Q268 369 291 369 Q314 369 327 381.5 Q340 394 358 430 L455 625 Q462 640 470.5 645 Q479 650 496 650 Z " />
<glyph glyph-name="Y" unicode="Y" horiz-adv-x="585" d="M265 24 L265 275 Q232 280 213 301 Q194 322 160 384 L28 625 Q20 640 23 645 Q26 650 43 650 L49 650 Q65 650 73.5 645 Q82 640 90 625 L218 387 Q240 347 253.5 334.5 Q267 322 293 322 Q318 322 332 335 Q346 348 367 387 L495 625 Q503 640 511.5 645 Q520 650 536 650 L542 650 Q559 650 562 645 Q565 640 557 625 L425 384 Q391 322 372 301 Q353 280 321 275 L321 24 Q321 10 316 5 Q311 0 297 0 L289 0 Q275 0 270 5 Q265 10 265 24 Z " />
<glyph glyph-name="Z" unicode="Z" horiz-adv-x="537" d="M54 622 L54 626 Q54 640 59 645 Q64 650 78 650 L380 650 Q436 650 466 624.5 Q496 599 496 553 Q496 496 434 438 L129 158 Q88 121 88 88 Q88 52 136 52 L479 52 Q493 52 498 47 Q503 42 503 28 L503 24 Q503 10 498 5 Q493 0 479 0 L137 0 Q83 0 59 22.5 Q35 45 35 79 Q35 101 38 115 Q41 129 56 152.5 Q71 176 100 203 L406 485 Q442 519 442 548 Q442 598 379 598 L78 598 Q64 598 59 603 Q54 608 54 622 Z " />
<glyph glyph-name="bracketleft" unicode="&#x5b;" horiz-adv-x="293" d="M259 -202 L259 -207 Q259 -218 255 -222 Q251 -226 240 -226 L159 -226 Q118 -226 99 -207 Q80 -188 80 -146 L80 646 Q80 688 99 707 Q118 726 159 726 L240 726 Q251 726 255 722 Q259 718 259 707 L259 702 Q259 691 255 687 Q251 683 240 683 L166 683 Q128 683 128 645 L128 -145 Q128 -183 166 -183 L240 -183 Q251 -183 255 -187 Q259 -191 259 -202 Z " />
<glyph glyph-name="backslash" unicode="&#x5c;" horiz-adv-x="277" d="M14 726 L21 726 Q34 726 39.5 722 Q45 718 50 705 L278 -9 Q282 -22 279.5 -26 Q277 -30 263 -30 L257 -30 Q244 -30 238.5 -26 Q233 -22 228 -9 L-1 705 Q-5 718 -2.5 722 Q0 726 14 726 Z " />
<glyph glyph-name="bracketright" unicode="&#x5d;" horiz-adv-x="293" d="M34 -207 L34 -202 Q34 -191 38 -187 Q42 -183 53 -183 L127 -183 Q165 -183 165 -145 L165 645 Q165 683 127 683 L53 683 Q42 683 38 687 Q34 691 34 702 L34 707 Q34 718 38 722 Q42 726 53 726 L134 726 Q175 726 194 707 Q213 688 213 646 L213 -146 Q213 -188 194 -207 Q175 -226 134 -226 L53 -226 Q42 -226 38 -222 Q34 -218 34 -207 Z " />
<glyph glyph-name="asciicircum" unicode="&#x5e;" horiz-adv-x="433" d="M273 633 L384 384 Q389 371 386.5 367 Q384 363 370 363 L365 363 Q351 363 344.5 367 Q338 371 333 384 L236 610 Q228 629 225 634 Q222 639 215 639 Q209 639 206 634.5 Q203 630 194 610 L99 384 Q94 371 87.5 367 Q81 363 67 363 L63 363 Q49 363 46.5 367 Q44 371 49 384 L158 633 Q170 662 182.5 672.5 Q195 683 215 683 Q236 683 248.5 672.5 Q261 662 273 633 Z " />
<glyph glyph-name="underscore" unicode="&#x5f;" horiz-adv-x="464" d="M465 -41 L465 -46 Q465 -57 461 -61 Q457 -65 446 -65 L18 -65 Q7 -65 3 -61 Q-1 -57 -1 -46 L-1 -41 Q-1 -30 3 -26 Q7 -22 18 -22 L446 -22 Q457 -22 461 -26 Q465 -30 465 -41 Z " />
<glyph glyph-name="grave" unicode="&#x60;" horiz-adv-x="233" d="M119 864 L172 769 Q180 758 177.5 754 Q175 750 160 750 L155 750 Q133 750 122 769 L65 865 Q57 878 59.5 882 Q62 886 77 886 L81 886 Q97 886 104.5 881.5 Q112 877 119 864 Z " />
<glyph glyph-name="a" unicode="a" horiz-adv-x="477" d="M424 349 L424 148 Q424 63 374.5 27 Q325 -9 218 -9 Q143 -9 92.5 26 Q42 61 42 137 Q42 213 92 246.5 Q142 280 246 280 L371 280 L371 349 Q371 405 335 428 Q299 451 230 451 Q160 451 110 437 Q97 433 92.5 437 Q88 441 88 455 L88 462 Q88 475 92.5 480 Q97 485 110 488 Q157 499 227 499 Q424 499 424 349 Z M371 150 L371 236 L248 236 Q168 236 131.5 214 Q95 192 95 137 Q95 39 218 39 Q298 39 334.5 62 Q371 85 371 150 Z " />
<glyph glyph-name="b" unicode="b" horiz-adv-x="546" d="M71 196 L71 676 Q71 690 76 695 Q81 700 95 700 L100 700 Q114 700 119 695 Q124 690 124 676 L124 419 Q162 499 288 499 Q398 499 446 446 Q494 393 494 293 L494 196 Q494 96 444.5 43.5 Q395 -9 282 -9 Q71 -9 71 196 Z M440 196 L440 294 Q440 374 406 411.5 Q372 449 282 449 Q192 449 158 411.5 Q124 374 124 294 L124 196 Q124 116 158 78.5 Q192 41 282 41 Q372 41 406 78.5 Q440 116 440 196 Z " />
<glyph glyph-name="c" unicode="c" horiz-adv-x="422" d="M53 195 L53 296 Q53 499 270 499 Q324 499 366 482 Q379 477 383 472.5 Q387 468 387 455 L387 449 Q387 424 366 432 Q320 449 271 449 Q178 449 142 410 Q106 371 106 295 L106 195 Q106 110 145.5 75.5 Q185 41 276 41 Q330 41 376 57 Q389 61 393.5 57.5 Q398 54 398 40 L398 33 Q398 20 394 16 Q390 12 376 7 Q330 -9 272 -9 Q160 -9 106.5 40 Q53 89 53 195 Z " />
<glyph glyph-name="d" unicode="d" horiz-adv-x="530" d="M476 676 L476 196 Q476 -9 264 -9 Q152 -9 102.5 43.5 Q53 96 53 196 L53 293 Q53 393 100.5 446 Q148 499 259 499 Q384 499 422 419 L422 676 Q422 690 427 695 Q432 700 446 700 L452 700 Q466 700 471 695 Q476 690 476 676 Z M106 294 L106 196 Q106 116 140 78.5 Q174 41 264 41 Q354 41 388 78.5 Q422 116 422 196 L422 294 Q422 374 388 411.5 Q354 449 264 449 Q174 449 140 411.5 Q106 374 106 294 Z " />
<glyph glyph-name="e" unicode="e" horiz-adv-x="508" d="M455 306 Q455 275 452 248 Q450 234 445 229 Q440 224 426 224 L106 224 L106 189 Q106 108 144.5 74.5 Q183 41 271 41 Q350 41 416 63 Q428 67 433 63 Q438 59 438 45 L438 39 Q438 26 434 22 Q430 18 416 13 Q355 -9 272 -9 Q160 -9 106.5 39 Q53 87 53 196 L53 294 Q53 499 256 499 Q351 499 403 450.5 Q455 402 455 306 Z M106 311 L106 271 L404 271 L404 311 Q404 451 255 451 Q106 451 106 311 Z " />
<glyph glyph-name="f" unicode="f" horiz-adv-x="364" d="M14 458 L14 463 Q14 473 17.5 477 Q21 481 32 483 L96 490 L96 577 Q96 717 253 717 Q301 717 341 707 Q354 704 357.5 699.5 Q361 695 361 681 L361 675 Q361 662 356 658 Q351 654 339 657 Q294 667 254 667 Q149 667 149 580 L149 490 L325 490 Q339 490 344 485.5 Q349 481 349 467 L349 463 Q349 449 344 444.5 Q339 440 325 440 L149 440 L149 24 Q149 10 144 5 Q139 0 125 0 L120 0 Q106 0 101 5 Q96 10 96 24 L96 440 L32 440 Q22 440 18 444 Q14 448 14 458 Z " />
<glyph glyph-name="g" unicode="g" horiz-adv-x="497" d="M450 316 Q450 146 250 146 Q161 146 133.5 138 Q106 130 106 104 Q106 80 134 72.5 Q162 65 250 65 Q368 65 414.5 36 Q461 7 461 -66 Q461 -149 413.5 -183.5 Q366 -218 250 -218 Q131 -218 84.5 -183.5 Q38 -149 38 -77 Q38 -1 97 35 Q53 53 53 99 Q53 129 74.5 148 Q96 167 135 171 Q48 202 48 316 L48 330 Q48 411 101 455 Q154 499 250 499 Q311 499 358 477 L416 530 Q431 543 446 529 L450 525 Q464 511 450 497 L400 449 Q450 410 450 330 L450 316 Z M397 316 L397 330 Q397 451 250 451 Q102 451 102 330 L102 316 Q102 255 133.5 224.5 Q165 194 250 194 Q334 194 365.5 224.5 Q397 255 397 316 Z M250 17 Q192 17 145 22 Q91 -5 91 -73 Q91 -130 126 -150 Q161 -170 250 -170 Q335 -170 371.5 -149.5 Q408 -129 408 -69 Q408 -15 373 1 Q338 17 250 17 Z " />
<glyph glyph-name="h" unicode="h" horiz-adv-x="538" d="M73 24 L73 676 Q73 690 78 695 Q83 700 97 700 L102 700 Q116 700 121 695 Q126 690 126 676 L126 427 Q169 499 285 499 Q475 499 475 324 L475 24 Q475 10 470 5 Q465 0 451 0 L446 0 Q432 0 427 5 Q422 10 422 24 L422 319 Q422 386 389 417.5 Q356 449 276 449 Q195 449 160.5 416.5 Q126 384 126 316 L126 24 Q126 10 121 5 Q116 0 102 0 L97 0 Q83 0 78 5 Q73 10 73 24 Z " />
<glyph glyph-name="i" unicode="i" horiz-adv-x="207" d="M77 24 L77 466 Q77 480 82 485 Q87 490 101 490 L106 490 Q120 490 125 485 Q130 480 130 466 L130 24 Q130 10 125 5 Q120 0 106 0 L101 0 Q87 0 82 5 Q77 10 77 24 Z M66 646 Q66 662 77 672.5 Q88 683 104 683 Q120 683 130 672.5 Q140 662 140 646 Q140 631 129.5 620 Q119 609 104 609 Q88 609 77 620 Q66 631 66 646 Z " />
<glyph glyph-name="j" unicode="j" horiz-adv-x="191" d="M58 646 Q58 662 69 672.5 Q80 683 96 683 Q112 683 122.5 672.5 Q133 662 133 646 Q133 631 122.5 620 Q112 609 96 609 Q80 609 69 620 Q58 631 58 646 Z M122 466 L122 84 Q122 -2 103.5 -62.5 Q85 -123 64 -147.5 Q43 -172 11 -195 Q1 -202 -4.5 -200.5 Q-10 -199 -17 -187 L-20 -182 Q-27 -171 -26.5 -165.5 Q-26 -160 -16 -152 Q11 -129 26 -109.5 Q41 -90 55 -40 Q69 10 69 82 L69 466 Q69 480 74 485 Q79 490 93 490 L98 490 Q112 490 117 485 Q122 480 122 466 Z " />
<glyph glyph-name="k" unicode="k" horiz-adv-x="452" d="M73 24 L73 676 Q73 690 78 695 Q83 700 97 700 L102 700 Q116 700 121 695 Q126 690 126 676 L126 24 Q126 10 121 5 Q116 0 102 0 L97 0 Q83 0 78 5 Q73 10 73 24 Z M200 338 L333 468 Q355 490 386 490 L392 490 Q411 490 412.5 486 Q414 482 401 468 L231 300 Q210 280 210 259 Q210 240 231 218 L421 22 Q434 8 432.5 4 Q431 0 412 0 L406 0 Q375 0 353 22 L200 179 Q159 220 159 261 Q159 281 167 297 Q175 313 200 338 Z " />
<glyph glyph-name="l" unicode="l" horiz-adv-x="222" d="M67 119 L67 676 Q67 690 72 695 Q77 700 91 700 L96 700 Q110 700 115 695 Q120 690 120 676 L120 125 Q120 46 174 46 L186 46 Q200 46 204.5 42.5 Q209 39 209 26 L209 22 Q209 9 204.5 4 Q200 -1 186 -3 Q180 -4 170 -4 Q124 -4 95.5 25 Q67 54 67 119 Z " />
<glyph glyph-name="m" unicode="m" horiz-adv-x="801" d="M116 318 L116 24 Q116 10 111 5 Q106 0 92 0 L87 0 Q73 0 68 5 Q63 10 63 24 L63 318 Q63 499 245 499 Q370 499 400 408 Q433 499 556 499 Q654 499 696 452 Q738 405 738 318 L738 24 Q738 10 733 5 Q728 0 714 0 L709 0 Q695 0 690 5 Q685 10 685 24 L685 318 Q685 385 657 417 Q629 449 556 449 Q483 449 455 417 Q427 385 427 318 L427 24 Q427 10 422 5 Q417 0 403 0 L398 0 Q384 0 379 5 Q374 10 374 24 L374 318 Q374 385 346 417 Q318 449 245 449 Q173 449 144.5 416.5 Q116 384 116 318 Z " />
<glyph glyph-name="n" unicode="n" horiz-adv-x="528" d="M116 318 L116 24 Q116 10 111 5 Q106 0 92 0 L87 0 Q73 0 68 5 Q63 10 63 24 L63 318 Q63 499 264 499 Q372 499 418.5 452 Q465 405 465 318 L465 24 Q465 10 460 5 Q455 0 441 0 L436 0 Q422 0 417 5 Q412 10 412 24 L412 318 Q412 384 380 416.5 Q348 449 264 449 Q180 449 148 416.5 Q116 384 116 318 Z " />
<glyph glyph-name="o" unicode="o" horiz-adv-x="528" d="M422 196 L422 294 Q422 374 388 411.5 Q354 449 264 449 Q175 449 140.5 411.5 Q106 374 106 294 L106 196 Q106 116 140.5 78.5 Q175 41 264 41 Q354 41 388 78.5 Q422 116 422 196 Z M264 -9 Q150 -9 101.5 43.5 Q53 96 53 196 L53 294 Q53 393 102.5 446 Q152 499 264 499 Q378 499 427 446.5 Q476 394 476 294 L476 196 Q476 97 426.5 44 Q377 -9 264 -9 Z " />
<glyph glyph-name="p" unicode="p" horiz-adv-x="546" d="M71 -176 L71 295 Q71 394 121 446.5 Q171 499 282 499 Q395 499 444.5 447 Q494 395 494 295 L494 197 Q494 97 446 44 Q398 -9 288 -9 Q162 -9 124 71 L124 -176 Q124 -190 119 -195 Q114 -200 100 -200 L95 -200 Q81 -200 76 -195 Q71 -190 71 -176 Z M440 196 L440 294 Q440 374 406 411.5 Q372 449 282 449 Q192 449 158 411.5 Q124 374 124 294 L124 196 Q124 116 158 78.5 Q192 41 282 41 Q372 41 406 78.5 Q440 116 440 196 Z " />
<glyph glyph-name="q" unicode="q" horiz-adv-x="546" d="M476 295 L476 -176 Q476 -190 471 -195 Q466 -200 452 -200 L446 -200 Q432 -200 427 -195 Q422 -190 422 -176 L422 71 Q384 -9 259 -9 Q148 -9 100.5 44 Q53 97 53 197 L53 295 Q53 395 102 447 Q151 499 264 499 Q476 499 476 295 Z M106 294 L106 196 Q106 116 140 78.5 Q174 41 264 41 Q354 41 388 78.5 Q422 116 422 196 L422 294 Q422 374 388 411.5 Q354 449 264 449 Q174 449 140 411.5 Q106 374 106 294 Z " />
<glyph glyph-name="r" unicode="r" horiz-adv-x="297" d="M116 328 L116 24 Q116 10 111 5 Q106 0 92 0 L87 0 Q73 0 68 5 Q63 10 63 24 L63 330 Q63 499 220 499 Q239 499 260 496 Q274 494 278 489.5 Q282 485 282 472 L282 466 Q282 452 277 448 Q272 444 259 446 Q243 449 220 449 Q162 449 139 419 Q116 389 116 328 Z " />
<glyph glyph-name="s" unicode="s" horiz-adv-x="453" d="M52 39 L52 43 Q52 57 57 61 Q62 65 75 62 Q162 41 227 41 Q290 41 319 56.5 Q348 72 348 109 Q348 137 332.5 155.5 Q317 174 282 191 L148 256 Q103 278 81.5 305 Q60 332 60 382 Q60 499 227 499 Q298 499 356 478 Q370 473 374.5 468.5 Q379 464 379 451 L379 446 Q379 420 355 428 Q298 449 225 449 Q166 449 139 434 Q112 419 112 383 Q112 331 170 303 L306 238 Q354 215 377.5 188 Q401 161 401 111 Q401 48 356.5 19.5 Q312 -9 221 -9 Q152 -9 75 12 Q61 16 56.5 21 Q52 26 52 39 Z " />
<glyph glyph-name="t" unicode="t" horiz-adv-x="393" d="M14 458 L14 463 Q14 473 17.5 477 Q21 481 32 483 L96 490 L106 602 Q108 613 112 616.5 Q116 620 126 620 L131 620 Q142 620 145.5 616 Q149 612 149 602 L149 490 L328 490 Q342 490 346.5 485 Q351 480 351 467 L351 463 Q351 450 346.5 445 Q342 440 328 440 L149 440 L149 164 Q149 97 175.5 69.5 Q202 42 252 42 Q304 42 346 54 Q369 61 369 35 L369 31 Q369 18 364 12.5 Q359 7 346 3 Q304 -9 253 -9 Q96 -9 96 164 L96 440 L32 440 Q22 440 18 444 Q14 448 14 458 Z " />
<glyph glyph-name="u" unicode="u" horiz-adv-x="511" d="M108 466 L108 172 Q108 106 140 73.5 Q172 41 256 41 Q340 41 372 73.5 Q404 106 404 172 L404 466 Q404 480 409 485 Q414 490 428 490 L433 490 Q447 490 452 485 Q457 480 457 466 L457 172 Q457 85 410.5 38 Q364 -9 256 -9 Q55 -9 55 172 L55 466 Q55 480 60 485 Q65 490 79 490 L84 490 Q98 490 103 485 Q108 480 108 466 Z " />
<glyph glyph-name="v" unicode="v" horiz-adv-x="505" d="M89 467 L188 99 Q197 64 211 51.5 Q225 39 252 39 Q279 39 293.5 51 Q308 63 317 99 L416 467 Q420 481 426 485.5 Q432 490 446 490 L452 490 Q466 490 470 485 Q474 480 470 467 L374 113 Q354 41 330 17 Q306 -7 252 -7 Q198 -7 173.5 17 Q149 41 130 113 L35 467 Q31 480 35 485 Q39 490 53 490 L59 490 Q73 490 79 485.5 Q85 481 89 467 Z " />
<glyph glyph-name="w" unicode="w" horiz-adv-x="793" d="M92 466 L154 98 Q164 38 208 38 Q232 38 245 52 Q258 66 263 98 L313 394 Q321 446 339.5 468 Q358 490 396 490 Q434 490 452.5 468.5 Q471 447 480 394 L530 98 Q540 38 584 38 Q629 38 639 98 L701 466 Q703 480 709 485 Q715 490 729 490 L735 490 Q749 490 753 485 Q757 480 755 466 L696 111 Q685 45 660 18 Q635 -9 584 -9 Q537 -9 512 18.5 Q487 46 477 111 L434 384 Q428 420 420 432.5 Q412 445 396 445 Q381 445 373 432.5 Q365 420 359 384 L316 111 Q306 46 281 18.5 Q256 -9 208 -9 Q158 -9 132 18 Q106 45 96 111 L38 466 Q36 480 40 485 Q44 490 58 490 L64 490 Q78 490 84 485 Q90 480 92 466 Z " />
<glyph glyph-name="x" unicode="x" horiz-adv-x="509" d="M120 466 L212 316 Q224 296 233 289.5 Q242 283 255 283 Q268 283 276.5 289.5 Q285 296 297 316 L389 466 Q404 490 432 490 L437 490 Q454 490 456.5 485 Q459 480 450 466 L359 322 Q325 268 305 260 Q326 250 359 198 L470 24 Q479 10 476.5 5 Q474 0 457 0 L452 0 Q424 0 409 24 L299 200 Q277 236 255 236 Q232 236 210 200 L100 24 Q85 0 57 0 L52 0 Q35 0 32.5 5 Q30 10 39 24 L151 198 Q165 220 171.5 229 Q178 238 186.5 247 Q195 256 204 260 Q184 268 150 322 L59 466 Q50 480 52.5 485 Q55 490 72 490 L77 490 Q105 490 120 466 Z " />
<glyph glyph-name="y" unicode="y" horiz-adv-x="505" d="M90 466 L196 104 Q206 68 220 56 Q234 44 261 44 Q287 44 301.5 56.5 Q316 69 325 104 L416 466 Q420 480 426 485 Q432 490 447 490 L451 490 Q466 490 470 485 Q474 480 470 466 L349 0 Q324 -96 278 -150.5 Q232 -205 154 -206 Q143 -206 138.5 -202.5 Q134 -199 131 -186 L129 -178 Q126 -165 128.5 -161.5 Q131 -158 142 -158 Q208 -157 239.5 -117 Q271 -77 299 12 Q277 -2 245 -2 Q200 -2 179 23.5 Q158 49 142 105 L36 466 Q32 480 35.5 485 Q39 490 54 490 L58 490 Q73 490 79 485 Q85 480 90 466 Z " />
<glyph glyph-name="z" unicode="z" horiz-adv-x="468" d="M65 463 L65 468 Q65 482 69.5 486 Q74 490 87 490 L325 490 Q378 490 401.5 471 Q425 452 425 408 Q425 360 370 318 L118 126 Q91 106 91 83 Q91 49 142 49 L403 49 Q416 49 420.5 44.5 Q425 40 425 27 L425 22 Q425 8 420.5 4 Q416 0 403 0 L140 0 Q42 0 42 80 Q42 130 94 169 L342 358 Q375 383 375 409 Q375 425 364 433 Q353 441 325 441 L87 441 Q74 441 69.5 445.5 Q65 450 65 463 Z " />
<glyph glyph-name="braceleft" unicode="&#x7b;" horiz-adv-x="336" d="M30 257 L30 261 Q30 272 34 276 Q38 280 49 280 L53 280 Q95 280 118 321.5 Q141 363 141 437 L141 577 Q141 734 272 734 L283 734 Q294 734 298 730 Q302 726 302 715 L302 710 Q302 699 298 695 Q294 691 283 691 L272 691 Q188 691 188 580 L188 426 Q188 291 113 259 Q188 230 188 92 L188 -80 Q188 -191 272 -191 L283 -191 Q294 -191 298 -195 Q302 -199 302 -210 L302 -215 Q302 -226 298 -230 Q294 -234 283 -234 L272 -234 Q141 -234 141 -77 L141 81 Q141 156 118 197 Q95 238 53 238 L49 238 Q38 238 34 242 Q30 246 30 257 Z " />
<glyph glyph-name="bar" unicode="&#x7c;" horiz-adv-x="211" d="M129 704 L129 -204 Q129 -218 124.5 -222 Q120 -226 107 -226 L103 -226 Q90 -226 85.5 -222 Q81 -218 81 -204 L81 704 Q81 718 85.5 722 Q90 726 103 726 L107 726 Q120 726 124.5 722 Q129 718 129 704 Z " />
<glyph glyph-name="braceright" unicode="&#x7d;" horiz-adv-x="336" d="M306 261 L306 257 Q306 246 302 242 Q298 238 287 238 L283 238 Q241 238 218 197 Q195 156 195 81 L195 -77 Q195 -234 64 -234 L53 -234 Q42 -234 38 -230 Q34 -226 34 -215 L34 -210 Q34 -199 38 -195 Q42 -191 53 -191 L64 -191 Q148 -191 148 -80 L148 92 Q148 230 223 259 Q148 291 148 426 L148 580 Q148 691 64 691 L53 691 Q42 691 38 695 Q34 699 34 710 L34 715 Q34 726 38 730 Q42 734 53 734 L64 734 Q195 734 195 577 L195 437 Q195 363 218 321.5 Q241 280 283 280 L287 280 Q298 280 302 276 Q306 272 306 261 Z " />
<glyph glyph-name="asciitilde" unicode="&#x7e;" horiz-adv-x="529" d="M66 205 L62 205 Q51 205 47.5 208 Q44 211 44 220 Q46 280 75.5 314 Q105 348 156 348 Q190 348 221.5 331 Q253 314 273 293 Q293 272 319.5 255 Q346 238 372 238 Q438 238 442 323 Q443 333 447 336 Q451 339 462 339 L466 339 Q477 339 480.5 335.5 Q484 332 484 323 Q482 264 453 230 Q424 196 373 196 Q339 196 307.5 213 Q276 230 256 250.5 Q236 271 209.5 288 Q183 305 157 305 Q123 305 106 280 Q89 255 86 220 Q85 205 66 205 Z " />
<glyph glyph-name="exclamdown" unicode="&#xa1;" horiz-adv-x="244" d="M112 -160 L106 -160 Q92 -160 87 -155 Q82 -150 82 -136 L82 82 Q82 226 90 319 Q92 337 107 337 L111 337 Q126 337 128 319 Q136 239 136 82 L136 -136 Q136 -150 131 -155 Q126 -160 112 -160 Z M153 452 Q153 434 140.5 421.5 Q128 409 110 409 Q92 409 79.5 421.5 Q67 434 67 452 Q67 471 79.5 483.5 Q92 496 110 496 Q128 496 140.5 483.5 Q153 471 153 452 Z " />
<glyph glyph-name="cent" unicode="&#xa2;" horiz-adv-x="414" d="M236 0 L236 61 Q143 66 98 116 Q53 166 53 267 L53 358 Q53 555 236 565 L236 626 Q236 638 240 642 Q244 646 256 646 L260 646 Q272 646 276 642 Q280 638 280 626 L280 565 Q302 564 349 552 Q362 548 366.5 543 Q371 538 371 525 L371 520 Q371 493 348 502 Q306 516 262 516 Q174 516 140 476.5 Q106 437 106 357 L106 267 Q106 181 143 145.5 Q180 110 262 110 Q316 110 359 123 Q382 130 382 104 L382 99 Q382 86 377.5 81 Q373 76 360 73 Q316 62 280 60 L280 0 Q280 -12 276 -16 Q272 -20 260 -20 L256 -20 Q244 -20 240 -16 Q236 -12 236 0 Z " />
<glyph glyph-name="sterling" unicode="&#xa3;" horiz-adv-x="481" d="M442 28 L442 24 Q442 10 437 5 Q432 0 418 0 L202 0 Q147 0 122.5 24.5 Q98 49 98 104 L98 304 L39 304 Q28 304 24 308 Q20 312 20 323 L20 327 Q20 338 24 342 Q28 346 39 346 L98 346 L98 447 Q98 658 278 658 Q342 658 384 644 Q398 639 402.5 634.5 Q407 630 407 616 L407 612 Q407 598 402 594 Q397 590 383 593 Q318 606 279 606 Q210 606 182 565.5 Q154 525 154 436 L154 346 L301 346 Q312 346 316 342 Q320 338 320 327 L320 323 Q320 312 316 308 Q312 304 301 304 L154 304 L154 106 Q154 78 167 65 Q180 52 208 52 L418 52 Q432 52 437 47 Q442 42 442 28 Z " />
<glyph glyph-name="currency" unicode="&#xa4;" horiz-adv-x="618" d="M380 207 Q347 185 309 185 Q271 185 238 207 L112 80 Q102 70 96 70 Q90 70 80 80 L76 84 Q66 94 66 99.5 Q66 105 76 114 L202 239 Q178 272 178 313 Q178 352 201 386 L77 510 Q67 520 67 526 Q67 532 77 542 L80 545 Q90 555 96 555 Q102 555 112 545 L238 418 Q269 440 309 440 Q349 440 381 418 L507 545 Q517 555 523 555 Q529 555 539 545 L542 542 Q552 532 552 526 Q552 520 542 510 L417 386 Q440 356 440 313 Q440 271 417 239 L541 115 Q551 105 551 99 Q551 93 541 83 L538 80 Q528 70 522.5 70.5 Q517 71 507 81 L380 207 Z M246.5 250.5 Q272 225 309 225 Q346 225 372 250.5 Q398 276 398 313 Q398 350 372 375.5 Q346 401 309 401 Q272 401 246.5 375.5 Q221 350 221 313 Q221 276 246.5 250.5 Z " />
<glyph glyph-name="yen" unicode="&#xa5;" horiz-adv-x="582" d="M93 261 L93 265 Q93 276 97 280 Q101 284 112 284 L254 284 Q221 290 201.5 310.5 Q182 331 153 390 L38 625 Q31 640 34 645 Q37 650 54 650 L59 650 Q76 650 84 645 Q92 640 99 625 L214 385 Q233 345 247.5 333 Q262 321 291 321 Q320 321 334.5 333.5 Q349 346 368 385 L483 625 Q490 640 498 645 Q506 650 523 650 L528 650 Q545 650 548 645 Q551 640 544 625 L429 390 Q400 331 381 310.5 Q362 290 329 284 L471 284 Q482 284 486 280 Q490 276 490 265 L490 261 Q490 250 486 246 Q482 242 471 242 L319 242 L319 144 L471 144 Q482 144 486 140 Q490 136 490 125 L490 121 Q490 110 486 106 Q482 102 471 102 L319 102 L319 24 Q319 10 314 5 Q309 0 295 0 L288 0 Q274 0 269 5 Q264 10 264 24 L264 102 L112 102 Q101 102 97 106 Q93 110 93 121 L93 125 Q93 136 97 140 Q101 144 112 144 L264 144 L264 242 L112 242 Q101 242 97 246 Q93 250 93 261 Z " />
<glyph glyph-name="brokenbar" unicode="&#xa6;" horiz-adv-x="208" d="M128 704 L128 369 Q128 356 124 351.5 Q120 347 106 347 L102 347 Q88 347 84 351.5 Q80 356 80 369 L80 704 Q80 718 84 722 Q88 726 102 726 L106 726 Q120 726 124 722 Q128 718 128 704 Z M128 152 L128 -204 Q128 -218 124 -222 Q120 -226 106 -226 L102 -226 Q88 -226 84 -222 Q80 -218 80 -204 L80 152 Q80 166 84 170 Q88 174 102 174 L106 174 Q120 174 124 170 Q128 166 128 152 Z " />
<glyph glyph-name="section" unicode="&#xa7;" horiz-adv-x="532" d="M68 -149 L68 -142 Q68 -112 92 -123 Q152 -150 251 -150 Q332 -150 371 -129.5 Q410 -109 410 -62 Q410 -28 387.5 -4 Q365 20 310 56 L170 150 Q124 180 96.5 215.5 Q69 251 69 307 Q69 409 159 426 Q117 455 93 486.5 Q69 518 69 568 Q69 700 262 700 Q340 700 410 675 Q424 670 429 664.5 Q434 659 434 646 L434 639 Q434 611 410 621 Q349 646 263 646 Q189 646 157 626.5 Q125 607 125 565 Q125 530 143.5 510 Q162 490 205 463 L347 375 Q407 338 436.5 303 Q466 268 466 215 Q466 106 358 90 Q412 52 439 19 Q466 -14 466 -62 Q466 -203 248 -203 Q162 -203 92 -178 Q78 -173 73 -168 Q68 -163 68 -149 Z M125 308 Q125 269 143.5 245.5 Q162 222 204 194 L313 120 Q363 124 387 145 Q411 166 411 212 Q411 247 387.5 273.5 Q364 300 311 333 L203 399 Q161 394 143 372 Q125 350 125 308 Z " />
<glyph glyph-name="dieresis" unicode="&#xa8;" horiz-adv-x="319" d="M50 785 Q50 800 60 810.5 Q70 821 85 821 Q100 821 110 810.5 Q120 800 120 785 Q120 770 110 760 Q100 750 85 750 Q70 750 60 760.5 Q50 771 50 785 Z M198 785 Q198 800 208.5 810.5 Q219 821 234 821 Q249 821 259 810.5 Q269 800 269 785 Q269 771 259 760.5 Q249 750 234 750 Q219 750 208.5 760.5 Q198 771 198 785 Z " />
<glyph glyph-name="copyright" unicode="&#xa9;" horiz-adv-x="821" d="M258 301 L258 399 Q258 472 299.5 511 Q341 550 424 550 Q477 550 507 540 Q526 536 526 518 L526 514 Q526 492 507 497 Q467 507 425 507 Q359 507 332 478.5 Q305 450 305 398 L305 301 Q305 243 335.5 220 Q366 197 437 197 Q482 197 516 207 Q535 212 535 191 L535 185 Q535 174 531.5 170 Q528 166 516 163 Q480 154 437 154 Q344 154 301 188.5 Q258 223 258 301 Z M163 105.5 Q61 207 61 352 Q61 497 163 599 Q265 701 410 701 Q556 701 657.5 599.5 Q759 498 759 352 Q759 207 657 105.5 Q555 4 410 4 Q265 4 163 105.5 Z M190 573 Q98 481 98 352 Q98 223 190 131.5 Q282 40 410 40 Q539 40 630.5 131 Q722 222 722 352 Q722 482 630.5 573.5 Q539 665 410 665 Q282 665 190 573 Z " />
<glyph glyph-name="guillemotleft" unicode="&#xab;" horiz-adv-x="446" d="M209 52 L203 52 Q179 52 164 70 L64 190 Q32 229 32 250 Q32 271 64 310 L164 430 Q179 448 203 448 L209 448 Q223 448 225 444 Q227 440 218 429 L97 283 Q78 260 78 250 Q78 239 97 217 L218 71 Q227 60 225 56 Q223 52 209 52 Z M380 52 L375 52 Q351 52 336 70 L235 190 Q203 229 203 250 Q203 271 235 310 L336 430 Q351 448 375 448 L380 448 Q394 448 396 444 Q398 440 389 429 L268 283 Q249 260 249 250 Q249 240 268 217 L389 71 Q398 60 396 56 Q394 52 380 52 Z " />
<glyph glyph-name="logicalnot" unicode="&#xac;" horiz-adv-x="504" d="M458 354 L458 219 Q458 206 454 201.5 Q450 197 436 197 L431 197 Q418 197 413.5 201.5 Q409 206 409 219 L409 350 Q409 370 400 379 Q391 388 371 388 L42 388 Q30 388 26 392 Q22 396 22 408 L22 413 Q22 425 26 429 Q30 433 42 433 L378 433 Q420 433 439 414.5 Q458 396 458 354 Z " />
<glyph glyph-name="registered" unicode="&#xae;" horiz-adv-x="821" d="M163 105.5 Q61 207 61 352 Q61 497 163 599 Q265 701 410 701 Q556 701 657.5 599.5 Q759 498 759 352 Q759 207 657 105.5 Q555 4 410 4 Q265 4 163 105.5 Z M190 573 Q98 481 98 352 Q98 223 190 131.5 Q282 40 410 40 Q539 40 630.5 131 Q722 222 722 352 Q722 482 630.5 573.5 Q539 665 410 665 Q282 665 190 573 Z M499 181 L413 326 L330 326 L330 181 Q330 169 326 165 Q322 161 310 161 L304 161 Q292 161 288 165 Q284 169 284 181 L284 451 Q284 500 306 521.5 Q328 543 376 543 L425 543 Q491 543 520.5 516.5 Q550 490 550 436 Q550 344 460 329 L549 181 Q556 169 554 165 Q552 161 538 161 L534 161 Q512 161 499 181 Z M424 502 L376 502 Q330 502 330 456 L330 366 L416 366 Q465 366 484.5 382 Q504 398 504 435 Q504 470 486 486 Q468 502 424 502 Z " />
<glyph glyph-name="degree" unicode="&#xb0;" horiz-adv-x="373" d="M323 589 Q323 532 284 492.5 Q245 453 187 453 Q128 453 89 492 Q50 531 50 589 Q50 647 89.5 686.5 Q129 726 187 726 Q245 726 284 686.5 Q323 647 323 589 Z M283 589 Q283 631 256 659 Q229 687 188 687 Q145 687 117.5 659 Q90 631 90 589 Q90 548 118 520 Q146 492 188 492 Q226 492 254.5 520.5 Q283 549 283 589 Z " />
<glyph glyph-name="plusminus" unicode="&#xb1;" horiz-adv-x="553" d="M494 79 L494 74 Q494 62 490 58 Q486 54 474 54 L78 54 Q66 54 62 58 Q58 62 58 74 L58 79 Q58 91 62 95 Q66 99 78 99 L252 99 L252 290 L78 290 Q66 290 62 294 Q58 298 58 310 L58 315 Q58 327 62 331 Q66 335 78 335 L252 335 L252 507 Q252 520 256 524.5 Q260 529 274 529 L279 529 Q292 529 296.5 524.5 Q301 520 301 507 L301 335 L474 335 Q486 335 490 331 Q494 327 494 315 L494 310 Q494 298 490 294 Q486 290 474 290 L301 290 L301 99 L474 99 Q486 99 490 95 Q494 91 494 79 Z " />
<glyph glyph-name="acute" unicode="&#xb4;" horiz-adv-x="235" d="M63 769 L116 864 Q123 877 130.5 881.5 Q138 886 153 886 L157 886 Q173 886 175.5 882 Q178 878 170 865 L112 769 Q101 750 79 750 L74 750 Q61 750 58.5 754 Q56 758 63 769 Z " />
<glyph glyph-name="mu" unicode="&#xb5;" horiz-adv-x="530" d="M73 -176 L73 466 Q73 480 78 485 Q83 490 97 490 L102 490 Q116 490 121 485 Q126 480 126 466 L126 168 Q126 96 163.5 68.5 Q201 41 274 41 Q353 41 387.5 71 Q422 101 422 173 L422 466 Q422 480 427 485 Q432 490 446 490 L451 490 Q465 490 470 485 Q475 480 475 466 L475 173 Q475 -9 281 -9 Q169 -9 126 55 L126 -176 Q126 -190 121 -195 Q116 -200 102 -200 L97 -200 Q83 -200 78 -195 Q73 -190 73 -176 Z " />
<glyph glyph-name="paragraph" unicode="&#xb6;" horiz-adv-x="517" d="M29 478 Q29 559 77 604.5 Q125 650 214 650 L339 650 Q393 650 417.5 625.5 Q442 601 442 546 L442 -62 Q442 -74 438 -78 Q434 -82 422 -82 L418 -82 Q406 -82 402 -78 Q398 -74 398 -62 L398 545 Q398 604 339 604 L253 604 L253 244 Q253 191 250 155 Q247 119 236.5 74 Q226 29 201 -9.5 Q176 -48 137 -82 Q128 -90 123 -89 Q118 -88 111 -77 L109 -73 Q103 -62 103.5 -57 Q104 -52 113 -44 Q173 11 190.5 78.5 Q208 146 208 244 L208 302 Q126 302 77.5 352.5 Q29 403 29 478 Z " />
<glyph glyph-name="middot" unicode="&#xb7;" horiz-adv-x="169" d="M41 313 Q41 331 53.5 343.5 Q66 356 84 356 Q103 356 115.5 343.5 Q128 331 128 313 Q128 294 115.5 282 Q103 270 84 270 Q66 270 53.5 282 Q41 294 41 313 Z " />
<glyph glyph-name="cedilla" unicode="&#xb8;" horiz-adv-x="213" d="M75 25 L111 25 L93 -44 Q187 -31 187 -109 Q187 -150 164.5 -168.5 Q142 -187 93 -187 Q68 -187 51 -182 Q41 -179 38.5 -176 Q36 -173 36 -164 L36 -160 Q36 -150 39.5 -147 Q43 -144 52 -147 Q64 -152 89 -152 Q120 -152 132.5 -142.5 Q145 -133 145 -109 Q145 -88 134.5 -80 Q124 -72 96 -72 Q80 -72 68 -74 Q57 -76 53.5 -71 Q50 -66 54 -55 L75 25 Z " />
<glyph glyph-name="guillemotright" unicode="&#xbb;" horiz-adv-x="446" d="M243 52 L237 52 Q223 52 221 56 Q219 60 228 71 L349 217 Q368 239 368 250 Q368 260 349 283 L228 429 Q219 440 221 444 Q223 448 237 448 L243 448 Q267 448 282 430 L382 310 Q414 271 414 250 Q414 229 382 190 L282 70 Q267 52 243 52 Z M71 52 L66 52 Q52 52 50 56 Q48 60 57 71 L178 217 Q197 240 197 250 Q197 260 178 283 L57 429 Q48 440 50 444 Q52 448 66 448 L71 448 Q95 448 110 430 L211 310 Q243 271 243 250 Q243 229 211 190 L110 70 Q95 52 71 52 Z " />
<glyph glyph-name="questiondown" unicode="&#xbf;" horiz-adv-x="393" d="M327 454 Q327 436 314.5 423.5 Q302 411 284 411 Q265 411 252.5 423.5 Q240 436 240 454 Q240 473 252.5 485.5 Q265 498 284 498 Q302 498 314.5 485.5 Q327 473 327 454 Z M46 14 Q46 53 55.5 82 Q65 111 86.5 134 Q108 157 123.5 169 Q139 181 171 201 Q213 227 233 252.5 Q253 278 257 311 Q259 322 263 325 Q267 328 280 328 L285 328 Q298 328 302.5 324.5 Q307 321 308 310 Q311 227 197 155 Q173 140 161.5 131.5 Q150 123 133 105.5 Q116 88 109 66 Q102 44 102 14 Q102 -58 135.5 -86 Q169 -114 241 -114 Q294 -114 330 -102 Q354 -95 354 -122 L354 -130 Q354 -152 328 -157 Q283 -166 244 -166 Q145 -166 95.5 -124 Q46 -82 46 14 Z " />
<glyph glyph-name="Agrave" unicode="&#xc0;" horiz-adv-x="590" d="M419 529 L562 25 Q566 10 562.5 5 Q559 0 543 0 L539 0 Q523 0 517 5 Q511 10 506 25 L451 219 L139 219 L84 25 Q79 10 73 5 Q67 0 51 0 L47 0 Q31 0 27.5 5 Q24 10 28 25 L171 529 Q193 606 217.5 632 Q242 658 295 658 Q348 658 372.5 632 Q397 606 419 529 Z M230 544 L153 270 L437 270 L360 544 Q349 582 335 595.5 Q321 609 295 609 Q269 609 255 595.5 Q241 582 230 544 Z M258 809 L311 714 Q319 703 316.5 699 Q314 695 299 695 L294 695 Q272 695 261 714 L204 810 Q196 823 198.5 827 Q201 831 216 831 L220 831 Q236 831 243.5 826.5 Q251 822 258 809 Z " />
<glyph glyph-name="Aacute" unicode="&#xc1;" horiz-adv-x="590" d="M419 529 L562 25 Q566 10 562.5 5 Q559 0 543 0 L539 0 Q523 0 517 5 Q511 10 506 25 L451 219 L139 219 L84 25 Q79 10 73 5 Q67 0 51 0 L47 0 Q31 0 27.5 5 Q24 10 28 25 L171 529 Q193 606 217.5 632 Q242 658 295 658 Q348 658 372.5 632 Q397 606 419 529 Z M230 544 L153 270 L437 270 L360 544 Q349 582 335 595.5 Q321 609 295 609 Q269 609 255 595.5 Q241 582 230 544 Z M270 714 L323 809 Q330 822 337.5 826.5 Q345 831 360 831 L364 831 Q380 831 382.5 827 Q385 823 377 810 L319 714 Q308 695 286 695 L281 695 Q268 695 265.5 699 Q263 703 270 714 Z " />
<glyph glyph-name="Acircumflex" unicode="&#xc2;" horiz-adv-x="590" d="M419 529 L562 25 Q566 10 562.5 5 Q559 0 543 0 L539 0 Q523 0 517 5 Q511 10 506 25 L451 219 L139 219 L84 25 Q79 10 73 5 Q67 0 51 0 L47 0 Q31 0 27.5 5 Q24 10 28 25 L171 529 Q193 606 217.5 632 Q242 658 295 658 Q348 658 372.5 632 Q397 606 419 529 Z M230 544 L153 270 L437 270 L360 544 Q349 582 335 595.5 Q321 609 295 609 Q269 609 255 595.5 Q241 582 230 544 Z M192 717 L228 775 Q246 805 259 816 Q272 827 294 827 Q315 827 328 816.5 Q341 806 360 775 L397 717 Q405 706 402.5 702 Q400 698 387 698 L383 698 Q361 698 350 717 L321 766 Q306 791 294 791 Q283 791 268 766 L240 717 Q229 698 207 698 L203 698 Q190 698 187.5 702 Q185 706 192 717 Z " />
<glyph glyph-name="Atilde" unicode="&#xc3;" horiz-adv-x="590" d="M419 529 L562 25 Q566 10 562.5 5 Q559 0 543 0 L539 0 Q523 0 517 5 Q511 10 506 25 L451 219 L139 219 L84 25 Q79 10 73 5 Q67 0 51 0 L47 0 Q31 0 27.5 5 Q24 10 28 25 L171 529 Q193 606 217.5 632 Q242 658 295 658 Q348 658 372.5 632 Q397 606 419 529 Z M230 544 L153 270 L437 270 L360 544 Q349 582 335 595.5 Q321 609 295 609 Q269 609 255 595.5 Q241 582 230 544 Z M172 718 L167 718 Q156 718 152.5 721 Q149 724 150 733 Q157 817 227 817 Q260 817 302.5 782.5 Q345 748 364 748 Q399 748 399 793 Q399 802 402.5 805 Q406 808 417 808 L422 808 Q433 808 436 805.5 Q439 803 438 793 Q434 709 361 709 Q329 709 286.5 743.5 Q244 778 225 778 Q194 778 189 733 Q188 724 185 721 Q182 718 172 718 Z " />
<glyph glyph-name="Adieresis" unicode="&#xc4;" horiz-adv-x="590" d="M419 529 L562 25 Q566 10 562.5 5 Q559 0 543 0 L539 0 Q523 0 517 5 Q511 10 506 25 L451 219 L139 219 L84 25 Q79 10 73 5 Q67 0 51 0 L47 0 Q31 0 27.5 5 Q24 10 28 25 L171 529 Q193 606 217.5 632 Q242 658 295 658 Q348 658 372.5 632 Q397 606 419 529 Z M230 544 L153 270 L437 270 L360 544 Q349 582 335 595.5 Q321 609 295 609 Q269 609 255 595.5 Q241 582 230 544 Z M186 763 Q186 778 196 788.5 Q206 799 221 799 Q236 799 246 788.5 Q256 778 256 763 Q256 748 246 738 Q236 728 221 728 Q206 728 196 738.5 Q186 749 186 763 Z M334 763 Q334 778 344.5 788.5 Q355 799 370 799 Q385 799 395 788.5 Q405 778 405 763 Q405 749 395 738.5 Q385 728 370 728 Q355 728 344.5 738.5 Q334 749 334 763 Z " />
<glyph glyph-name="Aring" unicode="&#xc5;" horiz-adv-x="590" d="M419 529 L562 25 Q566 10 562.5 5 Q559 0 543 0 L539 0 Q523 0 517 5 Q511 10 506 25 L451 219 L139 219 L84 25 Q79 10 73 5 Q67 0 51 0 L47 0 Q31 0 27.5 5 Q24 10 28 25 L171 529 Q193 606 217.5 632 Q242 658 295 658 Q348 658 372.5 632 Q397 606 419 529 Z M230 544 L153 270 L437 270 L360 544 Q349 582 335 595.5 Q321 609 295 609 Q269 609 255 595.5 Q241 582 230 544 Z M294 680 Q257 680 234.5 703 Q212 726 212 763 Q212 800 234.5 823 Q257 846 294 846 Q333 846 356 823.5 Q379 801 379 763 Q379 726 356 703 Q333 680 294 680 Z M294 713 Q318 713 331.5 728 Q345 743 345 763 Q345 785 332 799 Q319 813 294 813 Q271 813 258.5 799 Q246 785 246 763 Q246 743 258.5 728 Q271 713 294 713 Z " />
<glyph glyph-name="AE" unicode="&#xc6;" horiz-adv-x="842" d="M451 315 L451 106 Q451 78 463.5 65 Q476 52 505 52 L775 52 Q789 52 794 47 Q799 42 799 28 L799 24 Q799 10 794 5 Q789 0 775 0 L499 0 Q444 0 419.5 24.5 Q395 49 395 104 L395 219 L142 219 L83 24 Q78 10 72 5 Q66 0 51 0 L46 0 Q31 0 27.5 5 Q24 10 28 24 L179 521 Q202 598 225 624 Q248 650 298 650 L775 650 Q789 650 794 645 Q799 640 799 626 L799 622 Q799 608 794 603 Q789 598 775 598 L505 598 Q476 598 463.5 585 Q451 572 451 544 L451 367 L735 367 Q749 367 754 362 Q759 357 759 343 L759 339 Q759 325 754 320 Q749 315 735 315 L451 315 Z M237 535 L157 270 L395 270 L395 540 Q395 583 410 598 L296 598 Q272 598 260 585 Q248 572 237 535 Z " />
<glyph glyph-name="Ccedilla" unicode="&#xc7;" horiz-adv-x="520" d="M115 399 L115 239 Q115 141 158.5 92 Q202 43 301 43 Q395 43 455 73 Q478 84 478 54 L478 48 Q478 39 475 33.5 Q472 28 468.5 25.5 Q465 23 455 19 Q401 -7 318 -9 L309 -44 Q403 -31 403 -109 Q403 -150 380.5 -168.5 Q358 -187 309 -187 Q284 -187 267 -182 Q257 -179 254.5 -176 Q252 -173 252 -164 L252 -160 Q252 -150 255.5 -147 Q259 -144 268 -147 Q280 -152 305 -152 Q336 -152 348.5 -142.5 Q361 -133 361 -109 Q361 -88 350.5 -80 Q340 -72 312 -72 Q296 -72 284 -74 Q273 -76 269.5 -71 Q266 -66 270 -55 L282 -8 Q167 -3 113 57.5 Q59 118 59 239 L59 399 Q59 531 117.5 594.5 Q176 658 302 658 Q322 658 340.5 656.5 Q359 655 370.5 653.5 Q382 652 396.5 648 Q411 644 416 642.5 Q421 641 434 636 L447 631 Q461 626 465.5 621 Q470 616 470 602 L470 595 Q470 565 447 576 Q382 606 298 606 Q201 606 158 556 Q115 506 115 399 Z M115 399 L115 239 Q115 141 158.5 92 Q202 43 301 43 Q395 43 455 73 Q478 84 478 54 L478 48 Q478 39 475 33.5 Q472 28 468.5 25.5 Q465 23 455 19 Q393 -9 305 -9 Q178 -9 118.5 51.5 Q59 112 59 239 L59 399 Q59 531 117.5 594.5 Q176 658 302 658 Q322 658 340.5 656.5 Q359 655 370.5 653.5 Q382 652 396.5 648 Q411 644 416 642.5 Q421 641 434 636 L447 631 Q461 626 465.5 621 Q470 616 470 602 L470 595 Q470 565 447 576 Q382 606 298 606 Q201 606 158 556 Q115 506 115 399 Z " />
<glyph glyph-name="Egrave" unicode="&#xc8;" horiz-adv-x="525" d="M134 315 L134 106 Q134 78 147 65 Q160 52 188 52 L459 52 Q473 52 478 47 Q483 42 483 28 L483 24 Q483 10 478 5 Q473 0 459 0 L183 0 Q128 0 103.5 24.5 Q79 49 79 104 L79 546 Q79 601 103.5 625.5 Q128 650 183 650 L459 650 Q473 650 478 645 Q483 640 483 626 L483 622 Q483 608 478 603 Q473 598 459 598 L188 598 Q160 598 147 585 Q134 572 134 544 L134 367 L419 367 Q433 367 438 362 Q443 357 443 343 L443 339 Q443 325 438 320 Q433 315 419 315 L134 315 Z M256 809 L309 714 Q317 703 314.5 699 Q312 695 297 695 L292 695 Q270 695 259 714 L202 810 Q194 823 196.5 827 Q199 831 214 831 L218 831 Q234 831 241.5 826.5 Q249 822 256 809 Z " />
<glyph glyph-name="Eacute" unicode="&#xc9;" horiz-adv-x="525" d="M134 315 L134 106 Q134 78 147 65 Q160 52 188 52 L459 52 Q473 52 478 47 Q483 42 483 28 L483 24 Q483 10 478 5 Q473 0 459 0 L183 0 Q128 0 103.5 24.5 Q79 49 79 104 L79 546 Q79 601 103.5 625.5 Q128 650 183 650 L459 650 Q473 650 478 645 Q483 640 483 626 L483 622 Q483 608 478 603 Q473 598 459 598 L188 598 Q160 598 147 585 Q134 572 134 544 L134 367 L419 367 Q433 367 438 362 Q443 357 443 343 L443 339 Q443 325 438 320 Q433 315 419 315 L134 315 Z M247 714 L300 809 Q307 822 314.5 826.5 Q322 831 337 831 L341 831 Q357 831 359.5 827 Q362 823 354 810 L296 714 Q285 695 263 695 L258 695 Q245 695 242.5 699 Q240 703 247 714 Z " />
<glyph glyph-name="Ecircumflex" unicode="&#xca;" horiz-adv-x="525" d="M134 315 L134 106 Q134 78 147 65 Q160 52 188 52 L459 52 Q473 52 478 47 Q483 42 483 28 L483 24 Q483 10 478 5 Q473 0 459 0 L183 0 Q128 0 103.5 24.5 Q79 49 79 104 L79 546 Q79 601 103.5 625.5 Q128 650 183 650 L459 650 Q473 650 478 645 Q483 640 483 626 L483 622 Q483 608 478 603 Q473 598 459 598 L188 598 Q160 598 147 585 Q134 572 134 544 L134 367 L419 367 Q433 367 438 362 Q443 357 443 343 L443 339 Q443 325 438 320 Q433 315 419 315 L134 315 Z M180 717 L216 775 Q234 805 247 816 Q260 827 282 827 Q303 827 316 816.5 Q329 806 348 775 L385 717 Q393 706 390.5 702 Q388 698 375 698 L371 698 Q349 698 338 717 L309 766 Q294 791 282 791 Q271 791 256 766 L228 717 Q217 698 195 698 L191 698 Q178 698 175.5 702 Q173 706 180 717 Z " />
<glyph glyph-name="Edieresis" unicode="&#xcb;" horiz-adv-x="525" d="M134 315 L134 106 Q134 78 147 65 Q160 52 188 52 L459 52 Q473 52 478 47 Q483 42 483 28 L483 24 Q483 10 478 5 Q473 0 459 0 L183 0 Q128 0 103.5 24.5 Q79 49 79 104 L79 546 Q79 601 103.5 625.5 Q128 650 183 650 L459 650 Q473 650 478 645 Q483 640 483 626 L483 622 Q483 608 478 603 Q473 598 459 598 L188 598 Q160 598 147 585 Q134 572 134 544 L134 367 L419 367 Q433 367 438 362 Q443 357 443 343 L443 339 Q443 325 438 320 Q433 315 419 315 L134 315 Z M173 763 Q173 778 183 788.5 Q193 799 208 799 Q223 799 233 788.5 Q243 778 243 763 Q243 748 233 738 Q223 728 208 728 Q193 728 183 738.5 Q173 749 173 763 Z M321 763 Q321 778 331.5 788.5 Q342 799 357 799 Q372 799 382 788.5 Q392 778 392 763 Q392 749 382 738.5 Q372 728 357 728 Q342 728 331.5 738.5 Q321 749 321 763 Z " />
<glyph glyph-name="Igrave" unicode="&#xcc;" horiz-adv-x="224" d="M84 24 L84 626 Q84 640 89 645 Q94 650 108 650 L116 650 Q130 650 135 645 Q140 640 140 626 L140 24 Q140 10 135 5 Q130 0 116 0 L108 0 Q94 0 89 5 Q84 10 84 24 Z M74 809 L127 714 Q135 703 132.5 699 Q130 695 115 695 L110 695 Q88 695 77 714 L20 810 Q12 823 14.5 827 Q17 831 32 831 L36 831 Q52 831 59.5 826.5 Q67 822 74 809 Z " />
<glyph glyph-name="Iacute" unicode="&#xcd;" horiz-adv-x="224" d="M84 24 L84 626 Q84 640 89 645 Q94 650 108 650 L116 650 Q130 650 135 645 Q140 640 140 626 L140 24 Q140 10 135 5 Q130 0 116 0 L108 0 Q94 0 89 5 Q84 10 84 24 Z M97 714 L150 809 Q157 822 164.5 826.5 Q172 831 187 831 L191 831 Q207 831 209.5 827 Q212 823 204 810 L146 714 Q135 695 113 695 L108 695 Q95 695 92.5 699 Q90 703 97 714 Z " />
<glyph glyph-name="Icircumflex" unicode="&#xce;" horiz-adv-x="224" d="M84 24 L84 626 Q84 640 89 645 Q94 650 108 650 L116 650 Q130 650 135 645 Q140 640 140 626 L140 24 Q140 10 135 5 Q130 0 116 0 L108 0 Q94 0 89 5 Q84 10 84 24 Z M10 717 L46 775 Q64 805 77 816 Q90 827 112 827 Q133 827 146 816.5 Q159 806 178 775 L215 717 Q223 706 220.5 702 Q218 698 205 698 L201 698 Q179 698 168 717 L139 766 Q124 791 112 791 Q101 791 86 766 L58 717 Q47 698 25 698 L21 698 Q8 698 5.5 702 Q3 706 10 717 Z " />
<glyph glyph-name="Idieresis" unicode="&#xcf;" horiz-adv-x="224" d="M84 24 L84 626 Q84 640 89 645 Q94 650 108 650 L116 650 Q130 650 135 645 Q140 640 140 626 L140 24 Q140 10 135 5 Q130 0 116 0 L108 0 Q94 0 89 5 Q84 10 84 24 Z M2 763 Q2 778 12 788.5 Q22 799 37 799 Q52 799 62 788.5 Q72 778 72 763 Q72 748 62 738 Q52 728 37 728 Q22 728 12 738.5 Q2 749 2 763 Z M150 763 Q150 778 160.5 788.5 Q171 799 186 799 Q201 799 211 788.5 Q221 778 221 763 Q221 749 211 738.5 Q201 728 186 728 Q171 728 160.5 738.5 Q150 749 150 763 Z " />
<glyph glyph-name="Eth" unicode="&#xd0;" horiz-adv-x="588" d="M84 104 L84 304 L34 304 Q23 304 19 308 Q15 312 15 323 L15 327 Q15 338 19 342 Q23 346 34 346 L84 346 L84 546 Q84 601 108.5 625.5 Q133 650 188 650 L272 650 Q423 650 484 594 Q545 538 545 393 L545 257 Q545 116 483.5 58 Q422 0 272 0 L188 0 Q133 0 108.5 24.5 Q84 49 84 104 Z M272 52 Q399 52 444 96 Q489 140 489 257 L489 393 Q489 509 444 553.5 Q399 598 272 598 L194 598 Q139 598 139 544 L139 346 L228 346 Q239 346 243 342 Q247 338 247 327 L247 323 Q247 312 243 308 Q239 304 228 304 L139 304 L139 106 Q139 52 194 52 L272 52 Z " />
<glyph glyph-name="Ntilde" unicode="&#xd1;" horiz-adv-x="618" d="M79 24 L79 563 Q79 657 162 657 Q199 657 218.5 638.5 Q238 620 252 577 L416 83 Q424 57 433 49.5 Q442 42 456 42 Q484 42 484 83 L484 626 Q484 640 489 645 Q494 650 508 650 L515 650 Q529 650 534 645 Q539 640 539 626 L539 87 Q539 37 519 15 Q499 -7 458 -7 Q419 -7 399.5 12.5 Q380 32 365 78 L202 566 Q194 590 186 599 Q178 608 164 608 Q133 608 133 565 L133 24 Q133 10 128 5 Q123 0 109 0 L103 0 Q89 0 84 5 Q79 10 79 24 Z M186 718 L181 718 Q170 718 166.5 721 Q163 724 164 733 Q171 817 241 817 Q274 817 316.5 782.5 Q359 748 378 748 Q413 748 413 793 Q413 802 416.5 805 Q420 808 431 808 L436 808 Q447 808 450 805.5 Q453 803 452 793 Q448 709 375 709 Q343 709 300.5 743.5 Q258 778 239 778 Q208 778 203 733 Q202 724 199 721 Q196 718 186 718 Z " />
<glyph glyph-name="Ograve" unicode="&#xd2;" horiz-adv-x="611" d="M497 251 L497 399 Q497 508 458 557 Q419 606 306 606 Q192 606 153 557 Q114 508 114 399 L114 251 Q114 197 121.5 161 Q129 125 149.5 97 Q170 69 208.5 56 Q247 43 306 43 Q419 43 458 92.5 Q497 142 497 251 Z M306 -9 Q167 -9 113 54.5 Q59 118 59 251 L59 399 Q59 531 113 594.5 Q167 658 306 658 Q445 658 498.5 594.5 Q552 531 552 399 L552 251 Q552 119 498 55 Q444 -9 306 -9 Z M284 809 L337 714 Q345 703 342.5 699 Q340 695 325 695 L320 695 Q298 695 287 714 L230 810 Q222 823 224.5 827 Q227 831 242 831 L246 831 Q262 831 269.5 826.5 Q277 822 284 809 Z " />
<glyph glyph-name="Oacute" unicode="&#xd3;" horiz-adv-x="611" d="M497 251 L497 399 Q497 508 458 557 Q419 606 306 606 Q192 606 153 557 Q114 508 114 399 L114 251 Q114 197 121.5 161 Q129 125 149.5 97 Q170 69 208.5 56 Q247 43 306 43 Q419 43 458 92.5 Q497 142 497 251 Z M306 -9 Q167 -9 113 54.5 Q59 118 59 251 L59 399 Q59 531 113 594.5 Q167 658 306 658 Q445 658 498.5 594.5 Q552 531 552 399 L552 251 Q552 119 498 55 Q444 -9 306 -9 Z M285 714 L338 809 Q345 822 352.5 826.5 Q360 831 375 831 L379 831 Q395 831 397.5 827 Q400 823 392 810 L334 714 Q323 695 301 695 L296 695 Q283 695 280.5 699 Q278 703 285 714 Z " />
<glyph glyph-name="Ocircumflex" unicode="&#xd4;" horiz-adv-x="611" d="M497 251 L497 399 Q497 508 458 557 Q419 606 306 606 Q192 606 153 557 Q114 508 114 399 L114 251 Q114 197 121.5 161 Q129 125 149.5 97 Q170 69 208.5 56 Q247 43 306 43 Q419 43 458 92.5 Q497 142 497 251 Z M306 -9 Q167 -9 113 54.5 Q59 118 59 251 L59 399 Q59 531 113 594.5 Q167 658 306 658 Q445 658 498.5 594.5 Q552 531 552 399 L552 251 Q552 119 498 55 Q444 -9 306 -9 Z M199 717 L235 775 Q253 805 266 816 Q279 827 301 827 Q322 827 335 816.5 Q348 806 367 775 L404 717 Q412 706 409.5 702 Q407 698 394 698 L390 698 Q368 698 357 717 L328 766 Q313 791 301 791 Q290 791 275 766 L247 717 Q236 698 214 698 L210 698 Q197 698 194.5 702 Q192 706 199 717 Z " />
<glyph glyph-name="Otilde" unicode="&#xd5;" horiz-adv-x="611" d="M497 251 L497 399 Q497 508 458 557 Q419 606 306 606 Q192 606 153 557 Q114 508 114 399 L114 251 Q114 197 121.5 161 Q129 125 149.5 97 Q170 69 208.5 56 Q247 43 306 43 Q419 43 458 92.5 Q497 142 497 251 Z M306 -9 Q167 -9 113 54.5 Q59 118 59 251 L59 399 Q59 531 113 594.5 Q167 658 306 658 Q445 658 498.5 594.5 Q552 531 552 399 L552 251 Q552 119 498 55 Q444 -9 306 -9 Z M179 718 L174 718 Q163 718 159.5 721 Q156 724 157 733 Q164 817 234 817 Q267 817 309.5 782.5 Q352 748 371 748 Q406 748 406 793 Q406 802 409.5 805 Q413 808 424 808 L429 808 Q440 808 443 805.5 Q446 803 445 793 Q441 709 368 709 Q336 709 293.5 743.5 Q251 778 232 778 Q201 778 196 733 Q195 724 192 721 Q189 718 179 718 Z " />
<glyph glyph-name="Odieresis" unicode="&#xd6;" horiz-adv-x="611" d="M497 251 L497 399 Q497 508 458 557 Q419 606 306 606 Q192 606 153 557 Q114 508 114 399 L114 251 Q114 197 121.5 161 Q129 125 149.5 97 Q170 69 208.5 56 Q247 43 306 43 Q419 43 458 92.5 Q497 142 497 251 Z M306 -9 Q167 -9 113 54.5 Q59 118 59 251 L59 399 Q59 531 113 594.5 Q167 658 306 658 Q445 658 498.5 594.5 Q552 531 552 399 L552 251 Q552 119 498 55 Q444 -9 306 -9 Z M197 763 Q197 778 207 788.5 Q217 799 232 799 Q247 799 257 788.5 Q267 778 267 763 Q267 748 257 738 Q247 728 232 728 Q217 728 207 738.5 Q197 749 197 763 Z M345 763 Q345 778 355.5 788.5 Q366 799 381 799 Q396 799 406 788.5 Q416 778 416 763 Q416 749 406 738.5 Q396 728 381 728 Q366 728 355.5 738.5 Q345 749 345 763 Z " />
<glyph glyph-name="multiply" unicode="&#xd7;" horiz-adv-x="518" d="M292 325 L445 172 Q459 158 445 144 L439 139 Q425 125 411 139 L259 292 L106 139 Q92 125 78 139 L73 144 Q59 158 73 172 L225 325 L73 478 Q59 492 73 506 L78 511 Q92 525 106 511 L259 358 L411 511 Q425 525 439 511 L445 506 Q459 492 445 478 L292 325 Z " />
<glyph glyph-name="Oslash" unicode="&#xd8;" horiz-adv-x="611" d="M306 -9 Q209 -9 156 22 L139 -8 Q133 -18 127.5 -19.5 Q122 -21 112 -14 L108 -12 Q98 -6 96.5 -0.5 Q95 5 101 15 L119 48 Q59 105 59 251 L59 399 Q59 531 113 594.5 Q167 658 306 658 Q400 658 454 627 L472 657 Q478 667 483.5 668.5 Q489 670 499 664 L503 662 Q513 656 514.5 650.5 Q516 645 510 635 L491 602 Q552 542 552 399 L552 251 Q552 119 498 55 Q444 -9 306 -9 Z M497 251 L497 399 Q497 510 460 553 L180 70 Q223 43 306 43 Q419 43 458 92.5 Q497 142 497 251 Z M114 251 Q114 141 150 96 L430 579 Q388 606 306 606 Q192 606 153 557 Q114 508 114 399 L114 251 Z " />
<glyph glyph-name="Ugrave" unicode="&#xd9;" horiz-adv-x="613" d="M69 199 L69 626 Q69 640 74 645 Q79 650 93 650 L100 650 Q114 650 119 645 Q124 640 124 626 L124 199 Q124 114 168.5 78.5 Q213 43 307 43 Q400 43 444.5 78.5 Q489 114 489 199 L489 626 Q489 640 494 645 Q499 650 513 650 L520 650 Q534 650 539 645 Q544 640 544 626 L544 199 Q544 -9 307 -9 Q69 -9 69 199 Z M267 809 L320 714 Q328 703 325.5 699 Q323 695 308 695 L303 695 Q281 695 270 714 L213 810 Q205 823 207.5 827 Q210 831 225 831 L229 831 Q245 831 252.5 826.5 Q260 822 267 809 Z " />
<glyph glyph-name="Uacute" unicode="&#xda;" horiz-adv-x="613" d="M69 199 L69 626 Q69 640 74 645 Q79 650 93 650 L100 650 Q114 650 119 645 Q124 640 124 626 L124 199 Q124 114 168.5 78.5 Q213 43 307 43 Q400 43 444.5 78.5 Q489 114 489 199 L489 626 Q489 640 494 645 Q499 650 513 650 L520 650 Q534 650 539 645 Q544 640 544 626 L544 199 Q544 -9 307 -9 Q69 -9 69 199 Z M281 714 L334 809 Q341 822 348.5 826.5 Q356 831 371 831 L375 831 Q391 831 393.5 827 Q396 823 388 810 L330 714 Q319 695 297 695 L292 695 Q279 695 276.5 699 Q274 703 281 714 Z " />
<glyph glyph-name="Ucircumflex" unicode="&#xdb;" horiz-adv-x="613" d="M69 199 L69 626 Q69 640 74 645 Q79 650 93 650 L100 650 Q114 650 119 645 Q124 640 124 626 L124 199 Q124 114 168.5 78.5 Q213 43 307 43 Q400 43 444.5 78.5 Q489 114 489 199 L489 626 Q489 640 494 645 Q499 650 513 650 L520 650 Q534 650 539 645 Q544 640 544 626 L544 199 Q544 -9 307 -9 Q69 -9 69 199 Z M199 717 L235 775 Q253 805 266 816 Q279 827 301 827 Q322 827 335 816.5 Q348 806 367 775 L404 717 Q412 706 409.5 702 Q407 698 394 698 L390 698 Q368 698 357 717 L328 766 Q313 791 301 791 Q290 791 275 766 L247 717 Q236 698 214 698 L210 698 Q197 698 194.5 702 Q192 706 199 717 Z " />
<glyph glyph-name="Udieresis" unicode="&#xdc;" horiz-adv-x="613" d="M69 199 L69 626 Q69 640 74 645 Q79 650 93 650 L100 650 Q114 650 119 645 Q124 640 124 626 L124 199 Q124 114 168.5 78.5 Q213 43 307 43 Q400 43 444.5 78.5 Q489 114 489 199 L489 626 Q489 640 494 645 Q499 650 513 650 L520 650 Q534 650 539 645 Q544 640 544 626 L544 199 Q544 -9 307 -9 Q69 -9 69 199 Z M198 763 Q198 778 208 788.5 Q218 799 233 799 Q248 799 258 788.5 Q268 778 268 763 Q268 748 258 738 Q248 728 233 728 Q218 728 208 738.5 Q198 749 198 763 Z M346 763 Q346 778 356.5 788.5 Q367 799 382 799 Q397 799 407 788.5 Q417 778 417 763 Q417 749 407 738.5 Q397 728 382 728 Q367 728 356.5 738.5 Q346 749 346 763 Z " />
<glyph glyph-name="Yacute" unicode="&#xdd;" horiz-adv-x="585" d="M265 24 L265 275 Q232 280 213 301 Q194 322 160 384 L28 625 Q20 640 23 645 Q26 650 43 650 L49 650 Q65 650 73.5 645 Q82 640 90 625 L218 387 Q240 347 253.5 334.5 Q267 322 293 322 Q318 322 332 335 Q346 348 367 387 L495 625 Q503 640 511.5 645 Q520 650 536 650 L542 650 Q559 650 562 645 Q565 640 557 625 L425 384 Q391 322 372 301 Q353 280 321 275 L321 24 Q321 10 316 5 Q311 0 297 0 L289 0 Q275 0 270 5 Q265 10 265 24 Z M279 714 L332 809 Q339 822 346.5 826.5 Q354 831 369 831 L373 831 Q389 831 391.5 827 Q394 823 386 810 L328 714 Q317 695 295 695 L290 695 Q277 695 274.5 699 Q272 703 279 714 Z " />
<glyph glyph-name="Thorn" unicode="&#xde;" horiz-adv-x="555" d="M79 24 L79 602 Q79 616 84 621 Q89 626 103 626 L110 626 Q124 626 129 621 Q134 616 134 602 L134 508 L305 508 Q425 508 474 460.5 Q523 413 523 315 Q523 218 473.5 169.5 Q424 121 305 121 L134 121 L134 24 Q134 10 129 5 Q124 0 110 0 L103 0 Q89 0 84 5 Q79 10 79 24 Z M305 456 L134 456 L134 173 L305 173 Q399 173 433.5 205.5 Q468 238 468 315 Q468 390 433 423 Q398 456 305 456 Z " />
<glyph glyph-name="germandbls" unicode="&#xdf;" horiz-adv-x="509" d="M458 135 Q458 -9 279 -9 Q241 -9 217 -3 Q203 0 198 5 Q193 10 193 23 L193 29 Q193 59 217 50 Q238 43 275 43 Q344 43 373.5 64 Q403 85 403 130 Q403 164 385.5 187 Q368 210 343 222 Q318 234 293.5 246 Q269 258 251.5 279.5 Q234 301 234 334 Q234 360 246.5 380.5 Q259 401 276.5 414.5 Q294 428 311 441.5 Q328 455 340.5 474.5 Q353 494 353 520 Q353 606 242 606 Q177 606 146.5 571.5 Q116 537 116 455 L116 24 Q116 10 111 5 Q106 0 92 0 L85 0 Q71 0 66 5 Q61 10 61 24 L61 451 Q61 562 107 610 Q153 658 243 658 Q329 658 368.5 618.5 Q408 579 408 516 Q408 484 395.5 459 Q383 434 365.5 419.5 Q348 405 330.5 392.5 Q313 380 300.5 365.5 Q288 351 288 334 Q288 314 305.5 300.5 Q323 287 348 276 Q373 265 398 251 Q423 237 440.5 207.5 Q458 178 458 135 Z " />
<glyph glyph-name="agrave" unicode="&#xe0;" horiz-adv-x="477" d="M424 349 L424 148 Q424 63 374.5 27 Q325 -9 218 -9 Q143 -9 92.5 26 Q42 61 42 137 Q42 213 92 246.5 Q142 280 246 280 L371 280 L371 349 Q371 405 335 428 Q299 451 230 451 Q160 451 110 437 Q97 433 92.5 437 Q88 441 88 455 L88 462 Q88 475 92.5 480 Q97 485 110 488 Q157 499 227 499 Q424 499 424 349 Z M371 150 L371 236 L248 236 Q168 236 131.5 214 Q95 192 95 137 Q95 39 218 39 Q298 39 334.5 62 Q371 85 371 150 Z M227 656 L280 561 Q288 550 285.5 546 Q283 542 268 542 L263 542 Q241 542 230 561 L173 657 Q165 670 167.5 674 Q170 678 185 678 L189 678 Q205 678 212.5 673.5 Q220 669 227 656 Z " />
<glyph glyph-name="aacute" unicode="&#xe1;" horiz-adv-x="477" d="M424 349 L424 148 Q424 63 374.5 27 Q325 -9 218 -9 Q143 -9 92.5 26 Q42 61 42 137 Q42 213 92 246.5 Q142 280 246 280 L371 280 L371 349 Q371 405 335 428 Q299 451 230 451 Q160 451 110 437 Q97 433 92.5 437 Q88 441 88 455 L88 462 Q88 475 92.5 480 Q97 485 110 488 Q157 499 227 499 Q424 499 424 349 Z M371 150 L371 236 L248 236 Q168 236 131.5 214 Q95 192 95 137 Q95 39 218 39 Q298 39 334.5 62 Q371 85 371 150 Z M200 561 L253 656 Q260 669 267.5 673.5 Q275 678 290 678 L294 678 Q310 678 312.5 674 Q315 670 307 657 L249 561 Q238 542 216 542 L211 542 Q198 542 195.5 546 Q193 550 200 561 Z " />
<glyph glyph-name="acircumflex" unicode="&#xe2;" horiz-adv-x="477" d="M424 349 L424 148 Q424 63 374.5 27 Q325 -9 218 -9 Q143 -9 92.5 26 Q42 61 42 137 Q42 213 92 246.5 Q142 280 246 280 L371 280 L371 349 Q371 405 335 428 Q299 451 230 451 Q160 451 110 437 Q97 433 92.5 437 Q88 441 88 455 L88 462 Q88 475 92.5 480 Q97 485 110 488 Q157 499 227 499 Q424 499 424 349 Z M371 150 L371 236 L248 236 Q168 236 131.5 214 Q95 192 95 137 Q95 39 218 39 Q298 39 334.5 62 Q371 85 371 150 Z M133 565 L169 623 Q187 653 200 664 Q213 675 235 675 Q256 675 269 664.5 Q282 654 301 623 L338 565 Q346 554 343.5 550 Q341 546 328 546 L324 546 Q302 546 291 565 L262 614 Q247 639 235 639 Q224 639 209 614 L181 565 Q170 546 148 546 L144 546 Q131 546 128.5 550 Q126 554 133 565 Z " />
<glyph glyph-name="atilde" unicode="&#xe3;" horiz-adv-x="477" d="M424 349 L424 148 Q424 63 374.5 27 Q325 -9 218 -9 Q143 -9 92.5 26 Q42 61 42 137 Q42 213 92 246.5 Q142 280 246 280 L371 280 L371 349 Q371 405 335 428 Q299 451 230 451 Q160 451 110 437 Q97 433 92.5 437 Q88 441 88 455 L88 462 Q88 475 92.5 480 Q97 485 110 488 Q157 499 227 499 Q424 499 424 349 Z M371 150 L371 236 L248 236 Q168 236 131.5 214 Q95 192 95 137 Q95 39 218 39 Q298 39 334.5 62 Q371 85 371 150 Z M113 565 L108 565 Q97 565 93.5 568 Q90 571 91 580 Q98 664 168 664 Q201 664 243.5 629.5 Q286 595 305 595 Q340 595 340 640 Q340 649 343.5 652 Q347 655 358 655 L363 655 Q374 655 377 652.5 Q380 650 379 640 Q375 556 302 556 Q270 556 227.5 590.5 Q185 625 166 625 Q135 625 130 580 Q129 571 126 568 Q123 565 113 565 Z " />
<glyph glyph-name="adieresis" unicode="&#xe4;" horiz-adv-x="477" d="M424 349 L424 148 Q424 63 374.5 27 Q325 -9 218 -9 Q143 -9 92.5 26 Q42 61 42 137 Q42 213 92 246.5 Q142 280 246 280 L371 280 L371 349 Q371 405 335 428 Q299 451 230 451 Q160 451 110 437 Q97 433 92.5 437 Q88 441 88 455 L88 462 Q88 475 92.5 480 Q97 485 110 488 Q157 499 227 499 Q424 499 424 349 Z M371 150 L371 236 L248 236 Q168 236 131.5 214 Q95 192 95 137 Q95 39 218 39 Q298 39 334.5 62 Q371 85 371 150 Z M125 610 Q125 625 135 635.5 Q145 646 160 646 Q175 646 185 635.5 Q195 625 195 610 Q195 595 185 585 Q175 575 160 575 Q145 575 135 585.5 Q125 596 125 610 Z M273 610 Q273 625 283.5 635.5 Q294 646 309 646 Q324 646 334 635.5 Q344 625 344 610 Q344 596 334 585.5 Q324 575 309 575 Q294 575 283.5 585.5 Q273 596 273 610 Z " />
<glyph glyph-name="aring" unicode="&#xe5;" horiz-adv-x="477" d="M424 349 L424 148 Q424 63 374.5 27 Q325 -9 218 -9 Q143 -9 92.5 26 Q42 61 42 137 Q42 213 92 246.5 Q142 280 246 280 L371 280 L371 349 Q371 405 335 428 Q299 451 230 451 Q160 451 110 437 Q97 433 92.5 437 Q88 441 88 455 L88 462 Q88 475 92.5 480 Q97 485 110 488 Q157 499 227 499 Q424 499 424 349 Z M371 150 L371 236 L248 236 Q168 236 131.5 214 Q95 192 95 137 Q95 39 218 39 Q298 39 334.5 62 Q371 85 371 150 Z M230 527 Q193 527 170.5 550 Q148 573 148 610 Q148 647 170.5 670 Q193 693 230 693 Q269 693 292 670.5 Q315 648 315 610 Q315 573 292 550 Q269 527 230 527 Z M230 560 Q254 560 267.5 575 Q281 590 281 610 Q281 632 268 646 Q255 660 230 660 Q207 660 194.5 646 Q182 632 182 610 Q182 590 194.5 575 Q207 560 230 560 Z " />
<glyph glyph-name="ae" unicode="&#xe6;" horiz-adv-x="819" d="M772 306 Q772 274 769 250 Q767 234 762 229 Q757 224 741 224 L423 224 L423 189 Q423 108 461.5 74.5 Q500 41 588 41 Q672 41 732 63 Q755 71 755 44 L755 40 Q755 28 750.5 23.5 Q746 19 732 13 Q673 -9 590 -9 Q426 -9 402 95 L398 95 Q387 -9 218 -9 Q143 -9 92.5 26 Q42 61 42 137 Q42 213 92 246.5 Q142 280 246 280 L371 280 L371 349 Q371 405 335 428 Q299 451 230 451 Q161 451 111 438 Q98 435 93 439 Q88 443 88 457 L88 462 Q88 475 93 480 Q98 485 111 488 Q162 499 227 499 Q387 499 400 397 L404 397 Q415 444 459 471.5 Q503 499 573 499 Q668 499 720 450.5 Q772 402 772 306 Z M371 150 L371 236 L248 236 Q168 236 131.5 214 Q95 192 95 137 Q95 39 218 39 Q298 39 334.5 62 Q371 85 371 150 Z M423 311 L423 271 L721 271 L721 311 Q721 451 572 451 Q423 451 423 311 Z " />
<glyph glyph-name="ccedilla" unicode="&#xe7;" horiz-adv-x="429" d="M53 195 L53 296 Q53 499 270 499 Q324 499 366 482 Q379 477 383 472.5 Q387 468 387 455 L387 449 Q387 424 366 432 Q320 449 271 449 Q178 449 142 410 Q106 371 106 295 L106 195 Q106 110 145.5 75.5 Q185 41 276 41 Q330 41 376 57 Q389 61 393.5 57.5 Q398 54 398 40 L398 33 Q398 20 394 16 Q390 12 376 7 Q330 -8 277 -9 L268 -44 Q362 -31 362 -109 Q362 -150 339.5 -168.5 Q317 -187 268 -187 Q244 -187 226 -182 Q216 -179 213.5 -176 Q211 -173 211 -164 L211 -160 Q211 -150 214.5 -147 Q218 -144 227 -147 Q240 -152 264 -152 Q295 -152 307.5 -142.5 Q320 -133 320 -109 Q320 -88 309.5 -80 Q299 -72 271 -72 Q255 -72 243 -74 Q232 -76 228.5 -71 Q225 -66 229 -55 L241 -8 Q145 -2 99 47 Q53 96 53 195 Z " />
<glyph glyph-name="egrave" unicode="&#xe8;" horiz-adv-x="501" d="M455 306 Q455 275 452 248 Q450 234 445 229 Q440 224 426 224 L106 224 L106 189 Q106 108 144.5 74.5 Q183 41 271 41 Q350 41 416 63 Q428 67 433 63 Q438 59 438 45 L438 39 Q438 26 434 22 Q430 18 416 13 Q355 -9 272 -9 Q160 -9 106.5 39 Q53 87 53 196 L53 294 Q53 499 256 499 Q351 499 403 450.5 Q455 402 455 306 Z M106 311 L106 271 L404 271 L404 311 Q404 451 255 451 Q106 451 106 311 Z M237 656 L290 561 Q298 550 295.5 546 Q293 542 278 542 L273 542 Q251 542 240 561 L183 657 Q175 670 177.5 674 Q180 678 195 678 L199 678 Q215 678 222.5 673.5 Q230 669 237 656 Z " />
<glyph glyph-name="eacute" unicode="&#xe9;" horiz-adv-x="501" d="M455 306 Q455 275 452 248 Q450 234 445 229 Q440 224 426 224 L106 224 L106 189 Q106 108 144.5 74.5 Q183 41 271 41 Q350 41 416 63 Q428 67 433 63 Q438 59 438 45 L438 39 Q438 26 434 22 Q430 18 416 13 Q355 -9 272 -9 Q160 -9 106.5 39 Q53 87 53 196 L53 294 Q53 499 256 499 Q351 499 403 450.5 Q455 402 455 306 Z M106 311 L106 271 L404 271 L404 311 Q404 451 255 451 Q106 451 106 311 Z M214 561 L267 656 Q274 669 281.5 673.5 Q289 678 304 678 L308 678 Q324 678 326.5 674 Q329 670 321 657 L263 561 Q252 542 230 542 L225 542 Q212 542 209.5 546 Q207 550 214 561 Z " />
<glyph glyph-name="ecircumflex" unicode="&#xea;" horiz-adv-x="501" d="M455 306 Q455 275 452 248 Q450 234 445 229 Q440 224 426 224 L106 224 L106 189 Q106 108 144.5 74.5 Q183 41 271 41 Q350 41 416 63 Q428 67 433 63 Q438 59 438 45 L438 39 Q438 26 434 22 Q430 18 416 13 Q355 -9 272 -9 Q160 -9 106.5 39 Q53 87 53 196 L53 294 Q53 499 256 499 Q351 499 403 450.5 Q455 402 455 306 Z M106 311 L106 271 L404 271 L404 311 Q404 451 255 451 Q106 451 106 311 Z M148 565 L184 623 Q202 653 215 664 Q228 675 250 675 Q271 675 284 664.5 Q297 654 316 623 L353 565 Q361 554 358.5 550 Q356 546 343 546 L339 546 Q317 546 306 565 L277 614 Q262 639 250 639 Q239 639 224 614 L196 565 Q185 546 163 546 L159 546 Q146 546 143.5 550 Q141 554 148 565 Z " />
<glyph glyph-name="edieresis" unicode="&#xeb;" horiz-adv-x="501" d="M455 306 Q455 275 452 248 Q450 234 445 229 Q440 224 426 224 L106 224 L106 189 Q106 108 144.5 74.5 Q183 41 271 41 Q350 41 416 63 Q428 67 433 63 Q438 59 438 45 L438 39 Q438 26 434 22 Q430 18 416 13 Q355 -9 272 -9 Q160 -9 106.5 39 Q53 87 53 196 L53 294 Q53 499 256 499 Q351 499 403 450.5 Q455 402 455 306 Z M106 311 L106 271 L404 271 L404 311 Q404 451 255 451 Q106 451 106 311 Z M147 610 Q147 625 157 635.5 Q167 646 182 646 Q197 646 207 635.5 Q217 625 217 610 Q217 595 207 585 Q197 575 182 575 Q167 575 157 585.5 Q147 596 147 610 Z M295 610 Q295 625 305.5 635.5 Q316 646 331 646 Q346 646 356 635.5 Q366 625 366 610 Q366 596 356 585.5 Q346 575 331 575 Q316 575 305.5 585.5 Q295 596 295 610 Z " />
<glyph glyph-name="igrave" unicode="&#xec;" horiz-adv-x="207" d="M77 24 L77 466 Q77 480 82 485 Q87 490 101 490 L106 490 Q120 490 125 485 Q130 480 130 466 L130 24 Q130 10 125 5 Q120 0 106 0 L101 0 Q87 0 82 5 Q77 10 77 24 Z M72 656 L125 561 Q133 550 130.5 546 Q128 542 113 542 L108 542 Q86 542 75 561 L18 657 Q10 670 12.5 674 Q15 678 30 678 L34 678 Q50 678 57.5 673.5 Q65 669 72 656 Z " />
<glyph glyph-name="iacute" unicode="&#xed;" horiz-adv-x="207" d="M77 24 L77 466 Q77 480 82 485 Q87 490 101 490 L106 490 Q120 490 125 485 Q130 480 130 466 L130 24 Q130 10 125 5 Q120 0 106 0 L101 0 Q87 0 82 5 Q77 10 77 24 Z M83 561 L136 656 Q143 669 150.5 673.5 Q158 678 173 678 L177 678 Q193 678 195.5 674 Q198 670 190 657 L132 561 Q121 542 99 542 L94 542 Q81 542 78.5 546 Q76 550 83 561 Z " />
<glyph glyph-name="icircumflex" unicode="&#xee;" horiz-adv-x="207" d="M77 24 L77 466 Q77 480 82 485 Q87 490 101 490 L106 490 Q120 490 125 485 Q130 480 130 466 L130 24 Q130 10 125 5 Q120 0 106 0 L101 0 Q87 0 82 5 Q77 10 77 24 Z M0 565 L36 623 Q54 653 67 664 Q80 675 102 675 Q123 675 136 664.5 Q149 654 168 623 L205 565 Q213 554 210.5 550 Q208 546 195 546 L191 546 Q169 546 158 565 L129 614 Q114 639 102 639 Q91 639 76 614 L48 565 Q37 546 15 546 L11 546 Q-2 546 -4.5 550 Q-7 554 0 565 Z " />
<glyph glyph-name="idieresis" unicode="&#xef;" horiz-adv-x="207" d="M77 24 L77 466 Q77 480 82 485 Q87 490 101 490 L106 490 Q120 490 125 485 Q130 480 130 466 L130 24 Q130 10 125 5 Q120 0 106 0 L101 0 Q87 0 82 5 Q77 10 77 24 Z M-6 610 Q-6 625 4 635.5 Q14 646 29 646 Q44 646 54 635.5 Q64 625 64 610 Q64 595 54 585 Q44 575 29 575 Q14 575 4 585.5 Q-6 596 -6 610 Z M142 610 Q142 625 152.5 635.5 Q163 646 178 646 Q193 646 203 635.5 Q213 625 213 610 Q213 596 203 585.5 Q193 575 178 575 Q163 575 152.5 585.5 Q142 596 142 610 Z " />
<glyph glyph-name="eth" unicode="&#xf0;" horiz-adv-x="513" d="M178 541 L261 624 Q214 650 133 660 Q119 661 116.5 668 Q114 675 118 688 L119 692 Q123 705 128.5 708.5 Q134 712 148 710 Q244 694 300 663 L363 726 Q375 738 388 727 L392 723 Q400 716 400 711 Q400 706 392 699 L333 641 Q402 590 428.5 515.5 Q455 441 455 330 Q455 234 446.5 174.5 Q438 115 414.5 71 Q391 27 348.5 9 Q306 -9 238 -9 Q41 -9 41 196 Q41 393 248 393 Q324 393 398 369 Q395 455 372 510.5 Q349 566 295 603 L206 513 Q198 506 194 506 Q190 506 182 513 L178 517 Q170 524 170 529 Q170 534 178 541 Z M248 343 Q177 343 137 310 Q97 277 97 195 Q97 116 131.5 79.5 Q166 43 237 43 Q339 43 368.5 99.5 Q398 156 398 318 Q330 343 248 343 Z " />
<glyph glyph-name="ntilde" unicode="&#xf1;" horiz-adv-x="528" d="M116 318 L116 24 Q116 10 111 5 Q106 0 92 0 L87 0 Q73 0 68 5 Q63 10 63 24 L63 318 Q63 499 264 499 Q372 499 418.5 452 Q465 405 465 318 L465 24 Q465 10 460 5 Q455 0 441 0 L436 0 Q422 0 417 5 Q412 10 412 24 L412 318 Q412 384 380 416.5 Q348 449 264 449 Q180 449 148 416.5 Q116 384 116 318 Z M142 565 L137 565 Q126 565 122.5 568 Q119 571 120 580 Q127 664 197 664 Q230 664 272.5 629.5 Q315 595 334 595 Q369 595 369 640 Q369 649 372.5 652 Q376 655 387 655 L392 655 Q403 655 406 652.5 Q409 650 408 640 Q404 556 331 556 Q299 556 256.5 590.5 Q214 625 195 625 Q164 625 159 580 Q158 571 155 568 Q152 565 142 565 Z " />
<glyph glyph-name="ograve" unicode="&#xf2;" horiz-adv-x="528" d="M422 196 L422 294 Q422 374 388 411.5 Q354 449 264 449 Q175 449 140.5 411.5 Q106 374 106 294 L106 196 Q106 116 140.5 78.5 Q175 41 264 41 Q354 41 388 78.5 Q422 116 422 196 Z M264 -9 Q150 -9 101.5 43.5 Q53 96 53 196 L53 294 Q53 393 102.5 446 Q152 499 264 499 Q378 499 427 446.5 Q476 394 476 294 L476 196 Q476 97 426.5 44 Q377 -9 264 -9 Z M240 656 L293 561 Q301 550 298.5 546 Q296 542 281 542 L276 542 Q254 542 243 561 L186 657 Q178 670 180.5 674 Q183 678 198 678 L202 678 Q218 678 225.5 673.5 Q233 669 240 656 Z " />
<glyph glyph-name="oacute" unicode="&#xf3;" horiz-adv-x="528" d="M422 196 L422 294 Q422 374 388 411.5 Q354 449 264 449 Q175 449 140.5 411.5 Q106 374 106 294 L106 196 Q106 116 140.5 78.5 Q175 41 264 41 Q354 41 388 78.5 Q422 116 422 196 Z M264 -9 Q150 -9 101.5 43.5 Q53 96 53 196 L53 294 Q53 393 102.5 446 Q152 499 264 499 Q378 499 427 446.5 Q476 394 476 294 L476 196 Q476 97 426.5 44 Q377 -9 264 -9 Z M237 561 L290 656 Q297 669 304.5 673.5 Q312 678 327 678 L331 678 Q347 678 349.5 674 Q352 670 344 657 L286 561 Q275 542 253 542 L248 542 Q235 542 232.5 546 Q230 550 237 561 Z " />
<glyph glyph-name="ocircumflex" unicode="&#xf4;" horiz-adv-x="528" d="M422 196 L422 294 Q422 374 388 411.5 Q354 449 264 449 Q175 449 140.5 411.5 Q106 374 106 294 L106 196 Q106 116 140.5 78.5 Q175 41 264 41 Q354 41 388 78.5 Q422 116 422 196 Z M264 -9 Q150 -9 101.5 43.5 Q53 96 53 196 L53 294 Q53 393 102.5 446 Q152 499 264 499 Q378 499 427 446.5 Q476 394 476 294 L476 196 Q476 97 426.5 44 Q377 -9 264 -9 Z M162 565 L198 623 Q216 653 229 664 Q242 675 264 675 Q285 675 298 664.5 Q311 654 330 623 L367 565 Q375 554 372.5 550 Q370 546 357 546 L353 546 Q331 546 320 565 L291 614 Q276 639 264 639 Q253 639 238 614 L210 565 Q199 546 177 546 L173 546 Q160 546 157.5 550 Q155 554 162 565 Z " />
<glyph glyph-name="otilde" unicode="&#xf5;" horiz-adv-x="528" d="M422 196 L422 294 Q422 374 388 411.5 Q354 449 264 449 Q175 449 140.5 411.5 Q106 374 106 294 L106 196 Q106 116 140.5 78.5 Q175 41 264 41 Q354 41 388 78.5 Q422 116 422 196 Z M264 -9 Q150 -9 101.5 43.5 Q53 96 53 196 L53 294 Q53 393 102.5 446 Q152 499 264 499 Q378 499 427 446.5 Q476 394 476 294 L476 196 Q476 97 426.5 44 Q377 -9 264 -9 Z M142 565 L137 565 Q126 565 122.5 568 Q119 571 120 580 Q127 664 197 664 Q230 664 272.5 629.5 Q315 595 334 595 Q369 595 369 640 Q369 649 372.5 652 Q376 655 387 655 L392 655 Q403 655 406 652.5 Q409 650 408 640 Q404 556 331 556 Q299 556 256.5 590.5 Q214 625 195 625 Q164 625 159 580 Q158 571 155 568 Q152 565 142 565 Z " />
<glyph glyph-name="odieresis" unicode="&#xf6;" horiz-adv-x="528" d="M422 196 L422 294 Q422 374 388 411.5 Q354 449 264 449 Q175 449 140.5 411.5 Q106 374 106 294 L106 196 Q106 116 140.5 78.5 Q175 41 264 41 Q354 41 388 78.5 Q422 116 422 196 Z M264 -9 Q150 -9 101.5 43.5 Q53 96 53 196 L53 294 Q53 393 102.5 446 Q152 499 264 499 Q378 499 427 446.5 Q476 394 476 294 L476 196 Q476 97 426.5 44 Q377 -9 264 -9 Z M155 610 Q155 625 165 635.5 Q175 646 190 646 Q205 646 215 635.5 Q225 625 225 610 Q225 595 215 585 Q205 575 190 575 Q175 575 165 585.5 Q155 596 155 610 Z M303 610 Q303 625 313.5 635.5 Q324 646 339 646 Q354 646 364 635.5 Q374 625 374 610 Q374 596 364 585.5 Q354 575 339 575 Q324 575 313.5 585.5 Q303 596 303 610 Z " />
<glyph glyph-name="divide" unicode="&#xf7;" horiz-adv-x="553" d="M245.5 115.5 Q233 128 233 146 Q233 164 245.5 176.5 Q258 189 276 189 Q295 189 307 176.5 Q319 164 319 146 Q319 128 307 115.5 Q295 103 276 103 Q258 103 245.5 115.5 Z M245.5 473.5 Q233 486 233 504 Q233 522 245.5 534.5 Q258 547 276 547 Q295 547 307 534.5 Q319 522 319 504 Q319 486 307 473.5 Q295 461 276 461 Q258 461 245.5 473.5 Z M494 328 L494 322 Q494 310 490 306 Q486 302 474 302 L78 302 Q66 302 62 306 Q58 310 58 322 L58 328 Q58 340 62 344 Q66 348 78 348 L474 348 Q486 348 490 344 Q494 340 494 328 Z " />
<glyph glyph-name="oslash" unicode="&#xf8;" horiz-adv-x="528" d="M264 -9 Q198 -9 152 10 L139 -12 Q130 -28 114 -19 L111 -17 Q95 -8 104 8 L116 31 Q53 79 53 196 L53 294 Q53 393 102.5 446 Q152 499 264 499 Q331 499 376 479 L390 503 Q399 519 414 510 L419 507 Q434 498 425 483 L411 460 Q476 410 476 294 L476 196 Q476 97 426.5 44 Q377 -9 264 -9 Z M422 196 L422 294 Q422 381 384 415 L175 56 Q210 41 264 41 Q354 41 388 78.5 Q422 116 422 196 Z M106 196 Q106 110 145 75 L352 435 Q319 449 264 449 Q175 449 140.5 411.5 Q106 374 106 294 L106 196 Z " />
<glyph glyph-name="ugrave" unicode="&#xf9;" horiz-adv-x="511" d="M108 466 L108 172 Q108 106 140 73.5 Q172 41 256 41 Q340 41 372 73.5 Q404 106 404 172 L404 466 Q404 480 409 485 Q414 490 428 490 L433 490 Q447 490 452 485 Q457 480 457 466 L457 172 Q457 85 410.5 38 Q364 -9 256 -9 Q55 -9 55 172 L55 466 Q55 480 60 485 Q65 490 79 490 L84 490 Q98 490 103 485 Q108 480 108 466 Z M237 656 L290 561 Q298 550 295.5 546 Q293 542 278 542 L273 542 Q251 542 240 561 L183 657 Q175 670 177.5 674 Q180 678 195 678 L199 678 Q215 678 222.5 673.5 Q230 669 237 656 Z " />
<glyph glyph-name="uacute" unicode="&#xfa;" horiz-adv-x="511" d="M108 466 L108 172 Q108 106 140 73.5 Q172 41 256 41 Q340 41 372 73.5 Q404 106 404 172 L404 466 Q404 480 409 485 Q414 490 428 490 L433 490 Q447 490 452 485 Q457 480 457 466 L457 172 Q457 85 410.5 38 Q364 -9 256 -9 Q55 -9 55 172 L55 466 Q55 480 60 485 Q65 490 79 490 L84 490 Q98 490 103 485 Q108 480 108 466 Z M234 561 L287 656 Q294 669 301.5 673.5 Q309 678 324 678 L328 678 Q344 678 346.5 674 Q349 670 341 657 L283 561 Q272 542 250 542 L245 542 Q232 542 229.5 546 Q227 550 234 561 Z " />
<glyph glyph-name="ucircumflex" unicode="&#xfb;" horiz-adv-x="511" d="M108 466 L108 172 Q108 106 140 73.5 Q172 41 256 41 Q340 41 372 73.5 Q404 106 404 172 L404 466 Q404 480 409 485 Q414 490 428 490 L433 490 Q447 490 452 485 Q457 480 457 466 L457 172 Q457 85 410.5 38 Q364 -9 256 -9 Q55 -9 55 172 L55 466 Q55 480 60 485 Q65 490 79 490 L84 490 Q98 490 103 485 Q108 480 108 466 Z M155 565 L191 623 Q209 653 222 664 Q235 675 257 675 Q278 675 291 664.5 Q304 654 323 623 L360 565 Q368 554 365.5 550 Q363 546 350 546 L346 546 Q324 546 313 565 L284 614 Q269 639 257 639 Q246 639 231 614 L203 565 Q192 546 170 546 L166 546 Q153 546 150.5 550 Q148 554 155 565 Z " />
<glyph glyph-name="udieresis" unicode="&#xfc;" horiz-adv-x="511" d="M108 466 L108 172 Q108 106 140 73.5 Q172 41 256 41 Q340 41 372 73.5 Q404 106 404 172 L404 466 Q404 480 409 485 Q414 490 428 490 L433 490 Q447 490 452 485 Q457 480 457 466 L457 172 Q457 85 410.5 38 Q364 -9 256 -9 Q55 -9 55 172 L55 466 Q55 480 60 485 Q65 490 79 490 L84 490 Q98 490 103 485 Q108 480 108 466 Z M147 610 Q147 625 157 635.5 Q167 646 182 646 Q197 646 207 635.5 Q217 625 217 610 Q217 595 207 585 Q197 575 182 575 Q167 575 157 585.5 Q147 596 147 610 Z M295 610 Q295 625 305.5 635.5 Q316 646 331 646 Q346 646 356 635.5 Q366 625 366 610 Q366 596 356 585.5 Q346 575 331 575 Q316 575 305.5 585.5 Q295 596 295 610 Z " />
<glyph glyph-name="yacute" unicode="&#xfd;" horiz-adv-x="505" d="M90 466 L196 104 Q206 68 220 56 Q234 44 261 44 Q287 44 301.5 56.5 Q316 69 325 104 L416 466 Q420 480 426 485 Q432 490 447 490 L451 490 Q466 490 470 485 Q474 480 470 466 L349 0 Q324 -96 278 -150.5 Q232 -205 154 -206 Q143 -206 138.5 -202.5 Q134 -199 131 -186 L129 -178 Q126 -165 128.5 -161.5 Q131 -158 142 -158 Q208 -157 239.5 -117 Q271 -77 299 12 Q277 -2 245 -2 Q200 -2 179 23.5 Q158 49 142 105 L36 466 Q32 480 35.5 485 Q39 490 54 490 L58 490 Q73 490 79 485 Q85 480 90 466 Z M235 561 L288 656 Q295 669 302.5 673.5 Q310 678 325 678 L329 678 Q345 678 347.5 674 Q350 670 342 657 L284 561 Q273 542 251 542 L246 542 Q233 542 230.5 546 Q228 550 235 561 Z " />
<glyph glyph-name="thorn" unicode="&#xfe;" horiz-adv-x="546" d="M494 293 L494 197 Q494 97 446 44 Q398 -9 288 -9 Q162 -9 124 71 L124 -176 Q124 -190 119 -195 Q114 -200 100 -200 L95 -200 Q81 -200 76 -195 Q71 -190 71 -176 L71 652 Q71 666 76 671 Q81 676 95 676 L100 676 Q114 676 119 671 Q124 666 124 652 L124 420 Q164 499 288 499 Q398 499 446 446 Q494 393 494 293 Z M440 196 L440 294 Q440 374 406 411.5 Q372 449 282 449 Q194 449 159 412.5 Q124 376 124 301 L124 196 Q124 116 158 78.5 Q192 41 282 41 Q372 41 406 78.5 Q440 116 440 196 Z " />
<glyph glyph-name="ydieresis" unicode="&#xff;" horiz-adv-x="505" d="M90 466 L196 104 Q206 68 220 56 Q234 44 261 44 Q287 44 301.5 56.5 Q316 69 325 104 L416 466 Q420 480 426 485 Q432 490 447 490 L451 490 Q466 490 470 485 Q474 480 470 466 L349 0 Q324 -96 278 -150.5 Q232 -205 154 -206 Q143 -206 138.5 -202.5 Q134 -199 131 -186 L129 -178 Q126 -165 128.5 -161.5 Q131 -158 142 -158 Q208 -157 239.5 -117 Q271 -77 299 12 Q277 -2 245 -2 Q200 -2 179 23.5 Q158 49 142 105 L36 466 Q32 480 35.5 485 Q39 490 54 490 L58 490 Q73 490 79 485 Q85 480 90 466 Z M143 610 Q143 625 153 635.5 Q163 646 178 646 Q193 646 203 635.5 Q213 625 213 610 Q213 595 203 585 Q193 575 178 575 Q163 575 153 585.5 Q143 596 143 610 Z M291 610 Q291 625 301.5 635.5 Q312 646 327 646 Q342 646 352 635.5 Q362 625 362 610 Q362 596 352 585.5 Q342 575 327 575 Q312 575 301.5 585.5 Q291 596 291 610 Z " />
<glyph glyph-name="Aogonek" unicode="&#x104;" horiz-adv-x="590" d="M419 529 L562 25 Q567 8 561 4 Q511 -28 492 -51.5 Q473 -75 473 -105 Q473 -136 484 -145.5 Q495 -155 520 -155 Q530 -155 550 -151 Q560 -148 563.5 -151 Q567 -154 567 -165 L567 -169 Q567 -179 564 -182.5 Q561 -186 550 -189 Q532 -194 511 -194 Q469 -194 449 -175 Q429 -156 429 -109 Q429 -85 435 -67 Q441 -49 455.5 -35 Q470 -21 481 -14 Q492 -7 515 6 Q509 12 506 25 L451 219 L139 219 L84 25 Q79 10 73 5 Q67 0 51 0 L47 0 Q31 0 27.5 5 Q24 10 28 25 L171 529 Q193 606 217.5 632 Q242 658 295 658 Q348 658 372.5 632 Q397 606 419 529 Z M230 544 L153 270 L437 270 L360 544 Q349 582 335 595.5 Q321 609 295 609 Q269 609 255 595.5 Q241 582 230 544 Z " />
<glyph glyph-name="aogonek" unicode="&#x105;" horiz-adv-x="477" d="M424 349 L424 148 Q424 92 403 59 Q382 26 335 5 Q231 -42 231 -105 Q231 -136 242 -145.5 Q253 -155 278 -155 Q288 -155 308 -151 Q318 -148 321.5 -151 Q325 -154 325 -165 L325 -169 Q325 -179 322 -182.5 Q319 -186 308 -189 Q290 -194 269 -194 Q227 -194 207 -175 Q187 -156 187 -109 Q187 -70 206.5 -48.5 Q226 -27 266 -7 Q236 -9 218 -9 Q143 -9 92.5 26 Q42 61 42 137 Q42 213 92 246.5 Q142 280 246 280 L371 280 L371 349 Q371 405 335 428 Q299 451 230 451 Q160 451 110 437 Q97 433 92.5 437 Q88 441 88 455 L88 462 Q88 475 92.5 480 Q97 485 110 488 Q157 499 227 499 Q424 499 424 349 Z M371 150 L371 236 L248 236 Q168 236 131.5 214 Q95 192 95 137 Q95 39 218 39 Q298 39 334.5 62 Q371 85 371 150 Z " />
<glyph glyph-name="Cacute" unicode="&#x106;" horiz-adv-x="520" d="M115 399 L115 239 Q115 141 158.5 92 Q202 43 301 43 Q395 43 455 73 Q478 84 478 54 L478 48 Q478 39 475 33.5 Q472 28 468.5 25.5 Q465 23 455 19 Q393 -9 305 -9 Q178 -9 118.5 51.5 Q59 112 59 239 L59 399 Q59 531 117.5 594.5 Q176 658 302 658 Q322 658 340.5 656.5 Q359 655 370.5 653.5 Q382 652 396.5 648 Q411 644 416 642.5 Q421 641 434 636 L447 631 Q461 626 465.5 621 Q470 616 470 602 L470 595 Q470 565 447 576 Q382 606 298 606 Q201 606 158 556 Q115 506 115 399 Z M256 714 L309 809 Q316 822 323.5 826.5 Q331 831 346 831 L350 831 Q366 831 368.5 827 Q371 823 363 810 L305 714 Q294 695 272 695 L267 695 Q254 695 251.5 699 Q249 703 256 714 Z " />
<glyph glyph-name="cacute" unicode="&#x107;" horiz-adv-x="429" d="M53 195 L53 296 Q53 499 270 499 Q324 499 366 482 Q379 477 383 472.5 Q387 468 387 455 L387 449 Q387 424 366 432 Q320 449 271 449 Q178 449 142 410 Q106 371 106 295 L106 195 Q106 110 145.5 75.5 Q185 41 276 41 Q330 41 376 57 Q389 61 393.5 57.5 Q398 54 398 40 L398 33 Q398 20 394 16 Q390 12 376 7 Q330 -9 272 -9 Q160 -9 106.5 40 Q53 89 53 195 Z M217 561 L270 656 Q277 669 284.5 673.5 Q292 678 307 678 L311 678 Q327 678 329.5 674 Q332 670 324 657 L266 561 Q255 542 233 542 L228 542 Q215 542 212.5 546 Q210 550 217 561 Z " />
<glyph glyph-name="Eogonek" unicode="&#x118;" horiz-adv-x="525" d="M134 315 L134 106 Q134 78 147 65 Q160 52 188 52 L459 52 Q473 52 478 47 Q483 42 483 28 L483 24 Q483 8 472 1 Q424 -28 405.5 -52 Q387 -76 387 -105 Q387 -136 398 -145.5 Q409 -155 434 -155 Q444 -155 464 -151 Q474 -148 477.5 -151 Q481 -154 481 -165 L481 -169 Q481 -179 478 -182.5 Q475 -186 464 -189 Q446 -194 425 -194 Q383 -194 363 -175 Q343 -156 343 -109 Q343 -67 362 -45 Q381 -23 423 0 L183 0 Q128 0 103.5 24.5 Q79 49 79 104 L79 546 Q79 601 103.5 625.5 Q128 650 183 650 L459 650 Q473 650 478 645 Q483 640 483 626 L483 622 Q483 608 478 603 Q473 598 459 598 L188 598 Q160 598 147 585 Q134 572 134 544 L134 367 L419 367 Q433 367 438 362 Q443 357 443 343 L443 339 Q443 325 438 320 Q433 315 419 315 L134 315 Z " />
<glyph glyph-name="eogonek" unicode="&#x119;" horiz-adv-x="501" d="M455 306 Q455 275 452 248 Q450 234 445 229 Q440 224 426 224 L106 224 L106 189 Q106 108 144.5 74.5 Q183 41 271 41 Q350 41 416 63 Q428 67 433 63 Q438 59 438 45 L438 39 Q438 23 426 16 Q371 -19 349.5 -46.5 Q328 -74 328 -105 Q328 -136 339 -145.5 Q350 -155 375 -155 Q385 -155 405 -151 Q415 -148 418.5 -151 Q422 -154 422 -165 L422 -169 Q422 -179 419 -182.5 Q416 -186 405 -189 Q388 -194 366 -194 Q324 -194 304 -175 Q284 -156 284 -109 Q284 -66 304.5 -42 Q325 -18 368 2 Q334 -9 272 -9 Q160 -9 106.5 39 Q53 87 53 196 L53 294 Q53 499 256 499 Q351 499 403 450.5 Q455 402 455 306 Z M106 311 L106 271 L404 271 L404 311 Q404 451 255 451 Q106 451 106 311 Z " />
<glyph glyph-name="dotlessi" unicode="&#x131;" horiz-adv-x="207" d="M77 24 L77 466 Q77 480 82 485 Q87 490 101 490 L106 490 Q120 490 125 485 Q130 480 130 466 L130 24 Q130 10 125 5 Q120 0 106 0 L101 0 Q87 0 82 5 Q77 10 77 24 Z " />
<glyph glyph-name="Lslash" unicode="&#x141;" horiz-adv-x="468" d="M83 104 L83 326 L44 312 Q33 308 28.5 310.5 Q24 313 19 324 L17 328 Q13 339 15.5 343.5 Q18 348 29 352 L83 371 L83 626 Q83 640 88 645 Q93 650 107 650 L114 650 Q128 650 133 645 Q138 640 138 626 L138 391 L225 423 Q236 427 240.5 424.5 Q245 422 250 411 L251 408 Q255 397 253 392.5 Q251 388 240 383 L138 346 L138 106 Q138 78 151 65 Q164 52 192 52 L423 52 Q437 52 442 47 Q447 42 447 28 L447 24 Q447 10 442 5 Q437 0 423 0 L187 0 Q132 0 107.5 24.5 Q83 49 83 104 Z " />
<glyph glyph-name="lslash" unicode="&#x142;" horiz-adv-x="231" d="M74 119 L74 343 L40 331 Q29 327 24.5 329 Q20 331 15 342 L14 345 Q10 356 12 360.5 Q14 365 25 369 L74 387 L74 676 Q74 690 79 695 Q84 700 98 700 L103 700 Q117 700 122 695 Q127 690 127 676 L127 406 L182 426 Q193 430 197.5 428 Q202 426 207 415 L208 412 Q212 401 210 396.5 Q208 392 197 388 L127 362 L127 125 Q127 46 181 46 L193 46 Q207 46 211.5 42.5 Q216 39 216 26 L216 22 Q216 9 211.5 4 Q207 -1 193 -3 Q187 -4 177 -4 Q131 -4 102.5 25 Q74 54 74 119 Z " />
<glyph glyph-name="Nacute" unicode="&#x143;" horiz-adv-x="618" d="M79 24 L79 563 Q79 657 162 657 Q199 657 218.5 638.5 Q238 620 252 577 L416 83 Q424 57 433 49.5 Q442 42 456 42 Q484 42 484 83 L484 626 Q484 640 489 645 Q494 650 508 650 L515 650 Q529 650 534 645 Q539 640 539 626 L539 87 Q539 37 519 15 Q499 -7 458 -7 Q419 -7 399.5 12.5 Q380 32 365 78 L202 566 Q194 590 186 599 Q178 608 164 608 Q133 608 133 565 L133 24 Q133 10 128 5 Q123 0 109 0 L103 0 Q89 0 84 5 Q79 10 79 24 Z M288 714 L341 809 Q348 822 355.5 826.5 Q363 831 378 831 L382 831 Q398 831 400.5 827 Q403 823 395 810 L337 714 Q326 695 304 695 L299 695 Q286 695 283.5 699 Q281 703 288 714 Z " />
<glyph glyph-name="nacute" unicode="&#x144;" horiz-adv-x="528" d="M116 318 L116 24 Q116 10 111 5 Q106 0 92 0 L87 0 Q73 0 68 5 Q63 10 63 24 L63 318 Q63 499 264 499 Q372 499 418.5 452 Q465 405 465 318 L465 24 Q465 10 460 5 Q455 0 441 0 L436 0 Q422 0 417 5 Q412 10 412 24 L412 318 Q412 384 380 416.5 Q348 449 264 449 Q180 449 148 416.5 Q116 384 116 318 Z M221 561 L274 656 Q281 669 288.5 673.5 Q296 678 311 678 L315 678 Q331 678 333.5 674 Q336 670 328 657 L270 561 Q259 542 237 542 L232 542 Q219 542 216.5 546 Q214 550 221 561 Z " />
<glyph glyph-name="OE" unicode="&#x152;" horiz-adv-x="942" d="M306 -9 Q167 -9 113 54.5 Q59 118 59 251 L59 399 Q59 531 113 594.5 Q167 658 306 658 Q470 658 504 561 Q506 607 530.5 628.5 Q555 650 605 650 L876 650 Q890 650 895 645 Q900 640 900 626 L900 622 Q900 608 895 603 Q890 598 876 598 L606 598 Q578 598 565 585 Q552 572 552 544 L552 367 L836 367 Q850 367 855 362 Q860 357 860 343 L860 339 Q860 325 855 320 Q850 315 836 315 L552 315 L552 106 Q552 78 565 65 Q578 52 606 52 L876 52 Q890 52 895 47 Q900 42 900 28 L900 24 Q900 10 895 5 Q890 0 876 0 L605 0 Q555 0 531 21 Q507 42 504 89 Q471 -9 306 -9 Z M497 251 L497 399 Q497 508 458 557 Q419 606 306 606 Q192 606 153 557 Q114 508 114 399 L114 251 Q114 197 121.5 161 Q129 125 149.5 97 Q170 69 208.5 56 Q247 43 306 43 Q419 43 458 92.5 Q497 142 497 251 Z " />
<glyph glyph-name="oe" unicode="&#x153;" horiz-adv-x="870" d="M264 -9 Q150 -9 101.5 43.5 Q53 96 53 196 L53 294 Q53 393 102.5 446 Q152 499 264 499 Q421 499 449 384 Q476 499 625 499 Q720 499 771.5 450.5 Q823 402 823 306 Q823 271 820 250 Q818 234 813 229 Q808 224 792 224 L475 224 L475 189 Q475 108 513.5 74.5 Q552 41 640 41 Q723 41 783 63 Q806 71 806 44 L806 40 Q806 27 801.5 22.5 Q797 18 783 13 Q719 -9 641 -9 Q477 -9 449 106 Q420 -9 264 -9 Z M422 196 L422 294 Q422 374 388 411.5 Q354 449 264 449 Q175 449 140.5 411.5 Q106 374 106 294 L106 196 Q106 116 140.5 78.5 Q175 41 264 41 Q354 41 388 78.5 Q422 116 422 196 Z M475 311 L475 271 L773 271 L773 311 Q773 451 624 451 Q475 451 475 311 Z " />
<glyph glyph-name="Sacute" unicode="&#x15a;" horiz-adv-x="513" d="M53 45 L53 53 Q53 81 77 72 Q143 45 245 45 Q329 45 369 66.5 Q409 88 409 142 Q409 171 394.5 194.5 Q380 218 363.5 231 Q347 244 312 265 L156 364 Q111 392 84.5 427.5 Q58 463 58 518 Q58 658 258 658 Q350 658 412 633 Q422 629 426.5 626.5 Q431 624 433.5 618.5 Q436 613 436 604 L436 596 Q436 568 414 578 Q352 605 258 605 Q181 605 148 584 Q115 563 115 516 Q115 478 133.5 455 Q152 432 191 408 L349 307 Q386 284 406.5 267.5 Q427 251 446 218 Q465 185 465 143 Q465 -9 242 -9 Q147 -9 76 17 Q65 21 61.5 23.5 Q58 26 55.5 31 Q53 36 53 45 Z M220 714 L273 809 Q280 822 287.5 826.5 Q295 831 310 831 L314 831 Q330 831 332.5 827 Q335 823 327 810 L269 714 Q258 695 236 695 L231 695 Q218 695 215.5 699 Q213 703 220 714 Z " />
<glyph glyph-name="sacute" unicode="&#x15b;" horiz-adv-x="453" d="M52 39 L52 43 Q52 57 57 61 Q62 65 75 62 Q162 41 227 41 Q290 41 319 56.5 Q348 72 348 109 Q348 137 332.5 155.5 Q317 174 282 191 L148 256 Q103 278 81.5 305 Q60 332 60 382 Q60 499 227 499 Q298 499 356 478 Q370 473 374.5 468.5 Q379 464 379 451 L379 446 Q379 420 355 428 Q298 449 225 449 Q166 449 139 434 Q112 419 112 383 Q112 331 170 303 L306 238 Q354 215 377.5 188 Q401 161 401 111 Q401 48 356.5 19.5 Q312 -9 221 -9 Q152 -9 75 12 Q61 16 56.5 21 Q52 26 52 39 Z M194 561 L247 656 Q254 669 261.5 673.5 Q269 678 284 678 L288 678 Q304 678 306.5 674 Q309 670 301 657 L243 561 Q232 542 210 542 L205 542 Q192 542 189.5 546 Q187 550 194 561 Z " />
<glyph glyph-name="Scaron" unicode="&#x160;" horiz-adv-x="513" d="M53 45 L53 53 Q53 81 77 72 Q143 45 245 45 Q329 45 369 66.5 Q409 88 409 142 Q409 171 394.5 194.5 Q380 218 363.5 231 Q347 244 312 265 L156 364 Q111 392 84.5 427.5 Q58 463 58 518 Q58 658 258 658 Q350 658 412 633 Q422 629 426.5 626.5 Q431 624 433.5 618.5 Q436 613 436 604 L436 596 Q436 568 414 578 Q352 605 258 605 Q181 605 148 584 Q115 563 115 516 Q115 478 133.5 455 Q152 432 191 408 L349 307 Q386 284 406.5 267.5 Q427 251 446 218 Q465 185 465 143 Q465 -9 242 -9 Q147 -9 76 17 Q65 21 61.5 23.5 Q58 26 55.5 31 Q53 36 53 45 Z M192 751 L156 809 Q149 820 151.5 824 Q154 828 167 828 L171 828 Q193 828 204 809 L232 760 Q247 735 258 735 Q270 735 285 760 L314 809 Q325 828 347 828 L351 828 Q364 828 366.5 824 Q369 820 361 809 L324 751 Q305 720 292 709.5 Q279 699 258 699 Q236 699 223 710 Q210 721 192 751 Z " />
<glyph glyph-name="scaron" unicode="&#x161;" horiz-adv-x="453" d="M52 39 L52 43 Q52 57 57 61 Q62 65 75 62 Q162 41 227 41 Q290 41 319 56.5 Q348 72 348 109 Q348 137 332.5 155.5 Q317 174 282 191 L148 256 Q103 278 81.5 305 Q60 332 60 382 Q60 499 227 499 Q298 499 356 478 Q370 473 374.5 468.5 Q379 464 379 451 L379 446 Q379 420 355 428 Q298 449 225 449 Q166 449 139 434 Q112 419 112 383 Q112 331 170 303 L306 238 Q354 215 377.5 188 Q401 161 401 111 Q401 48 356.5 19.5 Q312 -9 221 -9 Q152 -9 75 12 Q61 16 56.5 21 Q52 26 52 39 Z M160 597 L124 655 Q117 666 119.5 670 Q122 674 135 674 L139 674 Q161 674 172 655 L200 606 Q215 581 226 581 Q238 581 253 606 L282 655 Q293 674 315 674 L319 674 Q332 674 334.5 670 Q337 666 329 655 L292 597 Q273 566 260 555.5 Q247 545 226 545 Q204 545 191 556 Q178 567 160 597 Z " />
<glyph glyph-name="Ydieresis" unicode="&#x178;" horiz-adv-x="585" d="M265 24 L265 275 Q232 280 213 301 Q194 322 160 384 L28 625 Q20 640 23 645 Q26 650 43 650 L49 650 Q65 650 73.5 645 Q82 640 90 625 L218 387 Q240 347 253.5 334.5 Q267 322 293 322 Q318 322 332 335 Q346 348 367 387 L495 625 Q503 640 511.5 645 Q520 650 536 650 L542 650 Q559 650 562 645 Q565 640 557 625 L425 384 Q391 322 372 301 Q353 280 321 275 L321 24 Q321 10 316 5 Q311 0 297 0 L289 0 Q275 0 270 5 Q265 10 265 24 Z M184 762 Q184 777 194 787.5 Q204 798 219 798 Q234 798 244 787.5 Q254 777 254 762 Q254 747 244 737 Q234 727 219 727 Q204 727 194 737.5 Q184 748 184 762 Z M332 762 Q332 777 342.5 787.5 Q353 798 368 798 Q383 798 393 787.5 Q403 777 403 762 Q403 748 393 737.5 Q383 727 368 727 Q353 727 342.5 737.5 Q332 748 332 762 Z " />
<glyph glyph-name="Zacute" unicode="&#x179;" horiz-adv-x="537" d="M54 622 L54 626 Q54 640 59 645 Q64 650 78 650 L380 650 Q436 650 466 624.5 Q496 599 496 553 Q496 496 434 438 L129 158 Q88 121 88 88 Q88 52 136 52 L479 52 Q493 52 498 47 Q503 42 503 28 L503 24 Q503 10 498 5 Q493 0 479 0 L137 0 Q83 0 59 22.5 Q35 45 35 79 Q35 101 38 115 Q41 129 56 152.5 Q71 176 100 203 L406 485 Q442 519 442 548 Q442 598 379 598 L78 598 Q64 598 59 603 Q54 608 54 622 Z M219 714 L272 809 Q279 822 286.5 826.5 Q294 831 309 831 L313 831 Q329 831 331.5 827 Q334 823 326 810 L268 714 Q257 695 235 695 L230 695 Q217 695 214.5 699 Q212 703 219 714 Z " />
<glyph glyph-name="zacute" unicode="&#x17a;" horiz-adv-x="468" d="M65 463 L65 468 Q65 482 69.5 486 Q74 490 87 490 L325 490 Q378 490 401.5 471 Q425 452 425 408 Q425 360 370 318 L118 126 Q91 106 91 83 Q91 49 142 49 L403 49 Q416 49 420.5 44.5 Q425 40 425 27 L425 22 Q425 8 420.5 4 Q416 0 403 0 L140 0 Q42 0 42 80 Q42 130 94 169 L342 358 Q375 383 375 409 Q375 425 364 433 Q353 441 325 441 L87 441 Q74 441 69.5 445.5 Q65 450 65 463 Z M214 561 L267 656 Q274 669 281.5 673.5 Q289 678 304 678 L308 678 Q324 678 326.5 674 Q329 670 321 657 L263 561 Q252 542 230 542 L225 542 Q212 542 209.5 546 Q207 550 214 561 Z " />
<glyph glyph-name="Zdotaccent" unicode="&#x17b;" horiz-adv-x="537" d="M53 622 L53 626 Q53 640 58 645 Q63 650 77 650 L379 650 Q435 650 465 624.5 Q495 599 495 553 Q495 496 433 438 L128 158 Q87 121 87 88 Q87 52 135 52 L478 52 Q492 52 497 47 Q502 42 502 28 L502 24 Q502 10 497 5 Q492 0 478 0 L136 0 Q82 0 58 22.5 Q34 45 34 79 Q34 101 37 115 Q40 129 55 152.5 Q70 176 99 203 L405 485 Q441 519 441 548 Q441 598 378 598 L77 598 Q63 598 58 603 Q53 608 53 622 Z M219 762 Q219 780 231 792 Q243 804 260 804 Q278 804 289.5 792 Q301 780 301 762 Q301 745 289.5 733 Q278 721 260 721 Q243 721 231 733 Q219 745 219 762 Z " />
<glyph glyph-name="zdotaccent" unicode="&#x17c;" horiz-adv-x="468" d="M65 463 L65 468 Q65 482 69.5 486 Q74 490 87 490 L325 490 Q378 490 401.5 471 Q425 452 425 408 Q425 360 370 318 L118 126 Q91 106 91 83 Q91 49 142 49 L403 49 Q416 49 420.5 44.5 Q425 40 425 27 L425 22 Q425 8 420.5 4 Q416 0 403 0 L140 0 Q42 0 42 80 Q42 130 94 169 L342 358 Q375 383 375 409 Q375 425 364 433 Q353 441 325 441 L87 441 Q74 441 69.5 445.5 Q65 450 65 463 Z M197 609 Q197 627 209 639 Q221 651 238 651 Q256 651 267.5 639 Q279 627 279 609 Q279 592 267.5 580 Q256 568 238 568 Q221 568 209 580 Q197 592 197 609 Z " />
<glyph glyph-name="Zcaron" unicode="&#x17d;" horiz-adv-x="537" d="M54 622 L54 626 Q54 640 59 645 Q64 650 78 650 L380 650 Q436 650 466 624.5 Q496 599 496 553 Q496 496 434 438 L129 158 Q88 121 88 88 Q88 52 136 52 L479 52 Q493 52 498 47 Q503 42 503 28 L503 24 Q503 10 498 5 Q493 0 479 0 L137 0 Q83 0 59 22.5 Q35 45 35 79 Q35 101 38 115 Q41 129 56 152.5 Q71 176 100 203 L406 485 Q442 519 442 548 Q442 598 379 598 L78 598 Q64 598 59 603 Q54 608 54 622 Z M193 751 L157 809 Q150 820 152.5 824 Q155 828 168 828 L172 828 Q194 828 205 809 L233 760 Q248 735 259 735 Q271 735 286 760 L315 809 Q326 828 348 828 L352 828 Q365 828 367.5 824 Q370 820 362 809 L325 751 Q306 720 293 709.5 Q280 699 259 699 Q237 699 224 710 Q211 721 193 751 Z " />
<glyph glyph-name="zcaron" unicode="&#x17e;" horiz-adv-x="470" d="M65 463 L65 468 Q65 482 69.5 486 Q74 490 87 490 L325 490 Q378 490 401.5 471 Q425 452 425 408 Q425 360 370 318 L118 126 Q91 106 91 83 Q91 49 142 49 L403 49 Q416 49 420.5 44.5 Q425 40 425 27 L425 22 Q425 8 420.5 4 Q416 0 403 0 L140 0 Q42 0 42 80 Q42 130 94 169 L342 358 Q375 383 375 409 Q375 425 364 433 Q353 441 325 441 L87 441 Q74 441 69.5 445.5 Q65 450 65 463 Z M174 597 L138 655 Q131 666 133.5 670 Q136 674 149 674 L153 674 Q175 674 186 655 L214 606 Q229 581 240 581 Q252 581 267 606 L296 655 Q307 674 329 674 L333 674 Q346 674 348.5 670 Q351 666 343 655 L306 597 Q287 566 274 555.5 Q261 545 240 545 Q218 545 205 556 Q192 567 174 597 Z " />
<glyph glyph-name="florin" unicode="&#x192;" horiz-adv-x="404" d="M72 311 L72 315 Q72 326 76 330 Q80 334 91 334 L187 334 L211 492 Q224 579 255.5 619.5 Q287 660 359 660 Q374 660 388 658 Q401 657 406 651.5 Q411 646 411 632 L411 628 Q411 615 406.5 610.5 Q402 606 388 608 Q376 609 365 609 Q319 609 298 587 Q277 565 265 490 L241 334 L368 334 Q379 334 383 330 Q387 326 387 315 L387 311 Q387 300 383 296 Q379 292 368 292 L234 292 L197 59 Q188 4 181.5 -28 Q175 -60 163 -92.5 Q151 -125 134.5 -141 Q118 -157 93 -167 Q68 -177 33 -177 Q23 -177 17 -176 Q3 -174 -1.5 -169 Q-6 -164 -6 -151 L-6 -147 Q-6 -133 -2.5 -129 Q1 -125 14 -126 Q24 -127 29 -127 Q85 -127 105 -88 Q125 -49 143 62 L180 292 L91 292 Q80 292 76 296 Q72 300 72 311 Z " />
<glyph glyph-name="circumflex" unicode="&#x2c6;" horiz-adv-x="339" d="M67 769 L103 827 Q121 857 134 868 Q147 879 169 879 Q190 879 203 868.5 Q216 858 235 827 L272 769 Q280 758 277.5 754 Q275 750 262 750 L258 750 Q236 750 225 769 L196 818 Q181 843 169 843 Q158 843 143 818 L115 769 Q104 750 82 750 L78 750 Q65 750 62.5 754 Q60 758 67 769 Z " />
<glyph glyph-name="caron" unicode="&#x2c7;" horiz-adv-x="328" d="M97 801 L61 859 Q54 870 56.5 874 Q59 878 72 878 L76 878 Q98 878 109 859 L137 810 Q152 785 163 785 Q175 785 190 810 L219 859 Q230 878 252 878 L256 878 Q269 878 271.5 874 Q274 870 266 859 L229 801 Q210 770 197 759.5 Q184 749 163 749 Q141 749 128 760 Q115 771 97 801 Z " />
<glyph glyph-name="breve" unicode="&#x2d8;" horiz-adv-x="400" d="M320 840 Q320 750 200 750 Q80 750 80 840 L80 846 Q80 856 84 860 Q88 864 98 864 L103 864 Q114 864 117.5 860 Q121 856 121 846 L121 840 Q121 788 200 788 Q279 788 279 841 L279 846 Q279 856 282.5 860 Q286 864 297 864 L302 864 Q312 864 316 860 Q320 856 320 846 L320 840 Z " />
<glyph glyph-name="dotaccent" unicode="&#x2d9;" horiz-adv-x="180" d="M49 791 Q49 809 61 821 Q73 833 90 833 Q108 833 119.5 821 Q131 809 131 791 Q131 774 119.5 762 Q108 750 90 750 Q73 750 61 762 Q49 774 49 791 Z " />
<glyph glyph-name="ring" unicode="&#x2da;" horiz-adv-x="269" d="M133 750 Q96 750 73.5 773 Q51 796 51 833 Q51 870 73.5 893 Q96 916 133 916 Q172 916 195 893.5 Q218 871 218 833 Q218 796 195 773 Q172 750 133 750 Z M133 783 Q157 783 170.5 798 Q184 813 184 833 Q184 855 171 869 Q158 883 133 883 Q110 883 97.5 869 Q85 855 85 833 Q85 813 97.5 798 Q110 783 133 783 Z " />
<glyph glyph-name="ogonek" unicode="&#x2db;" horiz-adv-x="237" d="M144 0 L190 0 Q130 -37 112 -57 Q94 -77 94 -105 Q94 -136 105 -145.5 Q116 -155 141 -155 Q151 -155 171 -151 Q181 -148 184.5 -151 Q188 -154 188 -165 L188 -169 Q188 -179 185 -182.5 Q182 -186 171 -189 Q154 -194 132 -194 Q90 -194 70 -175 Q50 -156 50 -109 Q50 -68 72.5 -46 Q95 -24 144 0 Z " />
<glyph glyph-name="tilde" unicode="&#x2dc;" horiz-adv-x="449" d="M102 775 L97 775 Q86 775 82.5 778 Q79 781 80 790 Q87 874 157 874 Q190 874 232.5 839.5 Q275 805 294 805 Q329 805 329 850 Q329 859 332.5 862 Q336 865 347 865 L352 865 Q363 865 366 862.5 Q369 860 368 850 Q364 766 291 766 Q259 766 216.5 800.5 Q174 835 155 835 Q124 835 119 790 Q118 781 115 778 Q112 775 102 775 Z " />
<glyph glyph-name="hungarumlaut" unicode="&#x2dd;" horiz-adv-x="345" d="M62 769 L115 864 Q122 877 129.5 881.5 Q137 886 152 886 L156 886 Q171 886 173.5 882 Q176 878 168 865 L111 769 Q100 750 78 750 L73 750 Q60 750 57.5 754 Q55 758 62 769 Z M176 769 L228 864 Q235 877 242.5 881.5 Q250 886 265 886 L269 886 Q284 886 286.5 882 Q289 878 281 865 L224 769 Q213 750 191 750 L187 750 Q174 750 171.5 754 Q169 758 176 769 Z " />
<glyph glyph-name="endash" unicode="&#x2013;" horiz-adv-x="403" d="M-8 310 L-8 315 Q-8 327 -4 331 Q0 335 12 335 L391 335 Q403 335 407 331 Q411 327 411 315 L411 310 Q411 298 407 294 Q403 290 391 290 L12 290 Q0 290 -4 294 Q-8 298 -8 310 Z " />
<glyph glyph-name="emdash" unicode="&#x2014;" horiz-adv-x="822" d="M-8 310 L-8 315 Q-8 327 -4 331 Q0 335 12 335 L810 335 Q822 335 826 331 Q830 327 830 315 L830 310 Q830 298 826 294 Q822 290 810 290 L12 290 Q0 290 -4 294 Q-8 298 -8 310 Z " />
<glyph glyph-name="quoteleft" unicode="&#x2018;" horiz-adv-x="182" d="M140 709 Q148 707 147 692 Q141 634 123 558 Q108 495 77 495 Q52 495 52 525 Q52 571 123 699 Q131 712 140 709 Z " />
<glyph glyph-name="quoteright" unicode="&#x2019;" horiz-adv-x="182" d="M42 497 Q34 499 35 514 Q41 572 59 648 Q74 711 105 711 Q130 711 130 681 Q130 635 59 507 Q51 494 42 497 Z " />
<glyph glyph-name="quotesinglbase" unicode="&#x201a;" horiz-adv-x="182" d="M42 -135 Q34 -133 35 -118 Q41 -60 59 16 Q74 79 105 79 Q130 79 130 49 Q130 3 59 -125 Q51 -138 42 -135 Z " />
<glyph glyph-name="quotedblleft" unicode="&#x201c;" horiz-adv-x="333" d="M140 709 Q148 707 147 692 Q141 634 123 558 Q108 495 77 495 Q52 495 52 525 Q52 571 123 699 Q131 712 140 709 Z M291 709 Q299 707 298 692 Q292 634 274 558 Q259 495 228 495 Q203 495 203 525 Q203 571 274 699 Q282 712 291 709 Z " />
<glyph glyph-name="quotedblright" unicode="&#x201d;" horiz-adv-x="333" d="M42 497 Q34 499 35 514 Q41 572 59 648 Q74 711 105 711 Q130 711 130 681 Q130 635 59 507 Q51 494 42 497 Z M193 497 Q185 499 186 514 Q192 572 210 648 Q225 711 256 711 Q281 711 281 681 Q281 635 210 507 Q202 494 193 497 Z " />
<glyph glyph-name="quotedblbase" unicode="&#x201e;" horiz-adv-x="325" d="M42 -135 Q34 -133 35 -118 Q41 -60 59 16 Q74 79 105 79 Q130 79 130 49 Q130 3 59 -125 Q51 -138 42 -135 Z M185 -135 Q177 -133 178 -118 Q184 -60 202 16 Q217 79 248 79 Q273 79 273 49 Q273 3 202 -125 Q194 -138 185 -135 Z " />
<glyph glyph-name="dagger" unicode="&#x2020;" horiz-adv-x="438" d="M408 467 L408 463 Q408 452 404 448 Q400 444 389 444 L241 444 L241 -52 Q241 -64 237 -68 Q233 -72 221 -72 L216 -72 Q204 -72 200 -68 Q196 -64 196 -52 L196 444 L49 444 Q38 444 34 448 Q30 452 30 463 L30 467 Q30 478 34 482 Q38 486 49 486 L196 486 L196 606 Q196 618 200 622 Q204 626 216 626 L221 626 Q233 626 237 622 Q241 618 241 606 L241 486 L389 486 Q400 486 404 482 Q408 478 408 467 Z " />
<glyph glyph-name="daggerdbl" unicode="&#x2021;" horiz-adv-x="462" d="M42 87 L42 91 Q42 102 46 106 Q50 110 61 110 L208 110 L208 444 L61 444 Q50 444 46 448 Q42 452 42 463 L42 467 Q42 478 46 482 Q50 486 61 486 L208 486 L208 606 Q208 618 212 622 Q216 626 228 626 L233 626 Q245 626 249 622 Q253 618 253 606 L253 486 L401 486 Q412 486 416 482 Q420 478 420 467 L420 463 Q420 452 416 448 Q412 444 401 444 L253 444 L253 110 L401 110 Q412 110 416 106 Q420 102 420 91 L420 87 Q420 76 416 72 Q412 68 401 68 L253 68 L253 -52 Q253 -64 249 -68 Q245 -72 233 -72 L228 -72 Q216 -72 212 -68 Q208 -64 208 -52 L208 68 L61 68 Q50 68 46 72 Q42 76 42 87 Z " />
<glyph glyph-name="bullet" unicode="&#x2022;" horiz-adv-x="238" d="M201 310 Q201 276 177.5 252 Q154 228 119 228 Q83 228 60 252 Q37 276 37 310 Q37 345 60 368.5 Q83 392 119 392 Q155 392 178 368.5 Q201 345 201 310 Z " />
<glyph glyph-name="ellipsis" unicode="&#x2026;" horiz-adv-x="616" d="M478 37 Q478 56 490.5 68.5 Q503 81 521 81 Q539 81 551.5 68.5 Q564 56 564 37 Q564 19 551.5 6.5 Q539 -6 521 -6 Q503 -6 490.5 6.5 Q478 19 478 37 Z M265 37 Q265 56 277.5 68.5 Q290 81 308 81 Q326 81 338.5 68.5 Q351 56 351 37 Q351 19 338.5 6.5 Q326 -6 308 -6 Q290 -6 277.5 6.5 Q265 19 265 37 Z M52 37 Q52 56 64.5 68.5 Q77 81 95 81 Q113 81 125.5 68.5 Q138 56 138 37 Q138 19 125.5 6.5 Q113 -6 95 -6 Q77 -6 64.5 6.5 Q52 19 52 37 Z " />
<glyph glyph-name="perthousand" unicode="&#x2030;" horiz-adv-x="1074" d="M879 311 Q1023 311 1023 152 Q1023 -7 879 -7 Q735 -7 735 152 Q735 311 879 311 Z M974 152 Q974 213 951.5 239.5 Q929 266 879 266 Q828 266 806 239.5 Q784 213 784 152 Q784 91 806 65 Q828 39 879 39 Q929 39 951.5 65.5 Q974 92 974 152 Z M196 657 Q340 657 340 498 Q340 339 196 339 Q52 339 52 498 Q52 657 196 657 Z M291 498 Q291 558 268.5 584.5 Q246 611 196 611 Q145 611 123 584.5 Q101 558 101 498 Q101 437 123 410.5 Q145 384 196 384 Q246 384 268.5 410.5 Q291 437 291 498 Z M542 311 Q686 311 686 152 Q686 -7 542 -7 Q398 -7 398 152 Q398 311 542 311 Z M615 65 Q637 91 637 152 Q637 213 615 239.5 Q593 266 542 266 Q492 266 469.5 239.5 Q447 213 447 152 Q447 92 469.5 65.5 Q492 39 542 39 Q593 39 615 65 Z M535 650 L542 650 Q557 650 559.5 646 Q562 642 555 628 L241 22 Q234 9 226.5 4.5 Q219 0 204 0 L197 0 Q182 0 179.5 4 Q177 8 184 22 L498 628 Q505 641 512.5 645.5 Q520 650 535 650 Z " />
<glyph glyph-name="guilsinglleft" unicode="&#x2039;" horiz-adv-x="275" d="M209 52 L203 52 Q179 52 164 70 L64 190 Q32 229 32 250 Q32 271 64 310 L164 430 Q179 448 203 448 L209 448 Q223 448 225 444 Q227 440 218 429 L97 283 Q78 260 78 250 Q78 239 97 217 L218 71 Q227 60 225 56 Q223 52 209 52 Z " />
<glyph glyph-name="guilsinglright" unicode="&#x203a;" horiz-adv-x="275" d="M71 52 L66 52 Q52 52 50 56 Q48 60 57 71 L178 217 Q197 240 197 250 Q197 260 178 283 L57 429 Q48 440 50 444 Q52 448 66 448 L71 448 Q95 448 110 430 L211 310 Q243 271 243 250 Q243 229 211 190 L110 70 Q95 52 71 52 Z " />
<glyph glyph-name="fraction" unicode="&#x2044;" horiz-adv-x="288" d="M270 672 L276 672 Q288 672 290.5 668 Q293 664 289 653 L45 -3 Q40 -14 35 -18 Q30 -22 18 -22 L12 -22 Q0 -22 -2.5 -18 Q-5 -14 -1 -3 L243 653 Q248 664 253 668 Q258 672 270 672 Z " />
<glyph glyph-name="Euro" unicode="&#x20ac;" horiz-adv-x="540" d="M20 397 L20 401 Q20 412 24 416 Q28 420 39 420 L96 420 Q101 550 160 604 Q219 658 328 658 Q406 658 460 638 Q473 633 476.5 627 Q480 621 477 607 L476 603 Q473 590 467 586.5 Q461 583 448 588 Q389 606 329 606 Q246 606 202 566 Q158 526 152 420 L412 420 Q424 420 427 416.5 Q430 413 427 403 L425 396 Q422 385 417.5 381.5 Q413 378 402 378 L151 378 L151 272 L376 272 Q388 272 391 268.5 Q394 265 391 255 L389 248 Q386 237 381.5 233.5 Q377 230 366 230 L152 230 Q157 128 198.5 85.5 Q240 43 332 43 Q412 43 473 71 Q486 76 490 72 Q494 68 494 53 L494 47 Q494 38 491.5 32.5 Q489 27 485.5 24.5 Q482 22 472 17 Q420 -9 340 -9 Q224 -9 162.5 42.5 Q101 94 96 230 L39 230 Q28 230 24 234 Q20 238 20 249 L20 253 Q20 264 24 268 Q28 272 39 272 L95 272 L95 378 L39 378 Q28 378 24 382 Q20 386 20 397 Z " />
<glyph glyph-name="trademark" unicode="&#x2122;" horiz-adv-x="819" d="M768 593 L768 263 Q768 251 764 247 Q760 243 748 243 L744 243 Q732 243 728 247 Q724 251 724 263 L724 577 L622 287 Q617 271 609.5 265.5 Q602 260 587 260 Q572 260 564.5 265.5 Q557 271 552 287 L450 577 L450 263 Q450 251 446 247 Q442 243 430 243 L426 243 Q414 243 410 247 Q406 251 406 263 L406 593 Q406 626 434 626 L442 626 Q460 626 469 619 Q478 612 484 595 L587 305 L690 595 Q696 612 705 619 Q714 626 732 626 L739 626 Q768 626 768 593 Z M327 608 L327 604 Q327 594 323.5 590 Q320 586 309 586 L197 586 L197 263 Q197 251 193 247 Q189 243 177 243 L173 243 Q161 243 157 247 Q153 251 153 263 L153 586 L41 586 Q30 586 26.5 590 Q23 594 23 604 L23 608 Q23 618 26.5 622 Q30 626 41 626 L309 626 Q320 626 323.5 622 Q327 618 327 608 Z " />
<glyph glyph-name="minus" unicode="&#x2212;" horiz-adv-x="553" d="M494 315 L494 310 Q494 298 490 294 Q486 290 474 290 L78 290 Q66 290 62 294 Q58 298 58 310 L58 315 Q58 327 62 331 Q66 335 78 335 L474 335 Q486 335 490 331 Q494 327 494 315 Z " />
<glyph glyph-name="fi" unicode="&#xfb01;" horiz-adv-x="571" d="M14 458 L14 463 Q14 473 17.5 477 Q21 481 32 483 L96 490 L96 577 Q96 717 253 717 Q294 717 329 707 Q342 704 345.5 699.5 Q349 695 349 681 L349 675 Q349 662 344 658 Q339 654 327 657 Q290 667 254 667 Q149 667 149 580 L149 490 L325 490 Q339 490 344 485.5 Q349 481 349 467 L349 463 Q349 449 344 444.5 Q339 440 325 440 L149 440 L149 24 Q149 10 144 5 Q139 0 125 0 L120 0 Q106 0 101 5 Q96 10 96 24 L96 440 L32 440 Q22 440 18 444 Q14 448 14 458 Z M441 24 L441 466 Q441 480 446 485 Q451 490 465 490 L470 490 Q484 490 489 485 Q494 480 494 466 L494 24 Q494 10 489 5 Q484 0 470 0 L465 0 Q451 0 446 5 Q441 10 441 24 Z M430 646 Q430 662 441 672.5 Q452 683 468 683 Q484 683 494 672.5 Q504 662 504 646 Q504 631 493.5 620 Q483 609 468 609 Q452 609 441 620 Q430 631 430 646 Z " />
<glyph glyph-name="fl" unicode="&#xfb02;" horiz-adv-x="586" d="M14 458 L14 463 Q14 473 17.5 477 Q21 481 32 483 L96 490 L96 577 Q96 717 253 717 Q294 717 329 707 Q342 704 345.5 699.5 Q349 695 349 681 L349 675 Q349 662 344 658 Q339 654 327 657 Q290 667 254 667 Q149 667 149 580 L149 490 L325 490 Q339 490 344 485.5 Q349 481 349 467 L349 463 Q349 449 344 444.5 Q339 440 325 440 L149 440 L149 24 Q149 10 144 5 Q139 0 125 0 L120 0 Q106 0 101 5 Q96 10 96 24 L96 440 L32 440 Q22 440 18 444 Q14 448 14 458 Z M431 119 L431 676 Q431 690 436 695 Q441 700 455 700 L460 700 Q474 700 479 695 Q484 690 484 676 L484 125 Q484 46 538 46 L550 46 Q564 46 568.5 42.5 Q573 39 573 26 L573 22 Q573 9 568.5 4 Q564 -1 550 -3 Q544 -4 534 -4 Q488 -4 459.5 25 Q431 54 431 119 Z " />
</font>
</svg>
