<?xml version="1.0" encoding="UTF-8"?>
<svg xmlns="http://www.w3.org/2000/svg" xmlns:xlink="http://www.w3.org/1999/xlink" version="1.2" >
<font id="AmpleSoft-Bold">
<font-face  font-family="AmpleSoft" units-per-em="1000" ascent="750" descent="-250" font-style="normal" font-weight="700" font-stretch="normal" cap-height="650" x-height="500" underline-position="-75" underline-thickness="50" />
<missing-glyph  horiz-adv-x="224" d="" />
<glyph glyph-name="space" unicode="&#x20;" horiz-adv-x="224" d="" />
<glyph glyph-name="exclam" unicode="&#x21;" horiz-adv-x="294" d="M143 650 L153 650 Q188 650 199.5 638 Q211 626 211 592 L211 444 Q211 320 195 240 Q191 220 182.5 212.5 Q174 205 153 205 L143 205 Q122 205 114 212 Q106 219 101 240 Q85 320 85 444 L85 592 Q85 626 96.5 638 Q108 650 143 650 Z M92 11 Q69 34 69 66 Q69 98 92 121 Q115 144 147 144 Q179 144 202 121 Q225 98 225 66 Q225 34 202 11 Q179 -12 147 -12 Q115 -12 92 11 Z " />
<glyph glyph-name="quotedbl" unicode="&#x22;" horiz-adv-x="354" d="M207 562 L207 675 Q207 704 216.5 713.5 Q226 723 255 723 L269 723 Q298 723 307.5 713.5 Q317 704 317 675 L317 562 Q317 534 307.5 524 Q298 514 269 514 L255 514 Q226 514 216.5 524 Q207 534 207 562 Z M37 562 L37 675 Q37 704 46.5 713.5 Q56 723 85 723 L99 723 Q128 723 137.5 713.5 Q147 704 147 675 L147 562 Q147 534 137.5 524 Q128 514 99 514 L85 514 Q56 514 46.5 524 Q37 534 37 562 Z " />
<glyph glyph-name="numbersign" unicode="&#x23;" horiz-adv-x="695" d="M338 47 L362 143 L240 143 L216 47 Q209 19 197.5 9.5 Q186 0 157 0 L146 0 Q117 0 109.5 9.5 Q102 19 109 47 L133 143 L88 143 Q63 143 55 151 Q47 159 47 184 L47 196 Q47 221 55 229 Q63 237 88 237 L157 237 L201 413 L132 413 Q107 413 99 421 Q91 429 91 454 L91 466 Q91 491 99 499 Q107 507 132 507 L224 507 L248 603 Q255 631 267 640.5 Q279 650 308 650 L319 650 Q348 650 355 640.5 Q362 631 355 603 L331 507 L453 507 L477 603 Q484 631 496 640.5 Q508 650 537 650 L548 650 Q577 650 584 640.5 Q591 631 584 603 L560 507 L607 507 Q632 507 640 499 Q648 491 648 466 L648 454 Q648 429 640 421 Q632 413 607 413 L537 413 L493 237 L563 237 Q588 237 596 229 Q604 221 604 196 L604 184 Q604 159 596 151 Q588 143 563 143 L469 143 L445 47 Q438 19 426.5 9.5 Q415 0 386 0 L375 0 Q346 0 338.5 9.5 Q331 19 338 47 Z M308 413 L264 237 L386 237 L430 413 L308 413 Z " />
<glyph glyph-name="dollar" unicode="&#x24;" horiz-adv-x="511" d="M199 -34 L199 1 Q143 4 92 19 Q59 29 48 42.5 Q37 56 37 89 L37 99 Q37 134 48.5 144.5 Q60 155 94 145 Q162 126 233 126 Q289 126 312.5 136 Q336 146 336 172 Q336 191 321 205.5 Q306 220 261 249 L143 324 Q47 384 47 488 Q47 621 199 642 L199 684 Q199 716 209.5 726 Q220 736 251 736 L257 736 Q288 736 298.5 726 Q309 716 309 684 L309 646 Q354 643 387 632 Q420 621 432 607 Q444 593 444 559 L444 549 Q444 515 432 505.5 Q420 496 387 506 Q341 522 270 522 Q224 522 204.5 513.5 Q185 505 185 483 Q185 467 195.5 455.5 Q206 444 235 426 L358 348 Q418 310 446 271.5 Q474 233 474 171 Q474 28 309 6 L309 -34 Q309 -66 298.5 -76 Q288 -86 257 -86 L251 -86 Q220 -86 209.5 -76 Q199 -66 199 -34 Z " />
<glyph glyph-name="percent" unicode="&#x25;" horiz-adv-x="879" d="M600 650 L619 650 Q654 650 660 640 Q666 630 650 599 L365 51 Q349 20 332 10 Q315 0 280 0 L262 0 Q227 0 221 10 Q215 20 231 51 L515 599 Q531 630 548 640 Q565 650 600 650 Z M203 662 Q369 662 369 493 Q369 324 203 324 Q37 324 37 493 Q37 662 203 662 Z M247 439.5 Q259 455 259 493 Q259 531 247 546.5 Q235 562 203 562 Q171 562 159 546.5 Q147 531 147 493 Q147 455 159 439.5 Q171 424 203 424 Q235 424 247 439.5 Z M676 326 Q842 326 842 157 Q842 -12 676 -12 Q510 -12 510 157 Q510 326 676 326 Z M720 103.5 Q732 119 732 157 Q732 195 720 210.5 Q708 226 676 226 Q644 226 632 210.5 Q620 195 620 157 Q620 119 632 103.5 Q644 88 676 88 Q708 88 720 103.5 Z " />
<glyph glyph-name="ampersand" unicode="&#x26;" horiz-adv-x="635" d="M560 276 L529 276 L529 187 Q529 82 463.5 35 Q398 -12 292 -12 Q47 -12 47 186 Q47 245 68.5 279.5 Q90 314 135 334 Q95 357 78 387 Q61 417 61 467 Q61 660 291 660 Q310 660 320 659 Q355 655 366.5 642 Q378 629 378 595 L378 585 Q378 550 368 540 Q358 530 324 534 Q310 536 287 536 Q235 536 214 519 Q193 502 193 458 Q193 419 212.5 401.5 Q232 384 285 384 L394 384 L394 416 Q394 450 406 462 Q418 474 452 474 L471 474 Q506 474 517.5 462 Q529 450 529 416 L529 384 L560 384 Q594 384 606 372 Q618 360 618 326 L618 334 Q618 300 606 288 Q594 276 560 276 Z M206.5 256.5 Q182 237 182 193 Q182 149 206.5 130.5 Q231 112 286 112 Q340 112 367 129 Q394 146 394 192 L394 276 L289 276 Q231 276 206.5 256.5 Z " />
<glyph glyph-name="quotesingle" unicode="&#x27;" horiz-adv-x="184" d="M37 562 L37 675 Q37 704 46.5 713.5 Q56 723 85 723 L99 723 Q128 723 137.5 713.5 Q147 704 147 675 L147 562 Q147 534 137.5 524 Q128 514 99 514 L85 514 Q56 514 46.5 524 Q37 534 37 562 Z " />
<glyph glyph-name="parenleft" unicode="&#x28;" horiz-adv-x="386" d="M47 250 Q47 534 219 717 Q239 738 253 737 Q267 736 291 715 L300 707 Q323 686 323.5 673 Q324 660 305 638 Q169 488 169 250 Q169 10 307 -138 Q327 -161 325.5 -172.5 Q324 -184 301 -206 L291 -215 Q267 -237 255 -238 Q243 -239 220 -218 Q47 -39 47 250 Z " />
<glyph glyph-name="parenright" unicode="&#x29;" horiz-adv-x="386" d="M339 250 Q339 -39 166 -218 Q143 -239 131 -238 Q119 -237 95 -215 L85 -206 Q62 -184 60.5 -172.5 Q59 -161 79 -138 Q217 10 217 250 Q217 488 81 638 Q62 660 62.5 673 Q63 686 86 707 L95 715 Q119 736 133 737 Q147 738 167 717 Q339 534 339 250 Z " />
<glyph glyph-name="asterisk" unicode="&#x2a;" horiz-adv-x="475" d="M287 706 L282 611 L368 646 Q393 657 404 651.5 Q415 646 422 621 L427 607 Q435 582 429 571 Q423 560 398 553 L309 528 L366 459 Q383 439 381.5 427 Q380 415 358 399 L346 390 Q325 374 313 376.5 Q301 379 287 401 L237 478 L188 402 Q174 380 162 377.5 Q150 375 128 391 L116 400 Q94 416 92.5 428 Q91 440 108 460 L167 530 L77 554 Q52 561 46 572 Q40 583 48 608 L53 622 Q61 647 72 652.5 Q83 658 108 648 L194 613 L189 706 Q187 732 195.5 741 Q204 750 230 750 L246 750 Q272 750 280.5 741 Q289 732 287 706 Z " />
<glyph glyph-name="plus" unicode="&#x2b;" horiz-adv-x="564" d="M517 332 L517 318 Q517 290 507.5 280 Q498 270 469 270 L342 270 L342 147 Q342 116 332 105.5 Q322 95 290 95 L274 95 Q242 95 232 105.5 Q222 116 222 147 L222 270 L95 270 Q66 270 56.5 280 Q47 290 47 318 L47 332 Q47 360 56.5 370 Q66 380 95 380 L222 380 L222 503 Q222 534 232 544.5 Q242 555 274 555 L290 555 Q322 555 332 544.5 Q342 534 342 503 L342 380 L469 380 Q498 380 507.5 370 Q517 360 517 332 Z " />
<glyph glyph-name="comma" unicode="&#x2c;" horiz-adv-x="233" d="M66 -143 L62 -142 Q52 -140 49 -136 Q46 -132 44 -122 Q42 -110 42 -69 Q42 136 121 136 Q146 136 160.5 118.5 Q175 101 175 71 Q175 35 146.5 -27 Q118 -89 91 -132 Q82 -147 66 -143 Z " />
<glyph glyph-name="hyphen" unicode="&#x2d;" horiz-adv-x="424" d="M397 332 L397 318 Q397 290 387.5 280 Q378 270 349 270 L75 270 Q46 270 36.5 280 Q27 290 27 318 L27 332 Q27 360 36.5 370 Q46 380 75 380 L349 380 Q378 380 387.5 370 Q397 360 397 332 Z " />
<glyph glyph-name="period" unicode="&#x2e;" horiz-adv-x="240" d="M65 10 Q42 33 42 65 Q42 97 65 120 Q88 143 120 143 Q152 143 175 120 Q198 97 198 65 Q198 33 175 10 Q152 -13 120 -13 Q88 -13 65 10 Z " />
<glyph glyph-name="slash" unicode="&#x2f;" horiz-adv-x="365" d="M299 750 L316 750 Q347 750 354.5 740 Q362 730 352 701 L131 19 Q121 -10 107.5 -20 Q94 -30 63 -30 L49 -30 Q18 -30 10.5 -20 Q3 -10 13 20 L231 700 Q241 730 254.5 740 Q268 750 299 750 Z " />
<glyph glyph-name="zero" unicode="0" horiz-adv-x="604" d="M420 253 L420 393 Q420 468 396.5 501 Q373 534 302 534 Q232 534 208 500.5 Q184 467 184 393 L184 253 Q184 179 208 145.5 Q232 112 302 112 Q373 112 396.5 145 Q420 178 420 253 Z M302 -13 Q162 -13 105.5 56.5 Q49 126 49 253 L49 393 Q49 520 105.5 589.5 Q162 659 302 659 Q443 659 499 589.5 Q555 520 555 393 L555 253 Q555 126 499 56.5 Q443 -13 302 -13 Z " />
<glyph glyph-name="one" unicode="1" horiz-adv-x="400" d="M43 463 L39 466 Q14 491 13.5 508 Q13 525 36 551 L71 591 Q130 659 204 659 Q267 659 299 624 Q331 589 331 511 L331 58 Q331 24 319.5 12 Q308 0 273 0 L255 0 Q220 0 208.5 12 Q197 24 197 58 L197 469 Q197 515 195 525 Q193 535 183 535 Q174 535 148 503 L121 469 Q99 441 83.5 440 Q68 439 43 463 Z " />
<glyph glyph-name="two" unicode="2" horiz-adv-x="537" d="M488 482 Q488 423 462 384 Q436 345 365 291 L209 172 Q205 169 200 165 Q195 161 192.5 159 Q190 157 186.5 154.5 Q183 152 182 150.5 Q181 149 179.5 147 Q178 145 177.5 143 Q177 141 177 139 Q177 131 184.5 128 Q192 125 216 125 L430 125 Q464 125 476 113.5 Q488 102 488 67 L488 58 Q488 24 476 12 Q464 0 430 0 L206 0 Q120 0 84 26 Q48 52 48 115 Q48 163 66.5 198 Q85 233 133 270 L261 367 Q320 411 337 430.5 Q354 450 354 477 Q354 509 329 522 Q304 535 248 535 Q188 535 133 522 Q100 514 88.5 524.5 Q77 535 77 570 L77 586 Q77 620 88 632.5 Q99 645 134 651 Q202 660 242 660 Q362 660 425 620 Q488 580 488 482 Z " />
<glyph glyph-name="three" unicode="3" horiz-adv-x="527" d="M181 330 L181 334 Q181 366 191.5 376.5 Q202 387 234 387 L238 387 Q294 387 313.5 403.5 Q333 420 333 460 Q333 504 311.5 519.5 Q290 535 233 535 Q190 535 121 522 Q87 516 75.5 525.5 Q64 535 64 570 L64 585 Q64 619 74.5 631 Q85 643 119 651 Q160 660 233 660 Q468 660 468 468 Q468 418 448.5 387 Q429 356 390 334 Q478 296 478 194 Q478 -12 233 -12 Q164 -12 109 1 Q74 9 63 21.5 Q52 34 52 68 L52 83 Q52 118 63.5 127.5 Q75 137 109 130 Q188 113 233 113 Q298 113 320.5 132 Q343 151 343 194 Q343 237 321.5 257 Q300 277 238 277 L234 277 Q202 277 191.5 287.5 Q181 298 181 330 Z " />
<glyph glyph-name="four" unicode="4" horiz-adv-x="547" d="M51 324 L142 595 Q152 628 167.5 639 Q183 650 218 650 L243 650 Q278 650 285.5 639 Q293 628 282 595 L179 288 Q166 250 206 250 L350 250 L350 432 Q350 466 362 478 Q374 490 408 490 L426 490 Q460 490 472 478 Q484 466 484 432 L484 58 Q484 24 472 12 Q460 0 426 0 L408 0 Q374 0 362 12 Q350 24 350 58 L350 125 L194 125 Q84 125 50 172.5 Q16 220 51 324 Z " />
<glyph glyph-name="five" unicode="5" horiz-adv-x="579" d="M88 403 L88 530 Q88 593 116.5 621.5 Q145 650 208 650 L426 650 Q460 650 472 638 Q484 626 484 592 L484 583 Q484 548 472 536.5 Q460 525 426 525 L252 525 Q222 525 222 495 L222 438 Q222 408 252 408 L278 408 Q407 408 465.5 355 Q524 302 524 193 Q524 85 459 36.5 Q394 -12 271 -12 Q188 -12 142 0 Q106 9 95 21.5 Q84 34 84 67 L84 81 Q84 116 96 126 Q108 136 141 128 Q201 113 267 113 Q333 113 361.5 132 Q390 151 390 193 Q390 247 359.5 265 Q329 283 247 283 L208 283 Q145 283 116.5 311.5 Q88 340 88 403 Z " />
<glyph glyph-name="six" unicode="6" horiz-adv-x="570" d="M305 408 Q417 408 472 365 Q527 322 527 212 Q527 93 467.5 40.5 Q408 -12 289 -12 Q165 -12 107 53 Q49 118 49 248 L49 393 Q49 535 113 597.5 Q177 660 324 660 Q376 660 433 647 Q468 639 479 625.5 Q490 612 490 578 L490 566 Q490 531 478 521.5 Q466 512 432 520 Q370 535 322 535 Q240 535 212 510 Q184 485 184 399 L184 389 Q233 408 305 408 Z M290 293 Q230 293 184 270 L184 260 Q184 180 204.5 146 Q225 112 298 112 Q354 112 373.5 132 Q393 152 393 204 Q393 258 370.5 275.5 Q348 293 290 293 Z " />
<glyph glyph-name="seven" unicode="7" horiz-adv-x="509" d="M177 0 L139 0 Q104 0 98 10 Q92 20 108 51 L333 475 Q347 500 341 512.5 Q335 525 306 525 L95 525 Q60 525 48.5 536.5 Q37 548 37 583 L37 592 Q37 626 48.5 638 Q60 650 95 650 L319 650 Q398 650 435.5 621 Q473 592 473 526 Q473 462 431 379 L262 52 Q246 21 229 10.5 Q212 0 177 0 Z " />
<glyph glyph-name="eight" unicode="8" horiz-adv-x="580" d="M290 660 Q405 660 461 613.5 Q517 567 517 470 Q517 418 501 388 Q485 358 443 334 Q490 311 510.5 277 Q531 243 531 184 Q531 93 472.5 40.5 Q414 -12 290 -12 Q166 -12 107.5 40.5 Q49 93 49 184 Q49 243 69.5 277 Q90 311 137 334 Q95 358 79 388 Q63 418 63 470 Q63 560 120.5 610 Q178 660 290 660 Z M184 194 Q184 150 208 131 Q232 112 290 112 Q348 112 372 131 Q396 150 396 194 Q396 237 371.5 256.5 Q347 276 290 276 Q233 276 208.5 256.5 Q184 237 184 194 Z M195 460 Q195 416 215.5 400 Q236 384 290 384 Q344 384 364.5 400 Q385 416 385 460 Q385 500 364.5 518 Q344 536 290 536 Q236 536 215.5 518 Q195 500 195 460 Z " />
<glyph glyph-name="nine" unicode="9" horiz-adv-x="570" d="M265 240 Q153 240 98 283 Q43 326 43 436 Q43 555 102.5 607.5 Q162 660 281 660 Q405 660 463 595 Q521 530 521 400 L521 255 Q521 113 457 50.5 Q393 -12 246 -12 Q194 -12 127 2 Q92 10 81 23.5 Q70 37 70 71 L70 83 Q70 118 81 128.5 Q92 139 126 130 Q190 113 248 113 Q330 113 358 138 Q386 163 386 249 L386 259 Q337 240 265 240 Z M280 355 Q340 355 386 378 L386 388 Q386 468 365.5 502 Q345 536 272 536 Q216 536 196.5 516 Q177 496 177 444 Q177 390 199.5 372.5 Q222 355 280 355 Z " />
<glyph glyph-name="colon" unicode="&#x3a;" horiz-adv-x="240" d="M65 10 Q42 33 42 65 Q42 97 65 120 Q88 143 120 143 Q152 143 175 120 Q198 97 198 65 Q198 33 175 10 Q152 -13 120 -13 Q88 -13 65 10 Z M65 380 Q42 403 42 435 Q42 467 65 490 Q88 513 120 513 Q152 513 175 490 Q198 467 198 435 Q198 403 175 380 Q152 357 120 357 Q88 357 65 380 Z " />
<glyph glyph-name="semicolon" unicode="&#x3b;" horiz-adv-x="240" d="M65 380 Q42 403 42 435 Q42 467 65 490 Q88 513 120 513 Q152 513 175 490 Q198 467 198 435 Q198 403 175 380 Q152 357 120 357 Q88 357 65 380 Z M81 -143 L77 -142 Q67 -140 64 -136 Q61 -132 59 -122 Q57 -110 57 -69 Q57 136 136 136 Q161 136 175.5 118.5 Q190 101 190 71 Q190 35 161.5 -27 Q133 -89 106 -132 Q97 -147 81 -143 Z " />
<glyph glyph-name="less" unicode="&#x3c;" horiz-adv-x="475" d="M430 121 L430 103 Q430 71 420 65 Q410 59 382 73 L103 213 Q64 233 48.5 259 Q33 285 33 323 Q33 361 48.5 387 Q64 413 103 433 L382 573 Q410 587 420 581 Q430 575 430 543 L430 525 Q430 493 420 477 Q410 461 381 447 L159 339 Q144 332 144 323 Q144 314 159 307 L381 199 Q410 185 420 169 Q430 153 430 121 Z " />
<glyph glyph-name="equal" unicode="&#x3d;" horiz-adv-x="544" d="M497 223 L497 209 Q497 180 487.5 170.5 Q478 161 449 161 L95 161 Q66 161 56.5 170.5 Q47 180 47 209 L47 223 Q47 252 56.5 261.5 Q66 271 95 271 L449 271 Q478 271 487.5 261.5 Q497 252 497 223 Z M497 443 L497 429 Q497 400 487.5 390.5 Q478 381 449 381 L95 381 Q66 381 56.5 390.5 Q47 400 47 429 L47 443 Q47 472 56.5 481.5 Q66 491 95 491 L449 491 Q478 491 487.5 481.5 Q497 472 497 443 Z " />
<glyph glyph-name="greater" unicode="&#x3e;" horiz-adv-x="475" d="M45 103 L45 121 Q45 153 55 169 Q65 185 94 199 L316 307 Q331 314 331 323 Q331 332 316 339 L94 447 Q65 461 55 477 Q45 493 45 525 L45 543 Q45 575 54.5 581 Q64 587 93 573 L372 433 Q411 413 426.5 387 Q442 361 442 323 Q442 285 426.5 259 Q411 233 372 213 L93 73 Q64 59 54.5 65 Q45 71 45 103 Z " />
<glyph glyph-name="question" unicode="&#x3f;" horiz-adv-x="444" d="M82 11 Q59 34 59 66 Q59 98 82 121 Q105 144 137 144 Q169 144 192 121 Q215 98 215 66 Q215 34 192 11 Q169 -12 137 -12 Q105 -12 82 11 Z M396 464 Q396 390 363 349.5 Q330 309 267 274 Q228 255 213 235 Q196 212 185 206 Q174 200 142 200 L132 200 Q92 200 82.5 207.5 Q73 215 78 243 Q87 304 187 369 Q229 396 245.5 414.5 Q262 433 262 464 Q262 506 242.5 521 Q223 536 169 536 Q144 536 106 530 Q71 525 59.5 534 Q48 543 48 577 L48 590 Q48 623 59.5 636.5 Q71 650 107 655 Q147 660 169 660 Q285 660 340.5 615 Q396 570 396 464 Z " />
<glyph glyph-name="at" unicode="&#x40;" horiz-adv-x="990" d="M704 289 L704 216 Q704 129 755 129 Q814 129 814 216 L814 290 Q814 429 722.5 504.5 Q631 580 494 580 Q337 580 256.5 503 Q176 426 176 288 L176 217 Q176 70 260.5 -5.5 Q345 -81 473 -81 Q564 -81 621 -45 Q644 -29 656 -31 Q668 -33 687 -56 L695 -67 Q714 -90 712 -103 Q710 -116 687 -130 Q587 -191 459 -191 Q348 -191 257 -142 Q166 -93 111 1 Q56 95 56 217 L56 288 Q56 475 173 582.5 Q290 690 494 690 Q583 690 661 665 Q739 640 800.5 591.5 Q862 543 898 465 Q934 387 934 289 L934 218 Q934 181 926 148.5 Q918 116 899.5 85.5 Q881 55 844 37 Q807 19 755 19 Q710 19 672.5 41.5 Q635 64 619 110 Q602 64 567 41.5 Q532 19 467 19 Q376 19 329 70.5 Q282 122 282 217 L282 289 Q282 482 494 482 Q588 482 646 435 Q704 388 704 289 Z M406 286 L406 215 Q406 171 424 150 Q442 129 492 129 Q543 129 561.5 150 Q580 171 580 215 L580 286 Q580 330 561.5 350 Q543 370 492 370 Q441 370 423.5 350 Q406 330 406 286 Z " />
<glyph glyph-name="A" unicode="A" horiz-adv-x="658" d="M510 470 L622 56 Q631 22 622.5 11 Q614 0 579 0 L560 0 Q525 0 510.5 11 Q496 22 487 56 L461 158 L197 158 L171 56 Q162 22 147.5 11 Q133 0 98 0 L79 0 Q44 0 35.5 11 Q27 22 36 56 L148 470 Q163 526 174.5 555.5 Q186 585 206 612 Q226 639 255 649.5 Q284 660 329 660 Q374 660 403 649.5 Q432 639 452 612 Q472 585 483.5 555.5 Q495 526 510 470 Z M277 464 L228 278 L429 278 L381 464 Q368 513 360 526.5 Q352 540 329 540 Q306 540 298 526.5 Q290 513 277 464 Z " />
<glyph glyph-name="B" unicode="B" horiz-adv-x="613" d="M189 650 L333 650 Q444 650 495 603 Q546 556 546 475 Q546 382 468 337 Q523 310 544.5 274.5 Q566 239 566 187 Q566 0 343 0 L189 0 Q126 0 97.5 28.5 Q69 57 69 120 L69 530 Q69 593 97.5 621.5 Q126 650 189 650 Z M343 275 L203 275 L203 155 Q203 125 233 125 L343 125 Q430 125 430 198 Q430 275 343 275 Z M333 525 L233 525 Q203 525 203 495 L203 390 L333 390 Q410 390 410 459 Q410 525 333 525 Z " />
<glyph glyph-name="C" unicode="C" horiz-adv-x="535" d="M187 399 L187 239 Q187 180 219.5 146.5 Q252 113 338 113 Q392 113 446 128 Q479 137 490.5 127.5 Q502 118 502 83 L502 75 Q502 41 491 28 Q480 15 447 3 Q404 -12 332 -12 Q191 -12 120 47.5 Q49 107 49 239 L49 399 Q49 522 120 591 Q191 660 333 660 Q403 660 446 643 Q480 630 491 617 Q502 604 502 571 L502 563 Q502 528 489.5 518 Q477 508 444 518 Q388 535 333 535 Q256 535 221.5 502 Q187 469 187 399 Z " />
<glyph glyph-name="D" unicode="D" horiz-adv-x="627" d="M69 120 L69 530 Q69 593 97.5 621.5 Q126 650 189 650 L272 650 Q434 650 506 595 Q578 540 578 395 L578 255 Q578 121 503.5 60.5 Q429 0 272 0 L189 0 Q126 0 97.5 28.5 Q69 57 69 120 Z M272 125 Q369 125 404.5 153.5 Q440 182 440 255 L440 395 Q440 468 404.5 496.5 Q369 525 272 525 L233 525 Q203 525 203 495 L203 155 Q203 125 233 125 L272 125 Z " />
<glyph glyph-name="E" unicode="E" horiz-adv-x="583" d="M203 270 L203 155 Q203 125 233 125 L476 125 Q510 125 522 113.5 Q534 102 534 67 L534 58 Q534 24 522 12 Q510 0 476 0 L189 0 Q126 0 97.5 28.5 Q69 57 69 120 L69 530 Q69 593 97.5 621.5 Q126 650 189 650 L476 650 Q510 650 522 638 Q534 626 534 592 L534 583 Q534 548 522 536.5 Q510 525 476 525 L233 525 Q203 525 203 495 L203 395 L436 395 Q470 395 482 383.5 Q494 372 494 337 L494 328 Q494 294 482 282 Q470 270 436 270 L203 270 Z " />
<glyph glyph-name="F" unicode="F" horiz-adv-x="553" d="M203 260 L203 58 Q203 24 191.5 12 Q180 0 145 0 L127 0 Q92 0 80.5 12 Q69 24 69 58 L69 530 Q69 593 97.5 621.5 Q126 650 189 650 L456 650 Q490 650 502 638 Q514 626 514 592 L514 583 Q514 548 502 536.5 Q490 525 456 525 L233 525 Q203 525 203 495 L203 385 L416 385 Q450 385 462 373.5 Q474 362 474 327 L474 318 Q474 284 462 272 Q450 260 416 260 L203 260 Z " />
<glyph glyph-name="G" unicode="G" horiz-adv-x="601" d="M428 148 L428 312 Q428 346 440 358 Q452 370 486 370 L494 370 Q528 370 540 358 Q552 346 552 312 L552 139 Q552 71 530 38 Q508 5 447 -5 Q407 -12 363 -12 Q197 -12 123 46.5 Q49 105 49 245 L49 405 Q49 520 125 590 Q201 660 358 660 Q428 660 488 640 Q520 629 531 615 Q542 601 542 568 L542 560 Q542 525 530.5 515 Q519 505 487 515 Q425 535 362 535 Q265 535 226 503.5 Q187 472 187 395 L187 235 Q187 177 224.5 145 Q262 113 364 113 Q386 113 402 115 Q428 117 428 148 Z " />
<glyph glyph-name="H" unicode="H" horiz-adv-x="643" d="M203 280 L203 58 Q203 24 191.5 12 Q180 0 145 0 L127 0 Q92 0 80.5 12 Q69 24 69 58 L69 592 Q69 626 80.5 638 Q92 650 127 650 L145 650 Q180 650 191.5 638 Q203 626 203 592 L203 405 L440 405 L440 592 Q440 626 452 638 Q464 650 498 650 L516 650 Q550 650 562 638 Q574 626 574 592 L574 58 Q574 24 562 12 Q550 0 516 0 L498 0 Q464 0 452 12 Q440 24 440 58 L440 280 L203 280 Z " />
<glyph glyph-name="I" unicode="I" horiz-adv-x="288" d="M77 58 L77 592 Q77 626 88.5 638 Q100 650 135 650 L153 650 Q188 650 199.5 638 Q211 626 211 592 L211 58 Q211 24 199.5 12 Q188 0 153 0 L135 0 Q100 0 88.5 12 Q77 24 77 58 Z " />
<glyph glyph-name="J" unicode="J" horiz-adv-x="288" d="M211 592 L211 178 Q211 49 176 -30 Q141 -109 82 -164 Q59 -186 40.5 -184 Q22 -182 3 -154 L-3 -145 Q-21 -115 -18.5 -100.5 Q-16 -86 8 -58 Q77 23 77 168 L77 592 Q77 626 88.5 638 Q100 650 135 650 L153 650 Q188 650 199.5 638 Q211 626 211 592 Z " />
<glyph glyph-name="K" unicode="K" horiz-adv-x="619" d="M279 451 L404 605 Q426 632 444.5 641 Q463 650 498 650 L541 650 Q576 650 580.5 641 Q585 632 563 605 L408 411 Q367 360 364 350 Q362 344 362 338 Q362 328 368.5 319 Q375 310 408 268 L583 46 Q605 18 600.5 9 Q596 0 561 0 L518 0 Q483 0 464.5 9 Q446 18 424 46 L279 230 Q233 288 233 342 Q233 394 279 451 Z M69 58 L69 592 Q69 626 80.5 638 Q92 650 127 650 L145 650 Q180 650 191.5 638 Q203 626 203 592 L203 58 Q203 24 191.5 12 Q180 0 145 0 L127 0 Q92 0 80.5 12 Q69 24 69 58 Z " />
<glyph glyph-name="L" unicode="L" horiz-adv-x="518" d="M69 120 L69 592 Q69 626 80.5 638 Q92 650 127 650 L145 650 Q180 650 191.5 638 Q203 626 203 592 L203 155 Q203 125 233 125 L436 125 Q470 125 482 113.5 Q494 102 494 67 L494 58 Q494 24 482 12 Q470 0 436 0 L189 0 Q126 0 97.5 28.5 Q69 57 69 120 Z " />
<glyph glyph-name="M" unicode="M" horiz-adv-x="848" d="M779 496 L811 58 Q813 23 802 11.5 Q791 0 757 0 L737 0 Q702 0 689.5 12 Q677 24 675 58 L647 486 Q645 517 641 526.5 Q637 536 624 536 Q612 536 607 526.5 Q602 517 598 486 L552 119 Q544 51 517.5 25.5 Q491 0 424 0 Q366 0 335.5 25 Q305 50 296 119 L249 486 Q245 517 240 526.5 Q235 536 223 536 Q211 536 206.5 526.5 Q202 517 200 486 L173 58 Q171 24 158.5 12 Q146 0 111 0 L91 0 Q57 0 46 11.5 Q35 23 37 58 L69 496 Q75 578 110.5 617 Q146 656 221 656 Q291 656 326 618 Q361 580 370 496 L407 143 Q409 121 412 115.5 Q415 110 424 110 Q433 110 436 115.5 Q439 121 441 143 L478 496 Q486 579 521 617.5 Q556 656 626 656 Q703 656 738 617.5 Q773 579 779 496 Z " />
<glyph glyph-name="N" unicode="N" horiz-adv-x="684" d="M69 58 L69 508 Q69 594 101.5 628 Q134 662 208 662 Q270 662 300.5 636 Q331 610 348 540 L452 121 Q457 100 470 100 Q479 100 482 105.5 Q485 111 485 128 L485 592 Q485 626 496.5 638 Q508 650 543 650 L557 650 Q592 650 603.5 638 Q615 626 615 592 L615 142 Q615 56 583.5 22 Q552 -12 481 -12 Q416 -12 384.5 15.5 Q353 43 335 114 L233 522 Q229 539 225.5 544.5 Q222 550 213 550 Q204 550 201.5 544.5 Q199 539 199 520 L199 58 Q199 24 187.5 12 Q176 0 141 0 L127 0 Q92 0 80.5 12 Q69 24 69 58 Z " />
<glyph glyph-name="O" unicode="O" horiz-adv-x="650" d="M466 253 L466 393 Q466 468 438 501 Q410 534 325 534 Q240 534 212 501 Q184 468 184 393 L184 253 Q184 178 212 145 Q240 112 325 112 Q410 112 438 145 Q466 178 466 253 Z M540 56 Q479 -13 325 -13 Q171 -13 110 56 Q49 125 49 253 L49 393 Q49 521 110 590 Q171 659 325 659 Q479 659 540 590 Q601 521 601 393 L601 253 Q601 125 540 56 Z " />
<glyph glyph-name="P" unicode="P" horiz-adv-x="611" d="M189 650 L353 650 Q574 650 574 432 Q574 215 353 215 L203 215 L203 58 Q203 24 191.5 12 Q180 0 145 0 L127 0 Q92 0 80.5 12 Q69 24 69 58 L69 530 Q69 593 97.5 621.5 Q126 650 189 650 Z M353 525 L233 525 Q203 525 203 495 L203 340 L353 340 Q400 340 420 362.5 Q440 385 440 432 Q440 479 420 502 Q400 525 353 525 Z " />
<glyph glyph-name="Q" unicode="Q" horiz-adv-x="650" d="M601 253 Q601 154 565.5 90 Q530 26 442 1 L548 -99 Q573 -123 570 -131 Q567 -139 532 -139 L474 -139 Q440 -139 420 -130.5 Q400 -122 377 -96 L303 -12 Q161 -7 105 61.5 Q49 130 49 253 L49 393 Q49 521 110 590 Q171 659 325 659 Q479 659 540 590 Q601 521 601 393 L601 253 Z M466 253 L466 393 Q466 468 438 501 Q410 534 325 534 Q240 534 212 501 Q184 468 184 393 L184 253 Q184 178 212 145 Q240 112 325 112 Q410 112 438 145 Q466 178 466 253 Z " />
<glyph glyph-name="R" unicode="R" horiz-adv-x="633" d="M574 442 Q574 280 439 245 L570 48 Q589 20 584 10 Q579 0 544 0 L506 0 Q472 0 454 10 Q436 20 416 49 L294 235 L203 235 L203 58 Q203 24 191.5 12 Q180 0 145 0 L127 0 Q92 0 80.5 12 Q69 24 69 58 L69 530 Q69 593 97.5 621.5 Q126 650 189 650 L353 650 Q574 650 574 442 Z M353 525 L233 525 Q203 525 203 495 L203 360 L353 360 Q440 360 440 442 Q440 484 420 504.5 Q400 525 353 525 Z " />
<glyph glyph-name="S" unicode="S" horiz-adv-x="531" d="M37 76 L37 86 Q37 121 49 131.5 Q61 142 95 133 Q171 113 247 113 Q307 113 331.5 125 Q356 137 356 167 Q356 189 340 205 Q324 221 276 249 L148 324 Q47 383 47 492 Q47 576 102.5 618 Q158 660 280 660 Q348 660 405 644 Q441 634 452.5 621 Q464 608 464 574 L464 564 Q464 528 452 518.5 Q440 509 405 519 Q353 535 280 535 Q229 535 207 525 Q185 515 185 488 Q185 470 196.5 457.5 Q208 445 240 426 L373 348 Q436 311 465 271 Q494 231 494 167 Q494 79 435.5 33.5 Q377 -12 245 -12 Q162 -12 94 7 Q59 17 48 29.5 Q37 42 37 76 Z " />
<glyph glyph-name="T" unicode="T" horiz-adv-x="573" d="M27 583 L27 592 Q27 626 38.5 638 Q50 650 85 650 L488 650 Q522 650 534 638 Q546 626 546 592 L546 583 Q546 548 534 536.5 Q522 525 488 525 L354 525 L354 58 Q354 24 342 12 Q330 0 296 0 L277 0 Q242 0 230.5 12 Q219 24 219 58 L219 525 L85 525 Q50 525 38.5 536.5 Q27 548 27 583 Z " />
<glyph glyph-name="U" unicode="U" horiz-adv-x="643" d="M59 228 L59 592 Q59 626 70.5 638 Q82 650 117 650 L135 650 Q170 650 181.5 638 Q193 626 193 592 L193 228 Q193 113 322 113 Q450 113 450 228 L450 592 Q450 626 462 638 Q474 650 508 650 L526 650 Q560 650 572 638 Q584 626 584 592 L584 228 Q584 104 513.5 46 Q443 -12 322 -12 Q200 -12 129.5 46 Q59 104 59 228 Z " />
<glyph glyph-name="V" unicode="V" horiz-adv-x="642" d="M605 594 L506 180 Q481 73 445 31.5 Q409 -10 321 -10 Q233 -10 197 31.5 Q161 73 136 180 L37 594 Q29 628 38 639 Q47 650 82 650 L105 650 Q140 650 154.5 638.5 Q169 627 176 593 L269 186 Q280 138 289 124 Q298 110 321 110 Q344 110 353 124 Q362 138 373 186 L466 593 Q473 627 487.5 638.5 Q502 650 537 650 L560 650 Q595 650 603.5 639 Q612 628 605 594 Z " />
<glyph glyph-name="W" unicode="W" horiz-adv-x="950" d="M910 592 L856 170 Q843 72 808 31 Q773 -10 690 -10 Q608 -10 577 31 Q546 72 534 170 L494 499 Q491 522 488 528.5 Q485 535 475 535 Q465 535 462 528.5 Q459 522 456 499 L416 170 Q404 72 373 31 Q342 -10 260 -10 Q177 -10 142 31 Q107 72 94 170 L40 592 Q36 626 46 638 Q56 650 91 650 L111 650 Q145 650 158 638.5 Q171 627 176 592 L226 170 Q231 133 237.5 121.5 Q244 110 260 110 Q276 110 283.5 122 Q291 134 296 170 L342 511 Q353 591 380.5 620.5 Q408 650 475 650 Q542 650 569.5 620.5 Q597 591 608 511 L654 170 Q659 134 666.5 122 Q674 110 690 110 Q706 110 712.5 121.5 Q719 133 724 170 L774 592 Q779 627 792 638.5 Q805 650 839 650 L859 650 Q894 650 904 638 Q914 626 910 592 Z " />
<glyph glyph-name="X" unicode="X" horiz-adv-x="646" d="M510 650 L544 650 Q579 650 585.5 640 Q592 630 577 598 L485 406 Q460 354 434 342 Q463 328 487 280 L597 52 Q612 20 605.5 10 Q599 0 564 0 L530 0 Q495 0 478.5 11 Q462 22 449 53 L375 220 Q358 260 349 270.5 Q340 281 323 281 Q306 281 297 270.5 Q288 260 271 220 L197 53 Q184 22 167.5 11 Q151 0 116 0 L82 0 Q47 0 40.5 10 Q34 20 49 52 L159 280 Q183 328 211 342 Q186 354 161 406 L69 598 Q54 630 60.5 640 Q67 650 102 650 L136 650 Q170 650 186 639 Q202 628 216 596 L271 466 Q287 427 296.5 416 Q306 405 323 405 Q340 405 349.5 416 Q359 427 375 466 L430 596 Q444 628 460 639 Q476 650 510 650 Z " />
<glyph glyph-name="Y" unicode="Y" horiz-adv-x="658" d="M262 58 L262 252 Q234 265 219.5 279 Q205 293 181 338 L40 599 Q24 630 30 640 Q36 650 71 650 L105 650 Q140 650 156.5 639.5 Q173 629 189 598 L267 438 Q292 388 302 375 Q312 362 329 362 Q346 362 356.5 375 Q367 388 391 438 L469 598 Q485 629 501.5 639.5 Q518 650 553 650 L587 650 Q622 650 628 640 Q634 630 618 599 L477 338 Q453 293 439 279 Q425 265 397 252 L397 58 Q397 24 385.5 12 Q374 0 339 0 L320 0 Q286 0 274 12 Q262 24 262 58 Z " />
<glyph glyph-name="Z" unicode="Z" horiz-adv-x="565" d="M55 583 L55 592 Q55 626 66.5 638 Q78 650 113 650 L391 650 Q474 650 507.5 621 Q541 592 541 530 Q541 485 524.5 452.5 Q508 420 466 387 L176 165 Q153 148 153 137 Q153 125 183 125 L483 125 Q518 125 529.5 113.5 Q541 102 541 67 L541 58 Q541 24 529.5 12 Q518 0 483 0 L185 0 Q90 0 57 29 Q24 58 24 118 Q24 165 40.5 197 Q57 229 98 261 L392 487 Q411 502 411 512 Q411 525 382 525 L113 525 Q78 525 66.5 536.5 Q55 548 55 583 Z " />
<glyph glyph-name="bracketleft" unicode="&#x5b;" horiz-adv-x="362" d="M317 -190 L317 -204 Q317 -232 308 -241 Q299 -250 271 -250 L195 -250 Q132 -250 103.5 -221.5 Q75 -193 75 -130 L75 630 Q75 693 103.5 721.5 Q132 750 195 750 L271 750 Q299 750 308 741 Q317 732 317 704 L317 690 Q317 662 308 653 Q299 644 271 644 L225 644 Q195 644 195 614 L195 -114 Q195 -144 225 -144 L271 -144 Q299 -144 308 -153 Q317 -162 317 -190 Z " />
<glyph glyph-name="backslash" unicode="&#x5c;" horiz-adv-x="365" d="M49 750 L66 750 Q97 750 110.5 740 Q124 730 134 700 L352 20 Q362 -10 354.5 -20 Q347 -30 316 -30 L302 -30 Q271 -30 257.5 -20 Q244 -10 234 19 L13 701 Q3 730 10.5 740 Q18 750 49 750 Z " />
<glyph glyph-name="bracketright" unicode="&#x5d;" horiz-adv-x="362" d="M45 -204 L45 -190 Q45 -162 54 -153 Q63 -144 91 -144 L137 -144 Q167 -144 167 -114 L167 614 Q167 644 137 644 L91 644 Q63 644 54 653 Q45 662 45 690 L45 704 Q45 732 54 741 Q63 750 91 750 L167 750 Q230 750 258.5 721.5 Q287 693 287 630 L287 -130 Q287 -193 258.5 -221.5 Q230 -250 167 -250 L91 -250 Q63 -250 54 -241 Q45 -232 45 -204 Z " />
<glyph glyph-name="asciicircum" unicode="&#x5e;" horiz-adv-x="572" d="M381 635 L475 411 Q487 382 480.5 372.5 Q474 363 443 363 L429 363 Q398 363 384.5 373 Q371 383 360 412 L298 591 Q293 606 285 606 Q277 606 272 591 L210 412 Q199 383 185.5 373 Q172 363 141 363 L129 363 Q98 363 91.5 372.5 Q85 382 97 411 L190 635 Q208 677 229 693.5 Q250 710 285 710 Q320 710 341.5 693.5 Q363 677 381 635 Z " />
<glyph glyph-name="underscore" unicode="&#x5f;" horiz-adv-x="524" d="M527 -58 L527 -70 Q527 -96 518 -105 Q509 -114 483 -114 L41 -114 Q15 -114 6 -105 Q-3 -96 -3 -70 L-3 -58 Q-3 -32 6 -23 Q15 -14 41 -14 L483 -14 Q509 -14 518 -23 Q527 -32 527 -58 Z " />
<glyph glyph-name="grave" unicode="&#x60;" horiz-adv-x="308" d="M118 790 L87 838 Q68 866 73 876 Q78 886 113 886 L134 886 Q168 886 185 875.5 Q202 865 216 833 L233 794 Q245 768 239.5 759 Q234 750 205 750 L192 750 Q163 750 148.5 758 Q134 766 118 790 Z " />
<glyph glyph-name="a" unicode="a" horiz-adv-x="497" d="M458 340 L458 149 Q458 68 406 28 Q354 -12 241 -12 Q128 -12 76 27.5 Q24 67 24 146 Q24 302 227 302 L328 302 L328 340 Q328 376 302 388.5 Q276 401 224 401 Q182 401 137 395 Q104 390 92.5 399.5 Q81 409 81 442 L81 446 Q81 478 92 490 Q103 502 135 507 Q172 512 216 512 Q334 512 396 472.5 Q458 433 458 340 Z M328 156 L328 204 L225 204 Q154 204 154 149 Q154 126 167 114 Q180 102 196 99.5 Q212 97 239 97 Q267 97 283.5 100 Q300 103 314 116.5 Q328 130 328 156 Z " />
<glyph glyph-name="b" unicode="b" horiz-adv-x="565" d="M49 207 L49 644 Q49 678 60 689 Q71 700 105 700 L123 700 Q157 700 168 689 Q179 678 179 644 L179 455 Q221 512 316 512 Q419 512 472.5 453.5 Q526 395 526 287 L526 207 Q526 -12 287 -12 Q180 -12 114.5 41.5 Q49 95 49 207 Z M395 210 L395 290 Q395 342 373.5 365.5 Q352 389 288 389 Q224 389 201.5 365.5 Q179 342 179 290 L179 210 Q179 158 201.5 134.5 Q224 111 288 111 Q353 111 374 134 Q395 157 395 210 Z " />
<glyph glyph-name="c" unicode="c" horiz-adv-x="419" d="M39 202 L39 298 Q39 397 100.5 454.5 Q162 512 278 512 Q313 512 343 505 Q375 498 385.5 485 Q396 472 396 438 L396 427 Q396 393 385 384 Q374 375 343 382 Q315 389 280 389 Q220 389 195 369.5 Q170 350 170 296 L170 206 Q170 153 197.5 132 Q225 111 289 111 Q318 111 350 117 Q383 123 394 114 Q405 105 405 71 L405 61 Q405 27 394 14.5 Q383 2 350 -5 Q320 -12 283 -12 Q39 -12 39 202 Z " />
<glyph glyph-name="d" unicode="d" horiz-adv-x="565" d="M516 644 L516 207 Q516 95 450.5 41.5 Q385 -12 278 -12 Q39 -12 39 207 L39 287 Q39 395 92.5 453.5 Q146 512 249 512 Q344 512 386 455 L386 644 Q386 678 397 689 Q408 700 442 700 L460 700 Q494 700 505 689 Q516 678 516 644 Z M170 290 L170 210 Q170 157 191 134 Q212 111 277 111 Q341 111 363.5 134.5 Q386 158 386 210 L386 290 Q386 342 363.5 365.5 Q341 389 277 389 Q213 389 191.5 365.5 Q170 342 170 290 Z " />
<glyph glyph-name="e" unicode="e" horiz-adv-x="530" d="M491 296 Q491 275 489 257 Q485 223 472 212.5 Q459 202 424 202 L170 202 L170 187 Q170 148 201 129.5 Q232 111 301 111 Q356 111 422 125 Q454 132 464.5 122 Q475 112 475 77 L475 66 Q475 33 465 21 Q455 9 422 1 Q373 -12 300 -12 Q166 -12 102.5 40 Q39 92 39 207 L39 287 Q39 512 272 512 Q491 512 491 296 Z M170 323 L170 308 L367 308 L367 323 Q367 399 268 399 Q170 399 170 323 Z " />
<glyph glyph-name="f" unicode="f" horiz-adv-x="408" d="M14 427 L14 431 Q14 460 24 472 Q34 484 63 491 L104 500 L104 541 Q104 646 154.5 689 Q205 732 297 732 Q321 732 348 729 Q381 725 392.5 710.5 Q404 696 404 662 L404 652 Q404 619 393.5 611 Q383 603 348 607 Q330 609 307 609 Q234 609 234 552 L234 500 L338 500 Q372 500 383 489 Q394 478 394 444 L394 433 Q394 399 383 388 Q372 377 338 377 L234 377 L234 56 Q234 22 223 11 Q212 0 178 0 L160 0 Q126 0 115 11 Q104 22 104 56 L104 377 L64 377 Q34 377 24 387 Q14 397 14 427 Z " />
<glyph glyph-name="g" unicode="g" horiz-adv-x="526" d="M492 324 Q492 138 268 138 Q208 138 190 133 Q172 128 172 112 Q172 98 190.5 93.5 Q209 89 268 89 Q405 89 456 56 Q507 23 507 -62 Q507 -149 456 -183.5 Q405 -218 268 -218 Q129 -218 78 -186 Q27 -154 27 -85 Q27 -20 77 10 Q42 34 42 84 Q42 151 119 177 Q42 221 42 324 L42 330 Q42 416 101.5 464 Q161 512 268 512 Q314 512 356 499 L414 541 Q438 559 454 558.5 Q470 558 491 537 L494 534 Q516 512 516.5 499 Q517 486 497 463 L461 423 Q492 385 492 330 L492 324 Z M361 324 L361 330 Q361 364 341 381.5 Q321 399 268 399 Q214 399 193.5 381.5 Q173 364 173 330 L173 324 Q173 287 193.5 269 Q214 251 268 251 Q322 251 341.5 269 Q361 287 361 324 Z M268 -22 Q222 -22 185 -19 Q158 -31 158 -65 Q158 -94 180 -101 Q202 -108 268 -108 Q301 -108 316.5 -107 Q332 -106 348 -102 Q364 -98 370 -89 Q376 -80 376 -65 Q376 -36 353 -29 Q330 -22 268 -22 Z " />
<glyph glyph-name="h" unicode="h" horiz-adv-x="562" d="M59 56 L59 644 Q59 678 70 689 Q81 700 115 700 L134 700 Q168 700 179 689 Q190 678 190 644 L190 455 Q242 512 343 512 Q414 512 463.5 472 Q513 432 513 340 L513 56 Q513 22 502 11 Q491 0 457 0 L438 0 Q404 0 393 11 Q382 22 382 56 L382 317 Q382 357 361 373 Q340 389 298 389 Q248 389 219 362.5 Q190 336 190 268 L190 56 Q190 22 179 11 Q168 0 134 0 L115 0 Q81 0 70 11 Q59 22 59 56 Z " />
<glyph glyph-name="i" unicode="i" horiz-adv-x="248" d="M59 56 L59 444 Q59 478 70 489 Q81 500 115 500 L133 500 Q167 500 178 489 Q189 478 189 444 L189 56 Q189 22 178 11 Q167 0 133 0 L115 0 Q81 0 70 11 Q59 22 59 56 Z M69 595 Q46 618 46 650 Q46 682 69 705 Q92 728 124 728 Q156 728 179 705 Q202 682 202 650 Q202 618 179 595 Q156 572 124 572 Q92 572 69 595 Z " />
<glyph glyph-name="j" unicode="j" horiz-adv-x="249" d="M70 595 Q47 618 47 650 Q47 682 70 705 Q93 728 125 728 Q157 728 180 705 Q203 682 203 650 Q203 618 180 595 Q157 572 125 572 Q93 572 70 595 Z M190 444 L190 150 Q190 19 154.5 -61 Q119 -141 53 -199 Q31 -218 16.5 -215 Q2 -212 -16 -183 L-23 -172 Q-40 -142 -38 -128.5 Q-36 -115 -16 -93 Q59 -12 59 140 L59 444 Q59 478 70 489 Q81 500 115 500 L134 500 Q168 500 179 489 Q190 478 190 444 Z " />
<glyph glyph-name="k" unicode="k" horiz-adv-x="560" d="M59 56 L59 644 Q59 678 70 689 Q81 700 115 700 L133 700 Q167 700 178 689 Q189 678 189 644 L189 56 Q189 22 178 11 Q167 0 133 0 L115 0 Q81 0 70 11 Q59 22 59 56 Z M262 357 L343 457 Q364 483 382 491.5 Q400 500 434 500 L484 500 Q518 500 521.5 491.5 Q525 483 504 457 L373 297 Q354 276 354 264 Q354 253 372 232 L525 44 Q546 18 542 9 Q538 0 504 0 L454 0 Q420 0 402 9 Q384 18 363 44 L262 170 Q223 218 223 268 Q223 293 231.5 311.5 Q240 330 262 357 Z " />
<glyph glyph-name="l" unicode="l" horiz-adv-x="273" d="M49 151 L49 644 Q49 678 60 689 Q71 700 105 700 L123 700 Q157 700 168 689 Q179 678 179 644 L179 180 Q179 142 189.5 127.5 Q200 113 223 113 L228 113 Q248 113 255 104.5 Q262 96 262 67 L262 48 Q262 18 255 7 Q248 -4 228 -8 Q218 -10 198 -10 Q130 -10 89.5 29.5 Q49 69 49 151 Z " />
<glyph glyph-name="m" unicode="m" horiz-adv-x="819" d="M180 310 L180 56 Q180 22 169 11 Q158 0 124 0 L105 0 Q71 0 60 11 Q49 22 49 56 L49 310 Q49 408 103.5 460 Q158 512 263 512 Q367 512 411 448 Q457 512 558 512 Q667 512 718.5 462 Q770 412 770 310 L770 56 Q770 22 759 11 Q748 0 714 0 L695 0 Q661 0 650 11 Q639 22 639 56 L639 310 Q639 352 623 370.5 Q607 389 558 389 Q507 389 490 370.5 Q473 352 473 310 L473 56 Q473 22 462 11 Q451 0 417 0 L402 0 Q368 0 357 11 Q346 22 346 56 L346 310 Q346 352 329.5 370.5 Q313 389 263 389 Q214 389 197 370.5 Q180 352 180 310 Z " />
<glyph glyph-name="n" unicode="n" horiz-adv-x="552" d="M180 310 L180 56 Q180 22 169 11 Q158 0 124 0 L105 0 Q71 0 60 11 Q49 22 49 56 L49 310 Q49 409 106.5 460.5 Q164 512 277 512 Q394 512 448.5 462 Q503 412 503 310 L503 56 Q503 22 492 11 Q481 0 447 0 L428 0 Q394 0 383 11 Q372 22 372 56 L372 310 Q372 352 353.5 370.5 Q335 389 277 389 Q219 389 199.5 370.5 Q180 352 180 310 Z " />
<glyph glyph-name="o" unicode="o" horiz-adv-x="556" d="M386 210 L386 290 Q386 342 364.5 365.5 Q343 389 279 389 Q215 389 192.5 365.5 Q170 342 170 290 L170 210 Q170 158 192.5 134.5 Q215 111 279 111 Q343 111 364.5 134.5 Q386 158 386 210 Z M279 -12 Q157 -12 98 43 Q39 98 39 210 L39 290 Q39 397 100.5 454.5 Q162 512 279 512 Q401 512 459 457 Q517 402 517 290 L517 210 Q517 102 456.5 45 Q396 -12 279 -12 Z " />
<glyph glyph-name="p" unicode="p" horiz-adv-x="565" d="M49 -144 L49 293 Q49 405 114.5 458.5 Q180 512 287 512 Q526 512 526 293 L526 213 Q526 105 472.5 46.5 Q419 -12 316 -12 Q221 -12 179 45 L179 -144 Q179 -178 168 -189 Q157 -200 123 -200 L105 -200 Q71 -200 60 -189 Q49 -178 49 -144 Z M395 210 L395 290 Q395 343 374 366 Q353 389 288 389 Q224 389 201.5 365.5 Q179 342 179 290 L179 210 Q179 158 201.5 134.5 Q224 111 288 111 Q352 111 373.5 134.5 Q395 158 395 210 Z " />
<glyph glyph-name="q" unicode="q" horiz-adv-x="565" d="M516 293 L516 -144 Q516 -178 505 -189 Q494 -200 460 -200 L442 -200 Q408 -200 397 -189 Q386 -178 386 -144 L386 45 Q344 -12 249 -12 Q146 -12 92.5 46.5 Q39 105 39 213 L39 293 Q39 512 278 512 Q385 512 450.5 458.5 Q516 405 516 293 Z M170 290 L170 210 Q170 158 191.5 134.5 Q213 111 277 111 Q341 111 363.5 134.5 Q386 158 386 210 L386 290 Q386 342 363.5 365.5 Q341 389 277 389 Q212 389 191 366 Q170 343 170 290 Z " />
<glyph glyph-name="r" unicode="r" horiz-adv-x="340" d="M180 320 L180 56 Q180 22 169 11 Q158 0 124 0 L105 0 Q71 0 60 11 Q49 22 49 56 L49 330 Q49 419 102 465.5 Q155 512 257 512 L268 512 Q297 512 308 497.5 Q319 483 319 448 L319 437 Q319 404 309 395.5 Q299 387 268 389 L257 389 Q211 389 195.5 373 Q180 357 180 320 Z " />
<glyph glyph-name="s" unicode="s" horiz-adv-x="468" d="M34 67 L34 78 Q34 113 45.5 123.5 Q57 134 89 125 Q146 109 225 109 Q269 109 285.5 115 Q302 121 302 138 Q302 151 290.5 159.5 Q279 168 239 184 L146 223 Q93 245 67.5 276 Q42 307 42 365 Q42 440 89.5 476 Q137 512 246 512 Q304 512 352 500 Q385 492 396 479.5 Q407 467 407 434 L407 424 Q407 390 395.5 380.5 Q384 371 351 379 Q301 391 244 391 Q201 391 185.5 384.5 Q170 378 170 364 Q170 353 178.5 346.5 Q187 340 211 330 L315 289 Q374 266 402 232.5 Q430 199 430 139 Q430 61 379.5 24.5 Q329 -12 215 -12 Q141 -12 89 1 Q56 9 45 21.5 Q34 34 34 67 Z " />
<glyph glyph-name="t" unicode="t" horiz-adv-x="436" d="M14 427 L14 431 Q14 461 24 473 Q34 485 63 491 L104 500 L116 579 Q120 610 132 620 Q144 630 176 630 L182 630 Q214 630 224 620 Q234 610 234 578 L234 500 L348 500 Q382 500 393 489 Q404 478 404 444 L404 433 Q404 399 393 388 Q382 377 348 377 L234 377 L234 179 Q234 112 297 112 Q337 112 367 118 Q401 124 411.5 117 Q422 110 422 77 L422 66 Q422 32 410.5 17 Q399 2 367 -5 Q341 -11 297 -11 Q104 -11 104 180 L104 377 L64 377 Q34 377 24 387 Q14 397 14 427 Z " />
<glyph glyph-name="u" unicode="u" horiz-adv-x="552" d="M180 444 L180 190 Q180 148 199.5 129.5 Q219 111 277 111 Q335 111 353.5 129.5 Q372 148 372 190 L372 444 Q372 478 383 489 Q394 500 428 500 L447 500 Q481 500 492 489 Q503 478 503 444 L503 190 Q503 88 448.5 38 Q394 -12 277 -12 Q164 -12 106.5 39.5 Q49 91 49 190 L49 444 Q49 478 60 489 Q71 500 105 500 L124 500 Q158 500 169 489 Q180 478 180 444 Z " />
<glyph glyph-name="v" unicode="v" horiz-adv-x="550" d="M167 445 L233 143 Q239 117 247.5 109 Q256 101 275 101 Q294 101 302.5 108.5 Q311 116 317 143 L383 445 Q391 478 404 489 Q417 500 451 500 L473 500 Q507 500 515.5 489 Q524 478 517 445 L444 128 Q435 90 426.5 68.5 Q418 47 400.5 26 Q383 5 352.5 -3.5 Q322 -12 275 -12 Q228 -12 197.5 -3.5 Q167 5 149.5 25.5 Q132 46 123.5 67.5 Q115 89 106 128 L33 445 Q26 478 34.5 489 Q43 500 77 500 L99 500 Q133 500 146 489 Q159 478 167 445 Z " />
<glyph glyph-name="w" unicode="w" horiz-adv-x="846" d="M169 444 L207 143 Q211 116 217 108.5 Q223 101 239 101 Q254 101 261 109.5 Q268 118 271 143 L303 401 Q310 454 336.5 477 Q363 500 423 500 Q480 500 508 479 Q536 458 543 401 L575 143 Q578 117 585 109 Q592 101 607 101 Q622 101 628.5 109 Q635 117 639 143 L677 444 Q682 478 694 489 Q706 500 740 500 L762 500 Q796 500 805.5 489 Q815 478 810 445 L766 128 Q756 57 723 22.5 Q690 -12 607 -12 Q534 -12 505 22.5 Q476 57 468 128 L440 356 Q438 376 435 381.5 Q432 387 423 387 Q414 387 411 381.5 Q408 376 406 356 L378 128 Q370 58 341 23 Q312 -12 239 -12 Q155 -12 122.5 22 Q90 56 80 128 L36 445 Q31 478 40.5 489 Q50 500 84 500 L106 500 Q140 500 152 489 Q164 478 169 444 Z " />
<glyph glyph-name="x" unicode="x" horiz-adv-x="582" d="M206 451 L250 365 Q264 337 270.5 330 Q277 323 291 323 Q305 323 311.5 330 Q318 337 332 365 L376 451 Q391 481 407 490.5 Q423 500 457 500 L488 500 Q522 500 527.5 490 Q533 480 516 451 L459 350 Q456 344 450 334 Q444 324 441.5 319.5 Q439 315 435 307.5 Q431 300 428.5 297 Q426 294 422.5 289 Q419 284 416 281.5 Q413 279 409.5 275.5 Q406 272 402.5 270 Q399 268 394 266 Q400 263 404.5 260 Q409 257 413.5 252 Q418 247 421 244 Q424 241 429.5 232.5 Q435 224 437.5 220 Q440 216 447.5 203 Q455 190 459 183 L536 49 Q553 20 547.5 10 Q542 0 508 0 L476 0 Q442 0 426 10 Q410 20 394 49 L331 168 Q316 197 310 203.5 Q304 210 291 210 Q278 210 272 203.5 Q266 197 251 168 L188 49 Q172 20 156 10 Q140 0 106 0 L74 0 Q40 0 34.5 10 Q29 20 46 49 L123 183 Q127 190 134.5 202.5 Q142 215 144.5 219.5 Q147 224 152.5 232.5 Q158 241 160.5 244.5 Q163 248 168 252.5 Q173 257 177 260 Q181 263 187 266 Q183 268 179 270 Q175 272 171.5 275.5 Q168 279 165.5 281.5 Q163 284 159 289.5 Q155 295 153.5 297.5 Q152 300 147 308 Q142 316 140 319.5 Q138 323 132 334 Q126 345 123 350 L66 451 Q49 480 54.5 490 Q60 500 94 500 L125 500 Q159 500 175 490.5 Q191 481 206 451 Z " />
<glyph glyph-name="y" unicode="y" horiz-adv-x="550" d="M167 445 L233 143 Q239 116 248.5 108.5 Q258 101 280 101 Q294 101 302.5 109.5 Q311 118 317 143 L383 445 Q391 478 404 489 Q417 500 451 500 L473 500 Q507 500 515.5 489 Q524 478 517 445 L415 0 Q390 -111 334.5 -162.5 Q279 -214 199 -226 Q164 -231 151.5 -223 Q139 -215 132 -180 L131 -175 Q123 -143 130.5 -131 Q138 -119 169 -112 Q258 -92 278 -8 Q266 -12 237 -12 Q175 -12 149 22 Q123 56 106 128 L33 445 Q26 478 34.5 489 Q43 500 77 500 L99 500 Q133 500 146 489 Q159 478 167 445 Z " />
<glyph glyph-name="z" unicode="z" horiz-adv-x="491" d="M60 438 L60 444 Q60 478 71 489 Q82 500 116 500 L336 500 Q407 500 434 473.5 Q461 447 461 385 Q461 336 444 306 Q427 276 372 248 L167 144 Q149 135 149 127 Q149 121 153 119.5 Q157 118 170 118 L405 118 Q439 118 450 107 Q461 96 461 62 L461 56 Q461 22 450 11 Q439 0 405 0 L155 0 Q90 0 60 27.5 Q30 55 30 115 Q30 158 48 191.5 Q66 225 119 252 L324 356 Q342 366 342 373 Q342 382 321 382 L116 382 Q82 382 71 393 Q60 404 60 438 Z " />
<glyph glyph-name="braceleft" unicode="&#x7b;" horiz-adv-x="425" d="M27 252 L27 266 Q27 294 36 303 Q45 312 73 312 L78 312 Q140 312 140 453 L140 553 Q140 647 188.5 698.5 Q237 750 320 750 L334 750 Q362 750 371 741 Q380 732 380 704 L380 690 Q380 662 371 653 Q362 644 334 644 L320 644 Q260 644 260 531 L260 434 Q260 302 177 259 Q260 218 260 84 L260 -31 Q260 -144 320 -144 L334 -144 Q362 -144 371 -153 Q380 -162 380 -190 L380 -204 Q380 -232 371 -241 Q362 -250 334 -250 L320 -250 Q239 -250 189.5 -198.5 Q140 -147 140 -53 L140 65 Q140 206 78 206 L73 206 Q45 206 36 215 Q27 224 27 252 Z " />
<glyph glyph-name="bar" unicode="&#x7c;" horiz-adv-x="270" d="M195 698 L195 -198 Q195 -230 184.5 -240 Q174 -250 143 -250 L127 -250 Q96 -250 85.5 -240 Q75 -230 75 -198 L75 698 Q75 730 85.5 740 Q96 750 127 750 L143 750 Q174 750 184.5 740 Q195 730 195 698 Z " />
<glyph glyph-name="braceright" unicode="&#x7d;" horiz-adv-x="425" d="M398 266 L398 252 Q398 224 389 215 Q380 206 352 206 L347 206 Q285 206 285 65 L285 -53 Q285 -147 235.5 -198.5 Q186 -250 105 -250 L91 -250 Q63 -250 54 -241 Q45 -232 45 -204 L45 -190 Q45 -162 54 -153 Q63 -144 91 -144 L105 -144 Q165 -144 165 -31 L165 84 Q165 218 248 259 Q165 302 165 434 L165 531 Q165 644 105 644 L91 644 Q63 644 54 653 Q45 662 45 690 L45 704 Q45 732 54 741 Q63 750 91 750 L105 750 Q188 750 236.5 698.5 Q285 647 285 553 L285 453 Q285 312 347 312 L352 312 Q380 312 389 303 Q398 294 398 266 Z " />
<glyph glyph-name="asciitilde" unicode="&#x7e;" horiz-adv-x="574" d="M94 199 L81 199 Q53 199 45 205 Q37 211 39 235 Q46 303 83 342 Q120 381 187 381 Q226 381 257.5 367 Q289 353 306 335.5 Q323 318 344 304 Q365 290 385 290 Q423 290 434 340 Q439 364 447 370.5 Q455 377 481 377 L493 377 Q520 377 528.5 370.5 Q537 364 535 341 Q528 273 491.5 234 Q455 195 391 195 Q354 195 322.5 209 Q291 223 273.5 240 Q256 257 233.5 271 Q211 285 190 285 Q149 285 140 231 Q136 210 128.5 204.5 Q121 199 94 199 Z " />
<glyph glyph-name="exclamdown" unicode="&#xa1;" horiz-adv-x="294" d="M153 -150 L143 -150 Q108 -150 96.5 -138 Q85 -126 85 -92 L85 56 Q85 180 101 260 Q106 281 114 288 Q122 295 143 295 L153 295 Q174 295 182.5 287.5 Q191 280 195 260 Q211 180 211 56 L211 -92 Q211 -126 199.5 -138 Q188 -150 153 -150 Z M92 379 Q69 402 69 434 Q69 466 92 489 Q115 512 147 512 Q179 512 202 489 Q225 466 225 434 Q225 402 202 379 Q179 356 147 356 Q115 356 92 379 Z " />
<glyph glyph-name="cent" unicode="&#xa2;" horiz-adv-x="429" d="M214 27 L214 68 Q39 95 39 277 L39 373 Q39 457 83.5 512 Q128 567 214 582 L214 623 Q214 649 223 658 Q232 667 258 667 L274 667 Q300 667 309 658 Q318 649 318 623 L318 584 Q333 582 346 579 Q376 572 386 560 Q396 548 396 517 L396 498 Q396 467 385 458 Q374 449 343 457 Q315 464 280 464 Q220 464 195 444.5 Q170 425 170 371 L170 281 Q170 228 197.5 207 Q225 186 289 186 Q322 186 354 193 Q385 199 395 191.5 Q405 184 405 153 L405 135 Q405 104 394.5 91 Q384 78 354 71 Q335 67 318 65 L318 27 Q318 1 309 -8 Q300 -17 274 -17 L258 -17 Q232 -17 223 -8 Q214 1 214 27 Z " />
<glyph glyph-name="sterling" unicode="&#xa3;" horiz-adv-x="535" d="M508 67 L508 58 Q508 24 496 12 Q484 0 450 0 L223 0 Q160 0 131.5 28.5 Q103 57 103 120 L103 277 L58 277 Q33 277 25 285 Q17 293 17 318 L17 330 Q17 355 25 363 Q33 371 58 371 L103 371 L103 424 Q103 543 158.5 601.5 Q214 660 330 660 Q368 660 405 653 Q439 647 449.5 634 Q460 621 460 586 L460 579 Q460 544 450 534 Q440 524 406 529 Q367 535 335 535 Q275 535 256 509 Q237 483 237 413 L237 371 L361 371 Q386 371 394 363 Q402 355 402 330 L402 318 Q402 293 394 285 Q386 277 361 277 L237 277 L237 155 Q237 125 267 125 L450 125 Q484 125 496 113.5 Q508 102 508 67 Z " />
<glyph glyph-name="currency" unicode="&#xa4;" horiz-adv-x="688" d="M345 172 Q314 172 290 179 L188 77 Q165 53 149 53 Q133 53 109 77 L96 90 Q73 114 73 130 Q73 146 97 169 L187 258 Q172 286 172 324 Q172 359 186 389 L96 479 Q73 503 73 519 Q73 535 97 559 L109 571 Q133 595 149 595 Q165 595 188 571 L289 470 Q318 478 345 478 Q371 478 400 470 L499 570 Q522 594 538 594 Q554 594 578 570 L590 558 Q614 535 614 519 Q614 503 590 479 L503 392 Q518 362 518 324 Q518 288 502 256 L591 170 Q615 147 615 131 Q615 115 591 91 L577 77 Q554 53 538 53 Q522 53 499 77 L398 179 Q374 172 345 172 Z M296.5 276.5 Q316 258 345 258 Q374 258 393.5 276.5 Q413 295 413 324 Q413 354 394 373 Q375 392 345 392 Q315 392 296 373 Q277 354 277 324 Q277 295 296.5 276.5 Z " />
<glyph glyph-name="yen" unicode="&#xa5;" horiz-adv-x="642" d="M83 248 L83 260 Q83 283 91 291 Q99 299 122 299 L212 299 Q191 310 179.5 326 Q168 342 147 386 L49 597 Q35 628 42 639 Q49 650 83 650 L117 650 Q151 650 167 639 Q183 628 196 596 L259 438 Q279 388 290 375 Q301 362 321 362 Q341 362 352 375 Q363 388 383 438 L446 596 Q459 628 475 639 Q491 650 525 650 L559 650 Q593 650 600 639 Q607 628 593 597 L495 386 Q474 342 462.5 326 Q451 310 430 299 L519 299 Q542 299 550 291 Q558 283 558 260 L558 248 Q558 225 550 217 Q542 209 519 209 L389 209 L389 159 L519 159 Q542 159 550 151 Q558 143 558 120 L558 108 Q558 85 550 77 Q542 69 519 69 L389 69 L389 58 Q389 24 377.5 12 Q366 0 331 0 L312 0 Q278 0 266 12 Q254 24 254 58 L254 69 L122 69 Q99 69 91 77 Q83 85 83 108 L83 120 Q83 143 91 151 Q99 159 122 159 L254 159 L254 209 L122 209 Q99 209 91 217 Q83 225 83 248 Z " />
<glyph glyph-name="brokenbar" unicode="&#xa6;" horiz-adv-x="270" d="M195 698 L195 399 Q195 368 184.5 357.5 Q174 347 143 347 L127 347 Q96 347 85.5 357.5 Q75 368 75 399 L75 698 Q75 730 85.5 740 Q96 750 127 750 L143 750 Q174 750 184.5 740 Q195 730 195 698 Z M195 122 L195 -198 Q195 -230 184.5 -240 Q174 -250 143 -250 L127 -250 Q96 -250 85.5 -240 Q75 -230 75 -198 L75 122 Q75 154 85.5 164 Q96 174 127 174 L143 174 Q174 174 184.5 164 Q195 154 195 122 Z " />
<glyph glyph-name="section" unicode="&#xa7;" horiz-adv-x="537" d="M55 -149 L55 -135 Q55 -101 67.5 -90.5 Q80 -80 111 -90 Q168 -109 248 -109 Q306 -109 330 -97 Q354 -85 354 -54 Q354 -33 339 -17.5 Q324 -2 274 27 L146 102 Q45 161 45 271 Q45 366 116 407 Q45 461 45 551 Q45 635 98.5 676.5 Q152 718 268 718 Q331 718 387 702 Q421 693 431.5 680 Q442 667 442 634 L442 620 Q442 586 429 576.5 Q416 567 385 577 Q337 593 269 593 Q222 593 202.5 583 Q183 573 183 546 Q183 529 194 516.5 Q205 504 238 484 L371 406 Q433 370 462.5 330 Q492 290 492 224 Q492 128 424 85 Q492 30 492 -57 Q492 -234 247 -234 Q170 -234 110 -216 Q76 -206 65.5 -194 Q55 -182 55 -149 Z M178 284 Q178 260 189 240.5 Q200 221 235 201 L330 145 Q359 162 359 211 Q359 263 277 310 L214 346 Q178 334 178 284 Z " />
<glyph glyph-name="dieresis" unicode="&#xa8;" horiz-adv-x="423" d="M65 770 Q45 790 45 818 Q45 846 65 866.5 Q85 887 113 887 Q142 887 162 866.5 Q182 846 182 818 Q182 790 161.5 770 Q141 750 113 750 Q85 750 65 770 Z M261.5 770 Q241 790 241 818 Q241 846 261.5 866.5 Q282 887 310 887 Q338 887 358 866.5 Q378 846 378 818 Q378 790 357.5 770 Q337 750 310 750 Q282 750 261.5 770 Z " />
<glyph glyph-name="copyright" unicode="&#xa9;" horiz-adv-x="853" d="M260 310 L260 400 Q260 483 312 523 Q364 563 455 563 Q479 563 503 559 Q529 554 538 543.5 Q547 533 547 507 L547 496 Q547 470 537.5 463 Q528 456 502 461 Q484 465 459 465 Q412 465 391 449 Q370 433 370 394 L370 310 Q370 241 460 241 Q490 241 513 246 Q538 251 546 243 Q554 235 554 208 L554 198 Q554 172 546 162 Q538 152 513 147 Q490 142 458 142 Q260 142 260 310 Z M169 95 Q63 201 63 352 Q63 503 169 609.5 Q275 716 426 716 Q578 716 684 610 Q790 504 790 352 Q790 201 683.5 95 Q577 -11 426 -11 Q275 -11 169 95 Z M138 352 Q138 234 222.5 149.5 Q307 65 426 65 Q545 65 629.5 149 Q714 233 714 352 Q714 471 629.5 556 Q545 641 426 641 Q307 641 222.5 556 Q138 471 138 352 Z " />
<glyph glyph-name="guillemotleft" unicode="&#xab;" horiz-adv-x="561" d="M244 40 L228 40 Q196 40 179 48 Q162 56 143 80 L54 187 Q27 219 27 250 Q27 281 54 313 L143 420 Q162 444 179 452 Q196 460 228 460 L244 460 Q275 460 279 452 Q283 444 263 420 L143 274 Q132 262 132 250 Q132 238 143 226 L263 80 Q283 56 279 48 Q275 40 244 40 Z M464 40 L448 40 Q416 40 399 48 Q382 56 363 80 L274 187 Q247 219 247 250 Q247 281 274 313 L363 420 Q382 444 399 452 Q416 460 448 460 L464 460 Q495 460 499 452 Q503 444 483 420 L363 274 Q352 262 352 250 Q352 238 363 226 L483 80 Q503 56 499 48 Q495 40 464 40 Z " />
<glyph glyph-name="logicalnot" unicode="&#xac;" horiz-adv-x="564" d="M517 362 L517 241 Q517 210 506.5 199.5 Q496 189 465 189 L449 189 Q418 189 407.5 199.5 Q397 210 397 241 L397 342 Q397 372 367 372 L75 372 Q46 372 36.5 382 Q27 392 27 420 L27 434 Q27 462 36.5 472 Q46 482 75 482 L397 482 Q460 482 488.5 453.5 Q517 425 517 362 Z " />
<glyph glyph-name="registered" unicode="&#xae;" horiz-adv-x="853" d="M169 95 Q63 201 63 352 Q63 503 169 609.5 Q275 716 426 716 Q578 716 684 610 Q790 504 790 352 Q790 201 683.5 95 Q577 -11 426 -11 Q275 -11 169 95 Z M138 352 Q138 234 222.5 149.5 Q307 65 426 65 Q545 65 629.5 149 Q714 233 714 352 Q714 471 629.5 556 Q545 641 426 641 Q307 641 222.5 556 Q138 471 138 352 Z M455 197 L421 290 L388 290 L388 200 Q388 172 378 162 Q368 152 340 152 L328 152 Q300 152 290 162 Q280 172 280 200 L280 432 Q280 495 308.5 523.5 Q337 552 400 552 L447 552 Q518 552 556 517.5 Q594 483 594 422 Q594 336 526 301 L573 196 Q585 170 579.5 161 Q574 152 545 152 L520 152 Q492 152 479 161 Q466 170 455 197 Z M443 456 L418 456 Q388 456 388 426 L388 381 L443 381 Q464 381 473 389 Q482 397 482 418 Q482 438 473 447 Q464 456 443 456 Z " />
<glyph glyph-name="degree" unicode="&#xb0;" horiz-adv-x="417" d="M324.5 702.5 Q372 655 372 587 Q372 519 325 472 Q278 425 209 425 Q139 425 92 471 Q45 517 45 587 Q45 656 92.5 703 Q140 750 209 750 Q277 750 324.5 702.5 Z M276 587 Q276 617 257 637 Q238 657 209 657 Q179 657 160 637 Q141 617 141 587 Q141 557 160.5 537.5 Q180 518 209 518 Q236 518 256 538 Q276 558 276 587 Z " />
<glyph glyph-name="plusminus" unicode="&#xb1;" horiz-adv-x="564" d="M517 62 L517 48 Q517 20 507.5 10 Q498 0 469 0 L95 0 Q66 0 56.5 10 Q47 20 47 48 L47 62 Q47 90 56.5 100 Q66 110 95 110 L222 110 L222 270 L95 270 Q66 270 56.5 280 Q47 290 47 318 L47 332 Q47 360 56.5 370 Q66 380 95 380 L222 380 L222 503 Q222 534 232 544.5 Q242 555 274 555 L290 555 Q322 555 332 544.5 Q342 534 342 503 L342 380 L469 380 Q498 380 507.5 370 Q517 360 517 332 L517 318 Q517 290 507.5 280 Q498 270 469 270 L342 270 L342 110 L469 110 Q498 110 507.5 100 Q517 90 517 62 Z " />
<glyph glyph-name="acute" unicode="&#xb4;" horiz-adv-x="315" d="M177 886 L202 886 Q236 886 241.5 876 Q247 866 227 838 L194 790 Q177 766 162.5 758 Q148 750 119 750 L103 750 Q74 750 68.5 759 Q63 768 75 794 L94 834 Q109 865 125.5 875.5 Q142 886 177 886 Z " />
<glyph glyph-name="mu" unicode="&#xb5;" horiz-adv-x="562" d="M59 -144 L59 444 Q59 478 70 489 Q81 500 115 500 L133 500 Q167 500 178 489 Q189 478 189 444 L189 182 Q189 145 210 128 Q231 111 287 111 Q345 111 363.5 129.5 Q382 148 382 190 L382 444 Q382 478 393 489 Q404 500 438 500 L457 500 Q491 500 502 489 Q513 478 513 444 L513 190 Q513 99 457 43.5 Q401 -12 317 -12 Q229 -12 189 45 L189 -144 Q189 -178 178 -189 Q167 -200 133 -200 L115 -200 Q81 -200 70 -189 Q59 -178 59 -144 Z " />
<glyph glyph-name="paragraph" unicode="&#xb6;" horiz-adv-x="607" d="M21 445 Q21 535 83 592.5 Q145 650 256 650 L418 650 Q481 650 509.5 621.5 Q538 593 538 530 L538 -54 Q538 -80 529 -89 Q520 -98 494 -98 L478 -98 Q452 -98 443 -89 Q434 -80 434 -54 L434 492 Q434 518 422 530 Q410 542 384 542 L330 542 L330 220 Q330 117 300.5 44.5 Q271 -28 199 -89 Q179 -105 170 -102 Q161 -99 147 -76 L138 -62 Q123 -40 123.5 -29 Q124 -18 143 -2 Q226 68 226 220 L226 241 Q139 241 80 299.5 Q21 358 21 445 Z " />
<glyph glyph-name="middot" unicode="&#xb7;" horiz-adv-x="240" d="M65 270 Q42 293 42 325 Q42 357 65 380 Q88 403 120 403 Q152 403 175 380 Q198 357 198 325 Q198 293 175 270 Q152 247 120 247 Q88 247 65 270 Z " />
<glyph glyph-name="cedilla" unicode="&#xb8;" horiz-adv-x="262" d="M84 25 L153 25 L140 -36 Q180 -36 199.5 -52 Q219 -68 219 -108 Q219 -158 192 -180 Q165 -202 107 -202 Q89 -202 77 -200 Q59 -198 53 -191 Q47 -184 47 -166 L47 -160 Q47 -141 52 -135.5 Q57 -130 74 -132 Q82 -133 91 -133 Q125 -133 125 -109 Q125 -82 92 -82 L88 -82 Q70 -83 65 -77.5 Q60 -72 65 -55 L84 25 Z " />
<glyph glyph-name="guillemotright" unicode="&#xbb;" horiz-adv-x="561" d="M333 40 L317 40 Q286 40 282 48 Q278 56 298 80 L418 226 Q429 238 429 250 Q429 262 418 274 L298 420 Q278 444 282 452 Q286 460 317 460 L333 460 Q364 460 381 452 Q398 444 418 420 L507 313 Q534 281 534 250 Q534 219 507 187 L418 80 Q398 56 381 48 Q364 40 333 40 Z M113 40 L97 40 Q66 40 62 48 Q58 56 78 80 L198 226 Q209 238 209 250 Q209 262 198 274 L78 420 Q58 444 62 452 Q66 460 97 460 L113 460 Q144 460 161.5 452 Q179 444 198 420 L287 313 Q314 281 314 250 Q314 219 287 187 L198 80 Q178 56 161 48 Q144 40 113 40 Z " />
<glyph glyph-name="questiondown" unicode="&#xbf;" horiz-adv-x="444" d="M362 490 Q385 467 385 435 Q385 403 362 380 Q339 357 307 357 Q275 357 252 380 Q229 403 229 435 Q229 467 252 490 Q275 513 307 513 Q339 513 362 490 Z M48 37 Q48 111 81 151.5 Q114 192 177 227 Q216 246 231 266 Q248 289 259 295 Q270 301 302 301 L312 301 Q352 301 361.5 293.5 Q371 286 366 258 Q357 197 257 132 Q215 105 198.5 86.5 Q182 68 182 37 Q182 -5 201.5 -20 Q221 -35 275 -35 Q300 -35 338 -29 Q373 -24 384.5 -33 Q396 -42 396 -76 L396 -89 Q396 -122 384.5 -135.5 Q373 -149 337 -154 Q297 -159 275 -159 Q159 -159 103.5 -114 Q48 -69 48 37 Z " />
<glyph glyph-name="Agrave" unicode="&#xc0;" horiz-adv-x="658" d="M510 470 L622 56 Q631 22 622.5 11 Q614 0 579 0 L560 0 Q525 0 510.5 11 Q496 22 487 56 L461 158 L197 158 L171 56 Q162 22 147.5 11 Q133 0 98 0 L79 0 Q44 0 35.5 11 Q27 22 36 56 L148 470 Q163 526 174.5 555.5 Q186 585 206 612 Q226 639 255 649.5 Q284 660 329 660 Q374 660 403 649.5 Q432 639 452 612 Q472 585 483.5 555.5 Q495 526 510 470 Z M277 464 L228 278 L429 278 L381 464 Q368 513 360 526.5 Q352 540 329 540 Q306 540 298 526.5 Q290 513 277 464 Z M252 746 L221 794 Q202 822 207 832 Q212 842 247 842 L268 842 Q302 842 319 831.5 Q336 821 350 789 L367 750 Q379 724 373.5 715 Q368 706 339 706 L326 706 Q297 706 282.5 714 Q268 722 252 746 Z " />
<glyph glyph-name="Aacute" unicode="&#xc1;" horiz-adv-x="658" d="M510 470 L622 56 Q631 22 622.5 11 Q614 0 579 0 L560 0 Q525 0 510.5 11 Q496 22 487 56 L461 158 L197 158 L171 56 Q162 22 147.5 11 Q133 0 98 0 L79 0 Q44 0 35.5 11 Q27 22 36 56 L148 470 Q163 526 174.5 555.5 Q186 585 206 612 Q226 639 255 649.5 Q284 660 329 660 Q374 660 403 649.5 Q432 639 452 612 Q472 585 483.5 555.5 Q495 526 510 470 Z M277 464 L228 278 L429 278 L381 464 Q368 513 360 526.5 Q352 540 329 540 Q306 540 298 526.5 Q290 513 277 464 Z M392 842 L417 842 Q451 842 456.5 832 Q462 822 442 794 L409 746 Q392 722 377 714 Q362 706 334 706 L318 706 Q289 706 283.5 715 Q278 724 290 750 L309 790 Q324 821 340.5 831.5 Q357 842 392 842 Z " />
<glyph glyph-name="Acircumflex" unicode="&#xc2;" horiz-adv-x="658" d="M510 470 L622 56 Q631 22 622.5 11 Q614 0 579 0 L560 0 Q525 0 510.5 11 Q496 22 487 56 L461 158 L197 158 L171 56 Q162 22 147.5 11 Q133 0 98 0 L79 0 Q44 0 35.5 11 Q27 22 36 56 L148 470 Q163 526 174.5 555.5 Q186 585 206 612 Q226 639 255 649.5 Q284 660 329 660 Q374 660 403 649.5 Q432 639 452 612 Q472 585 483.5 555.5 Q495 526 510 470 Z M277 464 L228 278 L429 278 L381 464 Q368 513 360 526.5 Q352 540 329 540 Q306 540 298 526.5 Q290 513 277 464 Z M206 743 L245 801 Q261 825 278.5 833.5 Q296 842 328 842 Q360 842 377.5 833.5 Q395 825 411 801 L450 743 Q464 720 460 713 Q456 706 430 706 L419 706 Q392 706 378.5 713.5 Q365 721 352 743 L346 752 Q337 765 328 765 Q319 765 310 752 L304 743 Q291 721 277.5 713.5 Q264 706 237 706 L226 706 Q200 706 196 713 Q192 720 206 743 Z " />
<glyph glyph-name="Atilde" unicode="&#xc3;" horiz-adv-x="658" d="M510 470 L622 56 Q631 22 622.5 11 Q614 0 579 0 L560 0 Q525 0 510.5 11 Q496 22 487 56 L461 158 L197 158 L171 56 Q162 22 147.5 11 Q133 0 98 0 L79 0 Q44 0 35.5 11 Q27 22 36 56 L148 470 Q163 526 174.5 555.5 Q186 585 206 612 Q226 639 255 649.5 Q284 660 329 660 Q374 660 403 649.5 Q432 639 452 612 Q472 585 483.5 555.5 Q495 526 510 470 Z M277 464 L228 278 L429 278 L381 464 Q368 513 360 526.5 Q352 540 329 540 Q306 540 298 526.5 Q290 513 277 464 Z M191 707 L182 707 Q159 707 152.5 711 Q146 715 148 734 Q160 844 261 844 Q300 844 344 817.5 Q388 791 399 791 Q420 791 427 812 Q432 825 434.5 830 Q437 835 444 838 Q451 841 465 841 L474 841 Q512 841 507 808 Q493 704 395 704 Q356 704 312 730.5 Q268 757 257 757 Q235 757 229 736 Q224 717 218 712 Q212 707 191 707 Z " />
<glyph glyph-name="Adieresis" unicode="&#xc4;" horiz-adv-x="658" d="M510 470 L622 56 Q631 22 622.5 11 Q614 0 579 0 L560 0 Q525 0 510.5 11 Q496 22 487 56 L461 158 L197 158 L171 56 Q162 22 147.5 11 Q133 0 98 0 L79 0 Q44 0 35.5 11 Q27 22 36 56 L148 470 Q163 526 174.5 555.5 Q186 585 206 612 Q226 639 255 649.5 Q284 660 329 660 Q374 660 403 649.5 Q432 639 452 612 Q472 585 483.5 555.5 Q495 526 510 470 Z M277 464 L228 278 L429 278 L381 464 Q368 513 360 526.5 Q352 540 329 540 Q306 540 298 526.5 Q290 513 277 464 Z M182 726 Q162 746 162 774 Q162 802 182 822.5 Q202 843 230 843 Q258 843 278.5 822.5 Q299 802 299 774 Q299 746 278.5 726 Q258 706 230 706 Q202 706 182 726 Z M378.5 726 Q358 746 358 774 Q358 802 378 822.5 Q398 843 427 843 Q455 843 475 822.5 Q495 802 495 774 Q495 746 474.5 726 Q454 706 427 706 Q399 706 378.5 726 Z " />
<glyph glyph-name="Aring" unicode="&#xc5;" horiz-adv-x="658" d="M510 470 L622 56 Q631 22 622.5 11 Q614 0 579 0 L560 0 Q525 0 510.5 11 Q496 22 487 56 L461 158 L197 158 L171 56 Q162 22 147.5 11 Q133 0 98 0 L79 0 Q44 0 35.5 11 Q27 22 36 56 L148 470 Q163 526 174.5 555.5 Q186 585 206 612 Q226 639 255 649.5 Q284 660 329 660 Q374 660 403 649.5 Q432 639 452 612 Q472 585 483.5 555.5 Q495 526 510 470 Z M277 464 L228 278 L429 278 L381 464 Q368 513 360 526.5 Q352 540 329 540 Q306 540 298 526.5 Q290 513 277 464 Z M395.5 705 Q367 680 328 680 Q289 680 261 705 Q233 730 233 774 Q233 819 261 844.5 Q289 870 328 870 Q368 870 396 844.5 Q424 819 424 774 Q424 730 395.5 705 Z M302 749 Q312 739 328 739 Q344 739 354.5 749 Q365 759 365 774 Q365 790 354.5 800.5 Q344 811 328 811 Q312 811 302 800.5 Q292 790 292 774 Q292 759 302 749 Z " />
<glyph glyph-name="AE" unicode="&#xc6;" horiz-adv-x="918" d="M538 270 L538 155 Q538 125 568 125 L811 125 Q846 125 857.5 113.5 Q869 102 869 67 L869 58 Q869 24 857.5 12 Q846 0 811 0 L524 0 Q461 0 432.5 28.5 Q404 57 404 120 L404 158 L199 158 L171 56 Q161 22 146.5 11 Q132 0 97 0 L79 0 Q44 0 35.5 11 Q27 22 37 56 L156 460 Q186 563 227 606.5 Q268 650 355 650 L811 650 Q846 650 857.5 638 Q869 626 869 592 L869 583 Q869 548 857.5 536.5 Q846 525 811 525 L568 525 Q538 525 538 495 L538 395 L771 395 Q806 395 817.5 383.5 Q829 372 829 337 L829 328 Q829 294 817.5 282 Q806 270 771 270 L538 270 Z M281 450 L233 278 L404 278 L404 500 L404 525 L345 525 Q316 525 304.5 509 Q293 493 281 450 Z " />
<glyph glyph-name="Ccedilla" unicode="&#xc7;" horiz-adv-x="535" d="M187 399 L187 239 Q187 180 219.5 146.5 Q252 113 338 113 Q392 113 446 128 Q479 137 490.5 127.5 Q502 118 502 83 L502 75 Q502 41 491 28 Q480 15 447 3 Q403 -11 343 -12 L338 -36 Q378 -36 397.5 -52 Q417 -68 417 -108 Q417 -158 390 -180 Q363 -202 305 -202 Q287 -202 275 -200 Q257 -198 251 -191 Q245 -184 245 -166 L245 -160 Q245 -141 250 -135.5 Q255 -130 272 -132 Q280 -133 289 -133 Q323 -133 323 -109 Q323 -82 290 -82 L286 -82 Q268 -83 263 -77.5 Q258 -72 263 -55 L274 -9 Q162 2 105.5 61.5 Q49 121 49 239 L49 399 Q49 522 120 591 Q191 660 333 660 Q403 660 446 643 Q480 630 491 617 Q502 604 502 571 L502 563 Q502 528 489.5 518 Q477 508 444 518 Q388 535 333 535 Q256 535 221.5 502 Q187 469 187 399 Z " />
<glyph glyph-name="Egrave" unicode="&#xc8;" horiz-adv-x="583" d="M203 270 L203 155 Q203 125 233 125 L476 125 Q510 125 522 113.5 Q534 102 534 67 L534 58 Q534 24 522 12 Q510 0 476 0 L189 0 Q126 0 97.5 28.5 Q69 57 69 120 L69 530 Q69 593 97.5 621.5 Q126 650 189 650 L476 650 Q510 650 522 638 Q534 626 534 592 L534 583 Q534 548 522 536.5 Q510 525 476 525 L233 525 Q203 525 203 495 L203 395 L436 395 Q470 395 482 383.5 Q494 372 494 337 L494 328 Q494 294 482 282 Q470 270 436 270 L203 270 Z M226 746 L195 794 Q176 822 181 832 Q186 842 221 842 L242 842 Q276 842 293 831.5 Q310 821 324 789 L341 750 Q353 724 347.5 715 Q342 706 313 706 L300 706 Q271 706 256.5 714 Q242 722 226 746 Z " />
<glyph glyph-name="Eacute" unicode="&#xc9;" horiz-adv-x="583" d="M203 270 L203 155 Q203 125 233 125 L476 125 Q510 125 522 113.5 Q534 102 534 67 L534 58 Q534 24 522 12 Q510 0 476 0 L189 0 Q126 0 97.5 28.5 Q69 57 69 120 L69 530 Q69 593 97.5 621.5 Q126 650 189 650 L476 650 Q510 650 522 638 Q534 626 534 592 L534 583 Q534 548 522 536.5 Q510 525 476 525 L233 525 Q203 525 203 495 L203 395 L436 395 Q470 395 482 383.5 Q494 372 494 337 L494 328 Q494 294 482 282 Q470 270 436 270 L203 270 Z M383 842 L408 842 Q442 842 447.5 832 Q453 822 433 794 L400 746 Q384 722 369 714 Q354 706 325 706 L309 706 Q280 706 274.5 715 Q269 724 281 750 L300 790 Q315 821 331.5 831.5 Q348 842 383 842 Z " />
<glyph glyph-name="Ecircumflex" unicode="&#xca;" horiz-adv-x="583" d="M203 270 L203 155 Q203 125 233 125 L476 125 Q510 125 522 113.5 Q534 102 534 67 L534 58 Q534 24 522 12 Q510 0 476 0 L189 0 Q126 0 97.5 28.5 Q69 57 69 120 L69 530 Q69 593 97.5 621.5 Q126 650 189 650 L476 650 Q510 650 522 638 Q534 626 534 592 L534 583 Q534 548 522 536.5 Q510 525 476 525 L233 525 Q203 525 203 495 L203 395 L436 395 Q470 395 482 383.5 Q494 372 494 337 L494 328 Q494 294 482 282 Q470 270 436 270 L203 270 Z M189 743 L228 801 Q244 825 261.5 833.5 Q279 842 311 842 Q343 842 360.5 833.5 Q378 825 394 801 L433 743 Q447 720 443 713 Q439 706 413 706 L402 706 Q375 706 361.5 713.5 Q348 721 335 743 L329 752 Q320 765 311 765 Q302 765 293 752 L287 743 Q274 721 260.5 713.5 Q247 706 220 706 L209 706 Q183 706 179 713 Q175 720 189 743 Z " />
<glyph glyph-name="Edieresis" unicode="&#xcb;" horiz-adv-x="583" d="M203 270 L203 155 Q203 125 233 125 L476 125 Q510 125 522 113.5 Q534 102 534 67 L534 58 Q534 24 522 12 Q510 0 476 0 L189 0 Q126 0 97.5 28.5 Q69 57 69 120 L69 530 Q69 593 97.5 621.5 Q126 650 189 650 L476 650 Q510 650 522 638 Q534 626 534 592 L534 583 Q534 548 522 536.5 Q510 525 476 525 L233 525 Q203 525 203 495 L203 395 L436 395 Q470 395 482 383.5 Q494 372 494 337 L494 328 Q494 294 482 282 Q470 270 436 270 L203 270 Z M165 726 Q145 746 145 774 Q145 802 165 822.5 Q185 843 213 843 Q242 843 262 822.5 Q282 802 282 774 Q282 746 261.5 726 Q241 706 213 706 Q185 706 165 726 Z M361.5 726 Q341 746 341 774 Q341 802 361.5 822.5 Q382 843 410 843 Q438 843 458 822.5 Q478 802 478 774 Q478 746 457.5 726 Q437 706 410 706 Q382 706 361.5 726 Z " />
<glyph glyph-name="Igrave" unicode="&#xcc;" horiz-adv-x="288" d="M77 58 L77 592 Q77 626 88.5 638 Q100 650 135 650 L153 650 Q188 650 199.5 638 Q211 626 211 592 L211 58 Q211 24 199.5 12 Q188 0 153 0 L135 0 Q100 0 88.5 12 Q77 24 77 58 Z M59 746 L28 794 Q9 822 14 832 Q19 842 54 842 L75 842 Q109 842 126 831.5 Q143 821 157 789 L174 750 Q186 724 180.5 715 Q175 706 146 706 L133 706 Q104 706 89.5 714 Q75 722 59 746 Z " />
<glyph glyph-name="Iacute" unicode="&#xcd;" horiz-adv-x="288" d="M77 58 L77 592 Q77 626 88.5 638 Q100 650 135 650 L153 650 Q188 650 199.5 638 Q211 626 211 592 L211 58 Q211 24 199.5 12 Q188 0 153 0 L135 0 Q100 0 88.5 12 Q77 24 77 58 Z M216 842 L241 842 Q275 842 280.5 832 Q286 822 266 794 L233 746 Q217 722 201.5 714 Q186 706 158 706 L142 706 Q113 706 107.5 715 Q102 724 114 750 L133 790 Q148 821 164.5 831.5 Q181 842 216 842 Z " />
<glyph glyph-name="Icircumflex" unicode="&#xce;" horiz-adv-x="288" d="M77 58 L77 592 Q77 626 88.5 638 Q100 650 135 650 L153 650 Q188 650 199.5 638 Q211 626 211 592 L211 58 Q211 24 199.5 12 Q188 0 153 0 L135 0 Q100 0 88.5 12 Q77 24 77 58 Z M22 743 L61 801 Q77 825 94.5 833.5 Q112 842 144 842 Q176 842 193.5 833.5 Q211 825 227 801 L266 743 Q280 720 276 713 Q272 706 246 706 L235 706 Q208 706 194.5 713.5 Q181 721 168 743 L162 752 Q153 765 144 765 Q135 765 126 752 L120 743 Q107 721 93.5 713.5 Q80 706 53 706 L42 706 Q16 706 12 713 Q8 720 22 743 Z " />
<glyph glyph-name="Idieresis" unicode="&#xcf;" horiz-adv-x="288" d="M77 58 L77 592 Q77 626 88.5 638 Q100 650 135 650 L153 650 Q188 650 199.5 638 Q211 626 211 592 L211 58 Q211 24 199.5 12 Q188 0 153 0 L135 0 Q100 0 88.5 12 Q77 24 77 58 Z M-2 726 Q-22 746 -22 774 Q-22 802 -2 822.5 Q18 843 46 843 Q74 843 94.5 822.5 Q115 802 115 774 Q115 746 94.5 726 Q74 706 46 706 Q18 706 -2 726 Z M194.5 726 Q174 746 174 774 Q174 802 194 822.5 Q214 843 243 843 Q271 843 291 822.5 Q311 802 311 774 Q311 746 290.5 726 Q270 706 243 706 Q215 706 194.5 726 Z " />
<glyph glyph-name="Eth" unicode="&#xd0;" horiz-adv-x="654" d="M96 120 L96 278 L58 278 Q33 278 25 286 Q17 294 17 319 L17 331 Q17 356 25 364 Q33 372 58 372 L96 372 L96 530 Q96 593 124.5 621.5 Q153 650 216 650 L299 650 Q461 650 533 595 Q605 540 605 395 L605 255 Q605 121 530.5 60.5 Q456 0 299 0 L216 0 Q153 0 124.5 28.5 Q96 57 96 120 Z M299 125 Q396 125 431.5 153.5 Q467 182 467 255 L467 395 Q467 468 431.5 496.5 Q396 525 299 525 L260 525 Q230 525 230 495 L230 372 L272 372 Q297 372 305 364 Q313 356 313 331 L313 319 Q313 294 305 286 Q297 278 272 278 L230 278 L230 155 Q230 125 260 125 L299 125 Z " />
<glyph glyph-name="Ntilde" unicode="&#xd1;" horiz-adv-x="684" d="M69 58 L69 508 Q69 594 101.5 628 Q134 662 208 662 Q270 662 300.5 636 Q331 610 348 540 L452 121 Q457 100 470 100 Q479 100 482 105.5 Q485 111 485 128 L485 592 Q485 626 496.5 638 Q508 650 543 650 L557 650 Q592 650 603.5 638 Q615 626 615 592 L615 142 Q615 56 583.5 22 Q552 -12 481 -12 Q416 -12 384.5 15.5 Q353 43 335 114 L233 522 Q229 539 225.5 544.5 Q222 550 213 550 Q204 550 201.5 544.5 Q199 539 199 520 L199 58 Q199 24 187.5 12 Q176 0 141 0 L127 0 Q92 0 80.5 12 Q69 24 69 58 Z M222 707 L213 707 Q190 707 183.5 711 Q177 715 179 734 Q191 844 292 844 Q331 844 375 817.5 Q419 791 430 791 Q451 791 458 812 Q463 825 465.5 830 Q468 835 475 838 Q482 841 496 841 L505 841 Q525 841 532.5 833 Q540 825 538 808 Q524 704 426 704 Q387 704 343 730.5 Q299 757 288 757 Q266 757 260 736 Q255 717 249 712 Q243 707 222 707 Z " />
<glyph glyph-name="Ograve" unicode="&#xd2;" horiz-adv-x="650" d="M466 253 L466 393 Q466 468 438 501 Q410 534 325 534 Q240 534 212 501 Q184 468 184 393 L184 253 Q184 178 212 145 Q240 112 325 112 Q410 112 438 145 Q466 178 466 253 Z M540 56 Q479 -13 325 -13 Q171 -13 110 56 Q49 125 49 253 L49 393 Q49 521 110 590 Q171 659 325 659 Q479 659 540 590 Q601 521 601 393 L601 253 Q601 125 540 56 Z M240 746 L209 794 Q190 822 195 832 Q200 842 235 842 L256 842 Q290 842 307 831.5 Q324 821 338 789 L355 750 Q367 724 361.5 715 Q356 706 327 706 L314 706 Q285 706 270.5 714 Q256 722 240 746 Z " />
<glyph glyph-name="Oacute" unicode="&#xd3;" horiz-adv-x="650" d="M466 253 L466 393 Q466 468 438 501 Q410 534 325 534 Q240 534 212 501 Q184 468 184 393 L184 253 Q184 178 212 145 Q240 112 325 112 Q410 112 438 145 Q466 178 466 253 Z M540 56 Q479 -13 325 -13 Q171 -13 110 56 Q49 125 49 253 L49 393 Q49 521 110 590 Q171 659 325 659 Q479 659 540 590 Q601 521 601 393 L601 253 Q601 125 540 56 Z M368 842 L393 842 Q427 842 432.5 832 Q438 822 418 794 L385 746 Q368 722 353 714 Q338 706 310 706 L294 706 Q265 706 259.5 715 Q254 724 266 750 L285 790 Q300 821 316.5 831.5 Q333 842 368 842 Z " />
<glyph glyph-name="Ocircumflex" unicode="&#xd4;" horiz-adv-x="650" d="M466 253 L466 393 Q466 468 438 501 Q410 534 325 534 Q240 534 212 501 Q184 468 184 393 L184 253 Q184 178 212 145 Q240 112 325 112 Q410 112 438 145 Q466 178 466 253 Z M540 56 Q479 -13 325 -13 Q171 -13 110 56 Q49 125 49 253 L49 393 Q49 521 110 590 Q171 659 325 659 Q479 659 540 590 Q601 521 601 393 L601 253 Q601 125 540 56 Z M203 743 L242 801 Q258 825 275.5 833.5 Q293 842 325 842 Q357 842 374.5 833.5 Q392 825 408 801 L447 743 Q461 720 457 713 Q453 706 427 706 L416 706 Q389 706 375.5 713.5 Q362 721 349 743 L343 752 Q334 765 325 765 Q316 765 307 752 L301 743 Q288 721 274.5 713.5 Q261 706 234 706 L223 706 Q197 706 193 713 Q189 720 203 743 Z " />
<glyph glyph-name="Otilde" unicode="&#xd5;" horiz-adv-x="650" d="M466 253 L466 393 Q466 468 438 501 Q410 534 325 534 Q240 534 212 501 Q184 468 184 393 L184 253 Q184 178 212 145 Q240 112 325 112 Q410 112 438 145 Q466 178 466 253 Z M540 56 Q479 -13 325 -13 Q171 -13 110 56 Q49 125 49 253 L49 393 Q49 521 110 590 Q171 659 325 659 Q479 659 540 590 Q601 521 601 393 L601 253 Q601 125 540 56 Z M188 707 L179 707 Q156 707 149.5 711 Q143 715 145 734 Q157 844 258 844 Q297 844 341 817.5 Q385 791 396 791 Q417 791 424 812 Q429 825 431.5 830 Q434 835 441 838 Q448 841 462 841 L471 841 Q491 841 498.5 833 Q506 825 504 808 Q490 704 392 704 Q353 704 309 730.5 Q265 757 254 757 Q232 757 226 736 Q221 717 215 712 Q209 707 188 707 Z " />
<glyph glyph-name="Odieresis" unicode="&#xd6;" horiz-adv-x="650" d="M466 253 L466 393 Q466 468 438 501 Q410 534 325 534 Q240 534 212 501 Q184 468 184 393 L184 253 Q184 178 212 145 Q240 112 325 112 Q410 112 438 145 Q466 178 466 253 Z M540 56 Q479 -13 325 -13 Q171 -13 110 56 Q49 125 49 253 L49 393 Q49 521 110 590 Q171 659 325 659 Q479 659 540 590 Q601 521 601 393 L601 253 Q601 125 540 56 Z M179 726 Q159 746 159 774 Q159 802 179 822.5 Q199 843 227 843 Q256 843 276 822.5 Q296 802 296 774 Q296 746 275.5 726 Q255 706 227 706 Q199 706 179 726 Z M375.5 726 Q355 746 355 774 Q355 802 375.5 822.5 Q396 843 424 843 Q452 843 472 822.5 Q492 802 492 774 Q492 746 471.5 726 Q451 706 424 706 Q396 706 375.5 726 Z " />
<glyph glyph-name="multiply" unicode="&#xd7;" horiz-adv-x="568" d="M362 325 L483 203 Q503 183 503 169 Q503 155 483 135 L474 126 Q454 106 440 106 Q426 106 406 126 L284 247 L162 126 Q142 106 128 106 Q114 106 94 126 L85 135 Q65 155 65 169 Q65 183 85 203 L206 325 L85 447 Q65 467 65 481 Q65 495 85 515 L94 524 Q114 544 128 544 Q142 544 162 524 L284 403 L406 524 Q426 544 440 544 Q454 544 474 524 L483 515 Q503 495 503 481 Q503 467 483 447 L362 325 Z " />
<glyph glyph-name="Oslash" unicode="&#xd8;" horiz-adv-x="650" d="M325 -13 Q251 -13 198 4 L182 -24 Q168 -47 156.5 -50 Q145 -53 122 -40 L112 -35 Q89 -21 86 -9.5 Q83 2 96 25 L112 54 Q49 117 49 253 L49 393 Q49 521 110 590 Q171 659 325 659 Q398 659 451 642 L468 671 Q482 694 493.5 697 Q505 700 528 687 L538 682 Q561 668 564 656.5 Q567 645 554 622 L537 592 Q601 529 601 393 L601 253 Q601 125 540 56 Q479 -13 325 -13 Z M466 253 L466 393 Q466 448 453 477 L249 122 Q276 112 325 112 Q410 112 438 145 Q466 178 466 253 Z M184 253 Q184 199 194 173 L397 525 Q368 534 325 534 Q240 534 212 501 Q184 468 184 393 L184 253 Z " />
<glyph glyph-name="Ugrave" unicode="&#xd9;" horiz-adv-x="643" d="M59 228 L59 592 Q59 626 70.5 638 Q82 650 117 650 L135 650 Q170 650 181.5 638 Q193 626 193 592 L193 228 Q193 113 322 113 Q450 113 450 228 L450 592 Q450 626 462 638 Q474 650 508 650 L526 650 Q560 650 572 638 Q584 626 584 592 L584 228 Q584 104 513.5 46 Q443 -12 322 -12 Q200 -12 129.5 46 Q59 104 59 228 Z M236 746 L205 794 Q186 822 191 832 Q196 842 231 842 L252 842 Q286 842 303 831.5 Q320 821 334 789 L351 750 Q363 724 357.5 715 Q352 706 323 706 L310 706 Q281 706 266.5 714 Q252 722 236 746 Z " />
<glyph glyph-name="Uacute" unicode="&#xda;" horiz-adv-x="643" d="M59 228 L59 592 Q59 626 70.5 638 Q82 650 117 650 L135 650 Q170 650 181.5 638 Q193 626 193 592 L193 228 Q193 113 322 113 Q450 113 450 228 L450 592 Q450 626 462 638 Q474 650 508 650 L526 650 Q560 650 572 638 Q584 626 584 592 L584 228 Q584 104 513.5 46 Q443 -12 322 -12 Q200 -12 129.5 46 Q59 104 59 228 Z M393 842 L418 842 Q452 842 457.5 832 Q463 822 443 794 L410 746 Q394 722 379 714 Q364 706 335 706 L319 706 Q290 706 284.5 715 Q279 724 291 750 L310 790 Q325 821 341.5 831.5 Q358 842 393 842 Z " />
<glyph glyph-name="Ucircumflex" unicode="&#xdb;" horiz-adv-x="643" d="M59 228 L59 592 Q59 626 70.5 638 Q82 650 117 650 L135 650 Q170 650 181.5 638 Q193 626 193 592 L193 228 Q193 113 322 113 Q450 113 450 228 L450 592 Q450 626 462 638 Q474 650 508 650 L526 650 Q560 650 572 638 Q584 626 584 592 L584 228 Q584 104 513.5 46 Q443 -12 322 -12 Q200 -12 129.5 46 Q59 104 59 228 Z M199 743 L238 801 Q254 825 271.5 833.5 Q289 842 321 842 Q353 842 370.5 833.5 Q388 825 404 801 L443 743 Q457 720 453 713 Q449 706 423 706 L412 706 Q385 706 371.5 713.5 Q358 721 345 743 L339 752 Q330 765 321 765 Q312 765 303 752 L297 743 Q284 721 270.5 713.5 Q257 706 230 706 L219 706 Q193 706 189 713 Q185 720 199 743 Z " />
<glyph glyph-name="Udieresis" unicode="&#xdc;" horiz-adv-x="643" d="M59 228 L59 592 Q59 626 70.5 638 Q82 650 117 650 L135 650 Q170 650 181.5 638 Q193 626 193 592 L193 228 Q193 113 322 113 Q450 113 450 228 L450 592 Q450 626 462 638 Q474 650 508 650 L526 650 Q560 650 572 638 Q584 626 584 592 L584 228 Q584 104 513.5 46 Q443 -12 322 -12 Q200 -12 129.5 46 Q59 104 59 228 Z M175 726 Q155 746 155 774 Q155 802 175 822.5 Q195 843 223 843 Q252 843 272 822.5 Q292 802 292 774 Q292 746 271.5 726 Q251 706 223 706 Q195 706 175 726 Z M371.5 726 Q351 746 351 774 Q351 802 371.5 822.5 Q392 843 420 843 Q448 843 468 822.5 Q488 802 488 774 Q488 746 467.5 726 Q447 706 420 706 Q392 706 371.5 726 Z " />
<glyph glyph-name="Yacute" unicode="&#xdd;" horiz-adv-x="658" d="M262 58 L262 252 Q234 265 219.5 279 Q205 293 181 338 L40 599 Q24 630 30 640 Q36 650 71 650 L105 650 Q140 650 156.5 639.5 Q173 629 189 598 L267 438 Q292 388 302 375 Q312 362 329 362 Q346 362 356.5 375 Q367 388 391 438 L469 598 Q485 629 501.5 639.5 Q518 650 553 650 L587 650 Q622 650 628 640 Q634 630 618 599 L477 338 Q453 293 439 279 Q425 265 397 252 L397 58 Q397 24 385.5 12 Q374 0 339 0 L320 0 Q286 0 274 12 Q262 24 262 58 Z M401 842 L426 842 Q460 842 465.5 832 Q471 822 451 794 L418 746 Q402 722 387 714 Q372 706 343 706 L327 706 Q298 706 292.5 715 Q287 724 299 750 L318 790 Q333 821 349.5 831.5 Q366 842 401 842 Z " />
<glyph glyph-name="Thorn" unicode="&#xde;" horiz-adv-x="611" d="M69 58 L69 592 Q69 626 80.5 638 Q92 650 127 650 L145 650 Q180 650 191.5 638 Q203 626 203 592 L203 553 L348 553 Q574 553 574 335 Q574 118 348 118 L203 118 L203 58 Q203 24 191.5 12 Q180 0 145 0 L127 0 Q92 0 80.5 12 Q69 24 69 58 Z M348 428 L203 428 L203 243 L348 243 Q397 243 418.5 263 Q440 283 440 335 Q440 387 418 407.5 Q396 428 348 428 Z " />
<glyph glyph-name="germandbls" unicode="&#xdf;" horiz-adv-x="580" d="M533 162 Q533 68 478 28 Q423 -12 302 -12 Q287 -12 282 -11 Q248 -6 237 6.5 Q226 19 226 52 L226 71 Q226 104 237 111 Q248 118 283 114 Q292 113 307 113 Q362 113 380 122 Q398 131 398 156 Q398 176 372 191 Q346 206 315 216.5 Q284 227 258 256.5 Q232 286 232 332 Q232 365 251.5 391.5 Q271 418 294 431.5 Q317 445 336.5 461.5 Q356 478 356 493 Q356 515 341.5 525.5 Q327 536 288 536 Q232 536 212.5 514.5 Q193 493 193 439 L193 56 Q193 22 182 11 Q171 0 137 0 L115 0 Q81 0 70 11 Q59 22 59 56 L59 435 Q59 556 116.5 608 Q174 660 292 660 Q396 660 443.5 619 Q491 578 491 491 Q491 460 478 435.5 Q465 411 446.5 396.5 Q428 382 409.5 371 Q391 360 378 350.5 Q365 341 365 331 Q365 321 391.5 307.5 Q418 294 449 279.5 Q480 265 506.5 234 Q533 203 533 162 Z " />
<glyph glyph-name="agrave" unicode="&#xe0;" horiz-adv-x="497" d="M458 340 L458 149 Q458 68 406 28 Q354 -12 241 -12 Q128 -12 76 27.5 Q24 67 24 146 Q24 302 227 302 L328 302 L328 340 Q328 376 302 388.5 Q276 401 224 401 Q182 401 137 395 Q104 390 92.5 399.5 Q81 409 81 442 L81 446 Q81 478 92 490 Q103 502 135 507 Q172 512 216 512 Q334 512 396 472.5 Q458 433 458 340 Z M328 156 L328 204 L225 204 Q154 204 154 149 Q154 126 167 114 Q180 102 196 99.5 Q212 97 239 97 Q267 97 283.5 100 Q300 103 314 116.5 Q328 130 328 156 Z M194 608 L163 656 Q144 684 149 694 Q154 704 189 704 L210 704 Q244 704 261 693.5 Q278 683 292 651 L309 612 Q321 586 315.5 577 Q310 568 281 568 L268 568 Q239 568 224.5 576 Q210 584 194 608 Z " />
<glyph glyph-name="aacute" unicode="&#xe1;" horiz-adv-x="497" d="M458 340 L458 149 Q458 68 406 28 Q354 -12 241 -12 Q128 -12 76 27.5 Q24 67 24 146 Q24 302 227 302 L328 302 L328 340 Q328 376 302 388.5 Q276 401 224 401 Q182 401 137 395 Q104 390 92.5 399.5 Q81 409 81 442 L81 446 Q81 478 92 490 Q103 502 135 507 Q172 512 216 512 Q334 512 396 472.5 Q458 433 458 340 Z M328 156 L328 204 L225 204 Q154 204 154 149 Q154 126 167 114 Q180 102 196 99.5 Q212 97 239 97 Q267 97 283.5 100 Q300 103 314 116.5 Q328 130 328 156 Z M321 704 L346 704 Q380 704 385.5 694 Q391 684 371 656 L338 608 Q321 584 306.5 576 Q292 568 263 568 L247 568 Q218 568 212.5 577 Q207 586 219 612 L238 652 Q253 683 269.5 693.5 Q286 704 321 704 Z " />
<glyph glyph-name="acircumflex" unicode="&#xe2;" horiz-adv-x="497" d="M458 340 L458 149 Q458 68 406 28 Q354 -12 241 -12 Q128 -12 76 27.5 Q24 67 24 146 Q24 302 227 302 L328 302 L328 340 Q328 376 302 388.5 Q276 401 224 401 Q182 401 137 395 Q104 390 92.5 399.5 Q81 409 81 442 L81 446 Q81 478 92 490 Q103 502 135 507 Q172 512 216 512 Q334 512 396 472.5 Q458 433 458 340 Z M328 156 L328 204 L225 204 Q154 204 154 149 Q154 126 167 114 Q180 102 196 99.5 Q212 97 239 97 Q267 97 283.5 100 Q300 103 314 116.5 Q328 130 328 156 Z M125 606 L164 664 Q180 688 197.5 696.5 Q215 705 247 705 Q279 705 296.5 696.5 Q314 688 330 664 L369 606 Q383 584 379 576.5 Q375 569 349 569 L338 569 Q311 569 297.5 576.5 Q284 584 271 606 L265 615 Q256 628 247 628 Q238 628 229 615 L223 606 Q210 584 196.5 576.5 Q183 569 156 569 L145 569 Q119 569 115 576.5 Q111 584 125 606 Z " />
<glyph glyph-name="atilde" unicode="&#xe3;" horiz-adv-x="497" d="M458 340 L458 149 Q458 68 406 28 Q354 -12 241 -12 Q128 -12 76 27.5 Q24 67 24 146 Q24 302 227 302 L328 302 L328 340 Q328 376 302 388.5 Q276 401 224 401 Q182 401 137 395 Q104 390 92.5 399.5 Q81 409 81 442 L81 446 Q81 478 92 490 Q103 502 135 507 Q172 512 216 512 Q334 512 396 472.5 Q458 433 458 340 Z M328 156 L328 204 L225 204 Q154 204 154 149 Q154 126 167 114 Q180 102 196 99.5 Q212 97 239 97 Q267 97 283.5 100 Q300 103 314 116.5 Q328 130 328 156 Z M111 569 L102 569 Q79 569 72.5 573 Q66 577 68 596 Q80 706 181 706 Q220 706 264 679.5 Q308 653 319 653 Q340 653 347 674 Q352 687 354.5 692 Q357 697 364 700 Q371 703 385 703 L394 703 Q432 703 427 670 Q413 566 315 566 Q276 566 232 592.5 Q188 619 177 619 Q155 619 149 598 Q144 579 138 574 Q132 569 111 569 Z " />
<glyph glyph-name="adieresis" unicode="&#xe4;" horiz-adv-x="497" d="M458 340 L458 149 Q458 68 406 28 Q354 -12 241 -12 Q128 -12 76 27.5 Q24 67 24 146 Q24 302 227 302 L328 302 L328 340 Q328 376 302 388.5 Q276 401 224 401 Q182 401 137 395 Q104 390 92.5 399.5 Q81 409 81 442 L81 446 Q81 478 92 490 Q103 502 135 507 Q172 512 216 512 Q334 512 396 472.5 Q458 433 458 340 Z M328 156 L328 204 L225 204 Q154 204 154 149 Q154 126 167 114 Q180 102 196 99.5 Q212 97 239 97 Q267 97 283.5 100 Q300 103 314 116.5 Q328 130 328 156 Z M111 589 Q91 609 91 637 Q91 665 111 685.5 Q131 706 159 706 Q188 706 208 686 Q228 666 228 637 Q228 609 207.5 589 Q187 569 159 569 Q131 569 111 589 Z M287 637 Q287 666 307.5 686 Q328 706 356 706 Q384 706 404 685.5 Q424 665 424 637 Q424 609 403.5 589 Q383 569 356 569 Q328 569 307.5 589 Q287 609 287 637 Z " />
<glyph glyph-name="aring" unicode="&#xe5;" horiz-adv-x="497" d="M458 340 L458 149 Q458 68 406 28 Q354 -12 241 -12 Q128 -12 76 27.5 Q24 67 24 146 Q24 302 227 302 L328 302 L328 340 Q328 376 302 388.5 Q276 401 224 401 Q182 401 137 395 Q104 390 92.5 399.5 Q81 409 81 442 L81 446 Q81 478 92 490 Q103 502 135 507 Q172 512 216 512 Q334 512 396 472.5 Q458 433 458 340 Z M328 156 L328 204 L225 204 Q154 204 154 149 Q154 126 167 114 Q180 102 196 99.5 Q212 97 239 97 Q267 97 283.5 100 Q300 103 314 116.5 Q328 130 328 156 Z M314.5 567 Q286 542 247 542 Q208 542 180 567 Q152 592 152 636 Q152 681 180 706.5 Q208 732 247 732 Q287 732 315 706.5 Q343 681 343 636 Q343 592 314.5 567 Z M221 611 Q231 601 247 601 Q263 601 273.5 611 Q284 621 284 636 Q284 652 273.5 662.5 Q263 673 247 673 Q231 673 221 662.5 Q211 652 211 636 Q211 621 221 611 Z " />
<glyph glyph-name="ae" unicode="&#xe6;" horiz-adv-x="804" d="M775 296 Q775 277 773 255 Q770 224 758 213 Q746 202 714 202 L454 202 L454 187 Q454 148 485 129.5 Q516 111 585 111 Q623 111 707 125 Q738 130 748.5 121.5 Q759 113 759 81 L759 64 Q759 33 749 21 Q739 9 707 1 Q651 -12 584 -12 Q517 -12 466 4.5 Q415 21 404 53 L400 53 Q393 22 348 5 Q303 -12 241 -12 Q128 -12 76 27.5 Q24 67 24 146 Q24 302 227 302 L328 302 L328 340 Q328 376 302 388.5 Q276 401 224 401 Q181 401 137 395 Q105 390 93 400 Q81 410 81 441 L81 447 Q81 478 92.5 490 Q104 502 136 507 Q168 512 216 512 Q283 512 333 495.5 Q383 479 396 444 L400 444 Q409 475 454 493.5 Q499 512 556 512 Q775 512 775 296 Z M328 156 L328 204 L225 204 Q154 204 154 149 Q154 126 167 114 Q180 102 196 99.5 Q212 97 239 97 Q267 97 283.5 100 Q300 103 314 116.5 Q328 130 328 156 Z M454 323 L454 308 L651 308 L651 323 Q651 399 552 399 Q454 399 454 323 Z " />
<glyph glyph-name="ccedilla" unicode="&#xe7;" horiz-adv-x="429" d="M39 202 L39 298 Q39 397 100.5 454.5 Q162 512 278 512 Q313 512 343 505 Q375 498 385.5 485 Q396 472 396 438 L396 427 Q396 393 385 384 Q374 375 343 382 Q315 389 280 389 Q220 389 195 369.5 Q170 350 170 296 L170 206 Q170 153 197.5 132 Q225 111 289 111 Q318 111 350 117 Q383 123 394 114 Q405 105 405 71 L405 61 Q405 27 394.5 15 Q384 3 351 -4 Q316 -12 281 -12 L276 -36 Q316 -36 335.5 -52 Q355 -68 355 -108 Q355 -158 328 -180 Q301 -202 243 -202 Q225 -202 213 -200 Q195 -198 189 -191 Q183 -184 183 -166 L183 -160 Q183 -141 188 -135.5 Q193 -130 210 -132 Q218 -133 227 -133 Q261 -133 261 -109 Q261 -82 228 -82 L224 -82 Q206 -83 201 -77.5 Q196 -72 201 -55 L212 -7 Q39 21 39 202 Z " />
<glyph glyph-name="egrave" unicode="&#xe8;" horiz-adv-x="520" d="M491 296 Q491 275 489 257 Q485 223 472 212.5 Q459 202 424 202 L170 202 L170 187 Q170 148 201 129.5 Q232 111 301 111 Q356 111 422 125 Q454 132 464.5 122 Q475 112 475 77 L475 66 Q475 33 465 21 Q455 9 422 1 Q373 -12 300 -12 Q166 -12 102.5 40 Q39 92 39 207 L39 287 Q39 512 272 512 Q491 512 491 296 Z M170 323 L170 308 L367 308 L367 323 Q367 399 268 399 Q170 399 170 323 Z M187 608 L156 656 Q137 684 142 694 Q147 704 182 704 L203 704 Q237 704 254 693.5 Q271 683 285 651 L302 612 Q314 586 308.5 577 Q303 568 274 568 L261 568 Q232 568 217.5 576 Q203 584 187 608 Z " />
<glyph glyph-name="eacute" unicode="&#xe9;" horiz-adv-x="520" d="M491 296 Q491 275 489 257 Q485 223 472 212.5 Q459 202 424 202 L170 202 L170 187 Q170 148 201 129.5 Q232 111 301 111 Q356 111 422 125 Q454 132 464.5 122 Q475 112 475 77 L475 66 Q475 33 465 21 Q455 9 422 1 Q373 -12 300 -12 Q166 -12 102.5 40 Q39 92 39 207 L39 287 Q39 512 272 512 Q491 512 491 296 Z M170 323 L170 308 L367 308 L367 323 Q367 399 268 399 Q170 399 170 323 Z M314 704 L339 704 Q373 704 378.5 694 Q384 684 364 656 L331 608 Q314 584 299 576 Q284 568 256 568 L240 568 Q211 568 205.5 577 Q200 586 212 612 L231 652 Q246 683 262.5 693.5 Q279 704 314 704 Z " />
<glyph glyph-name="ecircumflex" unicode="&#xea;" horiz-adv-x="520" d="M491 296 Q491 275 489 257 Q485 223 472 212.5 Q459 202 424 202 L170 202 L170 187 Q170 148 201 129.5 Q232 111 301 111 Q356 111 422 125 Q454 132 464.5 122 Q475 112 475 77 L475 66 Q475 33 465 21 Q455 9 422 1 Q373 -12 300 -12 Q166 -12 102.5 40 Q39 92 39 207 L39 287 Q39 512 272 512 Q491 512 491 296 Z M170 323 L170 308 L367 308 L367 323 Q367 399 268 399 Q170 399 170 323 Z M128 606 L167 664 Q183 688 200.5 696.5 Q218 705 250 705 Q282 705 299.5 696.5 Q317 688 333 664 L372 606 Q386 584 382 576.5 Q378 569 352 569 L341 569 Q314 569 300.5 576.5 Q287 584 274 606 L268 615 Q259 628 250 628 Q241 628 232 615 L226 606 Q213 584 199.5 576.5 Q186 569 159 569 L148 569 Q122 569 118 576.5 Q114 584 128 606 Z " />
<glyph glyph-name="edieresis" unicode="&#xeb;" horiz-adv-x="520" d="M491 296 Q491 275 489 257 Q485 223 472 212.5 Q459 202 424 202 L170 202 L170 187 Q170 148 201 129.5 Q232 111 301 111 Q356 111 422 125 Q454 132 464.5 122 Q475 112 475 77 L475 66 Q475 33 465 21 Q455 9 422 1 Q373 -12 300 -12 Q166 -12 102.5 40 Q39 92 39 207 L39 287 Q39 512 272 512 Q491 512 491 296 Z M170 323 L170 308 L367 308 L367 323 Q367 399 268 399 Q170 399 170 323 Z M119 589 Q99 609 99 637 Q99 665 119 685.5 Q139 706 167 706 Q196 706 216 686 Q236 666 236 637 Q236 609 215.5 589 Q195 569 167 569 Q139 569 119 589 Z M295 637 Q295 666 315.5 686 Q336 706 364 706 Q392 706 412 685.5 Q432 665 432 637 Q432 609 411.5 589 Q391 569 364 569 Q336 569 315.5 589 Q295 609 295 637 Z " />
<glyph glyph-name="igrave" unicode="&#xec;" horiz-adv-x="248" d="M47 608 L16 656 Q-3 684 2 694 Q7 704 42 704 L63 704 Q97 704 114 693.5 Q131 683 145 651 L162 612 Q174 586 168.5 577 Q163 568 134 568 L121 568 Q92 568 77.5 576 Q63 584 47 608 Z M59 56 L59 444 Q59 478 70 489 Q81 500 115 500 L133 500 Q167 500 178 489 Q189 478 189 444 L189 56 Q189 22 178 11 Q167 0 133 0 L115 0 Q81 0 70 11 Q59 22 59 56 Z " />
<glyph glyph-name="iacute" unicode="&#xed;" horiz-adv-x="248" d="M190 704 L215 704 Q249 704 254.5 694 Q260 684 240 656 L207 608 Q191 584 175.5 576 Q160 568 132 568 L116 568 Q87 568 81.5 577 Q76 586 88 612 L107 652 Q122 683 138.5 693.5 Q155 704 190 704 Z M59 56 L59 444 Q59 478 70 489 Q81 500 115 500 L133 500 Q167 500 178 489 Q189 478 189 444 L189 56 Q189 22 178 11 Q167 0 133 0 L115 0 Q81 0 70 11 Q59 22 59 56 Z " />
<glyph glyph-name="icircumflex" unicode="&#xee;" horiz-adv-x="248" d="M2 606 L41 664 Q57 688 74.5 696.5 Q92 705 124 705 Q156 705 173.5 696.5 Q191 688 207 664 L246 606 Q260 584 256 576.5 Q252 569 226 569 L215 569 Q188 569 174.5 576.5 Q161 584 148 606 L142 615 Q133 628 124 628 Q115 628 106 615 L100 606 Q87 584 73.5 576.5 Q60 569 33 569 L22 569 Q-4 569 -8 576.5 Q-12 584 2 606 Z M59 56 L59 444 Q59 478 70 489 Q81 500 115 500 L133 500 Q167 500 178 489 Q189 478 189 444 L189 56 Q189 22 178 11 Q167 0 133 0 L115 0 Q81 0 70 11 Q59 22 59 56 Z " />
<glyph glyph-name="idieresis" unicode="&#xef;" horiz-adv-x="248" d="M-22 589 Q-42 609 -42 637 Q-42 665 -22 685.5 Q-2 706 26 706 Q54 706 74.5 686 Q95 666 95 637 Q95 609 74.5 589 Q54 569 26 569 Q-2 569 -22 589 Z M154 637 Q154 666 174 686 Q194 706 223 706 Q251 706 271 685.5 Q291 665 291 637 Q291 609 270.5 589 Q250 569 223 569 Q195 569 174.5 589 Q154 609 154 637 Z M59 56 L59 444 Q59 478 70 489 Q81 500 115 500 L133 500 Q167 500 178 489 Q189 478 189 444 L189 56 Q189 22 178 11 Q167 0 133 0 L115 0 Q81 0 70 11 Q59 22 59 56 Z " />
<glyph glyph-name="eth" unicode="&#xf0;" horiz-adv-x="570" d="M182 532 L238 588 Q204 602 163 609 Q130 616 122 629.5 Q114 643 124 675 L126 681 Q136 713 150 720.5 Q164 728 197 722 Q268 708 329 679 L365 715 Q380 730 390 730 Q400 730 415 715 L424 706 Q439 691 439 681 Q439 671 424 656 L399 631 Q459 579 490 506 Q521 433 521 313 Q521 139 465.5 63.5 Q410 -12 257 -12 Q43 -12 43 202 Q43 312 96.5 360 Q150 408 267 408 Q333 408 382 389 Q372 488 310 542 L241 473 Q226 458 216 458 Q206 458 191 473 L182 482 Q167 497 167 507 Q167 517 182 532 Z M271 293 Q220 293 198.5 274.5 Q177 256 177 202 Q177 154 196.5 133.5 Q216 113 261 113 Q335 113 358.5 143.5 Q382 174 382 270 Q336 293 271 293 Z " />
<glyph glyph-name="ntilde" unicode="&#xf1;" horiz-adv-x="552" d="M180 310 L180 56 Q180 22 169 11 Q158 0 124 0 L105 0 Q71 0 60 11 Q49 22 49 56 L49 310 Q49 409 106.5 460.5 Q164 512 277 512 Q394 512 448.5 462 Q503 412 503 310 L503 56 Q503 22 492 11 Q481 0 447 0 L428 0 Q394 0 383 11 Q372 22 372 56 L372 310 Q372 352 353.5 370.5 Q335 389 277 389 Q219 389 199.5 370.5 Q180 352 180 310 Z M136 569 L127 569 Q104 569 97.5 573 Q91 577 93 596 Q105 706 206 706 Q245 706 289 679.5 Q333 653 344 653 Q365 653 372 674 Q377 687 379.5 692 Q382 697 389 700 Q396 703 410 703 L419 703 Q439 703 446.5 695 Q454 687 452 670 Q438 566 340 566 Q301 566 257 592.5 Q213 619 202 619 Q180 619 174 598 Q169 579 163 574 Q157 569 136 569 Z " />
<glyph glyph-name="ograve" unicode="&#xf2;" horiz-adv-x="556" d="M386 210 L386 290 Q386 342 364.5 365.5 Q343 389 279 389 Q215 389 192.5 365.5 Q170 342 170 290 L170 210 Q170 158 192.5 134.5 Q215 111 279 111 Q343 111 364.5 134.5 Q386 158 386 210 Z M279 -12 Q157 -12 98 43 Q39 98 39 210 L39 290 Q39 397 100.5 454.5 Q162 512 279 512 Q401 512 459 457 Q517 402 517 290 L517 210 Q517 102 456.5 45 Q396 -12 279 -12 Z M197 608 L166 656 Q147 684 152 694 Q157 704 192 704 L213 704 Q247 704 264 693.5 Q281 683 295 651 L312 612 Q324 586 318.5 577 Q313 568 284 568 L271 568 Q242 568 227.5 576 Q213 584 197 608 Z " />
<glyph glyph-name="oacute" unicode="&#xf3;" horiz-adv-x="556" d="M386 210 L386 290 Q386 342 364.5 365.5 Q343 389 279 389 Q215 389 192.5 365.5 Q170 342 170 290 L170 210 Q170 158 192.5 134.5 Q215 111 279 111 Q343 111 364.5 134.5 Q386 158 386 210 Z M279 -12 Q157 -12 98 43 Q39 98 39 210 L39 290 Q39 397 100.5 454.5 Q162 512 279 512 Q401 512 459 457 Q517 402 517 290 L517 210 Q517 102 456.5 45 Q396 -12 279 -12 Z M350 704 L375 704 Q409 704 414.5 694 Q420 684 400 656 L367 608 Q351 584 335.5 576 Q320 568 292 568 L276 568 Q247 568 241.5 577 Q236 586 248 612 L267 652 Q282 683 298.5 693.5 Q315 704 350 704 Z " />
<glyph glyph-name="ocircumflex" unicode="&#xf4;" horiz-adv-x="556" d="M386 210 L386 290 Q386 342 364.5 365.5 Q343 389 279 389 Q215 389 192.5 365.5 Q170 342 170 290 L170 210 Q170 158 192.5 134.5 Q215 111 279 111 Q343 111 364.5 134.5 Q386 158 386 210 Z M279 -12 Q157 -12 98 43 Q39 98 39 210 L39 290 Q39 397 100.5 454.5 Q162 512 279 512 Q401 512 459 457 Q517 402 517 290 L517 210 Q517 102 456.5 45 Q396 -12 279 -12 Z M156 606 L195 664 Q211 688 228.5 696.5 Q246 705 278 705 Q310 705 327.5 696.5 Q345 688 361 664 L400 606 Q414 584 410 576.5 Q406 569 380 569 L369 569 Q342 569 328.5 576.5 Q315 584 302 606 L296 615 Q287 628 278 628 Q269 628 260 615 L254 606 Q241 584 227.5 576.5 Q214 569 187 569 L176 569 Q150 569 146 576.5 Q142 584 156 606 Z " />
<glyph glyph-name="otilde" unicode="&#xf5;" horiz-adv-x="556" d="M386 210 L386 290 Q386 342 364.5 365.5 Q343 389 279 389 Q215 389 192.5 365.5 Q170 342 170 290 L170 210 Q170 158 192.5 134.5 Q215 111 279 111 Q343 111 364.5 134.5 Q386 158 386 210 Z M279 -12 Q157 -12 98 43 Q39 98 39 210 L39 290 Q39 397 100.5 454.5 Q162 512 279 512 Q401 512 459 457 Q517 402 517 290 L517 210 Q517 102 456.5 45 Q396 -12 279 -12 Z M141 569 L132 569 Q109 569 102.5 573 Q96 577 98 596 Q110 706 211 706 Q250 706 294 679.5 Q338 653 349 653 Q370 653 377 674 Q382 687 384.5 692 Q387 697 394 700 Q401 703 415 703 L424 703 Q462 703 457 670 Q443 566 345 566 Q306 566 262 592.5 Q218 619 207 619 Q185 619 179 598 Q174 579 168 574 Q162 569 141 569 Z " />
<glyph glyph-name="odieresis" unicode="&#xf6;" horiz-adv-x="556" d="M386 210 L386 290 Q386 342 364.5 365.5 Q343 389 279 389 Q215 389 192.5 365.5 Q170 342 170 290 L170 210 Q170 158 192.5 134.5 Q215 111 279 111 Q343 111 364.5 134.5 Q386 158 386 210 Z M279 -12 Q157 -12 98 43 Q39 98 39 210 L39 290 Q39 397 100.5 454.5 Q162 512 279 512 Q401 512 459 457 Q517 402 517 290 L517 210 Q517 102 456.5 45 Q396 -12 279 -12 Z M132 589 Q112 609 112 637 Q112 665 132 685.5 Q152 706 180 706 Q208 706 228.5 686 Q249 666 249 637 Q249 609 228.5 589 Q208 569 180 569 Q152 569 132 589 Z M308 637 Q308 666 328 686 Q348 706 377 706 Q405 706 425 685.5 Q445 665 445 637 Q445 609 424.5 589 Q404 569 377 569 Q349 569 328.5 589 Q308 609 308 637 Z " />
<glyph glyph-name="divide" unicode="&#xf7;" horiz-adv-x="564" d="M227 82 Q204 105 204 137 Q204 169 227 192 Q250 215 282 215 Q314 215 337 192 Q360 169 360 137 Q360 105 337 82 Q314 59 282 59 Q250 59 227 82 Z M227 458 Q204 481 204 513 Q204 545 227 568 Q250 591 282 591 Q314 591 337 568 Q360 545 360 513 Q360 481 337 458 Q314 435 282 435 Q250 435 227 458 Z M517 332 L517 318 Q517 290 507.5 280 Q498 270 469 270 L95 270 Q66 270 56.5 280 Q47 290 47 318 L47 332 Q47 360 56.5 370 Q66 380 95 380 L469 380 Q498 380 507.5 370 Q517 360 517 332 Z " />
<glyph glyph-name="oslash" unicode="&#xf8;" horiz-adv-x="556" d="M279 -12 Q226 -12 184 -1 L175 -17 Q164 -37 153.5 -39.5 Q143 -42 123 -31 L113 -26 Q93 -15 90.5 -4.5 Q88 6 99 26 L105 37 Q39 91 39 210 L39 290 Q39 397 100.5 454.5 Q162 512 279 512 Q331 512 373 501 L383 518 Q394 538 404.5 540.5 Q415 543 435 532 L445 526 Q465 515 467.5 504.5 Q470 494 459 474 L452 463 Q517 408 517 290 L517 210 Q517 102 456.5 45 Q396 -12 279 -12 Z M170 210 Q170 169 182 148 L320 386 Q302 389 279 389 Q215 389 192.5 365.5 Q170 342 170 290 L170 210 Z M386 210 L386 290 Q386 332 374 353 L237 114 Q255 111 279 111 Q343 111 364.5 134.5 Q386 158 386 210 Z " />
<glyph glyph-name="ugrave" unicode="&#xf9;" horiz-adv-x="552" d="M180 444 L180 190 Q180 148 199.5 129.5 Q219 111 277 111 Q335 111 353.5 129.5 Q372 148 372 190 L372 444 Q372 478 383 489 Q394 500 428 500 L447 500 Q481 500 492 489 Q503 478 503 444 L503 190 Q503 88 448.5 38 Q394 -12 277 -12 Q164 -12 106.5 39.5 Q49 91 49 190 L49 444 Q49 478 60 489 Q71 500 105 500 L124 500 Q158 500 169 489 Q180 478 180 444 Z M186 609 L155 657 Q136 686 141 695.5 Q146 705 181 705 L202 705 Q236 705 253 694.5 Q270 684 284 652 L301 613 Q313 587 307.5 578 Q302 569 273 569 L260 569 Q231 569 216.5 577 Q202 585 186 609 Z " />
<glyph glyph-name="uacute" unicode="&#xfa;" horiz-adv-x="552" d="M180 444 L180 190 Q180 148 199.5 129.5 Q219 111 277 111 Q335 111 353.5 129.5 Q372 148 372 190 L372 444 Q372 478 383 489 Q394 500 428 500 L447 500 Q481 500 492 489 Q503 478 503 444 L503 190 Q503 88 448.5 38 Q394 -12 277 -12 Q164 -12 106.5 39.5 Q49 91 49 190 L49 444 Q49 478 60 489 Q71 500 105 500 L124 500 Q158 500 169 489 Q180 478 180 444 Z M343 704 L368 704 Q402 704 407.5 694 Q413 684 393 656 L360 608 Q344 584 329 576 Q314 568 285 568 L269 568 Q240 568 234.5 577 Q229 586 241 612 L260 652 Q275 683 291.5 693.5 Q308 704 343 704 Z " />
<glyph glyph-name="ucircumflex" unicode="&#xfb;" horiz-adv-x="552" d="M180 444 L180 190 Q180 148 199.5 129.5 Q219 111 277 111 Q335 111 353.5 129.5 Q372 148 372 190 L372 444 Q372 478 383 489 Q394 500 428 500 L447 500 Q481 500 492 489 Q503 478 503 444 L503 190 Q503 88 448.5 38 Q394 -12 277 -12 Q164 -12 106.5 39.5 Q49 91 49 190 L49 444 Q49 478 60 489 Q71 500 105 500 L124 500 Q158 500 169 489 Q180 478 180 444 Z M149 606 L188 664 Q204 688 221.5 696.5 Q239 705 271 705 Q303 705 320.5 696.5 Q338 688 354 664 L393 606 Q407 584 403 576.5 Q399 569 373 569 L362 569 Q335 569 321.5 576.5 Q308 584 295 606 L289 615 Q280 628 271 628 Q262 628 253 615 L247 606 Q234 584 220.5 576.5 Q207 569 180 569 L169 569 Q143 569 139 576.5 Q135 584 149 606 Z " />
<glyph glyph-name="udieresis" unicode="&#xfc;" horiz-adv-x="552" d="M180 444 L180 190 Q180 148 199.5 129.5 Q219 111 277 111 Q335 111 353.5 129.5 Q372 148 372 190 L372 444 Q372 478 383 489 Q394 500 428 500 L447 500 Q481 500 492 489 Q503 478 503 444 L503 190 Q503 88 448.5 38 Q394 -12 277 -12 Q164 -12 106.5 39.5 Q49 91 49 190 L49 444 Q49 478 60 489 Q71 500 105 500 L124 500 Q158 500 169 489 Q180 478 180 444 Z M131 589 Q111 609 111 637 Q111 665 131 685.5 Q151 706 179 706 Q208 706 228 686 Q248 666 248 637 Q248 609 227.5 589 Q207 569 179 569 Q151 569 131 589 Z M307 637 Q307 666 327.5 686 Q348 706 376 706 Q404 706 424 685.5 Q444 665 444 637 Q444 609 423.5 589 Q403 569 376 569 Q348 569 327.5 589 Q307 609 307 637 Z " />
<glyph glyph-name="yacute" unicode="&#xfd;" horiz-adv-x="550" d="M167 445 L233 143 Q239 116 248.5 108.5 Q258 101 280 101 Q294 101 302.5 109.5 Q311 118 317 143 L383 445 Q391 478 404 489 Q417 500 451 500 L473 500 Q507 500 515.5 489 Q524 478 517 445 L415 0 Q390 -111 334.5 -162.5 Q279 -214 199 -226 Q164 -231 151.5 -223 Q139 -215 132 -180 L131 -175 Q123 -143 130.5 -131 Q138 -119 169 -112 Q258 -92 278 -8 Q266 -12 237 -12 Q175 -12 149 22 Q123 56 106 128 L33 445 Q26 478 34.5 489 Q43 500 77 500 L99 500 Q133 500 146 489 Q159 478 167 445 Z M340 704 L365 704 Q399 704 404.5 694 Q410 684 390 656 L357 608 Q340 584 325 576 Q310 568 282 568 L266 568 Q237 568 231.5 577 Q226 586 238 612 L257 652 Q272 683 288.5 693.5 Q305 704 340 704 Z " />
<glyph glyph-name="thorn" unicode="&#xfe;" horiz-adv-x="565" d="M526 287 L526 213 Q526 105 472.5 46.5 Q419 -12 316 -12 Q221 -12 179 45 L179 -144 Q179 -178 168 -189 Q157 -200 123 -200 L105 -200 Q71 -200 60 -189 Q49 -178 49 -144 L49 644 Q49 678 60 689 Q71 700 105 700 L123 700 Q157 700 168 689 Q179 678 179 644 L179 455 Q221 512 316 512 Q419 512 472.5 453.5 Q526 395 526 287 Z M395 210 L395 290 Q395 342 373.5 365.5 Q352 389 288 389 Q224 389 201.5 365.5 Q179 342 179 290 L179 210 Q179 158 201.5 134.5 Q224 111 288 111 Q352 111 373.5 134.5 Q395 158 395 210 Z " />
<glyph glyph-name="ydieresis" unicode="&#xff;" horiz-adv-x="550" d="M167 445 L233 143 Q239 116 248.5 108.5 Q258 101 280 101 Q294 101 302.5 109.5 Q311 118 317 143 L383 445 Q391 478 404 489 Q417 500 451 500 L473 500 Q507 500 515.5 489 Q524 478 517 445 L415 0 Q390 -111 334.5 -162.5 Q279 -214 199 -226 Q164 -231 151.5 -223 Q139 -215 132 -180 L131 -175 Q123 -143 130.5 -131 Q138 -119 169 -112 Q258 -92 278 -8 Q266 -12 237 -12 Q175 -12 149 22 Q123 56 106 128 L33 445 Q26 478 34.5 489 Q43 500 77 500 L99 500 Q133 500 146 489 Q159 478 167 445 Z M129 589 Q109 609 109 637 Q109 665 129 685.5 Q149 706 177 706 Q206 706 226 686 Q246 666 246 637 Q246 609 225.5 589 Q205 569 177 569 Q149 569 129 589 Z M305 637 Q305 666 325.5 686 Q346 706 374 706 Q402 706 422 685.5 Q442 665 442 637 Q442 609 421.5 589 Q401 569 374 569 Q346 569 325.5 589 Q305 609 305 637 Z " />
<glyph glyph-name="Aogonek" unicode="&#x104;" horiz-adv-x="657" d="M510 470 L622 56 Q632 18 618 7 Q579 -23 569.5 -42.5 Q560 -62 560 -91 Q560 -117 589 -117 Q593 -117 601 -116 Q621 -114 625 -119 Q629 -124 629 -146 L629 -158 Q629 -179 622 -188 Q615 -197 594 -200 Q584 -202 563 -202 Q508 -202 482 -181 Q456 -160 456 -111 Q456 -39 526 3 Q498 11 487 56 L461 158 L197 158 L171 56 Q162 22 147.5 11 Q133 0 98 0 L79 0 Q44 0 35.5 11 Q27 22 36 56 L148 470 Q163 526 174.5 555.5 Q186 585 206 612 Q226 639 255 649.5 Q284 660 329 660 Q374 660 403 649.5 Q432 639 452 612 Q472 585 483.5 555.5 Q495 526 510 470 Z M277 464 L228 278 L429 278 L381 464 Q368 513 360 526.5 Q352 540 329 540 Q306 540 298 526.5 Q290 513 277 464 Z " />
<glyph glyph-name="aogonek" unicode="&#x105;" horiz-adv-x="497" d="M458 340 L458 149 Q458 39 360 4 Q320 -10 295 -37.5 Q270 -65 270 -91 Q270 -117 299 -117 Q303 -117 311 -116 Q331 -114 335 -119 Q339 -124 339 -146 L339 -158 Q339 -179 332 -188 Q325 -197 304 -200 Q294 -202 273 -202 Q218 -202 192 -181 Q166 -160 166 -111 Q166 -73 184.5 -51.5 Q203 -30 239 -12 Q127 -11 75.5 28 Q24 67 24 146 Q24 302 227 302 L328 302 L328 340 Q328 376 302 388.5 Q276 401 224 401 Q182 401 137 395 Q104 390 92.5 399.5 Q81 409 81 442 L81 446 Q81 478 92 490 Q103 502 135 507 Q172 512 216 512 Q334 512 396 472.5 Q458 433 458 340 Z M328 156 L328 204 L225 204 Q154 204 154 149 Q154 126 167 114 Q180 102 196 99.5 Q212 97 239 97 Q267 97 283.5 100 Q300 103 314 116.5 Q328 130 328 156 Z " />
<glyph glyph-name="Cacute" unicode="&#x106;" horiz-adv-x="535" d="M187 399 L187 239 Q187 180 219.5 146.5 Q252 113 338 113 Q392 113 446 128 Q479 137 490.5 127.5 Q502 118 502 83 L502 75 Q502 41 491 28 Q480 15 447 3 Q404 -12 332 -12 Q191 -12 120 47.5 Q49 107 49 239 L49 399 Q49 522 120 591 Q191 660 333 660 Q403 660 446 643 Q480 630 491 617 Q502 604 502 571 L502 563 Q502 528 489.5 518 Q477 508 444 518 Q388 535 333 535 Q256 535 221.5 502 Q187 469 187 399 Z M376 842 L401 842 Q435 842 440.5 832 Q446 822 426 794 L393 746 Q376 722 361 714 Q346 706 318 706 L302 706 Q273 706 267.5 715 Q262 724 274 750 L293 790 Q308 821 324.5 831.5 Q341 842 376 842 Z " />
<glyph glyph-name="cacute" unicode="&#x107;" horiz-adv-x="429" d="M39 202 L39 298 Q39 397 100.5 454.5 Q162 512 278 512 Q313 512 343 505 Q375 498 385.5 485 Q396 472 396 438 L396 427 Q396 393 385 384 Q374 375 343 382 Q315 389 280 389 Q220 389 195 369.5 Q170 350 170 296 L170 206 Q170 153 197.5 132 Q225 111 289 111 Q318 111 350 117 Q383 123 394 114 Q405 105 405 71 L405 61 Q405 27 394 14.5 Q383 2 350 -5 Q320 -12 283 -12 Q39 -12 39 202 Z M308 704 L333 704 Q367 704 372.5 694 Q378 684 358 656 L325 608 Q309 584 293.5 576 Q278 568 250 568 L234 568 Q205 568 199.5 577 Q194 586 206 612 L225 652 Q240 683 256.5 693.5 Q273 704 308 704 Z " />
<glyph glyph-name="Eogonek" unicode="&#x118;" horiz-adv-x="583" d="M203 270 L203 155 Q203 125 233 125 L476 125 Q510 125 522 113.5 Q534 102 534 67 L534 58 Q534 19 516 7 Q447 -41 447 -91 Q447 -117 476 -117 Q480 -117 488 -116 Q508 -114 512 -119 Q516 -124 516 -146 L516 -158 Q516 -179 509 -188 Q502 -197 481 -200 Q471 -202 450 -202 Q395 -202 369 -181 Q343 -160 343 -111 Q343 -71 362 -46 Q381 -21 418 0 L189 0 Q126 0 97.5 28.5 Q69 57 69 120 L69 530 Q69 593 97.5 621.5 Q126 650 189 650 L476 650 Q510 650 522 638 Q534 626 534 592 L534 583 Q534 548 522 536.5 Q510 525 476 525 L233 525 Q203 525 203 495 L203 395 L436 395 Q470 395 482 383.5 Q494 372 494 337 L494 328 Q494 294 482 282 Q470 270 436 270 L203 270 Z " />
<glyph glyph-name="eogonek" unicode="&#x119;" horiz-adv-x="520" d="M491 296 Q491 275 489 257 Q485 223 472 212.5 Q459 202 424 202 L170 202 L170 187 Q170 148 201 129.5 Q232 111 301 111 Q356 111 422 125 Q454 132 464.5 122 Q475 112 475 77 L475 66 Q475 26 456 13 Q410 -19 393.5 -42 Q377 -65 377 -91 Q377 -117 406 -117 Q410 -117 418 -116 Q438 -114 442 -119 Q446 -124 446 -146 L446 -158 Q446 -179 439 -188 Q432 -197 411 -200 Q401 -202 380 -202 Q325 -202 299 -181 Q273 -160 273 -111 Q273 -74 289.5 -51.5 Q306 -29 341 -10 Q315 -12 300 -12 Q166 -12 102.5 40 Q39 92 39 207 L39 287 Q39 512 272 512 Q491 512 491 296 Z M170 323 L170 308 L367 308 L367 323 Q367 399 268 399 Q170 399 170 323 Z " />
<glyph glyph-name="dotlessi" unicode="&#x131;" horiz-adv-x="248" d="M59 56 L59 444 Q59 478 70 489 Q81 500 115 500 L133 500 Q167 500 178 489 Q189 478 189 444 L189 56 Q189 22 178 11 Q167 0 133 0 L115 0 Q81 0 70 11 Q59 22 59 56 Z " />
<glyph glyph-name="Lslash" unicode="&#x141;" horiz-adv-x="538" d="M26 324 L22 336 Q13 358 18 369 Q23 380 46 388 L89 403 L89 592 Q89 626 100.5 638 Q112 650 147 650 L165 650 Q200 650 211.5 638 Q223 626 223 592 L223 452 L245 460 Q268 468 278.5 463.5 Q289 459 298 436 L302 424 Q310 402 305 391 Q300 380 277 372 L223 352 L223 155 Q223 125 253 125 L456 125 Q490 125 502 113.5 Q514 102 514 67 L514 58 Q514 24 502 12 Q490 0 456 0 L209 0 Q146 0 117.5 28.5 Q89 57 89 120 L89 304 L78 300 Q56 292 45 297 Q34 302 26 324 Z " />
<glyph glyph-name="lslash" unicode="&#x142;" horiz-adv-x="322" d="M89 151 L89 303 L79 300 Q56 292 45.5 297 Q35 302 26 324 L21 336 Q12 359 17 369.5 Q22 380 46 388 L89 403 L89 644 Q89 678 100 689 Q111 700 145 700 L163 700 Q197 700 208 689 Q219 678 219 644 L219 450 L240 458 Q262 466 272.5 461 Q283 456 292 434 L297 422 Q306 400 301 389 Q296 378 273 370 L219 350 L219 180 Q219 142 229.5 127.5 Q240 113 263 113 L268 113 Q288 113 295 104.5 Q302 96 302 67 L302 48 Q302 18 295 7 Q288 -4 268 -8 Q258 -10 238 -10 Q170 -10 129.5 29.5 Q89 69 89 151 Z " />
<glyph glyph-name="Nacute" unicode="&#x143;" horiz-adv-x="684" d="M69 58 L69 508 Q69 594 101.5 628 Q134 662 208 662 Q270 662 300.5 636 Q331 610 348 540 L452 121 Q457 100 470 100 Q479 100 482 105.5 Q485 111 485 128 L485 592 Q485 626 496.5 638 Q508 650 543 650 L557 650 Q592 650 603.5 638 Q615 626 615 592 L615 142 Q615 56 583.5 22 Q552 -12 481 -12 Q416 -12 384.5 15.5 Q353 43 335 114 L233 522 Q229 539 225.5 544.5 Q222 550 213 550 Q204 550 201.5 544.5 Q199 539 199 520 L199 58 Q199 24 187.5 12 Q176 0 141 0 L127 0 Q92 0 80.5 12 Q69 24 69 58 Z M409 842 L434 842 Q468 842 473.5 832 Q479 822 459 794 L426 746 Q410 722 395 714 Q380 706 351 706 L335 706 Q306 706 300.5 715 Q295 724 307 750 L326 790 Q341 821 357.5 831.5 Q374 842 409 842 Z " />
<glyph glyph-name="nacute" unicode="&#x144;" horiz-adv-x="552" d="M180 310 L180 56 Q180 22 169 11 Q158 0 124 0 L105 0 Q71 0 60 11 Q49 22 49 56 L49 310 Q49 409 106.5 460.5 Q164 512 277 512 Q394 512 448.5 462 Q503 412 503 310 L503 56 Q503 22 492 11 Q481 0 447 0 L428 0 Q394 0 383 11 Q372 22 372 56 L372 310 Q372 352 353.5 370.5 Q335 389 277 389 Q219 389 199.5 370.5 Q180 352 180 310 Z M308 704 L333 704 Q367 704 372.5 694 Q378 684 358 656 L325 608 Q309 584 293.5 576 Q278 568 250 568 L234 568 Q205 568 199.5 577 Q194 586 206 612 L225 652 Q240 683 256.5 693.5 Q273 704 308 704 Z " />
<glyph glyph-name="OE" unicode="&#x152;" horiz-adv-x="977" d="M325 -13 Q171 -13 110 56 Q49 125 49 253 L49 393 Q49 521 110 590 Q171 659 325 659 Q440 659 503 606 Q529 650 607 650 L870 650 Q904 650 916 638 Q928 626 928 592 L928 583 Q928 548 916 536.5 Q904 525 870 525 L627 525 Q597 525 597 495 L597 395 L830 395 Q864 395 876 383.5 Q888 372 888 337 L888 328 Q888 294 876 282 Q864 270 830 270 L597 270 L597 155 Q597 125 627 125 L870 125 Q904 125 916 113.5 Q928 102 928 67 L928 58 Q928 24 916 12 Q904 0 870 0 L607 0 Q533 0 505 41 Q443 -13 325 -13 Z M466 253 L466 393 Q466 468 438 501 Q410 534 325 534 Q240 534 212 501 Q184 468 184 393 L184 253 Q184 178 212 145 Q240 112 325 112 Q410 112 438 145 Q466 178 466 253 Z " />
<glyph glyph-name="oe" unicode="&#x153;" horiz-adv-x="862" d="M279 -12 Q157 -12 98 43 Q39 98 39 210 L39 290 Q39 397 100.5 454.5 Q162 512 279 512 Q398 512 450 446 Q502 512 614 512 Q833 512 833 296 Q833 278 831 254 Q828 223 816.5 212.5 Q805 202 773 202 L512 202 L512 187 Q512 148 543 129.5 Q574 111 643 111 Q701 111 764 125 Q795 132 806 123 Q817 114 817 82 L817 63 Q817 32 806 19.5 Q795 7 764 1 Q699 -12 642 -12 Q503 -12 447 56 Q393 -12 279 -12 Z M386 210 L386 290 Q386 342 364.5 365.5 Q343 389 279 389 Q215 389 192.5 365.5 Q170 342 170 290 L170 210 Q170 158 192.5 134.5 Q215 111 279 111 Q343 111 364.5 134.5 Q386 158 386 210 Z M512 323 L512 308 L709 308 L709 323 Q709 399 610 399 Q512 399 512 323 Z " />
<glyph glyph-name="Sacute" unicode="&#x15a;" horiz-adv-x="531" d="M37 76 L37 86 Q37 121 49 131.5 Q61 142 95 133 Q171 113 247 113 Q307 113 331.5 125 Q356 137 356 167 Q356 189 340 205 Q324 221 276 249 L148 324 Q47 383 47 492 Q47 576 102.5 618 Q158 660 280 660 Q348 660 405 644 Q441 634 452.5 621 Q464 608 464 574 L464 564 Q464 528 452 518.5 Q440 509 405 519 Q353 535 280 535 Q229 535 207 525 Q185 515 185 488 Q185 470 196.5 457.5 Q208 445 240 426 L373 348 Q436 311 465 271 Q494 231 494 167 Q494 79 435.5 33.5 Q377 -12 245 -12 Q162 -12 94 7 Q59 17 48 29.5 Q37 42 37 76 Z M310 842 L335 842 Q369 842 374.5 832 Q380 822 360 794 L327 746 Q310 722 295 714 Q280 706 252 706 L236 706 Q207 706 201.5 715 Q196 724 208 750 L227 790 Q242 821 258.5 831.5 Q275 842 310 842 Z " />
<glyph glyph-name="sacute" unicode="&#x15b;" horiz-adv-x="468" d="M34 67 L34 78 Q34 113 45.5 123.5 Q57 134 89 125 Q146 109 225 109 Q269 109 285.5 115 Q302 121 302 138 Q302 151 290.5 159.5 Q279 168 239 184 L146 223 Q93 245 67.5 276 Q42 307 42 365 Q42 440 89.5 476 Q137 512 246 512 Q304 512 352 500 Q385 492 396 479.5 Q407 467 407 434 L407 424 Q407 390 395.5 380.5 Q384 371 351 379 Q301 391 244 391 Q201 391 185.5 384.5 Q170 378 170 364 Q170 353 178.5 346.5 Q187 340 211 330 L315 289 Q374 266 402 232.5 Q430 199 430 139 Q430 61 379.5 24.5 Q329 -12 215 -12 Q141 -12 89 1 Q56 9 45 21.5 Q34 34 34 67 Z M294 704 L319 704 Q353 704 358.5 694 Q364 684 344 656 L311 608 Q294 584 279 576 Q264 568 236 568 L220 568 Q191 568 185.5 577 Q180 586 192 612 L211 652 Q226 683 242.5 693.5 Q259 704 294 704 Z " />
<glyph glyph-name="Scaron" unicode="&#x160;" horiz-adv-x="531" d="M37 76 L37 86 Q37 121 49 131.5 Q61 142 95 133 Q171 113 247 113 Q307 113 331.5 125 Q356 137 356 167 Q356 189 340 205 Q324 221 276 249 L148 324 Q47 383 47 492 Q47 576 102.5 618 Q158 660 280 660 Q348 660 405 644 Q441 634 452.5 621 Q464 608 464 574 L464 564 Q464 528 452 518.5 Q440 509 405 519 Q353 535 280 535 Q229 535 207 525 Q185 515 185 488 Q185 470 196.5 457.5 Q208 445 240 426 L373 348 Q436 311 465 271 Q494 231 494 167 Q494 79 435.5 33.5 Q377 -12 245 -12 Q162 -12 94 7 Q59 17 48 29.5 Q37 42 37 76 Z M182 747 L143 805 Q129 828 133 835 Q137 842 163 842 L174 842 Q201 842 214.5 834.5 Q228 827 241 805 L247 796 Q256 783 265 783 Q274 783 283 796 L289 805 Q302 827 315.5 834.5 Q329 842 356 842 L367 842 Q393 842 397 835 Q401 828 387 805 L348 747 Q332 723 314.5 714.5 Q297 706 265 706 Q233 706 215.5 714.5 Q198 723 182 747 Z " />
<glyph glyph-name="scaron" unicode="&#x161;" horiz-adv-x="468" d="M34 67 L34 78 Q34 113 45.5 123.5 Q57 134 89 125 Q146 109 225 109 Q269 109 285.5 115 Q302 121 302 138 Q302 151 290.5 159.5 Q279 168 239 184 L146 223 Q93 245 67.5 276 Q42 307 42 365 Q42 440 89.5 476 Q137 512 246 512 Q304 512 352 500 Q385 492 396 479.5 Q407 467 407 434 L407 424 Q407 390 395.5 380.5 Q384 371 351 379 Q301 391 244 391 Q201 391 185.5 384.5 Q170 378 170 364 Q170 353 178.5 346.5 Q187 340 211 330 L315 289 Q374 266 402 232.5 Q430 199 430 139 Q430 61 379.5 24.5 Q329 -12 215 -12 Q141 -12 89 1 Q56 9 45 21.5 Q34 34 34 67 Z M151 609 L112 667 Q98 690 102 697 Q106 704 132 704 L143 704 Q170 704 183.5 696.5 Q197 689 210 667 L216 658 Q225 645 234 645 Q243 645 252 658 L258 667 Q271 689 284.5 696.5 Q298 704 325 704 L336 704 Q362 704 366 697 Q370 690 356 667 L317 609 Q301 585 283.5 576.5 Q266 568 234 568 Q202 568 184.5 576.5 Q167 585 151 609 Z " />
<glyph glyph-name="Ydieresis" unicode="&#x178;" horiz-adv-x="658" d="M262 58 L262 252 Q234 265 219.5 279 Q205 293 181 338 L40 599 Q24 630 30 640 Q36 650 71 650 L105 650 Q140 650 156.5 639.5 Q173 629 189 598 L267 438 Q292 388 302 375 Q312 362 329 362 Q346 362 356.5 375 Q367 388 391 438 L469 598 Q485 629 501.5 639.5 Q518 650 553 650 L587 650 Q622 650 628 640 Q634 630 618 599 L477 338 Q453 293 439 279 Q425 265 397 252 L397 58 Q397 24 385.5 12 Q374 0 339 0 L320 0 Q286 0 274 12 Q262 24 262 58 Z M183 726 Q163 746 163 774 Q163 802 183 822.5 Q203 843 231 843 Q260 843 280 822.5 Q300 802 300 774 Q300 746 279.5 726 Q259 706 231 706 Q203 706 183 726 Z M379.5 726 Q359 746 359 774 Q359 802 379.5 822.5 Q400 843 428 843 Q456 843 476 822.5 Q496 802 496 774 Q496 746 475.5 726 Q455 706 428 706 Q400 706 379.5 726 Z " />
<glyph glyph-name="Zacute" unicode="&#x179;" horiz-adv-x="565" d="M55 583 L55 592 Q55 626 66.5 638 Q78 650 113 650 L391 650 Q474 650 507.5 621 Q541 592 541 530 Q541 485 524.5 452.5 Q508 420 466 387 L176 165 Q153 148 153 137 Q153 125 183 125 L483 125 Q518 125 529.5 113.5 Q541 102 541 67 L541 58 Q541 24 529.5 12 Q518 0 483 0 L185 0 Q90 0 57 29 Q24 58 24 118 Q24 165 40.5 197 Q57 229 98 261 L392 487 Q411 502 411 512 Q411 525 382 525 L113 525 Q78 525 66.5 536.5 Q55 548 55 583 Z M347 842 L372 842 Q406 842 411.5 832 Q417 822 397 794 L364 746 Q348 722 333 714 Q318 706 289 706 L273 706 Q244 706 238.5 715 Q233 724 245 750 L264 790 Q279 821 295.5 831.5 Q312 842 347 842 Z " />
<glyph glyph-name="zacute" unicode="&#x17a;" horiz-adv-x="491" d="M60 438 L60 444 Q60 478 71 489 Q82 500 116 500 L336 500 Q407 500 434 473.5 Q461 447 461 385 Q461 336 444 306 Q427 276 372 248 L167 144 Q149 135 149 127 Q149 121 153 119.5 Q157 118 170 118 L405 118 Q439 118 450 107 Q461 96 461 62 L461 56 Q461 22 450 11 Q439 0 405 0 L155 0 Q90 0 60 27.5 Q30 55 30 115 Q30 158 48 191.5 Q66 225 119 252 L324 356 Q342 366 342 373 Q342 382 321 382 L116 382 Q82 382 71 393 Q60 404 60 438 Z M307 704 L332 704 Q366 704 371.5 694 Q377 684 357 656 L324 608 Q308 584 293 576 Q278 568 249 568 L233 568 Q204 568 198.5 577 Q193 586 205 612 L224 652 Q239 683 255.5 693.5 Q272 704 307 704 Z " />
<glyph glyph-name="Zdotaccent" unicode="&#x17b;" horiz-adv-x="565" d="M55 583 L55 592 Q55 626 66.5 638 Q78 650 113 650 L391 650 Q474 650 507.5 621 Q541 592 541 530 Q541 485 524.5 452.5 Q508 420 466 387 L176 165 Q153 148 153 137 Q153 125 183 125 L483 125 Q518 125 529.5 113.5 Q541 102 541 67 L541 58 Q541 24 529.5 12 Q518 0 483 0 L185 0 Q90 0 57 29 Q24 58 24 118 Q24 165 40.5 197 Q57 229 98 261 L392 487 Q411 502 411 512 Q411 525 382 525 L113 525 Q78 525 66.5 536.5 Q55 548 55 583 Z M220 774 Q220 803 239.5 823 Q259 843 288 843 Q317 843 337 823 Q357 803 357 774 Q357 745 337 725.5 Q317 706 288 706 Q260 706 240 726 Q220 746 220 774 Z " />
<glyph glyph-name="zdotaccent" unicode="&#x17c;" horiz-adv-x="491" d="M60 438 L60 444 Q60 478 71 489 Q82 500 116 500 L336 500 Q407 500 434 473.5 Q461 447 461 385 Q461 336 444 306 Q427 276 372 248 L167 144 Q149 135 149 127 Q149 121 153 119.5 Q157 118 170 118 L405 118 Q439 118 450 107 Q461 96 461 62 L461 56 Q461 22 450 11 Q439 0 405 0 L155 0 Q90 0 60 27.5 Q30 55 30 115 Q30 158 48 191.5 Q66 225 119 252 L324 356 Q342 366 342 373 Q342 382 321 382 L116 382 Q82 382 71 393 Q60 404 60 438 Z M169 636 Q169 665 188.5 685 Q208 705 237 705 Q266 705 286 685 Q306 665 306 636 Q306 607 286 587.5 Q266 568 237 568 Q208 568 188.5 588 Q169 608 169 636 Z " />
<glyph glyph-name="Zcaron" unicode="&#x17d;" horiz-adv-x="565" d="M55 583 L55 592 Q55 626 66.5 638 Q78 650 113 650 L391 650 Q474 650 507.5 621 Q541 592 541 530 Q541 485 524.5 452.5 Q508 420 466 387 L176 165 Q153 148 153 137 Q153 125 183 125 L483 125 Q518 125 529.5 113.5 Q541 102 541 67 L541 58 Q541 24 529.5 12 Q518 0 483 0 L185 0 Q90 0 57 29 Q24 58 24 118 Q24 165 40.5 197 Q57 229 98 261 L392 487 Q411 502 411 512 Q411 525 382 525 L113 525 Q78 525 66.5 536.5 Q55 548 55 583 Z M204 747 L165 805 Q151 828 155 835 Q159 842 185 842 L196 842 Q223 842 236.5 834.5 Q250 827 263 805 L269 796 Q278 783 287 783 Q296 783 305 796 L311 805 Q324 827 337.5 834.5 Q351 842 378 842 L389 842 Q415 842 419 835 Q423 828 409 805 L370 747 Q354 723 336.5 714.5 Q319 706 287 706 Q255 706 237.5 714.5 Q220 723 204 747 Z " />
<glyph glyph-name="zcaron" unicode="&#x17e;" horiz-adv-x="491" d="M60 438 L60 444 Q60 478 71 489 Q82 500 116 500 L336 500 Q407 500 434 473.5 Q461 447 461 385 Q461 336 444 306 Q427 276 372 248 L167 144 Q149 135 149 127 Q149 121 153 119.5 Q157 118 170 118 L405 118 Q439 118 450 107 Q461 96 461 62 L461 56 Q461 22 450 11 Q439 0 405 0 L155 0 Q90 0 60 27.5 Q30 55 30 115 Q30 158 48 191.5 Q66 225 119 252 L324 356 Q342 366 342 373 Q342 382 321 382 L116 382 Q82 382 71 393 Q60 404 60 438 Z M154 609 L115 667 Q101 690 105 697 Q109 704 135 704 L146 704 Q173 704 186.5 696.5 Q200 689 213 667 L219 658 Q228 645 237 645 Q246 645 255 658 L261 667 Q274 689 287.5 696.5 Q301 704 328 704 L339 704 Q365 704 369 697 Q373 690 359 667 L320 609 Q304 585 286.5 576.5 Q269 568 237 568 Q205 568 187.5 576.5 Q170 585 154 609 Z " />
<glyph glyph-name="florin" unicode="&#x192;" horiz-adv-x="553" d="M96 317 L96 331 Q96 355 104 363 Q112 371 136 371 L224 371 L232 423 Q243 494 255.5 535.5 Q268 577 292.5 609 Q317 641 355.5 653.5 Q394 666 455 666 Q478 666 482 665 Q514 661 525 648 Q536 635 536 606 L536 594 Q536 559 526 550.5 Q516 542 482 543 L476 543 Q447 543 432 540 Q417 537 403.5 524.5 Q390 512 382.5 487.5 Q375 463 368 419 L360 371 L469 371 Q493 371 501 363 Q509 355 509 331 L509 317 Q509 293 501 285 Q493 277 469 277 L345 277 L319 105 Q293 -69 248.5 -132.5 Q204 -196 99 -196 L71 -196 Q40 -196 28.5 -182 Q17 -168 17 -135 L17 -123 Q17 -91 27.5 -82 Q38 -73 71 -73 L90 -73 Q116 -73 130 -62.5 Q144 -52 157.5 -11.5 Q171 29 184 112 L209 277 L136 277 Q112 277 104 285 Q96 293 96 317 Z " />
<glyph glyph-name="circumflex" unicode="&#x2c6;" horiz-adv-x="442" d="M99 787 L138 845 Q154 869 171.5 877.5 Q189 886 221 886 Q253 886 270.5 877.5 Q288 869 304 845 L343 787 Q357 764 353 757 Q349 750 323 750 L312 750 Q285 750 271.5 757.5 Q258 765 245 787 L239 796 Q230 809 221 809 Q212 809 203 796 L197 787 Q184 765 170.5 757.5 Q157 750 130 750 L119 750 Q93 750 89 757 Q85 764 99 787 Z " />
<glyph glyph-name="caron" unicode="&#x2c7;" horiz-adv-x="390" d="M112 791 L73 849 Q59 872 63 879 Q67 886 93 886 L104 886 Q131 886 144.5 878.5 Q158 871 171 849 L177 840 Q186 827 195 827 Q204 827 213 840 L219 849 Q232 871 245.5 878.5 Q259 886 286 886 L297 886 Q323 886 327 879 Q331 872 317 849 L278 791 Q262 767 244.5 758.5 Q227 750 195 750 Q163 750 145.5 758.5 Q128 767 112 791 Z " />
<glyph glyph-name="breve" unicode="&#x2d8;" horiz-adv-x="384" d="M335 858 Q335 750 192 750 Q49 750 49 858 L49 862 Q49 879 56 884.5 Q63 890 83 890 L106 890 Q126 890 133 884.5 Q140 879 140 862 L140 857 Q140 841 151.5 835 Q163 829 192 829 Q221 829 232.5 835.5 Q244 842 244 858 L244 862 Q244 879 251 884.5 Q258 890 278 890 L301 890 Q321 890 328 884.5 Q335 879 335 862 L335 858 Z " />
<glyph glyph-name="dotaccent" unicode="&#x2d9;" horiz-adv-x="215" d="M39 818 Q39 847 58.5 867 Q78 887 107 887 Q136 887 156 867 Q176 847 176 818 Q176 789 156 769.5 Q136 750 107 750 Q78 750 58.5 770 Q39 790 39 818 Z " />
<glyph glyph-name="ring" unicode="&#x2da;" horiz-adv-x="289" d="M211.5 775 Q183 750 144 750 Q105 750 77 775 Q49 800 49 844 Q49 889 77 914.5 Q105 940 144 940 Q184 940 212 914.5 Q240 889 240 844 Q240 800 211.5 775 Z M118 819 Q128 809 144 809 Q160 809 170.5 819 Q181 829 181 844 Q181 860 170.5 870.5 Q160 881 144 881 Q128 881 118 870.5 Q108 860 108 844 Q108 829 118 819 Z " />
<glyph glyph-name="ogonek" unicode="&#x2db;" horiz-adv-x="271" d="M141 0 L226 0 Q175 -37 162 -52 Q149 -67 149 -91 Q149 -117 178 -117 Q182 -117 190 -116 Q210 -114 214 -119 Q218 -124 218 -146 L218 -158 Q218 -179 211 -188 Q204 -197 183 -200 Q173 -202 152 -202 Q97 -202 71 -181 Q45 -160 45 -111 Q45 -69 68.5 -46 Q92 -23 141 0 Z " />
<glyph glyph-name="tilde" unicode="&#x2dc;" horiz-adv-x="512" d="M119 753 L110 753 Q87 753 80.5 757 Q74 761 76 780 Q88 890 189 890 Q228 890 272 863.5 Q316 837 327 837 Q348 837 355 858 Q360 871 362.5 876 Q365 881 372 884 Q379 887 393 887 L402 887 Q440 887 435 854 Q421 750 323 750 Q284 750 240 776.5 Q196 803 185 803 Q163 803 157 782 Q152 763 146 758 Q140 753 119 753 Z " />
<glyph glyph-name="hungarumlaut" unicode="&#x2dd;" horiz-adv-x="468" d="M241 794 L259 833 Q273 865 290 875.5 Q307 886 341 886 L361 886 Q396 886 401 876 Q406 866 387 837 L356 790 Q340 766 325.5 758 Q311 750 282 750 L269 750 Q240 750 234.5 759 Q229 768 241 794 Z M68 794 L84 833 Q98 865 114 875.5 Q130 886 164 886 L184 886 Q219 886 224.5 876 Q230 866 212 837 L183 791 Q168 766 153.5 758 Q139 750 110 750 L97 750 Q68 750 62.5 759 Q57 768 68 794 Z " />
<glyph glyph-name="endash" unicode="&#x2013;" horiz-adv-x="494" d="M-3 318 L-3 332 Q-3 360 6.5 370 Q16 380 45 380 L449 380 Q478 380 487.5 370 Q497 360 497 332 L497 318 Q497 290 487.5 280 Q478 270 449 270 L45 270 Q16 270 6.5 280 Q-3 290 -3 318 Z " />
<glyph glyph-name="emdash" unicode="&#x2014;" horiz-adv-x="994" d="M-3 318 L-3 332 Q-3 360 6.5 370 Q16 380 45 380 L949 380 Q978 380 987.5 370 Q997 360 997 332 L997 318 Q997 290 987.5 280 Q978 270 949 270 L45 270 Q16 270 6.5 280 Q-3 290 -3 318 Z " />
<glyph glyph-name="quoteleft" unicode="&#x2018;" horiz-adv-x="233" d="M167 754 L171 753 Q181 751 184 747 Q187 743 189 733 Q191 721 191 680 Q191 475 112 475 Q87 475 72.5 492.5 Q58 510 58 540 Q58 576 86.5 638 Q115 700 142 743 Q151 758 167 754 Z " />
<glyph glyph-name="quoteright" unicode="&#x2019;" horiz-adv-x="233" d="M66 479 L62 480 Q52 482 49 486 Q46 490 44 500 Q42 512 42 553 Q42 758 121 758 Q146 758 160.5 740.5 Q175 723 175 693 Q175 657 146.5 595 Q118 533 91 490 Q82 475 66 479 Z " />
<glyph glyph-name="quotesinglbase" unicode="&#x201a;" horiz-adv-x="233" d="M66 -143 L62 -142 Q52 -140 49 -136 Q46 -132 44 -122 Q42 -110 42 -69 Q42 136 121 136 Q146 136 160.5 118.5 Q175 101 175 71 Q175 35 146.5 -27 Q118 -89 91 -132 Q82 -147 66 -143 Z " />
<glyph glyph-name="quotedblleft" unicode="&#x201c;" horiz-adv-x="433" d="M167 754 L171 753 Q181 751 184 747 Q187 743 189 733 Q191 721 191 680 Q191 475 112 475 Q87 475 72.5 492.5 Q58 510 58 540 Q58 576 86.5 638 Q115 700 142 743 Q151 758 167 754 Z M367 754 L371 753 Q381 751 384 747 Q387 743 389 733 Q391 721 391 680 Q391 475 312 475 Q287 475 272.5 492.5 Q258 510 258 540 Q258 576 286.5 638 Q315 700 342 743 Q351 758 367 754 Z " />
<glyph glyph-name="quotedblright" unicode="&#x201d;" horiz-adv-x="433" d="M66 479 L62 480 Q52 482 49 486 Q46 490 44 500 Q42 512 42 553 Q42 758 121 758 Q146 758 160.5 740.5 Q175 723 175 693 Q175 657 146.5 595 Q118 533 91 490 Q82 475 66 479 Z M266 479 L262 480 Q252 482 249 486 Q246 490 244 500 Q242 512 242 553 Q242 758 321 758 Q346 758 360.5 740.5 Q375 723 375 693 Q375 657 346.5 595 Q318 533 291 490 Q282 475 266 479 Z " />
<glyph glyph-name="quotedblbase" unicode="&#x201e;" horiz-adv-x="433" d="M66 -143 L62 -142 Q52 -140 49 -136 Q46 -132 44 -122 Q42 -110 42 -69 Q42 136 121 136 Q146 136 160.5 118.5 Q175 101 175 71 Q175 35 146.5 -27 Q118 -89 91 -132 Q82 -147 66 -143 Z M266 -143 L262 -142 Q252 -140 249 -136 Q246 -132 244 -122 Q242 -110 242 -69 Q242 136 321 136 Q346 136 360.5 118.5 Q375 101 375 71 Q375 35 346.5 -27 Q318 -89 291 -132 Q282 -147 266 -143 Z " />
<glyph glyph-name="dagger" unicode="&#x2020;" horiz-adv-x="504" d="M457 471 L457 459 Q457 436 449 428 Q441 420 418 420 L302 420 L302 -36 Q302 -62 293 -71 Q284 -80 258 -80 L246 -80 Q220 -80 211 -71 Q202 -62 202 -36 L202 420 L86 420 Q63 420 55 428 Q47 436 47 459 L47 471 Q47 494 55 502 Q63 510 86 510 L202 510 L202 606 Q202 632 211 641 Q220 650 246 650 L258 650 Q284 650 293 641 Q302 632 302 606 L302 510 L418 510 Q441 510 449 502 Q457 494 457 471 Z " />
<glyph glyph-name="daggerdbl" unicode="&#x2021;" horiz-adv-x="504" d="M47 99 L47 111 Q47 134 55 142 Q63 150 86 150 L202 150 L202 420 L86 420 Q63 420 55 428 Q47 436 47 459 L47 471 Q47 494 55 502 Q63 510 86 510 L202 510 L202 606 Q202 632 211 641 Q220 650 246 650 L258 650 Q284 650 293 641 Q302 632 302 606 L302 510 L418 510 Q441 510 449 502 Q457 494 457 471 L457 459 Q457 436 449 428 Q441 420 418 420 L302 420 L302 150 L418 150 Q441 150 449 142 Q457 134 457 111 L457 99 Q457 76 449 68 Q441 60 418 60 L302 60 L302 -36 Q302 -62 293 -71 Q284 -80 258 -80 L246 -80 Q220 -80 211 -71 Q202 -62 202 -36 L202 60 L86 60 Q63 60 55 68 Q47 76 47 99 Z " />
<glyph glyph-name="bullet" unicode="&#x2022;" horiz-adv-x="338" d="M263 405.5 Q299 366 299 315 Q299 264 263 224.5 Q227 185 169 185 Q112 185 75.5 224.5 Q39 264 39 315 Q39 366 75.5 405.5 Q112 445 169 445 Q227 445 263 405.5 Z " />
<glyph glyph-name="ellipsis" unicode="&#x2026;" horiz-adv-x="778" d="M603 10 Q580 33 580 65 Q580 97 603 120 Q626 143 658 143 Q690 143 713 120 Q736 97 736 65 Q736 33 713 10 Q690 -13 658 -13 Q626 -13 603 10 Z M334 10 Q311 33 311 65 Q311 97 334 120 Q357 143 389 143 Q421 143 444 120 Q467 97 467 65 Q467 33 444 10 Q421 -13 389 -13 Q357 -13 334 10 Z M65 10 Q42 33 42 65 Q42 97 65 120 Q88 143 120 143 Q152 143 175 120 Q198 97 198 65 Q198 33 175 10 Q152 -13 120 -13 Q88 -13 65 10 Z " />
<glyph glyph-name="perthousand" unicode="&#x2030;" horiz-adv-x="1251" d="M1048 326 Q1214 326 1214 157 Q1214 -12 1048 -12 Q882 -12 882 157 Q882 326 1048 326 Z M1092 103.5 Q1104 119 1104 157 Q1104 195 1092 210.5 Q1080 226 1048 226 Q1016 226 1004 210.5 Q992 195 992 157 Q992 119 1004 103.5 Q1016 88 1048 88 Q1080 88 1092 103.5 Z M600 650 L619 650 Q654 650 660 640 Q666 630 650 599 L365 51 Q349 20 332 10 Q315 0 280 0 L262 0 Q227 0 221 10 Q215 20 231 51 L515 599 Q531 630 548 640 Q565 650 600 650 Z M203 662 Q369 662 369 493 Q369 324 203 324 Q37 324 37 493 Q37 662 203 662 Z M247 439.5 Q259 455 259 493 Q259 531 247 546.5 Q235 562 203 562 Q171 562 159 546.5 Q147 531 147 493 Q147 455 159 439.5 Q171 424 203 424 Q235 424 247 439.5 Z M676 326 Q842 326 842 157 Q842 -12 676 -12 Q510 -12 510 157 Q510 326 676 326 Z M720 103.5 Q732 119 732 157 Q732 195 720 210.5 Q708 226 676 226 Q644 226 632 210.5 Q620 195 620 157 Q620 119 632 103.5 Q644 88 676 88 Q708 88 720 103.5 Z " />
<glyph glyph-name="guilsinglleft" unicode="&#x2039;" horiz-adv-x="341" d="M244 40 L228 40 Q196 40 179 48 Q162 56 143 80 L54 187 Q27 219 27 250 Q27 281 54 313 L143 420 Q162 444 179 452 Q196 460 228 460 L244 460 Q275 460 279 452 Q283 444 263 420 L143 274 Q132 262 132 250 Q132 238 143 226 L263 80 Q283 56 279 48 Q275 40 244 40 Z " />
<glyph glyph-name="guilsinglright" unicode="&#x203a;" horiz-adv-x="341" d="M113 40 L97 40 Q66 40 62 48 Q58 56 78 80 L198 226 Q209 238 209 250 Q209 262 198 274 L78 420 Q58 444 62 452 Q66 460 97 460 L113 460 Q144 460 161.5 452 Q179 444 198 420 L287 313 Q314 281 314 250 Q314 219 287 187 L198 80 Q178 56 161 48 Q144 40 113 40 Z " />
<glyph glyph-name="fraction" unicode="&#x2044;" horiz-adv-x="375" d="M316 680 L332 680 Q360 680 365.5 671 Q371 662 361 637 L119 13 Q109 -13 96.5 -21.5 Q84 -30 56 -30 L43 -30 Q15 -30 9 -21 Q3 -12 13 13 L253 637 Q263 663 275.5 671.5 Q288 680 316 680 Z " />
<glyph glyph-name="Euro" unicode="&#x20ac;" horiz-adv-x="589" d="M17 388 L17 400 Q17 423 25 431 Q33 439 56 439 L104 439 Q115 544 183.5 602 Q252 660 378 660 Q447 660 492 645 Q524 635 532 619.5 Q540 604 532 571 L531 566 Q524 533 512 526 Q500 519 467 526 Q416 535 378 535 Q316 535 283.5 511.5 Q251 488 243 439 L465 439 Q488 439 494.5 431.5 Q501 424 496 401 L493 387 Q489 365 479 357 Q469 349 446 349 L240 349 L240 299 L435 299 Q458 299 464.5 291.5 Q471 284 466 261 L463 247 Q459 225 449 217 Q439 209 416 209 L242 209 Q254 113 383 113 Q447 113 484 124 Q516 132 527.5 122 Q539 112 539 78 L539 66 Q539 33 528.5 20 Q518 7 484 -1 Q442 -12 377 -12 Q248 -12 179 40.5 Q110 93 103 209 L56 209 Q33 209 25 217 Q17 225 17 248 L17 260 Q17 283 25 291 Q33 299 56 299 L102 299 L102 349 L56 349 Q33 349 25 357 Q17 365 17 388 Z " />
<glyph glyph-name="trademark" unicode="&#x2122;" horiz-adv-x="934" d="M883 585 L883 295 Q883 269 874 260 Q865 251 839 251 L825 251 Q799 251 790 260 Q781 269 781 295 L781 569 L715 295 Q709 271 696 261 Q683 251 658 251 Q612 251 601 295 L533 569 L533 295 Q533 269 524 260 Q515 251 489 251 L475 251 Q449 251 440 260 Q431 269 431 295 L431 585 Q431 619 446.5 634.5 Q462 650 496 650 L540 650 Q605 650 618 586 L660 378 L701 586 Q714 650 779 650 L818 650 Q883 650 883 585 Z M369 611 L369 597 Q369 574 361 566 Q353 558 330 558 L252 558 L252 295 Q252 269 243 260 Q234 251 208 251 L194 251 Q168 251 159 260 Q150 269 150 295 L150 558 L72 558 Q49 558 41 566 Q33 574 33 597 L33 611 Q33 634 41 642 Q49 650 72 650 L330 650 Q353 650 361 642 Q369 634 369 611 Z " />
<glyph glyph-name="minus" unicode="&#x2212;" horiz-adv-x="564" d="M517 332 L517 318 Q517 290 507.5 280 Q498 270 469 270 L95 270 Q66 270 56.5 280 Q47 290 47 318 L47 332 Q47 360 56.5 370 Q66 380 95 380 L469 380 Q498 380 507.5 370 Q517 360 517 332 Z " />
<glyph glyph-name="fi" unicode="&#xfb01;" horiz-adv-x="656" d="M14 427 L14 431 Q14 460 24 472 Q34 484 63 491 L104 500 L104 541 Q104 646 154.5 689 Q205 732 297 732 Q321 732 348 729 Q381 725 392.5 710.5 Q404 696 404 662 L404 652 Q404 619 393.5 611 Q383 603 348 607 Q330 609 307 609 Q234 609 234 552 L234 500 L338 500 Q372 500 383 489 Q394 478 394 444 L394 433 Q394 399 383 388 Q372 377 338 377 L234 377 L234 56 Q234 22 223 11 Q212 0 178 0 L160 0 Q126 0 115 11 Q104 22 104 56 L104 377 L64 377 Q34 377 24 387 Q14 397 14 427 Z M467 56 L467 444 Q467 478 478 489 Q489 500 523 500 L541 500 Q575 500 586 489 Q597 478 597 444 L597 56 Q597 22 586 11 Q575 0 541 0 L523 0 Q489 0 478 11 Q467 22 467 56 Z M477 595 Q454 618 454 650 Q454 682 477 705 Q500 728 532 728 Q564 728 587 705 Q610 682 610 650 Q610 618 587 595 Q564 572 532 572 Q500 572 477 595 Z " />
<glyph glyph-name="fl" unicode="&#xfb02;" horiz-adv-x="681" d="M14 427 L14 431 Q14 460 24 472 Q34 484 63 491 L104 500 L104 541 Q104 646 154.5 689 Q205 732 297 732 Q321 732 348 729 Q381 725 392.5 710.5 Q404 696 404 662 L404 652 Q404 619 393.5 611 Q383 603 348 607 Q330 609 307 609 Q234 609 234 552 L234 500 L338 500 Q372 500 383 489 Q394 478 394 444 L394 433 Q394 399 383 388 Q372 377 338 377 L234 377 L234 56 Q234 22 223 11 Q212 0 178 0 L160 0 Q126 0 115 11 Q104 22 104 56 L104 377 L64 377 Q34 377 24 387 Q14 397 14 427 Z M457 151 L457 644 Q457 678 468 689 Q479 700 513 700 L531 700 Q565 700 576 689 Q587 678 587 644 L587 180 Q587 142 597.5 127.5 Q608 113 631 113 L636 113 Q656 113 663 104.5 Q670 96 670 67 L670 48 Q670 18 663 7 Q656 -4 636 -8 Q626 -10 606 -10 Q538 -10 497.5 29.5 Q457 69 457 151 Z " />
</font>
</svg>
