<?xml version="1.0" encoding="UTF-8"?>
<svg xmlns="http://www.w3.org/2000/svg" xmlns:xlink="http://www.w3.org/1999/xlink" version="1.2" >
<font id="Ample Thin">
<font-face  font-family="Ample" units-per-em="1000" ascent="750" descent="-250" font-style="normal" font-weight="100" font-stretch="normal" cap-height="650" x-height="486" underline-position="-75" underline-thickness="50" />
<missing-glyph  horiz-adv-x="178" d="" />
<glyph glyph-name="NULL" d="" />
<glyph glyph-name="CR" unicode="&#xd;" horiz-adv-x="250" d="" />
<glyph glyph-name="space" unicode="&#x20;" horiz-adv-x="312" d="" />
<glyph glyph-name="exclam" unicode="&#x21;" horiz-adv-x="222" d="M100 650 L100 393 C100 306 100 218 105 131 L120 131 C124 218 124 306 124 393 L124 650 L100 650 Z M83 25 C83 9 95 -3 111 -3 C127 -3 139 9 139 25 C139 42 127 54 111 54 C95 54 83 42 83 25 L83 25 Z " />
<glyph glyph-name="quotedbl" unicode="&#x22;" horiz-adv-x="202" d="M141 514 L156 514 L156 723 L141 723 L141 514 Z M46 514 L61 514 L61 723 L46 723 L46 514 Z " />
<glyph glyph-name="numbersign" unicode="&#x23;" horiz-adv-x="612" d="M322 0 L348 0 L390 171 L532 171 L532 196 L397 196 L461 454 L577 454 L577 479 L467 479 L510 650 L484 650 L441 479 L249 479 L292 650 L266 650 L223 479 L79 479 L79 454 L216 454 L152 196 L34 196 L34 171 L146 171 L104 0 L130 0 L172 171 L364 171 L322 0 Z M242 454 L435 454 L371 196 L178 196 L242 454 Z " />
<glyph glyph-name="dollar" unicode="&#x24;" horiz-adv-x="479" d="M53 26 C98 5 152 -6 219 -7 L219 -83 L241 -83 L241 -7 C351 -4 425 29 425 132 C425 219 369 259 321 290 L152 400 C113 425 78 458 78 529 C78 603 120 637 232 637 C296 637 356 621 398 603 L398 624 C361 641 311 657 241 658 L241 733 L219 733 L219 658 C118 655 56 623 56 529 C56 445 105 406 143 381 L311 272 C357 242 403 207 403 131 C403 42 339 14 223 14 C155 14 100 24 53 51 L53 26 Z " />
<glyph glyph-name="percent" unicode="&#x25;" horiz-adv-x="678" d="M496 650 L159 0 L182 0 L520 650 L496 650 Z M618 150 C618 257 573 305 485 305 C397 305 352 257 352 150 C352 43 397 -5 485 -5 C573 -5 618 43 618 150 L618 150 Z M597 150 C597 54 563 15 485 15 C407 15 373 54 373 150 C373 246 407 285 485 285 C563 285 597 246 597 150 L597 150 Z M326 500 C326 607 281 655 193 655 C105 655 60 607 60 500 C60 393 105 345 193 345 C281 345 326 393 326 500 L326 500 Z M305 500 C305 404 271 365 193 365 C115 365 81 404 81 500 C81 596 115 635 193 635 C271 635 305 596 305 500 L305 500 Z " />
<glyph glyph-name="ampersand" unicode="&#x26;" horiz-adv-x="582" d="M562 335 L562 356 L486 356 L486 447 L464 447 L464 356 L279 356 C148 356 114 415 114 497 C114 596 164 637 285 637 C324 637 370 628 390 622 L390 645 C370 650 328 658 283 658 C157 658 92 609 92 494 C92 418 129 355 215 346 C130 338 69 282 69 167 C69 13 185 -7 282 -7 C389 -7 486 31 486 219 L486 335 L562 335 Z M91 168 C91 303 173 335 279 335 L464 335 L464 219 C464 31 364 14 284 14 C197 14 91 25 91 168 L91 168 Z " />
<glyph glyph-name="quotesingle" unicode="&#x27;" horiz-adv-x="108" d="M46 514 L61 514 L61 723 L46 723 L46 514 Z " />
<glyph glyph-name="parenleft" unicode="&#x28;" horiz-adv-x="285" d="M63 250 C63 60 121 -91 257 -215 L269 -204 C168 -116 81 41 81 250 C81 459 167 616 269 704 L257 715 C121 591 63 440 63 250 L63 250 Z " />
<glyph glyph-name="parenright" unicode="&#x29;" horiz-adv-x="285" d="M222 250 C222 440 164 591 28 715 L16 704 C118 616 204 459 204 250 C204 41 117 -116 16 -204 L28 -215 C164 -91 222 60 222 250 L222 250 Z " />
<glyph glyph-name="asterisk" unicode="&#x2a;" horiz-adv-x="439" d="M226 715 L210 715 L209 550 L51 599 L47 583 L203 531 L107 396 L120 387 L218 521 L318 386 L331 396 L234 533 L393 585 L387 600 L227 550 L226 715 Z " />
<glyph glyph-name="plus" unicode="&#x2b;" horiz-adv-x="548" d="M485 317 L284 317 L284 518 L264 518 L264 317 L63 317 L63 298 L264 298 L264 97 L284 97 L284 298 L485 298 L485 317 Z " />
<glyph glyph-name="comma" unicode="&#x2c;" horiz-adv-x="160" d="M39 -133 C55 -105 108 3 108 33 C108 47 102 55 91 55 C83 55 76 52 69 38 C58 16 34 -82 27 -129 L39 -133 Z " />
<glyph glyph-name="hyphen" unicode="&#x2d;" horiz-adv-x="329" d="M307 317 L22 317 L22 298 L307 298 L307 317 Z " />
<glyph glyph-name="period" unicode="&#x2e;" horiz-adv-x="168" d="M56 26 C56 9 68 -3 84 -3 C100 -3 112 9 112 26 C112 42 100 54 84 54 C68 54 56 42 56 26 L56 26 Z " />
<glyph glyph-name="slash" unicode="&#x2f;" horiz-adv-x="239" d="M228 715 L-10 -30 L11 -30 L249 715 L228 715 Z " />
<glyph glyph-name="zero" unicode="0" horiz-adv-x="520" d="M447 221 C447 61 389 14 260 14 C133 14 73 61 73 221 L73 428 C73 585 131 637 260 637 C391 637 447 585 447 428 L447 221 Z M260 -7 C402 -7 469 52 469 221 L469 428 C469 599 402 658 260 658 C120 658 51 599 51 428 L51 221 C51 52 120 -7 260 -7 L260 -7 Z " />
<glyph glyph-name="one" unicode="1" horiz-adv-x="280" d="M15 498 L96 603 C121 635 136 637 150 637 C182 637 187 613 187 556 L187 0 L209 0 L209 569 C209 638 190 658 149 658 C130 658 107 651 81 617 L0 512 L15 498 Z " />
<glyph glyph-name="two" unicode="2" horiz-adv-x="459" d="M408 503 C408 605 344 658 219 658 C144 658 79 639 45 622 L45 601 C83 619 150 637 214 637 C342 637 386 588 386 499 C386 448 369 402 302 347 L92 173 C57 144 34 107 34 73 C34 23 65 0 134 0 L408 0 L408 21 L133 21 C75 21 56 40 56 71 C56 98 69 126 104 155 L313 329 C383 388 408 437 408 503 L408 503 Z " />
<glyph glyph-name="three" unicode="3" horiz-adv-x="452" d="M167 330 L217 330 C342 330 385 254 385 174 C385 73 342 14 202 14 C132 14 68 25 24 39 L24 16 C68 3 120 -7 202 -7 C352 -7 407 56 407 174 C407 269 358 329 275 341 C361 345 397 405 397 490 C397 590 357 658 202 658 C124 658 74 647 35 634 L35 612 C75 626 136 637 202 637 C343 637 375 577 375 491 C375 413 347 351 217 351 L167 351 L167 330 Z " />
<glyph glyph-name="four" unicode="4" horiz-adv-x="445" d="M51 283 C26 206 46 160 141 160 L373 160 L373 0 L395 0 L395 490 L373 490 L373 181 L141 181 C69 181 48 207 70 274 L193 650 L171 650 L51 283 Z " />
<glyph glyph-name="five" unicode="5" horiz-adv-x="440" d="M41 428 C41 356 69 332 127 332 L194 332 C321 332 385 302 385 178 C385 76 347 16 206 16 C145 16 86 22 28 42 L28 18 C82 3 139 -5 207 -5 C362 -5 407 65 407 179 C407 309 339 353 194 353 L127 353 C83 353 63 373 63 417 L63 564 C63 610 83 629 127 629 L379 629 L379 650 L137 650 C66 650 41 625 41 553 L41 428 Z " />
<glyph glyph-name="six" unicode="6" horiz-adv-x="483" d="M249 378 C189 378 125 368 73 355 L73 444 C73 563 112 637 259 637 C334 637 391 619 425 605 L425 626 C393 640 349 658 265 658 C108 658 51 587 51 445 L51 234 C51 90 94 -5 257 -5 C391 -5 449 58 449 189 C449 309 393 378 249 378 L249 378 Z M249 357 C378 357 427 303 427 188 C427 70 377 16 259 16 C107 16 73 102 73 232 L73 334 C125 348 180 357 249 357 L249 357 Z " />
<glyph glyph-name="seven" unicode="7" horiz-adv-x="463" d="M149 0 L363 459 C389 515 402 543 402 580 C402 626 370 650 289 650 L24 650 L24 629 L292 629 C352 629 380 614 380 580 C380 548 368 520 348 478 L125 0 L149 0 Z " />
<glyph glyph-name="eight" unicode="8" horiz-adv-x="516" d="M258 658 C108 658 66 591 66 492 C66 411 94 360 188 340 C88 327 46 264 46 172 C46 63 97 -7 258 -7 C419 -7 470 63 470 172 C470 264 428 327 328 340 C422 360 450 411 450 492 C450 591 408 658 258 658 L258 658 Z M68 172 C68 277 125 330 258 330 C391 330 448 277 448 172 C448 68 402 14 258 14 C114 14 68 68 68 172 L68 172 Z M88 492 C88 584 118 637 258 637 C398 637 428 580 428 492 C428 395 376 350 258 350 C140 350 88 395 88 492 L88 492 Z " />
<glyph glyph-name="nine" unicode="9" horiz-adv-x="483" d="M234 275 C294 275 358 285 410 298 L410 207 C410 88 371 14 224 14 C149 14 92 32 58 46 L58 25 C90 11 134 -7 218 -7 C375 -7 432 64 432 206 L432 419 C432 563 389 658 226 658 C92 658 34 595 34 464 C34 344 90 275 234 275 L234 275 Z M234 296 C105 296 56 350 56 465 C56 583 106 637 224 637 C376 637 410 551 410 421 L410 319 C358 305 303 296 234 296 L234 296 Z " />
<glyph glyph-name="colon" unicode="&#x3a;" horiz-adv-x="168" d="M56 26 C56 9 68 -3 84 -3 C100 -3 112 9 112 26 C112 42 100 54 84 54 C68 54 56 42 56 26 L56 26 Z M56 460 C56 444 68 432 84 432 C100 432 112 444 112 460 C112 477 100 489 84 489 C68 489 56 477 56 460 L56 460 Z " />
<glyph glyph-name="semicolon" unicode="&#x3b;" horiz-adv-x="159" d="M51 460 C51 444 63 432 79 432 C96 432 108 444 108 460 C108 477 96 489 79 489 C63 489 51 477 51 460 L51 460 Z M37 -133 C53 -105 106 3 106 33 C106 47 100 55 89 55 C81 55 74 52 67 38 C56 16 32 -82 25 -129 L37 -133 Z " />
<glyph glyph-name="less" unicode="&#x3c;" horiz-adv-x="410" d="M358 128 L75 274 C49 287 39 303 39 325 C39 348 49 363 75 377 L358 525 L358 547 L75 399 C26 374 19 350 19 325 C19 300 27 276 75 251 L358 106 L358 128 Z " />
<glyph glyph-name="equal" unicode="&#x3d;" horiz-adv-x="528" d="M465 218 L63 218 L63 199 L465 199 L465 218 Z M465 452 L63 452 L63 433 L465 433 L465 452 Z " />
<glyph glyph-name="greater" unicode="&#x3e;" horiz-adv-x="410" d="M52 106 L335 251 C383 276 391 300 391 325 C391 350 384 374 335 399 L52 547 L52 525 L335 377 C361 363 371 348 371 325 C371 303 361 287 335 274 L52 128 L52 106 Z " />
<glyph glyph-name="question" unicode="&#x3f;" horiz-adv-x="371" d="M69 25 C69 9 81 -3 98 -3 C114 -3 126 9 126 25 C126 42 114 54 98 54 C81 54 69 42 69 25 L69 25 Z M325 484 C325 609 259 658 140 658 C100 658 57 650 35 642 L35 620 C67 632 103 638 140 638 C245 638 304 599 304 484 C304 385 236 344 192 316 C135 280 77 234 90 148 L108 148 C108 222 138 256 202 298 C263 338 325 377 325 484 L325 484 Z " />
<glyph glyph-name="at" unicode="&#x40;" horiz-adv-x="883" d="M612 270 C612 361 576 443 443 443 C313 443 274 361 274 270 L274 217 C274 159 280 46 436 46 C544 46 582 104 600 156 C608 77 655 46 706 46 C803 46 827 128 827 217 L827 270 C827 546 644 644 443 644 C248 644 62 550 62 271 L62 201 C62 -62 228 -155 437 -155 C561 -155 646 -104 677 -76 L667 -61 C634 -89 557 -137 437 -137 C238 -137 81 -51 81 202 L81 271 C81 541 262 626 443 626 C630 626 808 539 808 270 L808 217 C808 133 789 64 706 64 C647 64 612 112 612 203 L612 270 Z M293 271 C293 354 326 425 443 425 C563 425 593 354 593 271 L593 217 C593 148 554 64 436 64 C333 64 293 114 293 217 L293 271 Z " />
<glyph glyph-name="A" unicode="A" horiz-adv-x="561" d="M380 555 C355 645 331 658 280 658 C230 658 206 645 180 555 L21 0 L44 0 L114 245 L447 245 L517 0 L540 0 L380 555 Z M210 579 C224 627 245 638 280 638 C316 638 337 627 351 579 L441 266 L120 266 L210 579 Z " />
<glyph glyph-name="B" unicode="B" horiz-adv-x="571" d="M180 650 C108 650 83 625 83 553 L83 97 C83 25 108 0 180 0 L306 0 C465 0 514 60 514 175 C514 269 481 332 357 332 L357 335 C454 335 494 394 494 484 C494 591 451 650 280 650 L180 650 Z M301 321 C456 321 493 273 493 171 C493 72 456 21 306 21 L169 21 C124 21 105 40 105 86 L105 321 L301 321 Z M280 629 C436 629 473 580 473 487 C473 392 436 344 280 344 L105 344 L105 564 C105 610 124 629 169 629 L280 629 Z " />
<glyph glyph-name="C" unicode="C" horiz-adv-x="513" d="M85 399 C85 569 140 637 289 637 C359 637 400 625 456 602 L456 623 C415 641 372 658 289 658 C131 658 63 581 63 399 L63 239 C63 75 129 -7 294 -7 C385 -7 429 11 467 30 L467 51 C444 38 381 14 294 14 C144 14 85 86 85 239 L85 399 Z " />
<glyph glyph-name="D" unicode="D" horiz-adv-x="586" d="M83 97 C83 25 108 0 180 0 L265 0 C464 0 524 65 524 258 L524 392 C524 586 460 650 265 650 L180 650 C108 650 83 625 83 553 L83 97 Z M265 21 L169 21 C124 21 105 40 105 86 L105 564 C105 610 124 629 169 629 L265 629 C454 629 503 568 503 392 L503 258 C503 79 454 21 265 21 L265 21 Z " />
<glyph glyph-name="E" unicode="E" horiz-adv-x="501" d="M105 334 L421 334 L421 355 L105 355 L105 564 C105 610 124 629 169 629 L461 629 L461 650 L180 650 C108 650 83 625 83 553 L83 97 C83 25 108 0 180 0 L461 0 L461 21 L169 21 C124 21 105 40 105 86 L105 334 Z " />
<glyph glyph-name="F" unicode="F" horiz-adv-x="494" d="M105 335 L424 335 L424 356 L105 356 L105 564 C105 610 124 629 169 629 L464 629 L464 650 L180 650 C108 650 83 625 83 553 L83 0 L105 0 L105 335 Z " />
<glyph glyph-name="G" unicode="G" horiz-adv-x="552" d="M472 104 C472 59 455 32 409 22 C389 18 364 13 304 13 C150 13 85 87 85 240 L85 400 C85 568 137 637 299 637 C372 637 434 621 482 602 L482 623 C436 642 381 658 299 658 C131 658 63 583 63 398 L63 238 C63 76 134 -7 304 -7 C346 -7 375 -5 401 0 C476 13 495 46 495 127 L495 345 L472 345 L472 104 Z " />
<glyph glyph-name="H" unicode="H" horiz-adv-x="584" d="M105 332 L479 332 L479 0 L501 0 L501 650 L479 650 L479 353 L105 353 L105 650 L83 650 L83 0 L105 0 L105 332 Z " />
<glyph glyph-name="I" unicode="I" horiz-adv-x="197" d="M87 0 L109 0 L109 650 L87 650 L87 0 Z " />
<glyph glyph-name="J" unicode="J" horiz-adv-x="197" d="M109 650 L87 650 L87 94 C87 -39 59 -119 -25 -168 L-12 -186 C64 -140 109 -67 109 92 L109 650 Z " />
<glyph glyph-name="K" unicode="K" horiz-adv-x="487" d="M218 425 C183 387 165 368 165 340 C165 310 184 292 218 252 L434 0 L463 0 L216 288 C196 312 186 324 186 340 C186 356 195 367 216 391 L443 650 L415 650 L218 425 Z M83 0 L105 0 L105 650 L83 650 L83 0 Z " />
<glyph glyph-name="L" unicode="L" horiz-adv-x="442" d="M83 97 C83 25 108 0 180 0 L421 0 L421 21 L169 21 C124 21 105 40 105 86 L105 650 L83 650 L83 97 Z " />
<glyph glyph-name="M" unicode="M" horiz-adv-x="744" d="M667 548 C660 643 617 656 574 656 C532 656 499 643 484 548 L409 63 C403 27 393 19 372 19 C351 19 341 27 335 63 L260 548 C245 643 212 656 170 656 C127 656 84 643 77 548 L37 0 L58 0 L98 548 C104 625 135 637 170 637 C205 637 227 621 238 548 L313 67 C320 22 332 0 372 0 C412 0 424 22 431 67 L506 547 C517 621 539 637 574 637 C609 637 640 625 646 548 L686 0 L707 0 L667 548 Z " />
<glyph glyph-name="N" unicode="N" horiz-adv-x="589" d="M83 0 L105 0 L105 586 C105 617 114 634 140 634 C156 634 173 628 189 583 L379 63 C394 22 411 -5 450 -5 C486 -5 506 18 506 64 L506 650 L484 650 L484 64 C484 33 475 16 449 16 C433 16 416 22 400 67 L210 587 C195 628 178 655 139 655 C103 655 83 632 83 586 L83 0 Z " />
<glyph glyph-name="O" unicode="O" horiz-adv-x="594" d="M510 250 C510 96 474 14 297 14 C120 14 84 96 84 250 L84 401 C84 554 120 637 297 637 C474 637 510 554 510 401 L510 250 Z M297 -7 C479 -7 532 79 532 250 L532 401 C532 571 481 658 297 658 C114 658 62 571 62 401 L62 250 C62 79 112 -7 297 -7 L297 -7 Z " />
<glyph glyph-name="P" unicode="P" horiz-adv-x="554" d="M180 650 C108 650 83 625 83 553 L83 0 L105 0 L105 260 L311 260 C484 260 525 331 525 455 C525 583 482 650 311 650 L180 650 Z M311 629 C467 629 503 572 503 455 C503 336 468 281 311 281 L105 281 L105 564 C105 610 124 629 169 629 L311 629 Z " />
<glyph glyph-name="Q" unicode="Q" horiz-adv-x="594" d="M532 250 L532 401 C532 571 481 658 297 658 C114 658 62 571 62 401 L62 250 C62 77 113 -7 297 -7 C314 -7 330 -6 339 -5 L451 -122 L476 -122 L476 -119 L362 -2 C492 16 532 102 532 250 L532 250 Z M510 250 C510 96 474 14 297 14 C120 14 84 96 84 250 L84 401 C84 554 120 637 297 637 C474 637 510 554 510 401 L510 250 Z " />
<glyph glyph-name="R" unicode="R" horiz-adv-x="574" d="M525 471 C525 586 491 650 323 650 L180 650 C108 650 83 625 83 553 L83 0 L105 0 L105 292 L343 292 L518 0 L543 0 L366 294 C496 304 525 364 525 471 L525 471 Z M323 629 C476 629 503 576 503 471 C503 365 477 313 323 313 L105 313 L105 564 C105 610 124 629 169 629 L323 629 Z " />
<glyph glyph-name="S" unicode="S" horiz-adv-x="506" d="M58 26 C107 5 165 -7 238 -7 C364 -7 450 24 450 132 C450 219 387 257 336 290 L167 400 C125 428 83 458 83 529 C83 603 128 637 247 637 C315 637 378 621 423 603 L423 624 C383 642 326 658 247 658 C133 658 61 627 61 529 C61 445 117 407 158 381 L326 272 C376 240 428 207 428 131 C428 42 360 14 238 14 C166 14 108 24 58 51 L58 26 Z " />
<glyph glyph-name="T" unicode="T" horiz-adv-x="536" d="M32 629 L257 629 L257 0 L279 0 L279 629 L504 629 L504 650 L32 650 L32 629 Z " />
<glyph glyph-name="U" unicode="U" horiz-adv-x="599" d="M72 186 C72 45 150 -7 299 -7 C449 -7 527 45 527 186 L527 650 L505 650 L505 186 C505 57 437 14 299 14 C161 14 94 57 94 186 L94 650 L72 650 L72 186 Z " />
<glyph glyph-name="V" unicode="V" horiz-adv-x="541" d="M520 650 L498 650 L341 71 C328 23 309 12 270 12 C231 12 213 23 200 71 L43 650 L21 650 L178 70 C195 7 220 -8 270 -8 C320 -8 345 7 362 70 L520 650 Z " />
<glyph glyph-name="W" unicode="W" horiz-adv-x="868" d="M844 650 L822 650 L717 74 C708 23 686 12 653 12 C620 12 601 23 591 74 L496 574 C486 629 470 650 434 650 C398 650 382 629 372 574 L277 74 C267 23 248 12 215 12 C182 12 160 23 151 74 L46 650 L24 650 L129 76 C142 7 173 -8 215 -8 C256 -8 286 5 299 76 L394 577 C402 621 413 630 434 630 C455 630 466 621 474 577 L569 76 C582 5 612 -8 653 -8 C695 -8 726 7 739 76 L844 650 Z " />
<glyph glyph-name="X" unicode="X" horiz-adv-x="557" d="M475 650 L349 415 C326 371 313 353 278 353 C243 353 231 370 207 415 L81 650 L58 650 L166 448 C205 375 219 354 242 344 C219 335 206 314 166 239 L38 0 L62 0 L207 272 C231 318 240 334 278 334 C315 334 326 316 349 272 L494 0 L518 0 L390 239 C350 314 337 335 314 344 C337 354 351 375 390 448 L498 650 L475 650 Z " />
<glyph glyph-name="Y" unicode="Y" horiz-adv-x="554" d="M266 0 L288 0 L288 284 C327 288 349 307 379 362 L537 650 L513 650 L356 365 C332 322 317 305 277 305 C237 305 222 322 198 365 L41 650 L17 650 L175 362 C205 307 227 288 266 284 L266 0 Z " />
<glyph glyph-name="Z" unicode="Z" horiz-adv-x="524" d="M53 629 L376 629 C438 629 453 600 453 564 C453 544 447 520 411 484 L100 177 C44 121 38 88 38 62 C38 26 63 0 116 0 L486 0 L486 21 L115 21 C75 21 60 36 60 62 C60 84 60 101 108 155 L419 462 C473 515 475 545 475 564 C475 616 445 650 376 650 L53 650 L53 629 Z " />
<glyph glyph-name="bracketleft" unicode="&#x5b;" horiz-adv-x="264" d="M235 -197 L147 -197 C112 -197 101 -185 101 -149 L101 649 C101 685 112 697 147 697 L235 697 L235 715 L148 715 C103 715 82 695 82 649 L82 -149 C82 -195 103 -215 148 -215 L235 -215 L235 -197 Z " />
<glyph glyph-name="backslash" unicode="&#x5c;" horiz-adv-x="239" d="M-10 715 L228 -30 L249 -30 L10 715 L-10 715 Z " />
<glyph glyph-name="bracketright" unicode="&#x5d;" horiz-adv-x="264" d="M29 -215 L116 -215 C161 -215 182 -195 182 -149 L182 649 C182 695 161 715 116 715 L29 715 L29 697 L117 697 C152 697 163 685 163 649 L163 -149 C163 -185 152 -197 117 -197 L29 -197 L29 -215 Z " />
<glyph glyph-name="asciicircum" unicode="&#x5e;" horiz-adv-x="373" d="M227 632 C212 664 204 672 185 672 C167 672 158 664 144 632 L24 363 L46 363 L161 619 C174 648 176 653 185 653 C195 653 197 648 210 619 L327 363 L349 363 L227 632 Z " />
<glyph glyph-name="underscore" unicode="&#x5f;" horiz-adv-x="438" d="M438 -26 L0 -26 L0 -45 L438 -45 L438 -26 Z " />
<glyph glyph-name="grave" unicode="&#x60;" horiz-adv-x="201" d="M132 750 L151 750 L72 886 L50 886 L132 750 Z " />
<glyph glyph-name="a" unicode="a" horiz-adv-x="468" d="M409 353 C409 459 336 493 232 493 C173 493 130 487 91 477 L91 454 C132 467 174 474 232 474 C327 474 389 445 389 353 L389 271 L255 271 C111 271 49 232 49 133 C49 20 144 -7 209 -7 C344 -7 409 29 409 148 L409 353 Z M389 147 C389 41 333 14 209 14 C138 14 69 43 69 132 C69 226 133 252 259 252 L389 252 L389 147 Z " />
<glyph glyph-name="b" unicode="b" horiz-adv-x="538" d="M80 191 C80 77 118 -7 280 -7 C439 -7 480 77 480 191 L480 296 C480 413 436 493 275 493 C176 493 115 459 100 392 L100 700 L80 700 L80 191 Z M460 190 C460 78 419 12 280 12 C140 12 100 76 100 190 L100 296 C100 412 140 474 280 474 C420 474 460 406 460 296 L460 190 Z " />
<glyph glyph-name="c" unicode="c" horiz-adv-x="429" d="M59 192 C59 46 128 -7 267 -7 C309 -7 357 -1 395 17 L395 38 C355 18 307 12 270 12 C137 12 79 59 79 191 L79 295 C79 397 115 474 267 474 C324 474 360 458 383 446 L383 467 C353 484 319 493 266 493 C110 493 59 416 59 295 L59 192 Z " />
<glyph glyph-name="d" unicode="d" horiz-adv-x="515" d="M458 700 L438 700 L438 392 C423 459 362 493 263 493 C102 493 58 413 58 296 L58 191 C58 77 99 -7 258 -7 C420 -7 458 77 458 191 L458 700 Z M78 296 C78 406 118 474 258 474 C398 474 438 412 438 296 L438 190 C438 76 398 12 258 12 C119 12 78 78 78 190 L78 296 Z " />
<glyph glyph-name="e" unicode="e" horiz-adv-x="493" d="M439 310 C439 436 364 493 249 493 C103 493 59 410 59 297 L59 192 C59 45 129 -7 261 -7 C324 -7 378 5 422 23 L422 43 C382 26 323 12 258 12 C138 12 79 57 79 189 L79 234 L436 234 C438 255 439 278 439 310 L439 310 Z M79 306 C79 429 145 474 249 474 C350 474 420 429 420 306 L420 253 L79 253 L79 306 Z " />
<glyph glyph-name="f" unicode="f" horiz-adv-x="345" d="M14 467 L92 467 L92 0 L112 0 L112 467 L329 467 L329 486 L112 486 L112 591 C112 668 159 692 232 692 C278 692 314 683 343 675 L343 694 C312 704 284 711 234 711 C152 711 92 681 92 593 L92 486 L14 481 L14 467 Z " />
<glyph glyph-name="g" unicode="g" horiz-adv-x="484" d="M432 312 L432 330 C432 374 418 429 374 460 L436 516 L426 526 L359 468 C320 488 269 493 243 493 C121 493 51 436 51 330 L51 312 C51 226 85 178 152 165 C82 165 57 141 57 102 C57 73 70 52 106 46 C78 29 42 -8 42 -77 C42 -180 96 -218 243 -218 C385 -218 441 -180 441 -71 C441 27 385 53 243 53 C107 53 77 63 77 102 C77 144 107 151 243 151 C389 151 432 210 432 312 L432 312 Z M412 312 C412 226 381 170 243 170 C104 170 71 225 71 312 L71 330 C71 412 116 474 243 474 C369 474 412 413 412 330 L412 312 Z M243 34 C364 34 421 21 421 -71 C421 -175 364 -199 243 -199 C114 -199 62 -173 62 -77 C62 -18 83 17 128 40 C157 36 194 34 243 34 L243 34 Z " />
<glyph glyph-name="h" unicode="h" horiz-adv-x="527" d="M79 0 L99 0 L99 336 C99 421 135 474 267 474 C403 474 439 409 439 320 L439 0 L459 0 L459 317 C459 415 421 493 260 493 C168 493 121 463 99 416 L99 700 L79 700 L79 0 Z " />
<glyph glyph-name="i" unicode="i" horiz-adv-x="190" d="M85 0 L105 0 L105 486 L85 486 L85 0 Z M76 645 C76 633 83 625 95 625 C107 625 114 633 114 645 C114 657 107 665 95 665 C83 665 76 657 76 645 L76 645 Z " />
<glyph glyph-name="j" unicode="j" horiz-adv-x="166" d="M93 486 L73 486 L73 57 C73 -104 31 -143 -23 -179 L-13 -195 C38 -166 93 -123 93 55 L93 486 Z M64 645 C64 633 71 625 83 625 C95 625 102 633 102 645 C102 657 95 665 83 665 C71 665 64 657 64 645 L64 645 Z " />
<glyph glyph-name="k" unicode="k" horiz-adv-x="406" d="M79 0 L99 0 L99 665 L79 665 L79 0 Z M174 331 C134 295 129 279 129 258 C129 236 136 219 174 182 L364 0 L393 0 L171 212 C152 231 147 243 147 257 C147 271 152 285 170 302 L373 486 L344 486 L174 331 Z " />
<glyph glyph-name="l" unicode="l" horiz-adv-x="200" d="M74 106 C74 22 110 -2 157 -2 C172 -2 178 0 186 3 L186 23 C176 18 168 17 152 17 C122 17 94 33 94 101 L94 700 L74 700 L74 106 Z " />
<glyph glyph-name="m" unicode="m" horiz-adv-x="794" d="M89 322 C89 416 122 474 238 474 C353 474 387 416 387 322 L387 0 L407 0 L407 322 C407 416 441 474 556 474 C671 474 705 416 705 322 L705 0 L725 0 L725 322 C725 420 688 493 556 493 C455 493 412 452 397 391 C383 452 336 493 238 493 C104 493 69 420 69 322 L69 0 L89 0 L89 322 Z " />
<glyph glyph-name="n" unicode="n" horiz-adv-x="518" d="M89 321 C89 418 127 474 259 474 C391 474 429 418 429 321 L429 0 L449 0 L449 321 C449 420 408 493 259 493 C109 493 69 420 69 321 L69 0 L89 0 L89 321 Z " />
<glyph glyph-name="o" unicode="o" horiz-adv-x="517" d="M438 190 C438 76 398 12 258 12 C118 12 79 76 79 190 L79 296 C79 410 118 474 258 474 C398 474 438 410 438 296 L438 190 Z M258 -7 C416 -7 458 74 458 190 L458 296 C458 411 415 493 258 493 C100 493 59 412 59 296 L59 190 C59 75 101 -7 258 -7 L258 -7 Z " />
<glyph glyph-name="p" unicode="p" horiz-adv-x="538" d="M80 -200 L100 -200 L100 94 C115 27 176 -7 275 -7 C436 -7 480 73 480 190 L480 295 C480 409 439 493 280 493 C118 493 80 409 80 295 L80 -200 Z M460 190 C460 80 420 12 280 12 C140 12 100 74 100 190 L100 296 C100 410 140 474 280 474 C419 474 460 408 460 296 L460 190 Z " />
<glyph glyph-name="q" unicode="q" horiz-adv-x="538" d="M458 295 C458 409 420 493 258 493 C99 493 58 409 58 295 L58 190 C58 73 102 -7 263 -7 C362 -7 423 27 438 94 L438 -200 L458 -200 L458 295 Z M78 296 C78 408 119 474 258 474 C398 474 438 410 438 296 L438 190 C438 74 398 12 258 12 C118 12 78 80 78 190 L78 296 Z " />
<glyph glyph-name="r" unicode="r" horiz-adv-x="279" d="M89 332 C89 422 116 474 204 474 C230 474 254 471 266 468 L266 487 C249 490 227 493 204 493 C98 493 69 424 69 330 L69 0 L89 0 L89 332 Z " />
<glyph glyph-name="s" unicode="s" horiz-adv-x="447" d="M59 19 C120 2 164 -7 224 -7 C327 -7 388 21 388 98 C388 165 351 190 302 215 L153 291 C106 314 87 346 87 391 C87 453 130 474 216 474 C277 474 322 463 366 444 L366 463 C319 484 276 493 218 493 C125 493 67 465 67 389 C67 324 99 296 149 270 L300 194 C343 172 368 144 368 96 C368 34 319 12 227 12 C156 12 97 27 59 38 L59 19 Z " />
<glyph glyph-name="t" unicode="t" horiz-adv-x="380" d="M14 467 L92 467 L92 157 C92 34 150 -8 234 -8 C277 -8 320 -1 347 12 L347 31 C317 18 272 11 233 11 C161 11 112 48 112 157 L112 467 L328 467 L328 486 L112 486 L112 616 L97 616 L92 486 L14 481 L14 467 Z " />
<glyph glyph-name="u" unicode="u" horiz-adv-x="494" d="M77 486 L57 486 L57 165 C57 66 97 -7 247 -7 C396 -7 437 66 437 165 L437 486 L417 486 L417 165 C417 68 379 12 247 12 C115 12 77 68 77 165 L77 486 Z " />
<glyph glyph-name="v" unicode="v" horiz-adv-x="486" d="M52 486 L33 486 L145 91 C168 11 188 -5 243 -5 C297 -5 317 11 340 91 L453 486 L433 486 L317 80 C302 27 282 14 243 14 C203 14 183 27 168 80 L52 486 Z " />
<glyph glyph-name="w" unicode="w" horiz-adv-x="770" d="M57 486 L37 486 L111 79 C124 10 150 -7 195 -7 C240 -7 267 11 280 79 L339 395 C350 455 361 468 385 468 C409 468 420 455 431 395 L490 79 C503 11 530 -7 575 -7 C620 -7 646 10 659 79 L733 486 L714 486 L639 78 C630 30 615 12 575 12 C535 12 519 30 510 78 L453 391 C441 458 429 486 385 486 C341 486 329 458 317 391 L260 78 C251 30 235 12 195 12 C155 12 140 30 131 78 L57 486 Z " />
<glyph glyph-name="x" unicode="x" horiz-adv-x="478" d="M70 486 L47 486 L161 309 C180 279 191 264 211 257 C192 249 182 234 162 204 L27 0 L50 0 L191 214 C209 241 219 247 239 247 C259 247 267 243 287 214 L428 0 L451 0 L317 204 C297 234 286 250 267 257 C287 264 298 279 317 309 L431 486 L408 486 L286 296 C274 278 259 266 239 266 C219 266 204 277 192 296 L70 486 Z " />
<glyph glyph-name="y" unicode="y" horiz-adv-x="486" d="M52 486 L33 486 L161 88 C179 32 194 2 253 2 C278 2 293 8 308 21 L300 -4 C265 -114 240 -184 127 -175 L132 -195 C253 -205 291 -110 318 -11 L453 486 L434 486 L326 87 C312 34 295 21 253 21 C212 21 198 34 181 87 L52 486 Z " />
<glyph glyph-name="z" unicode="z" horiz-adv-x="457" d="M67 467 L327 467 C379 467 390 449 390 424 C390 402 382 385 349 358 L83 134 C54 110 47 85 47 64 C47 16 84 0 133 0 L409 0 L409 19 L129 19 C84 19 66 35 66 64 C66 88 77 104 97 120 L368 349 C407 382 409 409 409 424 C409 468 382 486 320 486 L67 486 L67 467 Z " />
<glyph glyph-name="braceleft" unicode="&#x7b;" horiz-adv-x="298" d="M32 251 L48 251 C110 251 141 193 141 88 L141 -88 C141 -177 171 -227 252 -227 L269 -227 L269 -212 L245 -212 C188 -212 157 -177 157 -100 L157 96 C157 161 141 240 86 259 C143 281 157 361 157 422 L157 600 C157 677 188 712 245 712 L269 712 L269 727 L252 727 C169 727 141 679 141 588 L141 430 C141 326 110 267 48 267 L32 267 L32 251 Z " />
<glyph glyph-name="bar" unicode="&#x7c;" horiz-adv-x="185" d="M102 715 L83 715 L83 -215 L102 -215 L102 715 Z " />
<glyph glyph-name="braceright" unicode="&#x7d;" horiz-adv-x="298" d="M266 267 L250 267 C189 267 157 326 157 430 L157 588 C157 679 129 727 46 727 L29 727 L29 712 L53 712 C109 712 141 677 141 600 L141 422 C141 361 154 281 212 259 C156 240 141 161 141 96 L141 -100 C141 -177 109 -212 53 -212 L29 -212 L29 -227 L46 -227 C128 -227 157 -177 157 -88 L157 88 C157 193 189 251 250 251 L266 251 L266 267 Z " />
<glyph glyph-name="asciitilde" unicode="&#x7e;" horiz-adv-x="509" d="M46 207 L65 207 C65 258 88 314 144 314 C226 314 269 196 366 196 C426 196 463 241 463 323 L444 323 C444 257 419 216 367 216 C280 216 240 334 143 334 C83 334 46 288 46 207 L46 207 Z " />
<glyph glyph-name="exclamdown" unicode="&#xa1;" horiz-adv-x="222" d="M132 -160 L132 97 C132 184 132 272 127 359 L112 359 C108 272 108 184 108 97 L108 -160 L132 -160 Z M149 465 C149 481 137 493 121 493 C105 493 93 481 93 465 C93 448 105 436 121 436 C137 436 149 448 149 465 L149 465 Z " />
<glyph glyph-name="cent" unicode="&#xa2;" horiz-adv-x="410" d="M59 256 C59 111 121 57 245 57 L245 -22 L264 -22 L264 57 C301 58 342 65 375 81 L375 102 C335 82 287 76 250 76 C131 76 79 123 79 255 L79 359 C79 461 111 538 247 538 C304 538 340 522 363 510 L363 531 C336 546 306 554 264 556 L264 637 L245 637 L245 557 C106 556 59 479 59 359 L59 256 Z " />
<glyph glyph-name="sterling" unicode="&#xa3;" horiz-adv-x="457" d="M414 21 L182 21 C137 21 118 40 118 86 L118 315 L285 315 L285 335 L118 335 L118 456 C118 575 157 637 255 637 C317 637 355 626 384 615 L384 634 C362 644 330 658 256 658 C146 658 96 590 96 456 L96 335 L22 335 L22 315 L96 315 L96 97 C96 25 121 0 193 0 L414 0 L414 21 Z " />
<glyph glyph-name="currency" unicode="&#xa4;" horiz-adv-x="588" d="M62 88 L73 77 L219 223 C239 205 266 194 294 194 C322 194 349 205 369 223 L515 77 L526 88 L380 234 C398 254 409 281 409 309 C409 337 398 364 380 384 L526 530 L515 541 L369 395 C349 413 322 424 294 424 C266 424 239 413 219 395 L73 541 L62 530 L208 384 C190 364 179 337 179 309 C179 281 190 254 208 234 L62 88 Z M195 309 C195 364 239 408 294 408 C349 408 393 364 393 309 C393 254 349 210 294 210 C239 210 195 254 195 309 L195 309 Z " />
<glyph glyph-name="yen" unicode="&#xa5;" horiz-adv-x="556" d="M97 256 L267 256 L267 137 L97 137 L97 116 L267 116 L267 0 L289 0 L289 116 L461 116 L461 137 L289 137 L289 256 L461 256 L461 277 L285 277 C335 283 352 298 384 361 L530 650 L506 650 L362 363 C339 317 324 297 278 297 C232 297 217 317 194 363 L50 650 L26 650 L172 361 C204 298 220 283 271 277 L97 277 L97 256 Z " />
<glyph glyph-name="brokenbar" unicode="&#xa6;" horiz-adv-x="181" d="M100 715 L81 715 L81 347 L100 347 L100 715 Z M100 174 L81 174 L81 -215 L100 -215 L100 174 Z " />
<glyph glyph-name="section" unicode="&#xa7;" horiz-adv-x="530" d="M74 -157 C120 -178 185 -190 253 -190 C372 -190 456 -159 456 -64 C456 4 399 47 329 92 C405 93 456 131 456 211 C456 282 403 320 336 362 L191 453 C143 484 102 509 102 574 C102 639 149 672 261 672 C325 672 387 659 430 637 L430 659 C393 677 334 693 260 693 C151 693 80 662 80 574 C80 498 136 463 178 436 C117 431 80 393 80 323 C80 242 126 211 183 171 L326 69 C395 20 434 -8 434 -66 C434 -139 369 -169 253 -169 C185 -169 121 -159 74 -134 L74 -157 Z M102 319 C102 382 128 417 200 422 L326 344 C386 307 434 275 434 212 C434 137 390 112 306 109 L191 191 C144 225 102 254 102 319 L102 319 Z " />
<glyph glyph-name="dieresis" unicode="&#xa8;" horiz-adv-x="308" d="M52 771 C52 759 61 750 74 750 C86 750 94 759 94 771 C94 783 86 792 74 792 C61 792 52 783 52 771 L52 771 Z M214 771 C214 759 223 750 236 750 C249 750 256 759 256 771 C256 783 249 792 236 792 C223 792 214 783 214 771 L214 771 Z " />
<glyph glyph-name="copyright" unicode="&#xa9;" horiz-adv-x="807" d="M258 297 C258 197 308 159 428 159 C447 159 492 161 526 174 L526 195 C492 181 449 178 428 178 C321 178 278 206 278 297 L278 400 C278 468 304 525 410 525 C460 525 500 516 517 511 L517 529 C502 534 459 544 411 544 C301 544 258 486 258 399 L258 297 Z M61 352 C61 163 213 10 403 10 C593 10 746 163 746 352 C746 542 593 695 403 695 C213 695 61 542 61 352 L61 352 Z M81 352 C81 531 227 676 403 676 C580 676 726 531 726 352 C726 173 580 29 403 29 C227 29 81 173 81 352 L81 352 Z " />
<glyph glyph-name="guillemotleft" unicode="&#xab;" horiz-adv-x="397" d="M206 57 L77 213 C60 234 54 242 54 250 C54 259 62 268 77 287 L206 443 L181 443 L68 308 C42 277 34 263 34 250 C34 237 40 226 68 192 L181 57 L206 57 Z M356 57 L227 213 C210 234 204 242 204 250 C204 259 212 268 227 287 L356 443 L331 443 L218 308 C192 277 184 263 184 250 C184 237 190 226 218 192 L331 57 L356 57 Z " />
<glyph glyph-name="logicalnot" unicode="&#xac;" horiz-adv-x="478" d="M432 350 C432 394 414 413 370 413 L20 413 L20 394 L373 394 C400 394 412 382 412 354 L412 201 L432 201 L432 350 Z " />
<glyph glyph-name="registered" unicode="&#xae;" horiz-adv-x="807" d="M61 352 C61 163 213 10 403 10 C593 10 746 163 746 352 C746 542 593 695 403 695 C213 695 61 542 61 352 L61 352 Z M81 352 C81 531 227 676 403 676 C580 676 726 531 726 352 C726 173 580 29 403 29 C227 29 81 173 81 352 L81 352 Z M525 165 L548 165 L431 342 C498 345 531 379 531 442 C531 507 499 539 416 539 L365 539 C310 539 286 516 286 460 L286 165 L306 165 L306 341 L408 341 L525 165 Z M416 520 C488 520 511 494 511 442 C511 385 484 360 405 360 L306 360 L306 469 C306 504 322 520 360 520 L416 520 Z " />
<glyph glyph-name="degree" unicode="&#xb0;" horiz-adv-x="354" d="M302 590 C302 661 247 715 178 715 C107 715 52 661 52 590 C52 518 106 466 178 466 C247 466 302 520 302 590 L302 590 Z M283 590 C283 531 233 484 179 484 C116 484 71 530 71 590 C71 649 115 697 179 697 C239 697 283 649 283 590 L283 590 Z " />
<glyph glyph-name="plusminus" unicode="&#xb1;" horiz-adv-x="548" d="M485 97 L284 97 L284 298 L485 298 L485 317 L284 317 L284 518 L264 518 L264 317 L63 317 L63 298 L264 298 L264 97 L63 97 L63 78 L485 78 L485 97 Z " />
<glyph glyph-name="acute" unicode="&#xb4;" horiz-adv-x="201" d="M151 886 L129 886 L50 750 L69 750 L151 886 Z " />
<glyph glyph-name="mu" unicode="&#xb5;" horiz-adv-x="516" d="M79 -200 L99 -200 L99 75 C127 4 207 -7 268 -7 C355 -7 459 14 459 166 L459 486 L439 486 L439 166 C439 50 382 12 268 12 C174 12 99 37 99 162 L99 486 L79 486 L79 -200 Z " />
<glyph glyph-name="paragraph" unicode="&#xb6;" horiz-adv-x="478" d="M33 492 C33 405 88 328 201 328 L201 255 C201 148 201 21 91 -70 L102 -87 C220 9 220 143 220 255 L220 630 L320 630 C363 630 382 612 382 568 L382 -75 L401 -75 L401 553 C401 621 372 650 305 650 L196 650 C89 650 33 593 33 492 L33 492 Z " />
<glyph glyph-name="periodcentered" unicode="&#xb7;" horiz-adv-x="138" d="M41 308 C41 291 53 279 69 279 C85 279 97 291 97 308 C97 324 85 336 69 336 C53 336 41 324 41 308 L41 308 Z " />
<glyph glyph-name="cedilla" unicode="&#xb8;" horiz-adv-x="191" d="M69 18 L45 -70 C60 -66 80 -63 101 -63 C145 -63 155 -77 155 -109 C155 -151 138 -163 89 -163 C63 -163 44 -157 32 -152 L32 -171 C50 -177 68 -181 87 -181 C146 -181 174 -161 174 -109 C174 -61 146 -35 71 -48 L89 18 L69 18 Z " />
<glyph glyph-name="guillemotright" unicode="&#xbb;" horiz-adv-x="397" d="M65 57 L178 192 C206 226 212 237 212 250 C212 263 204 277 178 308 L65 443 L40 443 L169 287 C184 268 192 259 192 250 C192 242 186 234 169 213 L40 57 L65 57 Z M216 57 L329 192 C357 226 363 237 363 250 C363 263 355 277 329 308 L216 443 L191 443 L320 287 C335 268 343 259 343 250 C343 242 337 234 320 213 L191 57 L216 57 Z " />
<glyph glyph-name="questiondown" unicode="&#xbf;" horiz-adv-x="371" d="M302 463 C302 479 290 491 273 491 C257 491 245 479 245 463 C245 446 257 435 273 435 C290 435 302 446 302 463 L302 463 Z M46 5 C46 -122 112 -170 231 -170 C266 -170 311 -163 336 -154 L336 -132 C305 -143 273 -150 229 -150 C132 -150 67 -116 67 5 C67 98 129 140 173 168 C239 209 294 256 281 340 L263 340 C263 266 232 231 169 190 C106 149 46 108 46 5 L46 5 Z " />
<glyph glyph-name="Agrave" unicode="&#xc0;" horiz-adv-x="561" d="M380 555 C355 645 331 658 280 658 C230 658 206 645 180 555 L21 0 L44 0 L114 245 L447 245 L517 0 L540 0 L380 555 Z M210 579 C224 627 245 638 280 638 C316 638 337 627 351 579 L441 266 L120 266 L210 579 Z M275 690 L294 690 L215 826 L193 826 L275 690 Z " />
<glyph glyph-name="Aacute" unicode="&#xc1;" horiz-adv-x="561" d="M380 555 C355 645 331 658 280 658 C230 658 206 645 180 555 L21 0 L44 0 L114 245 L447 245 L517 0 L540 0 L380 555 Z M210 579 C224 627 245 638 280 638 C316 638 337 627 351 579 L441 266 L120 266 L210 579 Z M356 826 L334 826 L255 690 L274 690 L356 826 Z " />
<glyph glyph-name="Acircumflex" unicode="&#xc2;" horiz-adv-x="561" d="M380 555 C355 645 331 658 280 658 C230 658 206 645 180 555 L21 0 L44 0 L114 245 L447 245 L517 0 L540 0 L380 555 Z M210 579 C224 627 245 638 280 638 C316 638 337 627 351 579 L441 266 L120 266 L210 579 Z M180 695 L201 695 L236 755 C260 796 267 802 280 802 C293 802 300 796 324 755 L359 695 L380 695 L339 764 C315 804 306 819 280 819 C254 819 244 803 221 764 L180 695 Z " />
<glyph glyph-name="Atilde" unicode="&#xc3;" horiz-adv-x="561" d="M380 555 C355 645 331 658 280 658 C230 658 206 645 180 555 L21 0 L44 0 L114 245 L447 245 L517 0 L540 0 L380 555 Z M210 579 C224 627 245 638 280 638 C316 638 337 627 351 579 L441 266 L120 266 L210 579 Z M152 722 L174 722 C174 756 180 786 212 786 C258 786 292 711 348 711 C397 711 410 745 410 794 L387 794 C387 759 382 730 350 730 C304 730 270 805 214 805 C168 805 152 770 152 722 L152 722 Z " />
<glyph glyph-name="Adieresis" unicode="&#xc4;" horiz-adv-x="561" d="M380 555 C355 645 331 658 280 658 C230 658 206 645 180 555 L21 0 L44 0 L114 245 L447 245 L517 0 L540 0 L380 555 Z M210 579 C224 627 245 638 280 638 C316 638 337 627 351 579 L441 266 L120 266 L210 579 Z M178 758 C178 746 187 737 200 737 C212 737 220 746 220 758 C220 770 212 779 200 779 C187 779 178 770 178 758 L178 758 Z M340 758 C340 746 349 737 362 737 C375 737 382 746 382 758 C382 770 375 779 362 779 C349 779 340 770 340 758 L340 758 Z " />
<glyph glyph-name="Aring" unicode="&#xc5;" horiz-adv-x="561" d="M380 555 C355 645 331 658 280 658 C230 658 206 645 180 555 L21 0 L44 0 L114 245 L447 245 L517 0 L540 0 L380 555 Z M210 579 C224 627 245 638 280 638 C316 638 337 627 351 579 L441 266 L120 266 L210 579 Z M280 680 C328 680 359 710 359 759 C359 806 328 836 280 836 C232 836 201 806 201 759 C201 710 232 680 280 680 L280 680 Z M280 698 C242 698 220 720 220 758 C220 796 242 818 280 818 C318 818 340 796 340 758 C340 720 318 698 280 698 L280 698 Z " />
<glyph glyph-name="AE" unicode="&#xc6;" horiz-adv-x="809" d="M413 334 L729 334 L729 355 L413 355 L413 564 C413 610 432 629 478 629 L769 629 L769 650 L280 650 C230 650 216 639 188 548 L21 0 L43 0 L118 245 L391 245 L391 97 C391 25 416 0 488 0 L769 0 L769 21 L478 21 C432 21 413 40 413 86 L413 334 Z M218 572 C234 618 247 629 276 629 L413 629 C397 613 391 588 391 558 L391 266 L124 266 L218 572 Z " />
<glyph glyph-name="Ccedilla" unicode="&#xc7;" horiz-adv-x="513" d="M85 399 C85 569 140 637 289 637 C359 637 400 625 456 602 L456 623 C415 641 372 658 289 658 C131 658 63 581 63 399 L63 239 C63 78 127 -4 285 -7 L268 -70 C283 -66 303 -63 324 -63 C368 -63 378 -77 378 -109 C378 -151 361 -163 312 -163 C286 -163 267 -157 255 -152 L255 -171 C273 -177 291 -181 310 -181 C369 -181 397 -161 397 -109 C397 -61 369 -35 294 -48 L305 -7 C389 -5 430 12 467 30 L467 51 C444 38 381 14 294 14 C144 14 85 86 85 239 L85 399 Z " />
<glyph glyph-name="Egrave" unicode="&#xc8;" horiz-adv-x="501" d="M282 690 L301 690 L222 826 L200 826 L282 690 Z M105 334 L421 334 L421 355 L105 355 L105 564 C105 610 124 629 169 629 L461 629 L461 650 L180 650 C108 650 83 625 83 553 L83 97 C83 25 108 0 180 0 L461 0 L461 21 L169 21 C124 21 105 40 105 86 L105 334 Z " />
<glyph glyph-name="Eacute" unicode="&#xc9;" horiz-adv-x="501" d="M105 334 L421 334 L421 355 L105 355 L105 564 C105 610 124 629 169 629 L461 629 L461 650 L180 650 C108 650 83 625 83 553 L83 97 C83 25 108 0 180 0 L461 0 L461 21 L169 21 C124 21 105 40 105 86 L105 334 Z M326 826 L304 826 L225 690 L244 690 L326 826 Z " />
<glyph glyph-name="Ecircumflex" unicode="&#xca;" horiz-adv-x="501" d="M105 334 L421 334 L421 355 L105 355 L105 564 C105 610 124 629 169 629 L461 629 L461 650 L180 650 C108 650 83 625 83 553 L83 97 C83 25 108 0 180 0 L461 0 L461 21 L169 21 C124 21 105 40 105 86 L105 334 Z M170 695 L191 695 L226 755 C250 796 257 802 270 802 C283 802 290 796 314 755 L349 695 L370 695 L329 764 C305 804 296 819 270 819 C244 819 234 803 211 764 L170 695 Z " />
<glyph glyph-name="Edieresis" unicode="&#xcb;" horiz-adv-x="501" d="M105 334 L421 334 L421 355 L105 355 L105 564 C105 610 124 629 169 629 L461 629 L461 650 L180 650 C108 650 83 625 83 553 L83 97 C83 25 108 0 180 0 L461 0 L461 21 L169 21 C124 21 105 40 105 86 L105 334 Z M169 758 C169 746 178 737 191 737 C203 737 211 746 211 758 C211 770 203 779 191 779 C178 779 169 770 169 758 L169 758 Z M331 758 C331 746 340 737 353 737 C366 737 373 746 373 758 C373 770 366 779 353 779 C340 779 331 770 331 758 L331 758 Z " />
<glyph glyph-name="Igrave" unicode="&#xcc;" horiz-adv-x="197" d="M87 0 L109 0 L109 650 L87 650 L87 0 Z M93 690 L112 690 L33 826 L11 826 L93 690 Z " />
<glyph glyph-name="Iacute" unicode="&#xcd;" horiz-adv-x="197" d="M87 0 L109 0 L109 650 L87 650 L87 0 Z M184 826 L162 826 L83 690 L102 690 L184 826 Z " />
<glyph glyph-name="Icircumflex" unicode="&#xce;" horiz-adv-x="197" d="M87 0 L109 0 L109 650 L87 650 L87 0 Z M-1 695 L20 695 L55 755 C79 796 86 802 99 802 C112 802 119 796 143 755 L178 695 L199 695 L158 764 C134 804 125 819 99 819 C73 819 63 803 40 764 L-1 695 Z " />
<glyph glyph-name="Idieresis" unicode="&#xcf;" horiz-adv-x="198" d="M88 0 L110 0 L110 650 L88 650 L88 0 Z M-3 758 C-3 746 6 737 19 737 C31 737 39 746 39 758 C39 770 31 779 19 779 C6 779 -3 770 -3 758 L-3 758 Z M159 758 C159 746 168 737 181 737 C194 737 201 746 201 758 C201 770 194 779 181 779 C168 779 159 770 159 758 L159 758 Z " />
<glyph glyph-name="Eth" unicode="&#xd0;" horiz-adv-x="586" d="M83 97 C83 25 108 0 180 0 L265 0 C464 0 524 65 524 258 L524 392 C524 586 460 650 265 650 L180 650 C108 650 83 625 83 553 L83 335 L20 335 L20 315 L83 315 L83 97 Z M265 21 L169 21 C124 21 105 40 105 86 L105 315 L223 315 L223 335 L105 335 L105 564 C105 610 124 629 169 629 L265 629 C454 629 503 568 503 392 L503 258 C503 79 454 21 265 21 L265 21 Z " />
<glyph glyph-name="Ntilde" unicode="&#xd1;" horiz-adv-x="589" d="M83 0 L105 0 L105 586 C105 617 114 634 140 634 C156 634 173 628 189 583 L379 63 C394 22 411 -5 450 -5 C486 -5 506 18 506 64 L506 650 L484 650 L484 64 C484 33 475 16 449 16 C433 16 416 22 400 67 L210 587 C195 628 178 655 139 655 C103 655 83 632 83 586 L83 0 Z M172 722 L194 722 C194 756 200 786 232 786 C278 786 312 711 368 711 C417 711 430 745 430 794 L407 794 C407 759 402 730 370 730 C324 730 290 805 234 805 C188 805 172 770 172 722 L172 722 Z " />
<glyph glyph-name="Ograve" unicode="&#xd2;" horiz-adv-x="594" d="M510 250 C510 96 474 14 297 14 C120 14 84 96 84 250 L84 401 C84 554 120 637 297 637 C474 637 510 554 510 401 L510 250 Z M297 -7 C479 -7 532 79 532 250 L532 401 C532 571 481 658 297 658 C114 658 62 571 62 401 L62 250 C62 79 112 -7 297 -7 L297 -7 Z M317 690 L336 690 L257 826 L235 826 L317 690 Z " />
<glyph glyph-name="Oacute" unicode="&#xd3;" horiz-adv-x="594" d="M510 250 C510 96 474 14 297 14 C120 14 84 96 84 250 L84 401 C84 554 120 637 297 637 C474 637 510 554 510 401 L510 250 Z M297 -7 C479 -7 532 79 532 250 L532 401 C532 571 481 658 297 658 C114 658 62 571 62 401 L62 250 C62 79 112 -7 297 -7 L297 -7 Z M386 826 L364 826 L285 690 L304 690 L386 826 Z " />
<glyph glyph-name="Ocircumflex" unicode="&#xd4;" horiz-adv-x="594" d="M510 250 C510 96 474 14 297 14 C120 14 84 96 84 250 L84 401 C84 554 120 637 297 637 C474 637 510 554 510 401 L510 250 Z M297 -7 C479 -7 532 79 532 250 L532 401 C532 571 481 658 297 658 C114 658 62 571 62 401 L62 250 C62 79 112 -7 297 -7 L297 -7 Z M191 695 L212 695 L247 755 C271 796 278 802 291 802 C304 802 311 796 335 755 L370 695 L391 695 L350 764 C326 804 317 819 291 819 C265 819 255 803 232 764 L191 695 Z " />
<glyph glyph-name="Otilde" unicode="&#xd5;" horiz-adv-x="594" d="M510 250 C510 96 474 14 297 14 C120 14 84 96 84 250 L84 401 C84 554 120 637 297 637 C474 637 510 554 510 401 L510 250 Z M297 -7 C479 -7 532 79 532 250 L532 401 C532 571 481 658 297 658 C114 658 62 571 62 401 L62 250 C62 79 112 -7 297 -7 L297 -7 Z M162 722 L184 722 C184 756 190 786 222 786 C268 786 302 711 358 711 C407 711 420 745 420 794 L397 794 C397 759 392 730 360 730 C314 730 280 805 224 805 C178 805 162 770 162 722 L162 722 Z " />
<glyph glyph-name="Odieresis" unicode="&#xd6;" horiz-adv-x="594" d="M510 250 C510 96 474 14 297 14 C120 14 84 96 84 250 L84 401 C84 554 120 637 297 637 C474 637 510 554 510 401 L510 250 Z M297 -7 C479 -7 532 79 532 250 L532 401 C532 571 481 658 297 658 C114 658 62 571 62 401 L62 250 C62 79 112 -7 297 -7 L297 -7 Z M190 758 C190 746 199 737 212 737 C224 737 232 746 232 758 C232 770 224 779 212 779 C199 779 190 770 190 758 L190 758 Z M352 758 C352 746 361 737 374 737 C387 737 394 746 394 758 C394 770 387 779 374 779 C361 779 352 770 352 758 L352 758 Z " />
<glyph glyph-name="multiply" unicode="&#xd7;" horiz-adv-x="496" d="M262 325 L434 496 L419 511 L248 339 L77 511 L63 496 L234 325 L63 154 L77 139 L248 311 L419 139 L434 154 L262 325 Z " />
<glyph glyph-name="Oslash" unicode="&#xd8;" horiz-adv-x="594" d="M297 -7 C479 -7 532 79 532 250 L532 401 C532 496 516 565 469 608 L498 657 L482 666 L455 619 C419 645 368 658 297 658 C114 658 62 571 62 401 L62 250 C62 155 77 86 122 44 L97 0 L113 -9 L137 32 C173 6 224 -7 297 -7 L297 -7 Z M510 250 C510 96 474 14 297 14 C227 14 180 26 147 51 L458 589 C499 549 510 486 510 401 L510 250 Z M84 250 L84 401 C84 554 120 637 297 637 C365 637 412 625 444 601 L133 63 C94 103 84 165 84 250 L84 250 Z " />
<glyph glyph-name="Ugrave" unicode="&#xd9;" horiz-adv-x="599" d="M72 186 C72 45 150 -7 299 -7 C449 -7 527 45 527 186 L527 650 L505 650 L505 186 C505 57 437 14 299 14 C161 14 94 57 94 186 L94 650 L72 650 L72 186 Z M295 690 L314 690 L235 826 L213 826 L295 690 Z " />
<glyph glyph-name="Uacute" unicode="&#xda;" horiz-adv-x="599" d="M72 186 C72 45 150 -7 299 -7 C449 -7 527 45 527 186 L527 650 L505 650 L505 186 C505 57 437 14 299 14 C161 14 94 57 94 186 L94 650 L72 650 L72 186 Z M371 826 L349 826 L270 690 L289 690 L371 826 Z " />
<glyph glyph-name="Ucircumflex" unicode="&#xdb;" horiz-adv-x="599" d="M72 186 C72 45 150 -7 299 -7 C449 -7 527 45 527 186 L527 650 L505 650 L505 186 C505 57 437 14 299 14 C161 14 94 57 94 186 L94 650 L72 650 L72 186 Z M192 695 L213 695 L248 755 C272 796 279 802 292 802 C305 802 312 796 336 755 L371 695 L392 695 L351 764 C327 804 318 819 292 819 C266 819 256 803 233 764 L192 695 Z " />
<glyph glyph-name="Udieresis" unicode="&#xdc;" horiz-adv-x="599" d="M72 186 C72 45 150 -7 299 -7 C449 -7 527 45 527 186 L527 650 L505 650 L505 186 C505 57 437 14 299 14 C161 14 94 57 94 186 L94 650 L72 650 L72 186 Z M191 758 C191 746 200 737 213 737 C225 737 233 746 233 758 C233 770 225 779 213 779 C200 779 191 770 191 758 L191 758 Z M353 758 C353 746 362 737 375 737 C388 737 395 746 395 758 C395 770 388 779 375 779 C362 779 353 770 353 758 L353 758 Z " />
<glyph glyph-name="Yacute" unicode="&#xdd;" horiz-adv-x="554" d="M266 0 L288 0 L288 284 C327 288 349 307 379 362 L537 650 L513 650 L356 365 C332 322 317 305 277 305 C237 305 222 322 198 365 L41 650 L17 650 L175 362 C205 307 227 288 266 284 L266 0 Z M366 826 L344 826 L265 690 L284 690 L366 826 Z " />
<glyph glyph-name="Thorn" unicode="&#xde;" horiz-adv-x="531" d="M83 0 L105 0 L105 123 L287 123 C456 123 501 191 501 306 C501 425 459 489 287 489 L105 489 L105 615 L83 615 L83 0 Z M287 468 C444 468 479 412 479 306 C479 198 446 144 287 144 L105 144 L105 468 L287 468 Z " />
<glyph glyph-name="germandbls" unicode="&#xdf;" horiz-adv-x="478" d="M427 124 C427 288 254 247 254 336 C254 412 373 410 373 531 C373 590 337 658 222 658 C125 658 61 604 61 458 L61 0 L83 0 L83 462 C83 594 134 637 222 637 C319 637 351 587 351 531 C351 420 234 426 234 336 C234 224 405 278 405 119 C405 49 363 14 261 14 C225 14 202 18 177 27 L177 5 C195 -2 228 -7 268 -7 C374 -7 427 37 427 124 L427 124 Z " />
<glyph glyph-name="agrave" unicode="&#xe0;" horiz-adv-x="468" d="M409 353 C409 459 336 493 232 493 C173 493 130 487 91 477 L91 454 C132 467 174 474 232 474 C327 474 389 445 389 353 L389 271 L255 271 C111 271 49 232 49 133 C49 20 144 -7 209 -7 C344 -7 409 29 409 148 L409 353 Z M389 147 C389 41 333 14 209 14 C138 14 69 43 69 132 C69 226 133 252 259 252 L389 252 L389 147 Z M254 530 L273 530 L194 666 L172 666 L254 530 Z " />
<glyph glyph-name="aacute" unicode="&#xe1;" horiz-adv-x="468" d="M409 353 C409 459 336 493 232 493 C173 493 130 487 91 477 L91 454 C132 467 174 474 232 474 C327 474 389 445 389 353 L389 271 L255 271 C111 271 49 232 49 133 C49 20 144 -7 209 -7 C344 -7 409 29 409 148 L409 353 Z M389 147 C389 41 333 14 209 14 C138 14 69 43 69 132 C69 226 133 252 259 252 L389 252 L389 147 Z M286 666 L264 666 L185 530 L204 530 L286 666 Z " />
<glyph glyph-name="acircumflex" unicode="&#xe2;" horiz-adv-x="468" d="M409 353 C409 459 336 493 232 493 C173 493 130 487 91 477 L91 454 C132 467 174 474 232 474 C327 474 389 445 389 353 L389 271 L255 271 C111 271 49 232 49 133 C49 20 144 -7 209 -7 C344 -7 409 29 409 148 L409 353 Z M389 147 C389 41 333 14 209 14 C138 14 69 43 69 132 C69 226 133 252 259 252 L389 252 L389 147 Z M131 536 L152 536 L187 596 C211 637 218 643 231 643 C244 643 251 637 275 596 L310 536 L331 536 L290 605 C266 645 257 660 231 660 C205 660 195 644 172 605 L131 536 Z " />
<glyph glyph-name="atilde" unicode="&#xe3;" horiz-adv-x="468" d="M409 353 C409 459 336 493 232 493 C173 493 130 487 91 477 L91 454 C132 467 174 474 232 474 C327 474 389 445 389 353 L389 271 L255 271 C111 271 49 232 49 133 C49 20 144 -7 209 -7 C344 -7 409 29 409 148 L409 353 Z M389 147 C389 41 333 14 209 14 C138 14 69 43 69 132 C69 226 133 252 259 252 L389 252 L389 147 Z M102 562 L124 562 C124 596 130 626 162 626 C208 626 242 551 298 551 C347 551 360 585 360 634 L337 634 C337 599 332 570 300 570 C254 570 220 645 164 645 C118 645 102 610 102 562 L102 562 Z " />
<glyph glyph-name="adieresis" unicode="&#xe4;" horiz-adv-x="468" d="M409 353 C409 459 336 493 232 493 C173 493 130 487 91 477 L91 454 C132 467 174 474 232 474 C327 474 389 445 389 353 L389 271 L255 271 C111 271 49 232 49 133 C49 20 144 -7 209 -7 C344 -7 409 29 409 148 L409 353 Z M389 147 C389 41 333 14 209 14 C138 14 69 43 69 132 C69 226 133 252 259 252 L389 252 L389 147 Z M123 598 C123 586 132 577 145 577 C157 577 165 586 165 598 C165 610 157 619 145 619 C132 619 123 610 123 598 L123 598 Z M285 598 C285 586 294 577 307 577 C320 577 327 586 327 598 C327 610 320 619 307 619 C294 619 285 610 285 598 L285 598 Z " />
<glyph glyph-name="aring" unicode="&#xe5;" horiz-adv-x="468" d="M409 353 C409 459 336 493 232 493 C173 493 130 487 91 477 L91 454 C132 467 174 474 232 474 C327 474 389 445 389 353 L389 271 L255 271 C111 271 49 232 49 133 C49 20 144 -7 209 -7 C344 -7 409 29 409 148 L409 353 Z M389 147 C389 41 333 14 209 14 C138 14 69 43 69 132 C69 226 133 252 259 252 L389 252 L389 147 Z M235 520 C283 520 314 550 314 599 C314 646 283 676 235 676 C187 676 156 646 156 599 C156 550 187 520 235 520 L235 520 Z M235 538 C197 538 175 560 175 598 C175 636 197 658 235 658 C273 658 295 636 295 598 C295 560 273 538 235 538 L235 538 Z " />
<glyph glyph-name="ae" unicode="&#xe6;" horiz-adv-x="823" d="M769 310 C769 436 694 493 580 493 C468 493 420 447 406 377 L402 377 C397 463 331 493 232 493 C173 493 130 487 91 477 L91 456 C132 467 174 474 232 474 C327 474 389 445 389 353 L389 271 L255 271 C111 271 49 232 49 133 C49 20 147 -7 209 -7 C335 -7 394 23 399 113 L403 113 C418 28 483 -7 592 -7 C655 -7 709 5 752 23 L752 43 C714 27 655 12 590 12 C464 12 409 60 409 189 L409 234 L766 234 C768 255 769 278 769 310 L769 310 Z M389 147 C389 41 333 14 209 14 C138 14 69 43 69 132 C69 226 133 252 259 252 L389 252 L389 147 Z M409 306 C409 431 476 474 580 474 C680 474 750 428 750 306 L750 253 L409 253 L409 306 Z " />
<glyph glyph-name="ccedilla" unicode="&#xe7;" horiz-adv-x="429" d="M59 192 C59 51 123 -2 251 -6 L234 -70 C249 -66 269 -63 290 -63 C334 -63 344 -77 344 -109 C344 -151 327 -163 278 -163 C252 -163 233 -157 221 -152 L221 -171 C239 -177 257 -181 276 -181 C335 -181 363 -161 363 -109 C363 -61 335 -35 260 -48 L271 -7 C312 -6 358 0 395 17 L395 38 C355 18 307 12 270 12 C137 12 79 59 79 191 L79 295 C79 397 115 474 267 474 C324 474 360 458 383 446 L383 467 C353 484 319 493 266 493 C110 493 59 416 59 295 L59 192 Z " />
<glyph glyph-name="egrave" unicode="&#xe8;" horiz-adv-x="493" d="M439 310 C439 436 364 493 249 493 C103 493 59 410 59 297 L59 192 C59 45 129 -7 261 -7 C324 -7 378 5 422 23 L422 43 C382 26 323 12 258 12 C138 12 79 57 79 189 L79 234 L436 234 C438 255 439 278 439 310 L439 310 Z M79 306 C79 429 145 474 249 474 C350 474 420 429 420 306 L420 253 L79 253 L79 306 Z M274 530 L293 530 L214 666 L192 666 L274 530 Z " />
<glyph glyph-name="eacute" unicode="&#xe9;" horiz-adv-x="493" d="M439 310 C439 436 364 493 249 493 C103 493 59 410 59 297 L59 192 C59 45 129 -7 261 -7 C324 -7 378 5 422 23 L422 43 C382 26 323 12 258 12 C138 12 79 57 79 189 L79 234 L436 234 C438 255 439 278 439 310 L439 310 Z M79 306 C79 429 145 474 249 474 C350 474 420 429 420 306 L420 253 L79 253 L79 306 Z M307 666 L285 666 L206 530 L225 530 L307 666 Z " />
<glyph glyph-name="ecircumflex" unicode="&#xea;" horiz-adv-x="493" d="M439 310 C439 436 364 493 249 493 C103 493 59 410 59 297 L59 192 C59 45 129 -7 261 -7 C324 -7 378 5 422 23 L422 43 C382 26 323 12 258 12 C138 12 79 57 79 189 L79 234 L436 234 C438 255 439 278 439 310 L439 310 Z M79 306 C79 429 145 474 249 474 C350 474 420 429 420 306 L420 253 L79 253 L79 306 Z M151 536 L172 536 L207 596 C231 637 238 643 251 643 C264 643 271 637 295 596 L330 536 L351 536 L310 605 C286 645 277 660 251 660 C225 660 215 644 192 605 L151 536 Z " />
<glyph glyph-name="edieresis" unicode="&#xeb;" horiz-adv-x="493" d="M439 310 C439 436 364 493 249 493 C103 493 59 410 59 297 L59 192 C59 45 129 -7 261 -7 C324 -7 378 5 422 23 L422 43 C382 26 323 12 258 12 C138 12 79 57 79 189 L79 234 L436 234 C438 255 439 278 439 310 L439 310 Z M79 306 C79 429 145 474 249 474 C350 474 420 429 420 306 L420 253 L79 253 L79 306 Z M147 598 C147 586 156 577 169 577 C181 577 189 586 189 598 C189 610 181 619 169 619 C156 619 147 610 147 598 L147 598 Z M309 598 C309 586 318 577 331 577 C344 577 351 586 351 598 C351 610 344 619 331 619 C318 619 309 610 309 598 L309 598 Z " />
<glyph glyph-name="igrave" unicode="&#xec;" horiz-adv-x="190" d="M85 0 L105 0 L105 486 L85 486 L85 0 Z M89 530 L108 530 L29 666 L7 666 L89 530 Z " />
<glyph glyph-name="iacute" unicode="&#xed;" horiz-adv-x="190" d="M85 0 L105 0 L105 486 L85 486 L85 0 Z M183 666 L161 666 L82 530 L101 530 L183 666 Z " />
<glyph glyph-name="icircumflex" unicode="&#xee;" horiz-adv-x="190" d="M85 0 L105 0 L105 486 L85 486 L85 0 Z M-6 536 L15 536 L50 596 C74 637 81 643 94 643 C107 643 114 637 138 596 L173 536 L194 536 L153 605 C129 645 120 660 94 660 C68 660 58 644 35 605 L-6 536 Z " />
<glyph glyph-name="idieresis" unicode="&#xef;" horiz-adv-x="190" d="M85 0 L105 0 L105 486 L85 486 L85 0 Z M-8 598 C-8 586 1 577 14 577 C26 577 34 586 34 598 C34 610 26 619 14 619 C1 619 -8 610 -8 598 L-8 598 Z M154 598 C154 586 163 577 176 577 C189 577 196 586 196 598 C196 610 189 619 176 619 C163 619 154 610 154 598 L154 598 Z " />
<glyph glyph-name="eth" unicode="&#xf0;" horiz-adv-x="489" d="M170 538 L185 524 L290 630 C378 571 403 482 405 358 C351 377 291 387 239 387 C118 387 41 325 41 193 C41 56 111 -7 229 -7 C398 -7 426 87 426 337 C426 466 415 566 305 645 L384 724 L369 738 L287 656 C232 688 171 698 118 704 L112 683 C166 677 222 668 272 640 L170 538 Z M239 367 C299 367 353 357 405 338 C405 101 383 13 229 13 C123 13 62 69 62 192 C62 323 143 367 239 367 L239 367 Z " />
<glyph glyph-name="ntilde" unicode="&#xf1;" horiz-adv-x="518" d="M89 321 C89 418 127 474 259 474 C391 474 429 418 429 321 L429 0 L449 0 L449 321 C449 420 408 493 259 493 C109 493 69 420 69 321 L69 0 L89 0 L89 321 Z M131 562 L153 562 C153 596 159 626 191 626 C237 626 271 551 327 551 C376 551 389 585 389 634 L366 634 C366 599 361 570 329 570 C283 570 249 645 193 645 C147 645 131 610 131 562 L131 562 Z " />
<glyph glyph-name="ograve" unicode="&#xf2;" horiz-adv-x="517" d="M438 190 C438 76 398 12 258 12 C118 12 79 76 79 190 L79 296 C79 410 118 474 258 474 C398 474 438 410 438 296 L438 190 Z M258 -7 C416 -7 458 74 458 190 L458 296 C458 411 415 493 258 493 C100 493 59 412 59 296 L59 190 C59 75 101 -7 258 -7 L258 -7 Z M275 530 L294 530 L215 666 L193 666 L275 530 Z " />
<glyph glyph-name="oacute" unicode="&#xf3;" horiz-adv-x="517" d="M438 190 C438 76 398 12 258 12 C118 12 79 76 79 190 L79 296 C79 410 118 474 258 474 C398 474 438 410 438 296 L438 190 Z M258 -7 C416 -7 458 74 458 190 L458 296 C458 411 415 493 258 493 C100 493 59 412 59 296 L59 190 C59 75 101 -7 258 -7 L258 -7 Z M325 666 L303 666 L224 530 L243 530 L325 666 Z " />
<glyph glyph-name="ocircumflex" unicode="&#xf4;" horiz-adv-x="517" d="M438 190 C438 76 398 12 258 12 C118 12 79 76 79 190 L79 296 C79 410 118 474 258 474 C398 474 438 410 438 296 L438 190 Z M258 -7 C416 -7 458 74 458 190 L458 296 C458 411 415 493 258 493 C100 493 59 412 59 296 L59 190 C59 75 101 -7 258 -7 L258 -7 Z M158 536 L179 536 L214 596 C238 637 245 643 258 643 C271 643 278 637 302 596 L337 536 L358 536 L317 605 C293 645 284 660 258 660 C232 660 222 644 199 605 L158 536 Z " />
<glyph glyph-name="otilde" unicode="&#xf5;" horiz-adv-x="517" d="M438 190 C438 76 398 12 258 12 C118 12 79 76 79 190 L79 296 C79 410 118 474 258 474 C398 474 438 410 438 296 L438 190 Z M258 -7 C416 -7 458 74 458 190 L458 296 C458 411 415 493 258 493 C100 493 59 412 59 296 L59 190 C59 75 101 -7 258 -7 L258 -7 Z M131 562 L153 562 C153 596 159 626 191 626 C237 626 271 551 327 551 C376 551 389 585 389 634 L366 634 C366 599 361 570 329 570 C283 570 249 645 193 645 C147 645 131 610 131 562 L131 562 Z " />
<glyph glyph-name="odieresis" unicode="&#xf6;" horiz-adv-x="517" d="M438 190 C438 76 398 12 258 12 C118 12 79 76 79 190 L79 296 C79 410 118 474 258 474 C398 474 438 410 438 296 L438 190 Z M258 -7 C416 -7 458 74 458 190 L458 296 C458 411 415 493 258 493 C100 493 59 412 59 296 L59 190 C59 75 101 -7 258 -7 L258 -7 Z M156 598 C156 586 165 577 178 577 C190 577 198 586 198 598 C198 610 190 619 178 619 C165 619 156 610 156 598 L156 598 Z M318 598 C318 586 327 577 340 577 C353 577 360 586 360 598 C360 610 353 619 340 619 C327 619 318 610 318 598 L318 598 Z " />
<glyph glyph-name="divide" unicode="&#xf7;" horiz-adv-x="548" d="M246 150 C246 133 258 122 274 122 C290 122 302 133 302 150 C302 166 290 178 274 178 C258 178 246 166 246 150 L246 150 Z M246 500 C246 484 258 472 274 472 C290 472 302 484 302 500 C302 517 290 528 274 528 C258 528 246 517 246 500 L246 500 Z M485 334 L63 334 L63 316 L485 316 L485 334 Z " />
<glyph glyph-name="oslash" unicode="&#xf8;" horiz-adv-x="517" d="M258 -7 C416 -7 458 74 458 190 L458 296 C458 366 442 424 393 459 L416 498 L401 507 L378 468 C349 484 309 493 258 493 C100 493 59 412 59 296 L59 190 C59 119 75 62 123 27 L101 -12 L116 -21 L138 18 C169 1 208 -7 258 -7 L258 -7 Z M79 190 L79 296 C79 410 118 474 258 474 C309 474 342 466 369 452 L133 43 C93 72 79 122 79 190 L79 190 Z M438 190 C438 76 398 12 258 12 C210 12 175 19 147 34 L384 443 C424 413 438 363 438 296 L438 190 Z " />
<glyph glyph-name="ugrave" unicode="&#xf9;" horiz-adv-x="494" d="M77 486 L57 486 L57 165 C57 66 97 -7 247 -7 C396 -7 437 66 437 165 L437 486 L417 486 L417 165 C417 68 379 12 247 12 C115 12 77 68 77 165 L77 486 Z M273 530 L292 530 L213 666 L191 666 L273 530 Z " />
<glyph glyph-name="uacute" unicode="&#xfa;" horiz-adv-x="494" d="M77 486 L57 486 L57 165 C57 66 97 -7 247 -7 C396 -7 437 66 437 165 L437 486 L417 486 L417 165 C417 68 379 12 247 12 C115 12 77 68 77 165 L77 486 Z M324 666 L302 666 L223 530 L242 530 L324 666 Z " />
<glyph glyph-name="ucircumflex" unicode="&#xfb;" horiz-adv-x="494" d="M77 486 L57 486 L57 165 C57 66 97 -7 247 -7 C396 -7 437 66 437 165 L437 486 L417 486 L417 165 C417 68 379 12 247 12 C115 12 77 68 77 165 L77 486 Z M151 536 L172 536 L207 596 C231 637 238 643 251 643 C264 643 271 637 295 596 L330 536 L351 536 L310 605 C286 645 277 660 251 660 C225 660 215 644 192 605 L151 536 Z " />
<glyph glyph-name="udieresis" unicode="&#xfc;" horiz-adv-x="494" d="M77 486 L57 486 L57 165 C57 66 97 -7 247 -7 C396 -7 437 66 437 165 L437 486 L417 486 L417 165 C417 68 379 12 247 12 C115 12 77 68 77 165 L77 486 Z M149 598 C149 586 158 577 171 577 C183 577 191 586 191 598 C191 610 183 619 171 619 C158 619 149 610 149 598 L149 598 Z M311 598 C311 586 320 577 333 577 C346 577 353 586 353 598 C353 610 346 619 333 619 C320 619 311 610 311 598 L311 598 Z " />
<glyph glyph-name="yacute" unicode="&#xfd;" horiz-adv-x="486" d="M52 486 L33 486 L161 88 C179 32 194 2 253 2 C278 2 293 8 308 21 L300 -4 C265 -114 240 -184 127 -175 L132 -195 C253 -205 291 -110 318 -11 L453 486 L434 486 L326 87 C312 34 295 21 253 21 C212 21 198 34 181 87 L52 486 Z M326 666 L304 666 L225 530 L244 530 L326 666 Z " />
<glyph glyph-name="thorn" unicode="&#xfe;" horiz-adv-x="538" d="M480 296 C480 413 435 493 278 493 C179 493 125 460 100 405 L100 665 L80 665 L80 -200 L100 -200 L100 94 C116 26 176 -7 275 -7 C436 -7 480 73 480 190 L480 296 Z M460 190 C460 80 420 12 280 12 C140 12 100 74 100 190 L100 302 C100 409 141 474 280 474 C420 474 460 407 460 296 L460 190 Z " />
<glyph glyph-name="ydieresis" unicode="&#xff;" horiz-adv-x="486" d="M52 486 L33 486 L161 88 C179 32 194 2 253 2 C278 2 293 8 308 21 L300 -4 C265 -114 240 -184 127 -175 L132 -195 C253 -205 291 -110 318 -11 L453 486 L434 486 L326 87 C312 34 295 21 253 21 C212 21 198 34 181 87 L52 486 Z M156 598 C156 586 165 577 178 577 C190 577 198 586 198 598 C198 610 190 619 178 619 C165 619 156 610 156 598 L156 598 Z M318 598 C318 586 327 577 340 577 C353 577 360 586 360 598 C360 610 353 619 340 619 C327 619 318 610 318 598 L318 598 Z " />
<glyph glyph-name="Aogonek" unicode="&#x104;" horiz-adv-x="561" d="M380 555 C355 645 331 658 280 658 C230 658 206 645 180 555 L21 0 L44 0 L114 245 L447 245 L517 0 C483 -10 417 -40 417 -109 C417 -172 444 -190 488 -190 C508 -190 528 -186 540 -181 L540 -163 C526 -168 505 -172 490 -172 C459 -172 436 -167 436 -111 C436 -69 446 -48 540 0 L380 555 Z M210 579 C224 627 245 638 280 638 C316 638 337 627 351 579 L441 266 L120 266 L210 579 Z " />
<glyph glyph-name="aogonek" unicode="&#x105;" horiz-adv-x="468" d="M409 353 C409 459 336 493 232 493 C173 493 130 487 91 477 L91 454 C132 467 174 474 232 474 C327 474 389 445 389 353 L389 271 L255 271 C111 271 49 232 49 133 C49 20 144 -7 209 -7 C239 -7 266 -5 289 -1 C234 -22 192 -48 192 -109 C192 -172 219 -190 263 -190 C283 -190 303 -186 315 -181 L315 -163 C301 -168 280 -172 265 -172 C234 -172 211 -167 211 -111 C211 -57 241 -34 341 15 C387 37 409 78 409 148 L409 353 Z M389 147 C389 41 333 14 209 14 C138 14 69 43 69 132 C69 226 133 252 259 252 L389 252 L389 147 Z " />
<glyph glyph-name="Cacute" unicode="&#x106;" horiz-adv-x="513" d="M85 399 C85 569 140 637 289 637 C359 637 400 625 456 602 L456 623 C415 641 372 658 289 658 C131 658 63 581 63 399 L63 239 C63 75 129 -7 294 -7 C385 -7 429 11 467 30 L467 51 C444 38 381 14 294 14 C144 14 85 86 85 239 L85 399 Z M341 826 L319 826 L240 690 L259 690 L341 826 Z " />
<glyph glyph-name="cacute" unicode="&#x107;" horiz-adv-x="429" d="M59 192 C59 46 128 -7 267 -7 C309 -7 357 -1 395 17 L395 38 C355 18 307 12 270 12 C137 12 79 59 79 191 L79 295 C79 397 115 474 267 474 C324 474 360 458 383 446 L383 467 C353 484 319 493 266 493 C110 493 59 416 59 295 L59 192 Z M316 666 L294 666 L215 530 L234 530 L316 666 Z " />
<glyph glyph-name="Eogonek" unicode="&#x118;" horiz-adv-x="501" d="M432 0 C380 -26 338 -47 338 -109 C338 -172 365 -190 409 -190 C429 -190 449 -186 461 -181 L461 -163 C447 -168 426 -172 411 -172 C380 -172 357 -167 357 -111 C357 -69 367 -48 461 0 L461 21 L169 21 C124 21 105 40 105 86 L105 334 L421 334 L421 355 L105 355 L105 564 C105 610 124 629 169 629 L461 629 L461 650 L180 650 C108 650 83 625 83 553 L83 97 C83 25 108 0 180 0 L432 0 Z " />
<glyph glyph-name="eogonek" unicode="&#x119;" horiz-adv-x="493" d="M439 310 C439 436 364 493 249 493 C103 493 59 410 59 297 L59 192 C59 45 129 -7 261 -7 C305 -7 345 -1 380 8 C334 -16 299 -44 299 -109 C299 -172 326 -190 370 -190 C390 -190 410 -186 422 -181 L422 -163 C408 -168 387 -172 372 -172 C341 -172 318 -167 318 -111 C318 -61 328 -33 422 23 L422 43 C382 26 323 12 258 12 C138 12 79 57 79 189 L79 234 L436 234 C438 255 439 278 439 310 L439 310 Z M79 306 C79 429 145 474 249 474 C350 474 420 429 420 306 L420 253 L79 253 L79 306 Z " />
<glyph glyph-name="dotlessi" unicode="&#x131;" horiz-adv-x="190" d="M85 0 L105 0 L105 486 L85 486 L85 0 Z " />
<glyph glyph-name="Lslash" unicode="&#x141;" horiz-adv-x="439" d="M20 315 L80 336 L80 97 C80 25 105 0 177 0 L418 0 L418 21 L166 21 C121 21 102 40 102 86 L102 344 L234 392 L226 410 L102 365 L102 650 L80 650 L80 357 L13 333 L20 315 Z " />
<glyph glyph-name="lslash" unicode="&#x142;" horiz-adv-x="200" d="M21 340 L74 359 L74 106 C74 22 110 -2 157 -2 C173 -2 178 0 186 3 L186 23 C176 18 168 17 152 17 C122 17 94 33 94 101 L94 367 L180 398 L173 416 L94 387 L94 700 L74 700 L74 380 L13 359 L21 340 Z " />
<glyph glyph-name="Nacute" unicode="&#x143;" horiz-adv-x="589" d="M83 0 L105 0 L105 586 C105 617 114 634 140 634 C156 634 173 628 189 583 L379 63 C394 22 411 -5 450 -5 C486 -5 506 18 506 64 L506 650 L484 650 L484 64 C484 33 475 16 449 16 C433 16 416 22 400 67 L210 587 C195 628 178 655 139 655 C103 655 83 632 83 586 L83 0 Z M380 826 L358 826 L279 690 L298 690 L380 826 Z " />
<glyph glyph-name="nacute" unicode="&#x144;" horiz-adv-x="518" d="M89 321 C89 418 127 474 259 474 C391 474 429 418 429 321 L429 0 L449 0 L449 321 C449 420 408 493 259 493 C109 493 69 420 69 321 L69 0 L89 0 L89 321 Z M321 666 L299 666 L220 530 L239 530 L321 666 Z " />
<glyph glyph-name="OE" unicode="&#x152;" horiz-adv-x="928" d="M297 -7 C416 -7 492 31 510 119 C507 28 530 0 604 0 L888 0 L888 21 L597 21 C552 21 532 40 532 86 L532 334 L848 334 L848 355 L532 355 L532 564 C532 610 552 629 597 629 L888 629 L888 650 L604 650 C529 650 506 620 510 531 C494 618 419 658 297 658 C114 658 62 571 62 401 L62 250 C62 79 112 -7 297 -7 L297 -7 Z M510 250 C510 96 474 14 297 14 C120 14 84 96 84 250 L84 401 C84 554 120 637 297 637 C474 637 510 554 510 401 L510 250 Z " />
<glyph glyph-name="oe" unicode="&#x153;" horiz-adv-x="874" d="M258 -7 C384 -7 440 45 449 128 C456 34 528 -7 638 -7 C701 -7 758 5 801 23 L801 43 C759 25 696 12 638 12 C517 12 458 57 458 189 L458 234 L815 234 C817 255 818 278 818 310 C818 436 743 493 629 493 C508 493 458 438 449 357 C439 440 384 493 258 493 C100 493 59 412 59 296 L59 190 C59 75 101 -7 258 -7 L258 -7 Z M438 190 C438 74 396 12 258 12 C120 12 79 74 79 190 L79 296 C79 412 120 474 258 474 C396 474 438 412 438 296 L438 190 Z M458 306 C458 431 524 474 630 474 C729 474 799 428 799 306 L799 253 L458 253 L458 306 Z " />
<glyph glyph-name="Sacute" unicode="&#x15a;" horiz-adv-x="506" d="M58 26 C107 5 165 -7 238 -7 C364 -7 450 24 450 132 C450 219 387 257 336 290 L167 400 C125 428 83 458 83 529 C83 603 128 637 247 637 C315 637 378 621 423 603 L423 624 C383 642 326 658 247 658 C133 658 61 627 61 529 C61 445 117 407 158 381 L326 272 C376 240 428 207 428 131 C428 42 360 14 238 14 C166 14 108 24 58 51 L58 26 Z M320 826 L298 826 L219 690 L238 690 L320 826 Z " />
<glyph glyph-name="sacute" unicode="&#x15b;" horiz-adv-x="447" d="M59 19 C120 2 164 -7 224 -7 C327 -7 388 21 388 98 C388 165 351 190 302 215 L153 291 C106 314 87 346 87 391 C87 453 130 474 216 474 C277 474 322 463 366 444 L366 463 C319 484 276 493 218 493 C125 493 67 465 67 389 C67 324 99 296 149 270 L300 194 C343 172 368 144 368 96 C368 34 319 12 227 12 C156 12 97 27 59 38 L59 19 Z M289 666 L267 666 L188 530 L207 530 L289 666 Z " />
<glyph glyph-name="Scaron" unicode="&#x160;" horiz-adv-x="506" d="M58 26 C107 5 165 -7 238 -7 C364 -7 450 24 450 132 C450 219 387 257 336 290 L167 400 C125 428 83 458 83 529 C83 603 128 637 247 637 C315 637 378 621 423 603 L423 624 C383 642 326 658 247 658 C133 658 61 627 61 529 C61 445 117 407 158 381 L326 272 C376 240 428 207 428 131 C428 42 360 14 238 14 C166 14 108 24 58 51 L58 26 Z M197 751 C220 712 230 696 256 696 C282 696 291 711 315 751 L356 820 L335 820 L300 760 C276 719 269 713 256 713 C243 713 236 719 212 760 L177 820 L156 820 L197 751 Z " />
<glyph glyph-name="scaron" unicode="&#x161;" horiz-adv-x="447" d="M59 19 C120 2 164 -7 224 -7 C327 -7 388 21 388 98 C388 165 351 190 302 215 L153 291 C106 314 87 346 87 391 C87 453 130 474 216 474 C277 474 322 463 366 444 L366 463 C319 484 276 493 218 493 C125 493 67 465 67 389 C67 324 99 296 149 270 L300 194 C343 172 368 144 368 96 C368 34 319 12 227 12 C156 12 97 27 59 38 L59 19 Z M165 592 C188 553 198 537 224 537 C250 537 259 552 283 592 L324 661 L303 661 L268 601 C244 560 237 554 224 554 C211 554 204 560 180 601 L145 661 L124 661 L165 592 Z " />
<glyph glyph-name="Ydieresis" unicode="&#x178;" horiz-adv-x="554" d="M266 0 L288 0 L288 284 C327 288 349 307 379 362 L537 650 L513 650 L356 365 C332 322 317 305 277 305 C237 305 222 322 198 365 L41 650 L17 650 L175 362 C205 307 227 288 266 284 L266 0 Z M175 758 C175 746 184 737 197 737 C209 737 217 746 217 758 C217 770 209 779 197 779 C184 779 175 770 175 758 L175 758 Z M337 758 C337 746 346 737 359 737 C372 737 379 746 379 758 C379 770 372 779 359 779 C346 779 337 770 337 758 L337 758 Z " />
<glyph glyph-name="Zacute" unicode="&#x179;" horiz-adv-x="524" d="M53 629 L376 629 C438 629 453 600 453 564 C453 544 447 520 411 484 L100 177 C44 121 38 88 38 62 C38 26 63 0 116 0 L486 0 L486 21 L115 21 C75 21 60 36 60 62 C60 84 60 101 108 155 L419 462 C473 515 475 545 475 564 C475 616 445 650 376 650 L53 650 L53 629 Z M312 826 L290 826 L211 690 L230 690 L312 826 Z " />
<glyph glyph-name="zacute" unicode="&#x17a;" horiz-adv-x="457" d="M67 467 L327 467 C379 467 390 449 390 424 C390 402 382 385 349 358 L83 134 C54 110 47 85 47 64 C47 16 84 0 133 0 L409 0 L409 19 L129 19 C84 19 66 35 66 64 C66 88 77 104 97 120 L368 349 C407 382 409 409 409 424 C409 468 382 486 320 486 L67 486 L67 467 Z M306 666 L284 666 L205 530 L224 530 L306 666 Z " />
<glyph glyph-name="Zdotaccent" unicode="&#x17b;" horiz-adv-x="524" d="M53 629 L376 629 C438 629 453 600 453 564 C453 544 447 520 411 484 L100 177 C44 121 38 88 38 62 C38 26 63 0 116 0 L486 0 L486 21 L115 21 C75 21 60 36 60 62 C60 84 60 101 108 155 L419 462 C473 515 475 545 475 564 C475 616 445 650 376 650 L53 650 L53 629 Z M218 758 C218 741 231 728 248 728 C265 728 277 741 277 758 C277 775 265 787 248 787 C231 787 218 775 218 758 L218 758 Z " />
<glyph glyph-name="zdotaccent" unicode="&#x17c;" horiz-adv-x="457" d="M67 467 L327 467 C379 467 390 449 390 424 C390 402 382 385 349 358 L83 134 C54 110 47 85 47 64 C47 16 84 0 133 0 L409 0 L409 19 L129 19 C84 19 66 35 66 64 C66 88 77 104 97 120 L368 349 C407 382 409 409 409 424 C409 468 382 486 320 486 L67 486 L67 467 Z M206 598 C206 581 219 568 236 568 C253 568 265 581 265 598 C265 615 253 627 236 627 C219 627 206 615 206 598 L206 598 Z " />
<glyph glyph-name="Zcaron" unicode="&#x17d;" horiz-adv-x="524" d="M53 629 L376 629 C438 629 453 600 453 564 C453 544 447 520 411 484 L100 177 C44 121 38 88 38 62 C38 26 63 0 116 0 L486 0 L486 21 L115 21 C75 21 60 36 60 62 C60 84 60 101 108 155 L419 462 C473 515 475 545 475 564 C475 616 445 650 376 650 L53 650 L53 629 Z M189 751 C212 712 222 696 248 696 C274 696 283 711 307 751 L348 820 L327 820 L292 760 C268 719 261 713 248 713 C235 713 228 719 204 760 L169 820 L148 820 L189 751 Z " />
<glyph glyph-name="zcaron" unicode="&#x17e;" horiz-adv-x="457" d="M67 467 L327 467 C379 467 390 449 390 424 C390 402 382 385 349 358 L83 134 C54 110 47 85 47 64 C47 16 84 0 133 0 L409 0 L409 19 L129 19 C84 19 66 35 66 64 C66 88 77 104 97 120 L368 349 C407 382 409 409 409 424 C409 468 382 486 320 486 L67 486 L67 467 Z M174 592 C197 553 207 537 233 537 C259 537 268 552 292 592 L333 661 L312 661 L277 601 C253 560 246 554 233 554 C220 554 213 560 189 601 L154 661 L133 661 L174 592 Z " />
<glyph glyph-name="florin" unicode="&#x192;" horiz-adv-x="340" d="M61 299 L168 299 L126 40 C107 -79 93 -150 13 -150 C7 -150 -8 -148 -15 -145 L-15 -165 C-6 -169 11 -169 15 -169 C107 -169 125 -92 146 39 L188 299 L335 299 L335 318 L191 318 L222 521 C235 608 266 638 317 638 C336 638 346 636 358 633 L358 651 C348 654 338 657 317 657 C243 657 214 600 202 521 L171 318 L61 318 L61 299 Z " />
<glyph glyph-name="circumflex" unicode="&#x2c6;" horiz-adv-x="294" d="M47 750 L68 750 L103 810 C127 851 134 857 147 857 C160 857 167 851 191 810 L226 750 L247 750 L206 819 C182 859 173 874 147 874 C121 874 111 858 88 819 L47 750 Z " />
<glyph glyph-name="caron" unicode="&#x2c7;" horiz-adv-x="294" d="M88 805 C111 766 121 750 147 750 C173 750 182 765 206 805 L247 874 L226 874 L191 814 C167 773 160 767 147 767 C134 767 127 773 103 814 L68 874 L47 874 L88 805 Z " />
<glyph glyph-name="breve" unicode="&#x2d8;" horiz-adv-x="407" d="M204 750 C279 750 314 781 314 833 L314 853 L295 853 L295 834 C295 787 267 768 204 768 C140 768 112 787 112 833 L112 853 L93 853 L93 833 C93 781 128 750 204 750 L204 750 Z " />
<glyph glyph-name="dotaccent" unicode="&#x2d9;" horiz-adv-x="165" d="M53 780 C53 763 66 750 83 750 C100 750 112 763 112 780 C112 797 100 809 83 809 C66 809 53 797 53 780 L53 780 Z " />
<glyph glyph-name="ring" unicode="&#x2da;" horiz-adv-x="260" d="M130 750 C178 750 209 780 209 829 C209 876 178 906 130 906 C82 906 51 876 51 829 C51 780 82 750 130 750 L130 750 Z M130 768 C92 768 70 790 70 828 C70 866 92 888 130 888 C168 888 190 866 190 828 C190 790 168 768 130 768 L130 768 Z " />
<glyph glyph-name="ogonek" unicode="&#x2db;" horiz-adv-x="222" d="M146 0 C94 -26 52 -47 52 -109 C52 -172 79 -190 123 -190 C143 -190 163 -186 175 -181 L175 -163 C161 -168 140 -172 125 -172 C94 -172 71 -167 71 -111 C71 -69 81 -48 175 0 L146 0 Z " />
<glyph glyph-name="tilde" unicode="&#x2dc;" horiz-adv-x="422" d="M82 784 L104 784 C104 818 110 848 142 848 C188 848 222 773 278 773 C327 773 340 807 340 856 L317 856 C317 821 312 792 280 792 C234 792 200 867 144 867 C98 867 82 832 82 784 L82 784 Z " />
<glyph glyph-name="hungarumlaut" unicode="&#x2dd;" horiz-adv-x="278" d="M151 886 L129 886 L50 750 L69 750 L151 886 Z M228 886 L206 886 L127 750 L146 750 L228 886 Z " />
<glyph glyph-name="endash" unicode="&#x2013;" horiz-adv-x="364" d="M-10 298 L374 298 L374 317 L-10 317 L-10 298 Z " />
<glyph glyph-name="emdash" unicode="&#x2014;" horiz-adv-x="749" d="M-10 298 L758 298 L758 317 L-10 317 L-10 298 Z " />
<glyph glyph-name="quoteleft" unicode="&#x2018;" horiz-adv-x="160" d="M121 691 C105 663 52 555 52 525 C52 511 58 503 69 503 C77 503 84 506 91 520 C102 542 126 640 133 687 L121 691 Z " />
<glyph glyph-name="quoteright" unicode="&#x2019;" horiz-adv-x="160" d="M39 503 C55 531 108 639 108 669 C108 683 102 691 91 691 C83 691 76 688 69 674 C58 652 34 554 27 507 L39 503 Z " />
<glyph glyph-name="quotesinglbase" unicode="&#x201a;" horiz-adv-x="160" d="M39 -133 C55 -105 108 3 108 33 C108 47 102 55 91 55 C83 55 76 52 69 38 C58 16 34 -82 27 -129 L39 -133 Z " />
<glyph glyph-name="quotedblleft" unicode="&#x201c;" horiz-adv-x="291" d="M121 691 C105 663 52 555 52 525 C52 511 58 503 69 503 C77 503 84 506 91 520 C102 542 126 640 133 687 L121 691 Z M252 691 C236 663 183 555 183 525 C183 511 189 503 200 503 C208 503 215 506 222 520 C233 542 257 640 264 687 L252 691 Z " />
<glyph glyph-name="quotedblright" unicode="&#x201d;" horiz-adv-x="291" d="M39 503 C55 531 108 639 108 669 C108 683 102 691 91 691 C83 691 76 688 69 674 C58 652 34 554 27 507 L39 503 Z M170 503 C186 531 239 639 239 669 C239 683 233 691 222 691 C214 691 207 688 200 674 C189 652 165 554 158 507 L170 503 Z " />
<glyph glyph-name="quotedblbase" unicode="&#x201e;" horiz-adv-x="279" d="M39 -133 C55 -105 108 3 108 33 C108 47 102 55 91 55 C83 55 76 52 69 38 C58 16 34 -82 27 -129 L39 -133 Z M158 -133 C174 -105 227 3 227 33 C227 47 221 55 210 55 C202 55 195 52 188 38 C177 16 153 -82 146 -129 L158 -133 Z " />
<glyph glyph-name="dagger" unicode="&#x2020;" horiz-adv-x="409" d="M386 475 L215 475 L215 615 L194 615 L194 475 L23 475 L23 455 L194 455 L194 -68 L215 -68 L215 455 L386 455 L386 475 Z " />
<glyph glyph-name="daggerdbl" unicode="&#x2021;" horiz-adv-x="444" d="M40 72 L211 72 L211 -68 L232 -68 L232 72 L403 72 L403 92 L232 92 L232 455 L403 455 L403 475 L232 475 L232 615 L211 615 L211 475 L40 475 L40 455 L211 455 L211 92 L40 92 L40 72 Z " />
<glyph glyph-name="bullet" unicode="&#x2022;" horiz-adv-x="194" d="M159 308 C159 345 132 370 97 370 C62 370 36 345 36 308 C36 271 62 246 97 246 C132 246 159 271 159 308 L159 308 Z " />
<glyph glyph-name="ellipsis" unicode="&#x2026;" horiz-adv-x="546" d="M434 26 C434 9 446 -3 462 -3 C479 -3 491 9 491 26 C491 42 479 54 462 54 C446 54 434 42 434 26 L434 26 Z M245 26 C245 9 257 -3 273 -3 C290 -3 301 9 301 26 C301 42 290 54 273 54 C257 54 245 42 245 26 L245 26 Z M56 26 C56 9 68 -3 84 -3 C100 -3 112 9 112 26 C112 42 100 54 84 54 C68 54 56 42 56 26 L56 26 Z " />
<glyph glyph-name="perthousand" unicode="&#x2030;" horiz-adv-x="995" d="M935 150 C935 257 890 305 802 305 C714 305 669 257 669 150 C669 43 714 -5 802 -5 C890 -5 935 43 935 150 L935 150 Z M914 150 C914 54 880 15 802 15 C724 15 690 54 690 150 C690 246 724 285 802 285 C880 285 914 246 914 150 L914 150 Z M496 650 L159 0 L182 0 L520 650 L496 650 Z M618 150 C618 257 573 305 485 305 C397 305 352 257 352 150 C352 43 397 -5 485 -5 C573 -5 618 43 618 150 L618 150 Z M597 150 C597 54 563 15 485 15 C407 15 373 54 373 150 C373 246 407 285 485 285 C563 285 597 246 597 150 L597 150 Z M326 500 C326 607 281 655 193 655 C105 655 60 607 60 500 C60 393 105 345 193 345 C281 345 326 393 326 500 L326 500 Z M305 500 C305 404 271 365 193 365 C115 365 81 404 81 500 C81 596 115 635 193 635 C271 635 305 596 305 500 L305 500 Z " />
<glyph glyph-name="guilsinglleft" unicode="&#x2039;" horiz-adv-x="246" d="M206 57 L77 213 C60 234 54 242 54 250 C54 259 62 268 77 287 L206 443 L181 443 L68 308 C42 277 34 263 34 250 C34 237 40 226 68 192 L181 57 L206 57 Z " />
<glyph glyph-name="guilsinglright" unicode="&#x203a;" horiz-adv-x="246" d="M65 57 L178 192 C206 226 212 237 212 250 C212 263 204 277 178 308 L65 443 L40 443 L169 287 C184 268 192 259 192 250 C192 242 186 234 169 213 L40 57 L65 57 Z " />
<glyph glyph-name="fraction" unicode="&#x2044;" horiz-adv-x="251" d="M241 668 L-10 -18 L11 -18 L261 668 L241 668 Z " />
<glyph glyph-name="Euro" unicode="&#x20ac;" horiz-adv-x="518" d="M22 391 L92 391 L92 260 L22 260 L22 239 L92 239 C98 29 191 -7 310 -7 C383 -7 443 13 475 32 L475 56 C439 32 367 14 310 14 C180 14 121 69 114 239 L355 239 L361 260 L114 260 L114 391 L394 391 L400 412 L114 412 C122 601 198 637 307 637 C355 637 412 624 449 609 L455 631 C421 646 365 658 306 658 C186 658 97 614 92 412 L22 412 L22 391 Z " />
<glyph glyph-name="trademark" unicode="&#x2122;" horiz-adv-x="770" d="M719 597 C719 609 715 615 704 615 C694 615 689 610 685 599 L559 274 L429 599 C425 610 420 615 410 615 C400 615 395 609 395 597 L395 239 L414 239 L414 581 L539 270 C544 258 548 254 560 254 C570 254 575 259 579 270 L700 581 L700 239 L719 239 L719 597 Z M309 615 L20 615 L20 597 L155 597 L155 239 L174 239 L174 597 L309 597 L309 615 Z " />
<glyph glyph-name="minus" unicode="&#x2212;" horiz-adv-x="548" d="M485 317 L63 317 L63 298 L485 298 L485 317 Z " />
<glyph glyph-name="fi" unicode="&#xfb01;" horiz-adv-x="535" d="M14 467 L92 467 L92 0 L112 0 L112 467 L329 467 L329 486 L112 486 L112 591 C112 668 159 692 232 692 C274 692 303 685 329 679 L329 698 C305 705 279 711 234 711 C152 711 92 681 92 593 L92 486 L14 481 L14 467 Z M430 0 L450 0 L450 486 L430 486 L430 0 Z M421 644 C421 634 427 625 441 625 C452 625 459 633 459 644 C459 657 452 665 441 665 C427 665 421 657 421 644 L421 644 Z " />
<glyph glyph-name="fl" unicode="&#xfb02;" horiz-adv-x="545" d="M419 106 C419 22 455 -2 502 -2 C516 -2 523 0 531 3 L531 23 C521 18 512 17 497 17 C467 17 439 33 439 101 L439 700 L419 700 L419 106 Z M14 467 L92 467 L92 0 L112 0 L112 467 L329 467 L329 486 L112 486 L112 591 C112 668 159 692 232 692 C274 692 303 685 329 679 L329 698 C305 705 279 711 234 711 C152 711 92 681 92 593 L92 486 L14 481 L14 467 Z " />
</font>
</svg>
