<?xml version="1.0" encoding="UTF-8"?>
<svg xmlns="http://www.w3.org/2000/svg" xmlns:xlink="http://www.w3.org/1999/xlink" version="1.2" >
<font id="Gotham Condensed Book">
<font-face  font-family="Gotham Condensed Book" units-per-em="1000" ascent="799.805" descent="-200.195" font-style="normal" font-weight="400" font-stretch="condensed" cap-height="750" x-height="500" underline-position="-123" underline-thickness="20" />
<missing-glyph  horiz-adv-x="500" d="M0 -200 L500 -200 L500 800 L0 800 L0 -200 Z M71 750 L429 750 L250 360 L71 750 Z M50 -76 L50 676 L222 300 L50 -76 Z M450 676 L450 -76 L278 300 L450 676 Z M250 240 L429 -150 L71 -150 L250 240 Z " />
<glyph glyph-name="NULL" d="" />
<glyph glyph-name="CR" unicode="&#xd;" horiz-adv-x="250" d="" />
<glyph glyph-name="space" unicode="&#x20;" horiz-adv-x="163" d="" />
<glyph glyph-name="exclam" unicode="&#x21;" horiz-adv-x="200" d="M84 192 L116 192 L138 643 L138 700 L62 700 L62 643 L84 192 Z M60 0 L141 0 L141 97 L60 97 L60 0 Z " />
<glyph glyph-name="quotedbl" unicode="&#x22;" horiz-adv-x="262" d="M165 437 L191 437 L234 691 L234 700 L165 700 L165 437 Z M44 437 L70 437 L113 691 L113 700 L44 700 L44 437 Z " />
<glyph glyph-name="numbersign" unicode="&#x23;" horiz-adv-x="385" d="M69 0 L117 0 L131 183 L226 183 L212 0 L259 0 L273 183 L347 183 L346 241 L277 241 L294 464 L366 464 L365 522 L299 522 L313 700 L267 700 L253 522 L156 522 L170 700 L125 700 L111 522 L38 522 L39 464 L106 464 L88 241 L19 241 L20 183 L84 183 L69 0 Z M134 241 L152 464 L248 464 L231 241 L134 241 Z " />
<glyph glyph-name="dollar" unicode="&#x24;" horiz-adv-x="347" d="M151 -98 L206 -98 L206 -1 C281 14 328 70 328 169 L328 171 C328 255 275 331 206 378 L206 643 C238 639 266 626 294 608 L294 675 C269 690 239 700 206 703 L206 758 L151 758 L151 703 C78 691 24 631 24 538 L24 536 C24 471 57 396 151 334 L151 55 C119 59 82 74 41 99 L41 31 C77 11 112 -2 151 -5 L151 -98 Z M151 412 C107 450 85 497 85 539 L85 541 C85 591 113 627 151 640 L151 412 Z M206 61 L206 299 C240 266 267 214 267 168 L267 166 C267 109 245 74 206 61 L206 61 Z " />
<glyph glyph-name="percent" unicode="&#x25;" horiz-adv-x="519" d="M132 362 C190 362 237 422 237 528 L237 539 C237 645 190 705 132 705 C73 705 26 645 26 539 L26 528 C26 422 73 362 132 362 L132 362 Z M78 0 L124 0 L441 700 L395 700 L78 0 Z M387 -5 C446 -5 492 55 492 161 L492 172 C492 278 446 338 387 338 C328 338 282 278 282 172 L282 161 C282 55 328 -5 387 -5 L387 -5 Z M132 412 C99 412 76 452 76 528 L76 539 C76 615 99 656 132 656 C165 656 188 615 188 539 L188 528 C188 452 165 412 132 412 L132 412 Z M387 44 C354 44 331 85 331 161 L331 172 C331 248 354 288 387 288 C420 288 443 248 443 172 L443 161 C443 85 420 44 387 44 L387 44 Z " />
<glyph glyph-name="ampersand" unicode="&#x26;" horiz-adv-x="416" d="M169 -8 C235 -8 276 30 308 83 L357 -9 L407 21 L341 137 C361 191 377 251 386 327 L333 336 C325 280 317 236 305 194 L206 379 C273 440 313 495 313 570 L313 576 C313 644 270 709 193 709 C118 709 68 642 68 572 L68 566 C68 517 89 470 134 393 C60 328 23 253 23 173 L23 167 C23 72 82 -8 169 -8 L169 -8 Z M179 424 C140 493 126 530 126 569 L126 573 C126 617 152 654 192 654 C231 654 255 617 255 574 L255 569 C255 518 232 471 179 424 L179 424 Z M175 50 C122 50 87 103 87 171 L87 178 C87 236 109 298 162 347 L278 131 C251 82 222 50 175 50 L175 50 Z " />
<glyph glyph-name="quotesingle" unicode="&#x27;" horiz-adv-x="133" d="M44 437 L70 437 L113 691 L113 700 L44 700 L44 437 Z " />
<glyph glyph-name="parenleft" unicode="&#x28;" horiz-adv-x="252" d="M234 -138 L234 -88 C152 -20 99 102 99 289 C99 476 152 599 234 667 L234 716 C112 648 38 498 38 289 C38 81 112 -70 234 -138 L234 -138 Z " />
<glyph glyph-name="parenright" unicode="&#x29;" horiz-adv-x="252" d="M18 -138 C141 -70 215 81 215 289 C215 498 141 648 18 716 L18 667 C101 599 153 476 153 289 C153 102 101 -20 18 -88 L18 -138 Z " />
<glyph glyph-name="asterisk" unicode="&#x2a;" horiz-adv-x="283" d="M118 422 L166 422 L155 537 L236 474 L260 515 L167 562 L260 608 L236 650 L155 587 L166 701 L118 701 L128 587 L48 650 L23 608 L116 562 L23 515 L48 474 L128 537 L118 422 Z " />
<glyph glyph-name="plus" unicode="&#x2b;" horiz-adv-x="351" d="M146 198 L205 198 L205 322 L324 322 L324 382 L205 382 L205 506 L146 506 L146 382 L27 382 L27 322 L146 322 L146 198 Z " />
<glyph glyph-name="comma" unicode="&#x2c;" horiz-adv-x="168" d="M31 -119 C98 -96 125 -59 125 15 L125 97 L43 97 L43 0 L79 0 C83 -40 68 -71 19 -87 L31 -119 Z " />
<glyph glyph-name="hyphen" unicode="&#x2d;" horiz-adv-x="286" d="M40 269 L247 269 L247 331 L40 331 L40 269 Z " />
<glyph glyph-name="period" unicode="&#x2e;" horiz-adv-x="168" d="M43 0 L125 0 L125 97 L43 97 L43 0 Z " />
<glyph glyph-name="slash" unicode="&#x2f;" horiz-adv-x="273" d="M-5 -98 L49 -98 L267 768 L213 768 L-5 -98 Z " />
<glyph glyph-name="zero" unicode="0" horiz-adv-x="378" d="M189 -9 C282 -9 343 93 343 340 L343 362 C343 608 282 709 189 709 C95 709 35 607 35 360 L35 338 C35 92 95 -9 189 -9 L189 -9 Z M189 51 C136 51 99 134 99 340 L99 361 C99 567 136 649 189 649 C242 649 278 566 278 360 L278 339 C278 133 242 51 189 51 L189 51 Z " />
<glyph glyph-name="one" unicode="1" horiz-adv-x="218" d="M93 0 L158 0 L158 701 L106 701 L21 658 L21 588 L93 626 L93 0 Z " />
<glyph glyph-name="two" unicode="2" horiz-adv-x="327" d="M24 0 L296 0 L296 64 L98 64 L235 352 C274 433 293 484 293 547 L293 551 C293 644 235 704 148 704 C105 704 69 692 41 675 L41 609 C70 627 100 640 140 640 C193 640 228 601 228 541 C228 489 212 442 179 374 L24 49 L24 0 Z " />
<glyph glyph-name="three" unicode="3" horiz-adv-x="315" d="M114 -5 C210 -5 289 77 289 208 L289 216 C289 329 224 379 148 397 L285 649 L285 700 L24 700 L24 635 L213 635 L82 393 L82 349 C171 341 223 301 223 212 L223 206 C223 112 170 56 111 56 C72 56 49 63 21 75 L21 13 C47 2 71 -5 114 -5 L114 -5 Z " />
<glyph glyph-name="four" unicode="4" horiz-adv-x="355" d="M222 0 L282 0 L282 152 L338 152 L338 208 L282 208 L282 704 L223 704 L18 202 L18 152 L222 152 L222 0 Z M74 208 L222 573 L222 208 L74 208 Z " />
<glyph glyph-name="five" unicode="5" horiz-adv-x="329" d="M122 -6 C224 -6 299 86 299 223 L299 229 C299 371 228 429 150 429 C125 429 109 424 93 418 L103 637 L273 637 L273 700 L51 700 L36 380 L74 355 C93 363 109 368 136 368 C189 368 235 331 235 228 L235 223 C235 123 186 56 119 56 C83 56 57 66 36 76 L36 13 C56 3 83 -6 122 -6 L122 -6 Z " />
<glyph glyph-name="six" unicode="6" horiz-adv-x="358" d="M183 -9 C266 -9 330 83 330 221 L330 229 C330 379 265 438 196 438 C156 438 126 419 99 393 C103 559 147 644 216 644 C246 644 267 636 287 626 L287 690 C267 699 248 705 215 705 C111 705 36 605 36 326 L36 298 C36 62 101 -9 183 -9 L183 -9 Z M184 49 C141 49 99 99 99 274 L99 337 C126 363 152 381 184 381 C229 381 269 335 269 228 L269 219 C269 121 237 49 184 49 L184 49 Z " />
<glyph glyph-name="seven" unicode="7" horiz-adv-x="309" d="M62 0 L126 0 L277 649 L277 700 L27 700 L27 635 L214 635 L62 0 Z " />
<glyph glyph-name="eight" unicode="8" horiz-adv-x="340" d="M170 -9 C256 -9 315 67 315 182 L315 189 C315 273 278 338 227 365 C274 393 304 449 304 526 L304 532 C304 644 243 709 170 709 C97 709 36 644 36 532 L36 526 C36 449 65 393 113 365 C62 338 24 273 24 189 L24 182 C24 67 84 -9 170 -9 L170 -9 Z M170 389 C126 389 97 450 97 524 L97 528 C97 608 127 654 170 654 C213 654 242 608 242 528 L242 524 C242 450 214 389 170 389 L170 389 Z M170 46 C120 46 87 100 87 185 L87 189 C87 278 123 335 170 335 C217 335 253 278 253 189 L253 185 C253 100 220 46 170 46 L170 46 Z " />
<glyph glyph-name="nine" unicode="9" horiz-adv-x="358" d="M143 -5 C246 -5 321 95 321 374 L321 402 C321 638 257 709 175 709 C92 709 27 618 27 474 L27 467 C27 313 92 254 161 254 C201 254 232 273 258 299 C253 138 210 56 141 56 C111 56 83 66 61 77 L61 13 C83 3 109 -5 143 -5 L143 -5 Z M174 311 C128 311 89 356 89 469 L89 476 C89 579 121 651 174 651 C217 651 258 601 258 426 L258 355 C231 329 205 311 174 311 L174 311 Z " />
<glyph glyph-name="colon" unicode="&#x3a;" horiz-adv-x="178" d="M48 431 L130 431 L130 528 L48 528 L48 431 Z M48 0 L130 0 L130 97 L48 97 L48 0 Z " />
<glyph glyph-name="semicolon" unicode="&#x3b;" horiz-adv-x="178" d="M48 431 L130 431 L130 528 L48 528 L48 431 Z M36 -119 C103 -96 130 -59 130 15 L130 97 L48 97 L48 0 L84 0 C88 -40 73 -71 24 -87 L36 -119 Z " />
<glyph glyph-name="less" unicode="&#x3c;" horiz-adv-x="351" d="M304 161 L304 236 L103 352 L304 469 L304 543 L37 381 L37 323 L304 161 Z " />
<glyph glyph-name="equal" unicode="&#x3d;" horiz-adv-x="351" d="M31 397 L320 397 L320 460 L31 460 L31 397 Z M31 244 L320 244 L320 307 L31 307 L31 244 Z " />
<glyph glyph-name="greater" unicode="&#x3e;" horiz-adv-x="351" d="M47 161 L314 323 L314 381 L47 543 L47 468 L248 352 L47 235 L47 161 Z " />
<glyph glyph-name="question" unicode="&#x3f;" horiz-adv-x="308" d="M105 192 L146 192 L156 337 C226 370 284 426 284 529 L284 535 C284 633 216 704 124 704 C82 704 51 693 23 678 L23 617 C54 635 82 644 115 644 C172 644 220 600 220 529 L220 526 C220 443 171 398 101 372 L96 366 L105 192 Z M88 0 L169 0 L169 97 L88 97 L88 0 Z " />
<glyph glyph-name="at" unicode="&#x40;" horiz-adv-x="635" d="M299 -134 C369 -134 412 -118 466 -86 L450 -61 C403 -89 361 -104 300 -104 C163 -104 63 4 64 215 C64 438 168 678 355 678 C496 678 569 549 569 396 C569 264 521 108 453 108 C428 108 418 130 418 160 C418 182 420 206 424 227 L473 483 L418 493 L404 418 C395 468 373 508 325 508 C242 508 166 358 166 194 C166 118 204 71 251 71 C301 71 338 116 366 172 C362 115 388 72 445 72 C541 72 601 232 601 396 C601 569 512 709 357 709 C154 709 33 471 33 214 C32 -19 149 -134 299 -134 L299 -134 Z M270 121 C242 121 223 147 223 197 C223 236 228 277 238 317 C257 397 294 453 334 453 C365 453 387 417 387 362 C387 335 384 304 377 272 C357 189 309 121 270 121 L270 121 Z " />
<glyph glyph-name="A" unicode="A" horiz-adv-x="407" d="M21 0 L85 0 L121 181 L283 181 L320 0 L386 0 L238 703 L168 703 L21 0 Z M131 240 L202 592 L273 240 L131 240 Z " />
<glyph glyph-name="B" unicode="B" horiz-adv-x="379" d="M51 0 L132 0 C264 0 352 68 352 185 L352 188 C352 283 299 334 222 355 C286 376 343 422 343 521 L343 524 C343 636 258 700 145 700 L51 700 L51 0 Z M116 382 L116 640 L148 640 C226 640 278 595 278 517 L278 515 C278 431 229 382 139 382 L116 382 Z M116 60 L116 324 L142 324 C233 324 287 276 287 191 L287 188 C287 104 229 60 137 60 L116 60 Z " />
<glyph glyph-name="C" unicode="C" horiz-adv-x="331" d="M222 -4 C253 -4 277 3 299 16 L299 81 C274 66 253 59 229 59 C157 59 99 145 99 340 L99 360 C99 552 157 641 229 641 C252 641 271 634 297 619 L297 688 C274 699 257 704 225 704 C122 704 33 595 33 360 L33 340 C33 106 116 -4 222 -4 L222 -4 Z " />
<glyph glyph-name="D" unicode="D" horiz-adv-x="405" d="M51 0 L142 0 C279 0 372 116 372 340 L372 360 C372 584 279 700 142 700 L51 700 L51 0 Z M116 59 L116 641 L145 641 C236 641 306 552 306 360 L306 340 C306 148 239 59 146 59 L116 59 Z " />
<glyph glyph-name="E" unicode="E" horiz-adv-x="326" d="M51 0 L300 0 L300 61 L116 61 L116 322 L280 322 L280 383 L116 383 L116 639 L297 639 L297 700 L51 700 L51 0 Z " />
<glyph glyph-name="F" unicode="F" horiz-adv-x="307" d="M51 0 L116 0 L116 315 L270 315 L270 375 L116 375 L116 639 L287 639 L287 700 L51 700 L51 0 Z " />
<glyph glyph-name="G" unicode="G" horiz-adv-x="396" d="M247 -6 C285 -6 311 0 349 19 L349 369 L196 369 L196 310 L289 310 L289 60 C275 55 266 53 251 53 C168 53 99 141 99 339 L99 361 C99 550 170 643 252 643 C282 643 309 633 339 615 L339 684 C314 698 288 706 251 706 C132 706 33 589 33 360 L33 340 C33 106 130 -6 247 -6 L247 -6 Z " />
<glyph glyph-name="H" unicode="H" horiz-adv-x="418" d="M51 0 L116 0 L116 322 L302 322 L302 0 L367 0 L367 700 L302 700 L302 382 L116 382 L116 700 L51 700 L51 0 Z " />
<glyph glyph-name="I" unicode="I" horiz-adv-x="178" d="M56 0 L121 0 L121 700 L56 700 L56 0 Z " />
<glyph glyph-name="J" unicode="J" horiz-adv-x="248" d="M77 -5 C153 -5 204 42 204 134 L204 700 L140 700 L140 137 C140 81 111 57 71 57 C61 57 30 61 19 66 L19 3 C31 0 58 -5 77 -5 L77 -5 Z " />
<glyph glyph-name="K" unicode="K" horiz-adv-x="379" d="M51 0 L116 0 L116 213 L165 317 L301 0 L373 0 L208 389 L358 700 L284 700 L116 331 L116 700 L51 700 L51 0 Z " />
<glyph glyph-name="L" unicode="L" horiz-adv-x="288" d="M51 0 L279 0 L279 61 L116 61 L116 700 L51 700 L51 0 Z " />
<glyph glyph-name="M" unicode="M" horiz-adv-x="480" d="M51 0 L113 0 L113 554 L238 186 L242 186 L367 554 L367 0 L430 0 L430 700 L358 700 L240 345 L123 700 L51 700 L51 0 Z " />
<glyph glyph-name="N" unicode="N" horiz-adv-x="422" d="M51 0 L113 0 L113 540 L311 0 L372 0 L372 700 L309 700 L309 175 L116 700 L51 700 L51 0 Z " />
<glyph glyph-name="O" unicode="O" horiz-adv-x="410" d="M205 -9 C304 -9 376 108 376 339 L376 361 C376 592 304 709 205 709 C106 709 33 592 33 361 L33 339 C33 108 106 -9 205 -9 L205 -9 Z M205 51 C145 51 99 142 99 339 L99 361 C99 558 145 649 205 649 C265 649 311 558 311 361 L311 339 C311 142 265 51 205 51 L205 51 Z " />
<glyph glyph-name="P" unicode="P" horiz-adv-x="370" d="M51 0 L116 0 L116 248 L144 248 C274 250 351 335 351 475 L351 477 C351 619 270 700 144 700 L51 700 L51 0 Z M116 307 L116 640 L147 640 C232 640 286 583 286 475 L286 473 C286 367 235 308 147 307 L116 307 Z " />
<glyph glyph-name="Q" unicode="Q" horiz-adv-x="412" d="M351 -19 L390 18 L330 86 C359 144 376 228 376 339 L376 361 C376 592 304 709 205 709 C106 709 33 592 33 361 L33 339 C33 108 105 -9 206 -9 C243 -9 275 9 301 42 L351 -19 Z M207 50 C145 50 99 137 99 339 L99 361 C99 558 145 649 205 649 C265 649 311 558 311 361 L311 339 C311 250 302 181 286 134 L234 198 L196 162 L265 83 C249 60 228 50 207 50 L207 50 Z " />
<glyph glyph-name="R" unicode="R" horiz-adv-x="387" d="M51 0 L116 0 L116 272 L150 272 C160 272 170 272 179 274 L293 0 L366 0 L243 293 C311 323 353 390 353 486 L353 489 C353 627 271 700 148 700 L51 700 L51 0 Z M116 330 L116 640 L146 640 C230 640 288 594 288 488 L288 485 C288 383 233 330 149 330 L116 330 Z " />
<glyph glyph-name="S" unicode="S" horiz-adv-x="331" d="M152 -9 C237 -9 303 53 303 147 L303 149 C303 226 275 279 187 387 C115 477 96 510 96 557 L96 559 C96 611 132 646 181 646 C214 646 246 634 284 609 L284 680 C251 699 220 709 177 709 C96 709 31 646 31 555 L31 553 C31 483 57 442 148 325 C220 231 238 197 238 146 L238 144 C238 87 202 54 149 54 C116 54 77 68 30 97 L30 26 C71 4 109 -9 152 -9 L152 -9 Z " />
<glyph glyph-name="T" unicode="T" horiz-adv-x="304" d="M119 0 L184 0 L184 639 L291 639 L291 700 L13 700 L13 639 L119 639 L119 0 Z " />
<glyph glyph-name="U" unicode="U" horiz-adv-x="411" d="M206 -9 C301 -9 364 62 364 186 L364 700 L299 700 L299 183 C299 96 262 51 206 51 C149 51 113 96 113 183 L113 700 L49 700 L49 186 C49 62 111 -9 206 -9 L206 -9 Z " />
<glyph glyph-name="V" unicode="V" horiz-adv-x="388" d="M161 -4 L227 -4 L368 700 L303 700 L195 123 L88 700 L21 700 L161 -4 Z " />
<glyph glyph-name="W" unicode="W" horiz-adv-x="606" d="M140 -4 L204 -4 L303 554 L401 -4 L466 -4 L583 700 L517 700 L433 138 L334 700 L274 700 L174 138 L91 700 L23 700 L140 -4 Z " />
<glyph glyph-name="X" unicode="X" horiz-adv-x="366" d="M17 0 L83 0 L182 295 L282 0 L350 0 L222 369 L337 700 L271 700 L182 439 L96 700 L27 700 L144 366 L17 0 Z " />
<glyph glyph-name="Y" unicode="Y" horiz-adv-x="360" d="M148 0 L213 0 L213 295 L354 700 L288 700 L181 379 L75 700 L6 700 L148 295 L148 0 Z " />
<glyph glyph-name="Z" unicode="Z" horiz-adv-x="337" d="M28 0 L311 0 L311 59 L98 59 L311 656 L311 700 L38 700 L38 642 L241 642 L28 45 L28 0 Z " />
<glyph glyph-name="bracketleft" unicode="&#x5b;" horiz-adv-x="262" d="M74 -130 L228 -130 L228 -83 L132 -83 L132 653 L228 653 L228 700 L74 700 L74 -130 Z " />
<glyph glyph-name="backslash" unicode="&#x5c;" horiz-adv-x="273" d="M224 -98 L278 -98 L60 768 L6 768 L224 -98 Z " />
<glyph glyph-name="bracketright" unicode="&#x5d;" horiz-adv-x="262" d="M34 -130 L188 -130 L188 700 L34 700 L34 653 L130 653 L130 -83 L34 -83 L34 -130 Z " />
<glyph glyph-name="asciicircum" unicode="&#x5e;" horiz-adv-x="354" d="M81 525 L128 525 L176 635 L224 525 L273 525 L202 688 L151 688 L81 525 Z " />
<glyph glyph-name="underscore" unicode="&#x5f;" horiz-adv-x="452" d="M-2 -156 L454 -156 L454 -106 L-2 -106 L-2 -156 Z " />
<glyph glyph-name="grave" unicode="&#x60;" horiz-adv-x="500" d="M245 707 L185 675 L272 576 L314 576 L245 707 Z " />
<glyph glyph-name="a" unicode="a" horiz-adv-x="346" d="M139 -9 C187 -9 219 21 240 71 L240 0 L303 0 L303 374 C303 478 247 534 155 534 C115 534 83 526 52 511 L52 451 C83 467 112 475 147 475 C209 475 241 436 241 368 L241 311 C217 322 190 331 157 331 C74 331 24 266 24 162 L24 152 C24 58 72 -9 139 -9 L139 -9 Z M157 45 C111 45 85 90 85 156 L85 166 C85 233 114 278 168 278 C193 278 218 270 241 259 L241 158 C241 98 207 45 157 45 L157 45 Z " />
<glyph glyph-name="b" unicode="b" horiz-adv-x="378" d="M216 -9 C286 -9 347 77 347 251 L347 277 C347 453 286 537 216 537 C163 537 130 489 110 436 L110 706 L48 706 L48 0 L110 0 L110 91 C130 39 163 -9 216 -9 L216 -9 Z M199 49 C152 49 108 121 108 250 L108 278 C108 407 152 479 199 479 C247 479 284 406 284 275 L284 253 C284 122 247 49 199 49 L199 49 Z " />
<glyph glyph-name="c" unicode="c" horiz-adv-x="282" d="M191 -8 C219 -8 239 0 258 13 L258 76 C240 62 219 52 199 52 C144 52 93 109 93 253 L93 273 C93 414 146 475 195 475 C219 475 239 466 258 452 L258 518 C241 529 220 535 192 535 C107 535 30 450 30 271 L30 255 C30 75 104 -8 191 -8 L191 -8 Z " />
<glyph glyph-name="d" unicode="d" horiz-adv-x="378" d="M162 -9 C215 -9 248 39 268 92 L268 0 L331 0 L331 706 L268 706 L268 437 C248 489 215 537 162 537 C93 537 32 451 32 277 L32 251 C32 75 93 -9 162 -9 L162 -9 Z M179 49 C131 49 94 122 94 253 L94 275 C94 406 131 479 179 479 C226 479 270 407 270 278 L270 250 C270 121 226 49 179 49 L179 49 Z " />
<glyph glyph-name="e" unicode="e" horiz-adv-x="349" d="M200 -8 C242 -8 269 1 307 24 L301 84 C266 61 242 51 209 51 C146 51 95 110 91 236 L319 236 L319 276 C319 443 260 536 178 536 C98 536 29 446 29 267 L29 253 C29 80 109 -8 200 -8 L200 -8 Z M91 288 C94 416 131 479 178 479 C226 479 259 401 259 288 L91 288 Z " />
<glyph glyph-name="f" unicode="f" horiz-adv-x="218" d="M66 0 L129 0 L129 474 L208 474 L208 528 L129 528 L129 577 C129 628 149 651 186 651 C192 651 205 650 212 648 L212 704 C203 707 189 708 177 708 C106 708 66 666 66 583 L66 528 L18 528 L18 474 L66 474 L66 0 Z " />
<glyph glyph-name="g" unicode="g" horiz-adv-x="378" d="M169 -132 C270 -132 331 -84 331 24 L331 528 L268 528 L268 437 C248 489 215 537 162 537 C94 537 32 455 32 287 L32 279 C32 110 94 29 162 29 C215 29 248 77 268 129 L268 25 C268 -45 232 -75 166 -75 C135 -75 90 -65 54 -51 L54 -112 C90 -125 129 -132 169 -132 L169 -132 Z M179 87 C133 87 94 154 94 280 L94 286 C94 411 133 479 179 479 C224 479 270 410 270 286 L270 279 C270 155 224 87 179 87 L179 87 Z " />
<glyph glyph-name="h" unicode="h" horiz-adv-x="374" d="M48 0 L110 0 L110 361 C110 434 147 482 194 482 C241 482 268 441 268 367 L268 0 L330 0 L330 378 C330 478 285 537 215 537 C160 537 129 498 110 454 L110 706 L48 706 L48 0 Z " />
<glyph glyph-name="i" unicode="i" horiz-adv-x="167" d="M51 624 L116 624 L116 706 L51 706 L51 624 Z M52 0 L115 0 L115 528 L52 528 L52 0 Z " />
<glyph glyph-name="j" unicode="j" horiz-adv-x="173" d="M56 624 L122 624 L122 706 L56 706 L56 624 Z M12 -133 C92 -133 120 -78 120 -11 L120 528 L58 528 L58 3 C58 -45 46 -78 -2 -78 C-8 -78 -15 -76 -20 -74 L-20 -128 C-11 -131 -2 -133 12 -133 L12 -133 Z " />
<glyph glyph-name="k" unicode="k" horiz-adv-x="336" d="M48 0 L110 0 L110 163 L157 252 L247 0 L316 0 L199 315 L309 528 L241 528 L110 260 L110 706 L48 706 L48 0 Z " />
<glyph glyph-name="l" unicode="l" horiz-adv-x="167" d="M52 0 L115 0 L115 706 L52 706 L52 0 Z " />
<glyph glyph-name="m" unicode="m" horiz-adv-x="585" d="M48 0 L110 0 L110 363 C110 435 146 482 192 482 C236 482 263 443 263 369 L263 0 L325 0 L325 363 C325 435 361 482 407 482 C451 482 478 443 478 369 L478 0 L540 0 L540 378 C540 482 490 537 423 537 C364 537 331 494 312 455 C295 500 266 537 212 537 C160 537 130 499 110 455 L110 528 L48 528 L48 0 Z " />
<glyph glyph-name="n" unicode="n" horiz-adv-x="374" d="M48 0 L110 0 L110 361 C110 434 147 482 194 482 C241 482 268 441 268 367 L268 0 L330 0 L330 378 C330 478 285 537 215 537 C160 537 129 498 110 454 L110 528 L48 528 L48 0 Z " />
<glyph glyph-name="o" unicode="o" horiz-adv-x="366" d="M183 -9 C267 -9 337 89 337 256 L337 271 C337 438 267 536 184 536 C100 536 30 438 30 271 L30 256 C30 89 100 -9 183 -9 L183 -9 Z M183 48 C132 48 92 127 92 256 L92 272 C92 401 132 479 183 479 C234 479 274 401 274 272 L274 256 C274 127 234 48 183 48 L183 48 Z " />
<glyph glyph-name="p" unicode="p" horiz-adv-x="378" d="M48 -130 L110 -130 L110 91 C130 39 163 -9 216 -9 C286 -9 347 77 347 251 L347 277 C347 453 286 537 216 537 C163 537 130 489 110 436 L110 528 L48 528 L48 -130 Z M199 49 C152 49 108 121 108 250 L108 278 C108 407 152 479 199 479 C247 479 284 406 284 275 L284 253 C284 122 247 49 199 49 L199 49 Z " />
<glyph glyph-name="q" unicode="q" horiz-adv-x="378" d="M268 -130 L331 -130 L331 528 L268 528 L268 437 C248 489 215 537 162 537 C93 537 32 451 32 277 L32 251 C32 75 93 -9 162 -9 C215 -9 248 39 268 92 L268 -130 Z M179 49 C131 49 94 122 94 253 L94 275 C94 406 131 479 179 479 C226 479 270 407 270 278 L270 250 C270 121 226 49 179 49 L179 49 Z " />
<glyph glyph-name="r" unicode="r" horiz-adv-x="238" d="M48 0 L110 0 L110 334 C110 422 158 463 221 463 L223 463 L223 534 C166 538 129 501 110 454 L110 528 L48 528 L48 0 Z " />
<glyph glyph-name="s" unicode="s" horiz-adv-x="280" d="M129 -7 C199 -7 260 42 260 121 L260 123 C260 180 233 223 162 294 C101 354 84 379 84 412 L84 414 C84 453 112 477 150 477 C180 477 208 470 237 455 L237 518 C209 530 184 535 150 535 C80 535 22 489 22 411 L22 409 C22 352 50 309 121 241 C180 185 198 153 198 120 L198 118 C198 76 167 50 128 50 C96 50 60 62 23 81 L23 18 C57 2 90 -7 129 -7 L129 -7 Z " />
<glyph glyph-name="t" unicode="t" horiz-adv-x="230" d="M161 -5 C175 -5 194 -1 206 4 L206 58 C197 55 184 53 175 53 C144 53 126 64 126 104 L126 474 L205 474 L205 528 L126 528 L126 673 L63 673 L63 528 L18 528 L18 474 L63 474 L63 89 C63 18 104 -5 161 -5 L161 -5 Z " />
<glyph glyph-name="u" unicode="u" horiz-adv-x="374" d="M159 -9 C214 -9 245 30 264 73 L264 0 L326 0 L326 528 L264 528 L264 166 C264 94 227 46 180 46 C133 46 106 87 106 161 L106 528 L44 528 L44 150 C44 50 89 -9 159 -9 L159 -9 Z " />
<glyph glyph-name="v" unicode="v" horiz-adv-x="352" d="M147 -3 L205 -3 L329 528 L268 528 L176 103 L85 528 L22 528 L147 -3 Z " />
<glyph glyph-name="w" unicode="w" horiz-adv-x="531" d="M130 -3 L190 -3 L265 399 L342 -3 L401 -3 L505 528 L443 528 L369 115 L294 528 L240 528 L163 115 L91 528 L26 528 L130 -3 Z " />
<glyph glyph-name="x" unicode="x" horiz-adv-x="342" d="M23 0 L86 0 L170 217 L254 0 L319 0 L208 274 L312 528 L249 528 L171 327 L93 528 L29 528 L134 272 L23 0 Z " />
<glyph glyph-name="y" unicode="y" horiz-adv-x="350" d="M111 -130 L172 -130 L328 528 L266 528 L175 116 L85 528 L22 528 L145 9 L111 -130 Z " />
<glyph glyph-name="z" unicode="z" horiz-adv-x="290" d="M22 0 L264 0 L264 54 L90 54 L267 487 L267 528 L31 528 L31 474 L200 474 L22 41 L22 0 Z " />
<glyph glyph-name="braceleft" unicode="&#x7b;" horiz-adv-x="277" d="M254 -137 L254 -93 C194 -91 158 -56 158 -5 C158 61 195 103 195 168 C195 224 165 276 94 288 C165 300 195 354 195 410 C195 475 158 516 158 583 C158 635 194 670 254 672 L254 716 C143 711 99 649 99 585 C99 516 136 472 136 404 C136 361 106 312 32 312 L20 312 L20 265 L32 265 C106 265 136 218 136 173 C136 105 99 61 99 0 C99 -76 143 -133 254 -137 L254 -137 Z " />
<glyph glyph-name="bar" unicode="&#x7c;" horiz-adv-x="225" d="M87 -98 L138 -98 L138 768 L87 768 L87 -98 Z " />
<glyph glyph-name="braceright" unicode="&#x7d;" horiz-adv-x="278" d="M24 -137 C135 -133 179 -71 179 -6 C179 63 142 106 142 174 C142 218 172 266 246 266 L258 266 L258 314 L246 314 C172 314 142 361 142 405 C142 473 179 517 179 578 C179 654 135 711 24 716 L24 672 C84 670 120 635 120 584 C120 517 83 475 83 410 C83 354 113 303 184 290 C113 278 83 224 83 169 C83 104 120 62 120 -5 C120 -56 84 -91 24 -93 L24 -137 Z " />
<glyph glyph-name="asciitilde" unicode="&#x7e;" horiz-adv-x="314" d="M206 251 C233 251 258 278 268 336 L230 346 C221 316 214 300 200 300 C190 300 181 306 163 322 C145 338 132 348 108 348 C81 348 57 321 46 264 L85 253 C93 283 101 299 114 299 C125 299 133 293 151 277 C169 261 182 251 206 251 L206 251 Z " />
<glyph glyph-name="exclamdown" unicode="&#xa1;" horiz-adv-x="200" d="M60 603 L141 603 L141 700 L60 700 L60 603 Z M62 0 L138 0 L138 57 L116 508 L84 508 L62 57 L62 0 Z " />
<glyph glyph-name="cent" unicode="&#xa2;" horiz-adv-x="294" d="M157 -5 L207 -5 L207 77 C226 78 244 83 261 91 L261 153 C243 142 228 137 212 137 L207 137 L207 560 L211 560 C229 560 248 553 261 545 L261 607 C249 614 227 620 207 621 L207 704 L158 704 L158 614 C86 590 32 504 32 355 L32 340 C32 198 85 110 157 85 L157 -5 Z M157 156 C120 184 95 245 95 336 L95 357 C95 461 121 519 158 544 L157 156 Z " />
<glyph glyph-name="sterling" unicode="&#xa3;" horiz-adv-x="330" d="M29 0 L317 0 L317 58 L144 58 L144 314 L263 314 L263 371 L144 371 L144 526 C144 568 154 602 173 621 C190 638 210 646 235 646 C258 646 277 640 292 634 L292 697 C276 703 258 707 228 707 C187 707 153 693 127 668 C95 636 79 590 79 527 L79 371 L27 371 L27 314 L79 314 L79 57 L29 37 L29 0 Z " />
<glyph glyph-name="currency" unicode="&#xa4;" horiz-adv-x="364" d="M252 -6 C286 -6 310 1 333 15 L333 81 C310 66 286 57 263 57 C203 57 154 118 138 246 L282 246 L282 296 L135 296 C134 310 133 324 133 340 L133 360 C133 378 134 394 135 409 L282 409 L282 459 L139 459 C155 583 204 643 263 643 C286 643 305 635 331 620 L331 689 C308 700 291 706 259 706 C172 706 94 626 73 459 L12 459 L12 409 L69 409 C68 394 68 377 68 360 L68 340 C68 324 68 310 69 296 L12 296 L12 246 L73 246 C92 76 166 -6 252 -6 L252 -6 Z " />
<glyph glyph-name="yen" unicode="&#xa5;" horiz-adv-x="358" d="M148 0 L210 0 L210 129 L305 129 L305 180 L210 180 L210 268 L305 268 L305 318 L221 318 L352 700 L286 700 L180 365 L74 700 L6 700 L138 318 L54 318 L54 268 L148 268 L148 180 L54 180 L54 129 L148 129 L148 0 Z " />
<glyph glyph-name="brokenbar" unicode="&#xa6;" horiz-adv-x="500" d="M25 -200 L475 -200 L475 800 L25 800 L25 -200 Z " />
<glyph glyph-name="section" unicode="&#xa7;" horiz-adv-x="373" d="M168 -7 C245 -7 300 43 300 114 L300 116 C300 157 286 183 248 214 C322 245 353 292 353 341 L353 343 C353 399 319 434 238 482 C158 529 135 549 135 587 L135 589 C135 623 162 650 206 650 C236 650 265 642 293 628 L293 691 C265 702 239 707 206 707 C128 707 73 658 73 589 L73 586 C73 546 87 519 126 487 C52 456 20 409 20 360 L20 358 C20 301 54 266 135 219 C203 179 238 157 238 116 L238 113 C238 77 210 51 168 51 C135 51 102 61 66 80 L66 16 C97 2 133 -7 168 -7 L168 -7 Z M208 243 L181 259 C102 305 82 330 82 363 L82 365 C82 399 105 431 166 458 C174 452 182 447 192 442 C271 396 291 372 291 338 L291 336 C291 303 268 270 208 243 L208 243 Z " />
<glyph glyph-name="dieresis" unicode="&#xa8;" horiz-adv-x="500" d="M275 584 L337 584 L337 662 L275 662 L275 584 Z M163 584 L225 584 L225 662 L163 662 L163 584 Z " />
<glyph glyph-name="copyright" unicode="&#xa9;" horiz-adv-x="523" d="M261 -10 C405 -10 499 139 499 333 L499 368 C499 563 405 711 261 711 C117 711 24 563 24 368 L24 333 C24 139 117 -10 261 -10 L261 -10 Z M261 18 C130 18 53 157 53 333 L53 368 C53 544 130 683 261 683 C392 683 469 544 469 368 L469 333 C469 157 392 18 261 18 L261 18 Z M269 152 C289 152 303 155 318 164 L318 211 C302 200 290 196 277 196 C240 196 210 236 210 341 L210 360 C210 463 241 504 276 504 C288 504 300 500 317 490 L317 538 C302 546 292 549 273 549 C214 549 164 490 164 357 L164 344 C164 211 212 152 269 152 L269 152 Z " />
<glyph glyph-name="ordfeminine" unicode="&#xaa;" horiz-adv-x="250" d="M105 403 C126 403 144 417 156 441 L156 408 L198 408 L198 610 C198 670 167 703 114 703 C92 703 72 697 57 689 L57 648 C75 657 91 662 109 662 C139 662 156 642 156 607 L156 580 C142 587 128 590 114 590 C70 590 41 556 41 498 L41 491 C41 438 69 403 105 403 L105 403 Z M40 317 L211 317 L211 350 L40 350 L40 317 Z M116 439 C93 439 82 461 82 494 L82 500 C82 533 96 555 121 555 C134 555 146 551 156 547 L156 499 C156 466 138 439 116 439 L116 439 Z " />
<glyph glyph-name="guillemotleft" unicode="&#xab;" horiz-adv-x="368" d="M284 41 L335 70 L224 260 L334 448 L284 476 L163 263 L163 255 L284 41 Z M140 41 L191 70 L80 260 L191 448 L140 476 L19 263 L19 255 L140 41 Z " />
<glyph glyph-name="logicalnot" unicode="&#xac;" horiz-adv-x="500" d="M25 -200 L475 -200 L475 800 L25 800 L25 -200 Z " />
<glyph glyph-name="registered" unicode="&#xae;" horiz-adv-x="312" d="M156 355 C231 355 283 428 283 527 L283 545 C283 644 231 717 156 717 C81 717 29 644 29 545 L29 527 C29 428 81 355 156 355 L156 355 Z M262 527 C262 440 222 374 156 374 C90 374 50 440 50 527 L50 545 C50 631 90 698 156 698 C222 698 262 631 262 545 L262 527 Z M112 444 L138 444 L138 514 L147 514 C149 514 152 514 156 515 L187 444 L215 444 L181 522 C198 531 210 547 210 575 L210 576 C210 613 187 635 150 635 L112 635 L112 444 Z M138 537 L138 611 L149 611 C170 611 184 599 184 575 C184 549 170 537 150 537 L138 537 Z " />
<glyph glyph-name="macron" unicode="&#xaf;" horiz-adv-x="500" d="M153 585 L347 585 L347 635 L153 635 L153 585 Z " />
<glyph glyph-name="degree" unicode="&#xb0;" horiz-adv-x="255" d="M128 391 C186 391 230 449 230 545 L230 554 C230 649 186 707 128 707 C69 707 25 649 25 554 L25 545 C25 449 69 391 128 391 L128 391 Z M128 439 C94 439 72 477 72 545 L72 554 C72 622 94 660 128 660 C161 660 183 622 183 554 L183 545 C183 477 161 439 128 439 L128 439 Z " />
<glyph glyph-name="plusminus" unicode="&#xb1;" horiz-adv-x="315" d="M108 -5 C212 -5 288 74 288 193 L288 196 C288 287 240 346 168 368 C234 396 285 450 285 539 L285 543 C285 638 226 705 127 705 C90 705 55 693 30 680 L30 619 C56 634 89 645 119 645 C181 645 221 603 221 537 L221 535 C221 454 161 398 78 391 L78 336 C170 332 224 287 224 198 L224 195 C224 108 171 56 103 56 C72 56 41 66 19 75 L19 13 C40 4 70 -5 108 -5 L108 -5 Z " />
<glyph glyph-name="twosuperior" unicode="&#xb2;" horiz-adv-x="500" d="M25 -200 L475 -200 L475 800 L25 800 L25 -200 Z " />
<glyph glyph-name="threesuperior" unicode="&#xb3;" horiz-adv-x="500" d="M25 -200 L475 -200 L475 800 L25 800 L25 -200 Z " />
<glyph glyph-name="acute" unicode="&#xb4;" horiz-adv-x="500" d="M182 576 L225 576 L312 675 L252 707 L182 576 Z " />
<glyph glyph-name="mu" unicode="&#xb5;" horiz-adv-x="410" d="M321 -93 L392 -93 L301 40 C348 94 376 194 376 339 L376 361 C376 592 304 709 205 709 C106 709 33 592 33 361 L33 339 C33 108 106 -9 205 -9 C222 -9 239 -4 254 3 L321 -93 Z M205 51 C145 51 99 142 99 339 L99 361 C99 558 145 649 205 649 C265 649 311 558 311 361 L311 339 C311 142 265 51 205 51 L205 51 Z " />
<glyph glyph-name="paragraph" unicode="&#xb6;" horiz-adv-x="334" d="M217 0 L282 0 L282 700 L227 700 C103 700 18 621 18 477 L18 475 C18 335 97 252 217 249 L217 0 Z " />
<glyph glyph-name="periodcentered" unicode="&#xb7;" horiz-adv-x="175" d="M46 251 L130 251 L130 351 L46 351 L46 251 Z " />
<glyph glyph-name="cedilla" unicode="&#xb8;" horiz-adv-x="500" d="M239 -115 L284 13 L241 13 L178 -90 L239 -115 Z " />
<glyph glyph-name="onesuperior" unicode="&#xb9;" horiz-adv-x="500" d="M25 -200 L475 -200 L475 800 L25 800 L25 -200 Z " />
<glyph glyph-name="ordmasculine" unicode="&#xba;" horiz-adv-x="250" d="M125 402 C177 402 211 459 211 547 L211 559 C211 647 177 704 125 704 C73 704 39 647 39 559 L39 547 C39 459 73 402 125 402 L125 402 Z M44 317 L208 317 L208 350 L44 350 L44 317 Z M125 441 C94 441 81 488 81 547 L81 559 C81 618 94 665 125 665 C156 665 169 618 169 559 L169 547 C169 488 156 441 125 441 L125 441 Z " />
<glyph glyph-name="guillemotright" unicode="&#xbb;" horiz-adv-x="368" d="M225 41 L346 255 L346 263 L225 476 L175 448 L285 258 L174 70 L225 41 Z M81 41 L202 255 L202 263 L81 476 L31 448 L141 258 L30 70 L81 41 Z " />
<glyph glyph-name="onequarter" unicode="&#xbc;" horiz-adv-x="500" d="M25 -200 L475 -200 L475 800 L25 800 L25 -200 Z " />
<glyph glyph-name="onehalf" unicode="&#xbd;" horiz-adv-x="500" d="M25 -200 L475 -200 L475 800 L25 800 L25 -200 Z " />
<glyph glyph-name="threequarters" unicode="&#xbe;" horiz-adv-x="500" d="M25 -200 L475 -200 L475 800 L25 800 L25 -200 Z " />
<glyph glyph-name="questiondown" unicode="&#xbf;" horiz-adv-x="308" d="M138 603 L219 603 L219 700 L138 700 L138 603 Z M184 -4 C226 -4 257 7 285 22 L285 83 C254 65 226 56 192 56 C135 56 88 100 88 171 L88 174 C88 257 136 302 207 328 L211 334 L203 508 L161 508 L151 363 C81 330 23 274 23 171 L23 165 C23 67 92 -4 184 -4 L184 -4 Z " />
<glyph glyph-name="Agrave" unicode="&#xc0;" horiz-adv-x="407" d="M162 852 L100 822 L184 742 L231 742 L162 852 Z M21 0 L85 0 L121 181 L283 181 L320 0 L386 0 L238 703 L168 703 L21 0 Z M131 240 L202 592 L273 240 L131 240 Z " />
<glyph glyph-name="Aacute" unicode="&#xc1;" horiz-adv-x="407" d="M177 742 L224 742 L308 822 L246 852 L177 742 Z M21 0 L85 0 L121 181 L283 181 L320 0 L386 0 L238 703 L168 703 L21 0 Z M131 240 L202 592 L273 240 L131 240 Z " />
<glyph glyph-name="Acircumflex" unicode="&#xc2;" horiz-adv-x="407" d="M104 742 L155 742 L203 798 L251 742 L304 742 L232 845 L176 845 L104 742 Z M21 0 L85 0 L121 181 L283 181 L320 0 L386 0 L238 703 L168 703 L21 0 Z M131 240 L202 592 L273 240 L131 240 Z " />
<glyph glyph-name="Atilde" unicode="&#xc3;" horiz-adv-x="407" d="M257 743 C286 743 305 770 318 820 L276 830 C268 806 261 794 248 794 C239 794 230 800 211 811 C192 823 177 832 155 832 C126 832 107 804 94 755 L136 745 C144 769 151 781 164 781 C173 781 183 775 202 763 C221 751 235 743 257 743 L257 743 Z M21 0 L85 0 L121 181 L283 181 L320 0 L386 0 L238 703 L168 703 L21 0 Z M131 240 L202 592 L273 240 L131 240 Z " />
<glyph glyph-name="Adieresis" unicode="&#xc4;" horiz-adv-x="407" d="M229 750 L295 750 L295 825 L229 825 L229 750 Z M113 750 L179 750 L179 825 L113 825 L113 750 Z M21 0 L85 0 L121 181 L283 181 L320 0 L386 0 L238 703 L168 703 L21 0 Z M131 240 L202 592 L273 240 L131 240 Z " />
<glyph glyph-name="Aring" unicode="&#xc5;" horiz-adv-x="407" d="M122 734 C122 705 137 680 160 667 L21 0 L85 0 L121 181 L283 181 L320 0 L386 0 L245 668 C268 681 284 705 284 734 C284 778 249 810 204 810 C159 810 122 777 122 734 L122 734 Z M131 240 L202 592 L273 240 L131 240 Z M157 734 C157 760 177 779 203 779 C229 779 248 760 248 734 C248 708 229 689 203 689 C177 689 157 708 157 734 L157 734 Z " />
<glyph glyph-name="AE" unicode="&#xc6;" horiz-adv-x="522" d="M2 0 L65 0 L114 181 L246 181 L246 0 L495 0 L495 61 L311 61 L311 322 L475 322 L475 383 L311 383 L311 639 L492 639 L492 700 L196 700 L2 0 Z M130 240 L236 637 L246 637 L246 240 L130 240 Z " />
<glyph glyph-name="Ccedilla" unicode="&#xc7;" horiz-adv-x="331" d="M186 -115 L225 -4 C254 -3 277 3 299 16 L299 81 C274 66 253 59 229 59 C157 59 99 145 99 340 L99 360 C99 552 157 641 229 641 C252 641 271 634 297 619 L297 688 C274 699 257 704 225 704 C122 704 33 595 33 360 L33 340 C33 137 95 27 181 2 L125 -90 L186 -115 Z " />
<glyph glyph-name="Egrave" unicode="&#xc8;" horiz-adv-x="326" d="M134 849 L72 819 L156 739 L203 739 L134 849 Z M51 0 L300 0 L300 61 L116 61 L116 322 L280 322 L280 383 L116 383 L116 639 L297 639 L297 700 L51 700 L51 0 Z " />
<glyph glyph-name="Eacute" unicode="&#xc9;" horiz-adv-x="326" d="M149 739 L196 739 L280 819 L218 849 L149 739 Z M51 0 L300 0 L300 61 L116 61 L116 322 L280 322 L280 383 L116 383 L116 639 L297 639 L297 700 L51 700 L51 0 Z " />
<glyph glyph-name="Ecircumflex" unicode="&#xca;" horiz-adv-x="326" d="M76 742 L127 742 L175 798 L223 742 L276 742 L204 845 L148 845 L76 742 Z M51 0 L300 0 L300 61 L116 61 L116 322 L280 322 L280 383 L116 383 L116 639 L297 639 L297 700 L51 700 L51 0 Z " />
<glyph glyph-name="Edieresis" unicode="&#xcb;" horiz-adv-x="326" d="M201 747 L267 747 L267 822 L201 822 L201 747 Z M85 747 L151 747 L151 822 L85 822 L85 747 Z M51 0 L300 0 L300 61 L116 61 L116 322 L280 322 L280 383 L116 383 L116 639 L297 639 L297 700 L51 700 L51 0 Z " />
<glyph glyph-name="Igrave" unicode="&#xcc;" horiz-adv-x="178" d="M48 849 L-14 819 L70 739 L117 739 L48 849 Z M56 0 L121 0 L121 700 L56 700 L56 0 Z " />
<glyph glyph-name="Iacute" unicode="&#xcd;" horiz-adv-x="178" d="M62 739 L109 739 L193 819 L131 849 L62 739 Z M56 0 L121 0 L121 700 L56 700 L56 0 Z " />
<glyph glyph-name="Icircumflex" unicode="&#xce;" horiz-adv-x="178" d="M-11 742 L40 742 L88 798 L136 742 L189 742 L117 845 L61 845 L-11 742 Z M56 0 L121 0 L121 700 L56 700 L56 0 Z " />
<glyph glyph-name="Idieresis" unicode="&#xcf;" horiz-adv-x="178" d="M114 747 L180 747 L180 822 L114 822 L114 747 Z M-2 747 L64 747 L64 822 L-2 822 L-2 747 Z M56 0 L121 0 L121 700 L56 700 L56 0 Z " />
<glyph glyph-name="Eth" unicode="&#xd0;" horiz-adv-x="412" d="M7 323 L57 323 L57 0 L148 0 C285 0 378 116 378 340 L378 360 C378 584 285 700 148 700 L57 700 L57 381 L7 381 L7 323 Z M122 59 L122 323 L201 323 L201 381 L122 381 L122 641 L151 641 C242 641 312 552 312 360 L312 340 C312 148 245 59 152 59 L122 59 Z " />
<glyph glyph-name="Ntilde" unicode="&#xd1;" horiz-adv-x="422" d="M265 737 C294 737 313 764 326 814 L284 824 C276 800 269 788 256 788 C247 788 238 794 219 805 C200 817 185 826 163 826 C134 826 115 798 102 749 L144 739 C152 763 159 775 172 775 C181 775 191 769 210 757 C229 745 243 737 265 737 L265 737 Z M51 0 L113 0 L113 540 L311 0 L372 0 L372 700 L309 700 L309 175 L116 700 L51 700 L51 0 Z " />
<glyph glyph-name="Ograve" unicode="&#xd2;" horiz-adv-x="410" d="M164 852 L102 822 L186 742 L233 742 L164 852 Z M205 -9 C304 -9 376 108 376 339 L376 361 C376 592 304 709 205 709 C106 709 33 592 33 361 L33 339 C33 108 106 -9 205 -9 L205 -9 Z M205 51 C145 51 99 142 99 339 L99 361 C99 558 145 649 205 649 C265 649 311 558 311 361 L311 339 C311 142 265 51 205 51 L205 51 Z " />
<glyph glyph-name="Oacute" unicode="&#xd3;" horiz-adv-x="410" d="M178 742 L225 742 L309 822 L247 852 L178 742 Z M205 -9 C304 -9 376 108 376 339 L376 361 C376 592 304 709 205 709 C106 709 33 592 33 361 L33 339 C33 108 106 -9 205 -9 L205 -9 Z M205 51 C145 51 99 142 99 339 L99 361 C99 558 145 649 205 649 C265 649 311 558 311 361 L311 339 C311 142 265 51 205 51 L205 51 Z " />
<glyph glyph-name="Ocircumflex" unicode="&#xd4;" horiz-adv-x="410" d="M105 745 L156 745 L204 801 L252 745 L305 745 L233 848 L177 848 L105 745 Z M205 -9 C304 -9 376 108 376 339 L376 361 C376 592 304 709 205 709 C106 709 33 592 33 361 L33 339 C33 108 106 -9 205 -9 L205 -9 Z M205 51 C145 51 99 142 99 339 L99 361 C99 558 145 649 205 649 C265 649 311 558 311 361 L311 339 C311 142 265 51 205 51 L205 51 Z " />
<glyph glyph-name="Otilde" unicode="&#xd5;" horiz-adv-x="410" d="M259 743 C288 743 307 770 320 820 L278 830 C270 806 263 794 250 794 C241 794 232 800 213 811 C194 823 179 832 157 832 C128 832 109 804 96 755 L138 745 C146 769 153 781 166 781 C175 781 185 775 204 763 C223 751 237 743 259 743 L259 743 Z M205 -9 C304 -9 376 108 376 339 L376 361 C376 592 304 709 205 709 C106 709 33 592 33 361 L33 339 C33 108 106 -9 205 -9 L205 -9 Z M205 51 C145 51 99 142 99 339 L99 361 C99 558 145 649 205 649 C265 649 311 558 311 361 L311 339 C311 142 265 51 205 51 L205 51 Z " />
<glyph glyph-name="Odieresis" unicode="&#xd6;" horiz-adv-x="410" d="M230 750 L296 750 L296 825 L230 825 L230 750 Z M114 750 L180 750 L180 825 L114 825 L114 750 Z M205 -9 C304 -9 376 108 376 339 L376 361 C376 592 304 709 205 709 C106 709 33 592 33 361 L33 339 C33 108 106 -9 205 -9 L205 -9 Z M205 51 C145 51 99 142 99 339 L99 361 C99 558 145 649 205 649 C265 649 311 558 311 361 L311 339 C311 142 265 51 205 51 L205 51 Z " />
<glyph glyph-name="multiply" unicode="&#xd7;" horiz-adv-x="410" d="M321 -93 L392 -93 L301 40 C348 94 376 194 376 339 L376 361 C376 592 304 709 205 709 C106 709 33 592 33 361 L33 339 C33 108 106 -9 205 -9 C222 -9 239 -4 254 3 L321 -93 Z M205 51 C145 51 99 142 99 339 L99 361 C99 558 145 649 205 649 C265 649 311 558 311 361 L311 339 C311 142 265 51 205 51 L205 51 Z " />
<glyph glyph-name="Oslash" unicode="&#xd8;" horiz-adv-x="410" d="M38 -7 L88 -7 L108 41 C135 8 168 -9 205 -9 C304 -9 376 108 376 339 L376 361 C376 464 362 546 336 603 L380 707 L330 707 L307 652 C279 690 245 709 205 709 C106 709 33 592 33 361 L33 339 C33 230 50 146 77 88 L38 -7 Z M114 177 C104 219 98 273 98 339 L98 361 C98 558 144 650 205 650 C235 650 262 628 280 581 L114 177 Z M205 50 C177 50 151 68 132 110 L298 509 C307 470 312 420 312 361 L312 339 C312 142 266 50 205 50 L205 50 Z " />
<glyph glyph-name="Ugrave" unicode="&#xd9;" horiz-adv-x="411" d="M165 846 L103 816 L187 736 L234 736 L165 846 Z M206 -9 C301 -9 364 62 364 186 L364 700 L299 700 L299 183 C299 96 262 51 206 51 C149 51 113 96 113 183 L113 700 L49 700 L49 186 C49 62 111 -9 206 -9 L206 -9 Z " />
<glyph glyph-name="Uacute" unicode="&#xda;" horiz-adv-x="411" d="M179 736 L226 736 L310 816 L248 846 L179 736 Z M206 -9 C301 -9 364 62 364 186 L364 700 L299 700 L299 183 C299 96 262 51 206 51 C149 51 113 96 113 183 L113 700 L49 700 L49 186 C49 62 111 -9 206 -9 L206 -9 Z " />
<glyph glyph-name="Ucircumflex" unicode="&#xdb;" horiz-adv-x="411" d="M106 739 L157 739 L205 795 L253 739 L306 739 L234 842 L178 842 L106 739 Z M206 -9 C301 -9 364 62 364 186 L364 700 L299 700 L299 183 C299 96 262 51 206 51 C149 51 113 96 113 183 L113 700 L49 700 L49 186 C49 62 111 -9 206 -9 L206 -9 Z " />
<glyph glyph-name="Udieresis" unicode="&#xdc;" horiz-adv-x="411" d="M231 744 L297 744 L297 819 L231 819 L231 744 Z M115 744 L181 744 L181 819 L115 819 L115 744 Z M206 -9 C301 -9 364 62 364 186 L364 700 L299 700 L299 183 C299 96 262 51 206 51 C149 51 113 96 113 183 L113 700 L49 700 L49 186 C49 62 111 -9 206 -9 L206 -9 Z " />
<glyph glyph-name="Yacute" unicode="&#xdd;" horiz-adv-x="360" d="M154 736 L201 736 L285 816 L223 846 L154 736 Z M148 0 L213 0 L213 295 L354 700 L288 700 L181 379 L75 700 L6 700 L148 295 L148 0 Z " />
<glyph glyph-name="Thorn" unicode="&#xde;" horiz-adv-x="370" d="M51 0 L116 0 L116 133 L144 133 C274 135 351 220 351 360 L351 362 C351 506 265 585 147 585 L117 585 L117 700 L51 700 L51 0 Z M116 192 L116 525 L147 525 C232 525 286 468 286 360 L286 358 C286 252 235 193 147 192 L116 192 Z " />
<glyph glyph-name="germandbls" unicode="&#xdf;" horiz-adv-x="374" d="M166 -2 C283 1 348 76 348 189 L348 195 C348 289 299 343 226 370 C286 399 327 458 327 546 L327 552 C327 645 272 709 192 709 C102 709 48 637 48 518 L48 0 L110 0 L110 522 C110 603 141 652 190 652 C233 652 266 615 266 546 L266 542 C266 480 241 415 166 386 L166 338 C246 323 285 272 285 192 L285 189 C285 111 248 58 166 52 L166 -2 Z " />
<glyph glyph-name="agrave" unicode="&#xe0;" horiz-adv-x="346" d="M139 -9 C187 -9 219 21 240 71 L240 0 L303 0 L303 374 C303 478 247 534 155 534 C115 534 83 526 52 511 L52 451 C83 467 112 475 147 475 C209 475 241 436 241 368 L241 311 C217 322 190 331 157 331 C74 331 24 266 24 162 L24 152 C24 58 72 -9 139 -9 L139 -9 Z M157 45 C111 45 85 90 85 156 L85 166 C85 233 114 278 168 278 C193 278 218 270 241 259 L241 158 C241 98 207 45 157 45 L157 45 Z M128 707 L68 675 L155 576 L197 576 L128 707 Z " />
<glyph glyph-name="aacute" unicode="&#xe1;" horiz-adv-x="346" d="M139 -9 C187 -9 219 21 240 71 L240 0 L303 0 L303 374 C303 478 247 534 155 534 C115 534 83 526 52 511 L52 451 C83 467 112 475 147 475 C209 475 241 436 241 368 L241 311 C217 322 190 331 157 331 C74 331 24 266 24 162 L24 152 C24 58 72 -9 139 -9 L139 -9 Z M157 45 C111 45 85 90 85 156 L85 166 C85 233 114 278 168 278 C193 278 218 270 241 259 L241 158 C241 98 207 45 157 45 L157 45 Z M146 576 L189 576 L276 675 L216 707 L146 576 Z " />
<glyph glyph-name="acircumflex" unicode="&#xe2;" horiz-adv-x="346" d="M139 -9 C187 -9 219 21 240 71 L240 0 L303 0 L303 374 C303 478 247 534 155 534 C115 534 83 526 52 511 L52 451 C83 467 112 475 147 475 C209 475 241 436 241 368 L241 311 C217 322 190 331 157 331 C74 331 24 266 24 162 L24 152 C24 58 72 -9 139 -9 L139 -9 Z M157 45 C111 45 85 90 85 156 L85 166 C85 233 114 278 168 278 C193 278 218 270 241 259 L241 158 C241 98 207 45 157 45 L157 45 Z M78 579 L124 579 L171 651 L218 579 L266 579 L196 706 L148 706 L78 579 Z " />
<glyph glyph-name="atilde" unicode="&#xe3;" horiz-adv-x="346" d="M139 -9 C187 -9 219 21 240 71 L240 0 L303 0 L303 374 C303 478 247 534 155 534 C115 534 83 526 52 511 L52 451 C83 467 112 475 147 475 C209 475 241 436 241 368 L241 311 C217 322 190 331 157 331 C74 331 24 266 24 162 L24 152 C24 58 72 -9 139 -9 L139 -9 Z M157 45 C111 45 85 90 85 156 L85 166 C85 233 114 278 168 278 C193 278 218 270 241 259 L241 158 C241 98 207 45 157 45 L157 45 Z M105 579 C113 608 121 622 133 622 C142 622 151 617 170 601 C188 586 202 577 223 577 C252 577 270 603 282 660 L243 670 C235 641 227 627 215 627 C206 627 197 633 178 648 C160 663 146 672 125 672 C96 672 78 646 66 589 L105 579 Z " />
<glyph glyph-name="adieresis" unicode="&#xe4;" horiz-adv-x="346" d="M139 -9 C187 -9 219 21 240 71 L240 0 L303 0 L303 374 C303 478 247 534 155 534 C115 534 83 526 52 511 L52 451 C83 467 112 475 147 475 C209 475 241 436 241 368 L241 311 C217 322 190 331 157 331 C74 331 24 266 24 162 L24 152 C24 58 72 -9 139 -9 L139 -9 Z M157 45 C111 45 85 90 85 156 L85 166 C85 233 114 278 168 278 C193 278 218 270 241 259 L241 158 C241 98 207 45 157 45 L157 45 Z M197 584 L259 584 L259 662 L197 662 L197 584 Z M85 584 L147 584 L147 662 L85 662 L85 584 Z " />
<glyph glyph-name="aring" unicode="&#xe5;" horiz-adv-x="346" d="M139 -9 C187 -9 219 21 240 71 L240 0 L303 0 L303 374 C303 478 247 534 155 534 C115 534 83 526 52 511 L52 451 C83 467 112 475 147 475 C209 475 241 436 241 368 L241 311 C217 322 190 331 157 331 C74 331 24 266 24 162 L24 152 C24 58 72 -9 139 -9 L139 -9 Z M157 45 C111 45 85 90 85 156 L85 166 C85 233 114 278 168 278 C193 278 218 270 241 259 L241 158 C241 98 207 45 157 45 L157 45 Z M91 657 C91 610 125 575 171 575 C217 575 253 611 253 657 C253 703 219 739 173 739 C127 739 91 703 91 657 L91 657 Z M125 657 C125 686 145 708 172 708 C199 708 219 686 219 657 C219 628 199 606 172 606 C145 606 125 628 125 657 L125 657 Z " />
<glyph glyph-name="ae" unicode="&#xe6;" horiz-adv-x="555" d="M143 -9 C207 -9 247 45 265 106 C294 31 347 -8 407 -8 C449 -8 475 1 513 24 L507 84 C473 61 448 51 415 51 C353 51 301 110 298 236 L525 236 L525 276 C525 443 466 536 384 536 C342 536 304 508 279 453 C260 506 217 534 155 534 C115 534 83 526 52 511 L52 451 C83 467 112 475 147 475 C209 475 241 436 241 368 L241 311 C217 322 190 331 157 331 C74 331 24 266 24 162 L24 152 C24 58 72 -9 143 -9 L143 -9 Z M298 288 C301 416 338 479 384 479 C433 479 466 401 466 288 L298 288 Z M158 45 C111 45 85 90 85 156 L85 166 C85 233 114 278 168 278 C194 278 217 271 243 260 C242 238 244 193 251 160 C238 100 204 45 158 45 L158 45 Z " />
<glyph glyph-name="ccedilla" unicode="&#xe7;" horiz-adv-x="282" d="M154 -115 L191 -8 C219 -8 239 0 258 13 L258 76 C240 62 219 52 199 52 C144 52 93 109 93 253 L93 273 C93 414 146 475 195 475 C219 475 239 466 258 452 L258 518 C241 529 220 535 192 535 C107 535 30 450 30 271 L30 255 C30 106 81 23 147 0 L93 -90 L154 -115 Z " />
<glyph glyph-name="egrave" unicode="&#xe8;" horiz-adv-x="349" d="M200 -8 C242 -8 269 1 307 24 L301 84 C266 61 242 51 209 51 C146 51 95 110 91 236 L319 236 L319 276 C319 443 260 536 178 536 C98 536 29 446 29 267 L29 253 C29 80 109 -8 200 -8 L200 -8 Z M91 288 C94 416 131 479 178 479 C226 479 259 401 259 288 L91 288 Z M134 707 L74 675 L161 576 L203 576 L134 707 Z " />
<glyph glyph-name="eacute" unicode="&#xe9;" horiz-adv-x="349" d="M152 576 L195 576 L282 675 L222 707 L152 576 Z M200 -8 C242 -8 269 1 307 24 L301 84 C266 61 242 51 209 51 C146 51 95 110 91 236 L319 236 L319 276 C319 443 260 536 178 536 C98 536 29 446 29 267 L29 253 C29 80 109 -8 200 -8 L200 -8 Z M91 288 C94 416 131 479 178 479 C226 479 259 401 259 288 L91 288 Z " />
<glyph glyph-name="ecircumflex" unicode="&#xea;" horiz-adv-x="349" d="M84 578 L130 578 L177 650 L224 578 L272 578 L202 705 L154 705 L84 578 Z M200 -8 C242 -8 269 1 307 24 L301 84 C266 61 242 51 209 51 C146 51 95 110 91 236 L319 236 L319 276 C319 443 260 536 178 536 C98 536 29 446 29 267 L29 253 C29 80 109 -8 200 -8 L200 -8 Z M91 288 C94 416 131 479 178 479 C226 479 259 401 259 288 L91 288 Z " />
<glyph glyph-name="edieresis" unicode="&#xeb;" horiz-adv-x="349" d="M203 584 L265 584 L265 662 L203 662 L203 584 Z M91 584 L153 584 L153 662 L91 662 L91 584 Z M200 -8 C242 -8 269 1 307 24 L301 84 C266 61 242 51 209 51 C146 51 95 110 91 236 L319 236 L319 276 C319 443 260 536 178 536 C98 536 29 446 29 267 L29 253 C29 80 109 -8 200 -8 L200 -8 Z M91 288 C94 416 131 479 178 479 C226 479 259 401 259 288 L91 288 Z " />
<glyph glyph-name="igrave" unicode="&#xec;" horiz-adv-x="167" d="M52 0 L115 0 L115 528 L52 528 L52 0 Z M40 707 L-20 675 L67 576 L109 576 L40 707 Z " />
<glyph glyph-name="iacute" unicode="&#xed;" horiz-adv-x="167" d="M58 576 L101 576 L188 675 L128 707 L58 576 Z M52 0 L115 0 L115 528 L52 528 L52 0 Z " />
<glyph glyph-name="icircumflex" unicode="&#xee;" horiz-adv-x="167" d="M-10 579 L36 579 L83 651 L130 579 L178 579 L108 706 L60 706 L-10 579 Z M52 0 L115 0 L115 528 L52 528 L52 0 Z " />
<glyph glyph-name="idieresis" unicode="&#xef;" horiz-adv-x="167" d="M109 584 L171 584 L171 662 L109 662 L109 584 Z M-3 584 L59 584 L59 662 L-3 662 L-3 584 Z M52 0 L115 0 L115 528 L52 528 L52 0 Z " />
<glyph glyph-name="eth" unicode="&#xf0;" horiz-adv-x="365" d="M114 569 L185 607 C211 566 231 525 245 486 C220 517 197 534 169 534 C99 534 30 437 30 272 L30 256 C30 89 100 -9 181 -9 C263 -9 335 82 335 270 L335 289 C335 414 298 531 234 634 L295 667 L274 708 L208 672 C200 684 191 695 182 706 L109 706 C127 686 143 666 158 646 L92 610 L114 569 Z M272 256 C272 125 231 48 182 48 C132 48 92 127 92 256 L92 272 C92 401 133 480 180 480 C227 480 272 410 272 272 L272 256 Z " />
<glyph glyph-name="ntilde" unicode="&#xf1;" horiz-adv-x="374" d="M48 0 L110 0 L110 361 C110 434 147 482 194 482 C241 482 268 441 268 367 L268 0 L330 0 L330 378 C330 478 285 537 215 537 C160 537 129 498 110 454 L110 528 L48 528 L48 0 Z M122 579 C130 608 138 622 150 622 C159 622 168 617 187 601 C205 586 219 577 240 577 C269 577 287 603 299 660 L260 670 C252 641 244 627 232 627 C223 627 214 633 195 648 C177 663 163 672 142 672 C113 672 95 646 83 589 L122 579 Z " />
<glyph glyph-name="ograve" unicode="&#xf2;" horiz-adv-x="366" d="M183 -9 C267 -9 337 89 337 256 L337 271 C337 438 267 536 184 536 C100 536 30 438 30 271 L30 256 C30 89 100 -9 183 -9 L183 -9 Z M183 48 C132 48 92 127 92 256 L92 272 C92 401 132 479 183 479 C234 479 274 401 274 272 L274 256 C274 127 234 48 183 48 L183 48 Z M140 707 L80 675 L167 576 L209 576 L140 707 Z " />
<glyph glyph-name="oacute" unicode="&#xf3;" horiz-adv-x="366" d="M158 576 L201 576 L288 675 L228 707 L158 576 Z M183 -9 C267 -9 337 89 337 256 L337 271 C337 438 267 536 184 536 C100 536 30 438 30 271 L30 256 C30 89 100 -9 183 -9 L183 -9 Z M183 48 C132 48 92 127 92 256 L92 272 C92 401 132 479 183 479 C234 479 274 401 274 272 L274 256 C274 127 234 48 183 48 L183 48 Z " />
<glyph glyph-name="ocircumflex" unicode="&#xf4;" horiz-adv-x="366" d="M90 578 L136 578 L183 650 L230 578 L278 578 L208 705 L160 705 L90 578 Z M183 -9 C267 -9 337 89 337 256 L337 271 C337 438 267 536 184 536 C100 536 30 438 30 271 L30 256 C30 89 100 -9 183 -9 L183 -9 Z M183 48 C132 48 92 127 92 256 L92 272 C92 401 132 479 183 479 C234 479 274 401 274 272 L274 256 C274 127 234 48 183 48 L183 48 Z " />
<glyph glyph-name="otilde" unicode="&#xf5;" horiz-adv-x="366" d="M183 -9 C267 -9 337 89 337 256 L337 271 C337 438 267 536 184 536 C100 536 30 438 30 271 L30 256 C30 89 100 -9 183 -9 L183 -9 Z M183 48 C132 48 92 127 92 256 L92 272 C92 401 132 479 183 479 C234 479 274 401 274 272 L274 256 C274 127 234 48 183 48 L183 48 Z M117 579 C125 608 133 622 145 622 C154 622 163 617 182 601 C200 586 214 577 235 577 C264 577 282 603 294 660 L255 670 C247 641 239 627 227 627 C218 627 209 633 190 648 C172 663 158 672 137 672 C108 672 90 646 78 589 L117 579 Z " />
<glyph glyph-name="odieresis" unicode="&#xf6;" horiz-adv-x="366" d="M209 584 L271 584 L271 662 L209 662 L209 584 Z M97 584 L159 584 L159 662 L97 662 L97 584 Z M183 -9 C267 -9 337 89 337 256 L337 271 C337 438 267 536 184 536 C100 536 30 438 30 271 L30 256 C30 89 100 -9 183 -9 L183 -9 Z M183 48 C132 48 92 127 92 256 L92 272 C92 401 132 479 183 479 C234 479 274 401 274 272 L274 256 C274 127 234 48 183 48 L183 48 Z " />
<glyph glyph-name="divide" unicode="&#xf7;" horiz-adv-x="351" d="M28 321 L323 321 L323 383 L28 383 L28 321 Z M140 173 L211 173 L211 256 L140 256 L140 173 Z M140 448 L211 448 L211 531 L140 531 L140 448 Z " />
<glyph glyph-name="oslash" unicode="&#xf8;" horiz-adv-x="366" d="M29 -8 L77 -8 L97 32 C122 6 151 -9 183 -9 C267 -9 337 89 337 256 L337 271 C337 348 322 410 299 454 L336 531 L288 531 L270 494 C246 521 216 536 184 536 C100 536 30 438 30 271 L30 256 C30 179 44 117 68 72 L29 -8 Z M105 145 C95 174 89 212 89 256 L89 272 C89 401 131 480 183 480 C206 480 229 464 245 434 L105 145 Z M183 47 C160 47 138 62 122 91 L262 381 C272 352 277 314 277 272 L277 256 C277 127 235 47 183 47 L183 47 Z " />
<glyph glyph-name="ugrave" unicode="&#xf9;" horiz-adv-x="374" d="M159 -9 C214 -9 245 30 264 73 L264 0 L326 0 L326 528 L264 528 L264 166 C264 94 227 46 180 46 C133 46 106 87 106 161 L106 528 L44 528 L44 150 C44 50 89 -9 159 -9 L159 -9 Z M142 704 L82 672 L169 573 L211 573 L142 704 Z " />
<glyph glyph-name="uacute" unicode="&#xfa;" horiz-adv-x="374" d="M159 573 L202 573 L289 672 L229 704 L159 573 Z M159 -9 C214 -9 245 30 264 73 L264 0 L326 0 L326 528 L264 528 L264 166 C264 94 227 46 180 46 C133 46 106 87 106 161 L106 528 L44 528 L44 150 C44 50 89 -9 159 -9 L159 -9 Z " />
<glyph glyph-name="ucircumflex" unicode="&#xfb;" horiz-adv-x="374" d="M92 576 L138 576 L185 648 L232 576 L280 576 L210 703 L162 703 L92 576 Z M159 -9 C214 -9 245 30 264 73 L264 0 L326 0 L326 528 L264 528 L264 166 C264 94 227 46 180 46 C133 46 106 87 106 161 L106 528 L44 528 L44 150 C44 50 89 -9 159 -9 L159 -9 Z " />
<glyph glyph-name="udieresis" unicode="&#xfc;" horiz-adv-x="374" d="M211 581 L273 581 L273 659 L211 659 L211 581 Z M99 581 L161 581 L161 659 L99 659 L99 581 Z M159 -9 C214 -9 245 30 264 73 L264 0 L326 0 L326 528 L264 528 L264 166 C264 94 227 46 180 46 C133 46 106 87 106 161 L106 528 L44 528 L44 150 C44 50 89 -9 159 -9 L159 -9 Z " />
<glyph glyph-name="yacute" unicode="&#xfd;" horiz-adv-x="350" d="M111 -130 L172 -130 L328 528 L266 528 L175 116 L85 528 L22 528 L145 9 L111 -130 Z M149 573 L192 573 L279 672 L219 704 L149 573 Z " />
<glyph glyph-name="thorn" unicode="&#xfe;" horiz-adv-x="378" d="M48 -130 L110 -130 L110 91 C130 39 163 -9 216 -9 C286 -9 347 77 347 251 L347 277 C347 453 286 537 216 537 C163 537 130 489 110 436 L110 706 L48 706 L48 -130 Z M199 49 C152 49 108 121 108 250 L108 278 C108 407 152 479 199 479 C247 479 284 406 284 275 L284 253 C284 122 247 49 199 49 L199 49 Z " />
<glyph glyph-name="ydieresis" unicode="&#xff;" horiz-adv-x="350" d="M111 -130 L172 -130 L328 528 L266 528 L175 116 L85 528 L22 528 L145 9 L111 -130 Z M200 581 L262 581 L262 659 L200 659 L200 581 Z M88 581 L150 581 L150 659 L88 659 L88 581 Z " />
<glyph glyph-name="dotlessi" unicode="&#x131;" horiz-adv-x="167" d="M52 0 L115 0 L115 528 L52 528 L52 0 Z " />
<glyph glyph-name="Lslash" unicode="&#x141;" horiz-adv-x="300" d="M57 0 L285 0 L285 61 L122 61 L122 325 L205 379 L205 447 L122 392 L122 700 L57 700 L57 350 L7 318 L7 250 L57 283 L57 0 Z " />
<glyph glyph-name="lslash" unicode="&#x142;" horiz-adv-x="184" d="M60 0 L123 0 L123 349 L179 385 L179 451 L123 413 L123 706 L60 706 L60 373 L5 338 L5 271 L60 307 L60 0 Z " />
<glyph glyph-name="OE" unicode="&#x152;" horiz-adv-x="558" d="M263 0 L532 0 L532 61 L347 61 L347 322 L512 322 L512 383 L347 383 L347 639 L529 639 L529 700 L263 700 C126 700 33 584 33 360 L33 340 C33 116 126 0 263 0 L263 0 Z M260 59 C169 59 99 148 99 340 L99 360 C99 552 167 641 259 641 L282 641 L282 59 L260 59 Z " />
<glyph glyph-name="oe" unicode="&#x153;" horiz-adv-x="594" d="M183 -9 C237 -9 282 33 306 108 C331 34 384 -8 446 -8 C488 -8 514 1 552 24 L546 84 C512 61 487 51 454 51 C392 51 340 110 337 236 L564 236 L564 276 C564 443 505 536 423 536 C375 536 329 499 305 424 C280 496 236 536 184 536 C100 536 30 438 30 271 L30 256 C30 89 100 -9 183 -9 L183 -9 Z M336 288 C340 416 376 479 423 479 C472 479 504 401 504 288 L336 288 Z M183 48 C132 48 92 127 92 256 L92 272 C92 401 132 479 183 479 C234 479 274 401 274 272 L274 256 C274 127 234 48 183 48 L183 48 Z " />
<glyph glyph-name="Scaron" unicode="&#x160;" horiz-adv-x="331" d="M272 848 L221 848 L173 793 L125 848 L72 848 L144 745 L200 745 L272 848 Z M152 -9 C237 -9 303 53 303 147 L303 149 C303 226 275 279 187 387 C115 477 96 510 96 557 L96 559 C96 611 132 646 181 646 C214 646 246 634 284 609 L284 680 C251 699 220 709 177 709 C96 709 31 646 31 555 L31 553 C31 483 57 442 148 325 C220 231 238 197 238 146 L238 144 C238 87 202 54 149 54 C116 54 77 68 30 97 L30 26 C71 4 109 -9 152 -9 L152 -9 Z " />
<glyph glyph-name="scaron" unicode="&#x161;" horiz-adv-x="280" d="M236 706 L190 706 L143 634 L96 706 L48 706 L118 579 L166 579 L236 706 Z M129 -7 C199 -7 260 42 260 121 L260 123 C260 180 233 223 162 294 C101 354 84 379 84 412 L84 414 C84 453 112 477 150 477 C180 477 208 470 237 455 L237 518 C209 530 184 535 150 535 C80 535 22 489 22 411 L22 409 C22 352 50 309 121 241 C180 185 198 153 198 120 L198 118 C198 76 167 50 128 50 C96 50 60 62 23 81 L23 18 C57 2 90 -7 129 -7 L129 -7 Z " />
<glyph glyph-name="Ydieresis" unicode="&#x178;" horiz-adv-x="360" d="M206 744 L272 744 L272 819 L206 819 L206 744 Z M90 744 L156 744 L156 819 L90 819 L90 744 Z M148 0 L213 0 L213 295 L354 700 L288 700 L181 379 L75 700 L6 700 L148 295 L148 0 Z " />
<glyph glyph-name="Zcaron" unicode="&#x17d;" horiz-adv-x="337" d="M273 845 L222 845 L174 790 L126 845 L73 845 L145 742 L201 742 L273 845 Z M28 0 L311 0 L311 59 L98 59 L311 656 L311 700 L38 700 L38 642 L241 642 L28 45 L28 0 Z " />
<glyph glyph-name="zcaron" unicode="&#x17e;" horiz-adv-x="290" d="M243 706 L197 706 L150 634 L103 706 L55 706 L125 579 L173 579 L243 706 Z M22 0 L264 0 L264 54 L90 54 L267 487 L267 528 L31 528 L31 474 L200 474 L22 41 L22 0 Z " />
<glyph glyph-name="florin" unicode="&#x192;" horiz-adv-x="326" d="M54 -5 C116 -5 152 31 160 117 L185 382 L283 382 L283 434 L189 434 L203 570 C207 620 230 644 262 644 C282 644 299 640 313 634 L313 695 C298 700 278 705 253 705 C188 705 147 661 140 582 L126 434 L68 434 L68 382 L122 382 L98 123 C93 75 75 54 46 54 C32 54 18 58 10 60 L10 2 C21 -1 35 -5 54 -5 L54 -5 Z " />
<glyph glyph-name="circumflex" unicode="&#x2c6;" horiz-adv-x="500" d="M156 579 L202 579 L249 651 L296 579 L344 579 L274 706 L226 706 L156 579 Z " />
<glyph glyph-name="caron" unicode="&#x2c7;" horiz-adv-x="500" d="M344 706 L298 706 L251 634 L204 706 L156 706 L226 579 L274 579 L344 706 Z " />
<glyph glyph-name="breve" unicode="&#x2d8;" horiz-adv-x="500" d="M250 576 C303 576 344 607 350 677 L305 677 C298 642 281 624 250 624 C219 624 202 642 195 677 L150 677 C156 607 197 576 250 576 L250 576 Z " />
<glyph glyph-name="dotaccent" unicode="&#x2d9;" horiz-adv-x="500" d="M217 584 L283 584 L283 662 L217 662 L217 584 Z " />
<glyph glyph-name="ring" unicode="&#x2da;" horiz-adv-x="500" d="M169 657 C169 610 203 575 249 575 C295 575 331 611 331 657 C331 703 297 739 251 739 C205 739 169 703 169 657 L169 657 Z M203 657 C203 686 223 708 250 708 C277 708 297 686 297 657 C297 628 277 606 250 606 C223 606 203 628 203 657 L203 657 Z " />
<glyph glyph-name="ogonek" unicode="&#x2db;" horiz-adv-x="500" d="M296 -127 L296 -85 C268 -85 254 -78 254 -58 C254 -42 263 -24 285 6 L243 6 C215 -23 199 -47 199 -75 C199 -107 221 -128 270 -128 C277 -128 284 -128 296 -127 L296 -127 Z " />
<glyph glyph-name="tilde" unicode="&#x2dc;" horiz-adv-x="500" d="M181 579 C189 608 197 622 209 622 C218 622 227 617 246 601 C264 586 278 577 299 577 C328 577 346 603 358 660 L319 670 C311 641 303 627 291 627 C282 627 273 633 254 648 C236 663 222 672 201 672 C172 672 154 646 142 589 L181 579 Z " />
<glyph glyph-name="hungarumlaut" unicode="&#x2dd;" horiz-adv-x="500" d="M135 576 L176 576 L259 677 L205 707 L135 576 Z M233 576 L275 576 L358 677 L303 707 L233 576 Z " />
<glyph glyph-name="pi" unicode="&#x3c0;" horiz-adv-x="523" d="M261 -10 C405 -10 499 139 499 333 L499 368 C499 563 405 711 261 711 C117 711 24 563 24 368 L24 333 C24 139 117 -10 261 -10 L261 -10 Z M261 18 C130 18 53 157 53 333 L53 368 C53 544 130 683 261 683 C392 683 469 544 469 368 L469 333 C469 157 392 18 261 18 L261 18 Z M192 164 L234 164 L234 296 L248 296 C319 298 362 343 362 423 L362 425 C362 506 316 550 246 550 L192 550 L192 164 Z M234 337 L234 509 L255 509 C294 509 320 477 320 423 L320 422 C320 369 295 338 255 337 L234 337 Z " />
<glyph glyph-name="endash" unicode="&#x2013;" horiz-adv-x="414" d="M40 269 L374 269 L374 330 L40 330 L40 269 Z " />
<glyph glyph-name="emdash" unicode="&#x2014;" horiz-adv-x="604" d="M40 269 L564 269 L564 330 L40 330 L40 269 Z " />
<glyph glyph-name="quoteleft" unicode="&#x2018;" horiz-adv-x="170" d="M41 483 L124 483 L124 583 L88 583 C84 622 99 653 147 670 L136 702 C69 679 41 642 41 568 L41 483 Z " />
<glyph glyph-name="quoteright" unicode="&#x2019;" horiz-adv-x="170" d="M34 484 C101 506 129 544 129 617 L129 700 L46 700 L46 603 L83 603 C86 563 71 532 23 515 L34 484 Z " />
<glyph glyph-name="quotesinglbase" unicode="&#x201a;" horiz-adv-x="177" d="M34 -119 C104 -96 131 -59 131 15 L131 97 L49 97 L49 0 L85 0 C89 -40 73 -70 22 -87 L34 -119 Z " />
<glyph glyph-name="quotedblleft" unicode="&#x201c;" horiz-adv-x="316" d="M188 483 L270 483 L270 583 L234 583 C230 622 245 653 294 670 L282 702 C215 679 188 642 188 568 L188 483 Z M41 483 L124 483 L124 583 L88 583 C84 622 99 653 147 670 L136 702 C69 679 41 642 41 568 L41 483 Z " />
<glyph glyph-name="quotedblright" unicode="&#x201d;" horiz-adv-x="316" d="M180 484 C247 506 275 544 275 617 L275 700 L192 700 L192 603 L229 603 C232 563 217 532 169 515 L180 484 Z M34 484 C101 506 129 544 129 617 L129 700 L46 700 L46 603 L83 603 C86 563 71 532 23 515 L34 484 Z " />
<glyph glyph-name="quotedblbase" unicode="&#x201e;" horiz-adv-x="326" d="M183 -119 C253 -96 280 -59 280 15 L280 97 L198 97 L198 0 L234 0 C238 -40 222 -70 171 -87 L183 -119 Z M34 -119 C104 -96 131 -59 131 15 L131 97 L49 97 L49 0 L85 0 C89 -40 73 -70 22 -87 L34 -119 Z " />
<glyph glyph-name="dagger" unicode="&#x2020;" horiz-adv-x="233" d="M91 238 L143 238 L134 523 L215 513 L215 566 L134 556 L146 700 L88 700 L100 556 L18 566 L18 513 L100 523 L91 238 Z " />
<glyph glyph-name="daggerdbl" unicode="&#x2021;" horiz-adv-x="255" d="M98 0 L156 0 L145 144 L226 134 L226 187 L145 177 L156 350 L145 523 L226 513 L226 566 L145 556 L157 700 L99 700 L111 556 L29 566 L29 513 L111 523 L100 350 L111 177 L29 187 L29 134 L111 144 L98 0 Z " />
<glyph glyph-name="bullet" unicode="&#x2022;" horiz-adv-x="322" d="M161 233 C213 233 250 271 250 347 L250 361 C250 437 213 475 161 475 C110 475 72 437 72 361 L72 347 C72 271 110 233 161 233 L161 233 Z " />
<glyph glyph-name="ellipsis" unicode="&#x2026;" horiz-adv-x="541" d="M412 0 L496 0 L496 100 L412 100 L412 0 Z M229 0 L313 0 L313 100 L229 100 L229 0 Z M45 0 L129 0 L129 100 L45 100 L45 0 Z " />
<glyph glyph-name="perthousand" unicode="&#x2030;" horiz-adv-x="523" d="M261 -10 C405 -10 499 139 499 333 L499 368 C499 563 405 711 261 711 C117 711 24 563 24 368 L24 333 C24 139 117 -10 261 -10 L261 -10 Z M261 18 C130 18 53 157 53 333 L53 368 C53 544 130 683 261 683 C392 683 469 544 469 368 L469 333 C469 157 392 18 261 18 L261 18 Z M183 164 L226 164 L226 309 L248 309 C253 309 255 309 262 310 L320 164 L367 164 L302 324 C336 341 358 377 358 428 L358 432 C358 506 314 549 245 549 L183 549 L183 164 Z M226 350 L226 507 L244 507 C285 507 315 484 315 430 L315 428 C315 374 287 350 246 350 L226 350 Z " />
<glyph glyph-name="guilsinglleft" unicode="&#x2039;" horiz-adv-x="232" d="M150 41 L202 70 L91 260 L201 448 L150 476 L30 263 L30 255 L150 41 Z " />
<glyph glyph-name="guilsinglright" unicode="&#x203a;" horiz-adv-x="232" d="M81 41 L202 255 L202 263 L81 476 L31 448 L141 260 L30 70 L81 41 Z " />
<glyph glyph-name="fraction" unicode="&#x2044;" horiz-adv-x="360" d="M-1 -32 L57 -32 L351 723 L293 723 L-1 -32 Z " />
<glyph glyph-name="Euro" unicode="&#x20ac;" horiz-adv-x="364" d="M252 -6 C286 -6 310 1 333 15 L333 81 C310 66 286 57 263 57 C203 57 154 118 138 246 L282 246 L282 296 L135 296 C134 310 133 324 133 340 L133 360 C133 378 134 394 135 409 L282 409 L282 459 L139 459 C155 583 204 643 263 643 C286 643 305 635 331 620 L331 689 C308 700 291 706 259 706 C172 706 94 626 73 459 L12 459 L12 409 L69 409 C68 394 68 377 68 360 L68 340 C68 324 68 310 69 296 L12 296 L12 246 L73 246 C92 76 166 -6 252 -6 L252 -6 Z " />
<glyph glyph-name="trademark" unicode="&#x2122;" horiz-adv-x="400" d="M180 385 L219 385 L219 624 L270 465 L273 465 L325 624 L325 385 L363 385 L363 700 L317 700 L272 559 L227 700 L180 700 L180 385 Z M54 385 L94 385 L94 662 L142 662 L142 700 L7 700 L7 662 L54 662 L54 385 Z " />
<glyph glyph-name="Omega" unicode="&#x2126;" horiz-adv-x="440" d="M286 0 L349 0 L349 474 L428 474 L428 528 L349 528 L349 577 C349 628 369 651 406 651 C412 651 424 650 432 648 L432 704 C423 707 408 708 397 708 C326 708 286 666 286 583 L286 528 L238 528 L238 474 L286 474 L286 0 Z M66 0 L129 0 L129 474 L208 474 L208 528 L129 528 L129 577 C129 628 149 651 186 651 C192 651 205 650 212 648 L212 704 C203 707 189 708 177 708 C106 708 66 666 66 583 L66 528 L18 528 L18 474 L66 474 L66 0 Z " />
<glyph glyph-name="Ohm" unicode="&#x2126;" horiz-adv-x="440" d="M286 0 L349 0 L349 474 L428 474 L428 528 L349 528 L349 577 C349 628 369 651 406 651 C412 651 424 650 432 648 L432 704 C423 707 408 708 397 708 C326 708 286 666 286 583 L286 528 L238 528 L238 474 L286 474 L286 0 Z M66 0 L129 0 L129 474 L208 474 L208 528 L129 528 L129 577 C129 628 149 651 186 651 C192 651 205 650 212 648 L212 704 C203 707 189 708 177 708 C106 708 66 666 66 583 L66 528 L18 528 L18 474 L66 474 L66 0 Z " />
<glyph glyph-name="partialdiff" unicode="&#x2202;" horiz-adv-x="500" d="M25 -200 L475 -200 L475 800 L25 800 L25 -200 Z " />
<glyph glyph-name="Delta" unicode="&#x2206;" horiz-adv-x="500" d="M25 -200 L475 -200 L475 800 L25 800 L25 -200 Z " />
<glyph glyph-name="product" unicode="&#x220f;" horiz-adv-x="500" d="M25 -200 L475 -200 L475 800 L25 800 L25 -200 Z " />
<glyph glyph-name="summation" unicode="&#x2211;" horiz-adv-x="500" d="M25 -200 L475 -200 L475 800 L25 800 L25 -200 Z " />
<glyph glyph-name="minus" unicode="&#x2212;" horiz-adv-x="500" d="M25 -200 L475 -200 L475 800 L25 800 L25 -200 Z " />
<glyph glyph-name="radical" unicode="&#x221a;" horiz-adv-x="607" d="M286 0 L349 0 L349 474 L428 474 L428 528 L349 528 L349 577 C349 628 369 651 406 651 C412 651 424 650 432 648 L432 704 C423 707 408 708 397 708 C326 708 286 666 286 583 L286 528 L238 528 L238 474 L286 474 L286 0 Z M66 0 L129 0 L129 474 L208 474 L208 528 L129 528 L129 577 C129 628 149 651 186 651 C192 651 205 650 212 648 L212 704 C203 707 189 708 177 708 C106 708 66 666 66 583 L66 528 L18 528 L18 474 L66 474 L66 0 Z M492 0 L554 0 L554 706 L492 706 L492 0 Z " />
<glyph glyph-name="infinity" unicode="&#x221e;" horiz-adv-x="500" d="M25 -200 L475 -200 L475 800 L25 800 L25 -200 Z " />
<glyph glyph-name="integral" unicode="&#x222b;" horiz-adv-x="500" d="M25 -200 L475 -200 L475 800 L25 800 L25 -200 Z " />
<glyph glyph-name="approxequal" unicode="&#x2248;" horiz-adv-x="607" d="M490 624 L556 624 L556 706 L490 706 L490 624 Z M286 0 L349 0 L349 474 L428 474 L428 528 L349 528 L349 577 C349 628 369 651 406 651 C412 651 424 650 432 648 L432 704 C423 707 408 708 397 708 C326 708 286 666 286 583 L286 528 L238 528 L238 474 L286 474 L286 0 Z M66 0 L129 0 L129 474 L208 474 L208 528 L129 528 L129 577 C129 628 149 651 186 651 C192 651 205 650 212 648 L212 704 C203 707 189 708 177 708 C106 708 66 666 66 583 L66 528 L18 528 L18 474 L66 474 L66 0 Z M492 0 L554 0 L554 528 L492 528 L492 0 Z " />
<glyph glyph-name="notequal" unicode="&#x2260;" horiz-adv-x="500" d="M25 -200 L475 -200 L475 800 L25 800 L25 -200 Z " />
<glyph glyph-name="lessequal" unicode="&#x2264;" horiz-adv-x="500" d="M25 -200 L475 -200 L475 800 L25 800 L25 -200 Z " />
<glyph glyph-name="greaterequal" unicode="&#x2265;" horiz-adv-x="500" d="M25 -200 L475 -200 L475 800 L25 800 L25 -200 Z " />
<glyph glyph-name="lozenge" unicode="&#x25ca;" horiz-adv-x="422" d="M89 382 C130 382 163 412 163 457 C163 493 148 518 107 564 C78 597 69 610 69 629 C69 650 84 665 103 665 C118 665 135 658 152 647 L152 691 C138 698 121 703 100 703 C61 703 28 672 28 627 C28 591 44 570 84 524 C114 491 122 475 122 455 C122 432 106 419 86 419 C69 419 50 427 29 440 L29 397 C47 387 68 382 89 382 L89 382 Z M202 385 L241 385 L241 624 L292 465 L295 465 L347 624 L347 385 L385 385 L385 700 L339 700 L294 559 L249 700 L202 700 L202 385 Z " />
<glyph glyph-name="fi" unicode="&#xfb01;" horiz-adv-x="388" d="M271 624 L337 624 L337 706 L271 706 L271 624 Z M66 0 L129 0 L129 474 L208 474 L208 528 L129 528 L129 577 C129 628 149 651 186 651 C192 651 205 650 212 648 L212 704 C203 707 189 708 177 708 C106 708 66 666 66 583 L66 528 L18 528 L18 474 L66 474 L66 0 Z M273 0 L336 0 L336 528 L273 528 L273 0 Z " />
<glyph glyph-name="fl" unicode="&#xfb02;" horiz-adv-x="388" d="M66 0 L129 0 L129 474 L208 474 L208 528 L129 528 L129 577 C129 628 149 651 186 651 C192 651 205 650 212 648 L212 704 C203 707 189 708 177 708 C106 708 66 666 66 583 L66 528 L18 528 L18 474 L66 474 L66 0 Z M273 0 L336 0 L336 706 L273 706 L273 0 Z " />
</font>
</svg>
