<?xml version="1.0" encoding="UTF-8"?>
<svg xmlns="http://www.w3.org/2000/svg" xmlns:xlink="http://www.w3.org/1999/xlink" version="1.2" >
<font id="Gotham Condensed Light">
<font-face  font-family="Gotham Condensed Light" units-per-em="1000" ascent="799.805" descent="-200.195" font-style="normal" font-weight="300" font-stretch="condensed" cap-height="750" x-height="500" underline-position="-75" underline-thickness="50" />
<missing-glyph  horiz-adv-x="500" d="M0 -200 L500 -200 L500 800 L0 800 L0 -200 Z M71 750 L429 750 L250 360 L71 750 Z M50 -76 L50 676 L222 300 L50 -76 Z M450 676 L450 -76 L278 300 L450 676 Z M250 240 L429 -150 L71 -150 L250 240 Z " />
<glyph glyph-name="NULL" d="" />
<glyph glyph-name="CR" unicode="&#xd;" horiz-adv-x="250" d="" />
<glyph glyph-name="space" unicode="&#x20;" horiz-adv-x="165" d="" />
<glyph glyph-name="exclam" unicode="&#x21;" horiz-adv-x="192" d="M85 183 L107 183 L122 630 L122 700 L70 700 L70 630 L85 183 Z M66 0 L126 0 L126 82 L66 82 L66 0 Z " />
<glyph glyph-name="quotedbl" unicode="&#x22;" horiz-adv-x="231" d="M149 458 L168 458 L199 691 L199 700 L149 700 L149 458 Z M44 458 L63 458 L94 691 L94 700 L44 700 L44 458 Z " />
<glyph glyph-name="numbersign" unicode="&#x23;" horiz-adv-x="388" d="M347 186 L347 226 L275 226 L294 474 L366 474 L366 514 L297 514 L311 700 L276 700 L262 514 L151 514 L165 700 L130 700 L116 514 L41 514 L41 474 L113 474 L94 226 L22 226 L22 186 L91 186 L77 0 L112 0 L126 186 L237 186 L223 0 L258 0 L272 186 L347 186 Z M148 474 L259 474 L240 226 L129 226 L148 474 Z " />
<glyph glyph-name="dollar" unicode="&#x24;" horiz-adv-x="340" d="M151 -99 L185 -99 L185 -3 C263 11 310 82 310 170 L310 173 C310 256 273 320 185 380 L185 666 C218 664 250 650 289 625 L289 671 C258 690 221 704 185 705 L185 768 L151 768 L151 702 C78 689 27 627 27 547 L27 545 C27 447 75 397 151 348 L151 33 C110 34 76 44 30 74 L30 28 C71 5 105 -5 151 -6 L151 -99 Z M268 173 L268 171 C268 107 242 50 185 36 L185 329 C239 289 268 241 268 173 L268 173 Z M69 545 L69 547 C69 606 101 650 151 662 L151 398 C103 432 69 470 69 545 L69 545 Z " />
<glyph glyph-name="percent" unicode="&#x25;" horiz-adv-x="500" d="M130 373 C185 373 233 431 233 535 L233 543 C233 647 185 705 130 705 C75 705 27 647 27 543 L27 535 C27 431 75 373 130 373 L130 373 Z M130 411 C92 411 64 458 64 535 L64 543 C64 620 92 667 130 667 C168 667 196 620 196 543 L196 535 C196 458 168 411 130 411 L130 411 Z M112 0 L75 0 L235 357 L388 700 L425 700 L265 343 L112 0 Z M370 -5 C425 -5 473 53 473 157 L473 165 C473 269 425 327 370 327 C315 327 267 269 267 165 L267 157 C267 53 315 -5 370 -5 L370 -5 Z M370 33 C332 33 304 80 304 157 L304 165 C304 242 332 289 370 289 C408 289 436 242 436 165 L436 157 C436 80 408 33 370 33 L370 33 Z " />
<glyph glyph-name="ampersand" unicode="&#x26;" horiz-adv-x="410" d="M165 -7 C232 -7 274 37 307 95 L362 -7 L397 14 L328 135 C349 193 363 254 373 329 L335 335 C327 274 318 225 303 176 L190 385 C259 449 301 504 301 577 L301 583 C301 643 262 708 188 708 C117 708 70 643 70 577 L70 572 C70 523 91 476 139 394 C63 326 27 246 27 169 L27 162 C27 74 79 -7 165 -7 L165 -7 Z M167 33 C110 33 71 92 71 166 L71 172 C71 238 95 308 157 363 L285 131 C255 73 220 33 167 33 L167 33 Z M112 576 L112 578 C112 627 141 670 188 670 C233 670 259 627 259 580 L259 577 C259 521 232 469 171 416 C125 494 112 532 112 576 L112 576 Z " />
<glyph glyph-name="quotesingle" unicode="&#x27;" horiz-adv-x="116" d="M44 458 L63 458 L94 691 L94 700 L44 700 L44 458 Z " />
<glyph glyph-name="parenleft" unicode="&#x28;" horiz-adv-x="235" d="M220 -137 L220 -102 C139 -25 78 94 78 290 C78 486 139 605 220 682 L220 717 C114 642 36 500 36 290 C36 80 114 -62 220 -137 L220 -137 Z " />
<glyph glyph-name="parenright" unicode="&#x29;" horiz-adv-x="235" d="M15 -137 C121 -62 199 80 199 290 C199 500 121 642 15 717 L15 682 C96 605 157 486 157 290 C157 94 96 -25 15 -102 L15 -137 Z " />
<glyph glyph-name="asterisk" unicode="&#x2a;" horiz-adv-x="278" d="M121 432 L157 432 L149 548 L232 486 L251 517 L157 567 L251 617 L232 648 L149 586 L157 702 L121 702 L129 586 L46 648 L27 617 L121 567 L27 517 L46 486 L129 548 L121 432 Z " />
<glyph glyph-name="plus" unicode="&#x2b;" horiz-adv-x="340" d="M150 207 L190 207 L190 332 L311 332 L311 372 L190 372 L190 497 L150 497 L150 372 L29 372 L29 332 L150 332 L150 207 Z " />
<glyph glyph-name="comma" unicode="&#x2c;" horiz-adv-x="150" d="M32 -103 C87 -77 106 -51 106 11 L106 82 L44 82 L44 0 L71 0 C74 -38 59 -61 20 -78 L32 -103 Z " />
<glyph glyph-name="hyphen" unicode="&#x2d;" horiz-adv-x="268" d="M40 276 L228 276 L228 316 L40 316 L40 276 Z " />
<glyph glyph-name="period" unicode="&#x2e;" horiz-adv-x="150" d="M44 0 L106 0 L106 82 L44 82 L44 0 Z " />
<glyph glyph-name="slash" unicode="&#x2f;" horiz-adv-x="260" d="M-4 -98 L34 -98 L252 768 L214 768 L-4 -98 Z " />
<glyph glyph-name="zero" unicode="0" horiz-adv-x="372" d="M186 -8 C273 -8 333 95 333 343 L333 359 C333 607 273 708 186 708 C99 708 39 605 39 357 L39 341 C39 93 99 -8 186 -8 L186 -8 Z M186 32 C124 32 83 134 83 343 L83 359 C83 568 124 668 186 668 C248 668 289 566 289 357 L289 341 C289 132 248 32 186 32 L186 32 Z " />
<glyph glyph-name="one" unicode="1" horiz-adv-x="205" d="M96 0 L139 0 L139 700 L100 700 L23 653 L23 603 L96 646 L96 0 Z " />
<glyph glyph-name="two" unicode="2" horiz-adv-x="329" d="M25 0 L294 0 L294 43 L79 43 L229 351 C267 428 288 481 288 548 L288 552 C288 642 233 704 147 704 C104 704 70 691 43 675 L43 628 C73 647 104 660 145 660 C204 660 243 616 243 547 C243 487 225 438 194 374 L25 29 L25 0 Z " />
<glyph glyph-name="three" unicode="3" horiz-adv-x="310" d="M112 -4 C203 -4 282 77 282 206 L282 213 C282 327 211 377 134 392 L278 671 L278 700 L24 700 L24 655 L225 655 L87 389 L87 358 C182 349 236 305 236 211 L236 205 C236 100 177 37 114 37 C75 37 51 44 24 56 L24 13 C48 3 70 -4 112 -4 L112 -4 Z " />
<glyph glyph-name="four" unicode="4" horiz-adv-x="343" d="M228 0 L269 0 L269 161 L324 161 L324 199 L269 199 L269 705 L232 705 L19 195 L19 161 L228 161 L228 0 Z M60 199 L228 604 L228 199 L60 199 Z " />
<glyph glyph-name="five" unicode="5" horiz-adv-x="328" d="M122 -5 C219 -5 292 88 292 221 L292 225 C292 362 222 421 142 421 C116 421 99 416 81 409 L92 657 L266 657 L266 700 L54 700 L40 385 L70 365 C90 373 108 379 138 379 C195 379 248 338 248 224 L248 220 C248 111 193 36 123 36 C84 36 59 46 39 56 L39 13 C57 4 81 -5 122 -5 L122 -5 Z " />
<glyph glyph-name="six" unicode="6" horiz-adv-x="354" d="M181 -9 C260 -9 323 82 323 219 L323 223 C323 371 258 433 188 433 C147 433 113 412 84 383 C89 561 135 662 210 662 C241 662 260 655 280 645 L280 691 C262 699 244 705 213 705 C113 705 41 597 41 321 L41 291 C41 54 109 -9 181 -9 L181 -9 Z M182 30 C134 30 84 84 84 284 L84 339 C117 371 148 393 184 393 C235 393 281 339 281 222 L281 218 C281 115 244 30 182 30 L182 30 Z " />
<glyph glyph-name="seven" unicode="7" horiz-adv-x="308" d="M68 0 L111 0 L273 662 L273 700 L32 700 L32 657 L230 657 L68 0 Z " />
<glyph glyph-name="eight" unicode="8" horiz-adv-x="328" d="M164 -8 C246 -8 302 68 302 178 L302 185 C302 266 267 334 211 361 C259 389 290 447 290 527 L290 533 C290 645 232 708 164 708 C96 708 38 645 38 533 L38 527 C38 447 69 389 117 361 C61 334 26 266 26 185 L26 178 C26 68 82 -8 164 -8 L164 -8 Z M164 380 C114 380 81 452 81 528 L81 532 C81 614 114 669 164 669 C214 669 247 614 247 532 L247 528 C247 452 214 380 164 380 L164 380 Z M164 31 C106 31 68 95 68 180 L68 183 C68 274 110 341 164 341 C218 341 260 274 260 183 L260 180 C260 95 222 31 164 31 L164 31 Z " />
<glyph glyph-name="nine" unicode="9" horiz-adv-x="354" d="M141 -5 C241 -5 313 103 313 379 L313 409 C313 646 245 709 173 709 C94 709 31 618 31 477 L31 473 C31 321 96 259 166 259 C207 259 241 280 269 309 C264 136 218 38 144 38 C112 38 85 47 64 58 L64 12 C84 3 109 -5 141 -5 L141 -5 Z M170 299 C119 299 73 351 73 474 L73 478 C73 584 110 670 172 670 C220 670 270 616 270 416 L270 353 C237 321 206 299 170 299 L170 299 Z " />
<glyph glyph-name="colon" unicode="&#x3a;" horiz-adv-x="160" d="M49 443 L111 443 L111 525 L49 525 L49 443 Z M49 0 L111 0 L111 82 L49 82 L49 0 Z " />
<glyph glyph-name="semicolon" unicode="&#x3b;" horiz-adv-x="160" d="M49 443 L111 443 L111 525 L49 525 L49 443 Z M37 -103 C92 -77 111 -51 111 11 L111 82 L49 82 L49 0 L76 0 C79 -38 64 -61 25 -78 L37 -103 Z " />
<glyph glyph-name="less" unicode="&#x3c;" horiz-adv-x="340" d="M288 181 L288 231 L84 352 L288 473 L288 523 L40 372 L40 332 L288 181 Z " />
<glyph glyph-name="equal" unicode="&#x3d;" horiz-adv-x="340" d="M34 401 L306 401 L306 442 L34 442 L34 401 Z M34 262 L306 262 L306 303 L34 303 L34 262 Z " />
<glyph glyph-name="greater" unicode="&#x3e;" horiz-adv-x="340" d="M52 181 L300 332 L300 372 L52 523 L52 473 L256 352 L52 231 L52 181 Z " />
<glyph glyph-name="question" unicode="&#x3f;" horiz-adv-x="303" d="M108 183 L135 183 L144 336 C217 371 276 429 276 533 L276 539 C276 634 209 704 122 704 C82 704 51 693 24 678 L24 635 C58 654 86 663 119 663 C180 663 232 615 232 535 L232 531 C232 438 180 392 105 363 L100 356 L108 183 Z M95 0 L155 0 L155 82 L95 82 L95 0 Z " />
<glyph glyph-name="at" unicode="&#x40;" horiz-adv-x="634" d="M299 -133 C370 -133 411 -116 464 -84 L450 -62 C403 -91 364 -107 299 -107 C162 -107 61 1 61 217 C61 437 162 682 355 682 C499 682 571 549 571 390 C571 266 523 104 450 104 C423 104 413 130 413 159 C413 180 415 205 419 226 L469 483 L430 491 L414 409 C406 466 383 508 333 508 C248 508 170 359 170 195 C170 120 207 70 254 70 C308 70 347 121 375 181 C367 119 393 73 447 73 C538 73 599 230 599 392 C599 568 513 708 355 708 C154 708 35 472 35 213 C35 -18 150 -133 299 -133 L299 -133 Z M264 109 C232 109 211 140 211 197 C211 239 216 279 225 316 C246 404 289 469 336 469 C372 469 399 424 399 360 C399 334 396 308 390 283 C368 190 310 109 264 109 L264 109 Z " />
<glyph glyph-name="A" unicode="A" horiz-adv-x="410" d="M28 0 L72 0 L113 196 L295 196 L336 0 L382 0 L229 703 L181 703 L28 0 Z M121 236 L204 634 L287 236 L121 236 Z " />
<glyph glyph-name="B" unicode="B" horiz-adv-x="373" d="M56 0 L127 0 C257 0 342 67 342 181 L342 183 C342 279 288 335 205 354 C274 373 333 420 333 523 L333 525 C333 630 257 700 146 700 L56 700 L56 0 Z M100 373 L100 660 L144 660 C231 660 289 608 289 523 L289 521 C289 429 234 373 131 373 L100 373 Z M100 40 L100 333 L135 333 C239 333 298 280 298 184 L298 182 C298 89 233 40 128 40 L100 40 Z " />
<glyph glyph-name="C" unicode="C" horiz-adv-x="329" d="M222 -4 C252 -4 275 4 295 16 L295 61 C270 45 249 38 224 38 C146 38 81 143 81 341 L81 359 C81 557 146 662 224 662 C247 662 266 655 292 640 L292 687 C271 698 255 704 224 704 C124 704 37 590 37 359 L37 341 C37 110 119 -4 222 -4 L222 -4 Z " />
<glyph glyph-name="D" unicode="D" horiz-adv-x="400" d="M56 0 L139 0 C269 0 363 117 363 341 L363 359 C363 583 269 700 139 700 L56 700 L56 0 Z M100 40 L100 660 L138 660 C242 660 319 557 319 359 L319 341 C319 143 245 40 140 40 L100 40 Z " />
<glyph glyph-name="E" unicode="E" horiz-adv-x="325" d="M56 0 L297 0 L297 40 L100 40 L100 333 L277 333 L277 373 L100 373 L100 660 L294 660 L294 700 L56 700 L56 0 Z " />
<glyph glyph-name="F" unicode="F" horiz-adv-x="306" d="M56 0 L100 0 L100 323 L268 323 L268 363 L100 363 L100 660 L285 660 L285 700 L56 700 L56 0 Z " />
<glyph glyph-name="G" unicode="G" horiz-adv-x="393" d="M247 -7 C282 -7 304 -2 340 17 L340 358 L194 358 L194 318 L298 318 L298 42 C281 35 270 33 250 33 C155 33 81 137 81 341 L81 359 C81 562 162 664 248 664 C278 664 305 654 334 636 L334 684 C309 698 286 706 249 706 C137 706 37 590 37 359 L37 341 C37 110 132 -7 247 -7 L247 -7 Z " />
<glyph glyph-name="H" unicode="H" horiz-adv-x="416" d="M56 0 L100 0 L100 332 L316 332 L316 0 L360 0 L360 700 L316 700 L316 372 L100 372 L100 700 L56 700 L56 0 Z " />
<glyph glyph-name="I" unicode="I" horiz-adv-x="170" d="M63 0 L107 0 L107 700 L63 700 L63 0 Z " />
<glyph glyph-name="J" unicode="J" horiz-adv-x="231" d="M71 -5 C137 -5 183 38 183 118 L183 700 L141 700 L141 119 C141 62 110 36 70 36 C55 36 31 41 20 44 L20 3 C29 0 53 -5 71 -5 L71 -5 Z " />
<glyph glyph-name="K" unicode="K" horiz-adv-x="370" d="M56 0 L100 0 L100 222 L158 336 L316 0 L364 0 L183 384 L344 700 L294 700 L100 303 L100 700 L56 700 L56 0 Z " />
<glyph glyph-name="L" unicode="L" horiz-adv-x="284" d="M56 0 L276 0 L276 40 L100 40 L100 700 L56 700 L56 0 Z " />
<glyph glyph-name="M" unicode="M" horiz-adv-x="478" d="M56 0 L98 0 L98 603 L237 196 L241 196 L380 603 L380 0 L422 0 L422 700 L369 700 L239 309 L110 700 L56 700 L56 0 Z " />
<glyph glyph-name="N" unicode="N" horiz-adv-x="420" d="M56 0 L98 0 L98 602 L321 0 L364 0 L364 700 L322 700 L322 112 L104 700 L56 700 L56 0 Z " />
<glyph glyph-name="O" unicode="O" horiz-adv-x="406" d="M203 -8 C298 -8 369 111 369 342 L369 358 C369 589 298 708 203 708 C108 708 37 589 37 358 L37 342 C37 111 108 -8 203 -8 L203 -8 Z M203 32 C134 32 81 138 81 342 L81 358 C81 562 134 668 203 668 C272 668 325 562 325 358 L325 342 C325 138 272 32 203 32 L203 32 Z " />
<glyph glyph-name="P" unicode="P" horiz-adv-x="364" d="M56 0 L100 0 L100 258 L139 258 C271 258 344 347 344 480 L344 482 C344 615 267 700 143 700 L56 700 L56 0 Z M100 297 L100 660 L141 660 C238 660 300 595 300 481 L300 479 C300 365 244 297 143 297 L100 297 Z " />
<glyph glyph-name="Q" unicode="Q" horiz-adv-x="406" d="M348 -20 L379 6 L318 78 C349 137 369 225 369 342 L369 358 C369 589 298 708 203 708 C108 708 37 589 37 358 L37 342 C37 111 108 -8 203 -8 C238 -8 270 10 297 45 L348 -20 Z M203 32 C134 32 81 138 81 342 L81 358 C81 562 134 668 203 668 C272 668 325 562 325 358 L325 342 C325 239 313 162 292 110 L232 186 L201 160 L273 74 C254 46 230 32 203 32 L203 32 Z " />
<glyph glyph-name="R" unicode="R" horiz-adv-x="383" d="M56 0 L100 0 L100 282 L139 282 C153 282 166 283 178 285 L305 0 L357 0 L223 296 C299 325 344 395 344 492 L344 494 C344 625 265 700 143 700 L56 700 L56 0 Z M100 321 L100 660 L141 660 C236 660 300 606 300 493 L300 491 C300 382 239 321 143 321 L100 321 Z " />
<glyph glyph-name="S" unicode="S" horiz-adv-x="333" d="M155 -10 C236 -10 297 47 297 136 L297 138 C297 213 267 270 182 377 C104 476 83 516 83 568 L83 570 C83 628 121 668 175 668 C209 668 244 655 282 629 L282 679 C248 699 216 710 176 710 C100 710 39 650 39 567 L39 565 C39 501 62 461 155 336 C232 232 253 193 253 135 L253 133 C253 71 215 32 156 32 C122 32 82 46 34 77 L34 27 C76 3 114 -10 155 -10 L155 -10 Z " />
<glyph glyph-name="T" unicode="T" horiz-adv-x="296" d="M126 0 L170 0 L170 660 L284 660 L284 700 L12 700 L12 660 L126 660 L126 0 Z " />
<glyph glyph-name="U" unicode="U" horiz-adv-x="409" d="M205 -9 C298 -9 357 64 357 180 L357 700 L313 700 L313 179 C313 84 271 31 205 31 C139 31 98 84 98 179 L98 700 L54 700 L54 180 C54 64 112 -9 205 -9 L205 -9 Z " />
<glyph glyph-name="V" unicode="V" horiz-adv-x="392" d="M174 -5 L218 -5 L364 700 L320 700 L197 78 L74 700 L28 700 L174 -5 Z " />
<glyph glyph-name="W" unicode="W" horiz-adv-x="611" d="M151 -5 L192 -5 L306 606 L419 -5 L460 -5 L581 700 L536 700 L440 89 L327 700 L286 700 L172 89 L77 700 L30 700 L151 -5 Z " />
<glyph glyph-name="X" unicode="X" horiz-adv-x="357" d="M20 0 L64 0 L177 325 L292 0 L337 0 L204 373 L321 700 L277 700 L177 417 L79 700 L33 700 L152 369 L20 0 Z " />
<glyph glyph-name="Y" unicode="Y" horiz-adv-x="352" d="M154 0 L198 0 L198 302 L344 700 L299 700 L177 357 L56 700 L8 700 L154 302 L154 0 Z " />
<glyph glyph-name="Z" unicode="Z" horiz-adv-x="336" d="M30 0 L308 0 L308 38 L76 38 L308 675 L308 700 L41 700 L41 663 L262 663 L30 26 L30 0 Z " />
<glyph glyph-name="bracketleft" unicode="&#x5b;" horiz-adv-x="253" d="M78 -130 L217 -130 L217 -97 L120 -97 L120 667 L217 667 L217 700 L78 700 L78 -130 Z " />
<glyph glyph-name="backslash" unicode="&#x5c;" horiz-adv-x="260" d="M226 -98 L264 -98 L46 768 L8 768 L226 -98 Z " />
<glyph glyph-name="bracketright" unicode="&#x5d;" horiz-adv-x="253" d="M36 -130 L175 -130 L175 700 L36 700 L36 667 L133 667 L133 -97 L36 -97 L36 -130 Z " />
<glyph glyph-name="asciicircum" unicode="&#x5e;" horiz-adv-x="300" d="M63 533 L101 533 L149 637 L197 533 L237 533 L167 686 L133 686 L63 533 Z " />
<glyph glyph-name="underscore" unicode="&#x5f;" horiz-adv-x="452" d="M-2 -158 L454 -158 L454 -123 L-2 -123 L-2 -158 Z " />
<glyph glyph-name="grave" unicode="&#x60;" horiz-adv-x="500" d="M244 701 L197 676 L279 576 L308 576 L244 701 Z " />
<glyph glyph-name="a" unicode="a" horiz-adv-x="345" d="M148 -9 C199 -9 233 24 254 76 L254 0 L296 0 L296 380 C296 478 242 531 156 531 C119 531 86 522 57 508 L57 467 C88 484 117 491 154 491 C221 491 254 448 254 375 L254 309 C230 320 202 329 166 329 C78 329 28 258 28 161 L28 153 C28 60 77 -9 148 -9 L148 -9 Z M154 28 C99 28 70 84 70 155 L70 163 C70 236 103 290 168 290 C199 290 226 282 254 269 L254 164 C254 95 216 28 154 28 L154 28 Z " />
<glyph glyph-name="b" unicode="b" horiz-adv-x="376" d="M205 -8 C277 -8 342 86 342 253 L342 272 C342 441 277 533 205 533 C152 533 116 484 95 424 L95 707 L53 707 L53 0 L95 0 L95 101 C116 41 152 -8 205 -8 L205 -8 Z M200 29 C147 29 93 109 93 250 L93 275 C93 416 147 496 200 496 C254 496 300 415 300 271 L300 254 C300 110 254 29 200 29 L200 29 Z " />
<glyph glyph-name="c" unicode="c" horiz-adv-x="281" d="M192 -7 C218 -7 238 1 255 13 L255 57 C237 42 217 33 195 33 C135 33 74 96 74 254 L74 268 C74 423 137 492 191 492 C216 492 237 482 255 468 L255 514 C240 524 218 532 192 532 C112 532 32 448 32 266 L32 256 C32 73 110 -7 192 -7 L192 -7 Z " />
<glyph glyph-name="d" unicode="d" horiz-adv-x="376" d="M171 -8 C224 -8 260 41 281 101 L281 0 L323 0 L323 707 L281 707 L281 424 C260 484 224 533 171 533 C99 533 34 439 34 272 L34 253 C34 84 99 -8 171 -8 L171 -8 Z M176 29 C122 29 76 110 76 254 L76 271 C76 415 122 496 176 496 C229 496 283 416 283 275 L283 250 C283 109 229 29 176 29 L176 29 Z " />
<glyph glyph-name="e" unicode="e" horiz-adv-x="348" d="M313 245 L313 276 C313 440 254 533 176 533 C99 533 32 444 32 262 L32 253 C32 79 111 -7 199 -7 C240 -7 264 0 301 21 L296 64 C262 41 237 33 205 33 C134 33 76 103 74 245 L313 245 Z M176 494 C232 494 272 403 272 282 L74 282 C78 421 121 494 176 494 L176 494 Z " />
<glyph glyph-name="f" unicode="f" horiz-adv-x="214" d="M74 0 L116 0 L116 486 L202 486 L202 525 L116 525 L116 585 C116 642 137 668 177 668 C183 668 199 666 207 664 L207 705 C199 707 184 709 176 709 C110 709 74 666 74 586 L74 525 L20 525 L20 486 L74 486 L74 0 Z " />
<glyph glyph-name="g" unicode="g" horiz-adv-x="376" d="M171 -132 C267 -132 323 -85 323 15 L323 525 L281 525 L281 424 C260 484 224 533 171 533 C101 533 34 444 34 285 L34 276 C34 115 101 28 171 28 C224 28 260 77 281 137 L281 13 C281 -59 244 -93 173 -93 C139 -93 94 -83 56 -68 L56 -111 C92 -124 135 -132 171 -132 L171 -132 Z M176 65 C124 65 76 140 76 277 L76 284 C76 421 124 496 176 496 C227 496 283 419 283 285 L283 276 C283 142 227 65 176 65 L176 65 Z " />
<glyph glyph-name="h" unicode="h" horiz-adv-x="372" d="M53 0 L95 0 L95 355 C95 440 139 497 195 497 C250 497 281 450 281 363 L281 0 L323 0 L323 367 C323 474 274 533 203 533 C145 533 113 492 95 448 L95 707 L53 707 L53 0 Z " />
<glyph glyph-name="i" unicode="i" horiz-adv-x="160" d="M57 637 L103 637 L103 707 L57 707 L57 637 Z M59 0 L101 0 L101 525 L59 525 L59 0 Z " />
<glyph glyph-name="j" unicode="j" horiz-adv-x="167" d="M64 637 L110 637 L110 707 L64 707 L64 637 Z M6 -133 C87 -133 108 -72 108 -14 L108 525 L66 525 L66 1 C66 -53 57 -93 0 -93 C-6 -93 -14 -91 -20 -88 L-20 -127 C-14 -130 -4 -133 6 -133 L6 -133 Z " />
<glyph glyph-name="k" unicode="k" horiz-adv-x="328" d="M53 0 L95 0 L95 169 L151 270 L258 0 L304 0 L176 314 L293 525 L246 525 L95 234 L95 707 L53 707 L53 0 Z " />
<glyph glyph-name="l" unicode="l" horiz-adv-x="160" d="M59 0 L101 0 L101 707 L59 707 L59 0 Z " />
<glyph glyph-name="m" unicode="m" horiz-adv-x="588" d="M53 0 L95 0 L95 357 C95 442 138 497 192 497 C244 497 275 452 275 365 L275 0 L317 0 L317 357 C317 442 360 497 414 497 C466 497 497 452 497 365 L497 0 L539 0 L539 369 C539 476 491 533 419 533 C356 533 322 487 303 444 C287 493 257 533 200 533 C144 533 113 492 95 448 L95 525 L53 525 L53 0 Z " />
<glyph glyph-name="n" unicode="n" horiz-adv-x="372" d="M53 0 L95 0 L95 355 C95 440 139 497 195 497 C250 497 281 450 281 363 L281 0 L323 0 L323 367 C323 474 274 533 203 533 C145 533 113 492 95 448 L95 525 L53 525 L53 0 Z " />
<glyph glyph-name="o" unicode="o" horiz-adv-x="362" d="M181 -8 C260 -8 330 93 330 258 L330 267 C330 432 261 533 182 533 C103 533 32 432 32 267 L32 258 C32 93 102 -8 181 -8 L181 -8 Z M181 31 C122 31 74 120 74 258 L74 267 C74 405 122 494 181 494 C240 494 288 405 288 267 L288 258 C288 120 240 31 181 31 L181 31 Z " />
<glyph glyph-name="p" unicode="p" horiz-adv-x="376" d="M53 -130 L95 -130 L95 101 C116 41 152 -8 205 -8 C277 -8 342 86 342 253 L342 272 C342 441 277 533 205 533 C152 533 116 484 95 424 L95 525 L53 525 L53 -130 Z M200 29 C147 29 93 109 93 250 L93 275 C93 416 147 496 200 496 C254 496 300 415 300 271 L300 254 C300 110 254 29 200 29 L200 29 Z " />
<glyph glyph-name="q" unicode="q" horiz-adv-x="376" d="M281 -130 L323 -130 L323 525 L281 525 L281 424 C260 484 224 533 171 533 C99 533 34 439 34 272 L34 253 C34 84 99 -8 171 -8 C224 -8 260 41 281 101 L281 -130 Z M176 29 C122 29 76 110 76 254 L76 271 C76 415 122 496 176 496 C229 496 283 416 283 275 L283 250 C283 109 229 29 176 29 L176 29 Z " />
<glyph glyph-name="r" unicode="r" horiz-adv-x="234" d="M53 0 L95 0 L95 352 C95 444 150 486 216 486 L218 486 L218 531 C156 535 115 496 95 448 L95 525 L53 525 L53 0 Z " />
<glyph glyph-name="s" unicode="s" horiz-adv-x="279" d="M130 -6 C194 -6 254 39 254 113 L254 115 C254 171 225 214 151 287 C88 349 68 378 68 416 L68 418 C68 464 100 492 143 492 C174 492 202 485 232 470 L232 514 C204 526 180 531 145 531 C83 531 26 489 26 416 L26 414 C26 361 51 320 129 246 C191 187 212 150 212 113 L212 111 C212 62 176 33 132 33 C98 33 61 44 25 63 L25 19 C59 3 89 -6 130 -6 L130 -6 Z " />
<glyph glyph-name="t" unicode="t" horiz-adv-x="225" d="M162 -4 C173 -4 188 -2 198 2 L198 41 C190 38 176 36 166 36 C132 36 111 48 111 94 L111 486 L196 486 L196 525 L111 525 L111 673 L69 673 L69 525 L19 525 L19 486 L69 486 L69 88 C69 21 105 -4 162 -4 L162 -4 Z " />
<glyph glyph-name="u" unicode="u" horiz-adv-x="372" d="M169 -8 C227 -8 259 33 277 77 L277 0 L319 0 L319 525 L277 525 L277 170 C277 85 233 28 177 28 C122 28 91 75 91 162 L91 525 L49 525 L49 158 C49 51 98 -8 169 -8 L169 -8 Z " />
<glyph glyph-name="v" unicode="v" horiz-adv-x="348" d="M156 -3 L192 -3 L321 525 L280 525 L174 71 L70 525 L27 525 L156 -3 Z " />
<glyph glyph-name="w" unicode="w" horiz-adv-x="533" d="M141 -3 L179 -3 L266 439 L354 -3 L392 -3 L501 525 L460 525 L374 70 L287 525 L249 525 L160 70 L76 525 L32 525 L141 -3 Z " />
<glyph glyph-name="x" unicode="x" horiz-adv-x="337" d="M299 525 L257 525 L168 309 L79 525 L36 525 L144 271 L28 0 L70 0 L167 235 L265 0 L308 0 L191 273 L299 525 Z " />
<glyph glyph-name="y" unicode="y" horiz-adv-x="346" d="M120 -130 L160 -130 L319 525 L277 525 L173 77 L69 525 L26 525 L153 5 L120 -130 Z " />
<glyph glyph-name="z" unicode="z" horiz-adv-x="290" d="M26 0 L258 0 L258 37 L72 37 L263 500 L263 525 L36 525 L36 488 L217 488 L26 25 L26 0 Z " />
<glyph glyph-name="braceleft" unicode="&#x7b;" horiz-adv-x="266" d="M244 -136 L244 -105 C177 -103 143 -65 143 -14 C143 55 183 101 183 170 C183 220 160 275 88 289 C160 301 183 360 183 409 C183 478 143 524 143 593 C143 645 177 683 244 685 L244 716 C139 711 101 651 101 597 C101 521 141 473 141 401 C141 360 112 304 28 304 L19 304 L19 274 L28 274 C112 274 141 220 141 178 C141 106 101 57 101 -8 C101 -78 139 -131 244 -136 L244 -136 Z " />
<glyph glyph-name="bar" unicode="&#x7c;" horiz-adv-x="216" d="M90 -98 L126 -98 L126 768 L90 768 L90 -98 Z " />
<glyph glyph-name="braceright" unicode="&#x7d;" horiz-adv-x="266" d="M22 -136 C127 -131 165 -71 165 -17 C165 59 125 107 125 179 C125 220 154 276 238 276 L247 276 L247 306 L238 306 C154 306 125 360 125 402 C125 474 165 523 165 588 C165 658 127 711 22 716 L22 685 C89 683 123 645 123 594 C123 525 83 479 83 410 C83 360 106 305 178 291 C106 279 83 220 83 171 C83 102 123 56 123 -13 C123 -65 89 -103 22 -105 L22 -136 Z " />
<glyph glyph-name="asciitilde" unicode="&#x7e;" horiz-adv-x="294" d="M191 250 C216 250 233 276 245 325 L215 333 C207 304 199 288 187 288 C179 288 172 293 153 311 C135 328 124 337 103 337 C78 337 61 311 49 262 L79 254 C87 283 95 299 107 299 C115 299 122 294 141 276 C159 259 170 250 191 250 L191 250 Z " />
<glyph glyph-name="exclamdown" unicode="&#xa1;" horiz-adv-x="192" d="M66 618 L126 618 L126 700 L66 700 L66 618 Z M70 0 L122 0 L122 70 L107 517 L85 517 L70 70 L70 0 Z " />
<glyph glyph-name="cent" unicode="&#xa2;" horiz-adv-x="290" d="M187 -5 L187 81 C216 82 241 92 258 103 L258 145 C237 131 211 121 187 120 L187 579 C213 577 239 566 258 555 L258 598 C241 608 215 619 187 620 L187 703 L153 703 L153 617 C82 601 35 521 35 354 L35 344 C35 178 81 98 153 83 L153 -5 L187 -5 Z M77 342 L77 356 C77 496 108 557 153 574 L153 125 C107 142 77 204 77 342 L77 342 Z " />
<glyph glyph-name="sterling" unicode="&#xa3;" horiz-adv-x="322" d="M32 0 L310 0 L310 39 L125 39 L125 327 L253 327 L253 364 L125 364 L125 535 C125 582 137 619 158 640 C177 659 199 667 226 667 C249 667 268 661 283 654 L283 696 C268 702 252 707 224 707 C186 707 154 694 129 669 C99 639 82 594 82 536 L82 364 L28 364 L28 327 L82 327 L82 39 L32 21 L32 0 Z " />
<glyph glyph-name="currency" unicode="&#xa4;" horiz-adv-x="359" d="M11 417 L69 417 C67 398 67 379 67 359 L67 341 C67 322 67 305 68 288 L11 288 L11 253 L71 253 C90 81 164 -4 247 -4 C281 -4 303 3 325 16 L325 63 C302 47 278 38 254 38 C188 38 132 112 115 253 L275 253 L275 288 L112 288 C111 305 111 322 111 341 L111 359 C111 379 111 398 113 417 L275 417 L275 452 L116 452 C133 590 188 662 254 662 C277 662 296 654 322 639 L322 687 C301 698 285 704 254 704 C168 704 92 620 72 452 L11 452 L11 417 Z " />
<glyph glyph-name="yen" unicode="&#xa5;" horiz-adv-x="342" d="M53 310 L53 275 L150 275 L150 176 L53 176 L53 141 L150 141 L150 0 L192 0 L192 141 L289 141 L289 176 L192 176 L192 275 L289 275 L289 310 L198 310 L337 700 L291 700 L172 346 L53 700 L5 700 L143 310 L53 310 Z " />
<glyph glyph-name="brokenbar" unicode="&#xa6;" horiz-adv-x="500" d="M25 -200 L475 -200 L475 800 L25 800 L25 -200 Z " />
<glyph glyph-name="section" unicode="&#xa7;" horiz-adv-x="360" d="M338 342 L338 344 C338 397 310 430 218 484 C145 527 117 551 117 594 L117 597 C117 638 149 668 197 668 C228 668 255 661 284 646 L284 690 C257 702 233 707 200 707 C126 707 75 658 75 596 L75 593 C75 550 91 522 136 489 C55 454 22 408 22 358 L22 356 C22 303 50 270 142 216 C215 173 243 149 243 106 L243 103 C243 62 211 32 163 32 C128 32 98 42 64 59 L64 15 C93 1 124 -7 160 -7 C234 -7 285 42 285 104 L285 107 C285 149 268 177 224 210 C305 246 338 291 338 342 L338 342 Z M200 448 C271 405 296 380 296 342 L296 340 C296 301 267 263 192 232 C182 239 171 245 160 252 C89 295 64 320 64 358 L64 360 C64 399 92 437 168 467 L200 448 Z " />
<glyph glyph-name="dieresis" unicode="&#xa8;" horiz-adv-x="500" d="M277 586 L323 586 L323 653 L277 653 L277 586 Z M177 586 L223 586 L223 653 L177 653 L177 586 Z " />
<glyph glyph-name="copyright" unicode="&#xa9;" horiz-adv-x="523" d="M261 -10 C406 -10 499 145 499 333 L499 368 C499 557 406 711 261 711 C116 711 24 557 24 368 L24 333 C24 145 116 -10 261 -10 L261 -10 Z M261 15 C128 15 50 161 50 333 L50 368 C50 540 128 686 261 686 C394 686 473 540 473 368 L473 333 C473 161 394 15 261 15 L261 15 Z M270 152 C288 152 302 156 317 165 L317 202 C300 191 288 187 275 187 C235 187 201 236 201 342 L201 358 C201 464 236 513 275 513 C287 513 299 509 316 499 L316 537 C304 544 290 548 273 548 C214 548 165 488 165 356 L165 345 C165 212 213 152 270 152 L270 152 Z " />
<glyph glyph-name="ordfeminine" unicode="&#xaa;" horiz-adv-x="250" d="M109 403 C131 403 149 418 161 442 L161 408 L195 408 L195 614 C195 671 165 702 115 702 C93 702 73 696 59 688 L59 655 C78 665 94 669 112 669 C143 669 161 647 161 611 L161 580 C147 587 133 590 118 590 C72 590 43 553 43 498 L43 492 C43 439 72 403 109 403 L109 403 Z M43 322 L208 322 L208 350 L43 350 L43 322 Z M114 433 C88 433 76 459 76 494 L76 499 C76 534 91 560 121 560 C136 560 149 556 161 551 L161 504 C161 466 141 433 114 433 L114 433 Z " />
<glyph glyph-name="guillemotleft" unicode="&#xab;" horiz-adv-x="329" d="M256 42 L291 60 L180 256 L291 450 L256 468 L140 259 L140 251 L256 42 Z M134 42 L169 60 L58 256 L169 450 L134 468 L18 259 L18 251 L134 42 Z " />
<glyph glyph-name="logicalnot" unicode="&#xac;" horiz-adv-x="500" d="M25 -200 L475 -200 L475 800 L25 800 L25 -200 Z " />
<glyph glyph-name="registered" unicode="&#xae;" horiz-adv-x="312" d="M156 355 C231 355 283 430 283 527 L283 545 C283 642 231 717 156 717 C81 717 29 642 29 545 L29 527 C29 430 81 355 156 355 L156 355 Z M264 527 C264 441 223 373 156 373 C89 373 48 441 48 527 L48 545 C48 630 89 699 156 699 C223 699 264 630 264 545 L264 527 Z M114 444 L136 444 L136 516 L146 516 C149 516 152 516 158 517 L191 444 L215 444 L179 523 C197 532 209 548 209 576 L209 577 C209 612 187 635 150 635 L114 635 L114 444 Z M136 536 L136 614 L150 614 C173 614 188 600 188 576 C188 549 172 536 150 536 L136 536 Z " />
<glyph glyph-name="macron" unicode="&#xaf;" horiz-adv-x="500" d="M160 588 L340 588 L340 627 L160 627 L160 588 Z " />
<glyph glyph-name="degree" unicode="&#xb0;" horiz-adv-x="248" d="M124 402 C179 402 223 457 223 551 L223 559 C223 653 179 708 124 708 C69 708 25 653 25 559 L25 551 C25 457 69 402 124 402 L124 402 Z M124 437 C86 437 61 481 61 551 L61 559 C61 629 86 673 124 673 C162 673 187 629 187 559 L187 551 C187 481 162 437 124 437 L124 437 Z " />
<glyph glyph-name="plusminus" unicode="&#xb1;" horiz-adv-x="310" d="M101 -4 C206 -4 280 76 280 190 L280 192 C280 283 230 346 153 367 C225 396 277 452 277 542 L277 546 C277 633 224 705 122 705 C90 705 54 693 32 681 L32 640 C56 654 91 665 120 665 C189 665 233 617 233 543 L233 541 C233 452 169 390 82 383 L82 345 C178 340 236 292 236 193 L236 191 C236 94 178 36 102 36 C73 36 40 47 21 55 L21 14 C39 6 68 -4 101 -4 L101 -4 Z " />
<glyph glyph-name="twosuperior" unicode="&#xb2;" horiz-adv-x="500" d="M25 -200 L475 -200 L475 800 L25 800 L25 -200 Z " />
<glyph glyph-name="threesuperior" unicode="&#xb3;" horiz-adv-x="500" d="M25 -200 L475 -200 L475 800 L25 800 L25 -200 Z " />
<glyph glyph-name="acute" unicode="&#xb4;" horiz-adv-x="500" d="M192 576 L221 576 L303 676 L256 701 L192 576 Z " />
<glyph glyph-name="mu" unicode="&#xb5;" horiz-adv-x="406" d="M330 -97 L380 -97 L288 32 C338 84 369 188 369 342 L369 358 C369 589 298 708 203 708 C108 708 37 589 37 358 L37 342 C37 111 108 -8 203 -8 C222 -8 240 -3 256 6 L330 -97 Z M203 32 C134 32 81 138 81 342 L81 358 C81 562 134 668 203 668 C272 668 325 562 325 358 L325 342 C325 138 272 32 203 32 L203 32 Z " />
<glyph glyph-name="paragraph" unicode="&#xb6;" horiz-adv-x="325" d="M225 0 L269 0 L269 700 L221 700 C97 700 20 615 20 482 L20 480 C20 347 93 258 225 258 L225 0 Z " />
<glyph glyph-name="periodcentered" unicode="&#xb7;" horiz-adv-x="152" d="M44 255 L108 255 L108 340 L44 340 L44 255 Z " />
<glyph glyph-name="cedilla" unicode="&#xb8;" horiz-adv-x="500" d="M234 -110 L278 10 L247 10 L188 -91 L234 -110 Z " />
<glyph glyph-name="onesuperior" unicode="&#xb9;" horiz-adv-x="500" d="M25 -200 L475 -200 L475 800 L25 800 L25 -200 Z " />
<glyph glyph-name="ordmasculine" unicode="&#xba;" horiz-adv-x="250" d="M125 403 C177 403 209 462 209 548 L209 558 C209 644 177 703 125 703 C73 703 41 644 41 558 L41 548 C41 462 73 403 125 403 L125 403 Z M47 322 L205 322 L205 350 L47 350 L47 322 Z M125 435 C89 435 75 489 75 548 L75 558 C75 617 89 671 125 671 C161 671 175 617 175 558 L175 548 C175 489 161 435 125 435 L125 435 Z " />
<glyph glyph-name="guillemotright" unicode="&#xbb;" horiz-adv-x="329" d="M191 42 L307 251 L307 259 L191 468 L156 450 L267 254 L156 60 L191 42 Z M69 42 L185 251 L185 259 L69 468 L34 450 L145 254 L34 60 L69 42 Z " />
<glyph glyph-name="onequarter" unicode="&#xbc;" horiz-adv-x="500" d="M25 -200 L475 -200 L475 800 L25 800 L25 -200 Z " />
<glyph glyph-name="onehalf" unicode="&#xbd;" horiz-adv-x="500" d="M25 -200 L475 -200 L475 800 L25 800 L25 -200 Z " />
<glyph glyph-name="threequarters" unicode="&#xbe;" horiz-adv-x="500" d="M25 -200 L475 -200 L475 800 L25 800 L25 -200 Z " />
<glyph glyph-name="questiondown" unicode="&#xbf;" horiz-adv-x="303" d="M148 618 L208 618 L208 700 L148 700 L148 618 Z M181 -4 C221 -4 252 7 279 22 L279 65 C245 46 217 37 184 37 C123 37 71 85 71 165 L71 169 C71 262 123 308 198 337 L203 344 L195 517 L168 517 L159 364 C86 329 27 271 27 167 L27 161 C27 66 94 -4 181 -4 L181 -4 Z " />
<glyph glyph-name="Agrave" unicode="&#xc0;" horiz-adv-x="410" d="M161 849 L113 827 L191 745 L223 745 L161 849 Z M28 0 L72 0 L113 196 L295 196 L336 0 L382 0 L229 703 L181 703 L28 0 Z M121 236 L204 634 L287 236 L121 236 Z " />
<glyph glyph-name="Aacute" unicode="&#xc1;" horiz-adv-x="410" d="M187 745 L219 745 L297 827 L249 849 L187 745 Z M28 0 L72 0 L113 196 L295 196 L336 0 L382 0 L229 703 L181 703 L28 0 Z M121 236 L204 634 L287 236 L121 236 Z " />
<glyph glyph-name="Acircumflex" unicode="&#xc2;" horiz-adv-x="410" d="M113 745 L153 745 L204 803 L255 745 L297 745 L225 842 L185 842 L113 745 Z M28 0 L72 0 L113 196 L295 196 L336 0 L382 0 L229 703 L181 703 L28 0 Z M121 236 L204 634 L287 236 L121 236 Z " />
<glyph glyph-name="Atilde" unicode="&#xc3;" horiz-adv-x="410" d="M253 747 C279 747 297 774 310 812 L278 820 C270 798 262 785 249 785 C241 785 233 790 213 803 C194 816 183 824 161 824 C135 824 117 797 104 759 L136 751 C144 773 152 786 165 786 C173 786 181 781 201 768 C220 755 231 747 253 747 L253 747 Z M28 0 L72 0 L113 196 L295 196 L336 0 L382 0 L229 703 L181 703 L28 0 Z M121 236 L204 634 L287 236 L121 236 Z " />
<glyph glyph-name="Adieresis" unicode="&#xc4;" horiz-adv-x="410" d="M232 755 L282 755 L282 818 L232 818 L232 755 Z M128 755 L178 755 L178 818 L128 818 L128 755 Z M28 0 L72 0 L113 196 L295 196 L336 0 L382 0 L229 703 L181 703 L28 0 Z M121 236 L204 634 L287 236 L121 236 Z " />
<glyph glyph-name="Aring" unicode="&#xc5;" horiz-adv-x="410" d="M125 735 C125 703 144 676 173 666 L28 0 L72 0 L113 196 L295 196 L336 0 L382 0 L236 667 C264 679 283 704 283 735 C283 777 249 809 205 809 C161 809 125 777 125 735 L125 735 Z M121 236 L204 634 L287 236 L121 236 Z M156 735 C156 762 176 782 204 782 C232 782 252 762 252 735 C252 708 232 688 204 688 C176 688 156 708 156 735 L156 735 Z " />
<glyph glyph-name="AE" unicode="&#xc6;" horiz-adv-x="509" d="M3 0 L46 0 L101 196 L240 196 L240 0 L481 0 L481 40 L284 40 L284 333 L461 333 L461 373 L284 373 L284 660 L478 660 L478 700 L200 700 L3 0 Z M112 236 L230 660 L240 660 L240 236 L112 236 Z " />
<glyph glyph-name="Ccedilla" unicode="&#xc7;" horiz-adv-x="329" d="M179 -110 L218 -4 L222 -4 C252 -4 275 4 295 16 L295 61 C270 45 249 38 224 38 C146 38 81 143 81 341 L81 359 C81 557 146 662 224 662 C247 662 266 655 292 640 L292 687 C271 698 255 704 224 704 C124 704 37 590 37 359 L37 341 C37 137 101 25 186 1 L133 -91 L179 -110 Z " />
<glyph glyph-name="Egrave" unicode="&#xc8;" horiz-adv-x="325" d="M133 844 L85 822 L163 740 L195 740 L133 844 Z M56 0 L297 0 L297 40 L100 40 L100 333 L277 333 L277 373 L100 373 L100 660 L294 660 L294 700 L56 700 L56 0 Z " />
<glyph glyph-name="Eacute" unicode="&#xc9;" horiz-adv-x="325" d="M159 740 L191 740 L269 822 L221 844 L159 740 Z M56 0 L297 0 L297 40 L100 40 L100 333 L277 333 L277 373 L100 373 L100 660 L294 660 L294 700 L56 700 L56 0 Z " />
<glyph glyph-name="Ecircumflex" unicode="&#xca;" horiz-adv-x="325" d="M85 745 L125 745 L176 803 L227 745 L269 745 L197 842 L157 842 L85 745 Z M56 0 L297 0 L297 40 L100 40 L100 333 L277 333 L277 373 L100 373 L100 660 L294 660 L294 700 L56 700 L56 0 Z " />
<glyph glyph-name="Edieresis" unicode="&#xcb;" horiz-adv-x="325" d="M204 750 L254 750 L254 813 L204 813 L204 750 Z M100 750 L150 750 L150 813 L100 813 L100 750 Z M56 0 L297 0 L297 40 L100 40 L100 333 L277 333 L277 373 L100 373 L100 660 L294 660 L294 700 L56 700 L56 0 Z " />
<glyph glyph-name="Igrave" unicode="&#xcc;" horiz-adv-x="170" d="M41 844 L-7 822 L71 740 L103 740 L41 844 Z M63 0 L107 0 L107 700 L63 700 L63 0 Z " />
<glyph glyph-name="Iacute" unicode="&#xcd;" horiz-adv-x="170" d="M67 740 L99 740 L177 822 L129 844 L67 740 Z M63 0 L107 0 L107 700 L63 700 L63 0 Z " />
<glyph glyph-name="Icircumflex" unicode="&#xce;" horiz-adv-x="170" d="M-7 745 L33 745 L84 803 L135 745 L177 745 L105 842 L65 842 L-7 745 Z M63 0 L107 0 L107 700 L63 700 L63 0 Z " />
<glyph glyph-name="Idieresis" unicode="&#xcf;" horiz-adv-x="170" d="M112 750 L162 750 L162 813 L112 813 L112 750 Z M8 750 L58 750 L58 813 L8 813 L8 750 Z M63 0 L107 0 L107 700 L63 700 L63 0 Z " />
<glyph glyph-name="Eth" unicode="&#xd0;" horiz-adv-x="406" d="M62 0 L145 0 C275 0 369 117 369 341 L369 359 C369 583 275 700 145 700 L62 700 L62 371 L7 371 L7 333 L62 333 L62 0 Z M106 40 L106 333 L194 333 L194 371 L106 371 L106 660 L144 660 C248 660 325 557 325 359 L325 341 C325 143 251 40 146 40 L106 40 Z " />
<glyph glyph-name="Ntilde" unicode="&#xd1;" horiz-adv-x="420" d="M258 737 C284 737 302 764 315 802 L283 810 C275 788 267 775 254 775 C246 775 238 780 218 793 C199 806 188 814 166 814 C140 814 122 787 109 749 L141 741 C149 763 157 776 170 776 C178 776 186 771 206 758 C225 745 236 737 258 737 L258 737 Z M56 0 L98 0 L98 602 L321 0 L364 0 L364 700 L322 700 L322 112 L104 700 L56 700 L56 0 Z " />
<glyph glyph-name="Ograve" unicode="&#xd2;" horiz-adv-x="406" d="M159 849 L111 827 L189 745 L221 745 L159 849 Z M203 -8 C298 -8 369 111 369 342 L369 358 C369 589 298 708 203 708 C108 708 37 589 37 358 L37 342 C37 111 108 -8 203 -8 L203 -8 Z M203 32 C134 32 81 138 81 342 L81 358 C81 562 134 668 203 668 C272 668 325 562 325 358 L325 342 C325 138 272 32 203 32 L203 32 Z " />
<glyph glyph-name="Oacute" unicode="&#xd3;" horiz-adv-x="406" d="M185 745 L217 745 L295 827 L247 849 L185 745 Z M203 -8 C298 -8 369 111 369 342 L369 358 C369 589 298 708 203 708 C108 708 37 589 37 358 L37 342 C37 111 108 -8 203 -8 L203 -8 Z M203 32 C134 32 81 138 81 342 L81 358 C81 562 134 668 203 668 C272 668 325 562 325 358 L325 342 C325 138 272 32 203 32 L203 32 Z " />
<glyph glyph-name="Ocircumflex" unicode="&#xd4;" horiz-adv-x="406" d="M111 750 L151 750 L202 808 L253 750 L295 750 L223 847 L183 847 L111 750 Z M203 -8 C298 -8 369 111 369 342 L369 358 C369 589 298 708 203 708 C108 708 37 589 37 358 L37 342 C37 111 108 -8 203 -8 L203 -8 Z M203 32 C134 32 81 138 81 342 L81 358 C81 562 134 668 203 668 C272 668 325 562 325 358 L325 342 C325 138 272 32 203 32 L203 32 Z " />
<glyph glyph-name="Otilde" unicode="&#xd5;" horiz-adv-x="406" d="M251 747 C277 747 295 774 308 812 L276 820 C268 798 260 785 247 785 C239 785 231 790 211 803 C192 816 181 824 159 824 C133 824 115 797 102 759 L134 751 C142 773 150 786 163 786 C171 786 179 781 199 768 C218 755 229 747 251 747 L251 747 Z M203 -8 C298 -8 369 111 369 342 L369 358 C369 589 298 708 203 708 C108 708 37 589 37 358 L37 342 C37 111 108 -8 203 -8 L203 -8 Z M203 32 C134 32 81 138 81 342 L81 358 C81 562 134 668 203 668 C272 668 325 562 325 358 L325 342 C325 138 272 32 203 32 L203 32 Z " />
<glyph glyph-name="Odieresis" unicode="&#xd6;" horiz-adv-x="406" d="M230 755 L280 755 L280 818 L230 818 L230 755 Z M126 755 L176 755 L176 818 L126 818 L126 755 Z M203 -8 C298 -8 369 111 369 342 L369 358 C369 589 298 708 203 708 C108 708 37 589 37 358 L37 342 C37 111 108 -8 203 -8 L203 -8 Z M203 32 C134 32 81 138 81 342 L81 358 C81 562 134 668 203 668 C272 668 325 562 325 358 L325 342 C325 138 272 32 203 32 L203 32 Z " />
<glyph glyph-name="multiply" unicode="&#xd7;" horiz-adv-x="406" d="M330 -97 L380 -97 L288 32 C338 84 369 188 369 342 L369 358 C369 589 298 708 203 708 C108 708 37 589 37 358 L37 342 C37 111 108 -8 203 -8 C222 -8 240 -3 256 6 L330 -97 Z M203 32 C134 32 81 138 81 342 L81 358 C81 562 134 668 203 668 C272 668 325 562 325 358 L325 342 C325 138 272 32 203 32 L203 32 Z " />
<glyph glyph-name="Oslash" unicode="&#xd8;" horiz-adv-x="406" d="M331 708 L306 646 C278 687 242 708 203 708 C108 708 37 589 37 358 L37 342 C37 233 53 149 79 90 L39 -8 L82 -8 L105 47 C132 10 165 -8 203 -8 C298 -8 369 111 369 342 L369 358 C369 462 354 543 330 601 L374 708 L331 708 Z M80 342 L80 358 C80 562 134 669 203 669 C238 669 267 644 288 596 L102 145 C87 195 80 261 80 342 L80 342 Z M326 342 C326 138 272 31 203 31 C170 31 142 53 121 94 L306 544 C319 495 326 433 326 358 L326 342 Z " />
<glyph glyph-name="Ugrave" unicode="&#xd9;" horiz-adv-x="409" d="M161 839 L113 817 L191 735 L223 735 L161 839 Z M205 -9 C298 -9 357 64 357 180 L357 700 L313 700 L313 179 C313 84 271 31 205 31 C139 31 98 84 98 179 L98 700 L54 700 L54 180 C54 64 112 -9 205 -9 L205 -9 Z " />
<glyph glyph-name="Uacute" unicode="&#xda;" horiz-adv-x="409" d="M187 735 L219 735 L297 817 L249 839 L187 735 Z M205 -9 C298 -9 357 64 357 180 L357 700 L313 700 L313 179 C313 84 271 31 205 31 C139 31 98 84 98 179 L98 700 L54 700 L54 180 C54 64 112 -9 205 -9 L205 -9 Z " />
<glyph glyph-name="Ucircumflex" unicode="&#xdb;" horiz-adv-x="409" d="M113 740 L153 740 L204 798 L255 740 L297 740 L225 837 L185 837 L113 740 Z M205 -9 C298 -9 357 64 357 180 L357 700 L313 700 L313 179 C313 84 271 31 205 31 C139 31 98 84 98 179 L98 700 L54 700 L54 180 C54 64 112 -9 205 -9 L205 -9 Z " />
<glyph glyph-name="Udieresis" unicode="&#xdc;" horiz-adv-x="409" d="M232 745 L282 745 L282 808 L232 808 L232 745 Z M128 745 L178 745 L178 808 L128 808 L128 745 Z M205 -9 C298 -9 357 64 357 180 L357 700 L313 700 L313 179 C313 84 271 31 205 31 C139 31 98 84 98 179 L98 700 L54 700 L54 180 C54 64 112 -9 205 -9 L205 -9 Z " />
<glyph glyph-name="Yacute" unicode="&#xdd;" horiz-adv-x="352" d="M158 735 L190 735 L268 817 L220 839 L158 735 Z M154 0 L198 0 L198 302 L344 700 L299 700 L177 357 L56 700 L8 700 L154 302 L154 0 Z " />
<glyph glyph-name="Thorn" unicode="&#xde;" horiz-adv-x="364" d="M56 0 L100 0 L100 136 L139 136 C271 136 344 225 344 358 L344 360 C344 493 267 578 143 578 L102 578 L102 700 L56 700 L56 0 Z M100 175 L100 538 L141 538 C238 538 300 473 300 359 L300 357 C300 243 244 175 143 175 L100 175 Z " />
<glyph glyph-name="germandbls" unicode="&#xdf;" horiz-adv-x="364" d="M154 -2 C269 1 335 75 335 184 L335 190 C335 287 282 342 203 368 C268 397 314 460 314 551 L314 556 C314 651 259 710 187 710 C106 710 53 642 53 526 L53 0 L95 0 L95 529 C95 616 130 670 186 670 C233 670 272 630 272 553 L272 550 C272 484 243 410 154 379 L154 346 C246 329 293 275 293 186 L293 183 C293 99 249 40 154 34 L154 -2 Z " />
<glyph glyph-name="agrave" unicode="&#xe0;" horiz-adv-x="345" d="M148 -9 C199 -9 233 24 254 76 L254 0 L296 0 L296 380 C296 478 242 531 156 531 C119 531 86 522 57 508 L57 467 C88 484 117 491 154 491 C221 491 254 448 254 375 L254 309 C230 320 202 329 166 329 C78 329 28 258 28 161 L28 153 C28 60 77 -9 148 -9 L148 -9 Z M154 28 C99 28 70 84 70 155 L70 163 C70 236 103 290 168 290 C199 290 226 282 254 269 L254 164 C254 95 216 28 154 28 L154 28 Z M125 701 L78 676 L160 576 L189 576 L125 701 Z " />
<glyph glyph-name="aacute" unicode="&#xe1;" horiz-adv-x="345" d="M148 -9 C199 -9 233 24 254 76 L254 0 L296 0 L296 380 C296 478 242 531 156 531 C119 531 86 522 57 508 L57 467 C88 484 117 491 154 491 C221 491 254 448 254 375 L254 309 C230 320 202 329 166 329 C78 329 28 258 28 161 L28 153 C28 60 77 -9 148 -9 L148 -9 Z M154 28 C99 28 70 84 70 155 L70 163 C70 236 103 290 168 290 C199 290 226 282 254 269 L254 164 C254 95 216 28 154 28 L154 28 Z M153 576 L182 576 L264 676 L217 701 L153 576 Z " />
<glyph glyph-name="acircumflex" unicode="&#xe2;" horiz-adv-x="345" d="M148 -9 C199 -9 233 24 254 76 L254 0 L296 0 L296 380 C296 478 242 531 156 531 C119 531 86 522 57 508 L57 467 C88 484 117 491 154 491 C221 491 254 448 254 375 L254 309 C230 320 202 329 166 329 C78 329 28 258 28 161 L28 153 C28 60 77 -9 148 -9 L148 -9 Z M154 28 C99 28 70 84 70 155 L70 163 C70 236 103 290 168 290 C199 290 226 282 254 269 L254 164 C254 95 216 28 154 28 L154 28 Z M87 581 L122 581 L170 656 L218 581 L255 581 L188 703 L154 703 L87 581 Z " />
<glyph glyph-name="atilde" unicode="&#xe3;" horiz-adv-x="345" d="M148 -9 C199 -9 233 24 254 76 L254 0 L296 0 L296 380 C296 478 242 531 156 531 C119 531 86 522 57 508 L57 467 C88 484 117 491 154 491 C221 491 254 448 254 375 L254 309 C230 320 202 329 166 329 C78 329 28 258 28 161 L28 153 C28 60 77 -9 148 -9 L148 -9 Z M154 28 C99 28 70 84 70 155 L70 163 C70 236 103 290 168 290 C199 290 226 282 254 269 L254 164 C254 95 216 28 154 28 L154 28 Z M105 582 C113 611 121 627 133 627 C141 627 148 622 167 604 C185 587 196 578 217 578 C242 578 259 604 271 653 L241 661 C233 632 225 616 213 616 C205 616 198 621 179 639 C161 656 150 665 129 665 C104 665 87 639 75 590 L105 582 Z " />
<glyph glyph-name="adieresis" unicode="&#xe4;" horiz-adv-x="345" d="M148 -9 C199 -9 233 24 254 76 L254 0 L296 0 L296 380 C296 478 242 531 156 531 C119 531 86 522 57 508 L57 467 C88 484 117 491 154 491 C221 491 254 448 254 375 L254 309 C230 320 202 329 166 329 C78 329 28 258 28 161 L28 153 C28 60 77 -9 148 -9 L148 -9 Z M154 28 C99 28 70 84 70 155 L70 163 C70 236 103 290 168 290 C199 290 226 282 254 269 L254 164 C254 95 216 28 154 28 L154 28 Z M198 586 L244 586 L244 653 L198 653 L198 586 Z M98 586 L144 586 L144 653 L98 653 L98 586 Z " />
<glyph glyph-name="aring" unicode="&#xe5;" horiz-adv-x="345" d="M148 -9 C199 -9 233 24 254 76 L254 0 L296 0 L296 380 C296 478 242 531 156 531 C119 531 86 522 57 508 L57 467 C88 484 117 491 154 491 C221 491 254 448 254 375 L254 309 C230 320 202 329 166 329 C78 329 28 258 28 161 L28 153 C28 60 77 -9 148 -9 L148 -9 Z M154 28 C99 28 70 84 70 155 L70 163 C70 236 103 290 168 290 C199 290 226 282 254 269 L254 164 C254 95 216 28 154 28 L154 28 Z M92 656 C92 612 125 577 170 577 C215 577 250 612 250 656 C250 700 217 735 172 735 C127 735 92 700 92 656 L92 656 Z M121 656 C121 686 142 709 171 709 C200 709 221 686 221 656 C221 626 200 603 171 603 C142 603 121 626 121 656 L121 656 Z " />
<glyph glyph-name="ae" unicode="&#xe6;" horiz-adv-x="564" d="M148 -9 C215 -9 254 50 273 112 C302 33 355 -7 415 -7 C456 -7 480 0 517 21 L512 64 C478 41 453 33 421 33 C350 33 292 103 290 245 L529 245 L529 276 C529 440 470 533 392 533 C348 533 308 502 283 442 C266 500 222 531 156 531 C119 531 86 522 57 508 L57 467 C88 484 117 491 154 491 C221 491 254 448 254 375 L254 309 C230 320 202 329 166 329 C78 329 28 258 28 161 L28 153 C28 60 77 -9 148 -9 L148 -9 Z M290 282 C294 421 338 494 392 494 C448 494 488 403 488 282 L290 282 Z M154 28 C99 28 70 84 70 155 L70 163 C70 236 103 290 168 290 C197 290 222 283 252 271 C251 250 253 198 260 160 C247 95 210 28 154 28 L154 28 Z " />
<glyph glyph-name="ccedilla" unicode="&#xe7;" horiz-adv-x="281" d="M147 -110 L185 -7 L192 -7 C218 -7 238 1 255 13 L255 57 C237 42 217 33 195 33 C135 33 74 96 74 254 L74 268 C74 423 137 492 191 492 C216 492 237 482 255 468 L255 514 C240 524 218 532 192 532 C112 532 32 448 32 266 L32 256 C32 102 87 21 153 -1 L101 -91 L147 -110 Z " />
<glyph glyph-name="egrave" unicode="&#xe8;" horiz-adv-x="348" d="M313 245 L313 276 C313 440 254 533 176 533 C99 533 32 444 32 262 L32 253 C32 79 111 -7 199 -7 C240 -7 264 0 301 21 L296 64 C262 41 237 33 205 33 C134 33 76 103 74 245 L313 245 Z M176 494 C232 494 272 403 272 282 L74 282 C78 421 121 494 176 494 L176 494 Z M130 701 L83 676 L165 576 L194 576 L130 701 Z " />
<glyph glyph-name="eacute" unicode="&#xe9;" horiz-adv-x="348" d="M313 245 L313 276 C313 440 254 533 176 533 C99 533 32 444 32 262 L32 253 C32 79 111 -7 199 -7 C240 -7 264 0 301 21 L296 64 C262 41 237 33 205 33 C134 33 76 103 74 245 L313 245 Z M176 494 C232 494 272 403 272 282 L74 282 C78 421 121 494 176 494 L176 494 Z M158 576 L187 576 L269 676 L222 701 L158 576 Z " />
<glyph glyph-name="ecircumflex" unicode="&#xea;" horiz-adv-x="348" d="M313 245 L313 276 C313 440 254 533 176 533 C99 533 32 444 32 262 L32 253 C32 79 111 -7 199 -7 C240 -7 264 0 301 21 L296 64 C262 41 237 33 205 33 C134 33 76 103 74 245 L313 245 Z M176 494 C232 494 272 403 272 282 L74 282 C78 421 121 494 176 494 L176 494 Z M92 581 L127 581 L175 656 L223 581 L260 581 L193 703 L159 703 L92 581 Z " />
<glyph glyph-name="edieresis" unicode="&#xeb;" horiz-adv-x="348" d="M313 245 L313 276 C313 440 254 533 176 533 C99 533 32 444 32 262 L32 253 C32 79 111 -7 199 -7 C240 -7 264 0 301 21 L296 64 C262 41 237 33 205 33 C134 33 76 103 74 245 L313 245 Z M176 494 C232 494 272 403 272 282 L74 282 C78 421 121 494 176 494 L176 494 Z M203 586 L249 586 L249 653 L203 653 L203 586 Z M103 586 L149 586 L149 653 L103 653 L103 586 Z " />
<glyph glyph-name="igrave" unicode="&#xec;" horiz-adv-x="160" d="M59 0 L101 0 L101 525 L59 525 L59 0 Z M34 701 L-13 676 L69 576 L98 576 L34 701 Z " />
<glyph glyph-name="iacute" unicode="&#xed;" horiz-adv-x="160" d="M59 0 L101 0 L101 525 L59 525 L59 0 Z M62 576 L91 576 L173 676 L126 701 L62 576 Z " />
<glyph glyph-name="icircumflex" unicode="&#xee;" horiz-adv-x="160" d="M59 0 L101 0 L101 525 L59 525 L59 0 Z M-4 581 L31 581 L79 656 L127 581 L164 581 L97 703 L63 703 L-4 581 Z " />
<glyph glyph-name="idieresis" unicode="&#xef;" horiz-adv-x="160" d="M59 0 L101 0 L101 525 L59 525 L59 0 Z M107 586 L153 586 L153 653 L107 653 L107 586 Z M7 586 L53 586 L53 653 L7 653 L7 586 Z " />
<glyph glyph-name="eth" unicode="&#xf0;" horiz-adv-x="361" d="M114 574 L184 618 C217 569 241 522 256 479 C230 514 205 533 175 533 C102 533 32 432 32 267 L32 258 C32 90 104 -8 180 -8 C256 -8 328 84 328 269 L328 284 C328 410 289 528 217 638 L283 679 L264 709 L197 667 C188 681 177 694 167 707 L115 707 C132 687 149 667 164 647 L95 604 L114 574 Z M286 258 C286 117 236 31 180 31 C123 31 74 120 74 258 L74 267 C74 405 123 494 178 494 C231 494 286 417 286 267 L286 258 Z " />
<glyph glyph-name="ntilde" unicode="&#xf1;" horiz-adv-x="372" d="M53 0 L95 0 L95 355 C95 440 139 497 195 497 C250 497 281 450 281 363 L281 0 L323 0 L323 367 C323 474 274 533 203 533 C145 533 113 492 95 448 L95 525 L53 525 L53 0 Z M121 582 C129 611 137 627 149 627 C157 627 164 622 183 604 C201 587 212 578 233 578 C258 578 275 604 287 653 L257 661 C249 632 241 616 229 616 C221 616 214 621 195 639 C177 656 166 665 145 665 C120 665 103 639 91 590 L121 582 Z " />
<glyph glyph-name="ograve" unicode="&#xf2;" horiz-adv-x="362" d="M181 -8 C260 -8 330 93 330 258 L330 267 C330 432 261 533 182 533 C103 533 32 432 32 267 L32 258 C32 93 102 -8 181 -8 L181 -8 Z M181 31 C122 31 74 120 74 258 L74 267 C74 405 122 494 181 494 C240 494 288 405 288 267 L288 258 C288 120 240 31 181 31 L181 31 Z M135 701 L88 676 L170 576 L199 576 L135 701 Z " />
<glyph glyph-name="oacute" unicode="&#xf3;" horiz-adv-x="362" d="M181 -8 C260 -8 330 93 330 258 L330 267 C330 432 261 533 182 533 C103 533 32 432 32 267 L32 258 C32 93 102 -8 181 -8 L181 -8 Z M181 31 C122 31 74 120 74 258 L74 267 C74 405 122 494 181 494 C240 494 288 405 288 267 L288 258 C288 120 240 31 181 31 L181 31 Z M163 576 L192 576 L274 676 L227 701 L163 576 Z " />
<glyph glyph-name="ocircumflex" unicode="&#xf4;" horiz-adv-x="362" d="M181 -8 C260 -8 330 93 330 258 L330 267 C330 432 261 533 182 533 C103 533 32 432 32 267 L32 258 C32 93 102 -8 181 -8 L181 -8 Z M181 31 C122 31 74 120 74 258 L74 267 C74 405 122 494 181 494 C240 494 288 405 288 267 L288 258 C288 120 240 31 181 31 L181 31 Z M97 581 L132 581 L180 656 L228 581 L265 581 L198 703 L164 703 L97 581 Z " />
<glyph glyph-name="otilde" unicode="&#xf5;" horiz-adv-x="362" d="M181 -8 C260 -8 330 93 330 258 L330 267 C330 432 261 533 182 533 C103 533 32 432 32 267 L32 258 C32 93 102 -8 181 -8 L181 -8 Z M181 31 C122 31 74 120 74 258 L74 267 C74 405 122 494 181 494 C240 494 288 405 288 267 L288 258 C288 120 240 31 181 31 L181 31 Z M115 582 C123 611 131 627 143 627 C151 627 158 622 177 604 C195 587 206 578 227 578 C252 578 269 604 281 653 L251 661 C243 632 235 616 223 616 C215 616 208 621 189 639 C171 656 160 665 139 665 C114 665 97 639 85 590 L115 582 Z " />
<glyph glyph-name="odieresis" unicode="&#xf6;" horiz-adv-x="362" d="M181 -8 C260 -8 330 93 330 258 L330 267 C330 432 261 533 182 533 C103 533 32 432 32 267 L32 258 C32 93 102 -8 181 -8 L181 -8 Z M181 31 C122 31 74 120 74 258 L74 267 C74 405 122 494 181 494 C240 494 288 405 288 267 L288 258 C288 120 240 31 181 31 L181 31 Z M208 586 L254 586 L254 653 L208 653 L208 586 Z M108 586 L154 586 L154 653 L108 653 L108 586 Z " />
<glyph glyph-name="divide" unicode="&#xf7;" horiz-adv-x="340" d="M29 330 L311 330 L311 374 L29 374 L29 330 Z M143 189 L197 189 L197 260 L143 260 L143 189 Z M143 444 L197 444 L197 515 L143 515 L143 444 Z " />
<glyph glyph-name="oslash" unicode="&#xf8;" horiz-adv-x="362" d="M286 525 L268 487 C243 517 213 533 182 533 C103 533 32 432 32 267 L32 258 C32 179 48 115 73 70 L36 -8 L76 -8 L96 35 C121 7 150 -8 181 -8 C260 -8 330 93 330 258 L330 267 C330 343 315 406 291 452 L326 525 L286 525 Z M73 258 L73 267 C73 405 122 495 181 495 C207 495 232 478 252 445 L94 114 C81 150 73 198 73 258 L73 258 Z M289 258 C289 120 240 30 181 30 C156 30 131 45 112 76 L269 407 C281 371 289 324 289 267 L289 258 Z " />
<glyph glyph-name="ugrave" unicode="&#xf9;" horiz-adv-x="372" d="M169 -8 C227 -8 259 33 277 77 L277 0 L319 0 L319 525 L277 525 L277 170 C277 85 233 28 177 28 C122 28 91 75 91 162 L91 525 L49 525 L49 158 C49 51 98 -8 169 -8 L169 -8 Z M138 696 L91 671 L173 571 L202 571 L138 696 Z " />
<glyph glyph-name="uacute" unicode="&#xfa;" horiz-adv-x="372" d="M169 -8 C227 -8 259 33 277 77 L277 0 L319 0 L319 525 L277 525 L277 170 C277 85 233 28 177 28 C122 28 91 75 91 162 L91 525 L49 525 L49 158 C49 51 98 -8 169 -8 L169 -8 Z M166 571 L195 571 L277 671 L230 696 L166 571 Z " />
<glyph glyph-name="ucircumflex" unicode="&#xfb;" horiz-adv-x="372" d="M169 -8 C227 -8 259 33 277 77 L277 0 L319 0 L319 525 L277 525 L277 170 C277 85 233 28 177 28 C122 28 91 75 91 162 L91 525 L49 525 L49 158 C49 51 98 -8 169 -8 L169 -8 Z M100 576 L135 576 L183 651 L231 576 L268 576 L201 698 L167 698 L100 576 Z " />
<glyph glyph-name="udieresis" unicode="&#xfc;" horiz-adv-x="372" d="M169 -8 C227 -8 259 33 277 77 L277 0 L319 0 L319 525 L277 525 L277 170 C277 85 233 28 177 28 C122 28 91 75 91 162 L91 525 L49 525 L49 158 C49 51 98 -8 169 -8 L169 -8 Z M211 581 L257 581 L257 648 L211 648 L211 581 Z M111 581 L157 581 L157 648 L111 648 L111 581 Z " />
<glyph glyph-name="yacute" unicode="&#xfd;" horiz-adv-x="346" d="M120 -130 L160 -130 L319 525 L277 525 L173 77 L69 525 L26 525 L153 5 L120 -130 Z M154 571 L183 571 L265 671 L218 696 L154 571 Z " />
<glyph glyph-name="thorn" unicode="&#xfe;" horiz-adv-x="376" d="M53 -130 L95 -130 L95 101 C116 41 152 -8 205 -8 C277 -8 342 86 342 253 L342 272 C342 441 277 533 205 533 C152 533 116 484 95 424 L95 707 L53 707 L53 -130 Z M200 29 C147 29 93 109 93 250 L93 275 C93 416 147 496 200 496 C254 496 300 415 300 271 L300 254 C300 110 254 29 200 29 L200 29 Z " />
<glyph glyph-name="ydieresis" unicode="&#xff;" horiz-adv-x="346" d="M120 -130 L160 -130 L319 525 L277 525 L173 77 L69 525 L26 525 L153 5 L120 -130 Z M199 581 L245 581 L245 648 L199 648 L199 581 Z M99 581 L145 581 L145 648 L99 648 L99 581 Z " />
<glyph glyph-name="dotlessi" unicode="&#x131;" horiz-adv-x="160" d="M59 0 L101 0 L101 525 L59 525 L59 0 Z " />
<glyph glyph-name="Lslash" unicode="&#x141;" horiz-adv-x="290" d="M62 0 L282 0 L282 40 L106 40 L106 323 L194 383 L194 432 L106 370 L106 700 L62 700 L62 340 L7 304 L7 255 L62 293 L62 0 Z " />
<glyph glyph-name="lslash" unicode="&#x142;" horiz-adv-x="170" d="M64 0 L106 0 L106 352 L165 391 L165 440 L106 399 L106 707 L64 707 L64 371 L5 332 L5 283 L64 323 L64 0 Z " />
<glyph glyph-name="OE" unicode="&#x152;" horiz-adv-x="559" d="M261 0 L531 0 L531 40 L334 40 L334 333 L511 333 L511 373 L334 373 L334 660 L528 660 L528 700 L261 700 C131 700 37 583 37 359 L37 341 C37 117 131 0 261 0 L261 0 Z M81 341 L81 359 C81 557 155 660 260 660 L290 660 L290 40 L262 40 C158 40 81 143 81 341 L81 341 Z " />
<glyph glyph-name="oe" unicode="&#x153;" horiz-adv-x="600" d="M181 -8 C236 -8 283 40 307 124 C329 41 385 -7 451 -7 C492 -7 516 0 553 21 L548 64 C514 41 489 33 457 33 C386 33 328 103 326 245 L565 245 L565 276 C565 440 506 533 428 533 C378 533 329 491 306 405 C282 486 236 533 182 533 C103 533 32 432 32 267 L32 258 C32 93 102 -8 181 -8 L181 -8 Z M326 282 C330 421 374 494 428 494 C484 494 524 403 524 282 L326 282 Z M181 31 C122 31 74 120 74 258 L74 267 C74 405 122 494 181 494 C240 494 288 405 288 267 L288 258 C288 120 240 31 181 31 L181 31 Z " />
<glyph glyph-name="Scaron" unicode="&#x160;" horiz-adv-x="333" d="M265 847 L225 847 L174 789 L123 847 L81 847 L153 750 L193 750 L265 847 Z M155 -10 C236 -10 297 47 297 136 L297 138 C297 213 267 270 182 377 C104 476 83 516 83 568 L83 570 C83 628 121 668 175 668 C209 668 244 655 282 629 L282 679 C248 699 216 710 176 710 C100 710 39 650 39 567 L39 565 C39 501 62 461 155 336 C232 232 253 193 253 135 L253 133 C253 71 215 32 156 32 C122 32 82 46 34 77 L34 27 C76 3 114 -10 155 -10 L155 -10 Z " />
<glyph glyph-name="scaron" unicode="&#x161;" horiz-adv-x="279" d="M130 -6 C194 -6 254 39 254 113 L254 115 C254 171 225 214 151 287 C88 349 68 378 68 416 L68 418 C68 464 100 492 143 492 C174 492 202 485 232 470 L232 514 C204 526 180 531 145 531 C83 531 26 489 26 416 L26 414 C26 361 51 320 129 246 C191 187 212 150 212 113 L212 111 C212 62 176 33 132 33 C98 33 61 44 25 63 L25 19 C59 3 89 -6 130 -6 L130 -6 Z M224 703 L189 703 L141 628 L93 703 L56 703 L123 581 L157 581 L224 703 Z " />
<glyph glyph-name="Ydieresis" unicode="&#x178;" horiz-adv-x="352" d="M203 745 L253 745 L253 808 L203 808 L203 745 Z M99 745 L149 745 L149 808 L99 808 L99 745 Z M154 0 L198 0 L198 302 L344 700 L299 700 L177 357 L56 700 L8 700 L154 302 L154 0 Z " />
<glyph glyph-name="Zcaron" unicode="&#x17d;" horiz-adv-x="336" d="M264 842 L224 842 L173 784 L122 842 L80 842 L152 745 L192 745 L264 842 Z M30 0 L308 0 L308 38 L76 38 L308 675 L308 700 L41 700 L41 663 L262 663 L30 26 L30 0 Z " />
<glyph glyph-name="zcaron" unicode="&#x17e;" horiz-adv-x="290" d="M26 0 L258 0 L258 37 L72 37 L263 500 L263 525 L36 525 L36 488 L217 488 L26 25 L26 0 Z M232 703 L197 703 L149 628 L101 703 L64 703 L131 581 L165 581 L232 703 Z " />
<glyph glyph-name="florin" unicode="&#x192;" horiz-adv-x="323" d="M49 -5 C107 -5 139 30 147 108 L175 389 L277 389 L277 425 L178 425 L194 584 C199 636 222 662 254 662 C276 662 294 657 309 650 L309 694 C295 700 275 705 254 705 C195 705 159 664 152 592 L135 425 L75 425 L75 389 L132 389 L104 111 C99 59 80 36 49 36 C34 36 18 40 9 43 L9 2 C19 -1 33 -5 49 -5 L49 -5 Z " />
<glyph glyph-name="circumflex" unicode="&#x2c6;" horiz-adv-x="500" d="M166 581 L201 581 L249 656 L297 581 L334 581 L267 703 L233 703 L166 581 Z " />
<glyph glyph-name="caron" unicode="&#x2c7;" horiz-adv-x="500" d="M334 703 L299 703 L251 628 L203 703 L166 703 L233 581 L267 581 L334 703 Z " />
<glyph glyph-name="breve" unicode="&#x2d8;" horiz-adv-x="500" d="M250 579 C300 579 337 608 343 673 L307 673 C300 635 282 618 250 618 C218 618 200 635 193 673 L157 673 C163 608 200 579 250 579 L250 579 Z " />
<glyph glyph-name="dotaccent" unicode="&#x2d9;" horiz-adv-x="500" d="M225 586 L275 586 L275 653 L225 653 L225 586 Z " />
<glyph glyph-name="ring" unicode="&#x2da;" horiz-adv-x="500" d="M171 656 C171 612 204 577 249 577 C294 577 329 612 329 656 C329 700 296 735 251 735 C206 735 171 700 171 656 L171 656 Z M200 656 C200 686 221 709 250 709 C279 709 300 686 300 656 C300 626 279 603 250 603 C221 603 200 626 200 656 L200 656 Z " />
<glyph glyph-name="ogonek" unicode="&#x2db;" horiz-adv-x="500" d="M289 -119 L289 -87 C260 -87 247 -80 247 -61 C247 -45 256 -27 278 4 L250 4 C223 -25 207 -49 207 -73 C207 -100 224 -120 269 -120 C274 -120 278 -120 289 -119 L289 -119 Z " />
<glyph glyph-name="tilde" unicode="&#x2dc;" horiz-adv-x="500" d="M182 582 C190 611 198 627 210 627 C218 627 225 622 244 604 C262 587 273 578 294 578 C319 578 336 604 348 653 L318 661 C310 632 302 616 290 616 C282 616 275 621 256 639 C238 656 227 665 206 665 C181 665 164 639 152 590 L182 582 Z " />
<glyph glyph-name="hungarumlaut" unicode="&#x2dd;" horiz-adv-x="500" d="M145 576 L174 576 L252 678 L209 701 L145 576 Z M239 576 L268 576 L346 678 L303 701 L239 576 Z " />
<glyph glyph-name="pi" unicode="&#x3c0;" horiz-adv-x="523" d="M261 -10 C406 -10 499 145 499 333 L499 368 C499 557 406 711 261 711 C116 711 24 557 24 368 L24 333 C24 145 116 -10 261 -10 L261 -10 Z M261 15 C128 15 50 161 50 333 L50 368 C50 540 128 686 261 686 C394 686 473 540 473 368 L473 333 C473 161 394 15 261 15 L261 15 Z M194 164 L228 164 L228 300 L249 300 C314 301 360 347 360 425 L360 427 C360 505 312 549 249 549 L194 549 L194 164 Z M228 334 L228 515 L250 515 C295 515 325 484 325 425 L325 424 C325 366 298 335 251 334 L228 334 Z " />
<glyph glyph-name="endash" unicode="&#x2013;" horiz-adv-x="398" d="M40 276 L358 276 L358 316 L40 316 L40 276 Z " />
<glyph glyph-name="emdash" unicode="&#x2014;" horiz-adv-x="578" d="M40 276 L538 276 L538 316 L40 316 L40 276 Z " />
<glyph glyph-name="quoteleft" unicode="&#x2018;" horiz-adv-x="150" d="M42 513 L104 513 L104 598 L77 598 C74 636 89 659 128 676 L116 701 C61 675 42 649 42 587 L42 513 Z " />
<glyph glyph-name="quoteright" unicode="&#x2019;" horiz-adv-x="150" d="M34 515 C89 541 108 567 108 629 L108 700 L46 700 L46 618 L73 618 C76 580 61 557 22 540 L34 515 Z " />
<glyph glyph-name="quotesinglbase" unicode="&#x201a;" horiz-adv-x="150" d="M32 -103 C87 -77 106 -51 106 11 L106 82 L44 82 L44 0 L71 0 C74 -38 59 -61 20 -78 L32 -103 Z " />
<glyph glyph-name="quotedblleft" unicode="&#x201c;" horiz-adv-x="280" d="M172 513 L234 513 L234 598 L207 598 C204 636 219 659 258 676 L246 701 C191 675 172 649 172 587 L172 513 Z M42 513 L104 513 L104 598 L77 598 C74 636 89 659 128 676 L116 701 C61 675 42 649 42 587 L42 513 Z " />
<glyph glyph-name="quotedblright" unicode="&#x201d;" horiz-adv-x="280" d="M164 515 C219 541 238 567 238 629 L238 700 L176 700 L176 618 L203 618 C206 580 191 557 152 540 L164 515 Z M34 515 C89 541 108 567 108 629 L108 700 L46 700 L46 618 L73 618 C76 580 61 557 22 540 L34 515 Z " />
<glyph glyph-name="quotedblbase" unicode="&#x201e;" horiz-adv-x="280" d="M162 -103 C217 -77 236 -51 236 11 L236 82 L174 82 L174 0 L201 0 C204 -38 189 -61 150 -78 L162 -103 Z M32 -103 C87 -77 106 -51 106 11 L106 82 L44 82 L44 0 L71 0 C74 -38 59 -61 20 -78 L32 -103 Z " />
<glyph glyph-name="dagger" unicode="&#x2020;" horiz-adv-x="231" d="M95 238 L137 238 L129 528 L213 518 L213 561 L129 551 L140 700 L92 700 L103 551 L18 561 L18 518 L103 528 L95 238 Z " />
<glyph glyph-name="daggerdbl" unicode="&#x2021;" horiz-adv-x="255" d="M103 0 L151 0 L141 149 L225 139 L225 182 L141 172 L151 350 L141 528 L225 518 L225 561 L141 551 L152 700 L104 700 L115 551 L30 561 L30 518 L115 528 L105 350 L115 172 L30 182 L30 139 L115 149 L103 0 Z " />
<glyph glyph-name="bullet" unicode="&#x2022;" horiz-adv-x="311" d="M156 244 C203 244 237 278 237 348 L237 360 C237 430 203 464 156 464 C109 464 75 430 75 360 L75 348 C75 278 109 244 156 244 L156 244 Z " />
<glyph glyph-name="ellipsis" unicode="&#x2026;" horiz-adv-x="470" d="M363 0 L427 0 L427 85 L363 85 L363 0 Z M203 0 L267 0 L267 85 L203 85 L203 0 Z M43 0 L107 0 L107 85 L43 85 L43 0 Z " />
<glyph glyph-name="perthousand" unicode="&#x2030;" horiz-adv-x="523" d="M261 -10 C406 -10 499 145 499 333 L499 368 C499 557 406 711 261 711 C116 711 24 557 24 368 L24 333 C24 145 116 -10 261 -10 L261 -10 Z M261 15 C128 15 50 161 50 333 L50 368 C50 540 128 686 261 686 C394 686 473 540 473 368 L473 333 C473 161 394 15 261 15 L261 15 Z M187 164 L221 164 L221 313 L248 313 C254 313 257 313 266 314 L329 164 L367 164 L298 325 C334 342 358 379 358 431 L358 434 C358 504 316 549 246 549 L187 549 L187 164 Z M221 346 L221 515 L246 515 C291 515 323 488 323 432 L323 430 C323 373 293 346 248 346 L221 346 Z " />
<glyph glyph-name="guilsinglleft" unicode="&#x2039;" horiz-adv-x="217" d="M148 42 L183 60 L72 256 L183 450 L148 468 L32 259 L32 251 L148 42 Z " />
<glyph glyph-name="guilsinglright" unicode="&#x203a;" horiz-adv-x="217" d="M69 42 L185 251 L185 259 L69 468 L34 450 L145 256 L34 60 L69 42 Z " />
<glyph glyph-name="fraction" unicode="&#x2044;" horiz-adv-x="350" d="M12 -8 L51 -8 L331 708 L292 708 L12 -8 Z " />
<glyph glyph-name="Euro" unicode="&#x20ac;" horiz-adv-x="359" d="M11 417 L69 417 C67 398 67 379 67 359 L67 341 C67 322 67 305 68 288 L11 288 L11 253 L71 253 C90 81 164 -4 247 -4 C281 -4 303 3 325 16 L325 63 C302 47 278 38 254 38 C188 38 132 112 115 253 L275 253 L275 288 L112 288 C111 305 111 322 111 341 L111 359 C111 379 111 398 113 417 L275 417 L275 452 L116 452 C133 590 188 662 254 662 C277 662 296 654 322 639 L322 687 C301 698 285 704 254 704 C168 704 92 620 72 452 L11 452 L11 417 Z " />
<glyph glyph-name="trademark" unicode="&#x2122;" horiz-adv-x="389" d="M177 385 L207 385 L207 642 L263 468 L267 468 L322 642 L322 385 L352 385 L352 700 L313 700 L265 546 L217 700 L177 700 L177 385 Z M54 385 L85 385 L85 671 L136 671 L136 700 L4 700 L4 671 L54 671 L54 385 Z " />
<glyph glyph-name="Omega" unicode="&#x2126;" horiz-adv-x="432" d="M74 0 L116 0 L116 486 L202 486 L202 525 L116 525 L116 585 C116 642 137 668 177 668 C183 668 199 666 207 664 L207 705 C199 707 184 709 176 709 C110 709 74 666 74 586 L74 525 L20 525 L20 486 L74 486 L74 0 Z M290 0 L332 0 L332 486 L418 486 L418 525 L332 525 L332 585 C332 642 353 668 393 668 C399 668 415 666 423 664 L423 705 C415 707 400 709 392 709 C326 709 290 666 290 586 L290 525 L236 525 L236 486 L290 486 L290 0 Z " />
<glyph glyph-name="Ohm" unicode="&#x2126;" horiz-adv-x="432" d="M74 0 L116 0 L116 486 L202 486 L202 525 L116 525 L116 585 C116 642 137 668 177 668 C183 668 199 666 207 664 L207 705 C199 707 184 709 176 709 C110 709 74 666 74 586 L74 525 L20 525 L20 486 L74 486 L74 0 Z M290 0 L332 0 L332 486 L418 486 L418 525 L332 525 L332 585 C332 642 353 668 393 668 C399 668 415 666 423 664 L423 705 C415 707 400 709 392 709 C326 709 290 666 290 586 L290 525 L236 525 L236 486 L290 486 L290 0 Z " />
<glyph glyph-name="partialdiff" unicode="&#x2202;" horiz-adv-x="500" d="M25 -200 L475 -200 L475 800 L25 800 L25 -200 Z " />
<glyph glyph-name="Delta" unicode="&#x2206;" horiz-adv-x="500" d="M25 -200 L475 -200 L475 800 L25 800 L25 -200 Z " />
<glyph glyph-name="product" unicode="&#x220f;" horiz-adv-x="500" d="M25 -200 L475 -200 L475 800 L25 800 L25 -200 Z " />
<glyph glyph-name="summation" unicode="&#x2211;" horiz-adv-x="500" d="M25 -200 L475 -200 L475 800 L25 800 L25 -200 Z " />
<glyph glyph-name="minus" unicode="&#x2212;" horiz-adv-x="500" d="M25 -200 L475 -200 L475 800 L25 800 L25 -200 Z " />
<glyph glyph-name="radical" unicode="&#x221a;" horiz-adv-x="592" d="M74 0 L116 0 L116 486 L202 486 L202 525 L116 525 L116 585 C116 642 137 668 177 668 C183 668 199 666 207 664 L207 705 C199 707 184 709 176 709 C110 709 74 666 74 586 L74 525 L20 525 L20 486 L74 486 L74 0 Z M290 0 L332 0 L332 486 L418 486 L418 525 L332 525 L332 585 C332 642 353 668 393 668 C399 668 415 666 423 664 L423 705 C415 707 400 709 392 709 C326 709 290 666 290 586 L290 525 L236 525 L236 486 L290 486 L290 0 Z M491 0 L533 0 L533 707 L491 707 L491 0 Z " />
<glyph glyph-name="infinity" unicode="&#x221e;" horiz-adv-x="500" d="M25 -200 L475 -200 L475 800 L25 800 L25 -200 Z " />
<glyph glyph-name="integral" unicode="&#x222b;" horiz-adv-x="500" d="M25 -200 L475 -200 L475 800 L25 800 L25 -200 Z " />
<glyph glyph-name="approxequal" unicode="&#x2248;" horiz-adv-x="592" d="M74 0 L116 0 L116 486 L202 486 L202 525 L116 525 L116 585 C116 642 137 668 177 668 C183 668 199 666 207 664 L207 705 C199 707 184 709 176 709 C110 709 74 666 74 586 L74 525 L20 525 L20 486 L74 486 L74 0 Z M290 0 L332 0 L332 486 L418 486 L418 525 L332 525 L332 585 C332 642 353 668 393 668 C399 668 415 666 423 664 L423 705 C415 707 400 709 392 709 C326 709 290 666 290 586 L290 525 L236 525 L236 486 L290 486 L290 0 Z M489 637 L535 637 L535 707 L489 707 L489 637 Z M491 0 L533 0 L533 525 L491 525 L491 0 Z " />
<glyph glyph-name="notequal" unicode="&#x2260;" horiz-adv-x="500" d="M25 -200 L475 -200 L475 800 L25 800 L25 -200 Z " />
<glyph glyph-name="lessequal" unicode="&#x2264;" horiz-adv-x="500" d="M25 -200 L475 -200 L475 800 L25 800 L25 -200 Z " />
<glyph glyph-name="greaterequal" unicode="&#x2265;" horiz-adv-x="500" d="M25 -200 L475 -200 L475 800 L25 800 L25 -200 Z " />
<glyph glyph-name="lozenge" unicode="&#x25ca;" horiz-adv-x="415" d="M203 385 L233 385 L233 642 L289 468 L293 468 L348 642 L348 385 L378 385 L378 700 L339 700 L291 546 L243 700 L203 700 L203 385 Z M92 382 C131 382 162 410 162 453 C162 487 147 513 107 560 C75 597 65 612 65 633 C65 657 82 674 103 674 C118 674 135 666 152 655 L152 690 C138 698 121 703 101 703 C65 703 33 673 33 631 C33 599 48 578 89 529 C122 491 130 473 130 451 C130 425 113 410 90 410 C74 410 54 418 33 432 L33 397 C51 387 72 382 92 382 L92 382 Z " />
<glyph glyph-name="fi" unicode="&#xfb01;" horiz-adv-x="376" d="M74 0 L116 0 L116 486 L202 486 L202 525 L116 525 L116 585 C116 642 137 668 177 668 C183 668 199 666 207 664 L207 705 C199 707 184 709 176 709 C110 709 74 666 74 586 L74 525 L20 525 L20 486 L74 486 L74 0 Z M273 637 L319 637 L319 707 L273 707 L273 637 Z M275 0 L317 0 L317 525 L275 525 L275 0 Z " />
<glyph glyph-name="fl" unicode="&#xfb02;" horiz-adv-x="376" d="M74 0 L116 0 L116 486 L202 486 L202 525 L116 525 L116 585 C116 642 137 668 177 668 C183 668 199 666 207 664 L207 705 C199 707 184 709 176 709 C110 709 74 666 74 586 L74 525 L20 525 L20 486 L74 486 L74 0 Z M275 0 L317 0 L317 707 L275 707 L275 0 Z " />
</font>
</svg>
