<?xml version="1.0" encoding="UTF-8"?>
<svg xmlns="http://www.w3.org/2000/svg" xmlns:xlink="http://www.w3.org/1999/xlink" version="1.2" >
<font id="Helvetica Neue Medium 12">
<font-face  font-family="Helvetica Neue" units-per-em="1000" ascent="714" descent="-176" font-style="normal" font-weight="500" font-stretch="normal" slope="-12" cap-height="714" x-height="541" underline-position="-100" underline-thickness="50" />
<missing-glyph  horiz-adv-x="260" d="" />
<glyph glyph-name="NULL" d="" />
<glyph glyph-name="CR" unicode="&#xd;" horiz-adv-x="250" d="" />
<glyph glyph-name="space" unicode="&#x20;" horiz-adv-x="260" d="" />
<glyph glyph-name="exclam" unicode="&#x21;" horiz-adv-x="334" d="M188.24 480 L149.452 204 L273.452 204 L350.24 480 L400.082 714 L238.082 714 L188.24 480 Z M90 0 L246 0 L277.95 150 L121.95 150 L90 0 Z " />
<glyph glyph-name="quotedbl" unicode="&#x22;" horiz-adv-x="481" d="M356.745 365 L486.745 365 L561.082 714 L431.082 714 L356.745 365 Z M149.745 365 L279.745 365 L354.082 714 L224.082 714 L149.745 365 Z " />
<glyph glyph-name="numbersign" unicode="&#x23;" horiz-adv-x="520" d="M66 0 L176 0 L235.423 171 L307.423 171 L248 0 L358 0 L417.423 171 L506.423 171 L530.279 283 L457.279 283 L502.543 411 L591.543 411 L615.399 523 L542.399 523 L602.822 694 L492.822 694 L432.399 523 L360.399 523 L420.822 694 L309.822 694 L250.399 523 L161.399 523 L137.543 411 L210.543 411 L165.279 283 L76.279 283 L52.423 171 L125.423 171 L66 0 Z M347.279 283 L275.279 283 L320.543 411 L392.543 411 L347.279 283 Z " />
<glyph glyph-name="dollar" unicode="&#x24;" horiz-adv-x="520" d="M195.274 -102 L273.274 -102 L292.018 -14 C423.148 -4 511.993 61 543.091 207 C595.276 452 272.727 379 303.825 525 C314.049 573 343.948 596 385.948 596 C410.948 596 425.457 589 432.049 573 C438.641 557 437.316 532 430.926 502 L592.926 502 L596.547 519 C617.847 619 583.461 697 445.804 708 L461.566 782 L383.566 782 L367.804 708 C224.248 696 153.717 609 131.352 504 C75.972 244 400.651 327 368.701 177 C360.82 140 334.874 98 275.874 98 C218.874 98 212.181 137 223.257 189 L228.156 212 L66.156 212 L56.358 166 C28.455 35 111.296 -8 214.018 -14 L195.274 -102 Z " />
<glyph glyph-name="percent" unicode="&#x25;" horiz-adv-x="778" d="M246.908 516 C257.688 576 274.125 625 310.125 625 C339.125 625 347.143 611 327.973 521 C309.442 434 298.691 407 263.691 407 C232.691 407 230.507 439 246.908 516 L246.908 516 Z M180.018 -14 L281.018 -14 L748.804 708 L647.804 708 L180.018 -14 Z M598.914 178 C609.694 238 626.131 287 662.131 287 C691.131 287 699.149 273 679.979 183 C661.448 96 650.697 69 615.697 69 C584.697 69 582.513 101 598.914 178 L598.914 178 Z M128.908 516 C106.33 410 104.012 324 247.012 324 C389.012 324 422.33 410 444.908 516 C467.486 622 470.804 708 327.804 708 C198.804 708 153.19 630 128.908 516 L128.908 516 Z M480.914 178 C458.336 72 456.018 -14 599.018 -14 C741.018 -14 774.336 72 796.914 178 C819.492 284 822.81 370 679.81 370 C550.81 370 505.196 292 480.914 178 L480.914 178 Z " />
<glyph glyph-name="ampersand" unicode="&#x26;" horiz-adv-x="630" d="M346.049 573 C353.504 608 385.764 628 412.764 628 C443.764 628 466.291 607 458.836 572 C449.464 528 413.713 501 375.962 474 C358.352 504 338.594 538 346.049 573 L346.049 573 Z M373.098 146 C349.412 124 318.43 110 289.43 110 C239.43 110 208.376 152 218.174 198 C225.629 233 250.019 263 297.196 292 L373.098 146 Z M427.875 375 C504.738 426 573.962 474 592.706 562 C615.71 670 539.786 722 436.786 722 C329.786 722 230.071 667 206.215 555 C194.713 501 221.655 435 242.561 397 C147.781 337 81.557 289 59.405 185 C40.235 95 72.018 -14 236.018 -14 C309.018 -14 365.704 8 425.372 44 L448 0 L625 0 L555.116 132 C625.896 192 661.232 264 683.485 345 L541.485 345 C531.456 312 519.427 279 493.25 250 L427.875 375 Z " />
<glyph glyph-name="quotesingle" unicode="&#x27;" horiz-adv-x="260" d="M142.745 365 L272.745 365 L347.082 714 L217.082 714 L142.745 365 Z " />
<glyph glyph-name="parenleft" unicode="&#x28;" horiz-adv-x="315" d="M280.808 -184 C241.96 -80 222.253 81 261.445 265 C300.637 449 388.93 610 472.082 714 L342.082 714 C241.309 593 141.016 432 105.445 265 C69.874 98 101.581 -63 150.808 -184 L280.808 -184 Z " />
<glyph glyph-name="parenright" unicode="&#x29;" horiz-adv-x="315" d="M147.082 714 C185.93 610 205.637 449 166.445 265 C127.253 81 38.96 -80 -44.192 -184 L85.808 -184 C186.581 -63 286.874 98 322.445 265 C358.016 432 326.309 593 277.082 714 L147.082 714 Z " />
<glyph glyph-name="asterisk" unicode="&#x2a;" horiz-adv-x="408" d="M123.233 541 L240.287 499 L136.709 393 L198.207 339 L299.211 447 L354.207 339 L439.709 393 L380.287 499 L515.233 541 L503.551 627 L370.327 579 L401.082 714 L311.082 714 L284.327 579 L170.551 627 L123.233 541 Z " />
<glyph glyph-name="plus" unicode="&#x2b;" horiz-adv-x="600" d="M235 0 L365 0 L405.044 188 L593.044 188 L620.734 318 L432.734 318 L472.778 506 L342.778 506 L302.734 318 L114.734 318 L87.044 188 L275.044 188 L235 0 Z " />
<glyph glyph-name="comma" unicode="&#x2c;" horiz-adv-x="260" d="M53.278 6 L115.278 6 C101.22 -60 77.617 -91 32.617 -91 L16.003 -169 C153.707 -161 193.303 -69 214.603 31 L246.34 180 L90.34 180 L53.278 6 Z " />
<glyph glyph-name="hyphen" unicode="&#x2d;" horiz-adv-x="370" d="M81.073 221 L383.073 221 L412.041 357 L110.041 357 L81.073 221 Z " />
<glyph glyph-name="period" unicode="&#x2e;" horiz-adv-x="260" d="M52 0 L208 0 L246.34 180 L90.34 180 L52 0 Z " />
<glyph glyph-name="slash" unicode="&#x2f;" horiz-adv-x="352" d="M-8.982 -14 L127.018 -14 L513.064 728 L377.064 728 L-8.982 -14 Z " />
<glyph glyph-name="zero" unicode="0" horiz-adv-x="520" d="M268.698 346 C311.724 548 331.226 602 388.226 602 C445.226 602 441.724 548 398.698 346 C356.098 146 336.596 92 279.596 92 C222.596 92 226.098 146 268.698 346 L268.698 346 Z M566.911 347 C615.475 575 622.804 708 410.804 708 C199.804 708 145.15 550 100.911 347 C52.347 119 45.018 -14 257.018 -14 C468.018 -14 522.672 144 566.911 347 L566.911 347 Z " />
<glyph glyph-name="one" unicode="1" horiz-adv-x="520" d="M197 0 L365 0 L515.804 708 L397.804 708 C380.219 663 336.161 597 209.161 597 L188.161 597 L165.583 491 L301.583 491 L197 0 Z " />
<glyph glyph-name="two" unicode="2" horiz-adv-x="520" d="M294.536 472 C306.038 526 322.226 602 386.226 602 C434.226 602 437.345 565 425.417 509 C414.128 456 405.951 427 261.947 319 C191.658 266 69.571 167 34 0 L486 0 L513.69 130 L262.69 130 C288.21 170 349.582 214 432.64 280 C538.532 364 571.052 404 593.63 510 C617.273 621 588.804 708 416.804 708 C264.804 708 173.681 637 143.435 495 L138.536 472 L294.536 472 Z " />
<glyph glyph-name="three" unicode="3" horiz-adv-x="520" d="M76.304 208 C37.964 28 122.018 -14 262.018 -14 C386.018 -14 497.798 46 530.387 199 C551.687 299 529.763 351 449.597 369 L450.023 371 C518.218 386 565.933 441 581.269 513 C610.237 649 554.804 708 416.804 708 C337.804 708 277.183 691 232.728 656 C188.486 622 160.41 570 145.5 500 L295.5 500 C312.54 580 345.226 602 382.226 602 C421.226 602 432.901 577 420.973 521 C406.276 452 380.395 415 326.395 415 L280.395 415 L257.817 309 L297.817 309 C363.817 309 381.131 287 361.748 196 C344.708 116 318.596 92 275.596 92 C224.596 92 224.885 145 238.304 208 L76.304 208 Z " />
<glyph glyph-name="four" unicode="4" horiz-adv-x="520" d="M332.871 267 L211.871 267 L381.352 504 L383.352 504 L332.871 267 Z M51.181 137 L305.181 137 L276 0 L432 0 L461.181 137 L527.181 137 L554.871 267 L488.871 267 L579.822 694 L399.822 694 L78.871 267 L51.181 137 Z " />
<glyph glyph-name="five" unicode="5" horiz-adv-x="520" d="M72.304 208 L66.766 182 C40.354 58 98.018 -14 248.018 -14 C406.018 -14 495.567 59 533.907 239 C570.33 410 529.305 485 400.305 485 C355.305 485 297.045 465 271.377 429 L269.803 431 L306.132 564 L574.132 564 L601.822 694 L204.822 694 L101.243 311 L257.243 311 C270.976 352 301.171 367 331.171 367 C375.171 367 384.651 327 366.972 244 C346.311 147 323.596 92 269.596 92 C220.596 92 218.755 135 228.766 182 L234.304 208 L72.304 208 Z " />
<glyph glyph-name="six" unicode="6" horiz-adv-x="520" d="M591.251 527 C616.515 655 550.804 708 423.804 708 C194.804 708 147.771 567 97.503 331 C52.347 119 49.018 -14 258.018 -14 C445.018 -14 514.939 103 544.972 244 C578.839 403 529.832 464 421.832 464 C361.832 464 313.785 445 282.626 402 L280.626 402 C313.854 558 338.226 602 394.226 602 C413.226 602 425.522 594 430.54 580 C435.558 566 433.511 547 429.251 527 L591.251 527 Z M282.596 92 C233.596 92 231.672 144 249.351 227 C262.983 291 284.42 340 334.42 340 C387.42 340 389.113 301 370.795 215 C354.394 138 330.596 92 282.596 92 L282.596 92 Z " />
<glyph glyph-name="seven" unicode="7" horiz-adv-x="520" d="M439.576 552 C309.247 419 161.719 163 117 0 L291 0 C331.441 157 460.052 404 604.197 569 L630.822 694 L179.822 694 L149.576 552 L439.576 552 Z " />
<glyph glyph-name="eight" unicode="8" horiz-adv-x="520" d="M410.804 708 C253.804 708 179.616 632 156.825 525 C139.359 443 165.496 392 222.088 376 L221.662 374 C135.106 362 85.918 286 69.091 207 C42.04 80 64.018 -14 257.018 -14 C450.018 -14 513.531 87 539.091 207 C559.326 302 527.106 362 454.662 374 L455.088 376 C523.07 390 569.998 446 586.825 525 C610.468 636 567.804 708 410.804 708 L410.804 708 Z M349.886 422 C310.886 422 295.572 444 310.269 513 C320.706 562 343.226 602 388.226 602 C433.226 602 438.706 562 428.269 513 C413.572 444 388.886 422 349.886 422 L349.886 422 Z M327.308 316 C381.308 316 384.084 268 370.665 205 C357.246 142 333.596 92 279.596 92 C225.596 92 223.246 142 236.665 205 C250.084 268 273.308 316 327.308 316 L327.308 316 Z " />
<glyph glyph-name="nine" unicode="9" horiz-adv-x="520" d="M76.358 166 C51.307 39 117.018 -14 244.018 -14 C473.018 -14 520.051 127 570.319 363 C615.475 575 618.804 708 409.804 708 C222.804 708 152.883 591 122.85 450 C88.983 291 137.99 230 245.99 230 C305.99 230 354.037 249 385.196 292 L387.196 292 C353.968 136 329.596 92 273.596 92 C254.596 92 242.3 100 237.282 114 C232.264 128 234.311 147 238.358 166 L76.358 166 Z M333.402 354 C280.402 354 278.709 393 297.027 479 C313.428 556 337.226 602 385.226 602 C434.226 602 436.15 550 418.471 467 C404.839 403 383.402 354 333.402 354 L333.402 354 Z " />
<glyph glyph-name="colon" unicode="&#x3a;" horiz-adv-x="260" d="M52 0 L208 0 L246.34 180 L90.34 180 L52 0 Z M126.976 352 L282.976 352 L321.316 532 L165.316 532 L126.976 352 Z " />
<glyph glyph-name="semicolon" unicode="&#x3b;" horiz-adv-x="260" d="M53.278 6 L115.278 6 C101.22 -60 77.617 -91 32.617 -91 L16.003 -169 C153.707 -161 193.303 -69 214.603 31 L246.34 180 L90.34 180 L53.278 6 Z M126.976 352 L282.976 352 L321.316 532 L165.316 532 L126.976 352 Z " />
<glyph glyph-name="less" unicode="&#x3c;" horiz-adv-x="600" d="M87.044 188 L551.296 -8 L578.986 122 L268.889 253 L634.792 384 L662.482 514 L114.734 318 L87.044 188 Z " />
<glyph glyph-name="equal" unicode="&#x3d;" horiz-adv-x="600" d="M110.261 297 L616.261 297 L643.951 427 L137.951 427 L110.261 297 Z M63.827 79 L569.827 79 L597.517 209 L91.517 209 L63.827 79 Z " />
<glyph glyph-name="greater" unicode="&#x3e;" horiz-adv-x="600" d="M620.734 318 L156.482 514 L128.792 384 L438.889 253 L72.986 122 L45.296 -8 L593.044 188 L620.734 318 Z " />
<glyph glyph-name="question" unicode="&#x3f;" horiz-adv-x="500" d="M293.583 491 C313.605 585 339.486 622 382.486 622 C423.486 622 431.948 596 421.937 549 C401.063 451 332.164 428 279.236 372 C249.207 339 230.113 301 216.268 236 L209.452 204 L359.452 204 L366.481 237 C387.355 335 538.532 364 574.742 534 C600.728 656 540.064 728 403.064 728 C262.064 728 176.811 647 147.843 511 L143.583 491 L293.583 491 Z M163 0 L319 0 L350.95 150 L194.95 150 L163 0 Z " />
<glyph glyph-name="at" unicode="&#x40;" horiz-adv-x="800" d="M569.875 375 C556.243 311 490.907 239 421.907 239 C374.907 239 354.788 276 365.225 325 C378.005 385 441.915 455 509.915 455 C551.915 455 579.673 421 569.875 375 L569.875 375 Z M629.944 488 C609.742 534 573.215 555 523.215 555 C392.215 555 281.803 431 255.817 309 C233.026 202 294.607 139 366.607 139 C418.607 139 465.719 163 497.896 192 L499.896 192 C495.228 156 515.607 139 551.607 139 C614.607 139 816.369 213 861.525 425 C900.504 608 755.064 728 573.064 728 C358.064 728 150.197 569 105.041 357 C59.246 142 201.018 -14 418.018 -14 C547.018 -14 669.159 43 760.459 143 L671.459 143 C610.217 109 531.04 80 441.04 80 C276.04 80 176.748 196 210.615 355 C243.843 511 382.042 634 552.042 634 C699.042 634 799.937 549 768.839 403 C745.835 295 670.777 229 629.777 229 C617.777 229 612.268 236 615.25 250 C616.741 257 619.871 267 629.77 290 L741.02 540 L654.02 540 L629.944 488 Z " />
<glyph glyph-name="A" unicode="A" horiz-adv-x="574" d="M403.658 266 L281.658 266 L408.392 584 L410.392 584 L403.658 266 Z M2 0 L176 0 L229.968 136 L400.968 136 L398 0 L572 0 L546.082 714 L336.082 714 L2 0 Z " />
<glyph glyph-name="B" unicode="B" horiz-adv-x="574" d="M52 0 L300 0 C499 0 560.282 114 578.174 198 C609.272 344 535.171 367 483.875 375 L484.301 377 C555.07 390 612.915 455 630.594 538 C655.941 657 587.082 714 465.082 714 L204.082 714 L52 0 Z M345.67 590 L392.67 590 C453.67 590 465.15 550 457.269 513 C446.406 462 415.377 429 357.377 429 L311.377 429 L345.67 590 Z M287.521 317 L341.521 317 C393.521 317 423.131 287 408.221 217 C397.571 167 365.412 124 297.412 124 L246.412 124 L287.521 317 Z " />
<glyph glyph-name="C" unicode="C" horiz-adv-x="537" d="M612.258 466 L618.648 496 C654.432 664 587.064 728 439.064 728 C201.064 728 152.085 545 113.106 362 C67.311 147 50.018 -14 265.018 -14 C473.018 -14 540.513 101 573.315 255 L578.64 280 L416.64 280 C391.997 169 369.874 98 307.874 98 C237.874 98 242.589 153 287.745 365 C327.576 552 347.208 616 414.208 616 C470.208 616 472.41 570 450.258 466 L612.258 466 Z " />
<glyph glyph-name="D" unicode="D" horiz-adv-x="574" d="M52 0 L284 0 C505 0 563.773 121 618.94 380 C671.764 628 619.082 714 453.082 714 L204.082 714 L52 0 Z M345.67 590 L392.67 590 C481.67 590 485.659 543 448.597 369 C403.015 155 369.412 124 291.412 124 L246.412 124 L345.67 590 Z " />
<glyph glyph-name="E" unicode="E" horiz-adv-x="500" d="M52 0 L476 0 L504.968 136 L248.968 136 L283.687 299 L513.687 299 L542.655 435 L312.655 435 L343.114 578 L588.114 578 L617.082 714 L204.082 714 L52 0 Z " />
<glyph glyph-name="F" unicode="F" horiz-adv-x="481" d="M52 0 L220 0 L283.687 299 L513.687 299 L542.655 435 L312.655 435 L343.114 578 L588.114 578 L617.082 714 L204.082 714 L52 0 Z " />
<glyph glyph-name="G" unicode="G" horiz-adv-x="556" d="M621.861 497 C639.114 578 662.064 728 445.064 728 C207.064 728 158.688 576 108.846 342 C61.347 119 63.018 -14 242.018 -14 C307.018 -14 373.852 4 413.484 68 L415.484 68 L405 0 L520 0 L601.579 383 L366.579 383 L342.723 271 L421.723 271 L416.824 248 C395.95 150 364.874 98 307.874 98 C240.874 98 244.293 161 285.828 356 C326.298 546 349.208 616 418.208 616 C480.208 616 469.659 543 459.861 497 L621.861 497 Z " />
<glyph glyph-name="H" unicode="H" horiz-adv-x="574" d="M52 0 L220 0 L284.965 305 L418.965 305 L354 0 L522 0 L674.082 714 L506.082 714 L449.211 447 L315.211 447 L372.082 714 L204.082 714 L52 0 Z " />
<glyph glyph-name="I" unicode="I" horiz-adv-x="278" d="M55 0 L223 0 L375.082 714 L207.082 714 L55 0 Z " />
<glyph glyph-name="J" unicode="J" horiz-adv-x="500" d="M325.795 215 C311.524 148 295.874 98 247.874 98 C193.874 98 203.524 148 213.748 196 L220.351 227 L64.351 227 L54.979 183 C28.354 58 75.018 -14 226.018 -14 C392.018 -14 465.466 82 493.795 215 L600.082 714 L432.082 714 L325.795 215 Z " />
<glyph glyph-name="K" unicode="K" horiz-adv-x="574" d="M52 0 L220 0 L262.6 200 L322.297 269 L394 0 L583 0 L459.478 406 L712.082 714 L531.082 714 L314.016 432 L312.016 432 L372.082 714 L204.082 714 L52 0 Z " />
<glyph glyph-name="L" unicode="L" horiz-adv-x="463" d="M52 0 L463 0 L491.968 136 L248.968 136 L372.082 714 L204.082 714 L52 0 Z " />
<glyph glyph-name="M" unicode="M" horiz-adv-x="778" d="M57 0 L207 0 L325.428 556 L327.428 556 L324 0 L454 0 L681.428 556 L683.428 556 L565 0 L721 0 L873.082 714 L630.082 714 L445.185 245 L443.185 245 L455.082 714 L209.082 714 L57 0 Z " />
<glyph glyph-name="N" unicode="N" horiz-adv-x="593" d="M52 0 L202 0 L306.796 492 L308.796 492 L351 0 L541 0 L693.082 714 L537.082 714 L438.25 250 L436.25 250 L397.082 714 L204.082 714 L52 0 Z " />
<glyph glyph-name="O" unicode="O" horiz-adv-x="574" d="M286.041 357 C327.789 553 351.208 616 417.208 616 C485.208 616 481.789 553 440.041 357 C398.293 161 374.874 98 306.874 98 C240.874 98 244.293 161 286.041 357 L286.041 357 Z M614.041 357 C656.215 555 680.064 728 442.064 728 C221.064 728 160.392 584 112.041 357 C63.69 130 63.018 -14 284.018 -14 C522.018 -14 571.867 159 614.041 357 L614.041 357 Z " />
<glyph glyph-name="P" unicode="P" horiz-adv-x="556" d="M52 0 L220 0 L279.427 279 L353.427 279 C521.427 279 601.597 369 628.861 497 C647.818 586 641.082 714 464.082 714 L204.082 714 L52 0 Z M345.67 590 L388.67 590 C456.67 590 465.724 548 454.009 493 C443.785 445 418.839 403 351.839 403 L305.839 403 L345.67 590 Z " />
<glyph glyph-name="Q" unicode="Q" horiz-adv-x="574" d="M286.041 357 C327.789 553 351.208 616 417.208 616 C485.208 616 481.789 553 440.041 357 C398.293 161 374.874 98 306.874 98 C240.874 98 244.293 161 286.041 357 L286.041 357 Z M445.848 -104 L563.018 -14 L499.697 69 C563.607 139 589.972 244 614.041 357 C656.215 555 680.064 728 442.064 728 C221.064 728 160.392 584 112.041 357 C63.69 130 63.018 -14 284.018 -14 C301.018 -14 317.231 -13 332.657 -11 C348.083 -9 361.509 -7 372.148 -4 L445.848 -104 Z " />
<glyph glyph-name="R" unicode="R" horiz-adv-x="574" d="M346.948 596 L397.948 596 C464.948 596 477.28 560 465.778 506 C456.832 464 427.969 413 359.969 413 L307.969 413 L346.948 596 Z M52 0 L220 0 L282.835 295 L346.835 295 C399.835 295 411.297 269 384.885 145 C367.632 64 364.112 24 372 0 L553 0 L554.917 9 C533.047 19 531.029 33 558.062 174 C576.51 270 584.781 337 480.976 352 L481.402 354 C563.449 373 616.312 424 638.464 528 C659.338 626 629.082 714 486.082 714 L204.082 714 L52 0 Z " />
<glyph glyph-name="S" unicode="S" horiz-adv-x="537" d="M75.434 218 L65.636 172 C33.899 23 139.018 -14 261.018 -14 C415.018 -14 518.863 51 553.369 213 C607.045 465 284.07 390 315.807 539 C326.883 591 357.208 616 399.208 616 C424.208 616 438.504 608 444.883 591 C451.475 575 450.15 550 442.908 516 L604.908 516 L608.529 533 C631.959 643 590.064 728 422.064 728 C249.064 728 167.616 632 143.334 518 C86.463 251 411.781 337 378.979 183 C370.246 142 343.874 98 284.874 98 C226.874 98 220.607 139 232.109 193 L237.434 218 L75.434 218 Z " />
<glyph glyph-name="T" unicode="T" horiz-adv-x="480" d="M156 0 L324 0 L447.114 578 L597.114 578 L626.082 714 L158.082 714 L129.114 578 L279.114 578 L156 0 Z " />
<glyph glyph-name="U" unicode="U" horiz-adv-x="556" d="M665.082 714 L497.082 714 L384.831 187 C372.903 131 343.874 98 298.874 98 C253.874 98 238.903 131 250.831 187 L363.082 714 L195.082 714 L93.268 236 C63.448 96 80.018 -14 275.018 -14 C470.018 -14 533.448 96 563.268 236 L665.082 714 Z " />
<glyph glyph-name="V" unicode="V" horiz-adv-x="537" d="M159 0 L373 0 L687.082 714 L507.082 714 L303.506 162 L301.506 162 L334.082 714 L154.082 714 L159 0 Z " />
<glyph glyph-name="W" unicode="W" horiz-adv-x="778" d="M132 0 L318 0 L494.991 507 L496.991 507 L462 0 L648 0 L924.082 714 L762.082 714 L593.878 206 L591.878 206 L620.082 714 L464.082 714 L281.878 206 L279.878 206 L326.082 714 L158.082 714 L132 0 Z " />
<glyph glyph-name="X" unicode="X" horiz-adv-x="556" d="M3 0 L189 0 L326.055 235 L361 0 L553 0 L453.319 363 L691.082 714 L505.082 714 L386.435 495 L384.435 495 L358.082 714 L172.082 714 L255.319 363 L3 0 Z " />
<glyph glyph-name="Y" unicode="Y" horiz-adv-x="536" d="M184 0 L352 0 L411.853 281 L685.082 714 L505.082 714 L366.637 449 L364.637 449 L341.082 714 L155.082 714 L243.853 281 L184 0 Z " />
<glyph glyph-name="Z" unicode="Z" horiz-adv-x="481" d="M23 0 L458 0 L486.968 136 L241.968 136 L584.948 596 L610.082 714 L194.082 714 L165.114 578 L388.114 578 L49.412 124 L23 0 Z " />
<glyph glyph-name="bracketleft" unicode="&#x5b;" horiz-adv-x="333" d="M44.808 -184 L297.808 -184 L321.664 -72 L218.664 -72 L362.226 602 L465.226 602 L489.082 714 L236.082 714 L44.808 -184 Z " />
<glyph glyph-name="backslash" unicode="&#x5c;" horiz-adv-x="352" d="M219.018 -14 L355.018 -14 L285.064 728 L149.064 728 L219.018 -14 Z " />
<glyph glyph-name="bracketright" unicode="&#x5d;" horiz-adv-x="333" d="M-43.192 -184 L209.808 -184 L401.082 714 L148.082 714 L124.226 602 L227.226 602 L83.664 -72 L-19.336 -72 L-43.192 -184 Z " />
<glyph glyph-name="asciicircum" unicode="&#x5e;" horiz-adv-x="600" d="M121.817 309 L245.817 309 L418.854 558 L485.817 309 L609.817 309 L504.822 694 L390.822 694 L121.817 309 Z " />
<glyph glyph-name="underscore" unicode="&#x5f;" horiz-adv-x="500" d="M-26.625 -125 L473.375 -125 L484.025 -75 L-15.975 -75 L-26.625 -125 Z " />
<glyph glyph-name="grave" unicode="&#x60;" horiz-adv-x="260" d="M212.374 598 L318.374 598 L298.62 740 L142.62 740 L212.374 598 Z " />
<glyph glyph-name="a" unicode="a" horiz-adv-x="500" d="M265.875 375 C276.886 422 295.637 449 340.637 449 C376.637 449 387.164 428 380.135 395 C371.402 354 360.698 346 308.929 333 C261.373 321 199.243 311 154.557 289 C109.871 267 72.582 214 59.163 151 C34.242 34 77.018 -14 168.018 -14 C222.018 -14 278.982 14 311.206 62 L313.206 62 C309.733 41 307.047 19 309 0 L465 0 C451.112 24 462.188 76 470.921 117 L530.135 395 C554.417 509 505.215 555 372.215 555 C305.215 555 257.298 546 213.76 520 C170.222 494 138.637 449 121.875 375 L265.875 375 Z M218.571 167 C224.961 197 236.582 214 256.351 227 C273.907 239 296.12 240 352.871 267 C348.185 245 341.221 217 331.636 172 C320.134 118 284.874 98 250.874 98 C220.874 98 209.412 124 218.571 167 L218.571 167 Z " />
<glyph glyph-name="b" unicode="b" horiz-adv-x="519" d="M45 0 L201 0 L215.058 66 L217.058 66 C221.177 29 245.018 -14 317.018 -14 C426.018 -14 500.632 64 543.658 266 C579.442 434 581.215 555 448.215 555 C403.215 555 351.02 540 311.666 482 L309.666 482 L359.082 714 L197.082 714 L45 0 Z M260.871 267 C281.319 363 301.081 437 356.081 437 C415.081 437 404.236 372 383.362 274 C364.831 187 345.152 104 284.152 104 C236.152 104 238.506 162 260.871 267 L260.871 267 Z " />
<glyph glyph-name="c" unicode="c" horiz-adv-x="481" d="M532.781 337 C560.258 466 535.215 555 365.215 555 C189.215 555 121.146 442 88.77 290 C54.477 129 40.018 -14 244.018 -14 C391.018 -14 471.289 53 507.86 220 L357.86 220 C335.625 125 317.596 92 269.596 92 C215.596 92 220.524 148 246.51 270 C270.153 381 291.637 449 345.637 449 C388.637 449 399.608 416 382.781 337 L532.781 337 Z " />
<glyph glyph-name="d" unicode="d" horiz-adv-x="519" d="M318 0 L474 0 L626.082 714 L464.082 714 L414.666 482 L412.666 482 C398.02 540 352.215 555 307.215 555 C174.215 555 124.442 434 88.658 266 C45.632 64 87.018 -14 196.018 -14 C268.018 -14 310.177 29 330.058 66 L332.058 66 L318 0 Z M371.871 267 C349.506 162 327.152 104 279.152 104 C218.152 104 233.831 187 252.362 274 C273.236 372 290.081 437 349.081 437 C404.081 437 392.319 363 371.871 267 L371.871 267 Z " />
<glyph glyph-name="e" unicode="e" horiz-adv-x="481" d="M513.972 244 C553.164 428 566.215 555 365.215 555 C189.215 555 121.146 442 88.77 290 C54.477 129 40.018 -14 244.018 -14 C378.018 -14 464.863 51 496.405 185 L346.405 185 C327.921 117 308.318 86 266.318 86 C219.318 86 216.051 127 233.943 211 L240.972 244 L513.972 244 Z M260.994 338 C276.543 411 294.915 455 347.915 455 C392.915 455 394.182 414 377.994 338 L260.994 338 Z " />
<glyph glyph-name="f" unicode="f" horiz-adv-x="296" d="M66 0 L228 0 L319.377 429 L394.377 429 L418.233 541 L343.233 541 L350.475 575 C357.078 606 367.208 616 411.208 616 L434.208 616 L457.425 725 C436.851 727 416.064 728 386.064 728 C254.064 728 212.118 686 190.818 586 L181.233 541 L114.233 541 L90.377 429 L157.377 429 L66 0 Z " />
<glyph glyph-name="g" unicode="g" horiz-adv-x="519" d="M423.684 468 L421.684 468 C413.121 517 385.215 555 312.215 555 C171.215 555 122.478 406 95.214 278 C63.477 129 73.769 13 190.769 13 C245.769 13 300.603 31 335.809 93 L337.809 93 L330.78 60 C308.841 -43 290.386 -78 236.386 -78 C219.386 -78 207.238 -74 198.729 -67 C191.22 -60 188.563 -49 188.758 -34 L38.758 -34 C21.505 -115 52.808 -184 209.808 -184 C380.808 -184 452.061 -103 478.047 19 L589.233 541 L439.233 541 L423.684 468 Z M257.64 280 C276.597 369 297.803 431 350.803 431 C397.803 431 399.792 384 378.705 285 C352.719 163 328.903 131 284.903 131 C240.903 131 233.571 167 257.64 280 L257.64 280 Z " />
<glyph glyph-name="h" unicode="h" horiz-adv-x="519" d="M45 0 L207 0 L282.402 354 C293.691 407 325.803 431 356.803 431 C386.803 431 398.904 408 390.597 369 L312 0 L474 0 L560.265 405 C582.417 509 543.215 555 451.215 555 C396.215 555 348.955 535 311.666 482 L309.666 482 L359.082 714 L197.082 714 L45 0 Z " />
<glyph glyph-name="i" unicode="i" horiz-adv-x="260" d="M49 0 L211 0 L326.233 541 L164.233 541 L49 0 Z M176.374 598 L338.374 598 L364.786 722 L202.786 722 L176.374 598 Z " />
<glyph glyph-name="j" unicode="j" horiz-adv-x="260" d="M50.278 6 C40.054 -42 35.007 -61 -13.632 -64 C-19.632 -64 -27.632 -64 -36.419 -63 L-60.062 -174 C-33.275 -175 -16.488 -176 8.512 -176 C146.512 -176 184.375 -125 208.231 -13 L326.233 541 L164.233 541 L50.278 6 Z M176.374 598 L338.374 598 L364.786 722 L202.786 722 L176.374 598 Z " />
<glyph glyph-name="k" unicode="k" horiz-adv-x="519" d="M45 0 L207 0 L238.311 147 L292.452 204 L350 0 L527 0 L421.799 323 L623.233 541 L445.233 541 L282.911 347 L280.911 347 L359.082 714 L197.082 714 L45 0 Z " />
<glyph glyph-name="l" unicode="l" horiz-adv-x="260" d="M49 0 L211 0 L363.082 714 L201.082 714 L49 0 Z " />
<glyph glyph-name="m" unicode="m" horiz-adv-x="796" d="M50 0 L212 0 L287.402 354 C298.691 407 330.803 431 361.803 431 C391.803 431 403.904 408 395.597 369 L317 0 L479 0 L554.402 354 C565.691 407 597.803 431 628.803 431 C658.803 431 670.904 408 662.597 369 L584 0 L746 0 L832.265 405 C854.417 509 815.215 555 723.215 555 C663.215 555 622.955 535 571.536 472 C563.298 546 503.215 555 456.215 555 C396.215 555 342.825 525 309.601 477 L307.601 477 L321.233 541 L165.233 541 L50 0 Z " />
<glyph glyph-name="n" unicode="n" horiz-adv-x="519" d="M45 0 L207 0 L282.402 354 C293.691 407 325.803 431 356.803 431 C386.803 431 398.904 408 390.597 369 L312 0 L474 0 L560.265 405 C582.417 509 543.215 555 451.215 555 C391.215 555 337.825 525 304.601 477 L302.601 477 L316.233 541 L160.233 541 L45 0 Z " />
<glyph glyph-name="o" unicode="o" horiz-adv-x="500" d="M368.51 270 C340.181 137 320.596 92 270.596 92 C222.596 92 218.607 139 246.723 271 C274.626 402 298.637 449 346.637 449 C396.637 449 397.052 404 368.51 270 L368.51 270 Z M247.018 -14 C434.018 -14 496.43 110 530.936 272 C565.442 434 566.215 555 368.215 555 C181.215 555 118.803 431 84.297 269 C49.791 107 49.018 -14 247.018 -14 L247.018 -14 Z " />
<glyph glyph-name="p" unicode="p" horiz-adv-x="519" d="M7.512 -176 L169.512 -176 L219.567 59 L221.567 59 C236.213 1 282.018 -14 327.018 -14 C460.018 -14 509.791 107 545.575 275 C588.601 477 547.215 555 438.215 555 C366.215 555 324.056 512 304.175 475 L302.175 475 L316.233 541 L160.233 541 L7.512 -176 Z M262.362 274 C284.727 379 307.081 437 355.081 437 C416.081 437 400.402 354 381.871 267 C360.997 169 344.152 104 285.152 104 C230.152 104 241.914 178 262.362 274 L262.362 274 Z " />
<glyph glyph-name="q" unicode="q" horiz-adv-x="519" d="M274.512 -176 L436.512 -176 L589.233 541 L433.233 541 L419.175 475 L417.175 475 C413.056 512 389.215 555 317.215 555 C208.215 555 133.601 477 90.575 275 C54.791 107 53.018 -14 186.018 -14 C231.018 -14 283.213 1 322.567 59 L324.567 59 L274.512 -176 Z M373.362 274 C352.914 178 333.152 104 278.152 104 C219.152 104 229.997 169 250.871 267 C269.402 354 289.081 437 350.081 437 C398.081 437 395.727 379 373.362 274 L373.362 274 Z " />
<glyph glyph-name="r" unicode="r" horiz-adv-x="370" d="M45 0 L207 0 L272.391 307 C287.514 378 335.265 405 400.265 405 C416.265 405 429.052 404 444.413 401 L476.789 553 C467.215 555 459.215 555 451.215 555 C383.215 555 333.269 513 302.045 465 L300.045 465 L316.233 541 L160.233 541 L45 0 Z " />
<glyph glyph-name="s" unicode="s" horiz-adv-x="463" d="M61.636 172 L56.524 148 C33.52 40 83.018 -14 228.018 -14 C362.018 -14 449.502 54 472.719 163 C517.449 373 244.817 309 265.265 405 C271.442 434 287.915 455 330.915 455 C364.915 455 381.146 442 371.135 395 L369.005 385 L513.005 385 L516.839 403 C533.453 481 505.215 555 353.215 555 C223.215 555 135.5 500 112.496 392 C88.214 278 146.676 252 270.091 207 C316.47 190 323.358 166 318.033 141 C311.43 110 286.318 86 248.318 86 C222.318 86 209.448 96 203.643 111 C199.051 127 201.524 148 205.636 172 L61.636 172 Z " />
<glyph glyph-name="t" unicode="t" horiz-adv-x="315" d="M95.82 140 C68.982 14 96.722 -6 208.722 -6 C239.722 -6 271.148 -4 303 0 L326.004 108 C318.791 107 309.578 106 302.578 106 C264.578 106 253.134 118 261.228 156 L319.377 429 L394.377 429 L418.233 541 L343.233 541 L377.1 700 L215.1 700 L181.233 541 L114.233 541 L90.377 429 L157.377 429 L95.82 140 Z " />
<glyph glyph-name="u" unicode="u" horiz-adv-x="519" d="M589.233 541 L427.233 541 L351.831 187 C340.542 134 308.43 110 277.43 110 C247.43 110 235.329 133 243.636 172 L322.233 541 L160.233 541 L73.968 136 C51.816 32 91.018 -14 183.018 -14 C243.018 -14 296.408 16 329.632 64 L331.632 64 L318 0 L474 0 L589.233 541 Z " />
<glyph glyph-name="v" unicode="v" horiz-adv-x="481" d="M144 0 L336 0 L585.233 541 L423.233 541 L274.246 142 L272.246 142 L294.233 541 L126.233 541 L144 0 Z " />
<glyph glyph-name="w" unicode="w" horiz-adv-x="741" d="M122 0 L308 0 L455.987 399 L457.987 399 L432 0 L615 0 L847.233 541 L691.233 541 L549.246 142 L547.246 142 L575.233 541 L401.233 541 L255.246 142 L253.246 142 L286.233 541 L124.233 541 L122 0 Z " />
<glyph glyph-name="x" unicode="x" horiz-adv-x="481" d="M4 0 L166 0 L279.275 175 L315 0 L477 0 L391.64 280 L582.233 541 L420.233 541 L319.94 380 L290.233 541 L128.233 541 L208.64 280 L4 0 Z " />
<glyph glyph-name="y" unicode="y" horiz-adv-x="481" d="M162.148 -4 C143.137 -51 112.368 -64 81.368 -64 C68.368 -64 54.794 -62 42.22 -60 L17.938 -174 C38.512 -176 61.512 -176 87.512 -176 C213.512 -176 258.541 -143 325.148 -4 L586.233 541 L424.233 541 L280.506 162 L278.506 162 L293.233 541 L125.233 541 L162.148 -4 Z " />
<glyph glyph-name="z" unicode="z" horiz-adv-x="463" d="M31 0 L432 0 L458.412 124 L243.412 124 L515.821 417 L542.233 541 L155.233 541 L128.821 417 L323.821 417 L57.412 124 L31 0 Z " />
<glyph glyph-name="braceleft" unicode="&#x7b;" horiz-adv-x="333" d="M80.563 -49 C60.967 -141 108.808 -184 194.808 -184 L295.808 -184 L319.664 -72 L279.664 -72 C235.664 -72 233.119 -37 241.213 1 L272.098 146 C286.369 213 263.315 255 198.232 264 L198.658 266 C259.362 274 308.521 317 321.301 377 L353.677 529 C361.771 567 378.226 602 423.226 602 L463.226 602 L487.082 714 L386.082 714 C293.082 714 232.645 665 214.327 579 L174.496 392 C164.059 343 111.817 309 63.817 309 L45.073 221 C97.073 221 129.766 182 118.903 131 L80.563 -49 Z " />
<glyph glyph-name="bar" unicode="&#x7c;" horiz-adv-x="222" d="M43.018 -14 L173.018 -14 L331.064 728 L201.064 728 L43.018 -14 Z " />
<glyph glyph-name="braceright" unicode="&#x7d;" horiz-adv-x="333" d="M92.213 1 C84.119 -37 67.664 -72 22.664 -72 L-17.336 -72 L-41.192 -184 L59.808 -184 C152.808 -184 213.245 -135 231.563 -49 L271.394 138 C281.831 187 334.073 221 382.073 221 L400.817 309 C348.817 309 316.124 348 326.987 399 L365.327 579 C384.923 671 337.082 714 251.082 714 L150.082 714 L126.226 602 L166.226 602 C210.226 602 212.771 567 204.677 529 L173.792 384 C159.521 317 182.575 275 247.658 266 L247.232 264 C186.528 256 137.369 213 124.589 153 L92.213 1 Z " />
<glyph glyph-name="asciitilde" unicode="&#x7e;" horiz-adv-x="600" d="M569.976 352 C553.651 327 504.492 284 465.492 284 C432.492 284 407.113 301 377.734 318 C348.355 335 315.976 352 266.976 352 C208.976 352 163.521 317 125.658 266 L137.802 154 C154.127 179 203.286 222 242.286 222 C275.286 222 300.665 205 330.044 188 C359.423 171 391.802 154 440.802 154 C498.802 154 544.257 189 582.12 240 L569.976 352 Z " />
<glyph glyph-name="exclamdown" unicode="&#xa1;" horiz-adv-x="334" d="M261.632 64 L300.42 340 L176.42 340 L99.632 64 L49.79 -170 L211.79 -170 L261.632 64 Z M359.872 544 L203.872 544 L171.922 394 L327.922 394 L359.872 544 Z " />
<glyph glyph-name="cent" unicode="&#xa2;" horiz-adv-x="520" d="M205.635 -105 L283.635 -105 L303.018 -14 C422.787 -1 490.484 68 523.86 220 L373.86 220 C351.625 125 333.596 92 285.596 92 C231.596 92 236.524 148 262.51 270 C286.153 381 307.637 449 361.637 449 C404.637 449 415.608 416 398.781 337 L548.781 337 C574.341 457 556.446 542 424.215 555 L441.255 635 L363.255 635 L346.215 555 C196.659 543 135.655 435 104.77 290 C88.369 213 77.033 141 90.318 86 C103.603 31 142.509 -7 225.018 -14 L205.635 -105 Z " />
<glyph glyph-name="sterling" unicode="&#xa3;" horiz-adv-x="520" d="M58.296 -8 C100.343 11 129.686 22 168.686 22 C230.686 22 286.018 -14 339.018 -14 C373.018 -14 437.083 -9 509.816 32 L484.755 135 C456.134 118 409.874 98 372.874 98 C322.874 98 315.773 121 269.773 121 C249.773 121 230.708 116 217.43 110 L215.856 112 C293.932 164 339.304 208 351.232 264 C353.149 273 352.918 286 352.196 292 L490.196 292 L510.218 386 L338.218 386 C316.388 476 312.074 498 318.677 529 C330.605 585 368.226 602 405.226 602 C447.226 602 464.049 573 451.908 516 L448.926 502 L598.926 502 C624.551 627 586.804 708 409.804 708 C276.804 708 179.255 635 156.677 529 C147.305 485 152.655 435 170.218 386 L103.218 386 L83.196 292 L190.196 292 C191.492 284 190.51 270 187.528 256 C177.091 207 133.459 143 35.318 86 L58.296 -8 Z " />
<glyph glyph-name="currency" unicode="&#xa4;" horiz-adv-x="520" d="M211.911 347 C226.821 417 285.175 475 361.175 475 C437.175 475 470.821 417 455.911 347 C441.001 277 382.647 219 306.647 219 C230.647 219 197.001 277 211.911 347 L211.911 347 Z M35.015 155 L86.957 89 L153.672 144 C186.708 116 230.513 101 281.513 101 C333.513 101 384.921 117 428.459 143 L470.957 89 L551.015 155 L507.73 210 C544.037 249 569.048 296 579.911 347 C590.774 398 585.785 445 567.305 485 L632.807 539 L580.865 605 L515.363 551 C481.901 577 437.309 593 386.309 593 C335.309 593 285.114 578 239.363 551 L196.865 605 L116.807 539 L159.305 485 C124.998 446 98.774 398 87.911 347 C76.835 295 82.611 247 100.517 209 L35.015 155 Z " />
<glyph glyph-name="yen" unicode="&#xa5;" horiz-adv-x="520" d="M182 0 L338 0 L366.116 132 L511.116 132 L531.138 226 L386.138 226 L397.853 281 L409.9 300 L546.9 300 L566.922 394 L468.922 394 L661.822 694 L496.822 694 L356.081 437 L354.081 437 L324.822 694 L153.822 694 L218.922 394 L120.922 394 L100.9 300 L237.9 300 L241.853 281 L230.138 226 L85.138 226 L65.116 132 L210.116 132 L182 0 Z " />
<glyph glyph-name="brokenbar" unicode="&#xa6;" horiz-adv-x="222" d="M43.018 -14 L173.018 -14 L230.741 257 L100.741 257 L43.018 -14 Z M143.341 457 L273.341 457 L331.064 728 L201.064 728 L143.341 457 Z " />
<glyph glyph-name="section" unicode="&#xa7;" horiz-adv-x="519" d="M51.733 41 L46.408 16 C27.238 -74 67.624 -152 223.624 -152 C341.624 -152 448.505 -115 477.686 22 C489.401 77 473.773 121 448.95 150 C504.044 188 542.203 231 556.474 298 C601.843 511 308.962 474 330.049 573 C334.735 595 354.486 622 396.486 622 C428.486 622 450.717 609 442.197 569 L439.002 554 L589.002 554 L590.706 562 C611.793 661 577.064 728 414.064 728 C301.064 728 197.053 681 170.854 558 C160.843 511 166.536 472 205.359 443 C155.034 418 103.319 363 89.687 299 C46.235 95 338.264 128 315.473 21 C306.101 -23 281.202 -46 247.202 -46 C210.202 -46 194.379 -17 204.325 25 L207.733 41 L51.733 41 Z M421.575 275 C415.824 248 388.073 221 366.878 206 C298.167 259 210.315 255 224.373 321 C229.059 343 253.023 371 289.644 388 C329.615 355 436.059 343 421.575 275 L421.575 275 Z " />
<glyph glyph-name="dieresis" unicode="&#xa8;" horiz-adv-x="260" d="M108.652 604 L232.652 604 L260.342 734 L136.342 734 L108.652 604 Z M284.652 604 L408.652 604 L436.342 734 L312.342 734 L284.652 604 Z " />
<glyph glyph-name="copyright" unicode="&#xa9;" horiz-adv-x="800" d="M557.622 294 C544.315 255 501.777 229 454.777 229 C393.777 229 363.557 289 378.041 357 C393.164 428 444.305 485 510.305 485 C558.305 485 583.767 459 586.099 423 L684.099 423 C691.825 525 625.327 579 535.327 579 C401.327 579 305.092 484 278.041 357 C251.416 232 310.755 135 443.755 135 C529.755 135 624.896 192 661.622 294 L557.622 294 Z M211.041 357 C244.056 512 388.764 628 533.764 628 C678.764 628 774.056 512 741.041 357 C708.239 203 563.318 86 418.318 86 C273.318 86 178.239 203 211.041 357 L211.041 357 Z M105.041 357 C61.376 152 192.018 -14 397.018 -14 C602.018 -14 803.376 152 847.041 357 C890.706 562 760.064 728 555.064 728 C350.064 728 148.706 562 105.041 357 L105.041 357 Z " />
<glyph glyph-name="ordfeminine" unicode="&#xaa;" horiz-adv-x="325" d="M392.662 374 C383.644 388 390.46 420 395.572 444 L431.356 612 C445.84 680 413.804 708 314.804 708 C259.804 708 228.739 703 200.331 687 C171.923 671 152.172 644 140.948 596 L252.948 596 C259.06 620 270.468 636 295.468 636 C315.468 636 321.912 624 318.504 608 C313.179 583 307.327 579 277.623 571 C245.919 563 201.641 557 172.872 544 C141.89 530 118.287 499 110.406 462 C96.135 395 124.171 367 187.171 367 C206.171 367 225.023 371 240.727 379 C255.218 386 267.561 397 273.543 411 L275.543 411 C272.561 397 273.792 384 277.662 374 L392.662 374 Z M290.601 477 C285.063 451 262.507 439 246.507 439 C228.507 439 220.702 454 224.962 474 C228.37 490 235.074 498 245.778 506 C258.695 515 270.695 515 302.103 531 L290.601 477 Z " />
<glyph glyph-name="guillemotleft" unicode="&#xab;" horiz-adv-x="444" d="M86.896 192 L219.466 82 L251.416 232 L180.557 289 L275.698 346 L307.648 496 L128.218 386 L86.896 192 Z M282.896 192 L415.466 82 L447.416 232 L376.557 289 L471.698 346 L503.648 496 L324.218 386 L282.896 192 Z " />
<glyph glyph-name="logicalnot" unicode="&#xac;" horiz-adv-x="600" d="M443.874 98 L573.874 98 L643.951 427 L137.951 427 L110.261 297 L486.261 297 L443.874 98 Z " />
<glyph glyph-name="registered" unicode="&#xae;" horiz-adv-x="800" d="M273.95 150 L367.95 150 L402.882 314 L437.882 314 L495.95 150 L599.95 150 L532.734 318 C588.225 325 641.532 364 656.442 434 C674.121 517 632.919 563 524.919 563 L361.919 563 L273.95 150 Z M438.583 491 L497.583 491 C530.583 491 573.518 486 563.507 439 C553.709 393 524.218 386 484.218 386 L416.218 386 L438.583 491 Z M211.041 357 C244.056 512 388.764 628 533.764 628 C678.764 628 774.056 512 741.041 357 C708.239 203 563.318 86 418.318 86 C273.318 86 178.239 203 211.041 357 L211.041 357 Z M105.041 357 C61.376 152 192.018 -14 397.018 -14 C602.018 -14 803.376 152 847.041 357 C890.706 562 760.064 728 555.064 728 C350.064 728 148.706 562 105.041 357 L105.041 357 Z " />
<glyph glyph-name="macron" unicode="&#xaf;" horiz-adv-x="260" d="M108.338 626 L418.338 626 L437.082 714 L127.082 714 L108.338 626 Z " />
<glyph glyph-name="degree" unicode="&#xb0;" horiz-adv-x="400" d="M244.428 556 C253.161 597 293.19 630 334.19 630 C375.19 630 401.161 597 392.428 556 C383.695 515 343.666 482 302.666 482 C261.666 482 235.695 515 244.428 556 L244.428 556 Z M166.428 556 C148.536 472 202.052 404 286.052 404 C370.052 404 452.536 472 470.428 556 C488.32 640 434.804 708 350.804 708 C266.804 708 184.32 640 166.428 556 L166.428 556 Z " />
<glyph glyph-name="plusminus" unicode="&#xb1;" horiz-adv-x="600" d="M270.358 166 L400.358 166 L422.723 271 L610.723 271 L638.413 401 L450.413 401 L472.778 506 L342.778 506 L320.413 401 L132.413 401 L104.723 271 L292.723 271 L270.358 166 Z M47 0 L553 0 L580.69 130 L74.69 130 L47 0 Z " />
<glyph glyph-name="twosuperior" unicode="&#xb2;" horiz-adv-x="338" d="M248.706 562 C253.392 584 263.19 630 300.19 630 C326.19 630 328.504 608 323.392 584 C316.576 552 311.955 535 219.11 470 C139.182 414 85.763 351 68.64 280 L384.64 280 L404.662 374 L246.662 374 C261.496 392 282.904 408 327.655 435 C428.648 496 442.316 532 453.605 585 C468.728 656 449.804 708 321.804 708 C210.804 708 152.858 666 134.753 581 L130.706 562 L248.706 562 Z " />
<glyph glyph-name="threesuperior" unicode="&#xb3;" horiz-adv-x="338" d="M254.114 578 C262.208 616 283.19 630 300.19 630 C318.19 630 326.782 614 322.096 592 C315.493 561 298.594 538 263.594 538 L233.594 538 L216.98 460 L244.98 460 C287.98 460 298.998 446 289.626 402 C281.958 366 264.763 351 241.763 351 C228.763 351 222.467 359 220.236 372 C217.792 384 219.413 401 222.395 415 L92.395 415 C67.474 298 122.149 273 231.149 273 C328.149 273 399.817 309 420.691 407 C432.193 461 417.796 492 355.926 502 L356.352 504 C411.269 513 442.511 547 451.67 590 C469.349 673 432.804 708 324.804 708 C260.804 708 221.674 698 192.201 677 C163.728 656 146.125 625 136.114 578 L254.114 578 Z " />
<glyph glyph-name="acute" unicode="&#xb4;" horiz-adv-x="260" d="M196.374 598 L302.374 598 L432.62 740 L276.62 740 L196.374 598 Z " />
<glyph glyph-name="mu" unicode="&#xb5;" horiz-adv-x="519" d="M589.233 541 L427.233 541 L351.831 187 C340.542 134 308.43 110 277.43 110 C247.43 110 235.329 133 243.636 172 L322.233 541 L160.233 541 L7.512 -176 L169.512 -176 L204.87 -10 C209.444 -12 216.018 -14 226.018 -14 C263.018 -14 304.751 27 329.632 64 L331.632 64 L318 0 L474 0 L589.233 541 Z " />
<glyph glyph-name="paragraph" unicode="&#xb6;" horiz-adv-x="600" d="M163.606 -138 L293.606 -138 L453.782 614 L519.782 614 L359.606 -138 L489.606 -138 L671.082 714 L369.082 714 C260.082 714 173.746 642 148.186 522 C123.478 406 188.781 337 264.781 337 L163.606 -138 Z " />
<glyph glyph-name="periodcentered" unicode="&#xb7;" horiz-adv-x="260" d="M85.149 273 C73.008 216 109.21 170 166.21 170 C223.21 170 279.008 216 291.149 273 C303.29 330 267.088 376 210.088 376 C153.088 376 97.29 330 85.149 273 L85.149 273 Z " />
<glyph glyph-name="cedilla" unicode="&#xb8;" horiz-adv-x="260" d="M-31.943 -211 C-8.221 -217 19.01 -230 74.01 -230 C151.01 -230 206.743 -189 218.671 -133 C226.978 -94 207.072 -56 145.072 -56 C135.072 -56 125.646 -58 118.22 -60 L166 0 L107 0 L35.191 -93 L54.144 -112 C57.357 -111 70.422 -106 84.422 -106 C109.422 -106 127.44 -120 123.819 -137 C119.772 -156 100.938 -174 65.938 -174 C41.938 -174 14.068 -164 0.133 -159 L-31.943 -211 Z " />
<glyph glyph-name="onesuperior" unicode="&#xb9;" horiz-adv-x="338" d="M177.64 280 L307.64 280 L398.804 708 L308.804 708 C297.479 683 270.172 644 187.172 644 L174.172 644 L157.558 566 L238.558 566 L177.64 280 Z " />
<glyph glyph-name="ordmasculine" unicode="&#xba;" horiz-adv-x="325" d="M242.594 538 C257.504 608 272.468 636 298.468 636 C326.468 636 326.717 609 311.381 537 C296.258 466 284.507 439 256.507 439 C230.507 439 227.471 467 242.594 538 L242.594 538 Z M429.594 538 C450.255 635 449.804 708 313.804 708 C183.804 708 145.042 634 124.168 536 C103.507 439 104.171 367 241.171 367 C370.171 367 408.933 441 429.594 538 L429.594 538 Z " />
<glyph glyph-name="guillemotright" unicode="&#xbb;" horiz-adv-x="444" d="M63.466 82 L242.896 192 L284.218 386 L151.648 496 L119.698 346 L190.131 287 L95.416 232 L63.466 82 Z M259.466 82 L438.896 192 L480.218 386 L347.648 496 L315.698 346 L386.131 287 L291.416 232 L259.466 82 Z " />
<glyph glyph-name="onequarter" unicode="&#xbc;" horiz-adv-x="778" d="M620.784 168 L551.784 168 L646.048 296 L648.048 296 L620.784 168 Z M441.762 74 L600.762 74 L585 0 L709 0 L724.762 74 L768.762 74 L788.784 168 L744.784 168 L798.46 420 L656.46 420 L461.784 168 L441.762 74 Z M103.397 -31 L202.397 -31 L763.425 725 L664.425 725 L103.397 -31 Z M157.64 280 L287.64 280 L378.804 708 L288.804 708 C277.479 683 250.172 644 167.172 644 L154.172 644 L137.558 566 L218.558 566 L157.64 280 Z " />
<glyph glyph-name="onehalf" unicode="&#xbd;" horiz-adv-x="778" d="M103.397 -31 L202.397 -31 L763.425 725 L664.425 725 L103.397 -31 Z M157.64 280 L287.64 280 L378.804 708 L288.804 708 C277.479 683 250.172 644 167.172 644 L154.172 644 L137.558 566 L218.558 566 L157.64 280 Z M613.066 282 C617.752 304 627.55 350 664.55 350 C690.55 350 692.864 328 687.752 304 C680.936 272 676.315 255 583.47 190 C503.542 134 450.123 71 433 0 L749 0 L769.022 94 L611.022 94 C625.856 112 647.264 128 692.015 155 C793.008 216 806.676 252 817.965 305 C833.088 376 814.164 428 686.164 428 C575.164 428 517.218 386 499.113 301 L495.066 282 L613.066 282 Z " />
<glyph glyph-name="threequarters" unicode="&#xbe;" horiz-adv-x="778" d="M653.784 168 L584.784 168 L679.048 296 L681.048 296 L653.784 168 Z M474.762 74 L633.762 74 L618 0 L742 0 L757.762 74 L801.762 74 L821.784 168 L777.784 168 L831.46 420 L689.46 420 L494.784 168 L474.762 74 Z M143.397 -31 L242.397 -31 L803.425 725 L704.425 725 L143.397 -31 Z M248.114 578 C256.208 616 277.19 630 294.19 630 C312.19 630 320.782 614 316.096 592 C309.493 561 292.594 538 257.594 538 L227.594 538 L210.98 460 L238.98 460 C281.98 460 292.998 446 283.626 402 C275.958 366 258.763 351 235.763 351 C222.763 351 216.467 359 214.236 372 C211.792 384 213.413 401 216.395 415 L86.395 415 C61.474 298 116.149 273 225.149 273 C322.149 273 393.817 309 414.691 407 C426.193 461 411.796 492 349.926 502 L350.352 504 C405.269 513 436.511 547 445.67 590 C463.349 673 426.804 708 318.804 708 C254.804 708 215.674 698 186.201 677 C157.728 656 140.125 625 130.114 578 L248.114 578 Z " />
<glyph glyph-name="questiondown" unicode="&#xbf;" horiz-adv-x="500" d="M322.289 53 C302.267 -41 276.386 -78 233.386 -78 C192.386 -78 183.924 -52 193.935 -5 C214.809 93 283.708 116 336.636 172 C366.665 205 385.759 243 399.604 308 L406.42 340 L256.42 340 L249.391 307 C228.517 209 77.34 180 41.13 10 C15.144 -112 75.808 -184 212.808 -184 C353.808 -184 439.061 -103 468.029 33 L472.289 53 L322.289 53 Z M452.872 544 L296.872 544 L264.922 394 L420.922 394 L452.872 544 Z " />
<glyph glyph-name="Agrave" unicode="&#xc0;" horiz-adv-x="574" d="M403.658 266 L281.658 266 L408.392 584 L410.392 584 L403.658 266 Z M2 0 L176 0 L229.968 136 L400.968 136 L398 0 L572 0 L546.082 714 L336.082 714 L2 0 Z M403.454 758 L509.454 758 L489.7 900 L333.7 900 L403.454 758 Z " />
<glyph glyph-name="Aacute" unicode="&#xc1;" horiz-adv-x="574" d="M403.658 266 L281.658 266 L408.392 584 L410.392 584 L403.658 266 Z M2 0 L176 0 L229.968 136 L400.968 136 L398 0 L572 0 L546.082 714 L336.082 714 L2 0 Z M387.454 758 L493.454 758 L623.7 900 L467.7 900 L387.454 758 Z " />
<glyph glyph-name="Acircumflex" unicode="&#xc2;" horiz-adv-x="574" d="M403.658 266 L281.658 266 L408.392 584 L410.392 584 L403.658 266 Z M2 0 L176 0 L229.968 136 L400.968 136 L398 0 L572 0 L546.082 714 L336.082 714 L2 0 Z M293.454 758 L412.454 758 L465.707 839 L485.454 758 L603.454 758 L562.7 900 L394.7 900 L293.454 758 Z " />
<glyph glyph-name="Atilde" unicode="&#xc3;" horiz-adv-x="574" d="M403.658 266 L281.658 266 L408.392 584 L410.392 584 L403.658 266 Z M2 0 L176 0 L229.968 136 L400.968 136 L398 0 L572 0 L546.082 714 L336.082 714 L2 0 Z M560.061 897 C554.079 883 547.671 867 522.671 867 C507.671 867 493.375 875 474.866 882 C457.57 890 437.061 897 410.061 897 C381.061 897 355.44 880 334.115 855 C312.79 830 297.548 796 287.093 761 L364.093 761 C368.436 772 380.483 791 399.483 791 C425.483 791 462.093 761 511.093 761 C583.093 761 623.494 838 640.061 897 L560.061 897 Z " />
<glyph glyph-name="Adieresis" unicode="&#xc4;" horiz-adv-x="574" d="M403.658 266 L281.658 266 L408.392 584 L410.392 584 L403.658 266 Z M2 0 L176 0 L229.968 136 L400.968 136 L398 0 L572 0 L546.082 714 L336.082 714 L2 0 Z M299.732 764 L423.732 764 L451.422 894 L327.422 894 L299.732 764 Z M475.732 764 L599.732 764 L627.422 894 L503.422 894 L475.732 764 Z " />
<glyph glyph-name="Aring" unicode="&#xc5;" horiz-adv-x="574" d="M403.658 266 L281.658 266 L408.392 584 L410.392 584 L403.658 266 Z M2 0 L176 0 L229.968 136 L400.968 136 L398 0 L572 0 L546.082 714 L336.082 714 L2 0 Z M347.902 854 C333.631 787 376.129 733 443.129 733 C510.129 733 575.631 787 589.902 854 C604.173 921 561.675 975 494.675 975 C427.675 975 362.173 921 347.902 854 L347.902 854 Z M408.902 854 C415.931 887 448.682 914 481.682 914 C514.682 914 535.931 887 528.902 854 C521.873 821 489.122 794 456.122 794 C423.122 794 401.873 821 408.902 854 L408.902 854 Z " />
<glyph glyph-name="AE" unicode="&#xc6;" horiz-adv-x="796" d="M9 0 L183 0 L255.968 136 L405.968 136 L377 0 L767 0 L795.968 136 L561.968 136 L596.687 299 L806.687 299 L835.655 435 L625.655 435 L656.114 578 L881.114 578 L910.082 714 L431.082 714 L9 0 Z M433.658 266 L325.658 266 L492.114 578 L500.114 578 L433.658 266 Z " />
<glyph glyph-name="Ccedilla" unicode="&#xc7;" horiz-adv-x="537" d="M180.191 -93 L199.144 -112 C202.357 -111 215.422 -106 229.422 -106 C254.422 -106 272.44 -120 268.819 -137 C264.772 -156 245.938 -174 210.938 -174 C186.938 -174 159.068 -164 145.133 -159 L113.057 -211 C136.779 -217 164.01 -230 219.01 -230 C296.01 -230 351.743 -189 363.671 -133 C371.978 -94 352.072 -56 290.072 -56 C280.072 -56 270.646 -58 263.22 -60 L301.444 -12 C481.213 1 542.643 111 573.315 255 L578.64 280 L416.64 280 C393.21 170 366.874 98 309.874 98 C235.874 98 243.015 155 287.745 365 C327.576 552 347.208 616 414.208 616 C470.208 616 472.41 570 450.258 466 L612.258 466 L618.648 496 C654.432 664 587.064 728 439.064 728 C201.064 728 152.085 545 113.106 362 C69.015 155 51.787 -1 241.018 -14 L180.191 -93 Z " />
<glyph glyph-name="Egrave" unicode="&#xc8;" horiz-adv-x="500" d="M52 0 L476 0 L504.968 136 L248.968 136 L283.687 299 L513.687 299 L542.655 435 L312.655 435 L343.114 578 L588.114 578 L617.082 714 L204.082 714 L52 0 Z M366.454 758 L472.454 758 L452.7 900 L296.7 900 L366.454 758 Z " />
<glyph glyph-name="Eacute" unicode="&#xc9;" horiz-adv-x="500" d="M52 0 L476 0 L504.968 136 L248.968 136 L283.687 299 L513.687 299 L542.655 435 L312.655 435 L343.114 578 L588.114 578 L617.082 714 L204.082 714 L52 0 Z M350.454 758 L456.454 758 L586.7 900 L430.7 900 L350.454 758 Z " />
<glyph glyph-name="Ecircumflex" unicode="&#xca;" horiz-adv-x="500" d="M52 0 L476 0 L504.968 136 L248.968 136 L283.687 299 L513.687 299 L542.655 435 L312.655 435 L343.114 578 L588.114 578 L617.082 714 L204.082 714 L52 0 Z M256.454 758 L375.454 758 L428.707 839 L448.454 758 L566.454 758 L525.7 900 L357.7 900 L256.454 758 Z " />
<glyph glyph-name="Edieresis" unicode="&#xcb;" horiz-adv-x="500" d="M52 0 L476 0 L504.968 136 L248.968 136 L283.687 299 L513.687 299 L542.655 435 L312.655 435 L343.114 578 L588.114 578 L617.082 714 L204.082 714 L52 0 Z M262.732 764 L386.732 764 L414.422 894 L290.422 894 L262.732 764 Z M438.732 764 L562.732 764 L590.422 894 L466.422 894 L438.732 764 Z " />
<glyph glyph-name="Igrave" unicode="&#xcc;" horiz-adv-x="278" d="M55 0 L223 0 L375.082 714 L207.082 714 L55 0 Z M255.454 758 L361.454 758 L341.7 900 L185.7 900 L255.454 758 Z " />
<glyph glyph-name="Iacute" unicode="&#xcd;" horiz-adv-x="278" d="M55 0 L223 0 L375.082 714 L207.082 714 L55 0 Z M239.454 758 L345.454 758 L475.7 900 L319.7 900 L239.454 758 Z " />
<glyph glyph-name="Icircumflex" unicode="&#xce;" horiz-adv-x="278" d="M55 0 L223 0 L375.082 714 L207.082 714 L55 0 Z M145.454 758 L264.454 758 L317.707 839 L337.454 758 L455.454 758 L414.7 900 L246.7 900 L145.454 758 Z " />
<glyph glyph-name="Idieresis" unicode="&#xcf;" horiz-adv-x="278" d="M55 0 L223 0 L375.082 714 L207.082 714 L55 0 Z M151.732 764 L275.732 764 L303.422 894 L179.422 894 L151.732 764 Z M327.732 764 L451.732 764 L479.422 894 L355.422 894 L327.732 764 Z " />
<glyph glyph-name="Eth" unicode="&#xd0;" horiz-adv-x="574" d="M287.521 317 L349.521 317 L373.377 429 L311.377 429 L345.67 590 L392.67 590 C481.67 590 485.659 543 448.597 369 C403.015 155 369.412 124 291.412 124 L246.412 124 L287.521 317 Z M52 0 L280 0 C501 0 559.773 121 618.94 380 C667.764 628 615.082 714 449.082 714 L204.082 714 L143.377 429 L91.377 429 L67.521 317 L119.521 317 L52 0 Z " />
<glyph glyph-name="Ntilde" unicode="&#xd1;" horiz-adv-x="593" d="M52 0 L202 0 L306.796 492 L308.796 492 L351 0 L541 0 L693.082 714 L537.082 714 L438.25 250 L436.25 250 L397.082 714 L204.082 714 L52 0 Z M570.061 897 C564.079 883 557.671 867 532.671 867 C517.671 867 503.375 875 484.866 882 C467.57 890 447.061 897 420.061 897 C391.061 897 365.44 880 344.115 855 C322.79 830 307.548 796 297.093 761 L374.093 761 C378.436 772 390.483 791 409.483 791 C435.483 791 472.093 761 521.093 761 C593.093 761 633.494 838 650.061 897 L570.061 897 Z " />
<glyph glyph-name="Ograve" unicode="&#xd2;" horiz-adv-x="574" d="M286.041 357 C327.789 553 351.208 616 417.208 616 C485.208 616 481.789 553 440.041 357 C398.293 161 374.874 98 306.874 98 C240.874 98 244.293 161 286.041 357 L286.041 357 Z M614.041 357 C656.215 555 680.064 728 442.064 728 C221.064 728 160.392 584 112.041 357 C63.69 130 63.018 -14 284.018 -14 C522.018 -14 571.867 159 614.041 357 L614.041 357 Z M403.454 758 L509.454 758 L489.7 900 L333.7 900 L403.454 758 Z " />
<glyph glyph-name="Oacute" unicode="&#xd3;" horiz-adv-x="574" d="M286.041 357 C327.789 553 351.208 616 417.208 616 C485.208 616 481.789 553 440.041 357 C398.293 161 374.874 98 306.874 98 C240.874 98 244.293 161 286.041 357 L286.041 357 Z M614.041 357 C656.215 555 680.064 728 442.064 728 C221.064 728 160.392 584 112.041 357 C63.69 130 63.018 -14 284.018 -14 C522.018 -14 571.867 159 614.041 357 L614.041 357 Z M387.454 758 L493.454 758 L623.7 900 L467.7 900 L387.454 758 Z " />
<glyph glyph-name="Ocircumflex" unicode="&#xd4;" horiz-adv-x="574" d="M286.041 357 C327.789 553 351.208 616 417.208 616 C485.208 616 481.789 553 440.041 357 C398.293 161 374.874 98 306.874 98 C240.874 98 244.293 161 286.041 357 L286.041 357 Z M614.041 357 C656.215 555 680.064 728 442.064 728 C221.064 728 160.392 584 112.041 357 C63.69 130 63.018 -14 284.018 -14 C522.018 -14 571.867 159 614.041 357 L614.041 357 Z M293.454 758 L412.454 758 L465.707 839 L485.454 758 L603.454 758 L562.7 900 L394.7 900 L293.454 758 Z " />
<glyph glyph-name="Otilde" unicode="&#xd5;" horiz-adv-x="574" d="M286.041 357 C327.789 553 351.208 616 417.208 616 C485.208 616 481.789 553 440.041 357 C398.293 161 374.874 98 306.874 98 C240.874 98 244.293 161 286.041 357 L286.041 357 Z M614.041 357 C656.215 555 680.064 728 442.064 728 C221.064 728 160.392 584 112.041 357 C63.69 130 63.018 -14 284.018 -14 C522.018 -14 571.867 159 614.041 357 L614.041 357 Z M560.061 897 C554.079 883 547.671 867 522.671 867 C507.671 867 493.375 875 474.866 882 C457.57 890 437.061 897 410.061 897 C381.061 897 355.44 880 334.115 855 C312.79 830 297.548 796 287.093 761 L364.093 761 C368.436 772 380.483 791 399.483 791 C425.483 791 462.093 761 511.093 761 C583.093 761 623.494 838 640.061 897 L560.061 897 Z " />
<glyph glyph-name="Odieresis" unicode="&#xd6;" horiz-adv-x="574" d="M286.041 357 C327.789 553 351.208 616 417.208 616 C485.208 616 481.789 553 440.041 357 C398.293 161 374.874 98 306.874 98 C240.874 98 244.293 161 286.041 357 L286.041 357 Z M614.041 357 C656.215 555 680.064 728 442.064 728 C221.064 728 160.392 584 112.041 357 C63.69 130 63.018 -14 284.018 -14 C522.018 -14 571.867 159 614.041 357 L614.041 357 Z M299.732 764 L423.732 764 L451.422 894 L327.422 894 L299.732 764 Z M475.732 764 L599.732 764 L627.422 894 L503.422 894 L475.732 764 Z " />
<glyph glyph-name="multiply" unicode="&#xd7;" horiz-adv-x="600" d="M78.3 100 L149.13 10 L334.932 164 L455.13 10 L564.3 100 L442.889 253 L629.478 406 L558.648 496 L372.846 342 L252.648 496 L143.478 406 L264.889 253 L78.3 100 Z " />
<glyph glyph-name="Oslash" unicode="&#xd8;" horiz-adv-x="574" d="M454.294 438 L456.294 438 C453.247 419 446.857 389 440.041 357 C398.293 161 374.874 98 306.874 98 C279.874 98 264.217 109 258.968 136 L454.294 438 Z M72.823 -29 L132.646 -58 L174.065 5 C200.296 -8 237.018 -14 284.018 -14 C522.018 -14 571.867 159 614.041 357 C641.518 486 661.652 604 605.71 670 L653.259 743 L593.436 772 L552.017 709 C523.786 722 488.064 728 442.064 728 C221.064 728 160.392 584 112.041 357 C82.008 216 70.578 106 120.372 44 L72.823 -29 Z M271.575 275 L269.575 275 C273.048 296 279.012 324 286.041 357 C327.789 553 351.208 616 417.208 616 C445.208 616 460.865 605 466.901 577 L271.575 275 Z " />
<glyph glyph-name="Ugrave" unicode="&#xd9;" horiz-adv-x="556" d="M665.082 714 L497.082 714 L384.831 187 C372.903 131 343.874 98 298.874 98 C253.874 98 238.903 131 250.831 187 L363.082 714 L195.082 714 L93.268 236 C63.448 96 80.018 -14 275.018 -14 C470.018 -14 533.448 96 563.268 236 L665.082 714 Z M394.454 758 L500.454 758 L480.7 900 L324.7 900 L394.454 758 Z " />
<glyph glyph-name="Uacute" unicode="&#xda;" horiz-adv-x="556" d="M665.082 714 L497.082 714 L384.831 187 C372.903 131 343.874 98 298.874 98 C253.874 98 238.903 131 250.831 187 L363.082 714 L195.082 714 L93.268 236 C63.448 96 80.018 -14 275.018 -14 C470.018 -14 533.448 96 563.268 236 L665.082 714 Z M378.454 758 L484.454 758 L614.7 900 L458.7 900 L378.454 758 Z " />
<glyph glyph-name="Ucircumflex" unicode="&#xdb;" horiz-adv-x="556" d="M665.082 714 L497.082 714 L384.831 187 C372.903 131 343.874 98 298.874 98 C253.874 98 238.903 131 250.831 187 L363.082 714 L195.082 714 L93.268 236 C63.448 96 80.018 -14 275.018 -14 C470.018 -14 533.448 96 563.268 236 L665.082 714 Z M284.454 758 L403.454 758 L456.707 839 L476.454 758 L594.454 758 L553.7 900 L385.7 900 L284.454 758 Z " />
<glyph glyph-name="Udieresis" unicode="&#xdc;" horiz-adv-x="556" d="M665.082 714 L497.082 714 L384.831 187 C372.903 131 343.874 98 298.874 98 C253.874 98 238.903 131 250.831 187 L363.082 714 L195.082 714 L93.268 236 C63.448 96 80.018 -14 275.018 -14 C470.018 -14 533.448 96 563.268 236 L665.082 714 Z M290.732 764 L414.732 764 L442.422 894 L318.422 894 L290.732 764 Z M466.732 764 L590.732 764 L618.422 894 L494.422 894 L466.732 764 Z " />
<glyph glyph-name="Yacute" unicode="&#xdd;" horiz-adv-x="536" d="M184 0 L352 0 L411.853 281 L685.082 714 L505.082 714 L366.637 449 L364.637 449 L341.082 714 L155.082 714 L243.853 281 L184 0 Z M368.454 758 L474.454 758 L604.7 900 L448.7 900 L368.454 758 Z " />
<glyph glyph-name="Thorn" unicode="&#xde;" horiz-adv-x="556" d="M52 0 L220 0 L252.163 151 L326.163 151 C494.163 151 574.333 241 601.597 369 C620.554 458 613.818 586 436.818 586 L344.818 586 L372.082 714 L204.082 714 L52 0 Z M318.406 462 L361.406 462 C429.406 462 438.46 420 426.745 365 C416.521 317 391.575 275 324.575 275 L278.575 275 L318.406 462 Z " />
<glyph glyph-name="germandbls" unicode="&#xdf;" horiz-adv-x="537" d="M49 0 L211 0 L325.168 536 C337.096 592 358.486 622 398.486 622 C433.486 622 452.226 602 438.807 539 C429.648 496 410.915 455 364.915 455 L346.915 455 L323.059 343 L339.059 343 C393.059 343 408.521 317 389.99 230 C371.246 142 346.578 106 296.578 106 C285.578 106 278.791 107 272.004 108 L249 0 C258.361 -3 281.722 -6 306.722 -6 C429.722 -6 510.881 37 550.925 225 C577.976 352 536.774 398 477.839 403 L478.265 405 C548.312 424 586.749 473 602.937 549 C625.728 656 591.064 728 432.064 728 C265.064 728 190.645 665 155.713 501 L49 0 Z " />
<glyph glyph-name="agrave" unicode="&#xe0;" horiz-adv-x="500" d="M265.875 375 C276.886 422 295.637 449 340.637 449 C376.637 449 387.164 428 380.135 395 C371.402 354 360.698 346 308.929 333 C261.373 321 199.243 311 154.557 289 C109.871 267 72.582 214 59.163 151 C34.242 34 77.018 -14 168.018 -14 C222.018 -14 278.982 14 311.206 62 L313.206 62 C309.733 41 307.047 19 309 0 L465 0 C451.112 24 462.188 76 470.921 117 L530.135 395 C554.417 509 505.215 555 372.215 555 C305.215 555 257.298 546 213.76 520 C170.222 494 138.637 449 121.875 375 L265.875 375 Z M218.571 167 C224.961 197 236.582 214 256.351 227 C273.907 239 296.12 240 352.871 267 C348.185 245 341.221 217 331.636 172 C320.134 118 284.874 98 250.874 98 C220.874 98 209.412 124 218.571 167 L218.571 167 Z M332.374 598 L438.374 598 L418.62 740 L262.62 740 L332.374 598 Z " />
<glyph glyph-name="aacute" unicode="&#xe1;" horiz-adv-x="500" d="M265.875 375 C276.886 422 295.637 449 340.637 449 C376.637 449 387.164 428 380.135 395 C371.402 354 360.698 346 308.929 333 C261.373 321 199.243 311 154.557 289 C109.871 267 72.582 214 59.163 151 C34.242 34 77.018 -14 168.018 -14 C222.018 -14 278.982 14 311.206 62 L313.206 62 C309.733 41 307.047 19 309 0 L465 0 C451.112 24 462.188 76 470.921 117 L530.135 395 C554.417 509 505.215 555 372.215 555 C305.215 555 257.298 546 213.76 520 C170.222 494 138.637 449 121.875 375 L265.875 375 Z M218.571 167 C224.961 197 236.582 214 256.351 227 C273.907 239 296.12 240 352.871 267 C348.185 245 341.221 217 331.636 172 C320.134 118 284.874 98 250.874 98 C220.874 98 209.412 124 218.571 167 L218.571 167 Z M316.374 598 L422.374 598 L552.62 740 L396.62 740 L316.374 598 Z " />
<glyph glyph-name="acircumflex" unicode="&#xe2;" horiz-adv-x="500" d="M265.875 375 C276.886 422 295.637 449 340.637 449 C376.637 449 387.164 428 380.135 395 C371.402 354 360.698 346 308.929 333 C261.373 321 199.243 311 154.557 289 C109.871 267 72.582 214 59.163 151 C34.242 34 77.018 -14 168.018 -14 C222.018 -14 278.982 14 311.206 62 L313.206 62 C309.733 41 307.047 19 309 0 L465 0 C451.112 24 462.188 76 470.921 117 L530.135 395 C554.417 509 505.215 555 372.215 555 C305.215 555 257.298 546 213.76 520 C170.222 494 138.637 449 121.875 375 L265.875 375 Z M218.571 167 C224.961 197 236.582 214 256.351 227 C273.907 239 296.12 240 352.871 267 C348.185 245 341.221 217 331.636 172 C320.134 118 284.874 98 250.874 98 C220.874 98 209.412 124 218.571 167 L218.571 167 Z M222.374 598 L341.374 598 L394.627 679 L414.374 598 L532.374 598 L491.62 740 L323.62 740 L222.374 598 Z " />
<glyph glyph-name="atilde" unicode="&#xe3;" horiz-adv-x="500" d="M265.875 375 C276.886 422 295.637 449 340.637 449 C376.637 449 387.164 428 380.135 395 C371.402 354 360.698 346 308.929 333 C261.373 321 199.243 311 154.557 289 C109.871 267 72.582 214 59.163 151 C34.242 34 77.018 -14 168.018 -14 C222.018 -14 278.982 14 311.206 62 L313.206 62 C309.733 41 307.047 19 309 0 L465 0 C451.112 24 462.188 76 470.921 117 L530.135 395 C554.417 509 505.215 555 372.215 555 C305.215 555 257.298 546 213.76 520 C170.222 494 138.637 449 121.875 375 L265.875 375 Z M218.571 167 C224.961 197 236.582 214 256.351 227 C273.907 239 296.12 240 352.871 267 C348.185 245 341.221 217 331.636 172 C320.134 118 284.874 98 250.874 98 C220.874 98 209.412 124 218.571 167 L218.571 167 Z M488.981 737 C482.999 723 476.591 707 451.591 707 C436.591 707 422.295 715 403.786 722 C386.49 730 365.981 737 338.981 737 C309.981 737 284.36 720 263.035 695 C241.71 670 226.468 636 216.013 601 L293.013 601 C297.356 612 309.403 631 328.403 631 C354.403 631 391.013 601 440.013 601 C512.013 601 552.414 678 568.981 737 L488.981 737 Z " />
<glyph glyph-name="adieresis" unicode="&#xe4;" horiz-adv-x="500" d="M265.875 375 C276.886 422 295.637 449 340.637 449 C376.637 449 387.164 428 380.135 395 C371.402 354 360.698 346 308.929 333 C261.373 321 199.243 311 154.557 289 C109.871 267 72.582 214 59.163 151 C34.242 34 77.018 -14 168.018 -14 C222.018 -14 278.982 14 311.206 62 L313.206 62 C309.733 41 307.047 19 309 0 L465 0 C451.112 24 462.188 76 470.921 117 L530.135 395 C554.417 509 505.215 555 372.215 555 C305.215 555 257.298 546 213.76 520 C170.222 494 138.637 449 121.875 375 L265.875 375 Z M218.571 167 C224.961 197 236.582 214 256.351 227 C273.907 239 296.12 240 352.871 267 C348.185 245 341.221 217 331.636 172 C320.134 118 284.874 98 250.874 98 C220.874 98 209.412 124 218.571 167 L218.571 167 Z M228.652 604 L352.652 604 L380.342 734 L256.342 734 L228.652 604 Z M404.652 604 L528.652 604 L556.342 734 L432.342 734 L404.652 604 Z " />
<glyph glyph-name="aring" unicode="&#xe5;" horiz-adv-x="500" d="M265.875 375 C276.886 422 295.637 449 340.637 449 C376.637 449 387.164 428 380.135 395 C371.402 354 360.698 346 308.929 333 C261.373 321 199.243 311 154.557 289 C109.871 267 72.582 214 59.163 151 C34.242 34 77.018 -14 168.018 -14 C222.018 -14 278.982 14 311.206 62 L313.206 62 C309.733 41 307.047 19 309 0 L465 0 C451.112 24 462.188 76 470.921 117 L530.135 395 C554.417 509 505.215 555 372.215 555 C305.215 555 257.298 546 213.76 520 C170.222 494 138.637 449 121.875 375 L265.875 375 Z M218.571 167 C224.961 197 236.582 214 256.351 227 C273.907 239 296.12 240 352.871 267 C348.185 245 341.221 217 331.636 172 C320.134 118 284.874 98 250.874 98 C220.874 98 209.412 124 218.571 167 L218.571 167 Z M280.017 709 C265.746 642 308.244 588 375.244 588 C442.244 588 507.746 642 522.017 709 C536.288 776 493.79 830 426.79 830 C359.79 830 294.288 776 280.017 709 L280.017 709 Z M341.017 709 C348.046 742 380.797 769 413.797 769 C446.797 769 468.046 742 461.017 709 C453.988 676 421.237 649 388.237 649 C355.237 649 333.988 676 341.017 709 L341.017 709 Z " />
<glyph glyph-name="ae" unicode="&#xe6;" horiz-adv-x="741" d="M265.875 375 C276.886 422 295.637 449 340.637 449 C376.637 449 387.164 428 380.135 395 C371.402 354 360.698 346 308.929 333 C261.373 321 199.243 311 154.557 289 C109.871 267 72.582 214 59.163 151 C32.325 25 91.018 -14 183.018 -14 C262.018 -14 315.621 17 350.975 75 C361.047 19 398.018 -14 501.018 -14 C635.018 -14 721.863 51 753.405 185 L603.405 185 C584.921 117 565.318 86 523.318 86 C476.318 86 473.051 127 490.943 211 L497.972 244 L770.972 244 L779.918 286 C821.666 482 767.215 555 645.215 555 C588.215 555 531.446 542 489.222 494 C484.843 511 462.215 555 361.215 555 C305.215 555 257.298 546 213.76 520 C170.222 494 138.637 449 121.875 375 L265.875 375 Z M218.571 167 C224.961 197 236.582 214 256.351 227 C273.907 239 296.12 240 352.871 267 C348.185 245 341.221 217 331.636 172 C320.134 118 284.874 98 250.874 98 C220.874 98 209.412 124 218.571 167 L218.571 167 Z M517.994 338 C533.543 411 551.915 455 604.915 455 C649.915 455 651.182 414 634.994 338 L517.994 338 Z " />
<glyph glyph-name="ccedilla" unicode="&#xe7;" horiz-adv-x="481" d="M152.191 -93 L171.144 -112 C174.357 -111 187.422 -106 201.422 -106 C226.422 -106 244.44 -120 240.819 -137 C236.772 -156 217.938 -174 182.938 -174 C158.938 -174 131.068 -164 117.133 -159 L85.057 -211 C108.779 -217 136.01 -230 191.01 -230 C268.01 -230 323.743 -189 335.671 -133 C343.978 -94 324.072 -56 262.072 -56 C252.072 -56 242.646 -58 235.22 -60 L272.444 -12 C401.935 -5 473.632 64 507.86 220 L357.86 220 C335.625 125 317.596 92 269.596 92 C215.596 92 220.524 148 246.51 270 C270.153 381 291.637 449 345.637 449 C388.637 449 399.608 416 382.781 337 L532.781 337 C560.258 466 535.215 555 365.215 555 C189.215 555 121.146 442 88.77 290 C56.181 137 41.213 1 214.444 -12 L152.191 -93 Z " />
<glyph glyph-name="egrave" unicode="&#xe8;" horiz-adv-x="481" d="M513.972 244 C553.164 428 566.215 555 365.215 555 C189.215 555 121.146 442 88.77 290 C54.477 129 40.018 -14 244.018 -14 C378.018 -14 464.863 51 496.405 185 L346.405 185 C327.921 117 308.318 86 266.318 86 C219.318 86 216.051 127 233.943 211 L240.972 244 L513.972 244 Z M260.994 338 C276.543 411 294.915 455 347.915 455 C392.915 455 394.182 414 377.994 338 L260.994 338 Z M329.374 598 L435.374 598 L415.62 740 L259.62 740 L329.374 598 Z " />
<glyph glyph-name="eacute" unicode="&#xe9;" horiz-adv-x="481" d="M513.972 244 C553.164 428 566.215 555 365.215 555 C189.215 555 121.146 442 88.77 290 C54.477 129 40.018 -14 244.018 -14 C378.018 -14 464.863 51 496.405 185 L346.405 185 C327.921 117 308.318 86 266.318 86 C219.318 86 216.051 127 233.943 211 L240.972 244 L513.972 244 Z M260.994 338 C276.543 411 294.915 455 347.915 455 C392.915 455 394.182 414 377.994 338 L260.994 338 Z M313.374 598 L419.374 598 L549.62 740 L393.62 740 L313.374 598 Z " />
<glyph glyph-name="ecircumflex" unicode="&#xea;" horiz-adv-x="481" d="M513.972 244 C553.164 428 566.215 555 365.215 555 C189.215 555 121.146 442 88.77 290 C54.477 129 40.018 -14 244.018 -14 C378.018 -14 464.863 51 496.405 185 L346.405 185 C327.921 117 308.318 86 266.318 86 C219.318 86 216.051 127 233.943 211 L240.972 244 L513.972 244 Z M260.994 338 C276.543 411 294.915 455 347.915 455 C392.915 455 394.182 414 377.994 338 L260.994 338 Z M219.374 598 L338.374 598 L391.627 679 L411.374 598 L529.374 598 L488.62 740 L320.62 740 L219.374 598 Z " />
<glyph glyph-name="edieresis" unicode="&#xeb;" horiz-adv-x="481" d="M513.972 244 C553.164 428 566.215 555 365.215 555 C189.215 555 121.146 442 88.77 290 C54.477 129 40.018 -14 244.018 -14 C378.018 -14 464.863 51 496.405 185 L346.405 185 C327.921 117 308.318 86 266.318 86 C219.318 86 216.051 127 233.943 211 L240.972 244 L513.972 244 Z M260.994 338 C276.543 411 294.915 455 347.915 455 C392.915 455 394.182 414 377.994 338 L260.994 338 Z M225.652 604 L349.652 604 L377.342 734 L253.342 734 L225.652 604 Z M401.652 604 L525.652 604 L553.342 734 L429.342 734 L401.652 604 Z " />
<glyph glyph-name="igrave" unicode="&#xec;" horiz-adv-x="260" d="M49 0 L211 0 L326.233 541 L164.233 541 L49 0 Z M212.374 598 L318.374 598 L298.62 740 L142.62 740 L212.374 598 Z " />
<glyph glyph-name="iacute" unicode="&#xed;" horiz-adv-x="260" d="M49 0 L211 0 L326.233 541 L164.233 541 L49 0 Z M196.374 598 L302.374 598 L432.62 740 L276.62 740 L196.374 598 Z " />
<glyph glyph-name="icircumflex" unicode="&#xee;" horiz-adv-x="260" d="M49 0 L211 0 L326.233 541 L164.233 541 L49 0 Z M102.374 598 L221.374 598 L274.627 679 L294.374 598 L412.374 598 L371.62 740 L203.62 740 L102.374 598 Z " />
<glyph glyph-name="idieresis" unicode="&#xef;" horiz-adv-x="260" d="M49 0 L211 0 L326.233 541 L164.233 541 L49 0 Z M108.652 604 L232.652 604 L260.342 734 L136.342 734 L108.652 604 Z M284.652 604 L408.652 604 L436.342 734 L312.342 734 L284.652 604 Z " />
<glyph glyph-name="eth" unicode="&#xf0;" horiz-adv-x="500" d="M365.528 256 C339.542 134 320.596 92 270.596 92 C222.596 92 217.968 136 243.528 256 C269.088 376 292.46 420 340.46 420 C390.46 420 391.514 378 365.528 256 L365.528 256 Z M221.984 568 L312.208 616 C340.54 580 366.446 542 385.778 506 L383.352 504 C360.76 520 340.038 526 312.038 526 C162.038 526 107.514 378 81.315 255 C48.513 101 49.018 -14 247.018 -14 C434.018 -14 495.152 104 527.741 257 C571.406 462 530.984 568 441.905 685 L532.916 732 L488.927 779 L403.129 733 C386.389 753 367.862 774 348.548 796 L226.934 718 C242.526 702 258.692 684 273.645 665 L182.208 616 L221.984 568 Z " />
<glyph glyph-name="ntilde" unicode="&#xf1;" horiz-adv-x="519" d="M45 0 L207 0 L282.402 354 C293.691 407 325.803 431 356.803 431 C386.803 431 398.904 408 390.597 369 L312 0 L474 0 L560.265 405 C582.417 509 543.215 555 451.215 555 C391.215 555 337.825 525 304.601 477 L302.601 477 L316.233 541 L160.233 541 L45 0 Z M498.981 737 C492.999 723 486.591 707 461.591 707 C446.591 707 432.295 715 413.786 722 C396.49 730 375.981 737 348.981 737 C319.981 737 294.36 720 273.035 695 C251.71 670 236.468 636 226.013 601 L303.013 601 C307.356 612 319.403 631 338.403 631 C364.403 631 401.013 601 450.013 601 C522.013 601 562.414 678 578.981 737 L498.981 737 Z " />
<glyph glyph-name="ograve" unicode="&#xf2;" horiz-adv-x="500" d="M368.51 270 C340.181 137 320.596 92 270.596 92 C222.596 92 218.607 139 246.723 271 C274.626 402 298.637 449 346.637 449 C396.637 449 397.052 404 368.51 270 L368.51 270 Z M247.018 -14 C434.018 -14 496.43 110 530.936 272 C565.442 434 566.215 555 368.215 555 C181.215 555 118.803 431 84.297 269 C49.791 107 49.018 -14 247.018 -14 L247.018 -14 Z M332.374 598 L438.374 598 L418.62 740 L262.62 740 L332.374 598 Z " />
<glyph glyph-name="oacute" unicode="&#xf3;" horiz-adv-x="500" d="M368.51 270 C340.181 137 320.596 92 270.596 92 C222.596 92 218.607 139 246.723 271 C274.626 402 298.637 449 346.637 449 C396.637 449 397.052 404 368.51 270 L368.51 270 Z M247.018 -14 C434.018 -14 496.43 110 530.936 272 C565.442 434 566.215 555 368.215 555 C181.215 555 118.803 431 84.297 269 C49.791 107 49.018 -14 247.018 -14 L247.018 -14 Z M316.374 598 L422.374 598 L552.62 740 L396.62 740 L316.374 598 Z " />
<glyph glyph-name="ocircumflex" unicode="&#xf4;" horiz-adv-x="500" d="M368.51 270 C340.181 137 320.596 92 270.596 92 C222.596 92 218.607 139 246.723 271 C274.626 402 298.637 449 346.637 449 C396.637 449 397.052 404 368.51 270 L368.51 270 Z M247.018 -14 C434.018 -14 496.43 110 530.936 272 C565.442 434 566.215 555 368.215 555 C181.215 555 118.803 431 84.297 269 C49.791 107 49.018 -14 247.018 -14 L247.018 -14 Z M222.374 598 L341.374 598 L394.627 679 L414.374 598 L532.374 598 L491.62 740 L323.62 740 L222.374 598 Z " />
<glyph glyph-name="otilde" unicode="&#xf5;" horiz-adv-x="500" d="M368.51 270 C340.181 137 320.596 92 270.596 92 C222.596 92 218.607 139 246.723 271 C274.626 402 298.637 449 346.637 449 C396.637 449 397.052 404 368.51 270 L368.51 270 Z M247.018 -14 C434.018 -14 496.43 110 530.936 272 C565.442 434 566.215 555 368.215 555 C181.215 555 118.803 431 84.297 269 C49.791 107 49.018 -14 247.018 -14 L247.018 -14 Z M488.981 737 C482.999 723 476.591 707 451.591 707 C436.591 707 422.295 715 403.786 722 C386.49 730 365.981 737 338.981 737 C309.981 737 284.36 720 263.035 695 C241.71 670 226.468 636 216.013 601 L293.013 601 C297.356 612 309.403 631 328.403 631 C354.403 631 391.013 601 440.013 601 C512.013 601 552.414 678 568.981 737 L488.981 737 Z " />
<glyph glyph-name="odieresis" unicode="&#xf6;" horiz-adv-x="500" d="M368.51 270 C340.181 137 320.596 92 270.596 92 C222.596 92 218.607 139 246.723 271 C274.626 402 298.637 449 346.637 449 C396.637 449 397.052 404 368.51 270 L368.51 270 Z M247.018 -14 C434.018 -14 496.43 110 530.936 272 C565.442 434 566.215 555 368.215 555 C181.215 555 118.803 431 84.297 269 C49.791 107 49.018 -14 247.018 -14 L247.018 -14 Z M228.652 604 L352.652 604 L380.342 734 L256.342 734 L228.652 604 Z M404.652 604 L528.652 604 L556.342 734 L432.342 734 L404.652 604 Z " />
<glyph glyph-name="divide" unicode="&#xf7;" horiz-adv-x="600" d="M87.044 188 L593.044 188 L620.734 318 L114.734 318 L87.044 188 Z M211.733 41 C200.231 -13 234.072 -56 288.072 -56 C342.072 -56 394.231 -13 405.733 41 C417.235 95 383.394 138 329.394 138 C275.394 138 223.235 95 211.733 41 L211.733 41 Z M302.045 465 C290.543 411 324.384 368 378.384 368 C432.384 368 484.543 411 496.045 465 C507.547 519 473.706 562 419.706 562 C365.706 562 313.547 519 302.045 465 L302.045 465 Z " />
<glyph glyph-name="oslash" unicode="&#xf8;" horiz-adv-x="500" d="M35.823 -29 L86.368 -64 L140.065 5 C165.296 -8 201.018 -14 247.018 -14 C458.018 -14 504.098 146 530.51 270 C551.384 368 559.424 448 524.074 498 L579.41 570 L528.865 605 L475.168 536 C449.937 549 414.215 555 368.215 555 C157.215 555 111.135 395 84.723 271 C63.849 173 55.596 92 92.159 43 L35.823 -29 Z M374.391 307 L376.391 307 L368.51 270 C345.08 160 323.596 92 269.596 92 C247.596 92 234.726 102 230.986 122 L374.391 307 Z M240.629 233 L238.629 233 L246.723 271 C270.153 381 291.637 449 345.637 449 C367.637 449 380.507 439 384.247 419 L240.629 233 Z " />
<glyph glyph-name="ugrave" unicode="&#xf9;" horiz-adv-x="519" d="M589.233 541 L427.233 541 L351.831 187 C340.542 134 308.43 110 277.43 110 C247.43 110 235.329 133 243.636 172 L322.233 541 L160.233 541 L73.968 136 C51.816 32 91.018 -14 183.018 -14 C243.018 -14 296.408 16 329.632 64 L331.632 64 L318 0 L474 0 L589.233 541 Z M342.374 598 L448.374 598 L428.62 740 L272.62 740 L342.374 598 Z " />
<glyph glyph-name="uacute" unicode="&#xfa;" horiz-adv-x="519" d="M589.233 541 L427.233 541 L351.831 187 C340.542 134 308.43 110 277.43 110 C247.43 110 235.329 133 243.636 172 L322.233 541 L160.233 541 L73.968 136 C51.816 32 91.018 -14 183.018 -14 C243.018 -14 296.408 16 329.632 64 L331.632 64 L318 0 L474 0 L589.233 541 Z M326.374 598 L432.374 598 L562.62 740 L406.62 740 L326.374 598 Z " />
<glyph glyph-name="ucircumflex" unicode="&#xfb;" horiz-adv-x="519" d="M589.233 541 L427.233 541 L351.831 187 C340.542 134 308.43 110 277.43 110 C247.43 110 235.329 133 243.636 172 L322.233 541 L160.233 541 L73.968 136 C51.816 32 91.018 -14 183.018 -14 C243.018 -14 296.408 16 329.632 64 L331.632 64 L318 0 L474 0 L589.233 541 Z M232.374 598 L351.374 598 L404.627 679 L424.374 598 L542.374 598 L501.62 740 L333.62 740 L232.374 598 Z " />
<glyph glyph-name="udieresis" unicode="&#xfc;" horiz-adv-x="519" d="M589.233 541 L427.233 541 L351.831 187 C340.542 134 308.43 110 277.43 110 C247.43 110 235.329 133 243.636 172 L322.233 541 L160.233 541 L73.968 136 C51.816 32 91.018 -14 183.018 -14 C243.018 -14 296.408 16 329.632 64 L331.632 64 L318 0 L474 0 L589.233 541 Z M238.652 604 L362.652 604 L390.342 734 L266.342 734 L238.652 604 Z M414.652 604 L538.652 604 L566.342 734 L442.342 734 L414.652 604 Z " />
<glyph glyph-name="yacute" unicode="&#xfd;" horiz-adv-x="481" d="M162.148 -4 C143.137 -51 112.368 -64 81.368 -64 C68.368 -64 54.794 -62 42.22 -60 L17.938 -174 C38.512 -176 61.512 -176 87.512 -176 C213.512 -176 258.541 -143 325.148 -4 L586.233 541 L424.233 541 L280.506 162 L278.506 162 L293.233 541 L125.233 541 L162.148 -4 Z M307.374 598 L413.374 598 L543.62 740 L387.62 740 L307.374 598 Z " />
<glyph glyph-name="thorn" unicode="&#xfe;" horiz-adv-x="519" d="M7.512 -176 L169.512 -176 L219.567 59 L221.567 59 C236.213 1 282.018 -14 327.018 -14 C460.018 -14 509.791 107 545.575 275 C588.601 477 547.215 555 438.215 555 C372.215 555 330.056 512 310.175 475 L308.175 475 L359.082 714 L197.082 714 L7.512 -176 Z M262.362 274 C284.727 379 307.081 437 355.081 437 C416.081 437 400.402 354 381.871 267 C360.997 169 344.152 104 285.152 104 C230.152 104 241.914 178 262.362 274 L262.362 274 Z " />
<glyph glyph-name="ydieresis" unicode="&#xff;" horiz-adv-x="481" d="M162.148 -4 C143.137 -51 112.368 -64 81.368 -64 C68.368 -64 54.794 -62 42.22 -60 L17.938 -174 C38.512 -176 61.512 -176 87.512 -176 C213.512 -176 258.541 -143 325.148 -4 L586.233 541 L424.233 541 L280.506 162 L278.506 162 L293.233 541 L125.233 541 L162.148 -4 Z M219.652 604 L343.652 604 L371.342 734 L247.342 734 L219.652 604 Z M395.652 604 L519.652 604 L547.342 734 L423.342 734 L395.652 604 Z " />
<glyph glyph-name="dotlessi" unicode="&#x131;" horiz-adv-x="260" d="M49 0 L211 0 L326.233 541 L164.233 541 L49 0 Z " />
<glyph glyph-name="Lslash" unicode="&#x141;" horiz-adv-x="463" d="M52 0 L463 0 L491.968 136 L248.968 136 L291.568 336 L427.969 413 L458.215 555 L321.814 478 L372.082 714 L204.082 714 L130.597 369 L60.077 329 L29.831 187 L100.351 227 L52 0 Z " />
<glyph glyph-name="lslash" unicode="&#x142;" horiz-adv-x="260" d="M49 0 L211 0 L287.041 357 L343.07 390 L372.038 526 L316.009 493 L363.082 714 L201.082 714 L131.857 389 L75.828 356 L46.86 220 L102.889 253 L49 0 Z " />
<glyph glyph-name="OE" unicode="&#x152;" horiz-adv-x="778" d="M383 0 L762 0 L790.968 136 L549.968 136 L584.687 299 L803.687 299 L832.655 435 L613.655 435 L644.114 578 L876.114 578 L905.082 714 L533.082 714 L525.627 679 C498.082 714 454.064 728 407.064 728 C191.064 728 143.991 507 112.041 357 C68.163 151 53.018 -14 252.018 -14 C302.018 -14 355.065 5 390.881 37 L383 0 Z M286.041 357 C319.269 513 341.208 616 419.208 616 C471.208 616 476.54 580 475.298 546 C474.056 512 455.525 425 441.041 357 C426.557 289 408.026 202 394.784 168 C381.542 134 360.874 98 308.874 98 C230.874 98 252.813 201 286.041 357 L286.041 357 Z " />
<glyph glyph-name="oe" unicode="&#x153;" horiz-adv-x="741" d="M779.972 244 L789.344 288 C822.572 444 807.215 555 651.215 555 C588.215 555 539.594 538 492.518 486 C472.316 532 433.215 555 359.215 555 C179.215 555 117.951 427 83.445 265 C39.993 61 89.018 -14 225.018 -14 C290.018 -14 346.574 -2 393.141 57 C405.408 16 442.018 -14 526.018 -14 C589.018 -14 638.426 2 677.455 35 C716.271 67 744.921 117 762.405 185 L612.405 185 C593.921 117 574.318 86 535.318 86 C491.318 86 488.051 127 505.943 211 L512.972 244 L779.972 244 Z M246.51 270 C270.153 381 291.637 449 345.637 449 C399.637 449 394.709 393 368.297 269 C345.08 160 323.596 92 269.596 92 C215.596 92 220.524 148 246.51 270 L246.51 270 Z M532.994 338 C548.543 411 566.915 455 616.915 455 C658.915 455 660.182 414 643.994 338 L532.994 338 Z " />
<glyph glyph-name="Scaron" unicode="&#x160;" horiz-adv-x="537" d="M75.434 218 L65.636 172 C33.899 23 139.018 -14 261.018 -14 C415.018 -14 518.863 51 553.369 213 C607.045 465 284.07 390 315.807 539 C326.883 591 357.208 616 399.208 616 C424.208 616 438.504 608 444.883 591 C451.475 575 450.15 550 442.908 516 L604.908 516 L608.529 533 C631.959 643 590.064 728 422.064 728 C249.064 728 167.616 632 143.334 518 C86.463 251 411.781 337 378.979 183 C370.246 142 343.874 98 284.874 98 C226.874 98 220.607 139 232.109 193 L237.434 218 L75.434 218 Z M346.454 758 L514.454 758 L615.7 900 L497.7 900 L443.447 819 L424.7 900 L305.7 900 L346.454 758 Z " />
<glyph glyph-name="scaron" unicode="&#x161;" horiz-adv-x="463" d="M61.636 172 L56.524 148 C33.52 40 83.018 -14 228.018 -14 C362.018 -14 449.502 54 472.719 163 C517.449 373 244.817 309 265.265 405 C271.442 434 287.915 455 330.915 455 C364.915 455 381.146 442 371.135 395 L369.005 385 L513.005 385 L516.839 403 C533.453 481 505.215 555 353.215 555 C223.215 555 135.5 500 112.496 392 C88.214 278 146.676 252 270.091 207 C316.47 190 323.358 166 318.033 141 C311.43 110 286.318 86 248.318 86 C222.318 86 209.448 96 203.643 111 C199.051 127 201.524 148 205.636 172 L61.636 172 Z M275.374 598 L443.374 598 L544.62 740 L426.62 740 L372.367 659 L353.62 740 L234.62 740 L275.374 598 Z " />
<glyph glyph-name="Ydieresis" unicode="&#x178;" horiz-adv-x="536" d="M184 0 L352 0 L411.853 281 L685.082 714 L505.082 714 L366.637 449 L364.637 449 L341.082 714 L155.082 714 L243.853 281 L184 0 Z M280.732 764 L404.732 764 L432.422 894 L308.422 894 L280.732 764 Z M456.732 764 L580.732 764 L608.422 894 L484.422 894 L456.732 764 Z " />
<glyph glyph-name="Zcaron" unicode="&#x17d;" horiz-adv-x="481" d="M23 0 L458 0 L486.968 136 L241.968 136 L584.948 596 L610.082 714 L194.082 714 L165.114 578 L388.114 578 L49.412 124 L23 0 Z M318.454 758 L486.454 758 L587.7 900 L469.7 900 L415.447 819 L396.7 900 L277.7 900 L318.454 758 Z " />
<glyph glyph-name="zcaron" unicode="&#x17e;" horiz-adv-x="463" d="M31 0 L432 0 L458.412 124 L243.412 124 L515.821 417 L542.233 541 L155.233 541 L128.821 417 L323.821 417 L57.412 124 L31 0 Z M275.374 598 L443.374 598 L544.62 740 L426.62 740 L372.367 659 L353.62 740 L234.62 740 L275.374 598 Z " />
<glyph glyph-name="florin" unicode="&#x192;" horiz-adv-x="520" d="M-54.784 -168 C-37.636 -172 -2.488 -176 33.512 -176 C162.512 -176 224.996 -108 269.426 2 L401.651 327 L512.651 327 L551.673 421 L439.673 421 L475.204 508 C509.522 594 532.504 608 584.504 608 C595.504 608 604.291 607 616.078 606 L660.017 709 C627.656 712 602.082 714 576.082 714 C457.082 714 384.793 661 342.854 558 L286.673 421 L179.673 421 L140.651 327 L248.651 327 L123.047 19 C93.498 -54 70.09 -70 26.09 -70 C9.09 -70 -3.697 -69 -12.484 -68 L-54.784 -168 Z " />
<glyph glyph-name="circumflex" unicode="&#x2c6;" horiz-adv-x="260" d="M102.374 598 L221.374 598 L274.627 679 L294.374 598 L412.374 598 L371.62 740 L203.62 740 L102.374 598 Z " />
<glyph glyph-name="caron" unicode="&#x2c7;" horiz-adv-x="260" d="M173.374 598 L341.374 598 L442.62 740 L324.62 740 L270.367 659 L251.62 740 L132.62 740 L173.374 598 Z " />
<glyph glyph-name="breve" unicode="&#x2d8;" horiz-adv-x="260" d="M273.988 676 C240.988 676 211.313 701 214.62 740 L142.62 740 C126.793 661 156.374 598 257.374 598 C358.374 598 414.793 661 432.62 740 L360.62 740 C347.313 701 306.988 676 273.988 676 L273.988 676 Z " />
<glyph glyph-name="dotaccent" unicode="&#x2d9;" horiz-adv-x="260" d="M224.342 734 L196.652 604 L320.652 604 L348.342 734 L224.342 734 Z " />
<glyph glyph-name="ring" unicode="&#x2da;" horiz-adv-x="260" d="M160.017 709 C145.746 642 188.244 588 255.244 588 C322.244 588 387.746 642 402.017 709 C416.288 776 373.79 830 306.79 830 C239.79 830 174.288 776 160.017 709 L160.017 709 Z M221.017 709 C228.046 742 260.797 769 293.797 769 C326.797 769 348.046 742 341.017 709 C333.988 676 301.237 649 268.237 649 C235.237 649 213.988 676 221.017 709 L221.017 709 Z " />
<glyph glyph-name="ogonek" unicode="&#x2db;" horiz-adv-x="260" d="M179.346 -158 C160.216 -168 139.938 -174 119.938 -174 C88.938 -174 73.346 -158 79.949 -127 C87.83 -90 129.776 -48 209 0 L135 0 C50.758 -34 -4.253 -81 -17.033 -141 C-28.961 -197 4.01 -230 71.01 -230 C113.01 -230 160.353 -219 192.761 -203 L179.346 -158 Z " />
<glyph glyph-name="tilde" unicode="&#x2dc;" horiz-adv-x="260" d="M368.981 737 C362.999 723 356.591 707 331.591 707 C316.591 707 302.295 715 283.786 722 C266.49 730 245.981 737 218.981 737 C189.981 737 164.36 720 143.035 695 C121.71 670 106.468 636 96.013 601 L173.013 601 C177.356 612 189.403 631 208.403 631 C234.403 631 271.013 601 320.013 601 C392.013 601 432.414 678 448.981 737 L368.981 737 Z " />
<glyph glyph-name="hungarumlaut" unicode="&#x2dd;" horiz-adv-x="260" d="M96.374 598 L202.374 598 L332.62 740 L176.62 740 L96.374 598 Z M296.374 598 L402.374 598 L532.62 740 L376.62 740 L296.374 598 Z " />
<glyph glyph-name="endash" unicode="&#x2013;" horiz-adv-x="500" d="M48.351 227 L548.351 227 L574.763 351 L74.763 351 L48.351 227 Z " />
<glyph glyph-name="emdash" unicode="&#x2014;" horiz-adv-x="1000" d="M48.351 227 L1048.35 227 L1074.76 351 L74.763 351 L48.351 227 Z " />
<glyph glyph-name="quoteleft" unicode="&#x2018;" horiz-adv-x="260" d="M129.745 365 L285.745 365 L322.807 539 L260.807 539 C274.865 605 298.468 636 343.468 636 L360.082 714 C222.378 706 182.782 614 161.482 514 L129.745 365 Z " />
<glyph glyph-name="quoteright" unicode="&#x2019;" horiz-adv-x="260" d="M360.082 714 L204.082 714 L167.02 540 L229.02 540 C214.962 474 191.359 443 146.359 443 L129.745 365 C267.449 373 307.045 465 328.345 565 L360.082 714 Z " />
<glyph glyph-name="quotesinglbase" unicode="&#x201a;" horiz-adv-x="260" d="M53.278 6 L115.278 6 C101.22 -60 77.617 -91 32.617 -91 L16.003 -169 C153.707 -161 193.303 -69 214.603 31 L246.34 180 L90.34 180 L53.278 6 Z " />
<glyph glyph-name="quotedblleft" unicode="&#x201c;" horiz-adv-x="481" d="M128.745 365 L284.745 365 L321.807 539 L259.807 539 C273.865 605 297.468 636 342.468 636 L359.082 714 C221.378 706 181.782 614 160.482 514 L128.745 365 Z M351.745 365 L507.745 365 L544.807 539 L482.807 539 C496.865 605 520.468 636 565.468 636 L582.082 714 C444.378 706 404.782 614 383.482 514 L351.745 365 Z " />
<glyph glyph-name="quotedblright" unicode="&#x201d;" horiz-adv-x="481" d="M166.02 540 L228.02 540 C213.962 474 190.359 443 145.359 443 L128.745 365 C266.449 373 306.045 465 327.345 565 L359.082 714 L203.082 714 L166.02 540 Z M389.02 540 L451.02 540 C436.962 474 413.359 443 368.359 443 L351.745 365 C489.449 373 529.045 465 550.345 565 L582.082 714 L426.082 714 L389.02 540 Z " />
<glyph glyph-name="quotedblbase" unicode="&#x201e;" horiz-adv-x="481" d="M52.278 6 L114.278 6 C100.22 -60 76.617 -91 31.617 -91 L15.003 -169 C152.707 -161 192.303 -69 213.603 31 L245.34 180 L89.34 180 L52.278 6 Z M275.278 6 L337.278 6 C323.22 -60 299.617 -91 254.617 -91 L238.003 -169 C375.707 -161 415.303 -69 436.603 31 L468.34 180 L312.34 180 L275.278 6 Z " />
<glyph glyph-name="dagger" unicode="&#x2020;" horiz-adv-x="520" d="M149.606 -138 L311.606 -138 L424.283 391 L591.283 391 L618.973 521 L451.973 521 L493.082 714 L331.082 714 L289.973 521 L122.973 521 L95.283 391 L262.283 391 L149.606 -138 Z " />
<glyph glyph-name="daggerdbl" unicode="&#x2021;" horiz-adv-x="520" d="M149.606 -138 L311.606 -138 L352.502 54 L518.502 54 L546.192 184 L380.192 184 L424.283 391 L591.283 391 L618.973 521 L451.973 521 L493.082 714 L331.082 714 L289.973 521 L122.973 521 L95.283 391 L262.283 391 L218.192 184 L51.192 184 L23.502 54 L190.502 54 L149.606 -138 Z " />
<glyph glyph-name="bullet" unicode="&#x2022;" horiz-adv-x="500" d="M148.041 357 C127.167 259 190.127 179 288.127 179 C386.127 179 483.167 259 504.041 357 C524.915 455 461.955 535 363.955 535 C265.955 535 168.915 455 148.041 357 L148.041 357 Z " />
<glyph glyph-name="ellipsis" unicode="&#x2026;" horiz-adv-x="1000" d="M89 0 L245 0 L283.34 180 L127.34 180 L89 0 Z M422 0 L578 0 L616.34 180 L460.34 180 L422 0 Z M755 0 L911 0 L949.34 180 L793.34 180 L755 0 Z " />
<glyph glyph-name="perthousand" unicode="&#x2030;" horiz-adv-x="1111" d="M939.914 178 C950.694 238 967.131 287 1003.13 287 C1032.13 287 1040.15 273 1020.98 183 C1002.45 96 991.697 69 956.697 69 C925.697 69 923.513 101 939.914 178 L939.914 178 Z M172.018 -14 L273.018 -14 L740.804 708 L639.804 708 L172.018 -14 Z M238.908 516 C249.688 576 266.125 625 302.125 625 C331.125 625 339.143 611 319.973 521 C301.442 434 290.691 407 255.691 407 C224.691 407 222.507 439 238.908 516 L238.908 516 Z M821.914 178 C799.336 72 797.018 -14 940.018 -14 C1082.02 -14 1115.34 72 1137.91 178 C1160.49 284 1163.81 370 1020.81 370 C891.81 370 846.196 292 821.914 178 L821.914 178 Z M120.908 516 C98.33 410 96.012 324 239.012 324 C381.012 324 414.33 410 436.908 516 C459.486 622 462.804 708 319.804 708 C190.804 708 145.19 630 120.908 516 L120.908 516 Z M590.914 178 C601.694 238 618.131 287 654.131 287 C683.131 287 691.149 273 671.979 183 C653.448 96 642.697 69 607.697 69 C576.697 69 574.513 101 590.914 178 L590.914 178 Z M472.914 178 C450.336 72 448.018 -14 591.018 -14 C733.018 -14 766.336 72 788.914 178 C811.492 284 814.81 370 671.81 370 C542.81 370 497.196 292 472.914 178 L472.914 178 Z " />
<glyph glyph-name="guilsinglleft" unicode="&#x2039;" horiz-adv-x="260" d="M92.896 192 L225.466 82 L257.416 232 L186.557 289 L281.698 346 L313.648 496 L134.218 386 L92.896 192 Z " />
<glyph glyph-name="guilsinglright" unicode="&#x203a;" horiz-adv-x="260" d="M69.466 82 L248.896 192 L290.218 386 L157.648 496 L125.698 346 L196.557 289 L101.416 232 L69.466 82 Z " />
<glyph glyph-name="fraction" unicode="&#x2044;" horiz-adv-x="167" d="M-172.603 -31 L-73.603 -31 L487.425 725 L388.425 725 L-172.603 -31 Z " />
<glyph glyph-name="trademark" unicode="&#x2122;" horiz-adv-x="990" d="M900.326 302 L1012.33 302 L1100.08 714 L926.082 714 L791.832 464 L789.832 464 L762.082 714 L588.082 714 L500.326 302 L612.326 302 L672.392 584 L674.392 584 L707.326 302 L805.326 302 L958.392 584 L960.392 584 L900.326 302 Z M198.326 302 L328.326 302 L394.782 614 L498.782 614 L520.082 714 L182.082 714 L160.782 614 L264.782 614 L198.326 302 Z " />
<glyph glyph-name="minus" unicode="&#x2212;" horiz-adv-x="600" d="M87.044 188 L593.044 188 L620.734 318 L114.734 318 L87.044 188 Z " />
<glyph glyph-name="fi" unicode="&#xfb01;" horiz-adv-x="556" d="M66 0 L228 0 L319.377 429 L394.377 429 L418.233 541 L343.233 541 L350.475 575 C357.078 606 367.208 616 411.208 616 L434.208 616 L457.425 725 C436.851 727 416.064 728 386.064 728 C254.064 728 212.118 686 190.818 586 L181.233 541 L114.233 541 L90.377 429 L157.377 429 L66 0 Z M345 0 L507 0 L622.233 541 L460.233 541 L345 0 Z M472.374 598 L634.374 598 L660.786 722 L498.786 722 L472.374 598 Z " />
<glyph glyph-name="fl" unicode="&#xfb02;" horiz-adv-x="556" d="M345 0 L507 0 L659.082 714 L497.082 714 L345 0 Z M66 0 L228 0 L319.377 429 L394.377 429 L418.233 541 L343.233 541 L350.475 575 C357.078 606 367.208 616 411.208 616 L434.208 616 L457.425 725 C436.851 727 416.064 728 386.064 728 C254.064 728 212.118 686 190.818 586 L181.233 541 L114.233 541 L90.377 429 L157.377 429 L66 0 Z " />
</font>
</svg>
