<?xml version="1.0" encoding="UTF-8"?>
<svg xmlns="http://www.w3.org/2000/svg" xmlns:xlink="http://www.w3.org/1999/xlink" version="1.2" >
<font id="HK Grotesk Regular 2">
<font-face  font-family="HK Grotesk" units-per-em="2048" ascent="1434" descent="-614" font-style="normal" font-weight="400" font-stretch="normal" cap-height="1413" x-height="999" underline-position="-59" underline-thickness="82" />
<missing-glyph  horiz-adv-x="1156" d="M168 0 L168 954 L988 954 L988 0 L168 0 Z M271 102 L885 102 L885 852 L271 852 L271 102 Z " />
<glyph glyph-name="space" unicode="&#x20;" horiz-adv-x="541" d="" />
<glyph glyph-name="A" unicode="A" horiz-adv-x="1306" d="M63 0 L594 1413 L716 1413 L1243 0 L1073 0 L965 307 L344 307 L236 0 L63 0 Z M397 452 L911 452 L656 1180 L397 452 Z " />
<glyph glyph-name="Aacute" unicode="&#xc1;" horiz-adv-x="1306" d="M63 0 L594 1413 L716 1413 L1243 0 L1073 0 L965 307 L344 307 L236 0 L63 0 Z M397 452 L911 452 L656 1180 L397 452 Z M559 1538 L776 1827 L969 1827 L692 1538 L559 1538 Z " />
<glyph glyph-name="Abreve" unicode="&#x102;" horiz-adv-x="1306" d="M63 0 L594 1413 L716 1413 L1243 0 L1073 0 L965 307 L344 307 L236 0 L63 0 Z M397 452 L911 452 L656 1180 L397 452 Z M654 1557 Q564 1557 494.5 1588.5 Q425 1620 386 1681 Q347 1742 347 1827 L483 1827 Q483 1781 506 1745.5 Q529 1710 568 1690.5 Q607 1671 654 1671 Q701 1671 740 1690.5 Q779 1710 801.5 1745.5 Q824 1781 824 1827 L960 1827 Q960 1741 921 1680 Q882 1619 813 1588 Q744 1557 654 1557 Z " />
<glyph glyph-name="uni1EAE" unicode="&#x1eae;" horiz-adv-x="1306" d="M63 0 L594 1413 L716 1413 L1243 0 L1073 0 L965 307 L344 307 L236 0 L63 0 Z M397 452 L911 452 L656 1180 L397 452 Z M654 1557 Q564 1557 494.5 1588.5 Q425 1620 386 1681 Q347 1742 347 1827 L483 1827 Q483 1781 506 1745.5 Q529 1710 568 1690.5 Q607 1671 654 1671 Q701 1671 740 1690.5 Q779 1710 801.5 1745.5 Q824 1781 824 1827 L960 1827 Q960 1741 921 1680 Q882 1619 813 1588 Q744 1557 654 1557 Z M559 1952 L776 2241 L969 2241 L692 1952 L559 1952 Z " />
<glyph glyph-name="uni1EB0" unicode="&#x1eb0;" horiz-adv-x="1306" d="M63 0 L594 1413 L716 1413 L1243 0 L1073 0 L965 307 L344 307 L236 0 L63 0 Z M397 452 L911 452 L656 1180 L397 452 Z M654 1557 Q564 1557 494.5 1588.5 Q425 1620 386 1681 Q347 1742 347 1827 L483 1827 Q483 1781 506 1745.5 Q529 1710 568 1690.5 Q607 1671 654 1671 Q701 1671 740 1690.5 Q779 1710 801.5 1745.5 Q824 1781 824 1827 L960 1827 Q960 1741 921 1680 Q882 1619 813 1588 Q744 1557 654 1557 Z M582 1950 L324 2241 L516 2241 L734 1950 L582 1950 Z " />
<glyph glyph-name="uni1EB4" unicode="&#x1eb4;" horiz-adv-x="1306" d="M63 0 L594 1413 L716 1413 L1243 0 L1073 0 L965 307 L344 307 L236 0 L63 0 Z M397 452 L911 452 L656 1180 L397 452 Z M654 1557 Q564 1557 494.5 1588.5 Q425 1620 386 1681 Q347 1742 347 1827 L483 1827 Q483 1781 506 1745.5 Q529 1710 568 1690.5 Q607 1671 654 1671 Q701 1671 740 1690.5 Q779 1710 801.5 1745.5 Q824 1781 824 1827 L960 1827 Q960 1741 921 1680 Q882 1619 813 1588 Q744 1557 654 1557 Z M775 1974 Q724 1974 688.5 1998.5 Q653 2023 613 2068 Q582 2101 562.5 2116 Q543 2131 520 2131 Q484 2131 467.5 2093 Q451 2055 451 1994 L351 1994 Q351 2108 395 2176 Q439 2244 520 2244 Q559 2244 589.5 2230 Q620 2216 641 2197 Q662 2178 689 2147 Q717 2115 735.5 2100 Q754 2085 777 2085 Q848 2085 848 2238 L954 2238 Q954 2110 907.5 2042 Q861 1974 775 1974 Z " />
<glyph glyph-name="uni01CD" unicode="&#x1cd;" horiz-adv-x="1306" d="M63 0 L594 1413 L716 1413 L1243 0 L1073 0 L965 307 L344 307 L236 0 L63 0 Z M397 452 L911 452 L656 1180 L397 452 Z M654 1495 L325 1827 L487 1827 L654 1646 L822 1827 L983 1827 L654 1495 Z " />
<glyph glyph-name="Acircumflex" unicode="&#xc2;" horiz-adv-x="1306" d="M63 0 L594 1413 L716 1413 L1243 0 L1073 0 L965 307 L344 307 L236 0 L63 0 Z M397 452 L911 452 L656 1180 L397 452 Z M325 1512 L654 1867 L983 1512 L822 1512 L654 1698 L487 1512 L325 1512 Z " />
<glyph glyph-name="uni1EA4" unicode="&#x1ea4;" horiz-adv-x="1306" d="M63 0 L594 1413 L716 1413 L1243 0 L1073 0 L965 307 L344 307 L236 0 L63 0 Z M397 452 L911 452 L656 1180 L397 452 Z M325 1512 L654 1867 L983 1512 L822 1512 L654 1698 L487 1512 L325 1512 Z M559 1952 L776 2241 L969 2241 L692 1952 L559 1952 Z " />
<glyph glyph-name="uni1EA6" unicode="&#x1ea6;" horiz-adv-x="1306" d="M63 0 L594 1413 L716 1413 L1243 0 L1073 0 L965 307 L344 307 L236 0 L63 0 Z M397 452 L911 452 L656 1180 L397 452 Z M325 1512 L654 1867 L983 1512 L822 1512 L654 1698 L487 1512 L325 1512 Z M582 1950 L324 2241 L516 2241 L734 1950 L582 1950 Z " />
<glyph glyph-name="uni1EAA" unicode="&#x1eaa;" horiz-adv-x="1306" d="M63 0 L594 1413 L716 1413 L1243 0 L1073 0 L965 307 L344 307 L236 0 L63 0 Z M397 452 L911 452 L656 1180 L397 452 Z M325 1512 L654 1867 L983 1512 L822 1512 L654 1698 L487 1512 L325 1512 Z M775 1974 Q724 1974 688.5 1998.5 Q653 2023 613 2068 Q582 2101 562.5 2116 Q543 2131 520 2131 Q484 2131 467.5 2093 Q451 2055 451 1994 L351 1994 Q351 2108 395 2176 Q439 2244 520 2244 Q559 2244 589.5 2230 Q620 2216 641 2197 Q662 2178 689 2147 Q717 2115 735.5 2100 Q754 2085 777 2085 Q848 2085 848 2238 L954 2238 Q954 2110 907.5 2042 Q861 1974 775 1974 Z " />
<glyph glyph-name="Adieresis" unicode="&#xc4;" horiz-adv-x="1306" d="M63 0 L594 1413 L716 1413 L1243 0 L1073 0 L965 307 L344 307 L236 0 L63 0 Z M397 452 L911 452 L656 1180 L397 452 Z M399 1635 L399 1827 L568 1827 L568 1635 L399 1635 Z M736 1635 L736 1827 L904 1827 L904 1635 L736 1635 Z " />
<glyph glyph-name="Agrave" unicode="&#xc0;" horiz-adv-x="1306" d="M63 0 L594 1413 L716 1413 L1243 0 L1073 0 L965 307 L344 307 L236 0 L63 0 Z M397 452 L911 452 L656 1180 L397 452 Z M582 1536 L324 1827 L516 1827 L734 1536 L582 1536 Z " />
<glyph glyph-name="Amacron" unicode="&#x100;" horiz-adv-x="1306" d="M63 0 L594 1413 L716 1413 L1243 0 L1073 0 L965 307 L344 307 L236 0 L63 0 Z M397 452 L911 452 L656 1180 L397 452 Z M385 1597 L385 1722 L926 1722 L926 1597 L385 1597 Z " />
<glyph glyph-name="Aogonek" unicode="&#x104;" horiz-adv-x="1306" d="M63 0 L594 1413 L716 1413 L1243 0 L1073 0 L965 307 L344 307 L236 0 L63 0 Z M397 452 L911 452 L656 1180 L397 452 Z M1112 -451 Q1053 -451 1006 -425.5 Q959 -400 932.5 -353.5 Q906 -307 906 -246 Q906 -177 943 -125 Q980 -73 1028.5 -43 Q1077 -13 1119 0 L1243 0 Q1219 -8 1167.5 -34.5 Q1116 -61 1066 -111.5 Q1016 -162 1016 -229 Q1016 -280 1040.5 -308.5 Q1065 -337 1103 -337 Q1143 -337 1172.5 -321 Q1202 -305 1225 -273 L1318 -338 Q1280 -392 1231.5 -421.5 Q1183 -451 1112 -451 Z " />
<glyph glyph-name="Aring" unicode="&#xc5;" horiz-adv-x="1306" d="M564 1337 Q513 1361 482 1410.5 Q451 1460 451 1520 Q451 1576 478 1623 Q505 1670 551 1697 Q597 1724 652 1724 Q707 1724 754 1697 Q801 1670 829 1623.5 Q857 1577 857 1520 Q857 1462 825.5 1413 Q794 1364 744 1340 L1243 0 L1073 0 L965 307 L344 307 L236 0 L63 0 L564 1337 Z M652 1420 Q694 1420 723 1449 Q752 1478 752 1521 Q752 1563 724 1591 Q696 1619 652 1619 Q608 1619 581 1592 Q554 1565 554 1521 Q554 1477 582 1448.5 Q610 1420 652 1420 Z M397 452 L911 452 L656 1180 L397 452 Z " />
<glyph glyph-name="Atilde" unicode="&#xc3;" horiz-adv-x="1306" d="M63 0 L594 1413 L716 1413 L1243 0 L1073 0 L965 307 L344 307 L236 0 L63 0 Z M397 452 L911 452 L656 1180 L397 452 Z M775 1560 Q724 1560 688.5 1584.5 Q653 1609 613 1654 Q582 1687 562.5 1702 Q543 1717 520 1717 Q484 1717 467.5 1679 Q451 1641 451 1580 L351 1580 Q351 1694 395 1762 Q439 1830 520 1830 Q559 1830 589.5 1816 Q620 1802 641 1783 Q662 1764 689 1733 Q717 1701 735.5 1686 Q754 1671 777 1671 Q848 1671 848 1824 L954 1824 Q954 1696 907.5 1628 Q861 1560 775 1560 Z " />
<glyph glyph-name="AE" unicode="&#xc6;" horiz-adv-x="1815" d="M63 0 L589 1413 L1706 1413 L1706 1284 L959 1284 L959 774 L1618 774 L1618 639 L959 639 L959 136 L1706 136 L1706 0 L804 0 L804 307 L338 307 L227 0 L63 0 Z M387 448 L804 448 L804 1284 L691 1284 L387 448 Z " />
<glyph glyph-name="B" unicode="B" horiz-adv-x="1243" d="M212 1413 L603 1413 Q724 1413 826.5 1377.5 Q929 1342 992.5 1263.5 Q1056 1185 1056 1063 Q1056 854 873 748 Q992 695 1058.5 605.5 Q1125 516 1125 377 Q1125 243 1062 159 Q999 75 897.5 37.5 Q796 0 676 0 L212 0 L212 1413 Z M603 791 Q731 791 811 853.5 Q891 916 891 1042 Q891 1169 813.5 1220 Q736 1271 605 1271 L367 1271 L367 791 L603 791 Z M680 147 Q809 147 889 201 Q969 255 969 386 Q969 527 889 588 Q809 649 683 649 L367 649 L367 147 L680 147 Z " />
<glyph glyph-name="C" unicode="C" horiz-adv-x="1420" d="M754 -20 Q548 -20 406 77 Q264 174 194.5 339 Q125 504 125 710 Q125 913 194 1077 Q263 1241 407 1338.5 Q551 1436 767 1436 Q969 1436 1114 1343.5 Q1259 1251 1332 1060 L1186 997 Q1144 1150 1027.5 1219.5 Q911 1289 760 1289 Q595 1289 487.5 1211 Q380 1133 330.5 1003 Q281 873 281 712 Q281 548 331.5 416 Q382 284 490.5 205 Q599 126 764 126 Q1081 126 1188 421 L1334 358 Q1254 175 1105.5 77.5 Q957 -20 754 -20 Z " />
<glyph glyph-name="Cacute" unicode="&#x106;" horiz-adv-x="1420" d="M754 -20 Q548 -20 406 77 Q264 174 194.5 339 Q125 504 125 710 Q125 913 194 1077 Q263 1241 407 1338.5 Q551 1436 767 1436 Q969 1436 1114 1343.5 Q1259 1251 1332 1060 L1186 997 Q1144 1150 1027.5 1219.5 Q911 1289 760 1289 Q595 1289 487.5 1211 Q380 1133 330.5 1003 Q281 873 281 712 Q281 548 331.5 416 Q382 284 490.5 205 Q599 126 764 126 Q1081 126 1188 421 L1334 358 Q1254 175 1105.5 77.5 Q957 -20 754 -20 Z M623 1538 L840 1827 L1033 1827 L756 1538 L623 1538 Z " />
<glyph glyph-name="Ccaron" unicode="&#x10c;" horiz-adv-x="1420" d="M754 -20 Q548 -20 406 77 Q264 174 194.5 339 Q125 504 125 710 Q125 913 194 1077 Q263 1241 407 1338.5 Q551 1436 767 1436 Q969 1436 1114 1343.5 Q1259 1251 1332 1060 L1186 997 Q1144 1150 1027.5 1219.5 Q911 1289 760 1289 Q595 1289 487.5 1211 Q380 1133 330.5 1003 Q281 873 281 712 Q281 548 331.5 416 Q382 284 490.5 205 Q599 126 764 126 Q1081 126 1188 421 L1334 358 Q1254 175 1105.5 77.5 Q957 -20 754 -20 Z M718 1495 L389 1827 L551 1827 L718 1646 L886 1827 L1047 1827 L718 1495 Z " />
<glyph glyph-name="Ccedilla" unicode="&#xc7;" horiz-adv-x="1420" d="M1334 358 Q1264 197 1140.5 102 Q1017 7 849 -14 L789 -117 Q879 -121 927 -172 Q975 -223 975 -297 Q975 -350 949 -397.5 Q923 -445 875 -474.5 Q827 -504 763 -504 Q701 -504 651.5 -468.5 Q602 -433 581 -380 L680 -329 Q686 -358 710.5 -379.5 Q735 -401 769 -401 Q813 -401 840 -373 Q867 -345 867 -305 Q867 -273 846.5 -244 Q826 -215 784 -197.5 Q742 -180 681 -180 L639 -180 L727 -20 Q530 -13 394.5 85 Q259 183 192 346 Q125 509 125 710 Q125 913 194 1077 Q263 1241 407 1338.5 Q551 1436 767 1436 Q969 1436 1114 1343.5 Q1259 1251 1332 1060 L1186 997 Q1144 1150 1027.5 1219.5 Q911 1289 760 1289 Q595 1289 487.5 1211 Q380 1133 330.5 1003 Q281 873 281 712 Q281 548 331.5 416 Q382 284 490.5 205 Q599 126 764 126 Q1081 126 1188 421 L1334 358 Z " />
<glyph glyph-name="Cdotaccent" unicode="&#x10a;" horiz-adv-x="1420" d="M754 -20 Q548 -20 406 77 Q264 174 194.5 339 Q125 504 125 710 Q125 913 194 1077 Q263 1241 407 1338.5 Q551 1436 767 1436 Q969 1436 1114 1343.5 Q1259 1251 1332 1060 L1186 997 Q1144 1150 1027.5 1219.5 Q911 1289 760 1289 Q595 1289 487.5 1211 Q380 1133 330.5 1003 Q281 873 281 712 Q281 548 331.5 416 Q382 284 490.5 205 Q599 126 764 126 Q1081 126 1188 421 L1334 358 Q1254 175 1105.5 77.5 Q957 -20 754 -20 Z M630 1635 L630 1827 L803 1827 L803 1635 L630 1635 Z " />
<glyph glyph-name="D" unicode="D" horiz-adv-x="1406" d="M212 1413 L572 1413 Q801 1413 960.5 1330.5 Q1120 1248 1202.5 1087.5 Q1285 927 1285 696 Q1285 475 1201.5 318.5 Q1118 162 957.5 81 Q797 0 570 0 L212 0 L212 1413 Z M546 145 Q715 145 846 206 Q977 267 1051.5 393 Q1126 519 1126 707 Q1126 983 986 1127 Q846 1271 568 1271 L371 1271 L371 145 L546 145 Z " />
<glyph glyph-name="uni01F1" unicode="&#x1f1;" horiz-adv-x="2679" d="M212 1413 L572 1413 Q801 1413 960.5 1330.5 Q1120 1248 1202.5 1087.5 Q1285 927 1285 696 Q1285 475 1201.5 318.5 Q1118 162 957.5 81 Q797 0 570 0 L212 0 L212 1413 Z M546 145 Q715 145 846 206 Q977 267 1051.5 393 Q1126 519 1126 707 Q1126 983 986 1127 Q846 1271 568 1271 L371 1271 L371 145 L546 145 Z M1493 0 L1493 124 L2388 1276 L1538 1276 L1538 1413 L2581 1413 L2581 1283 L1690 144 L2581 144 L2581 0 L1493 0 Z " />
<glyph glyph-name="uni01C4" unicode="&#x1c4;" horiz-adv-x="2679" d="M212 1413 L572 1413 Q801 1413 960.5 1330.5 Q1120 1248 1202.5 1087.5 Q1285 927 1285 696 Q1285 475 1201.5 318.5 Q1118 162 957.5 81 Q797 0 570 0 L212 0 L212 1413 Z M546 145 Q715 145 846 206 Q977 267 1051.5 393 Q1126 519 1126 707 Q1126 983 986 1127 Q846 1271 568 1271 L371 1271 L371 145 L546 145 Z M1493 0 L1493 124 L2388 1276 L1538 1276 L1538 1413 L2581 1413 L2581 1283 L1690 144 L2581 144 L2581 0 L1493 0 Z M2043 1495 L1714 1827 L1876 1827 L2043 1646 L2211 1827 L2372 1827 L2043 1495 Z " />
<glyph glyph-name="Eth" unicode="&#xd0;" horiz-adv-x="1423" d="M229 655 L117 655 L117 770 L229 770 L229 1413 L594 1413 Q821 1413 979.5 1330.5 Q1138 1248 1220 1087.5 Q1302 927 1302 696 Q1302 475 1219 318.5 Q1136 162 976.5 81 Q817 0 592 0 L229 0 L229 655 Z M568 147 Q737 147 865 207 Q993 267 1066 392.5 Q1139 518 1139 707 Q1139 983 1001.5 1125.5 Q864 1268 590 1268 L391 1268 L391 770 L772 770 L772 655 L391 655 L391 147 L568 147 Z " />
<glyph glyph-name="Dcaron" unicode="&#x10e;" horiz-adv-x="1406" d="M212 1413 L572 1413 Q801 1413 960.5 1330.5 Q1120 1248 1202.5 1087.5 Q1285 927 1285 696 Q1285 475 1201.5 318.5 Q1118 162 957.5 81 Q797 0 570 0 L212 0 L212 1413 Z M546 145 Q715 145 846 206 Q977 267 1051.5 393 Q1126 519 1126 707 Q1126 983 986 1127 Q846 1271 568 1271 L371 1271 L371 145 L546 145 Z M721 1495 L392 1827 L554 1827 L721 1646 L889 1827 L1050 1827 L721 1495 Z " />
<glyph glyph-name="Dcroat" unicode="&#x110;" horiz-adv-x="1423" d="M229 655 L117 655 L117 770 L229 770 L229 1413 L594 1413 Q821 1413 979.5 1330.5 Q1138 1248 1220 1087.5 Q1302 927 1302 696 Q1302 475 1219 318.5 Q1136 162 976.5 81 Q817 0 592 0 L229 0 L229 655 Z M568 147 Q737 147 865 207 Q993 267 1066 392.5 Q1139 518 1139 707 Q1139 983 1001.5 1125.5 Q864 1268 590 1268 L391 1268 L391 770 L772 770 L772 655 L391 655 L391 147 L568 147 Z " />
<glyph glyph-name="uni01F2" unicode="&#x1f2;" horiz-adv-x="2336" d="M212 1413 L572 1413 Q801 1413 960.5 1330.5 Q1120 1248 1202.5 1087.5 Q1285 927 1285 696 Q1285 475 1201.5 318.5 Q1118 162 957.5 81 Q797 0 570 0 L212 0 L212 1413 Z M546 145 Q715 145 846 206 Q977 267 1051.5 393 Q1126 519 1126 707 Q1126 983 986 1127 Q846 1271 568 1271 L371 1271 L371 145 L546 145 Z M2258 999 L2258 876 L1658 128 L2258 128 L2258 0 L1472 0 L1472 113 L2083 877 L1501 877 L1501 999 L2258 999 Z " />
<glyph glyph-name="uni01C5" unicode="&#x1c5;" horiz-adv-x="2336" d="M212 1413 L572 1413 Q801 1413 960.5 1330.5 Q1120 1248 1202.5 1087.5 Q1285 927 1285 696 Q1285 475 1201.5 318.5 Q1118 162 957.5 81 Q797 0 570 0 L212 0 L212 1413 Z M546 145 Q715 145 846 206 Q977 267 1051.5 393 Q1126 519 1126 707 Q1126 983 986 1127 Q846 1271 568 1271 L371 1271 L371 145 L546 145 Z M2258 999 L2258 876 L1658 128 L2258 128 L2258 0 L1472 0 L1472 113 L2083 877 L1501 877 L1501 999 L2258 999 Z M1864 1081 L1535 1413 L1697 1413 L1864 1232 L2032 1413 L2193 1413 L1864 1081 Z " />
<glyph glyph-name="E" unicode="E" horiz-adv-x="1239" d="M212 0 L212 1413 L1127 1413 L1127 1276 L371 1276 L371 774 L1028 774 L1028 641 L371 641 L371 145 L1127 145 L1127 0 L212 0 Z " />
<glyph glyph-name="Eacute" unicode="&#xc9;" horiz-adv-x="1239" d="M212 0 L212 1413 L1127 1413 L1127 1276 L371 1276 L371 774 L1028 774 L1028 641 L371 641 L371 145 L1127 145 L1127 0 L212 0 Z M571 1538 L788 1827 L981 1827 L704 1538 L571 1538 Z " />
<glyph glyph-name="Ecaron" unicode="&#x11a;" horiz-adv-x="1239" d="M212 0 L212 1413 L1127 1413 L1127 1276 L371 1276 L371 774 L1028 774 L1028 641 L371 641 L371 145 L1127 145 L1127 0 L212 0 Z M666 1495 L337 1827 L499 1827 L666 1646 L834 1827 L995 1827 L666 1495 Z " />
<glyph glyph-name="Ecircumflex" unicode="&#xca;" horiz-adv-x="1239" d="M212 0 L212 1413 L1127 1413 L1127 1276 L371 1276 L371 774 L1028 774 L1028 641 L371 641 L371 145 L1127 145 L1127 0 L212 0 Z M337 1512 L666 1867 L995 1512 L834 1512 L666 1698 L499 1512 L337 1512 Z " />
<glyph glyph-name="uni1EBE" unicode="&#x1ebe;" horiz-adv-x="1239" d="M212 0 L212 1413 L1127 1413 L1127 1276 L371 1276 L371 774 L1028 774 L1028 641 L371 641 L371 145 L1127 145 L1127 0 L212 0 Z M337 1512 L666 1867 L995 1512 L834 1512 L666 1698 L499 1512 L337 1512 Z M571 1952 L788 2241 L981 2241 L704 1952 L571 1952 Z " />
<glyph glyph-name="uni1EC0" unicode="&#x1ec0;" horiz-adv-x="1239" d="M212 0 L212 1413 L1127 1413 L1127 1276 L371 1276 L371 774 L1028 774 L1028 641 L371 641 L371 145 L1127 145 L1127 0 L212 0 Z M337 1512 L666 1867 L995 1512 L834 1512 L666 1698 L499 1512 L337 1512 Z M594 1950 L336 2241 L528 2241 L746 1950 L594 1950 Z " />
<glyph glyph-name="uni1EC4" unicode="&#x1ec4;" horiz-adv-x="1239" d="M212 0 L212 1413 L1127 1413 L1127 1276 L371 1276 L371 774 L1028 774 L1028 641 L371 641 L371 145 L1127 145 L1127 0 L212 0 Z M337 1512 L666 1867 L995 1512 L834 1512 L666 1698 L499 1512 L337 1512 Z M787 1974 Q736 1974 700.5 1998.5 Q665 2023 625 2068 Q594 2101 574.5 2116 Q555 2131 532 2131 Q496 2131 479.5 2093 Q463 2055 463 1994 L363 1994 Q363 2108 407 2176 Q451 2244 532 2244 Q571 2244 601.5 2230 Q632 2216 653 2197 Q674 2178 701 2147 Q729 2115 747.5 2100 Q766 2085 789 2085 Q860 2085 860 2238 L966 2238 Q966 2110 919.5 2042 Q873 1974 787 1974 Z " />
<glyph glyph-name="Edieresis" unicode="&#xcb;" horiz-adv-x="1239" d="M212 0 L212 1413 L1127 1413 L1127 1276 L371 1276 L371 774 L1028 774 L1028 641 L371 641 L371 145 L1127 145 L1127 0 L212 0 Z M411 1635 L411 1827 L580 1827 L580 1635 L411 1635 Z M748 1635 L748 1827 L916 1827 L916 1635 L748 1635 Z " />
<glyph glyph-name="Edotaccent" unicode="&#x116;" horiz-adv-x="1239" d="M212 0 L212 1413 L1127 1413 L1127 1276 L371 1276 L371 774 L1028 774 L1028 641 L371 641 L371 145 L1127 145 L1127 0 L212 0 Z M578 1635 L578 1827 L751 1827 L751 1635 L578 1635 Z " />
<glyph glyph-name="Egrave" unicode="&#xc8;" horiz-adv-x="1239" d="M212 0 L212 1413 L1127 1413 L1127 1276 L371 1276 L371 774 L1028 774 L1028 641 L371 641 L371 145 L1127 145 L1127 0 L212 0 Z M594 1536 L336 1827 L528 1827 L746 1536 L594 1536 Z " />
<glyph glyph-name="Emacron" unicode="&#x112;" horiz-adv-x="1239" d="M212 0 L212 1413 L1127 1413 L1127 1276 L371 1276 L371 774 L1028 774 L1028 641 L371 641 L371 145 L1127 145 L1127 0 L212 0 Z M397 1597 L397 1722 L938 1722 L938 1597 L397 1597 Z " />
<glyph glyph-name="Eogonek" unicode="&#x118;" horiz-adv-x="1239" d="M212 0 L212 1413 L1127 1413 L1127 1276 L371 1276 L371 774 L1028 774 L1028 641 L371 641 L371 145 L1127 145 L1127 0 L212 0 Z M996 -451 Q937 -451 890 -425.5 Q843 -400 816.5 -353.5 Q790 -307 790 -246 Q790 -177 827 -125 Q864 -73 912.5 -43 Q961 -13 1003 0 L1127 0 Q1103 -8 1051.5 -34.5 Q1000 -61 950 -111.5 Q900 -162 900 -229 Q900 -280 924.5 -308.5 Q949 -337 987 -337 Q1027 -337 1056.5 -321 Q1086 -305 1109 -273 L1202 -338 Q1164 -392 1115.5 -421.5 Q1067 -451 996 -451 Z " />
<glyph glyph-name="uni1EBC" unicode="&#x1ebc;" horiz-adv-x="1239" d="M212 0 L212 1413 L1127 1413 L1127 1276 L371 1276 L371 774 L1028 774 L1028 641 L371 641 L371 145 L1127 145 L1127 0 L212 0 Z M787 1560 Q736 1560 700.5 1584.5 Q665 1609 625 1654 Q594 1687 574.5 1702 Q555 1717 532 1717 Q496 1717 479.5 1679 Q463 1641 463 1580 L363 1580 Q363 1694 407 1762 Q451 1830 532 1830 Q571 1830 601.5 1816 Q632 1802 653 1783 Q674 1764 701 1733 Q729 1701 747.5 1686 Q766 1671 789 1671 Q860 1671 860 1824 L966 1824 Q966 1696 919.5 1628 Q873 1560 787 1560 Z " />
<glyph glyph-name="F" unicode="F" horiz-adv-x="1196" d="M212 0 L212 1413 L1118 1413 L1118 1276 L371 1276 L371 774 L1030 774 L1030 641 L371 641 L371 0 L212 0 Z " />
<glyph glyph-name="G" unicode="G" horiz-adv-x="1509" d="M759 -20 Q550 -20 407 77 Q264 174 194.5 338.5 Q125 503 125 707 Q125 910 195.5 1075 Q266 1240 408 1338 Q550 1436 757 1436 Q956 1436 1103 1339.5 Q1250 1243 1331 1060 L1186 997 Q1122 1138 1012.5 1212.5 Q903 1287 755 1287 Q595 1287 488.5 1209.5 Q382 1132 331.5 1003.5 Q281 875 281 717 Q281 551 331.5 418.5 Q382 286 489 207 Q596 128 759 128 Q881 128 982 182.5 Q1083 237 1143 341.5 Q1203 446 1205 590 L882 590 L882 715 L1355 715 L1355 0 L1223 0 L1221 258 Q1191 183 1127 119.5 Q1063 56 968.5 18 Q874 -20 759 -20 Z " />
<glyph glyph-name="Gbreve" unicode="&#x11e;" horiz-adv-x="1509" d="M759 -20 Q550 -20 407 77 Q264 174 194.5 338.5 Q125 503 125 707 Q125 910 195.5 1075 Q266 1240 408 1338 Q550 1436 757 1436 Q956 1436 1103 1339.5 Q1250 1243 1331 1060 L1186 997 Q1122 1138 1012.5 1212.5 Q903 1287 755 1287 Q595 1287 488.5 1209.5 Q382 1132 331.5 1003.5 Q281 875 281 717 Q281 551 331.5 418.5 Q382 286 489 207 Q596 128 759 128 Q881 128 982 182.5 Q1083 237 1143 341.5 Q1203 446 1205 590 L882 590 L882 715 L1355 715 L1355 0 L1223 0 L1221 258 Q1191 183 1127 119.5 Q1063 56 968.5 18 Q874 -20 759 -20 Z M760 1557 Q670 1557 600.5 1588.5 Q531 1620 492 1681 Q453 1742 453 1827 L589 1827 Q589 1781 612 1745.5 Q635 1710 674 1690.5 Q713 1671 760 1671 Q807 1671 846 1690.5 Q885 1710 907.5 1745.5 Q930 1781 930 1827 L1066 1827 Q1066 1741 1027 1680 Q988 1619 919 1588 Q850 1557 760 1557 Z " />
<glyph glyph-name="Gcommaaccent" unicode="&#x122;" horiz-adv-x="1509" d="M759 -20 Q550 -20 407 77 Q264 174 194.5 338.5 Q125 503 125 707 Q125 910 195.5 1075 Q266 1240 408 1338 Q550 1436 757 1436 Q956 1436 1103 1339.5 Q1250 1243 1331 1060 L1186 997 Q1122 1138 1012.5 1212.5 Q903 1287 755 1287 Q595 1287 488.5 1209.5 Q382 1132 331.5 1003.5 Q281 875 281 717 Q281 551 331.5 418.5 Q382 286 489 207 Q596 128 759 128 Q881 128 982 182.5 Q1083 237 1143 341.5 Q1203 446 1205 590 L882 590 L882 715 L1355 715 L1355 0 L1223 0 L1221 258 Q1191 183 1127 119.5 Q1063 56 968.5 18 Q874 -20 759 -20 Z M555 -446 L678 -111 L890 -111 L662 -446 L555 -446 Z " />
<glyph glyph-name="Gdotaccent" unicode="&#x120;" horiz-adv-x="1509" d="M759 -20 Q550 -20 407 77 Q264 174 194.5 338.5 Q125 503 125 707 Q125 910 195.5 1075 Q266 1240 408 1338 Q550 1436 757 1436 Q956 1436 1103 1339.5 Q1250 1243 1331 1060 L1186 997 Q1122 1138 1012.5 1212.5 Q903 1287 755 1287 Q595 1287 488.5 1209.5 Q382 1132 331.5 1003.5 Q281 875 281 717 Q281 551 331.5 418.5 Q382 286 489 207 Q596 128 759 128 Q881 128 982 182.5 Q1083 237 1143 341.5 Q1203 446 1205 590 L882 590 L882 715 L1355 715 L1355 0 L1223 0 L1221 258 Q1191 183 1127 119.5 Q1063 56 968.5 18 Q874 -20 759 -20 Z M672 1635 L672 1827 L845 1827 L845 1635 L672 1635 Z " />
<glyph glyph-name="H" unicode="H" horiz-adv-x="1455" d="M212 0 L212 1413 L371 1413 L371 774 L1084 774 L1084 1413 L1243 1413 L1243 0 L1084 0 L1084 641 L371 641 L371 0 L212 0 Z " />
<glyph glyph-name="Hbar" unicode="&#x126;" horiz-adv-x="1455" d="M1356 1160 L1356 1071 L1243 1071 L1243 0 L1084 0 L1084 641 L371 641 L371 0 L212 0 L212 1071 L97 1071 L97 1160 L212 1160 L212 1413 L371 1413 L371 1160 L1084 1160 L1084 1413 L1243 1413 L1243 1160 L1356 1160 Z M1084 774 L1084 1071 L371 1071 L371 774 L1084 774 Z " />
<glyph glyph-name="I" unicode="I" horiz-adv-x="582" d="M212 0 L212 1413 L371 1413 L371 0 L212 0 Z " />
<glyph glyph-name="IJ" unicode="&#x132;" horiz-adv-x="1701" d="M212 0 L212 1413 L371 1413 L371 0 L212 0 Z M1080 -20 Q954 -20 860.5 35 Q767 90 714.5 184.5 Q662 279 654 396 L809 417 Q814 338 844.5 270.5 Q875 203 934 161.5 Q993 120 1080 120 Q1189 120 1249.5 167 Q1310 214 1332 293.5 Q1354 373 1354 485 L1354 1276 L822 1276 L822 1413 L1513 1413 L1513 502 Q1513 254 1409 117 Q1305 -20 1080 -20 Z " />
<glyph glyph-name="Iacute" unicode="&#xcd;" horiz-adv-x="582" d="M212 0 L212 1413 L371 1413 L371 0 L212 0 Z M195 1538 L412 1827 L605 1827 L328 1538 L195 1538 Z " />
<glyph glyph-name="uni01CF" unicode="&#x1cf;" horiz-adv-x="582" d="M212 0 L212 1413 L371 1413 L371 0 L212 0 Z M290 1495 L-39 1827 L123 1827 L290 1646 L458 1827 L619 1827 L290 1495 Z " />
<glyph glyph-name="Icircumflex" unicode="&#xce;" horiz-adv-x="582" d="M212 0 L212 1413 L371 1413 L371 0 L212 0 Z M-39 1512 L290 1867 L619 1512 L458 1512 L290 1698 L123 1512 L-39 1512 Z " />
<glyph glyph-name="Idieresis" unicode="&#xcf;" horiz-adv-x="582" d="M212 0 L212 1413 L371 1413 L371 0 L212 0 Z M35 1635 L35 1827 L204 1827 L204 1635 L35 1635 Z M372 1635 L372 1827 L540 1827 L540 1635 L372 1635 Z " />
<glyph glyph-name="Idot" unicode="&#x130;" horiz-adv-x="582" d="M212 0 L212 1413 L371 1413 L371 0 L212 0 Z M202 1635 L202 1827 L375 1827 L375 1635 L202 1635 Z " />
<glyph glyph-name="Igrave" unicode="&#xcc;" horiz-adv-x="582" d="M212 0 L212 1413 L371 1413 L371 0 L212 0 Z M218 1536 L-40 1827 L152 1827 L370 1536 L218 1536 Z " />
<glyph glyph-name="Imacron" unicode="&#x12a;" horiz-adv-x="582" d="M212 0 L212 1413 L371 1413 L371 0 L212 0 Z M21 1597 L21 1722 L562 1722 L562 1597 L21 1597 Z " />
<glyph glyph-name="Iogonek" unicode="&#x12e;" horiz-adv-x="582" d="M212 0 L212 1413 L371 1413 L371 0 L212 0 Z M240 -451 Q181 -451 134 -425.5 Q87 -400 60.5 -353.5 Q34 -307 34 -246 Q34 -177 71 -125 Q108 -73 156.5 -43 Q205 -13 247 0 L371 0 Q347 -8 295.5 -34.5 Q244 -61 194 -111.5 Q144 -162 144 -229 Q144 -280 168.5 -308.5 Q193 -337 231 -337 Q271 -337 300.5 -321 Q330 -305 353 -273 L446 -338 Q408 -392 359.5 -421.5 Q311 -451 240 -451 Z " />
<glyph glyph-name="Itilde" unicode="&#x128;" horiz-adv-x="582" d="M212 0 L212 1413 L371 1413 L371 0 L212 0 Z M411 1560 Q360 1560 324.5 1584.5 Q289 1609 249 1654 Q218 1687 198.5 1702 Q179 1717 156 1717 Q120 1717 103.5 1679 Q87 1641 87 1580 L-13 1580 Q-13 1694 31 1762 Q75 1830 156 1830 Q195 1830 225.5 1816 Q256 1802 277 1783 Q298 1764 325 1733 Q353 1701 371.5 1686 Q390 1671 413 1671 Q484 1671 484 1824 L590 1824 Q590 1696 543.5 1628 Q497 1560 411 1560 Z " />
<glyph glyph-name="J" unicode="J" horiz-adv-x="1119" d="M498 -20 Q372 -20 278.5 35 Q185 90 132.5 184.5 Q80 279 72 396 L227 417 Q232 338 262.5 270.5 Q293 203 352 161.5 Q411 120 498 120 Q607 120 667.5 167 Q728 214 750 293.5 Q772 373 772 485 L772 1276 L240 1276 L240 1413 L931 1413 L931 502 Q931 254 827 117 Q723 -20 498 -20 Z " />
<glyph glyph-name="K" unicode="K" horiz-adv-x="1452" d="M212 0 L212 1413 L371 1413 L371 584 L1152 1413 L1356 1413 L822 856 L1389 0 L1198 0 L716 747 L371 390 L371 0 L212 0 Z " />
<glyph glyph-name="Kcommaaccent" unicode="&#x136;" horiz-adv-x="1452" d="M212 0 L212 1413 L371 1413 L371 584 L1152 1413 L1356 1413 L822 856 L1389 0 L1198 0 L716 747 L371 390 L371 0 L212 0 Z M479 -446 L602 -111 L814 -111 L586 -446 L479 -446 Z " />
<glyph glyph-name="L" unicode="L" horiz-adv-x="1037" d="M212 0 L212 1413 L371 1413 L371 145 L975 145 L975 0 L212 0 Z " />
<glyph glyph-name="uni01C7" unicode="&#x1c7;" horiz-adv-x="2156" d="M212 0 L212 1413 L371 1413 L371 145 L975 145 L975 0 L212 0 Z M1535 -20 Q1409 -20 1315.5 35 Q1222 90 1169.5 184.5 Q1117 279 1109 396 L1264 417 Q1269 338 1299.5 270.5 Q1330 203 1389 161.5 Q1448 120 1535 120 Q1644 120 1704.5 167 Q1765 214 1787 293.5 Q1809 373 1809 485 L1809 1276 L1277 1276 L1277 1413 L1968 1413 L1968 502 Q1968 254 1864 117 Q1760 -20 1535 -20 Z " />
<glyph glyph-name="Lacute" unicode="&#x139;" horiz-adv-x="1037" d="M212 0 L212 1413 L371 1413 L371 145 L975 145 L975 0 L212 0 Z M216 1538 L433 1827 L626 1827 L349 1538 L216 1538 Z " />
<glyph glyph-name="Lcaron" unicode="&#x13d;" horiz-adv-x="1051" d="M212 0 L212 1413 L371 1413 L371 145 L975 145 L975 0 L212 0 Z M601 1017 L704 1413 L916 1413 L708 1017 L601 1017 Z " />
<glyph glyph-name="Lcommaaccent" unicode="&#x13b;" horiz-adv-x="1037" d="M212 0 L212 1413 L371 1413 L371 145 L975 145 L975 0 L212 0 Z M309 -446 L432 -111 L644 -111 L416 -446 L309 -446 Z " />
<glyph glyph-name="uni01C8" unicode="&#x1c8;" horiz-adv-x="1530" d="M212 0 L212 1413 L371 1413 L371 145 L975 145 L975 0 L212 0 Z M1198 1227 L1198 1413 L1370 1413 L1370 1227 L1198 1227 Z M1104 -438 Q1072 -438 1028.5 -429 Q985 -420 953 -407 L985 -295 Q1007 -302 1040.5 -307 Q1074 -312 1100 -312 Q1158 -312 1183 -273.5 Q1208 -235 1208 -177 L1208 999 L1360 999 L1360 -155 Q1360 -285 1297 -361.5 Q1234 -438 1104 -438 Z " />
<glyph glyph-name="Lslash" unicode="&#x141;" horiz-adv-x="1058" d="M389 145 L993 145 L993 0 L230 0 L230 317 L126 202 L126 387 L230 505 L230 1413 L389 1413 L389 686 L755 1101 L755 895 L389 492 L389 145 Z " />
<glyph glyph-name="M" unicode="M" horiz-adv-x="1762" d="M212 0 L212 1413 L470 1413 L878 278 L1292 1413 L1550 1413 L1550 0 L1393 0 L1393 1276 L968 123 L794 123 L370 1276 L370 0 L212 0 Z " />
<glyph glyph-name="N" unicode="N" horiz-adv-x="1418" d="M212 0 L212 1413 L441 1413 L1049 168 L1049 1413 L1206 1413 L1206 0 L974 0 L370 1247 L370 0 L212 0 Z " />
<glyph glyph-name="uni01CA" unicode="&#x1ca;" horiz-adv-x="2537" d="M212 0 L212 1413 L441 1413 L1049 168 L1049 1413 L1206 1413 L1206 0 L974 0 L370 1247 L370 0 L212 0 Z M1916 -20 Q1790 -20 1696.5 35 Q1603 90 1550.5 184.5 Q1498 279 1490 396 L1645 417 Q1650 338 1680.5 270.5 Q1711 203 1770 161.5 Q1829 120 1916 120 Q2025 120 2085.5 167 Q2146 214 2168 293.5 Q2190 373 2190 485 L2190 1276 L1658 1276 L1658 1413 L2349 1413 L2349 502 Q2349 254 2245 117 Q2141 -20 1916 -20 Z " />
<glyph glyph-name="Nacute" unicode="&#x143;" horiz-adv-x="1418" d="M212 0 L212 1413 L441 1413 L1049 168 L1049 1413 L1206 1413 L1206 0 L974 0 L370 1247 L370 0 L212 0 Z M612 1538 L829 1827 L1022 1827 L745 1538 L612 1538 Z " />
<glyph glyph-name="Ncaron" unicode="&#x147;" horiz-adv-x="1418" d="M212 0 L212 1413 L441 1413 L1049 168 L1049 1413 L1206 1413 L1206 0 L974 0 L370 1247 L370 0 L212 0 Z M707 1495 L378 1827 L540 1827 L707 1646 L875 1827 L1036 1827 L707 1495 Z " />
<glyph glyph-name="Ncommaaccent" unicode="&#x145;" horiz-adv-x="1418" d="M212 0 L212 1413 L441 1413 L1049 168 L1049 1413 L1206 1413 L1206 0 L974 0 L370 1247 L370 0 L212 0 Z M480 -446 L603 -111 L815 -111 L587 -446 L480 -446 Z " />
<glyph glyph-name="Eng" unicode="&#x14a;" horiz-adv-x="1420" d="M845 -248 Q935 -249 986.5 -215 Q1038 -181 1038 -127 Q1038 -101 1024 -70 L370 1228 L370 0 L212 0 L212 1413 L434 1413 L1049 185 L1049 1413 L1206 1413 L1206 0 Q1206 -85 1191.5 -161.5 Q1177 -238 1114.5 -303.5 Q1052 -369 924 -369 L845 -369 L845 -248 Z " />
<glyph glyph-name="uni01CB" unicode="&#x1cb;" horiz-adv-x="1911" d="M212 0 L212 1413 L441 1413 L1049 168 L1049 1413 L1206 1413 L1206 0 L974 0 L370 1247 L370 0 L212 0 Z M1579 1227 L1579 1413 L1751 1413 L1751 1227 L1579 1227 Z M1485 -438 Q1453 -438 1409.5 -429 Q1366 -420 1334 -407 L1366 -295 Q1388 -302 1421.5 -307 Q1455 -312 1481 -312 Q1539 -312 1564 -273.5 Q1589 -235 1589 -177 L1589 999 L1741 999 L1741 -155 Q1741 -285 1678 -361.5 Q1615 -438 1485 -438 Z " />
<glyph glyph-name="Ntilde" unicode="&#xd1;" horiz-adv-x="1418" d="M212 0 L212 1413 L441 1413 L1049 168 L1049 1413 L1206 1413 L1206 0 L974 0 L370 1247 L370 0 L212 0 Z M828 1560 Q777 1560 741.5 1584.5 Q706 1609 666 1654 Q635 1687 615.5 1702 Q596 1717 573 1717 Q537 1717 520.5 1679 Q504 1641 504 1580 L404 1580 Q404 1694 448 1762 Q492 1830 573 1830 Q612 1830 642.5 1816 Q673 1802 694 1783 Q715 1764 742 1733 Q770 1701 788.5 1686 Q807 1671 830 1671 Q901 1671 901 1824 L1007 1824 Q1007 1696 960.5 1628 Q914 1560 828 1560 Z " />
<glyph glyph-name="O" unicode="O" horiz-adv-x="1515" d="M756 -20 Q549 -20 406.5 77.5 Q264 175 193.5 340 Q123 505 123 707 Q123 909 193.5 1074 Q264 1239 406.5 1336.5 Q549 1434 756 1434 Q964 1434 1107 1336.5 Q1250 1239 1321 1074 Q1392 909 1392 707 Q1392 505 1321 340 Q1250 175 1107 77.5 Q964 -20 756 -20 Z M756 126 Q920 126 1028.5 205.5 Q1137 285 1187.5 416.5 Q1238 548 1238 707 Q1238 866 1187.5 997 Q1137 1128 1028.5 1207.5 Q920 1287 756 1287 Q594 1287 486.5 1207.5 Q379 1128 328.5 997 Q278 866 278 707 Q278 548 328.5 416.5 Q379 285 486.5 205.5 Q594 126 756 126 Z " />
<glyph glyph-name="Oacute" unicode="&#xd3;" horiz-adv-x="1515" d="M756 -20 Q549 -20 406.5 77.5 Q264 175 193.5 340 Q123 505 123 707 Q123 909 193.5 1074 Q264 1239 406.5 1336.5 Q549 1434 756 1434 Q964 1434 1107 1336.5 Q1250 1239 1321 1074 Q1392 909 1392 707 Q1392 505 1321 340 Q1250 175 1107 77.5 Q964 -20 756 -20 Z M756 126 Q920 126 1028.5 205.5 Q1137 285 1187.5 416.5 Q1238 548 1238 707 Q1238 866 1187.5 997 Q1137 1128 1028.5 1207.5 Q920 1287 756 1287 Q594 1287 486.5 1207.5 Q379 1128 328.5 997 Q278 866 278 707 Q278 548 328.5 416.5 Q379 285 486.5 205.5 Q594 126 756 126 Z M661 1538 L878 1827 L1071 1827 L794 1538 L661 1538 Z " />
<glyph glyph-name="uni01D1" unicode="&#x1d1;" horiz-adv-x="1515" d="M756 -20 Q549 -20 406.5 77.5 Q264 175 193.5 340 Q123 505 123 707 Q123 909 193.5 1074 Q264 1239 406.5 1336.5 Q549 1434 756 1434 Q964 1434 1107 1336.5 Q1250 1239 1321 1074 Q1392 909 1392 707 Q1392 505 1321 340 Q1250 175 1107 77.5 Q964 -20 756 -20 Z M756 126 Q920 126 1028.5 205.5 Q1137 285 1187.5 416.5 Q1238 548 1238 707 Q1238 866 1187.5 997 Q1137 1128 1028.5 1207.5 Q920 1287 756 1287 Q594 1287 486.5 1207.5 Q379 1128 328.5 997 Q278 866 278 707 Q278 548 328.5 416.5 Q379 285 486.5 205.5 Q594 126 756 126 Z M756 1495 L427 1827 L589 1827 L756 1646 L924 1827 L1085 1827 L756 1495 Z " />
<glyph glyph-name="Ocircumflex" unicode="&#xd4;" horiz-adv-x="1515" d="M756 -20 Q549 -20 406.5 77.5 Q264 175 193.5 340 Q123 505 123 707 Q123 909 193.5 1074 Q264 1239 406.5 1336.5 Q549 1434 756 1434 Q964 1434 1107 1336.5 Q1250 1239 1321 1074 Q1392 909 1392 707 Q1392 505 1321 340 Q1250 175 1107 77.5 Q964 -20 756 -20 Z M756 126 Q920 126 1028.5 205.5 Q1137 285 1187.5 416.5 Q1238 548 1238 707 Q1238 866 1187.5 997 Q1137 1128 1028.5 1207.5 Q920 1287 756 1287 Q594 1287 486.5 1207.5 Q379 1128 328.5 997 Q278 866 278 707 Q278 548 328.5 416.5 Q379 285 486.5 205.5 Q594 126 756 126 Z M427 1512 L756 1867 L1085 1512 L924 1512 L756 1698 L589 1512 L427 1512 Z " />
<glyph glyph-name="uni1ED0" unicode="&#x1ed0;" horiz-adv-x="1515" d="M756 -20 Q549 -20 406.5 77.5 Q264 175 193.5 340 Q123 505 123 707 Q123 909 193.5 1074 Q264 1239 406.5 1336.5 Q549 1434 756 1434 Q964 1434 1107 1336.5 Q1250 1239 1321 1074 Q1392 909 1392 707 Q1392 505 1321 340 Q1250 175 1107 77.5 Q964 -20 756 -20 Z M756 126 Q920 126 1028.5 205.5 Q1137 285 1187.5 416.5 Q1238 548 1238 707 Q1238 866 1187.5 997 Q1137 1128 1028.5 1207.5 Q920 1287 756 1287 Q594 1287 486.5 1207.5 Q379 1128 328.5 997 Q278 866 278 707 Q278 548 328.5 416.5 Q379 285 486.5 205.5 Q594 126 756 126 Z M427 1512 L756 1867 L1085 1512 L924 1512 L756 1698 L589 1512 L427 1512 Z M661 1952 L878 2241 L1071 2241 L794 1952 L661 1952 Z " />
<glyph glyph-name="uni1ED2" unicode="&#x1ed2;" horiz-adv-x="1515" d="M756 -20 Q549 -20 406.5 77.5 Q264 175 193.5 340 Q123 505 123 707 Q123 909 193.5 1074 Q264 1239 406.5 1336.5 Q549 1434 756 1434 Q964 1434 1107 1336.5 Q1250 1239 1321 1074 Q1392 909 1392 707 Q1392 505 1321 340 Q1250 175 1107 77.5 Q964 -20 756 -20 Z M756 126 Q920 126 1028.5 205.5 Q1137 285 1187.5 416.5 Q1238 548 1238 707 Q1238 866 1187.5 997 Q1137 1128 1028.5 1207.5 Q920 1287 756 1287 Q594 1287 486.5 1207.5 Q379 1128 328.5 997 Q278 866 278 707 Q278 548 328.5 416.5 Q379 285 486.5 205.5 Q594 126 756 126 Z M427 1512 L756 1867 L1085 1512 L924 1512 L756 1698 L589 1512 L427 1512 Z M684 1950 L426 2241 L618 2241 L836 1950 L684 1950 Z " />
<glyph glyph-name="uni1ED6" unicode="&#x1ed6;" horiz-adv-x="1515" d="M756 -20 Q549 -20 406.5 77.5 Q264 175 193.5 340 Q123 505 123 707 Q123 909 193.5 1074 Q264 1239 406.5 1336.5 Q549 1434 756 1434 Q964 1434 1107 1336.5 Q1250 1239 1321 1074 Q1392 909 1392 707 Q1392 505 1321 340 Q1250 175 1107 77.5 Q964 -20 756 -20 Z M756 126 Q920 126 1028.5 205.5 Q1137 285 1187.5 416.5 Q1238 548 1238 707 Q1238 866 1187.5 997 Q1137 1128 1028.5 1207.5 Q920 1287 756 1287 Q594 1287 486.5 1207.5 Q379 1128 328.5 997 Q278 866 278 707 Q278 548 328.5 416.5 Q379 285 486.5 205.5 Q594 126 756 126 Z M427 1512 L756 1867 L1085 1512 L924 1512 L756 1698 L589 1512 L427 1512 Z M877 1974 Q826 1974 790.5 1998.5 Q755 2023 715 2068 Q684 2101 664.5 2116 Q645 2131 622 2131 Q586 2131 569.5 2093 Q553 2055 553 1994 L453 1994 Q453 2108 497 2176 Q541 2244 622 2244 Q661 2244 691.5 2230 Q722 2216 743 2197 Q764 2178 791 2147 Q819 2115 837.5 2100 Q856 2085 879 2085 Q950 2085 950 2238 L1056 2238 Q1056 2110 1009.5 2042 Q963 1974 877 1974 Z " />
<glyph glyph-name="Odieresis" unicode="&#xd6;" horiz-adv-x="1515" d="M756 -20 Q549 -20 406.5 77.5 Q264 175 193.5 340 Q123 505 123 707 Q123 909 193.5 1074 Q264 1239 406.5 1336.5 Q549 1434 756 1434 Q964 1434 1107 1336.5 Q1250 1239 1321 1074 Q1392 909 1392 707 Q1392 505 1321 340 Q1250 175 1107 77.5 Q964 -20 756 -20 Z M756 126 Q920 126 1028.5 205.5 Q1137 285 1187.5 416.5 Q1238 548 1238 707 Q1238 866 1187.5 997 Q1137 1128 1028.5 1207.5 Q920 1287 756 1287 Q594 1287 486.5 1207.5 Q379 1128 328.5 997 Q278 866 278 707 Q278 548 328.5 416.5 Q379 285 486.5 205.5 Q594 126 756 126 Z M501 1635 L501 1827 L670 1827 L670 1635 L501 1635 Z M838 1635 L838 1827 L1006 1827 L1006 1635 L838 1635 Z " />
<glyph glyph-name="Ograve" unicode="&#xd2;" horiz-adv-x="1515" d="M756 -20 Q549 -20 406.5 77.5 Q264 175 193.5 340 Q123 505 123 707 Q123 909 193.5 1074 Q264 1239 406.5 1336.5 Q549 1434 756 1434 Q964 1434 1107 1336.5 Q1250 1239 1321 1074 Q1392 909 1392 707 Q1392 505 1321 340 Q1250 175 1107 77.5 Q964 -20 756 -20 Z M756 126 Q920 126 1028.5 205.5 Q1137 285 1187.5 416.5 Q1238 548 1238 707 Q1238 866 1187.5 997 Q1137 1128 1028.5 1207.5 Q920 1287 756 1287 Q594 1287 486.5 1207.5 Q379 1128 328.5 997 Q278 866 278 707 Q278 548 328.5 416.5 Q379 285 486.5 205.5 Q594 126 756 126 Z M684 1536 L426 1827 L618 1827 L836 1536 L684 1536 Z " />
<glyph glyph-name="Ohungarumlaut" unicode="&#x150;" horiz-adv-x="1515" d="M756 -20 Q549 -20 406.5 77.5 Q264 175 193.5 340 Q123 505 123 707 Q123 909 193.5 1074 Q264 1239 406.5 1336.5 Q549 1434 756 1434 Q964 1434 1107 1336.5 Q1250 1239 1321 1074 Q1392 909 1392 707 Q1392 505 1321 340 Q1250 175 1107 77.5 Q964 -20 756 -20 Z M756 126 Q920 126 1028.5 205.5 Q1137 285 1187.5 416.5 Q1238 548 1238 707 Q1238 866 1187.5 997 Q1137 1128 1028.5 1207.5 Q920 1287 756 1287 Q594 1287 486.5 1207.5 Q379 1128 328.5 997 Q278 866 278 707 Q278 548 328.5 416.5 Q379 285 486.5 205.5 Q594 126 756 126 Z M495 1533 L712 1827 L900 1827 L629 1533 L495 1533 Z M825 1533 L1042 1827 L1235 1827 L959 1533 L825 1533 Z " />
<glyph glyph-name="Omacron" unicode="&#x14c;" horiz-adv-x="1515" d="M756 -20 Q549 -20 406.5 77.5 Q264 175 193.5 340 Q123 505 123 707 Q123 909 193.5 1074 Q264 1239 406.5 1336.5 Q549 1434 756 1434 Q964 1434 1107 1336.5 Q1250 1239 1321 1074 Q1392 909 1392 707 Q1392 505 1321 340 Q1250 175 1107 77.5 Q964 -20 756 -20 Z M756 126 Q920 126 1028.5 205.5 Q1137 285 1187.5 416.5 Q1238 548 1238 707 Q1238 866 1187.5 997 Q1137 1128 1028.5 1207.5 Q920 1287 756 1287 Q594 1287 486.5 1207.5 Q379 1128 328.5 997 Q278 866 278 707 Q278 548 328.5 416.5 Q379 285 486.5 205.5 Q594 126 756 126 Z M487 1597 L487 1722 L1028 1722 L1028 1597 L487 1597 Z " />
<glyph glyph-name="Oslash" unicode="&#xd8;" horiz-adv-x="1515" d="M1156 1300 Q1273 1202 1332.5 1047 Q1392 892 1392 707 Q1392 505 1321 340 Q1250 175 1107 77.5 Q964 -20 756 -20 Q580 -20 448 53 L418 0 L290 0 L356 116 Q241 213 182 368 Q123 523 123 707 Q123 909 193.5 1074 Q264 1239 406.5 1336.5 Q549 1434 756 1434 Q930 1434 1063 1362 L1092 1413 L1220 1413 L1156 1300 Z M278 707 Q278 569 316.5 450 Q355 331 433 252 L989 1232 Q888 1287 756 1287 Q594 1287 486.5 1207.5 Q379 1128 328.5 997 Q278 866 278 707 Z M756 126 Q920 126 1028.5 205.5 Q1137 285 1187.5 416.5 Q1238 548 1238 707 Q1238 847 1198.5 966.5 Q1159 1086 1079 1165 L522 183 Q623 126 756 126 Z " />
<glyph glyph-name="Otilde" unicode="&#xd5;" horiz-adv-x="1515" d="M756 -20 Q549 -20 406.5 77.5 Q264 175 193.5 340 Q123 505 123 707 Q123 909 193.5 1074 Q264 1239 406.5 1336.5 Q549 1434 756 1434 Q964 1434 1107 1336.5 Q1250 1239 1321 1074 Q1392 909 1392 707 Q1392 505 1321 340 Q1250 175 1107 77.5 Q964 -20 756 -20 Z M756 126 Q920 126 1028.5 205.5 Q1137 285 1187.5 416.5 Q1238 548 1238 707 Q1238 866 1187.5 997 Q1137 1128 1028.5 1207.5 Q920 1287 756 1287 Q594 1287 486.5 1207.5 Q379 1128 328.5 997 Q278 866 278 707 Q278 548 328.5 416.5 Q379 285 486.5 205.5 Q594 126 756 126 Z M877 1560 Q826 1560 790.5 1584.5 Q755 1609 715 1654 Q684 1687 664.5 1702 Q645 1717 622 1717 Q586 1717 569.5 1679 Q553 1641 553 1580 L453 1580 Q453 1694 497 1762 Q541 1830 622 1830 Q661 1830 691.5 1816 Q722 1802 743 1783 Q764 1764 791 1733 Q819 1701 837.5 1686 Q856 1671 879 1671 Q950 1671 950 1824 L1056 1824 Q1056 1696 1009.5 1628 Q963 1560 877 1560 Z " />
<glyph glyph-name="OE" unicode="&#x152;" horiz-adv-x="2243" d="M756 -20 Q549 -20 406.5 77.5 Q264 175 193.5 340 Q123 505 123 707 Q123 909 193.5 1074 Q264 1239 406.5 1336.5 Q549 1434 756 1434 Q936 1434 1052.5 1362.5 Q1169 1291 1233 1158 L1233 1413 L2132 1413 L2132 1276 L1392 1276 L1392 774 L2049 774 L2049 641 L1392 641 L1392 145 L2132 145 L2132 0 L1233 0 L1233 256 Q1172 125 1054.5 52.5 Q937 -20 756 -20 Z M756 124 Q920 124 1027 204 Q1134 284 1183.5 415.5 Q1233 547 1233 707 Q1233 867 1183.5 998.5 Q1134 1130 1027 1209.5 Q920 1289 756 1289 Q594 1289 487.5 1209 Q381 1129 331.5 997.5 Q282 866 282 707 Q282 547 331.5 415.5 Q381 284 487.5 204 Q594 124 756 124 Z " />
<glyph glyph-name="P" unicode="P" horiz-adv-x="1148" d="M212 1413 L608 1413 Q744 1413 846.5 1366 Q949 1319 1004.5 1231 Q1060 1143 1060 1023 Q1060 900 1004.5 813.5 Q949 727 847.5 682.5 Q746 638 608 638 L370 638 L370 0 L212 0 L212 1413 Z M608 779 Q751 779 827.5 840.5 Q904 902 904 1023 Q904 1141 826.5 1206.5 Q749 1272 608 1272 L370 1272 L370 779 L608 779 Z " />
<glyph glyph-name="Thorn" unicode="&#xde;" horiz-adv-x="1149" d="M212 1413 L371 1413 L371 1214 L621 1214 Q755 1214 854 1166.5 Q953 1119 1007 1030 Q1061 941 1061 819 Q1061 697 1005 610 Q949 523 846.5 477.5 Q744 432 609 432 L371 432 L371 0 L212 0 L212 1413 Z M609 579 Q750 579 826 639 Q902 699 902 816 Q902 933 825.5 996 Q749 1059 609 1059 L371 1059 L371 579 L609 579 Z " />
<glyph glyph-name="Q" unicode="Q" horiz-adv-x="1545" d="M1143 102 Q995 -20 756 -20 Q549 -20 406.5 77.5 Q264 175 193.5 340 Q123 505 123 707 Q123 909 193.5 1074 Q264 1239 406.5 1336.5 Q549 1434 756 1434 Q964 1434 1107 1336.5 Q1250 1239 1321 1074 Q1392 909 1392 706 Q1392 557 1353 424.5 Q1314 292 1236 196 L1431 -1 L1336 -97 L1143 102 Z M756 124 Q842 124 909 144.5 Q976 165 1033 206 L834 410 L926 507 L1127 304 Q1181 383 1207 487 Q1233 591 1233 707 Q1233 867 1183.5 998.5 Q1134 1130 1027 1209.5 Q920 1289 756 1289 Q594 1289 487.5 1209 Q381 1129 331.5 997.5 Q282 866 282 707 Q282 547 331.5 415.5 Q381 284 487.5 204 Q594 124 756 124 Z " />
<glyph glyph-name="R" unicode="R" horiz-adv-x="1220" d="M212 1411 L616 1411 Q741 1411 842 1363.5 Q943 1316 1001.5 1227 Q1060 1138 1060 1019 Q1060 925 1022.5 849 Q985 773 917 722.5 Q849 672 759 653 L1142 -2 L956 -2 L603 632 L371 632 L371 -2 L212 -2 L212 1411 Z M642 778 Q760 784 832 846.5 Q904 909 904 1019 Q904 1098 867.5 1155 Q831 1212 766.5 1241.5 Q702 1271 618 1271 L373 1271 L373 778 L642 778 Z " />
<glyph glyph-name="Racute" unicode="&#x154;" horiz-adv-x="1220" d="M212 1411 L616 1411 Q741 1411 842 1363.5 Q943 1316 1001.5 1227 Q1060 1138 1060 1019 Q1060 925 1022.5 849 Q985 773 917 722.5 Q849 672 759 653 L1142 -2 L956 -2 L603 632 L371 632 L371 -2 L212 -2 L212 1411 Z M642 778 Q760 784 832 846.5 Q904 909 904 1019 Q904 1098 867.5 1155 Q831 1212 766.5 1241.5 Q702 1271 618 1271 L373 1271 L373 778 L642 778 Z M516 1538 L733 1827 L926 1827 L649 1538 L516 1538 Z " />
<glyph glyph-name="Rcaron" unicode="&#x158;" horiz-adv-x="1220" d="M212 1411 L616 1411 Q741 1411 842 1363.5 Q943 1316 1001.5 1227 Q1060 1138 1060 1019 Q1060 925 1022.5 849 Q985 773 917 722.5 Q849 672 759 653 L1142 -2 L956 -2 L603 632 L371 632 L371 -2 L212 -2 L212 1411 Z M642 778 Q760 784 832 846.5 Q904 909 904 1019 Q904 1098 867.5 1155 Q831 1212 766.5 1241.5 Q702 1271 618 1271 L373 1271 L373 778 L642 778 Z M611 1495 L282 1827 L444 1827 L611 1646 L779 1827 L940 1827 L611 1495 Z " />
<glyph glyph-name="Rcommaaccent" unicode="&#x156;" horiz-adv-x="1220" d="M212 1411 L616 1411 Q741 1411 842 1363.5 Q943 1316 1001.5 1227 Q1060 1138 1060 1019 Q1060 925 1022.5 849 Q985 773 917 722.5 Q849 672 759 653 L1142 -2 L956 -2 L603 632 L371 632 L371 -2 L212 -2 L212 1411 Z M642 778 Q760 784 832 846.5 Q904 909 904 1019 Q904 1098 867.5 1155 Q831 1212 766.5 1241.5 Q702 1271 618 1271 L373 1271 L373 778 L642 778 Z M461 -446 L584 -111 L796 -111 L568 -446 L461 -446 Z " />
<glyph glyph-name="S" unicode="S" horiz-adv-x="1110" d="M571 -16 Q453 -16 349 27 Q245 70 173.5 155 Q102 240 83 362 L231 406 Q241 314 289 250.5 Q337 187 411 156 Q485 125 572 125 Q703 125 780.5 189.5 Q858 254 858 378 Q858 460 815 516.5 Q772 573 709 609.5 Q646 646 538 693 Q419 745 347.5 787.5 Q276 830 226.5 901 Q177 972 177 1076 Q177 1182 228.5 1263.5 Q280 1345 367.5 1389.5 Q455 1434 560 1434 Q687 1434 787 1379 Q887 1324 952 1214 L833 1134 Q792 1215 719 1256 Q646 1297 558 1297 Q498 1297 446 1271.5 Q394 1246 362.5 1199 Q331 1152 331 1090 Q331 1023 370 974 Q409 925 467 891.5 Q525 858 625 813 Q750 757 827 710 Q904 663 958 584.5 Q1012 506 1012 390 Q1012 269 954.5 176.5 Q897 84 796.5 34 Q696 -16 571 -16 Z " />
<glyph glyph-name="Sacute" unicode="&#x15a;" horiz-adv-x="1110" d="M571 -16 Q453 -16 349 27 Q245 70 173.5 155 Q102 240 83 362 L231 406 Q241 314 289 250.5 Q337 187 411 156 Q485 125 572 125 Q703 125 780.5 189.5 Q858 254 858 378 Q858 460 815 516.5 Q772 573 709 609.5 Q646 646 538 693 Q419 745 347.5 787.5 Q276 830 226.5 901 Q177 972 177 1076 Q177 1182 228.5 1263.5 Q280 1345 367.5 1389.5 Q455 1434 560 1434 Q687 1434 787 1379 Q887 1324 952 1214 L833 1134 Q792 1215 719 1256 Q646 1297 558 1297 Q498 1297 446 1271.5 Q394 1246 362.5 1199 Q331 1152 331 1090 Q331 1023 370 974 Q409 925 467 891.5 Q525 858 625 813 Q750 757 827 710 Q904 663 958 584.5 Q1012 506 1012 390 Q1012 269 954.5 176.5 Q897 84 796.5 34 Q696 -16 571 -16 Z M456 1538 L673 1827 L866 1827 L589 1538 L456 1538 Z " />
<glyph glyph-name="Scaron" unicode="&#x160;" horiz-adv-x="1110" d="M571 -16 Q453 -16 349 27 Q245 70 173.5 155 Q102 240 83 362 L231 406 Q241 314 289 250.5 Q337 187 411 156 Q485 125 572 125 Q703 125 780.5 189.5 Q858 254 858 378 Q858 460 815 516.5 Q772 573 709 609.5 Q646 646 538 693 Q419 745 347.5 787.5 Q276 830 226.5 901 Q177 972 177 1076 Q177 1182 228.5 1263.5 Q280 1345 367.5 1389.5 Q455 1434 560 1434 Q687 1434 787 1379 Q887 1324 952 1214 L833 1134 Q792 1215 719 1256 Q646 1297 558 1297 Q498 1297 446 1271.5 Q394 1246 362.5 1199 Q331 1152 331 1090 Q331 1023 370 974 Q409 925 467 891.5 Q525 858 625 813 Q750 757 827 710 Q904 663 958 584.5 Q1012 506 1012 390 Q1012 269 954.5 176.5 Q897 84 796.5 34 Q696 -16 571 -16 Z M551 1495 L222 1827 L384 1827 L551 1646 L719 1827 L880 1827 L551 1495 Z " />
<glyph glyph-name="Scedilla" unicode="&#x15e;" horiz-adv-x="1110" d="M1012 390 Q1012 274 960 185 Q908 96 816.5 44.5 Q725 -7 608 -15 L549 -117 Q639 -121 687 -172 Q735 -223 735 -297 Q735 -350 709 -397.5 Q683 -445 635 -474.5 Q587 -504 523 -504 Q461 -504 411.5 -468.5 Q362 -433 341 -380 L440 -329 Q446 -358 470.5 -379.5 Q495 -401 529 -401 Q573 -401 600 -373 Q627 -345 627 -305 Q627 -273 606.5 -244 Q586 -215 544 -197.5 Q502 -180 441 -180 L399 -180 L492 -11 Q389 2 303 48.5 Q217 95 158.5 174.5 Q100 254 83 362 L231 406 Q241 314 289 250.5 Q337 187 411 156 Q485 125 572 125 Q703 125 780.5 189.5 Q858 254 858 378 Q858 460 815 516.5 Q772 573 709 609.5 Q646 646 538 693 Q419 745 347.5 787.5 Q276 830 226.5 901 Q177 972 177 1076 Q177 1182 228.5 1263.5 Q280 1345 367.5 1389.5 Q455 1434 560 1434 Q687 1434 787 1379 Q887 1324 952 1214 L833 1134 Q792 1215 719 1256 Q646 1297 558 1297 Q498 1297 446 1271.5 Q394 1246 362.5 1199 Q331 1152 331 1090 Q331 1023 370 974 Q409 925 467 891.5 Q525 858 625 813 Q750 757 827 710 Q904 663 958 584.5 Q1012 506 1012 390 Z " />
<glyph glyph-name="Scommaaccent" unicode="&#x218;" horiz-adv-x="1110" d="M571 -16 Q453 -16 349 27 Q245 70 173.5 155 Q102 240 83 362 L231 406 Q241 314 289 250.5 Q337 187 411 156 Q485 125 572 125 Q703 125 780.5 189.5 Q858 254 858 378 Q858 460 815 516.5 Q772 573 709 609.5 Q646 646 538 693 Q419 745 347.5 787.5 Q276 830 226.5 901 Q177 972 177 1076 Q177 1182 228.5 1263.5 Q280 1345 367.5 1389.5 Q455 1434 560 1434 Q687 1434 787 1379 Q887 1324 952 1214 L833 1134 Q792 1215 719 1256 Q646 1297 558 1297 Q498 1297 446 1271.5 Q394 1246 362.5 1199 Q331 1152 331 1090 Q331 1023 370 974 Q409 925 467 891.5 Q525 858 625 813 Q750 757 827 710 Q904 663 958 584.5 Q1012 506 1012 390 Q1012 269 954.5 176.5 Q897 84 796.5 34 Q696 -16 571 -16 Z M324 -446 L447 -111 L659 -111 L431 -446 L324 -446 Z " />
<glyph glyph-name="T" unicode="T" horiz-adv-x="1234" d="M537 0 L537 1282 L60 1282 L60 1413 L1174 1413 L1174 1282 L697 1282 L697 0 L537 0 Z " />
<glyph glyph-name="Tbar" unicode="&#x166;" horiz-adv-x="1234" d="M1174 1282 L697 1282 L697 764 L938 764 L938 648 L697 648 L697 0 L537 0 L537 648 L304 648 L304 764 L537 764 L537 1282 L60 1282 L60 1413 L1174 1413 L1174 1282 Z " />
<glyph glyph-name="Tcaron" unicode="&#x164;" horiz-adv-x="1234" d="M537 0 L537 1282 L60 1282 L60 1413 L1174 1413 L1174 1282 L697 1282 L697 0 L537 0 Z M621 1495 L292 1827 L454 1827 L621 1646 L789 1827 L950 1827 L621 1495 Z " />
<glyph glyph-name="uni0162" unicode="&#x162;" horiz-adv-x="1234" d="M537 0 L537 1282 L60 1282 L60 1413 L1174 1413 L1174 1282 L697 1282 L697 0 L537 0 Z M593 -504 Q531 -504 481.5 -468.5 Q432 -433 411 -380 L510 -329 Q516 -358 540.5 -379.5 Q565 -401 599 -401 Q643 -401 670 -373 Q697 -345 697 -305 Q697 -273 676.5 -244 Q656 -215 614 -197.5 Q572 -180 511 -180 L469 -180 L568 0 L687 0 L619 -117 Q709 -121 757 -172 Q805 -223 805 -297 Q805 -350 779 -397.5 Q753 -445 705 -474.5 Q657 -504 593 -504 Z " />
<glyph glyph-name="uni021A" unicode="&#x21a;" horiz-adv-x="1234" d="M537 0 L537 1282 L60 1282 L60 1413 L1174 1413 L1174 1282 L697 1282 L697 0 L537 0 Z M394 -446 L517 -111 L729 -111 L501 -446 L394 -446 Z " />
<glyph glyph-name="U" unicode="U" horiz-adv-x="1352" d="M675 -20 Q507 -20 397 53 Q287 126 235.5 247.5 Q184 369 184 518 L184 1413 L343 1413 L343 563 Q343 362 419 246 Q495 130 675 130 Q1011 130 1011 563 L1011 1413 L1170 1413 L1170 528 Q1170 374 1117.5 250.5 Q1065 127 954 53.5 Q843 -20 675 -20 Z " />
<glyph glyph-name="Uacute" unicode="&#xda;" horiz-adv-x="1352" d="M675 -20 Q507 -20 397 53 Q287 126 235.5 247.5 Q184 369 184 518 L184 1413 L343 1413 L343 563 Q343 362 419 246 Q495 130 675 130 Q1011 130 1011 563 L1011 1413 L1170 1413 L1170 528 Q1170 374 1117.5 250.5 Q1065 127 954 53.5 Q843 -20 675 -20 Z M585 1538 L802 1827 L995 1827 L718 1538 L585 1538 Z " />
<glyph glyph-name="uni01D3" unicode="&#x1d3;" horiz-adv-x="1352" d="M675 -20 Q507 -20 397 53 Q287 126 235.5 247.5 Q184 369 184 518 L184 1413 L343 1413 L343 563 Q343 362 419 246 Q495 130 675 130 Q1011 130 1011 563 L1011 1413 L1170 1413 L1170 528 Q1170 374 1117.5 250.5 Q1065 127 954 53.5 Q843 -20 675 -20 Z M680 1495 L351 1827 L513 1827 L680 1646 L848 1827 L1009 1827 L680 1495 Z " />
<glyph glyph-name="Ucircumflex" unicode="&#xdb;" horiz-adv-x="1352" d="M675 -20 Q507 -20 397 53 Q287 126 235.5 247.5 Q184 369 184 518 L184 1413 L343 1413 L343 563 Q343 362 419 246 Q495 130 675 130 Q1011 130 1011 563 L1011 1413 L1170 1413 L1170 528 Q1170 374 1117.5 250.5 Q1065 127 954 53.5 Q843 -20 675 -20 Z M351 1512 L680 1867 L1009 1512 L848 1512 L680 1698 L513 1512 L351 1512 Z " />
<glyph glyph-name="Udieresis" unicode="&#xdc;" horiz-adv-x="1352" d="M675 -20 Q507 -20 397 53 Q287 126 235.5 247.5 Q184 369 184 518 L184 1413 L343 1413 L343 563 Q343 362 419 246 Q495 130 675 130 Q1011 130 1011 563 L1011 1413 L1170 1413 L1170 528 Q1170 374 1117.5 250.5 Q1065 127 954 53.5 Q843 -20 675 -20 Z M425 1635 L425 1827 L594 1827 L594 1635 L425 1635 Z M762 1635 L762 1827 L930 1827 L930 1635 L762 1635 Z " />
<glyph glyph-name="uni01D7" unicode="&#x1d7;" horiz-adv-x="1352" d="M675 -20 Q507 -20 397 53 Q287 126 235.5 247.5 Q184 369 184 518 L184 1413 L343 1413 L343 563 Q343 362 419 246 Q495 130 675 130 Q1011 130 1011 563 L1011 1413 L1170 1413 L1170 528 Q1170 374 1117.5 250.5 Q1065 127 954 53.5 Q843 -20 675 -20 Z M425 1635 L425 1827 L594 1827 L594 1635 L425 1635 Z M762 1635 L762 1827 L930 1827 L930 1635 L762 1635 Z M585 1952 L802 2241 L995 2241 L718 1952 L585 1952 Z " />
<glyph glyph-name="uni01D9" unicode="&#x1d9;" horiz-adv-x="1352" d="M675 -20 Q507 -20 397 53 Q287 126 235.5 247.5 Q184 369 184 518 L184 1413 L343 1413 L343 563 Q343 362 419 246 Q495 130 675 130 Q1011 130 1011 563 L1011 1413 L1170 1413 L1170 528 Q1170 374 1117.5 250.5 Q1065 127 954 53.5 Q843 -20 675 -20 Z M425 1635 L425 1827 L594 1827 L594 1635 L425 1635 Z M762 1635 L762 1827 L930 1827 L930 1635 L762 1635 Z M680 1909 L351 2241 L513 2241 L680 2060 L848 2241 L1009 2241 L680 1909 Z " />
<glyph glyph-name="uni01DB" unicode="&#x1db;" horiz-adv-x="1352" d="M675 -20 Q507 -20 397 53 Q287 126 235.5 247.5 Q184 369 184 518 L184 1413 L343 1413 L343 563 Q343 362 419 246 Q495 130 675 130 Q1011 130 1011 563 L1011 1413 L1170 1413 L1170 528 Q1170 374 1117.5 250.5 Q1065 127 954 53.5 Q843 -20 675 -20 Z M425 1635 L425 1827 L594 1827 L594 1635 L425 1635 Z M762 1635 L762 1827 L930 1827 L930 1635 L762 1635 Z M608 1950 L350 2241 L542 2241 L760 1950 L608 1950 Z " />
<glyph glyph-name="uni01D5" unicode="&#x1d5;" horiz-adv-x="1352" d="M675 -20 Q507 -20 397 53 Q287 126 235.5 247.5 Q184 369 184 518 L184 1413 L343 1413 L343 563 Q343 362 419 246 Q495 130 675 130 Q1011 130 1011 563 L1011 1413 L1170 1413 L1170 528 Q1170 374 1117.5 250.5 Q1065 127 954 53.5 Q843 -20 675 -20 Z M425 1635 L425 1827 L594 1827 L594 1635 L425 1635 Z M762 1635 L762 1827 L930 1827 L930 1635 L762 1635 Z M411 2011 L411 2136 L952 2136 L952 2011 L411 2011 Z " />
<glyph glyph-name="Ugrave" unicode="&#xd9;" horiz-adv-x="1352" d="M675 -20 Q507 -20 397 53 Q287 126 235.5 247.5 Q184 369 184 518 L184 1413 L343 1413 L343 563 Q343 362 419 246 Q495 130 675 130 Q1011 130 1011 563 L1011 1413 L1170 1413 L1170 528 Q1170 374 1117.5 250.5 Q1065 127 954 53.5 Q843 -20 675 -20 Z M608 1536 L350 1827 L542 1827 L760 1536 L608 1536 Z " />
<glyph glyph-name="Uhungarumlaut" unicode="&#x170;" horiz-adv-x="1352" d="M675 -20 Q507 -20 397 53 Q287 126 235.5 247.5 Q184 369 184 518 L184 1413 L343 1413 L343 563 Q343 362 419 246 Q495 130 675 130 Q1011 130 1011 563 L1011 1413 L1170 1413 L1170 528 Q1170 374 1117.5 250.5 Q1065 127 954 53.5 Q843 -20 675 -20 Z M419 1533 L636 1827 L824 1827 L553 1533 L419 1533 Z M749 1533 L966 1827 L1159 1827 L883 1533 L749 1533 Z " />
<glyph glyph-name="Umacron" unicode="&#x16a;" horiz-adv-x="1352" d="M675 -20 Q507 -20 397 53 Q287 126 235.5 247.5 Q184 369 184 518 L184 1413 L343 1413 L343 563 Q343 362 419 246 Q495 130 675 130 Q1011 130 1011 563 L1011 1413 L1170 1413 L1170 528 Q1170 374 1117.5 250.5 Q1065 127 954 53.5 Q843 -20 675 -20 Z M411 1597 L411 1722 L952 1722 L952 1597 L411 1597 Z " />
<glyph glyph-name="Uogonek" unicode="&#x172;" horiz-adv-x="1352" d="M1170 1413 L1170 528 Q1170 351 1100.5 215.5 Q1031 80 891 20 L889 19 Q877 15 871 12 Q798 -18 731 -73.5 Q664 -129 664 -209 Q664 -260 688.5 -288.5 Q713 -317 751 -317 Q791 -317 820.5 -301 Q850 -285 873 -253 L966 -318 Q928 -372 879.5 -401.5 Q831 -431 760 -431 Q701 -431 654 -405.5 Q607 -380 580.5 -333.5 Q554 -287 554 -226 Q554 -157 590.5 -105.5 Q627 -54 682 -20 L675 -20 Q507 -20 397 53 Q287 126 235.5 247.5 Q184 369 184 518 L184 1413 L343 1413 L343 563 Q343 362 419 246 Q495 130 675 130 Q1011 130 1011 563 L1011 1413 L1170 1413 Z " />
<glyph glyph-name="Uring" unicode="&#x16e;" horiz-adv-x="1352" d="M675 -20 Q507 -20 397 53 Q287 126 235.5 247.5 Q184 369 184 518 L184 1413 L343 1413 L343 563 Q343 362 419 246 Q495 130 675 130 Q1011 130 1011 563 L1011 1413 L1170 1413 L1170 528 Q1170 374 1117.5 250.5 Q1065 127 954 53.5 Q843 -20 675 -20 Z M678 1493 Q621 1493 574.5 1520.5 Q528 1548 501.5 1594.5 Q475 1641 475 1696 Q475 1752 502 1798.5 Q529 1845 575.5 1872.5 Q622 1900 678 1900 Q732 1900 779 1873 Q826 1846 854 1799 Q882 1752 882 1696 Q882 1641 854.5 1594.5 Q827 1548 780.5 1520.5 Q734 1493 678 1493 Z M678 1596 Q720 1596 749 1625 Q778 1654 778 1697 Q778 1739 750 1767 Q722 1795 678 1795 Q634 1795 607 1768 Q580 1741 580 1697 Q580 1653 608 1624.5 Q636 1596 678 1596 Z " />
<glyph glyph-name="Utilde" unicode="&#x168;" horiz-adv-x="1352" d="M675 -20 Q507 -20 397 53 Q287 126 235.5 247.5 Q184 369 184 518 L184 1413 L343 1413 L343 563 Q343 362 419 246 Q495 130 675 130 Q1011 130 1011 563 L1011 1413 L1170 1413 L1170 528 Q1170 374 1117.5 250.5 Q1065 127 954 53.5 Q843 -20 675 -20 Z M801 1560 Q750 1560 714.5 1584.5 Q679 1609 639 1654 Q608 1687 588.5 1702 Q569 1717 546 1717 Q510 1717 493.5 1679 Q477 1641 477 1580 L377 1580 Q377 1694 421 1762 Q465 1830 546 1830 Q585 1830 615.5 1816 Q646 1802 667 1783 Q688 1764 715 1733 Q743 1701 761.5 1686 Q780 1671 803 1671 Q874 1671 874 1824 L980 1824 Q980 1696 933.5 1628 Q887 1560 801 1560 Z " />
<glyph glyph-name="V" unicode="V" horiz-adv-x="1324" d="M596 0 L63 1413 L229 1413 L664 210 L1099 1413 L1261 1413 L732 0 L596 0 Z " />
<glyph glyph-name="W" unicode="W" horiz-adv-x="1973" d="M471 0 L74 1413 L236 1413 L572 194 L923 1331 L1051 1331 L1403 194 L1737 1413 L1900 1413 L1502 0 L1328 0 L990 1076 L645 0 L471 0 Z " />
<glyph glyph-name="Wacute" unicode="&#x1e82;" horiz-adv-x="1973" d="M471 0 L74 1413 L236 1413 L572 194 L923 1331 L1051 1331 L1403 194 L1737 1413 L1900 1413 L1502 0 L1328 0 L990 1076 L645 0 L471 0 Z M895 1513 L1112 1802 L1305 1802 L1028 1513 L895 1513 Z " />
<glyph glyph-name="Wcircumflex" unicode="&#x174;" horiz-adv-x="1973" d="M471 0 L74 1413 L236 1413 L572 194 L923 1331 L1051 1331 L1403 194 L1737 1413 L1900 1413 L1502 0 L1328 0 L990 1076 L645 0 L471 0 Z M661 1487 L990 1842 L1319 1487 L1158 1487 L990 1673 L823 1487 L661 1487 Z " />
<glyph glyph-name="Wdieresis" unicode="&#x1e84;" horiz-adv-x="1973" d="M471 0 L74 1413 L236 1413 L572 194 L923 1331 L1051 1331 L1403 194 L1737 1413 L1900 1413 L1502 0 L1328 0 L990 1076 L645 0 L471 0 Z M735 1610 L735 1802 L904 1802 L904 1610 L735 1610 Z M1072 1610 L1072 1802 L1240 1802 L1240 1610 L1072 1610 Z " />
<glyph glyph-name="Wgrave" unicode="&#x1e80;" horiz-adv-x="1973" d="M471 0 L74 1413 L236 1413 L572 194 L923 1331 L1051 1331 L1403 194 L1737 1413 L1900 1413 L1502 0 L1328 0 L990 1076 L645 0 L471 0 Z M918 1511 L660 1802 L852 1802 L1070 1511 L918 1511 Z " />
<glyph glyph-name="X" unicode="X" horiz-adv-x="1260" d="M72 0 L540 707 L74 1413 L263 1413 L631 827 L1001 1413 L1186 1413 L723 707 L1188 0 L1003 0 L629 576 L261 0 L72 0 Z " />
<glyph glyph-name="Y" unicode="Y" horiz-adv-x="1316" d="M581 0 L581 553 L52 1413 L238 1413 L657 714 L1079 1413 L1264 1413 L737 553 L737 0 L581 0 Z " />
<glyph glyph-name="Yacute" unicode="&#xdd;" horiz-adv-x="1316" d="M581 0 L581 553 L52 1413 L238 1413 L657 714 L1079 1413 L1264 1413 L737 553 L737 0 L581 0 Z M562 1538 L779 1827 L972 1827 L695 1538 L562 1538 Z " />
<glyph glyph-name="Ycircumflex" unicode="&#x176;" horiz-adv-x="1316" d="M581 0 L581 553 L52 1413 L238 1413 L657 714 L1079 1413 L1264 1413 L737 553 L737 0 L581 0 Z M328 1512 L657 1867 L986 1512 L825 1512 L657 1698 L490 1512 L328 1512 Z " />
<glyph glyph-name="Ydieresis" unicode="&#x178;" horiz-adv-x="1316" d="M581 0 L581 553 L52 1413 L238 1413 L657 714 L1079 1413 L1264 1413 L737 553 L737 0 L581 0 Z M402 1635 L402 1827 L571 1827 L571 1635 L402 1635 Z M739 1635 L739 1827 L907 1827 L907 1635 L739 1635 Z " />
<glyph glyph-name="Ygrave" unicode="&#x1ef2;" horiz-adv-x="1316" d="M581 0 L581 553 L52 1413 L238 1413 L657 714 L1079 1413 L1264 1413 L737 553 L737 0 L581 0 Z M585 1536 L327 1827 L519 1827 L737 1536 L585 1536 Z " />
<glyph glyph-name="uni1EF8" unicode="&#x1ef8;" horiz-adv-x="1316" d="M581 0 L581 553 L52 1413 L238 1413 L657 714 L1079 1413 L1264 1413 L737 553 L737 0 L581 0 Z M778 1560 Q727 1560 691.5 1584.5 Q656 1609 616 1654 Q585 1687 565.5 1702 Q546 1717 523 1717 Q487 1717 470.5 1679 Q454 1641 454 1580 L354 1580 Q354 1694 398 1762 Q442 1830 523 1830 Q562 1830 592.5 1816 Q623 1802 644 1783 Q665 1764 692 1733 Q720 1701 738.5 1686 Q757 1671 780 1671 Q851 1671 851 1824 L957 1824 Q957 1696 910.5 1628 Q864 1560 778 1560 Z " />
<glyph glyph-name="Z" unicode="Z" horiz-adv-x="1273" d="M87 0 L87 124 L982 1276 L132 1276 L132 1413 L1175 1413 L1175 1283 L284 144 L1175 144 L1175 0 L87 0 Z " />
<glyph glyph-name="Zacute" unicode="&#x179;" horiz-adv-x="1273" d="M87 0 L87 124 L982 1276 L132 1276 L132 1413 L1175 1413 L1175 1283 L284 144 L1175 144 L1175 0 L87 0 Z M542 1538 L759 1827 L952 1827 L675 1538 L542 1538 Z " />
<glyph glyph-name="Zcaron" unicode="&#x17d;" horiz-adv-x="1273" d="M87 0 L87 124 L982 1276 L132 1276 L132 1413 L1175 1413 L1175 1283 L284 144 L1175 144 L1175 0 L87 0 Z M637 1495 L308 1827 L470 1827 L637 1646 L805 1827 L966 1827 L637 1495 Z " />
<glyph glyph-name="Zdotaccent" unicode="&#x17b;" horiz-adv-x="1273" d="M87 0 L87 124 L982 1276 L132 1276 L132 1413 L1175 1413 L1175 1283 L284 144 L1175 144 L1175 0 L87 0 Z M549 1635 L549 1827 L722 1827 L722 1635 L549 1635 Z " />
<glyph glyph-name="a" unicode="a" horiz-adv-x="1025" d="M401 -20 Q307 -20 233.5 15.5 Q160 51 118.5 118.5 Q77 186 77 278 Q77 426 189 498.5 Q301 571 517 571 L745 571 Q745 890 500 890 Q403 890 335 846.5 Q267 803 223 739 L114 824 Q256 1020 491 1020 Q616 1020 704 969.5 Q792 919 837 827 Q882 735 882 613 L882 0 L755 0 L752 193 Q700 85 607 32.5 Q514 -20 401 -20 Z M418 106 Q515 106 590 158.5 Q665 211 705 293 Q745 375 745 458 L531 458 Q379 458 305 415 Q231 372 231 274 Q231 189 282.5 147.5 Q334 106 418 106 Z " />
<glyph glyph-name="aacute" unicode="&#xe1;" horiz-adv-x="1025" d="M401 -20 Q307 -20 233.5 15.5 Q160 51 118.5 118.5 Q77 186 77 278 Q77 426 189 498.5 Q301 571 517 571 L745 571 Q745 890 500 890 Q403 890 335 846.5 Q267 803 223 739 L114 824 Q256 1020 491 1020 Q616 1020 704 969.5 Q792 919 837 827 Q882 735 882 613 L882 0 L755 0 L752 193 Q700 85 607 32.5 Q514 -20 401 -20 Z M418 106 Q515 106 590 158.5 Q665 211 705 293 Q745 375 745 458 L531 458 Q379 458 305 415 Q231 372 231 274 Q231 189 282.5 147.5 Q334 106 418 106 Z M407 1124 L624 1413 L817 1413 L540 1124 L407 1124 Z " />
<glyph glyph-name="abreve" unicode="&#x103;" horiz-adv-x="1025" d="M401 -20 Q307 -20 233.5 15.5 Q160 51 118.5 118.5 Q77 186 77 278 Q77 426 189 498.5 Q301 571 517 571 L745 571 Q745 890 500 890 Q403 890 335 846.5 Q267 803 223 739 L114 824 Q256 1020 491 1020 Q616 1020 704 969.5 Q792 919 837 827 Q882 735 882 613 L882 0 L755 0 L752 193 Q700 85 607 32.5 Q514 -20 401 -20 Z M418 106 Q515 106 590 158.5 Q665 211 705 293 Q745 375 745 458 L531 458 Q379 458 305 415 Q231 372 231 274 Q231 189 282.5 147.5 Q334 106 418 106 Z M502 1143 Q412 1143 342.5 1174.5 Q273 1206 234 1267 Q195 1328 195 1413 L331 1413 Q331 1367 354 1331.5 Q377 1296 416 1276.5 Q455 1257 502 1257 Q549 1257 588 1276.5 Q627 1296 649.5 1331.5 Q672 1367 672 1413 L808 1413 Q808 1327 769 1266 Q730 1205 661 1174 Q592 1143 502 1143 Z " />
<glyph glyph-name="uni1EAF" unicode="&#x1eaf;" horiz-adv-x="1025" d="M401 -20 Q307 -20 233.5 15.5 Q160 51 118.5 118.5 Q77 186 77 278 Q77 426 189 498.5 Q301 571 517 571 L745 571 Q745 890 500 890 Q403 890 335 846.5 Q267 803 223 739 L114 824 Q256 1020 491 1020 Q616 1020 704 969.5 Q792 919 837 827 Q882 735 882 613 L882 0 L755 0 L752 193 Q700 85 607 32.5 Q514 -20 401 -20 Z M418 106 Q515 106 590 158.5 Q665 211 705 293 Q745 375 745 458 L531 458 Q379 458 305 415 Q231 372 231 274 Q231 189 282.5 147.5 Q334 106 418 106 Z M502 1143 Q412 1143 342.5 1174.5 Q273 1206 234 1267 Q195 1328 195 1413 L331 1413 Q331 1367 354 1331.5 Q377 1296 416 1276.5 Q455 1257 502 1257 Q549 1257 588 1276.5 Q627 1296 649.5 1331.5 Q672 1367 672 1413 L808 1413 Q808 1327 769 1266 Q730 1205 661 1174 Q592 1143 502 1143 Z M407 1538 L624 1827 L817 1827 L540 1538 L407 1538 Z " />
<glyph glyph-name="uni1EB1" unicode="&#x1eb1;" horiz-adv-x="1025" d="M401 -20 Q307 -20 233.5 15.5 Q160 51 118.5 118.5 Q77 186 77 278 Q77 426 189 498.5 Q301 571 517 571 L745 571 Q745 890 500 890 Q403 890 335 846.5 Q267 803 223 739 L114 824 Q256 1020 491 1020 Q616 1020 704 969.5 Q792 919 837 827 Q882 735 882 613 L882 0 L755 0 L752 193 Q700 85 607 32.5 Q514 -20 401 -20 Z M418 106 Q515 106 590 158.5 Q665 211 705 293 Q745 375 745 458 L531 458 Q379 458 305 415 Q231 372 231 274 Q231 189 282.5 147.5 Q334 106 418 106 Z M502 1143 Q412 1143 342.5 1174.5 Q273 1206 234 1267 Q195 1328 195 1413 L331 1413 Q331 1367 354 1331.5 Q377 1296 416 1276.5 Q455 1257 502 1257 Q549 1257 588 1276.5 Q627 1296 649.5 1331.5 Q672 1367 672 1413 L808 1413 Q808 1327 769 1266 Q730 1205 661 1174 Q592 1143 502 1143 Z M430 1536 L172 1827 L364 1827 L582 1536 L430 1536 Z " />
<glyph glyph-name="uni1EB5" unicode="&#x1eb5;" horiz-adv-x="1025" d="M401 -20 Q307 -20 233.5 15.5 Q160 51 118.5 118.5 Q77 186 77 278 Q77 426 189 498.5 Q301 571 517 571 L745 571 Q745 890 500 890 Q403 890 335 846.5 Q267 803 223 739 L114 824 Q256 1020 491 1020 Q616 1020 704 969.5 Q792 919 837 827 Q882 735 882 613 L882 0 L755 0 L752 193 Q700 85 607 32.5 Q514 -20 401 -20 Z M418 106 Q515 106 590 158.5 Q665 211 705 293 Q745 375 745 458 L531 458 Q379 458 305 415 Q231 372 231 274 Q231 189 282.5 147.5 Q334 106 418 106 Z M502 1143 Q412 1143 342.5 1174.5 Q273 1206 234 1267 Q195 1328 195 1413 L331 1413 Q331 1367 354 1331.5 Q377 1296 416 1276.5 Q455 1257 502 1257 Q549 1257 588 1276.5 Q627 1296 649.5 1331.5 Q672 1367 672 1413 L808 1413 Q808 1327 769 1266 Q730 1205 661 1174 Q592 1143 502 1143 Z M623 1560 Q572 1560 536.5 1584.5 Q501 1609 461 1654 Q430 1687 410.5 1702 Q391 1717 368 1717 Q332 1717 315.5 1679 Q299 1641 299 1580 L199 1580 Q199 1694 243 1762 Q287 1830 368 1830 Q407 1830 437.5 1816 Q468 1802 489 1783 Q510 1764 537 1733 Q565 1701 583.5 1686 Q602 1671 625 1671 Q696 1671 696 1824 L802 1824 Q802 1696 755.5 1628 Q709 1560 623 1560 Z " />
<glyph glyph-name="uni01CE" unicode="&#x1ce;" horiz-adv-x="1025" d="M401 -20 Q307 -20 233.5 15.5 Q160 51 118.5 118.5 Q77 186 77 278 Q77 426 189 498.5 Q301 571 517 571 L745 571 Q745 890 500 890 Q403 890 335 846.5 Q267 803 223 739 L114 824 Q256 1020 491 1020 Q616 1020 704 969.5 Q792 919 837 827 Q882 735 882 613 L882 0 L755 0 L752 193 Q700 85 607 32.5 Q514 -20 401 -20 Z M418 106 Q515 106 590 158.5 Q665 211 705 293 Q745 375 745 458 L531 458 Q379 458 305 415 Q231 372 231 274 Q231 189 282.5 147.5 Q334 106 418 106 Z M502 1081 L173 1413 L335 1413 L502 1232 L670 1413 L831 1413 L502 1081 Z " />
<glyph glyph-name="acircumflex" unicode="&#xe2;" horiz-adv-x="1025" d="M401 -20 Q307 -20 233.5 15.5 Q160 51 118.5 118.5 Q77 186 77 278 Q77 426 189 498.5 Q301 571 517 571 L745 571 Q745 890 500 890 Q403 890 335 846.5 Q267 803 223 739 L114 824 Q256 1020 491 1020 Q616 1020 704 969.5 Q792 919 837 827 Q882 735 882 613 L882 0 L755 0 L752 193 Q700 85 607 32.5 Q514 -20 401 -20 Z M418 106 Q515 106 590 158.5 Q665 211 705 293 Q745 375 745 458 L531 458 Q379 458 305 415 Q231 372 231 274 Q231 189 282.5 147.5 Q334 106 418 106 Z M173 1098 L502 1453 L831 1098 L670 1098 L502 1284 L335 1098 L173 1098 Z " />
<glyph glyph-name="uni1EA5" unicode="&#x1ea5;" horiz-adv-x="1025" d="M401 -20 Q307 -20 233.5 15.5 Q160 51 118.5 118.5 Q77 186 77 278 Q77 426 189 498.5 Q301 571 517 571 L745 571 Q745 890 500 890 Q403 890 335 846.5 Q267 803 223 739 L114 824 Q256 1020 491 1020 Q616 1020 704 969.5 Q792 919 837 827 Q882 735 882 613 L882 0 L755 0 L752 193 Q700 85 607 32.5 Q514 -20 401 -20 Z M418 106 Q515 106 590 158.5 Q665 211 705 293 Q745 375 745 458 L531 458 Q379 458 305 415 Q231 372 231 274 Q231 189 282.5 147.5 Q334 106 418 106 Z M173 1098 L502 1453 L831 1098 L670 1098 L502 1284 L335 1098 L173 1098 Z M407 1538 L624 1827 L817 1827 L540 1538 L407 1538 Z " />
<glyph glyph-name="uni1EA7" unicode="&#x1ea7;" horiz-adv-x="1025" d="M401 -20 Q307 -20 233.5 15.5 Q160 51 118.5 118.5 Q77 186 77 278 Q77 426 189 498.5 Q301 571 517 571 L745 571 Q745 890 500 890 Q403 890 335 846.5 Q267 803 223 739 L114 824 Q256 1020 491 1020 Q616 1020 704 969.5 Q792 919 837 827 Q882 735 882 613 L882 0 L755 0 L752 193 Q700 85 607 32.5 Q514 -20 401 -20 Z M418 106 Q515 106 590 158.5 Q665 211 705 293 Q745 375 745 458 L531 458 Q379 458 305 415 Q231 372 231 274 Q231 189 282.5 147.5 Q334 106 418 106 Z M173 1098 L502 1453 L831 1098 L670 1098 L502 1284 L335 1098 L173 1098 Z M430 1536 L172 1827 L364 1827 L582 1536 L430 1536 Z " />
<glyph glyph-name="uni1EAB" unicode="&#x1eab;" horiz-adv-x="1025" d="M401 -20 Q307 -20 233.5 15.5 Q160 51 118.5 118.5 Q77 186 77 278 Q77 426 189 498.5 Q301 571 517 571 L745 571 Q745 890 500 890 Q403 890 335 846.5 Q267 803 223 739 L114 824 Q256 1020 491 1020 Q616 1020 704 969.5 Q792 919 837 827 Q882 735 882 613 L882 0 L755 0 L752 193 Q700 85 607 32.5 Q514 -20 401 -20 Z M418 106 Q515 106 590 158.5 Q665 211 705 293 Q745 375 745 458 L531 458 Q379 458 305 415 Q231 372 231 274 Q231 189 282.5 147.5 Q334 106 418 106 Z M173 1098 L502 1453 L831 1098 L670 1098 L502 1284 L335 1098 L173 1098 Z M623 1560 Q572 1560 536.5 1584.5 Q501 1609 461 1654 Q430 1687 410.5 1702 Q391 1717 368 1717 Q332 1717 315.5 1679 Q299 1641 299 1580 L199 1580 Q199 1694 243 1762 Q287 1830 368 1830 Q407 1830 437.5 1816 Q468 1802 489 1783 Q510 1764 537 1733 Q565 1701 583.5 1686 Q602 1671 625 1671 Q696 1671 696 1824 L802 1824 Q802 1696 755.5 1628 Q709 1560 623 1560 Z " />
<glyph glyph-name="adieresis" unicode="&#xe4;" horiz-adv-x="1025" d="M401 -20 Q307 -20 233.5 15.5 Q160 51 118.5 118.5 Q77 186 77 278 Q77 426 189 498.5 Q301 571 517 571 L745 571 Q745 890 500 890 Q403 890 335 846.5 Q267 803 223 739 L114 824 Q256 1020 491 1020 Q616 1020 704 969.5 Q792 919 837 827 Q882 735 882 613 L882 0 L755 0 L752 193 Q700 85 607 32.5 Q514 -20 401 -20 Z M418 106 Q515 106 590 158.5 Q665 211 705 293 Q745 375 745 458 L531 458 Q379 458 305 415 Q231 372 231 274 Q231 189 282.5 147.5 Q334 106 418 106 Z M247 1221 L247 1413 L416 1413 L416 1221 L247 1221 Z M584 1221 L584 1413 L752 1413 L752 1221 L584 1221 Z " />
<glyph glyph-name="agrave" unicode="&#xe0;" horiz-adv-x="1025" d="M401 -20 Q307 -20 233.5 15.5 Q160 51 118.5 118.5 Q77 186 77 278 Q77 426 189 498.5 Q301 571 517 571 L745 571 Q745 890 500 890 Q403 890 335 846.5 Q267 803 223 739 L114 824 Q256 1020 491 1020 Q616 1020 704 969.5 Q792 919 837 827 Q882 735 882 613 L882 0 L755 0 L752 193 Q700 85 607 32.5 Q514 -20 401 -20 Z M418 106 Q515 106 590 158.5 Q665 211 705 293 Q745 375 745 458 L531 458 Q379 458 305 415 Q231 372 231 274 Q231 189 282.5 147.5 Q334 106 418 106 Z M430 1122 L172 1413 L364 1413 L582 1122 L430 1122 Z " />
<glyph glyph-name="amacron" unicode="&#x101;" horiz-adv-x="1025" d="M401 -20 Q307 -20 233.5 15.5 Q160 51 118.5 118.5 Q77 186 77 278 Q77 426 189 498.5 Q301 571 517 571 L745 571 Q745 890 500 890 Q403 890 335 846.5 Q267 803 223 739 L114 824 Q256 1020 491 1020 Q616 1020 704 969.5 Q792 919 837 827 Q882 735 882 613 L882 0 L755 0 L752 193 Q700 85 607 32.5 Q514 -20 401 -20 Z M418 106 Q515 106 590 158.5 Q665 211 705 293 Q745 375 745 458 L531 458 Q379 458 305 415 Q231 372 231 274 Q231 189 282.5 147.5 Q334 106 418 106 Z M233 1183 L233 1308 L774 1308 L774 1183 L233 1183 Z " />
<glyph glyph-name="aogonek" unicode="&#x105;" horiz-adv-x="1025" d="M957 -338 Q919 -392 870.5 -421.5 Q822 -451 751 -451 Q692 -451 645 -425.5 Q598 -400 571.5 -353.5 Q545 -307 545 -246 Q545 -177 582 -125 Q619 -73 667.5 -43 Q716 -13 758 0 L755 0 L752 193 Q700 85 607 32.5 Q514 -20 401 -20 Q307 -20 233.5 15.5 Q160 51 118.5 118.5 Q77 186 77 278 Q77 426 189 498.5 Q301 571 517 571 L745 571 Q745 890 500 890 Q403 890 335 846.5 Q267 803 223 739 L114 824 Q256 1020 491 1020 Q616 1020 704 969.5 Q792 919 837 827 Q882 735 882 613 L882 0 Q858 -8 806.5 -34.5 Q755 -61 705 -111.5 Q655 -162 655 -229 Q655 -280 679.5 -308.5 Q704 -337 742 -337 Q782 -337 811.5 -321 Q841 -305 864 -273 L957 -338 Z M418 106 Q515 106 590 158.5 Q665 211 705 293 Q745 375 745 458 L531 458 Q379 458 305 415 Q231 372 231 274 Q231 189 282.5 147.5 Q334 106 418 106 Z " />
<glyph glyph-name="aring" unicode="&#xe5;" horiz-adv-x="1025" d="M401 -20 Q307 -20 233.5 15.5 Q160 51 118.5 118.5 Q77 186 77 278 Q77 426 189 498.5 Q301 571 517 571 L745 571 Q745 890 500 890 Q403 890 335 846.5 Q267 803 223 739 L114 824 Q256 1020 491 1020 Q616 1020 704 969.5 Q792 919 837 827 Q882 735 882 613 L882 0 L755 0 L752 193 Q700 85 607 32.5 Q514 -20 401 -20 Z M418 106 Q515 106 590 158.5 Q665 211 705 293 Q745 375 745 458 L531 458 Q379 458 305 415 Q231 372 231 274 Q231 189 282.5 147.5 Q334 106 418 106 Z M500 1079 Q443 1079 396.5 1106.5 Q350 1134 323.5 1180.5 Q297 1227 297 1282 Q297 1338 324 1384.5 Q351 1431 397.5 1458.5 Q444 1486 500 1486 Q554 1486 601 1459 Q648 1432 676 1385 Q704 1338 704 1282 Q704 1227 676.5 1180.5 Q649 1134 602.5 1106.5 Q556 1079 500 1079 Z M500 1182 Q542 1182 571 1211 Q600 1240 600 1283 Q600 1325 572 1353 Q544 1381 500 1381 Q456 1381 429 1354 Q402 1327 402 1283 Q402 1239 430 1210.5 Q458 1182 500 1182 Z " />
<glyph glyph-name="atilde" unicode="&#xe3;" horiz-adv-x="1025" d="M401 -20 Q307 -20 233.5 15.5 Q160 51 118.5 118.5 Q77 186 77 278 Q77 426 189 498.5 Q301 571 517 571 L745 571 Q745 890 500 890 Q403 890 335 846.5 Q267 803 223 739 L114 824 Q256 1020 491 1020 Q616 1020 704 969.5 Q792 919 837 827 Q882 735 882 613 L882 0 L755 0 L752 193 Q700 85 607 32.5 Q514 -20 401 -20 Z M418 106 Q515 106 590 158.5 Q665 211 705 293 Q745 375 745 458 L531 458 Q379 458 305 415 Q231 372 231 274 Q231 189 282.5 147.5 Q334 106 418 106 Z M623 1146 Q572 1146 536.5 1170.5 Q501 1195 461 1240 Q430 1273 410.5 1288 Q391 1303 368 1303 Q332 1303 315.5 1265 Q299 1227 299 1166 L199 1166 Q199 1280 243 1348 Q287 1416 368 1416 Q407 1416 437.5 1402 Q468 1388 489 1369 Q510 1350 537 1319 Q565 1287 583.5 1272 Q602 1257 625 1257 Q696 1257 696 1410 L802 1410 Q802 1282 755.5 1214 Q709 1146 623 1146 Z " />
<glyph glyph-name="uni0250" unicode="&#x250;" horiz-adv-x="1055" d="M551 -20 Q431 -20 344.5 29 Q258 78 213 168.5 Q168 259 168 381 L168 995 L292 995 L300 818 Q368 921 453.5 968.5 Q539 1016 659 1016 Q746 1016 818.5 979 Q891 942 933.5 874.5 Q976 807 976 719 Q976 568 879 495 Q782 422 613 422 L302 422 Q302 270 362 191 Q422 112 560 112 Q644 112 714 153 Q784 194 827 256 L937 172 Q866 73 774 26.5 Q682 -20 551 -20 Z M598 546 Q695 546 758.5 592 Q822 638 822 719 Q822 803 765 842 Q708 881 621 881 Q532 881 459 833 Q386 785 344.5 707.5 Q303 630 302 546 L598 546 Z " />
<glyph glyph-name="ae" unicode="&#xe6;" horiz-adv-x="1664" d="M396 -20 Q309 -20 235.5 17 Q162 54 119 120.5 Q76 187 76 273 Q76 427 173.5 499 Q271 571 441 571 L751 571 Q751 896 494 896 Q408 896 339.5 854 Q271 812 231 749 L116 825 Q192 922 283 969 Q374 1016 503 1016 Q625 1016 707.5 967.5 Q790 919 830 826 Q926 1012 1158 1012 Q1385 1012 1483.5 865 Q1582 718 1582 487 Q1582 476 1581 464.5 Q1580 453 1580 449 L884 449 Q883 358 916 283.5 Q949 209 1014.5 164.5 Q1080 120 1173 120 Q1268 120 1333.5 142.5 Q1399 165 1460 224 L1558 142 Q1477 60 1386 24 Q1295 -12 1175 -12 Q1023 -12 927 63.5 Q831 139 791 269 Q741 131 642.5 55.5 Q544 -20 396 -20 Z M1441 571 Q1442 712 1369.5 795.5 Q1297 879 1157 879 Q1071 879 1010 838 Q949 797 917.5 727.5 Q886 658 883 571 L1441 571 Z M435 108 Q523 108 597 157.5 Q671 207 712.5 286 Q754 365 751 449 L455 449 Q359 449 296 403 Q233 357 233 274 Q233 229 264 190.5 Q295 152 342 130 Q389 108 435 108 Z " />
<glyph glyph-name="uni01E3" unicode="&#x1e3;" horiz-adv-x="1671" d="M562 1196 L562 1313 L1094 1313 L1094 1196 L562 1196 Z M395 -20 Q309 -20 236 16.5 Q163 53 120 120.5 Q77 188 77 276 Q77 428 174.5 500.5 Q272 573 440 573 L753 573 Q753 896 493 896 Q409 896 340 854 Q271 812 228 749 L115 823 Q187 921 280 968.5 Q373 1016 501 1016 Q625 1016 707 967 Q789 918 830 826 Q931 1012 1156 1012 Q1385 1012 1483 865 Q1581 718 1581 483 L1580 449 L883 449 Q884 349 920 274.5 Q956 200 1022 159 Q1088 118 1175 118 Q1266 118 1332.5 142 Q1399 166 1459 227 L1559 143 Q1480 60 1388.5 24 Q1297 -12 1177 -12 Q1024 -12 928.5 62.5 Q833 137 791 267 Q740 130 641.5 55 Q543 -20 395 -20 Z M1441 573 Q1439 718 1365.5 798.5 Q1292 879 1159 879 Q1071 879 1009.5 838 Q948 797 917 727.5 Q886 658 883 573 L1441 573 Z M434 108 Q520 108 593 154.5 Q666 201 709 279.5 Q752 358 753 449 L454 449 Q359 449 296.5 403 Q234 357 234 275 Q234 228 264.5 189.5 Q295 151 342 129.5 Q389 108 434 108 Z " />
<glyph glyph-name="b" unicode="b" horiz-adv-x="1128" d="M630 -20 Q525 -20 447.5 21 Q370 62 319 136 L319 0 L170 0 L170 1413 L319 1413 L319 863 Q429 1020 629 1020 Q755 1020 846.5 950.5 Q938 881 985 763 Q1032 645 1032 500 Q1032 355 985 237 Q938 119 847 49.5 Q756 -20 630 -20 Z M591 106 Q687 106 753 160.5 Q819 215 851 304.5 Q883 394 883 500 Q883 605 851 695 Q819 785 753 839.5 Q687 894 591 894 Q496 894 431.5 839.5 Q367 785 336.5 695.5 Q306 606 306 500 Q306 393 336.5 303.5 Q367 214 431 160 Q495 106 591 106 Z " />
<glyph glyph-name="c" unicode="c" horiz-adv-x="974" d="M526 -20 Q388 -20 289.5 51 Q191 122 141.5 240.5 Q92 359 92 498 Q92 636 141.5 755.5 Q191 875 288.5 947.5 Q386 1020 524 1020 Q658 1020 759 949.5 Q860 879 913 754 L772 694 Q750 785 682 839.5 Q614 894 524 894 Q427 894 364 835.5 Q301 777 273 686.5 Q245 596 245 498 Q245 398 272.5 309 Q300 220 363 163 Q426 106 524 106 Q615 106 682 159 Q749 212 772 301 L902 245 Q857 120 759 50 Q661 -20 526 -20 Z " />
<glyph glyph-name="cacute" unicode="&#x107;" horiz-adv-x="974" d="M526 -20 Q388 -20 289.5 51 Q191 122 141.5 240.5 Q92 359 92 498 Q92 636 141.5 755.5 Q191 875 288.5 947.5 Q386 1020 524 1020 Q658 1020 759 949.5 Q860 879 913 754 L772 694 Q750 785 682 839.5 Q614 894 524 894 Q427 894 364 835.5 Q301 777 273 686.5 Q245 596 245 498 Q245 398 272.5 309 Q300 220 363 163 Q426 106 524 106 Q615 106 682 159 Q749 212 772 301 L902 245 Q857 120 759 50 Q661 -20 526 -20 Z M431 1124 L648 1413 L841 1413 L564 1124 L431 1124 Z " />
<glyph glyph-name="ccaron" unicode="&#x10d;" horiz-adv-x="974" d="M526 -20 Q388 -20 289.5 51 Q191 122 141.5 240.5 Q92 359 92 498 Q92 636 141.5 755.5 Q191 875 288.5 947.5 Q386 1020 524 1020 Q658 1020 759 949.5 Q860 879 913 754 L772 694 Q750 785 682 839.5 Q614 894 524 894 Q427 894 364 835.5 Q301 777 273 686.5 Q245 596 245 498 Q245 398 272.5 309 Q300 220 363 163 Q426 106 524 106 Q615 106 682 159 Q749 212 772 301 L902 245 Q857 120 759 50 Q661 -20 526 -20 Z M526 1081 L197 1413 L359 1413 L526 1232 L694 1413 L855 1413 L526 1081 Z " />
<glyph glyph-name="ccedilla" unicode="&#xe7;" horiz-adv-x="974" d="M524 106 Q615 106 682 159 Q749 212 772 301 L902 245 Q862 134 779 65.5 Q696 -3 582 -17 L524 -117 Q614 -121 662 -172 Q710 -223 710 -297 Q710 -350 684 -397.5 Q658 -445 610 -474.5 Q562 -504 498 -504 Q436 -504 386.5 -468.5 Q337 -433 316 -380 L415 -329 Q421 -358 445.5 -379.5 Q470 -401 504 -401 Q548 -401 575 -373 Q602 -345 602 -305 Q602 -273 581.5 -244 Q561 -215 519 -197.5 Q477 -180 416 -180 L374 -180 L464 -16 Q345 0 261 73.5 Q177 147 134.5 258 Q92 369 92 498 Q92 636 141.5 755.5 Q191 875 288.5 947.5 Q386 1020 524 1020 Q658 1020 759 949.5 Q860 879 913 754 L772 694 Q750 785 682 839.5 Q614 894 524 894 Q427 894 364 835.5 Q301 777 273 686.5 Q245 596 245 498 Q245 398 272.5 309 Q300 220 363 163 Q426 106 524 106 Z " />
<glyph glyph-name="cdotaccent" unicode="&#x10b;" horiz-adv-x="974" d="M526 -20 Q388 -20 289.5 51 Q191 122 141.5 240.5 Q92 359 92 498 Q92 636 141.5 755.5 Q191 875 288.5 947.5 Q386 1020 524 1020 Q658 1020 759 949.5 Q860 879 913 754 L772 694 Q750 785 682 839.5 Q614 894 524 894 Q427 894 364 835.5 Q301 777 273 686.5 Q245 596 245 498 Q245 398 272.5 309 Q300 220 363 163 Q426 106 524 106 Q615 106 682 159 Q749 212 772 301 L902 245 Q857 120 759 50 Q661 -20 526 -20 Z M438 1221 L438 1413 L611 1413 L611 1221 L438 1221 Z " />
<glyph glyph-name="d" unicode="d" horiz-adv-x="1129" d="M958 1413 L958 0 L813 0 L810 139 Q757 63 681 21.5 Q605 -20 497 -20 Q373 -20 282 49.5 Q191 119 143.5 237.5 Q96 356 96 500 Q96 645 143.5 763.5 Q191 882 281.5 951 Q372 1020 496 1020 Q701 1020 809 863 L809 1413 L958 1413 Z M535 106 Q632 106 696.5 160 Q761 214 791 303 Q821 392 821 500 Q821 607 791 696 Q761 785 696.5 839.5 Q632 894 535 894 Q439 894 375 839.5 Q311 785 280 695.5 Q249 606 249 500 Q249 393 280 303.5 Q311 214 375 160 Q439 106 535 106 Z " />
<glyph glyph-name="eth" unicode="&#xf0;" horiz-adv-x="1156" d="M633 1383 Q843 1247 943.5 1039.5 Q1044 832 1044 523 Q1044 375 987 252 Q930 129 822 56.5 Q714 -16 568 -16 Q420 -16 311 57 Q202 130 145 251.5 Q88 373 88 516 Q88 657 144 771.5 Q200 886 303.5 953 Q407 1020 544 1020 Q633 1020 706.5 993 Q780 966 817 926 Q795 1029 724.5 1114 Q654 1199 553 1266 L462 1132 L372 1191 L460 1323 Q391 1361 293 1400 L369 1516 Q466 1478 538 1439 L600 1531 L695 1475 L633 1383 Z M567 127 Q670 127 740 181.5 Q810 236 844.5 325 Q879 414 879 517 Q879 622 843.5 710.5 Q808 799 737.5 852 Q667 905 567 905 Q464 905 393 850.5 Q322 796 288 707.5 Q254 619 254 516 Q254 413 288 324.5 Q322 236 393 181.5 Q464 127 567 127 Z " />
<glyph glyph-name="dcaron" unicode="&#x10f;" horiz-adv-x="1193" d="M504 -20 Q375 -20 283 49 Q191 118 143.5 236 Q96 354 96 500 Q96 645 143.5 763.5 Q191 882 283 951 Q375 1020 503 1020 Q601 1020 680 979 Q759 938 809 863 L809 1413 L958 1413 L958 0 L809 0 L809 136 Q758 64 681.5 22 Q605 -20 504 -20 Z M1069 1017 L1172 1413 L1384 1413 L1176 1017 L1069 1017 Z M537 116 Q634 116 697.5 168 Q761 220 791 307 Q821 394 821 500 Q821 606 791 692.5 Q761 779 697.5 830.5 Q634 882 537 882 Q440 882 375.5 830.5 Q311 779 280 692.5 Q249 606 249 500 Q249 394 280 307 Q311 220 375.5 168 Q440 116 537 116 Z " />
<glyph glyph-name="dslash" unicode="&#x111;" horiz-adv-x="1129" d="M1146 1158 L958 1158 L958 0 L813 0 L810 139 Q757 63 681 21.5 Q605 -20 497 -20 Q373 -20 282 49.5 Q191 119 143.5 237.5 Q96 356 96 500 Q96 645 143.5 763.5 Q191 882 281.5 951 Q372 1020 496 1020 Q701 1020 809 863 L809 1158 L512 1158 L512 1274 L809 1274 L809 1413 L958 1413 L958 1274 L1146 1274 L1146 1158 Z M535 106 Q632 106 696.5 160 Q761 214 791 303 Q821 392 821 500 Q821 607 791 696 Q761 785 696.5 839.5 Q632 894 535 894 Q439 894 375 839.5 Q311 785 280 695.5 Q249 606 249 500 Q249 393 280 303.5 Q311 214 375 160 Q439 106 535 106 Z " />
<glyph glyph-name="uni01F3" unicode="&#x1f3;" horiz-adv-x="2059" d="M958 1413 L958 0 L813 0 L810 139 Q757 63 681 21.5 Q605 -20 497 -20 Q373 -20 282 49.5 Q191 119 143.5 237.5 Q96 356 96 500 Q96 645 143.5 763.5 Q191 882 281.5 951 Q372 1020 496 1020 Q701 1020 809 863 L809 1413 L958 1413 Z M535 106 Q632 106 696.5 160 Q761 214 791 303 Q821 392 821 500 Q821 607 791 696 Q761 785 696.5 839.5 Q632 894 535 894 Q439 894 375 839.5 Q311 785 280 695.5 Q249 606 249 500 Q249 393 280 303.5 Q311 214 375 160 Q439 106 535 106 Z M1981 999 L1981 876 L1381 128 L1981 128 L1981 0 L1195 0 L1195 113 L1806 877 L1224 877 L1224 999 L1981 999 Z " />
<glyph glyph-name="uni01C6" unicode="&#x1c6;" horiz-adv-x="2059" d="M958 1413 L958 0 L813 0 L810 139 Q757 63 681 21.5 Q605 -20 497 -20 Q373 -20 282 49.5 Q191 119 143.5 237.5 Q96 356 96 500 Q96 645 143.5 763.5 Q191 882 281.5 951 Q372 1020 496 1020 Q701 1020 809 863 L809 1413 L958 1413 Z M535 106 Q632 106 696.5 160 Q761 214 791 303 Q821 392 821 500 Q821 607 791 696 Q761 785 696.5 839.5 Q632 894 535 894 Q439 894 375 839.5 Q311 785 280 695.5 Q249 606 249 500 Q249 393 280 303.5 Q311 214 375 160 Q439 106 535 106 Z M1981 999 L1981 876 L1381 128 L1981 128 L1981 0 L1195 0 L1195 113 L1806 877 L1224 877 L1224 999 L1981 999 Z M1587 1081 L1258 1413 L1420 1413 L1587 1232 L1755 1413 L1916 1413 L1587 1081 Z " />
<glyph glyph-name="e" unicode="e" horiz-adv-x="1038" d="M541 -14 Q395 -14 293.5 54.5 Q192 123 141.5 238.5 Q91 354 91 494 Q91 632 140.5 750.5 Q190 869 288 941 Q386 1013 525 1013 Q678 1013 772.5 942.5 Q867 872 908 762 Q949 652 949 526 Q949 494 944 449 L248 449 Q247 358 280.5 282.5 Q314 207 380 162 Q446 117 540 117 Q631 117 698 140.5 Q765 164 821 224 L923 142 Q842 60 751.5 23 Q661 -14 541 -14 Z M806 571 Q803 707 735 798.5 Q667 890 525 890 Q437 890 376 847 Q315 804 283.5 732 Q252 660 248 571 L806 571 Z " />
<glyph glyph-name="eacute" unicode="&#xe9;" horiz-adv-x="1038" d="M541 -14 Q395 -14 293.5 54.5 Q192 123 141.5 238.5 Q91 354 91 494 Q91 632 140.5 750.5 Q190 869 288 941 Q386 1013 525 1013 Q678 1013 772.5 942.5 Q867 872 908 762 Q949 652 949 526 Q949 494 944 449 L248 449 Q247 358 280.5 282.5 Q314 207 380 162 Q446 117 540 117 Q631 117 698 140.5 Q765 164 821 224 L923 142 Q842 60 751.5 23 Q661 -14 541 -14 Z M806 571 Q803 707 735 798.5 Q667 890 525 890 Q437 890 376 847 Q315 804 283.5 732 Q252 660 248 571 L806 571 Z M417 1124 L634 1413 L827 1413 L550 1124 L417 1124 Z " />
<glyph glyph-name="ecaron" unicode="&#x11b;" horiz-adv-x="1038" d="M541 -14 Q395 -14 293.5 54.5 Q192 123 141.5 238.5 Q91 354 91 494 Q91 632 140.5 750.5 Q190 869 288 941 Q386 1013 525 1013 Q678 1013 772.5 942.5 Q867 872 908 762 Q949 652 949 526 Q949 494 944 449 L248 449 Q247 358 280.5 282.5 Q314 207 380 162 Q446 117 540 117 Q631 117 698 140.5 Q765 164 821 224 L923 142 Q842 60 751.5 23 Q661 -14 541 -14 Z M806 571 Q803 707 735 798.5 Q667 890 525 890 Q437 890 376 847 Q315 804 283.5 732 Q252 660 248 571 L806 571 Z M512 1081 L183 1413 L345 1413 L512 1232 L680 1413 L841 1413 L512 1081 Z " />
<glyph glyph-name="ecircumflex" unicode="&#xea;" horiz-adv-x="1038" d="M541 -14 Q395 -14 293.5 54.5 Q192 123 141.5 238.5 Q91 354 91 494 Q91 632 140.5 750.5 Q190 869 288 941 Q386 1013 525 1013 Q678 1013 772.5 942.5 Q867 872 908 762 Q949 652 949 526 Q949 494 944 449 L248 449 Q247 358 280.5 282.5 Q314 207 380 162 Q446 117 540 117 Q631 117 698 140.5 Q765 164 821 224 L923 142 Q842 60 751.5 23 Q661 -14 541 -14 Z M806 571 Q803 707 735 798.5 Q667 890 525 890 Q437 890 376 847 Q315 804 283.5 732 Q252 660 248 571 L806 571 Z M183 1098 L512 1453 L841 1098 L680 1098 L512 1284 L345 1098 L183 1098 Z " />
<glyph glyph-name="uni1EBF" unicode="&#x1ebf;" horiz-adv-x="1038" d="M541 -14 Q395 -14 293.5 54.5 Q192 123 141.5 238.5 Q91 354 91 494 Q91 632 140.5 750.5 Q190 869 288 941 Q386 1013 525 1013 Q678 1013 772.5 942.5 Q867 872 908 762 Q949 652 949 526 Q949 494 944 449 L248 449 Q247 358 280.5 282.5 Q314 207 380 162 Q446 117 540 117 Q631 117 698 140.5 Q765 164 821 224 L923 142 Q842 60 751.5 23 Q661 -14 541 -14 Z M806 571 Q803 707 735 798.5 Q667 890 525 890 Q437 890 376 847 Q315 804 283.5 732 Q252 660 248 571 L806 571 Z M183 1098 L512 1453 L841 1098 L680 1098 L512 1284 L345 1098 L183 1098 Z M417 1538 L634 1827 L827 1827 L550 1538 L417 1538 Z " />
<glyph glyph-name="uni1EC1" unicode="&#x1ec1;" horiz-adv-x="1038" d="M541 -14 Q395 -14 293.5 54.5 Q192 123 141.5 238.5 Q91 354 91 494 Q91 632 140.5 750.5 Q190 869 288 941 Q386 1013 525 1013 Q678 1013 772.5 942.5 Q867 872 908 762 Q949 652 949 526 Q949 494 944 449 L248 449 Q247 358 280.5 282.5 Q314 207 380 162 Q446 117 540 117 Q631 117 698 140.5 Q765 164 821 224 L923 142 Q842 60 751.5 23 Q661 -14 541 -14 Z M806 571 Q803 707 735 798.5 Q667 890 525 890 Q437 890 376 847 Q315 804 283.5 732 Q252 660 248 571 L806 571 Z M183 1098 L512 1453 L841 1098 L680 1098 L512 1284 L345 1098 L183 1098 Z M440 1536 L182 1827 L374 1827 L592 1536 L440 1536 Z " />
<glyph glyph-name="uni1EC5" unicode="&#x1ec5;" horiz-adv-x="1038" d="M541 -14 Q395 -14 293.5 54.5 Q192 123 141.5 238.5 Q91 354 91 494 Q91 632 140.5 750.5 Q190 869 288 941 Q386 1013 525 1013 Q678 1013 772.5 942.5 Q867 872 908 762 Q949 652 949 526 Q949 494 944 449 L248 449 Q247 358 280.5 282.5 Q314 207 380 162 Q446 117 540 117 Q631 117 698 140.5 Q765 164 821 224 L923 142 Q842 60 751.5 23 Q661 -14 541 -14 Z M806 571 Q803 707 735 798.5 Q667 890 525 890 Q437 890 376 847 Q315 804 283.5 732 Q252 660 248 571 L806 571 Z M183 1098 L512 1453 L841 1098 L680 1098 L512 1284 L345 1098 L183 1098 Z M633 1560 Q582 1560 546.5 1584.5 Q511 1609 471 1654 Q440 1687 420.5 1702 Q401 1717 378 1717 Q342 1717 325.5 1679 Q309 1641 309 1580 L209 1580 Q209 1694 253 1762 Q297 1830 378 1830 Q417 1830 447.5 1816 Q478 1802 499 1783 Q520 1764 547 1733 Q575 1701 593.5 1686 Q612 1671 635 1671 Q706 1671 706 1824 L812 1824 Q812 1696 765.5 1628 Q719 1560 633 1560 Z " />
<glyph glyph-name="edieresis" unicode="&#xeb;" horiz-adv-x="1038" d="M541 -14 Q395 -14 293.5 54.5 Q192 123 141.5 238.5 Q91 354 91 494 Q91 632 140.5 750.5 Q190 869 288 941 Q386 1013 525 1013 Q678 1013 772.5 942.5 Q867 872 908 762 Q949 652 949 526 Q949 494 944 449 L248 449 Q247 358 280.5 282.5 Q314 207 380 162 Q446 117 540 117 Q631 117 698 140.5 Q765 164 821 224 L923 142 Q842 60 751.5 23 Q661 -14 541 -14 Z M806 571 Q803 707 735 798.5 Q667 890 525 890 Q437 890 376 847 Q315 804 283.5 732 Q252 660 248 571 L806 571 Z M257 1221 L257 1413 L426 1413 L426 1221 L257 1221 Z M594 1221 L594 1413 L762 1413 L762 1221 L594 1221 Z " />
<glyph glyph-name="edotaccent" unicode="&#x117;" horiz-adv-x="1038" d="M541 -14 Q395 -14 293.5 54.5 Q192 123 141.5 238.5 Q91 354 91 494 Q91 632 140.5 750.5 Q190 869 288 941 Q386 1013 525 1013 Q678 1013 772.5 942.5 Q867 872 908 762 Q949 652 949 526 Q949 494 944 449 L248 449 Q247 358 280.5 282.5 Q314 207 380 162 Q446 117 540 117 Q631 117 698 140.5 Q765 164 821 224 L923 142 Q842 60 751.5 23 Q661 -14 541 -14 Z M806 571 Q803 707 735 798.5 Q667 890 525 890 Q437 890 376 847 Q315 804 283.5 732 Q252 660 248 571 L806 571 Z M424 1221 L424 1413 L597 1413 L597 1221 L424 1221 Z " />
<glyph glyph-name="egrave" unicode="&#xe8;" horiz-adv-x="1038" d="M541 -14 Q395 -14 293.5 54.5 Q192 123 141.5 238.5 Q91 354 91 494 Q91 632 140.5 750.5 Q190 869 288 941 Q386 1013 525 1013 Q678 1013 772.5 942.5 Q867 872 908 762 Q949 652 949 526 Q949 494 944 449 L248 449 Q247 358 280.5 282.5 Q314 207 380 162 Q446 117 540 117 Q631 117 698 140.5 Q765 164 821 224 L923 142 Q842 60 751.5 23 Q661 -14 541 -14 Z M806 571 Q803 707 735 798.5 Q667 890 525 890 Q437 890 376 847 Q315 804 283.5 732 Q252 660 248 571 L806 571 Z M440 1122 L182 1413 L374 1413 L592 1122 L440 1122 Z " />
<glyph glyph-name="emacron" unicode="&#x113;" horiz-adv-x="1038" d="M541 -14 Q395 -14 293.5 54.5 Q192 123 141.5 238.5 Q91 354 91 494 Q91 632 140.5 750.5 Q190 869 288 941 Q386 1013 525 1013 Q678 1013 772.5 942.5 Q867 872 908 762 Q949 652 949 526 Q949 494 944 449 L248 449 Q247 358 280.5 282.5 Q314 207 380 162 Q446 117 540 117 Q631 117 698 140.5 Q765 164 821 224 L923 142 Q842 60 751.5 23 Q661 -14 541 -14 Z M806 571 Q803 707 735 798.5 Q667 890 525 890 Q437 890 376 847 Q315 804 283.5 732 Q252 660 248 571 L806 571 Z M243 1183 L243 1308 L784 1308 L784 1183 L243 1183 Z " />
<glyph glyph-name="eogonek" unicode="&#x119;" horiz-adv-x="1038" d="M248 449 Q247 358 280.5 282.5 Q314 207 380 162 Q446 117 540 117 Q631 117 698 140.5 Q765 164 821 224 L923 142 Q823 41 705 7 Q644 -27 602 -75 Q560 -123 560 -184 Q560 -235 584.5 -263.5 Q609 -292 647 -292 Q687 -292 716.5 -276 Q746 -260 769 -228 L862 -293 Q824 -347 775.5 -376.5 Q727 -406 656 -406 Q597 -406 550 -380.5 Q503 -355 476.5 -308.5 Q450 -262 450 -201 Q450 -141 477.5 -94.5 Q505 -48 550 -14 L541 -14 Q395 -14 293.5 54.5 Q192 123 141.5 238.5 Q91 354 91 494 Q91 632 140.5 750.5 Q190 869 288 941 Q386 1013 525 1013 Q678 1013 772.5 942.5 Q867 872 908 762 Q949 652 949 526 Q949 494 944 449 L248 449 Z M525 890 Q437 890 376 847 Q315 804 283.5 732 Q252 660 248 571 L806 571 Q803 707 735 798.5 Q667 890 525 890 Z " />
<glyph glyph-name="uni0258" unicode="&#x258;" horiz-adv-x="1029" d="M489 -12 Q371 -12 280 24 Q189 60 109 143 L210 227 Q267 166 334 142 Q401 118 493 118 Q580 118 646 159 Q712 200 748 274.5 Q784 349 785 449 L89 449 Q86 479 86 483 Q86 718 183 865 Q280 1012 507 1012 Q649 1012 747 941 Q845 870 894 752.5 Q943 635 943 494 Q943 354 891.5 239 Q840 124 738 56 Q636 -12 489 -12 Z M785 573 Q782 659 750.5 728 Q719 797 657.5 838 Q596 879 507 879 Q371 879 300 795.5 Q229 712 227 573 L785 573 Z " />
<glyph glyph-name="uni1EBD" unicode="&#x1ebd;" horiz-adv-x="1038" d="M541 -14 Q395 -14 293.5 54.5 Q192 123 141.5 238.5 Q91 354 91 494 Q91 632 140.5 750.5 Q190 869 288 941 Q386 1013 525 1013 Q678 1013 772.5 942.5 Q867 872 908 762 Q949 652 949 526 Q949 494 944 449 L248 449 Q247 358 280.5 282.5 Q314 207 380 162 Q446 117 540 117 Q631 117 698 140.5 Q765 164 821 224 L923 142 Q842 60 751.5 23 Q661 -14 541 -14 Z M806 571 Q803 707 735 798.5 Q667 890 525 890 Q437 890 376 847 Q315 804 283.5 732 Q252 660 248 571 L806 571 Z M633 1146 Q582 1146 546.5 1170.5 Q511 1195 471 1240 Q440 1273 420.5 1288 Q401 1303 378 1303 Q342 1303 325.5 1265 Q309 1227 309 1166 L209 1166 Q209 1280 253 1348 Q297 1416 378 1416 Q417 1416 447.5 1402 Q478 1388 499 1369 Q520 1350 547 1319 Q575 1287 593.5 1272 Q612 1257 635 1257 Q706 1257 706 1410 L812 1410 Q812 1282 765.5 1214 Q719 1146 633 1146 Z " />
<glyph glyph-name="uni01DD" unicode="&#x1dd;" horiz-adv-x="1029" d="M507 -12 Q280 -12 183 135 Q86 282 86 517 Q86 525 87.5 534.5 Q89 544 89 550 L785 550 Q784 650 748 725 Q712 800 646 840.5 Q580 881 493 881 Q401 881 334 857.5 Q267 834 210 774 L109 856 Q189 940 280 976 Q371 1012 489 1012 Q636 1012 738 944 Q840 876 891.5 761 Q943 646 943 506 Q943 366 894 248 Q845 130 746.5 59 Q648 -12 507 -12 Z M507 120 Q596 120 657.5 161 Q719 202 750.5 271 Q782 340 785 426 L227 426 Q229 287 300 203.5 Q371 120 507 120 Z " />
<glyph glyph-name="uni0259" unicode="&#x259;" horiz-adv-x="1029" d="M507 -12 Q280 -12 183 135 Q86 282 86 517 Q86 525 87.5 534.5 Q89 544 89 550 L785 550 Q784 650 748 725 Q712 800 646 840.5 Q580 881 493 881 Q401 881 334 857.5 Q267 834 210 774 L109 856 Q189 940 280 976 Q371 1012 489 1012 Q636 1012 738 944 Q840 876 891.5 761 Q943 646 943 506 Q943 366 894 248 Q845 130 746.5 59 Q648 -12 507 -12 Z M507 120 Q596 120 657.5 161 Q719 202 750.5 271 Q782 340 785 426 L227 426 Q229 287 300 203.5 Q371 120 507 120 Z " />
<glyph glyph-name="f" unicode="f" horiz-adv-x="678" d="M214 877 L32 877 L32 999 L215 999 L215 1167 Q215 1254 251 1314 Q287 1374 348 1404 Q409 1434 485 1434 Q571 1434 649 1396 L613 1277 Q548 1308 496 1308 Q436 1308 399.5 1270.5 Q363 1233 363 1159 L363 999 L650 999 L650 877 L363 877 L363 0 L214 0 L214 877 Z " />
<glyph glyph-name="g" unicode="g" horiz-adv-x="1024" d="M527 129 Q661 111 743.5 88.5 Q826 66 882.5 8.5 Q939 -49 939 -154 Q939 -253 884.5 -321.5 Q830 -390 739 -424 Q648 -458 539 -458 Q412 -458 314 -413 Q216 -368 162 -290.5 Q108 -213 108 -118 Q108 -101 111 -80 L255 65 Q128 135 128 270 Q128 372 201 435 Q117 529 117 663 Q117 767 166 846.5 Q215 926 300.5 969.5 Q386 1013 491 1013 Q568 1013 634 988.5 Q700 964 749 920 L899 1056 L984 950 L823 823 Q860 749 860 661 Q860 556 811.5 478 Q763 400 679 358.5 Q595 317 491 317 Q389 317 303 359 Q260 326 260 282 Q260 212 329.5 179.5 Q399 147 527 129 Z M489 895 Q423 895 373 863.5 Q323 832 296 780 Q269 728 269 666 Q269 599 296 548 Q323 497 372.5 469 Q422 441 489 441 Q556 441 606 469 Q656 497 683 548 Q710 599 710 666 Q710 729 683 781.5 Q656 834 605.5 864.5 Q555 895 489 895 Z M551 -326 Q619 -326 677.5 -308 Q736 -290 771 -253.5 Q806 -217 806 -165 Q806 -112 773 -83 Q740 -54 689.5 -40.5 Q639 -27 546 -13 Q500 -6 483 -3 Q400 12 364 23 L246 -121 Q247 -174 283.5 -221 Q320 -268 389 -297 Q458 -326 551 -326 Z " />
<glyph glyph-name="gbreve" unicode="&#x11f;" horiz-adv-x="1024" d="M527 129 Q661 111 743.5 88.5 Q826 66 882.5 8.5 Q939 -49 939 -154 Q939 -253 884.5 -321.5 Q830 -390 739 -424 Q648 -458 539 -458 Q412 -458 314 -413 Q216 -368 162 -290.5 Q108 -213 108 -118 Q108 -101 111 -80 L255 65 Q128 135 128 270 Q128 372 201 435 Q117 529 117 663 Q117 767 166 846.5 Q215 926 300.5 969.5 Q386 1013 491 1013 Q568 1013 634 988.5 Q700 964 749 920 L899 1056 L984 950 L823 823 Q860 749 860 661 Q860 556 811.5 478 Q763 400 679 358.5 Q595 317 491 317 Q389 317 303 359 Q260 326 260 282 Q260 212 329.5 179.5 Q399 147 527 129 Z M489 895 Q423 895 373 863.5 Q323 832 296 780 Q269 728 269 666 Q269 599 296 548 Q323 497 372.5 469 Q422 441 489 441 Q556 441 606 469 Q656 497 683 548 Q710 599 710 666 Q710 729 683 781.5 Q656 834 605.5 864.5 Q555 895 489 895 Z M551 -326 Q619 -326 677.5 -308 Q736 -290 771 -253.5 Q806 -217 806 -165 Q806 -112 773 -83 Q740 -54 689.5 -40.5 Q639 -27 546 -13 Q500 -6 483 -3 Q400 12 364 23 L246 -121 Q247 -174 283.5 -221 Q320 -268 389 -297 Q458 -326 551 -326 Z M500 1143 Q410 1143 340.5 1174.5 Q271 1206 232 1267 Q193 1328 193 1413 L329 1413 Q329 1367 352 1331.5 Q375 1296 414 1276.5 Q453 1257 500 1257 Q547 1257 586 1276.5 Q625 1296 647.5 1331.5 Q670 1367 670 1413 L806 1413 Q806 1327 767 1266 Q728 1205 659 1174 Q590 1143 500 1143 Z " />
<glyph glyph-name="gcommaaccent" unicode="&#x123;" horiz-adv-x="1024" d="M722 1423 L599 1123 L387 1123 L615 1423 L722 1423 Z M527 129 Q661 111 743.5 88.5 Q826 66 882.5 8.5 Q939 -49 939 -154 Q939 -253 884.5 -321.5 Q830 -390 739 -424 Q648 -458 539 -458 Q412 -458 314 -413 Q216 -368 162 -290.5 Q108 -213 108 -118 Q108 -101 111 -80 L255 65 Q128 135 128 270 Q128 372 201 435 Q117 529 117 663 Q117 767 166 846.5 Q215 926 300.5 969.5 Q386 1013 491 1013 Q568 1013 634 988.5 Q700 964 749 920 L899 1056 L984 950 L823 823 Q860 749 860 661 Q860 556 811.5 478 Q763 400 679 358.5 Q595 317 491 317 Q389 317 303 359 Q260 326 260 282 Q260 212 329.5 179.5 Q399 147 527 129 Z M489 895 Q423 895 373 863.5 Q323 832 296 780 Q269 728 269 666 Q269 599 296 548 Q323 497 372.5 469 Q422 441 489 441 Q556 441 606 469 Q656 497 683 548 Q710 599 710 666 Q710 729 683 781.5 Q656 834 605.5 864.5 Q555 895 489 895 Z M551 -326 Q619 -326 677.5 -308 Q736 -290 771 -253.5 Q806 -217 806 -165 Q806 -112 773 -83 Q740 -54 689.5 -40.5 Q639 -27 546 -13 Q500 -6 483 -3 Q400 12 364 23 L246 -121 Q247 -174 283.5 -221 Q320 -268 389 -297 Q458 -326 551 -326 Z " />
<glyph glyph-name="gdotaccent" unicode="&#x121;" horiz-adv-x="1024" d="M527 129 Q661 111 743.5 88.5 Q826 66 882.5 8.5 Q939 -49 939 -154 Q939 -253 884.5 -321.5 Q830 -390 739 -424 Q648 -458 539 -458 Q412 -458 314 -413 Q216 -368 162 -290.5 Q108 -213 108 -118 Q108 -101 111 -80 L255 65 Q128 135 128 270 Q128 372 201 435 Q117 529 117 663 Q117 767 166 846.5 Q215 926 300.5 969.5 Q386 1013 491 1013 Q568 1013 634 988.5 Q700 964 749 920 L899 1056 L984 950 L823 823 Q860 749 860 661 Q860 556 811.5 478 Q763 400 679 358.5 Q595 317 491 317 Q389 317 303 359 Q260 326 260 282 Q260 212 329.5 179.5 Q399 147 527 129 Z M489 895 Q423 895 373 863.5 Q323 832 296 780 Q269 728 269 666 Q269 599 296 548 Q323 497 372.5 469 Q422 441 489 441 Q556 441 606 469 Q656 497 683 548 Q710 599 710 666 Q710 729 683 781.5 Q656 834 605.5 864.5 Q555 895 489 895 Z M551 -326 Q619 -326 677.5 -308 Q736 -290 771 -253.5 Q806 -217 806 -165 Q806 -112 773 -83 Q740 -54 689.5 -40.5 Q639 -27 546 -13 Q500 -6 483 -3 Q400 12 364 23 L246 -121 Q247 -174 283.5 -221 Q320 -268 389 -297 Q458 -326 551 -326 Z M412 1221 L412 1413 L585 1413 L585 1221 L412 1221 Z " />
<glyph glyph-name="uni0261" unicode="&#x261;" horiz-adv-x="1117" d="M947 0 Q947 -133 898 -230.5 Q849 -328 754.5 -380.5 Q660 -433 526 -433 Q396 -433 295 -383 Q194 -333 132 -236 L248 -150 Q295 -227 366 -265.5 Q437 -304 525 -304 Q657 -304 727.5 -221.5 Q798 -139 798 0 L798 140 Q750 71 671.5 35.5 Q593 0 498 0 Q365 0 272.5 66.5 Q180 133 133 248 Q86 363 86 508 Q86 653 133 769.5 Q180 886 271.5 953 Q363 1020 491 1020 Q590 1020 669 979 Q748 938 798 863 L798 999 L949 999 L947 0 Z M526 132 Q623 132 687 183 Q751 234 781 319.5 Q811 405 811 510 Q811 615 781 700 Q751 785 687 836 Q623 887 526 887 Q429 887 364.5 836 Q300 785 269 700 Q238 615 238 510 Q238 405 269 319.5 Q300 234 364.5 183 Q429 132 526 132 Z " />
<glyph glyph-name="h" unicode="h" horiz-adv-x="1124" d="M170 1413 L318 1413 L318 835 Q368 917 457 967 Q546 1017 643 1017 Q757 1017 832.5 963 Q908 909 943.5 818.5 Q979 728 979 616 L979 0 L828 0 L828 592 Q828 714 780.5 795.5 Q733 877 616 877 Q531 877 462.5 831.5 Q394 786 356 708.5 Q318 631 318 539 L318 0 L170 0 L170 1413 Z " />
<glyph glyph-name="hbar" unicode="&#x127;" horiz-adv-x="1124" d="M643 1017 Q757 1017 832.5 963 Q908 909 943.5 818.5 Q979 728 979 616 L979 0 L828 0 L828 592 Q828 714 780.5 795.5 Q733 877 616 877 Q531 877 462.5 831.5 Q394 786 356 708.5 Q318 631 318 539 L318 0 L170 0 L170 1128 L-11 1128 L-11 1244 L170 1244 L170 1413 L318 1413 L318 1244 L623 1244 L623 1128 L318 1128 L318 835 Q368 917 457 967 Q546 1017 643 1017 Z " />
<glyph glyph-name="i" unicode="i" horiz-adv-x="488" d="M159 1221 L159 1413 L329 1413 L329 1221 L159 1221 Z M170 0 L170 999 L318 999 L318 0 L170 0 Z " />
<glyph glyph-name="dotlessi" unicode="&#x131;" horiz-adv-x="501" d="M168 0 L168 999 L333 999 L333 0 L168 0 Z " />
<glyph glyph-name="iacute" unicode="&#xed;" horiz-adv-x="501" d="M168 0 L168 999 L333 999 L333 0 L168 0 Z M155 1124 L372 1413 L565 1413 L288 1124 L155 1124 Z " />
<glyph glyph-name="uni01D0" unicode="&#x1d0;" horiz-adv-x="501" d="M168 0 L168 999 L333 999 L333 0 L168 0 Z M250 1081 L-79 1413 L83 1413 L250 1232 L418 1413 L579 1413 L250 1081 Z " />
<glyph glyph-name="icircumflex" unicode="&#xee;" horiz-adv-x="501" d="M168 0 L168 999 L333 999 L333 0 L168 0 Z M-79 1098 L250 1453 L579 1098 L418 1098 L250 1284 L83 1098 L-79 1098 Z " />
<glyph glyph-name="idieresis" unicode="&#xef;" horiz-adv-x="501" d="M168 0 L168 999 L333 999 L333 0 L168 0 Z M-5 1221 L-5 1413 L164 1413 L164 1221 L-5 1221 Z M332 1221 L332 1413 L500 1413 L500 1221 L332 1221 Z " />
<glyph glyph-name="igrave" unicode="&#xec;" horiz-adv-x="501" d="M168 0 L168 999 L333 999 L333 0 L168 0 Z M178 1122 L-80 1413 L112 1413 L330 1122 L178 1122 Z " />
<glyph glyph-name="imacron" unicode="&#x12b;" horiz-adv-x="501" d="M168 0 L168 999 L333 999 L333 0 L168 0 Z M-19 1183 L-19 1308 L522 1308 L522 1183 L-19 1183 Z " />
<glyph glyph-name="iogonek" unicode="&#x12f;" horiz-adv-x="501" d="M168 0 L168 999 L333 999 L333 0 L168 0 Z M162 1221 L162 1413 L335 1413 L335 1221 L162 1221 Z M202 -451 Q143 -451 96 -425.5 Q49 -400 22.5 -353.5 Q-4 -307 -4 -246 Q-4 -177 33 -125 Q70 -73 118.5 -43 Q167 -13 209 0 L333 0 Q309 -8 257.5 -34.5 Q206 -61 156 -111.5 Q106 -162 106 -229 Q106 -280 130.5 -308.5 Q155 -337 193 -337 Q233 -337 262.5 -321 Q292 -305 315 -273 L408 -338 Q370 -392 321.5 -421.5 Q273 -451 202 -451 Z " />
<glyph glyph-name="itilde" unicode="&#x129;" horiz-adv-x="501" d="M168 0 L168 999 L333 999 L333 0 L168 0 Z M371 1146 Q320 1146 284.5 1170.5 Q249 1195 209 1240 Q178 1273 158.5 1288 Q139 1303 116 1303 Q80 1303 63.5 1265 Q47 1227 47 1166 L-53 1166 Q-53 1280 -9 1348 Q35 1416 116 1416 Q155 1416 185.5 1402 Q216 1388 237 1369 Q258 1350 285 1319 Q313 1287 331.5 1272 Q350 1257 373 1257 Q444 1257 444 1410 L550 1410 Q550 1282 503.5 1214 Q457 1146 371 1146 Z " />
<glyph glyph-name="j" unicode="j" horiz-adv-x="493" d="M161 1227 L161 1413 L333 1413 L333 1227 L161 1227 Z M67 -438 Q35 -438 -8.5 -429 Q-52 -420 -84 -407 L-52 -295 Q-30 -302 3.5 -307 Q37 -312 63 -312 Q121 -312 146 -273.5 Q171 -235 171 -177 L171 999 L323 999 L323 -155 Q323 -285 260 -361.5 Q197 -438 67 -438 Z " />
<glyph glyph-name="uni0237" unicode="&#x237;" horiz-adv-x="503" d="M73 -438 Q39 -438 -5 -428.5 Q-49 -419 -79 -407 L-45 -275 Q-22 -281 10.5 -286 Q43 -291 67 -291 Q125 -291 148 -254.5 Q171 -218 171 -159 L171 999 L332 999 L332 -151 Q332 -282 267.5 -360 Q203 -438 73 -438 Z " />
<glyph glyph-name="k" unicode="k" horiz-adv-x="1048" d="M170 0 L170 1413 L321 1413 L321 461 L766 999 L953 999 L627 632 L1018 0 L841 0 L535 530 L321 293 L321 0 L170 0 Z " />
<glyph glyph-name="kcommaaccent" unicode="&#x137;" horiz-adv-x="1048" d="M170 0 L170 1413 L321 1413 L321 461 L766 999 L953 999 L627 632 L1018 0 L841 0 L535 530 L321 293 L321 0 L170 0 Z M373 -446 L496 -111 L708 -111 L480 -446 L373 -446 Z " />
<glyph glyph-name="kgreenlandic" unicode="&#x138;" horiz-adv-x="1044" d="M168 0 L168 999 L317 999 L317 476 L763 999 L949 999 L623 632 L1015 0 L836 0 L531 527 L317 290 L317 0 L168 0 Z " />
<glyph glyph-name="l" unicode="l" horiz-adv-x="518" d="M365 110 Q407 110 462 120 L462 0 Q435 -8 399 -14 Q363 -20 327 -20 Q256 -20 220.5 9 Q185 38 175 84 Q165 130 165 202 L165 1413 L316 1413 L316 167 Q316 153 326.5 131.5 Q337 110 365 110 Z " />
<glyph glyph-name="lacute" unicode="&#x13a;" horiz-adv-x="518" d="M365 110 Q407 110 462 120 L462 0 Q435 -8 399 -14 Q363 -20 327 -20 Q256 -20 220.5 9 Q185 38 175 84 Q165 130 165 202 L165 1413 L316 1413 L316 167 Q316 153 326.5 131.5 Q337 110 365 110 Z M143 1538 L360 1827 L553 1827 L276 1538 L143 1538 Z " />
<glyph glyph-name="lcaron" unicode="&#x13e;" horiz-adv-x="567" d="M316 166 Q316 151 326.5 130.5 Q337 110 366 110 Q407 110 462 120 L462 0 Q436 -8 399 -14 Q362 -20 328 -20 Q256 -20 220.5 8.5 Q185 37 175 83 Q165 129 165 202 L165 1413 L316 1413 L316 166 Z M546 1413 L758 1413 L551 1017 L443 1017 L546 1413 Z " />
<glyph glyph-name="lcommaaccent" unicode="&#x13c;" horiz-adv-x="518" d="M365 110 Q407 110 462 120 L462 0 Q435 -8 399 -14 Q363 -20 327 -20 Q256 -20 220.5 9 Q185 38 175 84 Q165 130 165 202 L165 1413 L316 1413 L316 167 Q316 153 326.5 131.5 Q337 110 365 110 Z M127 -446 L250 -111 L462 -111 L234 -446 L127 -446 Z " />
<glyph glyph-name="uni01C9" unicode="&#x1c9;" horiz-adv-x="1011" d="M365 110 Q407 110 462 120 L462 0 Q435 -8 399 -14 Q363 -20 327 -20 Q256 -20 220.5 9 Q185 38 175 84 Q165 130 165 202 L165 1413 L316 1413 L316 167 Q316 153 326.5 131.5 Q337 110 365 110 Z M679 1227 L679 1413 L851 1413 L851 1227 L679 1227 Z M585 -438 Q553 -438 509.5 -429 Q466 -420 434 -407 L466 -295 Q488 -302 521.5 -307 Q555 -312 581 -312 Q639 -312 664 -273.5 Q689 -235 689 -177 L689 999 L841 999 L841 -155 Q841 -285 778 -361.5 Q715 -438 585 -438 Z " />
<glyph glyph-name="lslash" unicode="&#x142;" horiz-adv-x="518" d="M316 654 L316 167 Q316 153 326.5 131.5 Q337 110 365 110 Q407 110 462 120 L462 0 Q435 -8 399 -14 Q363 -20 327 -20 Q256 -20 220.5 9 Q185 38 175 84 Q165 130 165 202 L165 484 L8 307 L8 454 L165 631 L165 1413 L316 1413 L316 801 L496 1004 L496 857 L316 654 Z " />
<glyph glyph-name="m" unicode="m" horiz-adv-x="1699" d="M168 999 L319 999 L319 844 Q351 919 425.5 969.5 Q500 1020 591 1020 Q700 1020 780 967.5 Q860 915 896 811 Q944 912 1023 966 Q1102 1020 1207 1020 Q1325 1020 1403 964.5 Q1481 909 1517.5 816 Q1554 723 1554 607 L1554 0 L1403 0 L1403 592 Q1403 717 1354.5 805 Q1306 893 1189 893 Q1111 893 1053.5 844 Q996 795 966 717 Q936 639 936 554 L936 0 L784 0 L784 596 Q784 721 737 807 Q690 893 574 893 Q495 893 437 839.5 Q379 786 349 700.5 Q319 615 319 521 L319 0 L168 0 L168 999 Z " />
<glyph glyph-name="n" unicode="n" horiz-adv-x="1119" d="M168 999 L317 999 L317 825 Q368 915 450.5 966 Q533 1017 639 1017 Q753 1017 828 962 Q903 907 938.5 814.5 Q974 722 974 607 L974 0 L826 0 L826 592 Q826 714 772.5 802 Q719 890 599 890 Q519 890 455 848 Q391 806 354 722.5 Q317 639 317 519 L317 0 L168 0 L168 999 Z " />
<glyph glyph-name="nacute" unicode="&#x144;" horiz-adv-x="1119" d="M168 999 L317 999 L317 825 Q368 915 450.5 966 Q533 1017 639 1017 Q753 1017 828 962 Q903 907 938.5 814.5 Q974 722 974 607 L974 0 L826 0 L826 592 Q826 714 772.5 802 Q719 890 599 890 Q519 890 455 848 Q391 806 354 722.5 Q317 639 317 519 L317 0 L168 0 L168 999 Z M455 1124 L672 1413 L865 1413 L588 1124 L455 1124 Z " />
<glyph glyph-name="ncaron" unicode="&#x148;" horiz-adv-x="1119" d="M168 999 L317 999 L317 825 Q368 915 450.5 966 Q533 1017 639 1017 Q753 1017 828 962 Q903 907 938.5 814.5 Q974 722 974 607 L974 0 L826 0 L826 592 Q826 714 772.5 802 Q719 890 599 890 Q519 890 455 848 Q391 806 354 722.5 Q317 639 317 519 L317 0 L168 0 L168 999 Z M550 1081 L221 1413 L383 1413 L550 1232 L718 1413 L879 1413 L550 1081 Z " />
<glyph glyph-name="ncommaaccent" unicode="&#x146;" horiz-adv-x="1119" d="M168 999 L317 999 L317 825 Q368 915 450.5 966 Q533 1017 639 1017 Q753 1017 828 962 Q903 907 938.5 814.5 Q974 722 974 607 L974 0 L826 0 L826 592 Q826 714 772.5 802 Q719 890 599 890 Q519 890 455 848 Q391 806 354 722.5 Q317 639 317 519 L317 0 L168 0 L168 999 Z M323 -446 L446 -111 L658 -111 L430 -446 L323 -446 Z " />
<glyph glyph-name="eng" unicode="&#x14b;" horiz-adv-x="1119" d="M622 -240 L678 -240 Q744 -240 776.5 -209 Q809 -178 816.5 -140 Q824 -102 824 -58 L824 593 Q824 714 778.5 792.5 Q733 871 619 871 Q538 871 469 829.5 Q400 788 359.5 718.5 Q319 649 319 569 L319 0 L168 0 L168 999 L319 999 L319 841 Q366 920 451.5 968 Q537 1016 632 1016 Q752 1016 828.5 960.5 Q905 905 939.5 813 Q974 721 974 607 L974 -84 Q974 -198 922 -283.5 Q870 -369 707 -369 L622 -369 L622 -240 Z " />
<glyph glyph-name="uni01CC" unicode="&#x1cc;" horiz-adv-x="1612" d="M168 999 L317 999 L317 825 Q368 915 450.5 966 Q533 1017 639 1017 Q753 1017 828 962 Q903 907 938.5 814.5 Q974 722 974 607 L974 0 L826 0 L826 592 Q826 714 772.5 802 Q719 890 599 890 Q519 890 455 848 Q391 806 354 722.5 Q317 639 317 519 L317 0 L168 0 L168 999 Z M1280 1227 L1280 1413 L1452 1413 L1452 1227 L1280 1227 Z M1186 -438 Q1154 -438 1110.5 -429 Q1067 -420 1035 -407 L1067 -295 Q1089 -302 1122.5 -307 Q1156 -312 1182 -312 Q1240 -312 1265 -273.5 Q1290 -235 1290 -177 L1290 999 L1442 999 L1442 -155 Q1442 -285 1379 -361.5 Q1316 -438 1186 -438 Z " />
<glyph glyph-name="ntilde" unicode="&#xf1;" horiz-adv-x="1119" d="M168 999 L317 999 L317 825 Q368 915 450.5 966 Q533 1017 639 1017 Q753 1017 828 962 Q903 907 938.5 814.5 Q974 722 974 607 L974 0 L826 0 L826 592 Q826 714 772.5 802 Q719 890 599 890 Q519 890 455 848 Q391 806 354 722.5 Q317 639 317 519 L317 0 L168 0 L168 999 Z M671 1146 Q620 1146 584.5 1170.5 Q549 1195 509 1240 Q478 1273 458.5 1288 Q439 1303 416 1303 Q380 1303 363.5 1265 Q347 1227 347 1166 L247 1166 Q247 1280 291 1348 Q335 1416 416 1416 Q455 1416 485.5 1402 Q516 1388 537 1369 Q558 1350 585 1319 Q613 1287 631.5 1272 Q650 1257 673 1257 Q744 1257 744 1410 L850 1410 Q850 1282 803.5 1214 Q757 1146 671 1146 Z " />
<glyph glyph-name="o" unicode="o" horiz-adv-x="1119" d="M557 -20 Q420 -20 312.5 50.5 Q205 121 145.5 240.5 Q86 360 86 502 Q86 644 145.5 762.5 Q205 881 312 950.5 Q419 1020 557 1020 Q694 1020 802.5 950.5 Q911 881 972 762 Q1033 643 1033 502 Q1033 360 972 240.5 Q911 121 802.5 50.5 Q694 -20 557 -20 Z M558 104 Q665 104 738 160.5 Q811 217 846.5 307.5 Q882 398 882 502 Q882 607 846.5 696.5 Q811 786 738.5 841 Q666 896 560 896 Q454 896 381 841 Q308 786 272 696 Q236 606 236 502 Q236 397 272 306 Q308 215 380.5 159.5 Q453 104 558 104 Z " />
<glyph glyph-name="oacute" unicode="&#xf3;" horiz-adv-x="1119" d="M557 -20 Q420 -20 312.5 50.5 Q205 121 145.5 240.5 Q86 360 86 502 Q86 644 145.5 762.5 Q205 881 312 950.5 Q419 1020 557 1020 Q694 1020 802.5 950.5 Q911 881 972 762 Q1033 643 1033 502 Q1033 360 972 240.5 Q911 121 802.5 50.5 Q694 -20 557 -20 Z M558 104 Q665 104 738 160.5 Q811 217 846.5 307.5 Q882 398 882 502 Q882 607 846.5 696.5 Q811 786 738.5 841 Q666 896 560 896 Q454 896 381 841 Q308 786 272 696 Q236 606 236 502 Q236 397 272 306 Q308 215 380.5 159.5 Q453 104 558 104 Z M463 1124 L680 1413 L873 1413 L596 1124 L463 1124 Z " />
<glyph glyph-name="uni01D2" unicode="&#x1d2;" horiz-adv-x="1119" d="M557 -20 Q420 -20 312.5 50.5 Q205 121 145.5 240.5 Q86 360 86 502 Q86 644 145.5 762.5 Q205 881 312 950.5 Q419 1020 557 1020 Q694 1020 802.5 950.5 Q911 881 972 762 Q1033 643 1033 502 Q1033 360 972 240.5 Q911 121 802.5 50.5 Q694 -20 557 -20 Z M558 104 Q665 104 738 160.5 Q811 217 846.5 307.5 Q882 398 882 502 Q882 607 846.5 696.5 Q811 786 738.5 841 Q666 896 560 896 Q454 896 381 841 Q308 786 272 696 Q236 606 236 502 Q236 397 272 306 Q308 215 380.5 159.5 Q453 104 558 104 Z M558 1081 L229 1413 L391 1413 L558 1232 L726 1413 L887 1413 L558 1081 Z " />
<glyph glyph-name="ocircumflex" unicode="&#xf4;" horiz-adv-x="1119" d="M557 -20 Q420 -20 312.5 50.5 Q205 121 145.5 240.5 Q86 360 86 502 Q86 644 145.5 762.5 Q205 881 312 950.5 Q419 1020 557 1020 Q694 1020 802.5 950.5 Q911 881 972 762 Q1033 643 1033 502 Q1033 360 972 240.5 Q911 121 802.5 50.5 Q694 -20 557 -20 Z M558 104 Q665 104 738 160.5 Q811 217 846.5 307.5 Q882 398 882 502 Q882 607 846.5 696.5 Q811 786 738.5 841 Q666 896 560 896 Q454 896 381 841 Q308 786 272 696 Q236 606 236 502 Q236 397 272 306 Q308 215 380.5 159.5 Q453 104 558 104 Z M229 1098 L558 1453 L887 1098 L726 1098 L558 1284 L391 1098 L229 1098 Z " />
<glyph glyph-name="uni1ED1" unicode="&#x1ed1;" horiz-adv-x="1119" d="M557 -20 Q420 -20 312.5 50.5 Q205 121 145.5 240.5 Q86 360 86 502 Q86 644 145.5 762.5 Q205 881 312 950.5 Q419 1020 557 1020 Q694 1020 802.5 950.5 Q911 881 972 762 Q1033 643 1033 502 Q1033 360 972 240.5 Q911 121 802.5 50.5 Q694 -20 557 -20 Z M558 104 Q665 104 738 160.5 Q811 217 846.5 307.5 Q882 398 882 502 Q882 607 846.5 696.5 Q811 786 738.5 841 Q666 896 560 896 Q454 896 381 841 Q308 786 272 696 Q236 606 236 502 Q236 397 272 306 Q308 215 380.5 159.5 Q453 104 558 104 Z M229 1098 L558 1453 L887 1098 L726 1098 L558 1284 L391 1098 L229 1098 Z M463 1538 L680 1827 L873 1827 L596 1538 L463 1538 Z " />
<glyph glyph-name="uni1ED3" unicode="&#x1ed3;" horiz-adv-x="1119" d="M557 -20 Q420 -20 312.5 50.5 Q205 121 145.5 240.5 Q86 360 86 502 Q86 644 145.5 762.5 Q205 881 312 950.5 Q419 1020 557 1020 Q694 1020 802.5 950.5 Q911 881 972 762 Q1033 643 1033 502 Q1033 360 972 240.5 Q911 121 802.5 50.5 Q694 -20 557 -20 Z M558 104 Q665 104 738 160.5 Q811 217 846.5 307.5 Q882 398 882 502 Q882 607 846.5 696.5 Q811 786 738.5 841 Q666 896 560 896 Q454 896 381 841 Q308 786 272 696 Q236 606 236 502 Q236 397 272 306 Q308 215 380.5 159.5 Q453 104 558 104 Z M229 1098 L558 1453 L887 1098 L726 1098 L558 1284 L391 1098 L229 1098 Z M486 1536 L228 1827 L420 1827 L638 1536 L486 1536 Z " />
<glyph glyph-name="uni1ED7" unicode="&#x1ed7;" horiz-adv-x="1119" d="M557 -20 Q420 -20 312.5 50.5 Q205 121 145.5 240.5 Q86 360 86 502 Q86 644 145.5 762.5 Q205 881 312 950.5 Q419 1020 557 1020 Q694 1020 802.5 950.5 Q911 881 972 762 Q1033 643 1033 502 Q1033 360 972 240.5 Q911 121 802.5 50.5 Q694 -20 557 -20 Z M558 104 Q665 104 738 160.5 Q811 217 846.5 307.5 Q882 398 882 502 Q882 607 846.5 696.5 Q811 786 738.5 841 Q666 896 560 896 Q454 896 381 841 Q308 786 272 696 Q236 606 236 502 Q236 397 272 306 Q308 215 380.5 159.5 Q453 104 558 104 Z M229 1098 L558 1453 L887 1098 L726 1098 L558 1284 L391 1098 L229 1098 Z M679 1560 Q628 1560 592.5 1584.5 Q557 1609 517 1654 Q486 1687 466.5 1702 Q447 1717 424 1717 Q388 1717 371.5 1679 Q355 1641 355 1580 L255 1580 Q255 1694 299 1762 Q343 1830 424 1830 Q463 1830 493.5 1816 Q524 1802 545 1783 Q566 1764 593 1733 Q621 1701 639.5 1686 Q658 1671 681 1671 Q752 1671 752 1824 L858 1824 Q858 1696 811.5 1628 Q765 1560 679 1560 Z " />
<glyph glyph-name="odieresis" unicode="&#xf6;" horiz-adv-x="1119" d="M557 -20 Q420 -20 312.5 50.5 Q205 121 145.5 240.5 Q86 360 86 502 Q86 644 145.5 762.5 Q205 881 312 950.5 Q419 1020 557 1020 Q694 1020 802.5 950.5 Q911 881 972 762 Q1033 643 1033 502 Q1033 360 972 240.5 Q911 121 802.5 50.5 Q694 -20 557 -20 Z M558 104 Q665 104 738 160.5 Q811 217 846.5 307.5 Q882 398 882 502 Q882 607 846.5 696.5 Q811 786 738.5 841 Q666 896 560 896 Q454 896 381 841 Q308 786 272 696 Q236 606 236 502 Q236 397 272 306 Q308 215 380.5 159.5 Q453 104 558 104 Z M303 1221 L303 1413 L472 1413 L472 1221 L303 1221 Z M640 1221 L640 1413 L808 1413 L808 1221 L640 1221 Z " />
<glyph glyph-name="ograve" unicode="&#xf2;" horiz-adv-x="1119" d="M557 -20 Q420 -20 312.5 50.5 Q205 121 145.5 240.5 Q86 360 86 502 Q86 644 145.5 762.5 Q205 881 312 950.5 Q419 1020 557 1020 Q694 1020 802.5 950.5 Q911 881 972 762 Q1033 643 1033 502 Q1033 360 972 240.5 Q911 121 802.5 50.5 Q694 -20 557 -20 Z M558 104 Q665 104 738 160.5 Q811 217 846.5 307.5 Q882 398 882 502 Q882 607 846.5 696.5 Q811 786 738.5 841 Q666 896 560 896 Q454 896 381 841 Q308 786 272 696 Q236 606 236 502 Q236 397 272 306 Q308 215 380.5 159.5 Q453 104 558 104 Z M486 1122 L228 1413 L420 1413 L638 1122 L486 1122 Z " />
<glyph glyph-name="ohungarumlaut" unicode="&#x151;" horiz-adv-x="1119" d="M557 -20 Q420 -20 312.5 50.5 Q205 121 145.5 240.5 Q86 360 86 502 Q86 644 145.5 762.5 Q205 881 312 950.5 Q419 1020 557 1020 Q694 1020 802.5 950.5 Q911 881 972 762 Q1033 643 1033 502 Q1033 360 972 240.5 Q911 121 802.5 50.5 Q694 -20 557 -20 Z M558 104 Q665 104 738 160.5 Q811 217 846.5 307.5 Q882 398 882 502 Q882 607 846.5 696.5 Q811 786 738.5 841 Q666 896 560 896 Q454 896 381 841 Q308 786 272 696 Q236 606 236 502 Q236 397 272 306 Q308 215 380.5 159.5 Q453 104 558 104 Z M297 1119 L514 1413 L702 1413 L431 1119 L297 1119 Z M627 1119 L844 1413 L1037 1413 L761 1119 L627 1119 Z " />
<glyph glyph-name="omacron" unicode="&#x14d;" horiz-adv-x="1119" d="M557 -20 Q420 -20 312.5 50.5 Q205 121 145.5 240.5 Q86 360 86 502 Q86 644 145.5 762.5 Q205 881 312 950.5 Q419 1020 557 1020 Q694 1020 802.5 950.5 Q911 881 972 762 Q1033 643 1033 502 Q1033 360 972 240.5 Q911 121 802.5 50.5 Q694 -20 557 -20 Z M558 104 Q665 104 738 160.5 Q811 217 846.5 307.5 Q882 398 882 502 Q882 607 846.5 696.5 Q811 786 738.5 841 Q666 896 560 896 Q454 896 381 841 Q308 786 272 696 Q236 606 236 502 Q236 397 272 306 Q308 215 380.5 159.5 Q453 104 558 104 Z M289 1183 L289 1308 L830 1308 L830 1183 L289 1183 Z " />
<glyph glyph-name="uni01EB" unicode="&#x1eb;" horiz-adv-x="1119" d="M655 -10 Q583 -41 518 -96 Q453 -151 453 -229 Q453 -280 477.5 -308.5 Q502 -337 540 -337 Q580 -337 609.5 -321 Q639 -305 662 -273 L755 -338 Q717 -392 668.5 -421.5 Q620 -451 549 -451 Q490 -451 443 -425.5 Q396 -400 369.5 -353.5 Q343 -307 343 -246 Q343 -163 393 -107 Q443 -51 511 -18 Q386 -6 289 66.5 Q192 139 139 253.5 Q86 368 86 502 Q86 644 145.5 762.5 Q205 881 312 950.5 Q419 1020 557 1020 Q694 1020 802.5 950.5 Q911 881 972 762 Q1033 643 1033 502 Q1033 377 985.5 269 Q938 161 852.5 87.5 Q767 14 655 -10 Z M236 502 Q236 397 272 306 Q308 215 380.5 159.5 Q453 104 558 104 Q665 104 738 160.5 Q811 217 846.5 307.5 Q882 398 882 502 Q882 607 846.5 696.5 Q811 786 738.5 841 Q666 896 560 896 Q454 896 381 841 Q308 786 272 696 Q236 606 236 502 Z " />
<glyph glyph-name="uni0254" unicode="&#x254;" horiz-adv-x="970" d="M452 -20 Q318 -20 217 48.5 Q116 117 62 241 L204 301 Q227 213 294.5 160 Q362 107 452 107 Q549 107 612 164.5 Q675 222 703 310.5 Q731 399 731 498 Q731 597 703.5 685.5 Q676 774 613 831 Q550 888 452 888 Q362 888 294.5 835 Q227 782 204 694 L74 750 Q118 877 216 946.5 Q314 1016 450 1016 Q590 1016 688 945.5 Q786 875 835 757 Q884 639 884 498 Q884 358 835.5 240 Q787 122 689.5 51 Q592 -20 452 -20 Z " />
<glyph glyph-name="oslash" unicode="&#xf8;" horiz-adv-x="1119" d="M842 922 Q932 851 982.5 740.5 Q1033 630 1033 502 Q1033 360 972 240.5 Q911 121 802.5 50.5 Q694 -20 557 -20 Q439 -20 338 35 L319 1 L229 1 L273 79 Q184 150 135 261 Q86 372 86 502 Q86 644 145.5 762.5 Q205 881 312 950.5 Q419 1020 557 1020 Q674 1020 776 966 L795 999 L886 999 L842 922 Z M236 502 Q236 412 262.5 332 Q289 252 340 196 L714 857 Q648 896 560 896 Q454 896 381 841 Q308 786 272 696 Q236 606 236 502 Z M558 104 Q665 104 738 160.5 Q811 217 846.5 307.5 Q882 398 882 502 Q882 592 855.5 672 Q829 752 777 807 L401 146 Q468 104 558 104 Z " />
<glyph glyph-name="otilde" unicode="&#xf5;" horiz-adv-x="1119" d="M557 -20 Q420 -20 312.5 50.5 Q205 121 145.5 240.5 Q86 360 86 502 Q86 644 145.5 762.5 Q205 881 312 950.5 Q419 1020 557 1020 Q694 1020 802.5 950.5 Q911 881 972 762 Q1033 643 1033 502 Q1033 360 972 240.5 Q911 121 802.5 50.5 Q694 -20 557 -20 Z M558 104 Q665 104 738 160.5 Q811 217 846.5 307.5 Q882 398 882 502 Q882 607 846.5 696.5 Q811 786 738.5 841 Q666 896 560 896 Q454 896 381 841 Q308 786 272 696 Q236 606 236 502 Q236 397 272 306 Q308 215 380.5 159.5 Q453 104 558 104 Z M679 1146 Q628 1146 592.5 1170.5 Q557 1195 517 1240 Q486 1273 466.5 1288 Q447 1303 424 1303 Q388 1303 371.5 1265 Q355 1227 355 1166 L255 1166 Q255 1280 299 1348 Q343 1416 424 1416 Q463 1416 493.5 1402 Q524 1388 545 1369 Q566 1350 593 1319 Q621 1287 639.5 1272 Q658 1257 681 1257 Q752 1257 752 1410 L858 1410 Q858 1282 811.5 1214 Q765 1146 679 1146 Z " />
<glyph glyph-name="oe" unicode="&#x153;" horiz-adv-x="1785" d="M557 -20 Q419 -20 312 49 Q205 118 145.5 236 Q86 354 86 496 Q86 637 145.5 755 Q205 873 312.5 942.5 Q420 1012 557 1012 Q682 1012 777.5 956.5 Q873 901 931 801 Q980 899 1068.5 955.5 Q1157 1012 1282 1012 Q1509 1012 1606 865 Q1703 718 1703 486 Q1703 476 1702 464.5 Q1701 453 1701 449 L1005 449 Q1006 358 1039 282 Q1072 206 1137.5 161 Q1203 116 1297 116 Q1389 116 1454 138.5 Q1519 161 1576 222 L1675 142 Q1597 58 1507.5 23 Q1418 -12 1299 -12 Q1048 -12 933 196 Q877 95 781 37.5 Q685 -20 557 -20 Z M1564 571 Q1565 712 1493 797 Q1421 882 1282 882 Q1193 882 1132 840.5 Q1071 799 1039.5 729 Q1008 659 1004 571 L1564 571 Z M557 118 Q664 118 733 169 Q802 220 833 305 Q864 390 864 496 Q864 601 832.5 686.5 Q801 772 732.5 823.5 Q664 875 557 875 Q452 875 383.5 823.5 Q315 772 283 686 Q251 600 251 495 Q251 390 283 305 Q315 220 383.5 169 Q452 118 557 118 Z " />
<glyph glyph-name="p" unicode="p" horiz-adv-x="1129" d="M170 999 L320 999 L320 863 Q370 937 448.5 978.5 Q527 1020 625 1020 Q755 1020 847 951 Q939 882 986 764 Q1033 646 1033 500 Q1033 355 986 237 Q939 119 847.5 49.5 Q756 -20 626 -20 Q529 -20 450 20.5 Q371 61 320 136 L320 -438 L170 -438 L170 999 Z M594 106 Q690 106 755 160.5 Q820 215 851.5 304.5 Q883 394 883 500 Q883 606 851.5 695.5 Q820 785 755 839.5 Q690 894 594 894 Q497 894 432.5 839.5 Q368 785 337 695.5 Q306 606 306 500 Q306 393 337 303.5 Q368 214 432.5 160 Q497 106 594 106 Z " />
<glyph glyph-name="thorn" unicode="&#xfe;" horiz-adv-x="1140" d="M172 1413 L331 1413 L331 860 Q381 936 461 978 Q541 1020 646 1020 Q771 1020 861 950.5 Q951 881 997.5 763 Q1044 645 1044 500 Q1044 355 997.5 236.5 Q951 118 861 49 Q771 -20 646 -20 Q541 -20 461.5 21.5 Q382 63 331 139 L331 -438 L172 -438 L172 1413 Z M605 118 Q701 118 765 169 Q829 220 860 306.5 Q891 393 891 500 Q891 606 860 692 Q829 778 764.5 829.5 Q700 881 605 881 Q510 881 444.5 829.5 Q379 778 347 691.5 Q315 605 315 500 Q315 394 347 307 Q379 220 444.5 169 Q510 118 605 118 Z " />
<glyph glyph-name="q" unicode="q" horiz-adv-x="1130" d="M809 136 Q758 64 681.5 22 Q605 -20 504 -20 Q375 -20 283 49 Q191 118 143.5 236 Q96 354 96 500 Q96 645 143.5 763.5 Q191 882 283 951 Q375 1020 503 1020 Q601 1020 680 979 Q759 938 809 863 L809 999 L960 999 L960 -438 L809 -438 L809 136 Z M537 106 Q633 106 697 160.5 Q761 215 791 304 Q821 393 821 500 Q821 606 791 695.5 Q761 785 697 839.5 Q633 894 537 894 Q441 894 376 839.5 Q311 785 280 695.5 Q249 606 249 500 Q249 393 280 303.5 Q311 214 375.5 160 Q440 106 537 106 Z " />
<glyph glyph-name="r" unicode="r" horiz-adv-x="795" d="M168 999 L317 999 L317 822 Q356 913 436.5 966.5 Q517 1020 612 1020 Q661 1020 702 1006 Q743 992 773 968 L710 839 Q665 877 588 877 Q503 877 441.5 832.5 Q380 788 347.5 703 Q315 618 315 499 L315 0 L168 0 L168 999 Z " />
<glyph glyph-name="racute" unicode="&#x155;" horiz-adv-x="795" d="M168 999 L317 999 L317 822 Q356 913 436.5 966.5 Q517 1020 612 1020 Q661 1020 702 1006 Q743 992 773 968 L710 839 Q665 877 588 877 Q503 877 441.5 832.5 Q380 788 347.5 703 Q315 618 315 499 L315 0 L168 0 L168 999 Z M269 1124 L486 1413 L679 1413 L402 1124 L269 1124 Z " />
<glyph glyph-name="rcaron" unicode="&#x159;" horiz-adv-x="795" d="M168 999 L317 999 L317 822 Q356 913 436.5 966.5 Q517 1020 612 1020 Q661 1020 702 1006 Q743 992 773 968 L710 839 Q665 877 588 877 Q503 877 441.5 832.5 Q380 788 347.5 703 Q315 618 315 499 L315 0 L168 0 L168 999 Z M364 1081 L35 1413 L197 1413 L364 1232 L532 1413 L693 1413 L364 1081 Z " />
<glyph glyph-name="rcommaaccent" unicode="&#x157;" horiz-adv-x="795" d="M168 999 L317 999 L317 822 Q356 913 436.5 966.5 Q517 1020 612 1020 Q661 1020 702 1006 Q743 992 773 968 L710 839 Q665 877 588 877 Q503 877 441.5 832.5 Q380 788 347.5 703 Q315 618 315 499 L315 0 L168 0 L168 999 Z M16 -446 L139 -111 L351 -111 L123 -446 L16 -446 Z " />
<glyph glyph-name="s" unicode="s" horiz-adv-x="868" d="M445 -20 Q354 -20 277.5 13.5 Q201 47 148.5 103 Q96 159 72 227 L198 292 Q226 207 289 154.5 Q352 102 447 102 Q535 102 589 145 Q643 188 643 267 Q643 326 610.5 364 Q578 402 530.5 423 Q483 444 400 471 Q306 501 249 528.5 Q192 556 152 608 Q112 660 112 743 Q112 830 155 892.5 Q198 955 270 987.5 Q342 1020 429 1020 Q541 1020 625.5 966.5 Q710 913 757 821 L647 758 Q614 825 558 862 Q502 899 424 899 Q344 899 296.5 861 Q249 823 249 761 Q249 713 278 682 Q307 651 351 632 Q395 613 472 589 Q572 558 635.5 528 Q699 498 743.5 439 Q788 380 788 285 Q788 187 740 118 Q692 49 613.5 14.5 Q535 -20 445 -20 Z " />
<glyph glyph-name="sacute" unicode="&#x15b;" horiz-adv-x="868" d="M445 -20 Q354 -20 277.5 13.5 Q201 47 148.5 103 Q96 159 72 227 L198 292 Q226 207 289 154.5 Q352 102 447 102 Q535 102 589 145 Q643 188 643 267 Q643 326 610.5 364 Q578 402 530.5 423 Q483 444 400 471 Q306 501 249 528.5 Q192 556 152 608 Q112 660 112 743 Q112 830 155 892.5 Q198 955 270 987.5 Q342 1020 429 1020 Q541 1020 625.5 966.5 Q710 913 757 821 L647 758 Q614 825 558 862 Q502 899 424 899 Q344 899 296.5 861 Q249 823 249 761 Q249 713 278 682 Q307 651 351 632 Q395 613 472 589 Q572 558 635.5 528 Q699 498 743.5 439 Q788 380 788 285 Q788 187 740 118 Q692 49 613.5 14.5 Q535 -20 445 -20 Z M333 1124 L550 1413 L743 1413 L466 1124 L333 1124 Z " />
<glyph glyph-name="scaron" unicode="&#x161;" horiz-adv-x="868" d="M445 -20 Q354 -20 277.5 13.5 Q201 47 148.5 103 Q96 159 72 227 L198 292 Q226 207 289 154.5 Q352 102 447 102 Q535 102 589 145 Q643 188 643 267 Q643 326 610.5 364 Q578 402 530.5 423 Q483 444 400 471 Q306 501 249 528.5 Q192 556 152 608 Q112 660 112 743 Q112 830 155 892.5 Q198 955 270 987.5 Q342 1020 429 1020 Q541 1020 625.5 966.5 Q710 913 757 821 L647 758 Q614 825 558 862 Q502 899 424 899 Q344 899 296.5 861 Q249 823 249 761 Q249 713 278 682 Q307 651 351 632 Q395 613 472 589 Q572 558 635.5 528 Q699 498 743.5 439 Q788 380 788 285 Q788 187 740 118 Q692 49 613.5 14.5 Q535 -20 445 -20 Z M428 1081 L99 1413 L261 1413 L428 1232 L596 1413 L757 1413 L428 1081 Z " />
<glyph glyph-name="scedilla" unicode="&#x15f;" horiz-adv-x="868" d="M788 285 Q788 161 713 84.5 Q638 8 523 -13 L463 -117 Q553 -121 601 -172 Q649 -223 649 -297 Q649 -350 623 -397.5 Q597 -445 549 -474.5 Q501 -504 437 -504 Q375 -504 325.5 -468.5 Q276 -433 255 -380 L354 -329 Q360 -358 384.5 -379.5 Q409 -401 443 -401 Q487 -401 514 -373 Q541 -345 541 -305 Q541 -273 520.5 -244 Q500 -215 458 -197.5 Q416 -180 355 -180 L313 -180 L402 -18 Q322 -10 254.5 24.5 Q187 59 140 112 Q93 165 72 227 L198 292 Q226 207 289 154.5 Q352 102 447 102 Q535 102 589 145 Q643 188 643 267 Q643 326 610.5 364 Q578 402 530.5 423 Q483 444 400 471 Q306 501 249 528.5 Q192 556 152 608 Q112 660 112 743 Q112 830 155 892.5 Q198 955 270 987.5 Q342 1020 429 1020 Q541 1020 625.5 966.5 Q710 913 757 821 L647 758 Q614 825 558 862 Q502 899 424 899 Q344 899 296.5 861 Q249 823 249 761 Q249 713 278 682 Q307 651 351 632 Q395 613 472 589 Q572 558 635.5 528 Q699 498 743.5 439 Q788 380 788 285 Z " />
<glyph glyph-name="scommaaccent" unicode="&#x219;" horiz-adv-x="868" d="M445 -20 Q354 -20 277.5 13.5 Q201 47 148.5 103 Q96 159 72 227 L198 292 Q226 207 289 154.5 Q352 102 447 102 Q535 102 589 145 Q643 188 643 267 Q643 326 610.5 364 Q578 402 530.5 423 Q483 444 400 471 Q306 501 249 528.5 Q192 556 152 608 Q112 660 112 743 Q112 830 155 892.5 Q198 955 270 987.5 Q342 1020 429 1020 Q541 1020 625.5 966.5 Q710 913 757 821 L647 758 Q614 825 558 862 Q502 899 424 899 Q344 899 296.5 861 Q249 823 249 761 Q249 713 278 682 Q307 651 351 632 Q395 613 472 589 Q572 558 635.5 528 Q699 498 743.5 439 Q788 380 788 285 Q788 187 740 118 Q692 49 613.5 14.5 Q535 -20 445 -20 Z M238 -446 L361 -111 L573 -111 L345 -446 L238 -446 Z " />
<glyph glyph-name="germandbls" unicode="&#xdf;" horiz-adv-x="1178" d="M719 -18 Q653 -18 589.5 -1 Q526 16 454 48 L515 188 Q566 160 618.5 145.5 Q671 131 718 131 Q764 131 808.5 153 Q853 175 880.5 212 Q908 249 908 293 Q908 342 887 381.5 Q866 421 835.5 451 Q805 481 753 524 Q699 568 666.5 600 Q634 632 612 675 Q590 718 590 772 Q590 813 606 843.5 Q622 874 645 894 Q668 914 707 942 Q745 968 768 988.5 Q791 1009 806.5 1038 Q822 1067 822 1106 Q822 1159 792.5 1202.5 Q763 1246 708.5 1271.5 Q654 1297 581 1297 Q319 1297 319 907 L319 0 L170 0 L170 908 Q170 1182 281.5 1308 Q393 1434 577 1434 Q674 1434 766.5 1391.5 Q859 1349 917 1271.5 Q975 1194 975 1094 Q975 1042 956.5 1005.5 Q938 969 911.5 945.5 Q885 922 842 894 Q808 871 789 855 Q770 839 757.5 817.5 Q745 796 745 768 Q745 738 761 712 Q777 686 800.5 665 Q824 644 868 609 Q929 563 967 526 Q1005 489 1032.5 434 Q1060 379 1060 308 Q1060 214 1015 139.5 Q970 65 892 23.5 Q814 -18 719 -18 Z " />
<glyph glyph-name="t" unicode="t" horiz-adv-x="673" d="M446 -20 Q204 -20 204 265 L204 877 L44 877 L44 999 L205 999 L205 1224 L353 1364 L353 999 L606 999 L606 877 L353 877 L353 264 Q353 185 388 144 Q423 103 480 103 Q528 103 580 128 L580 0 Q561 -8 524.5 -14 Q488 -20 446 -20 Z " />
<glyph glyph-name="tbar" unicode="&#x167;" horiz-adv-x="673" d="M353 441 L353 264 Q353 185 388 144 Q423 103 480 103 Q528 103 580 128 L580 0 Q561 -8 524.5 -14 Q488 -20 446 -20 Q204 -20 204 265 L204 441 L2 441 L2 557 L204 557 L204 877 L44 877 L44 999 L205 999 L205 1224 L353 1364 L353 999 L606 999 L606 877 L353 877 L353 557 L636 557 L636 441 L353 441 Z " />
<glyph glyph-name="tcaron" unicode="&#x165;" horiz-adv-x="675" d="M478 1104 L599 1477 L795 1477 L572 1104 L478 1104 Z M448 -20 Q202 -20 202 265 L202 873 L45 873 L45 999 L202 999 L202 1224 L351 1364 L351 999 L607 999 L607 873 L351 873 L351 256 Q351 110 460 110 Q495 110 521.5 114 Q548 118 562.5 122.5 Q577 127 580 128 L580 0 Q576 -2 559 -6.5 Q542 -11 513 -15.5 Q484 -20 448 -20 Z " />
<glyph glyph-name="uni0163" unicode="&#x163;" horiz-adv-x="673" d="M444 -117 Q534 -121 582 -172 Q630 -223 630 -297 Q630 -350 604 -397.5 Q578 -445 530 -474.5 Q482 -504 418 -504 Q356 -504 306.5 -468.5 Q257 -433 236 -380 L335 -329 Q341 -358 365.5 -379.5 Q390 -401 424 -401 Q468 -401 495 -373 Q522 -345 522 -305 Q522 -273 501.5 -244 Q481 -215 439 -197.5 Q397 -180 336 -180 L294 -180 L385 -15 Q204 18 204 265 L204 877 L44 877 L44 999 L205 999 L205 1224 L353 1364 L353 999 L606 999 L606 877 L353 877 L353 264 Q353 185 388 144 Q423 103 480 103 Q528 103 580 128 L580 0 Q552 -11 502 -17 L444 -117 Z " />
<glyph glyph-name="uni021B" unicode="&#x21b;" horiz-adv-x="673" d="M446 -20 Q204 -20 204 265 L204 877 L44 877 L44 999 L205 999 L205 1224 L353 1364 L353 999 L606 999 L606 877 L353 877 L353 264 Q353 185 388 144 Q423 103 480 103 Q528 103 580 128 L580 0 Q561 -8 524.5 -14 Q488 -20 446 -20 Z M219 -446 L342 -111 L554 -111 L326 -446 L219 -446 Z " />
<glyph glyph-name="u" unicode="u" horiz-adv-x="1117" d="M486 -22 Q311 -22 227 98.5 Q143 219 143 419 L143 999 L292 999 L292 409 Q292 279 339 191.5 Q386 104 502 104 Q581 104 649.5 149 Q718 194 759 272 Q800 350 800 446 L800 999 L948 999 L948 0 L800 0 L800 169 Q779 123 734 79 Q689 35 624.5 6.5 Q560 -22 486 -22 Z " />
<glyph glyph-name="uacute" unicode="&#xfa;" horiz-adv-x="1117" d="M486 -22 Q311 -22 227 98.5 Q143 219 143 419 L143 999 L292 999 L292 409 Q292 279 339 191.5 Q386 104 502 104 Q581 104 649.5 149 Q718 194 759 272 Q800 350 800 446 L800 999 L948 999 L948 0 L800 0 L800 169 Q779 123 734 79 Q689 35 624.5 6.5 Q560 -22 486 -22 Z M464 1124 L681 1413 L874 1413 L597 1124 L464 1124 Z " />
<glyph glyph-name="uni01D4" unicode="&#x1d4;" horiz-adv-x="1117" d="M486 -22 Q311 -22 227 98.5 Q143 219 143 419 L143 999 L292 999 L292 409 Q292 279 339 191.5 Q386 104 502 104 Q581 104 649.5 149 Q718 194 759 272 Q800 350 800 446 L800 999 L948 999 L948 0 L800 0 L800 169 Q779 123 734 79 Q689 35 624.5 6.5 Q560 -22 486 -22 Z M559 1081 L230 1413 L392 1413 L559 1232 L727 1413 L888 1413 L559 1081 Z " />
<glyph glyph-name="ucircumflex" unicode="&#xfb;" horiz-adv-x="1117" d="M486 -22 Q311 -22 227 98.5 Q143 219 143 419 L143 999 L292 999 L292 409 Q292 279 339 191.5 Q386 104 502 104 Q581 104 649.5 149 Q718 194 759 272 Q800 350 800 446 L800 999 L948 999 L948 0 L800 0 L800 169 Q779 123 734 79 Q689 35 624.5 6.5 Q560 -22 486 -22 Z M230 1098 L559 1453 L888 1098 L727 1098 L559 1284 L392 1098 L230 1098 Z " />
<glyph glyph-name="udieresis" unicode="&#xfc;" horiz-adv-x="1117" d="M486 -22 Q311 -22 227 98.5 Q143 219 143 419 L143 999 L292 999 L292 409 Q292 279 339 191.5 Q386 104 502 104 Q581 104 649.5 149 Q718 194 759 272 Q800 350 800 446 L800 999 L948 999 L948 0 L800 0 L800 169 Q779 123 734 79 Q689 35 624.5 6.5 Q560 -22 486 -22 Z M304 1221 L304 1413 L473 1413 L473 1221 L304 1221 Z M641 1221 L641 1413 L809 1413 L809 1221 L641 1221 Z " />
<glyph glyph-name="uni01D8" unicode="&#x1d8;" horiz-adv-x="1117" d="M486 -22 Q311 -22 227 98.5 Q143 219 143 419 L143 999 L292 999 L292 409 Q292 279 339 191.5 Q386 104 502 104 Q581 104 649.5 149 Q718 194 759 272 Q800 350 800 446 L800 999 L948 999 L948 0 L800 0 L800 169 Q779 123 734 79 Q689 35 624.5 6.5 Q560 -22 486 -22 Z M304 1221 L304 1413 L473 1413 L473 1221 L304 1221 Z M641 1221 L641 1413 L809 1413 L809 1221 L641 1221 Z M464 1538 L681 1827 L874 1827 L597 1538 L464 1538 Z " />
<glyph glyph-name="uni01DA" unicode="&#x1da;" horiz-adv-x="1117" d="M486 -22 Q311 -22 227 98.5 Q143 219 143 419 L143 999 L292 999 L292 409 Q292 279 339 191.5 Q386 104 502 104 Q581 104 649.5 149 Q718 194 759 272 Q800 350 800 446 L800 999 L948 999 L948 0 L800 0 L800 169 Q779 123 734 79 Q689 35 624.5 6.5 Q560 -22 486 -22 Z M304 1221 L304 1413 L473 1413 L473 1221 L304 1221 Z M641 1221 L641 1413 L809 1413 L809 1221 L641 1221 Z M559 1495 L230 1827 L392 1827 L559 1646 L727 1827 L888 1827 L559 1495 Z " />
<glyph glyph-name="uni01DC" unicode="&#x1dc;" horiz-adv-x="1117" d="M486 -22 Q311 -22 227 98.5 Q143 219 143 419 L143 999 L292 999 L292 409 Q292 279 339 191.5 Q386 104 502 104 Q581 104 649.5 149 Q718 194 759 272 Q800 350 800 446 L800 999 L948 999 L948 0 L800 0 L800 169 Q779 123 734 79 Q689 35 624.5 6.5 Q560 -22 486 -22 Z M304 1221 L304 1413 L473 1413 L473 1221 L304 1221 Z M641 1221 L641 1413 L809 1413 L809 1221 L641 1221 Z M487 1536 L229 1827 L421 1827 L639 1536 L487 1536 Z " />
<glyph glyph-name="uni01D6" unicode="&#x1d6;" horiz-adv-x="1117" d="M486 -22 Q311 -22 227 98.5 Q143 219 143 419 L143 999 L292 999 L292 409 Q292 279 339 191.5 Q386 104 502 104 Q581 104 649.5 149 Q718 194 759 272 Q800 350 800 446 L800 999 L948 999 L948 0 L800 0 L800 169 Q779 123 734 79 Q689 35 624.5 6.5 Q560 -22 486 -22 Z M304 1221 L304 1413 L473 1413 L473 1221 L304 1221 Z M641 1221 L641 1413 L809 1413 L809 1221 L641 1221 Z M290 1597 L290 1722 L831 1722 L831 1597 L290 1597 Z " />
<glyph glyph-name="ugrave" unicode="&#xf9;" horiz-adv-x="1117" d="M486 -22 Q311 -22 227 98.5 Q143 219 143 419 L143 999 L292 999 L292 409 Q292 279 339 191.5 Q386 104 502 104 Q581 104 649.5 149 Q718 194 759 272 Q800 350 800 446 L800 999 L948 999 L948 0 L800 0 L800 169 Q779 123 734 79 Q689 35 624.5 6.5 Q560 -22 486 -22 Z M487 1122 L229 1413 L421 1413 L639 1122 L487 1122 Z " />
<glyph glyph-name="uhungarumlaut" unicode="&#x171;" horiz-adv-x="1117" d="M486 -22 Q311 -22 227 98.5 Q143 219 143 419 L143 999 L292 999 L292 409 Q292 279 339 191.5 Q386 104 502 104 Q581 104 649.5 149 Q718 194 759 272 Q800 350 800 446 L800 999 L948 999 L948 0 L800 0 L800 169 Q779 123 734 79 Q689 35 624.5 6.5 Q560 -22 486 -22 Z M298 1119 L515 1413 L703 1413 L432 1119 L298 1119 Z M628 1119 L845 1413 L1038 1413 L762 1119 L628 1119 Z " />
<glyph glyph-name="umacron" unicode="&#x16b;" horiz-adv-x="1117" d="M486 -22 Q311 -22 227 98.5 Q143 219 143 419 L143 999 L292 999 L292 409 Q292 279 339 191.5 Q386 104 502 104 Q581 104 649.5 149 Q718 194 759 272 Q800 350 800 446 L800 999 L948 999 L948 0 L800 0 L800 169 Q779 123 734 79 Q689 35 624.5 6.5 Q560 -22 486 -22 Z M290 1183 L290 1308 L831 1308 L831 1183 L290 1183 Z " />
<glyph glyph-name="uogonek" unicode="&#x173;" horiz-adv-x="1117" d="M1023 -338 Q985 -392 936.5 -421.5 Q888 -451 817 -451 Q758 -451 711 -425.5 Q664 -400 637.5 -353.5 Q611 -307 611 -246 Q611 -177 648 -125 Q685 -73 733.5 -43 Q782 -13 824 0 L800 0 L800 169 Q779 123 734 79 Q689 35 624.5 6.5 Q560 -22 486 -22 Q311 -22 227 98.5 Q143 219 143 419 L143 999 L292 999 L292 409 Q292 279 339 191.5 Q386 104 502 104 Q581 104 649.5 149 Q718 194 759 272 Q800 350 800 446 L800 999 L948 999 L948 0 Q924 -8 872.5 -34.5 Q821 -61 771 -111.5 Q721 -162 721 -229 Q721 -280 745.5 -308.5 Q770 -337 808 -337 Q848 -337 877.5 -321 Q907 -305 930 -273 L1023 -338 Z " />
<glyph glyph-name="uring" unicode="&#x16f;" horiz-adv-x="1117" d="M486 -22 Q311 -22 227 98.5 Q143 219 143 419 L143 999 L292 999 L292 409 Q292 279 339 191.5 Q386 104 502 104 Q581 104 649.5 149 Q718 194 759 272 Q800 350 800 446 L800 999 L948 999 L948 0 L800 0 L800 169 Q779 123 734 79 Q689 35 624.5 6.5 Q560 -22 486 -22 Z M557 1079 Q500 1079 453.5 1106.5 Q407 1134 380.5 1180.5 Q354 1227 354 1282 Q354 1338 381 1384.5 Q408 1431 454.5 1458.5 Q501 1486 557 1486 Q611 1486 658 1459 Q705 1432 733 1385 Q761 1338 761 1282 Q761 1227 733.5 1180.5 Q706 1134 659.5 1106.5 Q613 1079 557 1079 Z M557 1182 Q599 1182 628 1211 Q657 1240 657 1283 Q657 1325 629 1353 Q601 1381 557 1381 Q513 1381 486 1354 Q459 1327 459 1283 Q459 1239 487 1210.5 Q515 1182 557 1182 Z " />
<glyph glyph-name="utilde" unicode="&#x169;" horiz-adv-x="1117" d="M486 -22 Q311 -22 227 98.5 Q143 219 143 419 L143 999 L292 999 L292 409 Q292 279 339 191.5 Q386 104 502 104 Q581 104 649.5 149 Q718 194 759 272 Q800 350 800 446 L800 999 L948 999 L948 0 L800 0 L800 169 Q779 123 734 79 Q689 35 624.5 6.5 Q560 -22 486 -22 Z M680 1146 Q629 1146 593.5 1170.5 Q558 1195 518 1240 Q487 1273 467.5 1288 Q448 1303 425 1303 Q389 1303 372.5 1265 Q356 1227 356 1166 L256 1166 Q256 1280 300 1348 Q344 1416 425 1416 Q464 1416 494.5 1402 Q525 1388 546 1369 Q567 1350 594 1319 Q622 1287 640.5 1272 Q659 1257 682 1257 Q753 1257 753 1410 L859 1410 Q859 1282 812.5 1214 Q766 1146 680 1146 Z " />
<glyph glyph-name="v" unicode="v" horiz-adv-x="949" d="M409 0 L36 999 L199 999 L475 194 L753 999 L913 999 L541 0 L409 0 Z " />
<glyph glyph-name="w" unicode="w" horiz-adv-x="1419" d="M329 -1 L50 999 L208 999 L412 197 L642 999 L779 999 L1008 199 L1211 999 L1370 999 L1090 0 L945 0 L712 811 L474 -1 L329 -1 Z " />
<glyph glyph-name="wacute" unicode="&#x1e83;" horiz-adv-x="1419" d="M329 -1 L50 999 L208 999 L412 197 L642 999 L779 999 L1008 199 L1211 999 L1370 999 L1090 0 L945 0 L712 811 L474 -1 L329 -1 Z M617 1124 L834 1413 L1027 1413 L750 1124 L617 1124 Z " />
<glyph glyph-name="wcircumflex" unicode="&#x175;" horiz-adv-x="1419" d="M329 -1 L50 999 L208 999 L412 197 L642 999 L779 999 L1008 199 L1211 999 L1370 999 L1090 0 L945 0 L712 811 L474 -1 L329 -1 Z M383 1098 L712 1453 L1041 1098 L880 1098 L712 1284 L545 1098 L383 1098 Z " />
<glyph glyph-name="wdieresis" unicode="&#x1e85;" horiz-adv-x="1419" d="M329 -1 L50 999 L208 999 L412 197 L642 999 L779 999 L1008 199 L1211 999 L1370 999 L1090 0 L945 0 L712 811 L474 -1 L329 -1 Z M457 1221 L457 1413 L626 1413 L626 1221 L457 1221 Z M794 1221 L794 1413 L962 1413 L962 1221 L794 1221 Z " />
<glyph glyph-name="wgrave" unicode="&#x1e81;" horiz-adv-x="1419" d="M329 -1 L50 999 L208 999 L412 197 L642 999 L779 999 L1008 199 L1211 999 L1370 999 L1090 0 L945 0 L712 811 L474 -1 L329 -1 Z M640 1122 L382 1413 L574 1413 L792 1122 L640 1122 Z " />
<glyph glyph-name="x" unicode="x" horiz-adv-x="920" d="M46 0 L383 504 L46 999 L229 999 L462 629 L696 999 L874 999 L541 504 L874 0 L696 0 L462 378 L229 0 L46 0 Z " />
<glyph glyph-name="y" unicode="y" horiz-adv-x="975" d="M248 -430 L419 5 L35 999 L200 999 L493 182 L777 999 L940 999 L405 -430 L248 -430 Z " />
<glyph glyph-name="yacute" unicode="&#xfd;" horiz-adv-x="975" d="M248 -430 L419 5 L35 999 L200 999 L493 182 L777 999 L940 999 L405 -430 L248 -430 Z M388 1124 L605 1413 L798 1413 L521 1124 L388 1124 Z " />
<glyph glyph-name="ycircumflex" unicode="&#x177;" horiz-adv-x="975" d="M248 -430 L419 5 L35 999 L200 999 L493 182 L777 999 L940 999 L405 -430 L248 -430 Z M154 1098 L483 1453 L812 1098 L651 1098 L483 1284 L316 1098 L154 1098 Z " />
<glyph glyph-name="ydieresis" unicode="&#xff;" horiz-adv-x="975" d="M248 -430 L419 5 L35 999 L200 999 L493 182 L777 999 L940 999 L405 -430 L248 -430 Z M228 1221 L228 1413 L397 1413 L397 1221 L228 1221 Z M565 1221 L565 1413 L733 1413 L733 1221 L565 1221 Z " />
<glyph glyph-name="ygrave" unicode="&#x1ef3;" horiz-adv-x="975" d="M248 -430 L419 5 L35 999 L200 999 L493 182 L777 999 L940 999 L405 -430 L248 -430 Z M411 1122 L153 1413 L345 1413 L563 1122 L411 1122 Z " />
<glyph glyph-name="uni1EF9" unicode="&#x1ef9;" horiz-adv-x="975" d="M248 -430 L419 5 L35 999 L200 999 L493 182 L777 999 L940 999 L405 -430 L248 -430 Z M604 1146 Q553 1146 517.5 1170.5 Q482 1195 442 1240 Q411 1273 391.5 1288 Q372 1303 349 1303 Q313 1303 296.5 1265 Q280 1227 280 1166 L180 1166 Q180 1280 224 1348 Q268 1416 349 1416 Q388 1416 418.5 1402 Q449 1388 470 1369 Q491 1350 518 1319 Q546 1287 564.5 1272 Q583 1257 606 1257 Q677 1257 677 1410 L783 1410 Q783 1282 736.5 1214 Q690 1146 604 1146 Z " />
<glyph glyph-name="z" unicode="z" horiz-adv-x="930" d="M852 999 L852 876 L252 128 L852 128 L852 0 L66 0 L66 113 L677 877 L95 877 L95 999 L852 999 Z " />
<glyph glyph-name="zacute" unicode="&#x17a;" horiz-adv-x="930" d="M852 999 L852 876 L252 128 L852 128 L852 0 L66 0 L66 113 L677 877 L95 877 L95 999 L852 999 Z M363 1124 L580 1413 L773 1413 L496 1124 L363 1124 Z " />
<glyph glyph-name="zcaron" unicode="&#x17e;" horiz-adv-x="930" d="M852 999 L852 876 L252 128 L852 128 L852 0 L66 0 L66 113 L677 877 L95 877 L95 999 L852 999 Z M458 1081 L129 1413 L291 1413 L458 1232 L626 1413 L787 1413 L458 1081 Z " />
<glyph glyph-name="zdotaccent" unicode="&#x17c;" horiz-adv-x="930" d="M852 999 L852 876 L252 128 L852 128 L852 0 L66 0 L66 113 L677 877 L95 877 L95 999 L852 999 Z M370 1221 L370 1413 L543 1413 L543 1221 L370 1221 Z " />
<glyph glyph-name="fi" unicode="&#xfb01;" horiz-adv-x="998" d="M179 877 L32 877 L32 999 L181 999 Q181 1191 265.5 1312.5 Q350 1434 548 1434 Q644 1434 707.5 1402.5 Q771 1371 833 1311 L752 1210 Q700 1264 651 1285.5 Q602 1307 545 1307 Q420 1307 369.5 1223 Q319 1139 319 999 L831 999 L831 0 L696 0 L696 877 L319 877 L319 0 L179 0 L179 877 Z " />
<glyph glyph-name="fl" unicode="&#xfb02;" horiz-adv-x="1009" d="M837 -20 Q758 -20 727 39.5 Q696 99 696 202 L696 1243 Q683 1267 637.5 1287 Q592 1307 532 1307 Q420 1307 369.5 1265.5 Q319 1224 319 1125 L319 999 L534 999 L534 877 L319 877 L319 0 L179 0 L179 877 L32 877 L32 999 L181 999 L181 1142 Q181 1237 224.5 1302.5 Q268 1368 345.5 1401 Q423 1434 526 1434 Q596 1434 671.5 1405.5 Q747 1377 833 1299 L833 183 Q833 147 841.5 133.5 Q850 120 881 120 Q906 120 950 131 L950 0 Q955 0 936 -5.5 Q917 -11 890 -15.5 Q863 -20 837 -20 Z " />
<glyph glyph-name="ordfeminine" unicode="&#xaa;" horiz-adv-x="850" d="M341 709 Q278 709 225.5 735 Q173 761 142 809 Q111 857 111 920 Q111 1027 181.5 1078 Q252 1129 372 1129 L584 1129 Q582 1336 410 1336 Q353 1336 305 1307 Q257 1278 229 1235 L138 1293 Q192 1366 257.5 1400 Q323 1434 415 1434 Q546 1434 618.5 1358 Q691 1282 691 1152 L691 723 L594 723 L589 840 Q542 772 483 740.5 Q424 709 341 709 Z M367 810 Q426 810 476 842 Q526 874 554.5 925.5 Q583 977 584 1032 L382 1032 Q318 1032 276.5 1002 Q235 972 235 920 Q235 888 254.5 863 Q274 838 305 824 Q336 810 367 810 Z " />
<glyph glyph-name="ordmasculine" unicode="&#xba;" horiz-adv-x="898" d="M450 711 Q351 711 273.5 759.5 Q196 808 152.5 890.5 Q109 973 109 1073 Q109 1172 152.5 1254.5 Q196 1337 273.5 1385.5 Q351 1434 450 1434 Q547 1434 624.5 1385.5 Q702 1337 745 1254.5 Q788 1172 788 1073 Q788 974 745 891 Q702 808 624.5 759.5 Q547 711 450 711 Z M450 820 Q555 820 605.5 891.5 Q656 963 656 1073 Q656 1183 605 1254.5 Q554 1326 450 1326 Q344 1326 292.5 1254.5 Q241 1183 241 1073 Q241 962 292 891 Q343 820 450 820 Z " />
<glyph glyph-name="uni01C3" unicode="&#x1c3;" horiz-adv-x="646" d="M267 379 L238 1435 L408 1435 L379 379 L267 379 Z M226 0 L226 192 L420 192 L420 0 L226 0 Z " />
<glyph glyph-name="uni0410" unicode="&#x410;" horiz-adv-x="1304" d="M63 0 L592 1413 L714 1413 L1241 0 L1072 0 L961 307 L345 307 L235 0 L63 0 Z M395 452 L911 452 L654 1181 L395 452 Z " />
<glyph glyph-name="uni0411" unicode="&#x411;" horiz-adv-x="1244" d="M212 1413 L958 1413 L958 1270 L369 1270 L369 793 L701 793 Q832 793 927.5 747 Q1023 701 1075 610 Q1127 519 1127 388 Q1127 269 1070 181.5 Q1013 94 910.5 47 Q808 0 676 0 L212 0 L212 1413 Z M680 147 Q756 147 822 178.5 Q888 210 927.5 268 Q967 326 967 401 Q967 478 928 534 Q889 590 824 619 Q759 648 683 648 L369 648 L369 147 L680 147 Z " />
<glyph glyph-name="uni0412" unicode="&#x412;" horiz-adv-x="1243" d="M212 1413 L603 1413 Q724 1413 826.5 1377.5 Q929 1342 992.5 1263.5 Q1056 1185 1056 1063 Q1056 854 873 748 Q992 695 1058.5 605.5 Q1125 516 1125 377 Q1125 243 1062 159 Q999 75 897.5 37.5 Q796 0 676 0 L212 0 L212 1413 Z M603 791 Q731 791 811 853.5 Q891 916 891 1042 Q891 1169 813.5 1220 Q736 1271 605 1271 L367 1271 L367 791 L603 791 Z M680 147 Q809 147 889 201 Q969 255 969 386 Q969 527 889 588 Q809 649 683 649 L367 649 L367 147 L680 147 Z " />
<glyph glyph-name="uni0413" unicode="&#x413;" horiz-adv-x="1068" d="M212 0 L212 1413 L1008 1413 L1008 1278 L369 1278 L369 0 L212 0 Z " />
<glyph glyph-name="uni0403" unicode="&#x403;" horiz-adv-x="1068" d="M459 1538 L673 1826 L845 1826 L577 1538 L459 1538 Z M212 0 L212 1413 L1008 1413 L1008 1278 L369 1278 L369 0 L212 0 Z " />
<glyph glyph-name="uni0490" unicode="&#x490;" horiz-adv-x="1068" d="M212 0 L212 1413 L853 1413 L853 1720 L1008 1720 L1008 1278 L369 1278 L369 0 L212 0 Z " />
<glyph glyph-name="uni0414" unicode="&#x414;" horiz-adv-x="1462" d="M60 -253 L60 130 L183 130 L662 1413 L799 1413 L1278 130 L1402 130 L1402 -253 L1245 -253 L1245 0 L217 0 L217 -253 L60 -253 Z M346 130 L1116 130 L732 1203 L346 130 Z " />
<glyph glyph-name="uni0415" unicode="&#x415;" horiz-adv-x="1239" d="M212 0 L212 1413 L1127 1413 L1127 1276 L371 1276 L371 774 L1028 774 L1028 641 L371 641 L371 145 L1127 145 L1127 0 L212 0 Z " />
<glyph glyph-name="uni0400" unicode="&#x400;" horiz-adv-x="1239" d="M212 0 L212 1413 L1127 1413 L1127 1276 L371 1276 L371 774 L1028 774 L1028 641 L371 641 L371 145 L1127 145 L1127 0 L212 0 Z M594 1536 L336 1827 L528 1827 L746 1536 L594 1536 Z " />
<glyph glyph-name="uni0401" unicode="&#x401;" horiz-adv-x="1239" d="M212 0 L212 1413 L1127 1413 L1127 1276 L371 1276 L371 774 L1028 774 L1028 641 L371 641 L371 145 L1127 145 L1127 0 L212 0 Z M411 1635 L411 1827 L580 1827 L580 1635 L411 1635 Z M748 1635 L748 1827 L916 1827 L916 1635 L748 1635 Z " />
<glyph glyph-name="uni0416" unicode="&#x416;" horiz-adv-x="1954" d="M315 643 Q328 677 362 717.5 Q396 758 447.5 787 Q499 816 559 816 L149 1413 L348 1413 L731 839 L898 839 L898 1413 L1056 1413 L1056 839 L1223 839 L1604 1413 L1805 1413 L1395 816 Q1454 816 1505.5 787 Q1557 758 1591.5 717.5 Q1626 677 1639 643 L1882 0 L1692 0 L1492 563 Q1472 619 1421 662 Q1370 705 1300 705 L1056 705 L1056 0 L898 0 L898 705 L653 705 Q582 705 533 664.5 Q484 624 463 563 L261 0 L72 0 L315 643 Z " />
<glyph glyph-name="uni0417" unicode="&#x417;" horiz-adv-x="1112" d="M519 -20 Q370 -20 254 38 Q138 96 84 209 L215 295 Q249 206 332 159 Q415 112 519 112 Q604 112 677 145 Q750 178 794.5 244 Q839 310 839 403 Q839 493 795.5 555.5 Q752 618 679.5 649 Q607 680 519 680 L352 680 L351 820 L525 820 Q596 820 653 847 Q710 874 743.5 926.5 Q777 979 777 1051 Q777 1128 743 1183.5 Q709 1239 651.5 1268 Q594 1297 523 1297 Q459 1297 401.5 1270.5 Q344 1244 308 1193.5 Q272 1143 272 1074 L118 1074 Q119 1185 173.5 1266.5 Q228 1348 319.5 1391 Q411 1434 521 1434 Q631 1434 722.5 1390.5 Q814 1347 868 1264.5 Q922 1182 922 1070 Q922 970 876 889.5 Q830 809 743 762 Q861 715 927.5 618.5 Q994 522 994 390 Q994 256 930.5 163.5 Q867 71 759 25.5 Q651 -20 519 -20 Z " />
<glyph glyph-name="uni0418" unicode="&#x418;" horiz-adv-x="1418" d="M1206 0 L1048 0 L1048 1247 L444 0 L212 0 L212 1413 L369 1413 L369 168 L977 1413 L1206 1413 L1206 0 Z " />
<glyph glyph-name="uni0419" unicode="&#x419;" horiz-adv-x="1453" d="M754 1556 Q670 1556 601 1587.5 Q532 1619 492 1680 Q452 1741 452 1826 L575 1826 Q575 1779 599.5 1741.5 Q624 1704 665 1683 Q706 1662 754 1662 Q803 1662 844 1683 Q885 1704 909.5 1741.5 Q934 1779 934 1826 L1058 1826 Q1058 1742 1018 1681 Q978 1620 909 1588 Q840 1556 754 1556 Z M212 1413 L369 1413 L369 336 Q369 287 359 189 L362 190 L1043 1413 L1241 1413 L1241 0 L1084 0 L1084 1081 Q1084 1157 1094 1223 L1091 1222 L410 0 L212 0 L212 1413 Z " />
<glyph glyph-name="uni040D" unicode="&#x40d;" horiz-adv-x="1453" d="M710 1540 L469 1826 L640 1826 L852 1540 L710 1540 Z M212 1413 L369 1413 L369 336 Q369 287 359 189 L362 190 L1043 1413 L1241 1413 L1241 0 L1084 0 L1084 1081 Q1084 1157 1094 1223 L1091 1222 L410 0 L212 0 L212 1413 Z " />
<glyph glyph-name="uni041A" unicode="&#x41a;" horiz-adv-x="1266" d="M212 1413 L369 1413 L369 839 L537 839 L918 1413 L1119 1413 L708 816 Q767 816 818.5 787 Q870 758 905 717.5 Q940 677 953 643 L1195 0 L1006 0 L804 563 Q795 591 768 624 Q741 657 701 681 Q661 705 614 705 L369 705 L369 0 L212 0 L212 1413 Z " />
<glyph glyph-name="uni040C" unicode="&#x40c;" horiz-adv-x="1266" d="M493 1538 L707 1826 L879 1826 L611 1538 L493 1538 Z M212 1413 L369 1413 L369 839 L537 839 L918 1413 L1119 1413 L708 816 Q767 816 818.5 787 Q870 758 905 717.5 Q940 677 953 643 L1195 0 L1006 0 L804 563 Q795 591 768 624 Q741 657 701 681 Q661 705 614 705 L369 705 L369 0 L212 0 L212 1413 Z " />
<glyph glyph-name="uni041B" unicode="&#x41b;" horiz-adv-x="1325" d="M63 0 L594 1413 L730 1413 L1262 0 L1098 0 L663 1203 L230 0 L63 0 Z " />
<glyph glyph-name="uni041C" unicode="&#x41c;" horiz-adv-x="1762" d="M212 0 L212 1413 L470 1413 L878 278 L1292 1413 L1550 1413 L1550 0 L1393 0 L1393 1276 L968 123 L794 123 L370 1276 L370 0 L212 0 Z " />
<glyph glyph-name="uni041D" unicode="&#x41d;" horiz-adv-x="1455" d="M212 0 L212 1413 L371 1413 L371 774 L1084 774 L1084 1413 L1243 1413 L1243 0 L1084 0 L1084 641 L371 641 L371 0 L212 0 Z " />
<glyph glyph-name="uni041E" unicode="&#x41e;" horiz-adv-x="1515" d="M756 -20 Q549 -20 406.5 77.5 Q264 175 193.5 340 Q123 505 123 707 Q123 909 193.5 1074 Q264 1239 406.5 1336.5 Q549 1434 756 1434 Q964 1434 1107 1336.5 Q1250 1239 1321 1074 Q1392 909 1392 707 Q1392 505 1321 340 Q1250 175 1107 77.5 Q964 -20 756 -20 Z M756 126 Q920 126 1028.5 205.5 Q1137 285 1187.5 416.5 Q1238 548 1238 707 Q1238 866 1187.5 997 Q1137 1128 1028.5 1207.5 Q920 1287 756 1287 Q594 1287 486.5 1207.5 Q379 1128 328.5 997 Q278 866 278 707 Q278 548 328.5 416.5 Q379 285 486.5 205.5 Q594 126 756 126 Z " />
<glyph glyph-name="uni041F" unicode="&#x41f;" horiz-adv-x="1453" d="M212 0 L212 1413 L1241 1413 L1241 0 L1084 0 L1084 1278 L369 1278 L369 0 L212 0 Z " />
<glyph glyph-name="uni0420" unicode="&#x420;" horiz-adv-x="1148" d="M212 1413 L608 1413 Q745 1413 847 1366.5 Q949 1320 1004.5 1232 Q1060 1144 1060 1023 Q1060 900 1004.5 813.5 Q949 727 847 682 Q745 637 608 637 L370 637 L370 0 L212 0 L212 1413 Z M608 779 Q751 779 828 841 Q905 903 905 1023 Q905 1141 827 1207 Q749 1273 608 1273 L370 1273 L370 779 L608 779 Z " />
<glyph glyph-name="uni0421" unicode="&#x421;" horiz-adv-x="1420" d="M759 -20 Q551 -20 408 77 Q265 174 195 338.5 Q125 503 125 707 Q125 911 195 1076.5 Q265 1242 407 1339 Q549 1436 757 1436 Q955 1436 1103 1340 Q1251 1244 1332 1060 L1186 1000 Q1143 1149 1028.5 1219 Q914 1289 755 1289 Q595 1289 488.5 1211.5 Q382 1134 331.5 1005 Q281 876 281 717 Q281 551 331.5 417.5 Q382 284 489 205 Q596 126 759 126 Q913 126 1021.5 196 Q1130 266 1187 418 L1334 358 Q1255 173 1106.5 76.5 Q958 -20 759 -20 Z " />
<glyph glyph-name="uni0422" unicode="&#x422;" horiz-adv-x="1234" d="M538 0 L538 1284 L60 1284 L60 1413 L1174 1413 L1174 1284 L696 1284 L696 0 L538 0 Z " />
<glyph glyph-name="uni0423" unicode="&#x423;" horiz-adv-x="1115" d="M262 0 L459 457 L63 1413 L236 1413 L542 624 L875 1413 L1052 1413 L431 0 L262 0 Z " />
<glyph glyph-name="uni040E" unicode="&#x40e;" horiz-adv-x="1115" d="M559 1556 Q474 1556 405 1587.5 Q336 1619 296 1680 Q256 1741 256 1826 L379 1826 Q379 1779 403.5 1741.5 Q428 1704 469 1683 Q510 1662 559 1662 Q607 1662 648 1683 Q689 1704 713.5 1741.5 Q738 1779 738 1826 L861 1826 Q861 1742 821.5 1681 Q782 1620 713 1588 Q644 1556 559 1556 Z M262 0 L459 457 L63 1413 L236 1413 L542 624 L875 1413 L1052 1413 L431 0 L262 0 Z " />
<glyph glyph-name="uni0424" unicode="&#x424;" horiz-adv-x="1690" d="M766 116 Q444 116 283.5 264.5 Q123 413 123 706 Q123 1001 284.5 1156.5 Q446 1312 766 1312 L766 1413 L924 1413 L924 1312 Q1245 1312 1406 1156.5 Q1567 1001 1567 706 Q1567 116 924 116 L924 0 L766 0 L766 116 Z M766 1167 Q518 1167 398 1050.5 Q278 934 278 706 Q278 480 397 370.5 Q516 261 766 261 L766 1167 Z M924 261 Q1173 261 1292.5 371 Q1412 481 1412 706 Q1412 1167 924 1167 L924 261 Z " />
<glyph glyph-name="uni0425" unicode="&#x425;" horiz-adv-x="1260" d="M72 0 L539 707 L74 1413 L263 1413 L629 826 L999 1413 L1186 1413 L723 707 L1188 0 L1001 0 L627 578 L261 0 L72 0 Z " />
<glyph glyph-name="uni0427" unicode="&#x427;" horiz-adv-x="1325" d="M955 537 Q832 411 621 411 Q370 411 248.5 575 Q127 739 127 1017 L127 1413 L286 1413 L286 1011 Q286 798 362 680 Q438 562 621 562 Q725 562 814 603 Q903 644 955 709 L955 1413 L1114 1413 L1114 0 L955 0 L955 537 Z " />
<glyph glyph-name="uni0426" unicode="&#x426;" horiz-adv-x="1479" d="M1229 -253 L1229 0 L212 0 L212 1413 L369 1413 L369 137 L1084 137 L1084 1413 L1241 1413 L1241 137 L1385 137 L1385 -253 L1229 -253 Z " />
<glyph glyph-name="uni0428" unicode="&#x428;" horiz-adv-x="1745" d="M212 0 L212 1413 L369 1413 L369 137 L791 137 L791 1413 L949 1413 L949 137 L1376 137 L1376 1413 L1533 1413 L1533 0 L212 0 Z " />
<glyph glyph-name="uni0429" unicode="&#x429;" horiz-adv-x="1770" d="M1521 -253 L1521 0 L212 0 L212 1413 L369 1413 L369 137 L791 137 L791 1413 L949 1413 L949 137 L1376 137 L1376 1413 L1533 1413 L1533 137 L1676 137 L1676 -253 L1521 -253 Z " />
<glyph glyph-name="uni040F" unicode="&#x40f;" horiz-adv-x="1453" d="M648 -307 L648 0 L212 0 L212 1413 L369 1413 L369 137 L1084 137 L1084 1413 L1241 1413 L1241 0 L805 0 L805 -307 L648 -307 Z " />
<glyph glyph-name="uni042C" unicode="&#x42c;" horiz-adv-x="1148" d="M212 1413 L370 1413 L370 776 L608 776 Q745 776 847 731 Q949 686 1004.5 599.5 Q1060 513 1060 391 Q1060 270 1004.5 181.5 Q949 93 847 46.5 Q745 0 608 0 L212 0 L212 1413 Z M608 141 Q750 141 827.5 206.5 Q905 272 905 391 Q905 510 828 572.5 Q751 635 608 635 L370 635 L370 141 L608 141 Z " />
<glyph glyph-name="uni042A" unicode="&#x42a;" horiz-adv-x="1369" d="M433 1285 L60 1285 L60 1413 L590 1413 L590 776 L829 776 Q966 776 1067.5 731 Q1169 686 1224.5 599.5 Q1280 513 1280 391 Q1280 270 1224.5 181.5 Q1169 93 1067 46.5 Q965 0 829 0 L433 0 L433 1285 Z M829 141 Q971 141 1048.5 206.5 Q1126 272 1126 391 Q1126 510 1049 572.5 Q972 635 829 635 L590 635 L590 141 L829 141 Z " />
<glyph glyph-name="uni042B" unicode="&#x42b;" horiz-adv-x="1627" d="M212 1413 L370 1413 L370 776 L608 776 Q745 776 847 731 Q949 686 1004.5 599.5 Q1060 513 1060 391 Q1060 270 1004.5 181.5 Q949 93 847 46.5 Q745 0 608 0 L212 0 L212 1413 Z M1258 0 L1258 1413 L1415 1413 L1415 0 L1258 0 Z M608 141 Q750 141 827.5 206.5 Q905 272 905 391 Q905 510 828 572.5 Q751 635 608 635 L370 635 L370 141 L608 141 Z " />
<glyph glyph-name="uni0409" unicode="&#x409;" horiz-adv-x="2019" d="M224 -20 Q182 -20 136 -9 Q90 2 55 23 L118 168 Q154 155 176.5 149.5 Q199 144 224 144 Q288 144 326.5 261.5 Q365 379 380 546.5 Q395 714 395 881 L395 1413 L1240 1413 L1240 776 L1479 776 Q1616 776 1717.5 731 Q1819 686 1874.5 599.5 Q1930 513 1930 391 Q1930 270 1874.5 181.5 Q1819 93 1717 46.5 Q1615 0 1479 0 L1083 0 L1083 1278 L552 1278 L552 882 Q552 653 534.5 466.5 Q517 280 444.5 130 Q372 -20 224 -20 Z M1479 141 Q1621 141 1698.5 206.5 Q1776 272 1776 391 Q1776 510 1699 572.5 Q1622 635 1479 635 L1240 635 L1240 141 L1479 141 Z " />
<glyph glyph-name="uni040A" unicode="&#x40a;" horiz-adv-x="2022" d="M212 1413 L369 1413 L369 774 L1084 774 L1084 1413 L1243 1413 L1243 776 L1482 776 Q1619 776 1720.5 731 Q1822 686 1877.5 599.5 Q1933 513 1933 391 Q1933 270 1877.5 181.5 Q1822 93 1720 46.5 Q1618 0 1482 0 L1084 0 L1084 639 L369 639 L369 0 L212 0 L212 1413 Z M1482 141 Q1622 141 1700 207 Q1778 273 1778 391 Q1778 510 1701 572.5 Q1624 635 1482 635 L1243 635 L1243 141 L1482 141 Z " />
<glyph glyph-name="uni0405" unicode="&#x405;" horiz-adv-x="1110" d="M571 -16 Q453 -16 349 27 Q245 70 173.5 155 Q102 240 83 362 L231 406 Q241 314 289 250.5 Q337 187 411 156 Q485 125 572 125 Q703 125 780.5 189.5 Q858 254 858 378 Q858 460 815 516.5 Q772 573 709 609.5 Q646 646 538 693 Q419 745 347.5 787.5 Q276 830 226.5 901 Q177 972 177 1076 Q177 1182 228.5 1263.5 Q280 1345 367.5 1389.5 Q455 1434 560 1434 Q687 1434 787 1379 Q887 1324 952 1214 L833 1134 Q792 1215 719 1256 Q646 1297 558 1297 Q498 1297 446 1271.5 Q394 1246 362.5 1199 Q331 1152 331 1090 Q331 1023 370 974 Q409 925 467 891.5 Q525 858 625 813 Q750 757 827 710 Q904 663 958 584.5 Q1012 506 1012 390 Q1012 269 954.5 176.5 Q897 84 796.5 34 Q696 -16 571 -16 Z " />
<glyph glyph-name="uni0404" unicode="&#x404;" horiz-adv-x="1420" d="M759 -20 Q551 -20 408 77 Q265 174 195 338.5 Q125 503 125 707 Q125 911 195 1076.5 Q265 1242 407 1339 Q549 1436 757 1436 Q955 1436 1103 1340 Q1251 1244 1332 1060 L1186 1000 Q1143 1149 1028.5 1219 Q914 1289 755 1289 Q605 1289 502 1220 Q399 1151 345.5 1034.5 Q292 918 283 771 L914 771 L914 654 L283 654 Q292 502 346 383 Q400 264 503.5 195 Q607 126 759 126 Q913 126 1021.5 196 Q1130 266 1187 418 L1334 358 Q1255 173 1106.5 76.5 Q958 -20 759 -20 Z " />
<glyph glyph-name="uni042D" unicode="&#x42d;" horiz-adv-x="1420" d="M661 -20 Q462 -20 314 76.5 Q166 173 86 358 L233 418 Q291 266 399 196 Q507 126 661 126 Q813 126 916.5 195 Q1020 264 1074 383 Q1128 502 1137 654 L506 654 L506 771 L1135 771 Q1127 917 1074 1034 Q1021 1151 918.5 1220 Q816 1289 665 1289 Q506 1289 391.5 1219 Q277 1149 234 1000 L88 1060 Q169 1244 317 1340 Q465 1436 663 1436 Q871 1436 1013.5 1339 Q1156 1242 1226 1076.5 Q1296 911 1296 707 Q1296 503 1225.5 338.5 Q1155 174 1012 77 Q869 -20 661 -20 Z " />
<glyph glyph-name="uni0406" unicode="&#x406;" horiz-adv-x="582" d="M212 0 L212 1413 L371 1413 L371 0 L212 0 Z " />
<glyph glyph-name="uni0407" unicode="&#x407;" horiz-adv-x="581" d="M45 1598 L45 1765 L201 1765 L201 1598 L45 1598 Z M376 1598 L376 1765 L532 1765 L532 1598 L376 1598 Z M212 0 L212 1413 L369 1413 L369 0 L212 0 Z " />
<glyph glyph-name="uni0408" unicode="&#x408;" horiz-adv-x="1119" d="M500 -20 Q374 -20 280 35.5 Q186 91 133 185.5 Q80 280 72 396 L227 418 Q232 338 263 270.5 Q294 203 353.5 161.5 Q413 120 500 120 Q607 120 667 166.5 Q727 213 749.5 293 Q772 373 772 486 L772 1278 L240 1278 L240 1413 L931 1413 L931 497 Q931 252 828.5 116 Q726 -20 500 -20 Z " />
<glyph glyph-name="uni040B" unicode="&#x40b;" horiz-adv-x="1652" d="M538 1284 L60 1284 L60 1413 L1174 1413 L1174 1284 L697 1284 L697 876 Q819 1001 1030 1001 Q1282 1001 1403.5 837.5 Q1525 674 1525 396 L1525 0 L1366 0 L1366 401 Q1366 615 1290 733 Q1214 851 1030 851 Q927 851 837.5 810 Q748 769 697 704 L697 0 L538 0 L538 1284 Z " />
<glyph glyph-name="uni042E" unicode="&#x42e;" horiz-adv-x="1892" d="M1131 -20 Q935 -20 797 66.5 Q659 153 585 302 Q511 451 500 639 L369 639 L369 0 L212 0 L212 1413 L369 1413 L369 774 L500 774 Q511 961 585 1110.5 Q659 1260 797 1347 Q935 1434 1131 1434 Q1341 1434 1484 1337 Q1627 1240 1697 1075.5 Q1767 911 1767 707 Q1767 503 1697 338.5 Q1627 174 1484 77 Q1341 -20 1131 -20 Z M1131 126 Q1293 126 1401 205.5 Q1509 285 1560 416.5 Q1611 548 1611 707 Q1611 866 1560 997.5 Q1509 1129 1401 1208 Q1293 1287 1131 1287 Q969 1287 862 1208 Q755 1129 704.5 997.5 Q654 866 654 707 Q654 547 704.5 415.5 Q755 284 862 205 Q969 126 1131 126 Z " />
<glyph glyph-name="uni042F" unicode="&#x42f;" horiz-adv-x="1220" d="M849 -2 L849 632 L617 632 L264 -2 L78 -2 L461 653 Q371 672 303 722.5 Q235 773 197.5 849 Q160 925 160 1019 Q160 1138 218.5 1227 Q277 1316 378 1363.5 Q479 1411 604 1411 L1008 1411 L1008 -2 L849 -2 Z M847 1271 L602 1271 Q518 1271 453.5 1241.5 Q389 1212 352.5 1155 Q316 1098 316 1019 Q316 909 388 846.5 Q460 784 578 778 L847 778 L847 1271 Z " />
<glyph glyph-name="uni0402" unicode="&#x402;" horiz-adv-x="1631" d="M1140 -17 Q1039 -17 956.5 15.5 Q874 48 819 110 L922 215 Q995 127 1135 127 Q1199 127 1252 168.5 Q1305 210 1335.5 284.5 Q1366 359 1366 455 Q1366 591 1335 677 Q1304 763 1230.5 807 Q1157 851 1030 851 Q927 851 837.5 810 Q748 769 697 704 L697 0 L538 0 L538 1284 L60 1284 L60 1413 L1174 1413 L1174 1284 L697 1284 L697 876 Q764 936 850 968.5 Q936 1001 1030 1001 Q1283 1001 1404 863.5 Q1525 726 1525 458 Q1525 326 1476 217.5 Q1427 109 1339 46 Q1251 -17 1140 -17 Z " />
<glyph glyph-name="uni0462" unicode="&#x462;" horiz-adv-x="1328" d="M390 1101 L68 1101 L68 1236 L390 1236 L390 1413 L549 1413 L549 1236 L897 1236 L897 1101 L549 1101 L549 776 L788 776 Q925 776 1026.5 731 Q1128 686 1183.5 599.5 Q1239 513 1239 391 Q1239 270 1183.5 181.5 Q1128 93 1026 46.5 Q924 0 788 0 L390 0 L390 1101 Z M788 141 Q929 141 1006.5 206.5 Q1084 272 1084 391 Q1084 510 1007 572.5 Q930 635 788 635 L549 635 L549 141 L788 141 Z " />
<glyph glyph-name="uni0464" unicode="&#x464;" horiz-adv-x="1815" d="M1154 -20 Q957 -20 818 66 Q679 152 604.5 301 Q530 450 519 639 L369 639 L369 0 L212 0 L212 1413 L369 1413 L369 774 L519 774 Q530 963 604 1112.5 Q678 1262 816.5 1349 Q955 1436 1152 1436 Q1350 1436 1497.5 1340 Q1645 1244 1724 1060 L1579 1000 Q1536 1149 1422 1219 Q1308 1289 1150 1289 Q999 1289 895.5 1220.5 Q792 1152 738.5 1036 Q685 920 677 774 L1307 774 L1307 639 L678 639 Q687 488 740.5 373 Q794 258 898 192 Q1002 126 1154 126 Q1308 126 1415 195.5 Q1522 265 1579 418 L1726 358 Q1649 174 1500.5 77 Q1352 -20 1154 -20 Z " />
<glyph glyph-name="uni0466" unicode="&#x466;" horiz-adv-x="1304" d="M63 0 L592 1413 L714 1413 L1241 0 L1072 0 L858 605 L730 605 L730 0 L575 0 L575 605 L449 605 L235 0 L63 0 Z M497 739 L810 739 L654 1181 L497 739 Z " />
<glyph glyph-name="uni0468" unicode="&#x468;" horiz-adv-x="1690" d="M212 0 L212 1413 L369 1413 L369 774 L739 774 L978 1413 L1100 1413 L1627 0 L1457 0 L1244 605 L1116 605 L1116 0 L961 0 L961 605 L834 605 L621 0 L449 0 L688 639 L369 639 L369 0 L212 0 Z M883 739 L1196 739 L1040 1181 L883 739 Z " />
<glyph glyph-name="uni046A" unicode="&#x46a;" horiz-adv-x="1560" d="M299 583 Q337 676 417 722 Q497 768 614 768 L243 1278 L243 1413 L1304 1413 L1304 1278 L931 768 Q1174 768 1250 583 L1488 0 L1303 0 L1101 503 Q1082 560 1048 602 Q1014 644 947 644 L852 644 L852 0 L695 0 L695 644 L602 644 Q536 644 501.5 601.5 Q467 559 448 503 L246 0 L64 0 L299 583 Z M773 808 L1119 1278 L428 1278 L773 808 Z " />
<glyph glyph-name="uni046C" unicode="&#x46c;" horiz-adv-x="1917" d="M212 1413 L369 1413 L369 768 L990 768 L616 1278 L616 1413 L1678 1413 L1678 1278 L1305 768 Q1425 768 1497 722.5 Q1569 677 1607 583 L1845 0 L1676 0 L1475 503 Q1460 541 1444.5 569 Q1429 597 1398.5 620.5 Q1368 644 1321 644 L1228 644 L1228 0 L1069 0 L1069 644 L977 644 Q930 644 899 621 Q868 598 853 571 Q838 544 820 503 L620 0 L456 0 L687 572 Q689 577 698 597 Q707 617 719 636 L369 636 L369 0 L212 0 L212 1413 Z M1147 808 L1492 1278 L802 1278 L1147 808 Z " />
<glyph glyph-name="uni0472" unicode="&#x472;" horiz-adv-x="1515" d="M756 -20 Q548 -20 405.5 77 Q263 174 193 339 Q123 504 123 707 Q123 910 193 1075 Q263 1240 405.5 1337 Q548 1434 756 1434 Q966 1434 1109 1337 Q1252 1240 1322 1075.5 Q1392 911 1392 707 Q1392 503 1322 338.5 Q1252 174 1109 77 Q966 -20 756 -20 Z M1232 779 Q1221 923 1166.5 1037.5 Q1112 1152 1009 1219.5 Q906 1287 756 1287 Q607 1287 503.5 1219.5 Q400 1152 345.5 1037 Q291 922 281 779 L1232 779 Z M756 126 Q911 126 1016.5 198.5 Q1122 271 1175 393.5 Q1228 516 1234 667 L279 667 Q285 516 337.5 393.5 Q390 271 495.5 198.5 Q601 126 756 126 Z " />
<glyph glyph-name="uni0478" unicode="&#x478;" horiz-adv-x="2490" d="M756 -20 Q549 -20 406.5 77.5 Q264 175 193.5 340 Q123 505 123 707 Q123 909 193.5 1074 Q264 1239 406.5 1336.5 Q549 1434 756 1434 Q964 1434 1107 1336.5 Q1250 1239 1321 1074 Q1392 909 1392 707 Q1392 505 1321 340 Q1250 175 1107 77.5 Q964 -20 756 -20 Z M756 126 Q920 126 1028.5 205.5 Q1137 285 1187.5 416.5 Q1238 548 1238 707 Q1238 866 1187.5 997 Q1137 1128 1028.5 1207.5 Q920 1287 756 1287 Q594 1287 486.5 1207.5 Q379 1128 328.5 997 Q278 866 278 707 Q278 548 328.5 416.5 Q379 285 486.5 205.5 Q594 126 756 126 Z M1763 -430 L1934 5 L1550 999 L1715 999 L2008 182 L2292 999 L2455 999 L1920 -430 L1763 -430 Z " />
<glyph glyph-name="uni0492" unicode="&#x492;" horiz-adv-x="1153" d="M1093 1278 L453 1278 L453 822 L714 822 L714 691 L453 691 L453 0 L296 0 L296 691 L-11 691 L-11 822 L296 822 L296 1413 L1093 1413 L1093 1278 Z " />
<glyph glyph-name="uni0496" unicode="&#x496;" horiz-adv-x="1954" d="M1955 168 L1955 -238 L1805 -238 L1805 0 L1692 0 L1492 563 Q1472 619 1421 662 Q1370 705 1300 705 L1056 705 L1056 0 L898 0 L898 705 L653 705 Q582 705 533 664.5 Q484 624 463 563 L261 0 L72 0 L315 643 Q328 677 362 717.5 Q396 758 447.5 787 Q499 816 559 816 L149 1413 L348 1413 L731 839 L898 839 L898 1413 L1056 1413 L1056 839 L1223 839 L1604 1413 L1805 1413 L1395 816 Q1454 816 1505.5 787 Q1557 758 1591.5 717.5 Q1626 677 1639 643 L1819 168 L1955 168 Z " />
<glyph glyph-name="uni049A" unicode="&#x49a;" horiz-adv-x="1266" d="M1268 168 L1268 -238 L1118 -238 L1118 0 L1006 0 L804 563 Q795 591 768 624 Q741 657 701 681 Q661 705 614 705 L369 705 L369 0 L212 0 L212 1413 L369 1413 L369 839 L537 839 L918 1413 L1119 1413 L708 816 Q767 816 818.5 787 Q870 758 905 717.5 Q940 677 953 643 L1132 168 L1268 168 Z " />
<glyph glyph-name="uni04A2" unicode="&#x4a2;" horiz-adv-x="1455" d="M1243 168 L1379 168 L1379 -238 L1229 -238 L1229 0 L1084 0 L1084 641 L371 641 L371 0 L212 0 L212 1413 L371 1413 L371 774 L1084 774 L1084 1413 L1243 1413 L1243 168 Z " />
<glyph glyph-name="uni04AE" unicode="&#x4ae;" horiz-adv-x="1316" d="M581 0 L581 553 L52 1413 L238 1413 L657 714 L1079 1413 L1264 1413 L737 553 L737 0 L581 0 Z " />
<glyph glyph-name="uni04B0" unicode="&#x4b0;" horiz-adv-x="1319" d="M737 553 L737 453 L918 453 L918 322 L737 322 L737 0 L581 0 L581 322 L193 322 L193 453 L581 453 L581 553 L52 1413 L238 1413 L657 714 L1079 1413 L1264 1413 L737 553 Z " />
<glyph glyph-name="uni04B2" unicode="&#x4b2;" horiz-adv-x="1260" d="M1078 168 L1215 168 L1215 -238 L1065 -238 L1065 0 L1001 0 L627 578 L261 0 L72 0 L539 707 L74 1413 L263 1413 L629 826 L999 1413 L1186 1413 L723 707 L1078 168 Z " />
<glyph glyph-name="uni04B6" unicode="&#x4b6;" horiz-adv-x="1325" d="M1251 168 L1251 -238 L1101 -238 L1101 0 L955 0 L955 537 Q832 411 621 411 Q370 411 248.5 575 Q127 739 127 1017 L127 1413 L286 1413 L286 1011 Q286 798 362 680 Q438 562 621 562 Q725 562 814 603 Q903 644 955 709 L955 1413 L1114 1413 L1114 168 L1251 168 Z " />
<glyph glyph-name="uni04BA" unicode="&#x4ba;" horiz-adv-x="1325" d="M370 876 Q493 1002 704 1002 Q955 1002 1076.5 838 Q1198 674 1198 396 L1198 0 L1039 0 L1039 402 Q1039 615 963 733 Q887 851 704 851 Q600 851 511 810 Q422 769 370 704 L370 0 L211 0 L211 1413 L370 1413 L370 876 Z " />
<glyph glyph-name="uni04C0" unicode="&#x4c0;" horiz-adv-x="582" d="M212 0 L212 1413 L371 1413 L371 0 L212 0 Z " />
<glyph glyph-name="uni04D8" unicode="&#x4d8;" horiz-adv-x="1515" d="M756 -20 Q548 -20 405.5 77 Q263 174 193 339 Q123 504 123 707 L124 743 Q125 755 125 779 L1232 779 Q1221 923 1166.5 1037.5 Q1112 1152 1009 1219.5 Q906 1287 756 1287 Q623 1287 526.5 1232.5 Q430 1178 369 1082 L236 1160 Q316 1289 446.5 1361.5 Q577 1434 756 1434 Q966 1434 1109 1337 Q1252 1240 1322 1075.5 Q1392 911 1392 707 Q1392 503 1322 338.5 Q1252 174 1109 77 Q966 -20 756 -20 Z M756 126 Q911 126 1016.5 198.5 Q1122 271 1175 393.5 Q1228 516 1234 667 L279 667 Q285 516 337.5 393.5 Q390 271 495.5 198.5 Q601 126 756 126 Z " />
<glyph glyph-name="uni04E2" unicode="&#x4e2;" horiz-adv-x="1418" d="M1206 0 L1048 0 L1048 1247 L444 0 L212 0 L212 1413 L369 1413 L369 168 L977 1413 L1206 1413 L1206 0 Z M442 1597 L442 1722 L983 1722 L983 1597 L442 1597 Z " />
<glyph glyph-name="uni04E8" unicode="&#x4e8;" horiz-adv-x="1515" d="M756 -20 Q548 -20 405.5 77 Q263 174 193 339 Q123 504 123 707 Q123 910 193 1075 Q263 1240 405.5 1337 Q548 1434 756 1434 Q966 1434 1109 1337 Q1252 1240 1322 1075.5 Q1392 911 1392 707 Q1392 503 1322 338.5 Q1252 174 1109 77 Q966 -20 756 -20 Z M1232 779 Q1221 923 1166.5 1037.5 Q1112 1152 1009 1219.5 Q906 1287 756 1287 Q607 1287 503.5 1219.5 Q400 1152 345.5 1037 Q291 922 281 779 L1232 779 Z M756 126 Q911 126 1016.5 198.5 Q1122 271 1175 393.5 Q1228 516 1234 667 L279 667 Q285 516 337.5 393.5 Q390 271 495.5 198.5 Q601 126 756 126 Z " />
<glyph glyph-name="uni04EE" unicode="&#x4ee;" horiz-adv-x="1115" d="M262 0 L459 457 L63 1413 L236 1413 L542 624 L875 1413 L1052 1413 L431 0 L262 0 Z M289 1597 L289 1722 L830 1722 L830 1597 L289 1597 Z " />
<glyph glyph-name="uni0430" unicode="&#x430;" horiz-adv-x="1025" d="M401 -20 Q307 -20 233.5 15.5 Q160 51 118.5 118.5 Q77 186 77 278 Q77 426 189 498.5 Q301 571 517 571 L745 571 Q745 890 500 890 Q403 890 335 846.5 Q267 803 223 739 L114 824 Q256 1020 491 1020 Q616 1020 704 969.5 Q792 919 837 827 Q882 735 882 613 L882 0 L755 0 L752 193 Q700 85 607 32.5 Q514 -20 401 -20 Z M418 106 Q515 106 590 158.5 Q665 211 705 293 Q745 375 745 458 L531 458 Q379 458 305 415 Q231 372 231 274 Q231 189 282.5 147.5 Q334 106 418 106 Z " />
<glyph glyph-name="uni0431" unicode="&#x431;" horiz-adv-x="1126" d="M614 959 Q746 959 842.5 894.5 Q939 830 989.5 719 Q1040 608 1040 473 Q1040 337 981 224.5 Q922 112 817 46 Q712 -20 579 -20 Q446 -20 344 45 Q242 110 186 222.5 Q130 335 130 475 L130 810 Q130 985 193 1089 Q256 1193 349 1246 Q452 1305 569 1349.5 Q686 1394 817 1434 L817 1289 L792 1280 Q628 1222 549 1190.5 Q470 1159 419 1126 Q364 1091 331 1049.5 Q298 1008 282.5 948.5 Q267 889 267 802 L267 781 Q320 857 411.5 908 Q503 959 614 959 Z M579 104 Q681 104 747.5 153.5 Q814 203 845 285.5 Q876 368 876 470 Q876 570 845.5 652 Q815 734 748.5 783.5 Q682 833 579 833 Q478 833 411.5 782.5 Q345 732 314 650 Q283 568 283 470 Q283 368 313.5 285.5 Q344 203 410.5 153.5 Q477 104 579 104 Z " />
<glyph glyph-name="uni0432" unicode="&#x432;" horiz-adv-x="1146" d="M591 -20 Q439 -20 340 29.5 Q241 79 190.5 188.5 Q140 298 140 477 L140 980 Q140 1197 248.5 1315.5 Q357 1434 572 1434 Q756 1434 866 1346 Q976 1258 976 1085 Q976 1040 954 984.5 Q932 929 886.5 881 Q841 833 777 811 Q855 801 912.5 746.5 Q970 692 999.5 611.5 Q1029 531 1029 444 Q1029 301 974.5 196 Q920 91 820.5 35.5 Q721 -20 591 -20 Z M580 112 Q734 112 800.5 197.5 Q867 283 867 444 Q867 543 830.5 609 Q794 675 733.5 706.5 Q673 738 599 738 Q539 738 490 727 Q441 716 399 682 L399 812 Q444 839 512.5 851 Q581 863 643 865 Q700 866 738.5 900 Q777 934 795.5 983.5 Q814 1033 814 1082 Q814 1191 753.5 1244 Q693 1297 572 1297 Q467 1297 405.5 1263 Q344 1229 317.5 1161 Q291 1093 291 987 L291 478 Q291 334 321 255 Q351 176 413 144 Q475 112 580 112 Z " />
<glyph glyph-name="uni0433" unicode="&#x433;" horiz-adv-x="868" d="M423 -20 Q328 -20 249.5 10 Q171 40 124 101.5 Q77 163 77 254 Q77 352 121.5 413 Q166 474 228 506 Q290 538 391 573 Q467 599 510.5 619 Q554 639 583 671.5 Q612 704 612 753 Q612 879 449 879 Q371 879 318.5 846 Q266 813 234 751 L117 818 Q165 905 249 959.5 Q333 1014 449 1014 Q532 1014 603.5 982.5 Q675 951 718 891 Q761 831 761 750 Q761 655 718 596 Q675 537 614.5 507 Q554 477 456 444 Q377 418 332 397 Q287 376 256.5 341 Q226 306 226 252 Q226 173 279.5 142.5 Q333 112 421 112 Q477 112 527.5 136.5 Q578 161 614.5 202.5 Q651 244 668 294 L792 226 Q771 159 718.5 102.5 Q666 46 589.5 13 Q513 -20 423 -20 Z " />
<glyph glyph-name="uni0453" unicode="&#x453;" horiz-adv-x="763" d="M326 1124 L538 1413 L710 1413 L444 1124 L326 1124 Z M165 0 L165 999 L736 999 L736 881 L315 881 L315 0 L165 0 Z " />
<glyph glyph-name="uni0491" unicode="&#x491;" horiz-adv-x="766" d="M165 0 L165 999 L589 999 L589 1307 L736 1307 L736 881 L315 881 L315 0 L165 0 Z " />
<glyph glyph-name="uni0434" unicode="&#x434;" horiz-adv-x="1117" d="M947 0 Q947 -133 898 -230.5 Q849 -328 754.5 -380.5 Q660 -433 526 -433 Q396 -433 295 -383 Q194 -333 132 -236 L248 -150 Q295 -227 366 -265.5 Q437 -304 525 -304 Q657 -304 727.5 -221.5 Q798 -139 798 0 L798 140 Q750 71 671.5 35.5 Q593 0 498 0 Q365 0 272.5 66.5 Q180 133 133 248 Q86 363 86 508 Q86 653 133 769.5 Q180 886 271.5 953 Q363 1020 491 1020 Q590 1020 669 979 Q748 938 798 863 L798 999 L949 999 L947 0 Z M526 132 Q623 132 687 183 Q751 234 781 319.5 Q811 405 811 510 Q811 615 781 700 Q751 785 687 836 Q623 887 526 887 Q429 887 364.5 836 Q300 785 269 700 Q238 615 238 510 Q238 405 269 319.5 Q300 234 364.5 183 Q429 132 526 132 Z " />
<glyph glyph-name="uni0435" unicode="&#x435;" horiz-adv-x="1038" d="M541 -14 Q395 -14 293.5 54.5 Q192 123 141.5 238.5 Q91 354 91 494 Q91 632 140.5 750.5 Q190 869 288 941 Q386 1013 525 1013 Q678 1013 772.5 942.5 Q867 872 908 762 Q949 652 949 526 Q949 494 944 449 L248 449 Q247 358 280.5 282.5 Q314 207 380 162 Q446 117 540 117 Q631 117 698 140.5 Q765 164 821 224 L923 142 Q842 60 751.5 23 Q661 -14 541 -14 Z M806 571 Q803 707 735 798.5 Q667 890 525 890 Q437 890 376 847 Q315 804 283.5 732 Q252 660 248 571 L806 571 Z " />
<glyph glyph-name="uni0450" unicode="&#x450;" horiz-adv-x="1038" d="M541 -14 Q395 -14 293.5 54.5 Q192 123 141.5 238.5 Q91 354 91 494 Q91 632 140.5 750.5 Q190 869 288 941 Q386 1013 525 1013 Q678 1013 772.5 942.5 Q867 872 908 762 Q949 652 949 526 Q949 494 944 449 L248 449 Q247 358 280.5 282.5 Q314 207 380 162 Q446 117 540 117 Q631 117 698 140.5 Q765 164 821 224 L923 142 Q842 60 751.5 23 Q661 -14 541 -14 Z M806 571 Q803 707 735 798.5 Q667 890 525 890 Q437 890 376 847 Q315 804 283.5 732 Q252 660 248 571 L806 571 Z M440 1122 L182 1413 L374 1413 L592 1122 L440 1122 Z " />
<glyph glyph-name="uni0451" unicode="&#x451;" horiz-adv-x="1038" d="M541 -14 Q395 -14 293.5 54.5 Q192 123 141.5 238.5 Q91 354 91 494 Q91 632 140.5 750.5 Q190 869 288 941 Q386 1013 525 1013 Q678 1013 772.5 942.5 Q867 872 908 762 Q949 652 949 526 Q949 494 944 449 L248 449 Q247 358 280.5 282.5 Q314 207 380 162 Q446 117 540 117 Q631 117 698 140.5 Q765 164 821 224 L923 142 Q842 60 751.5 23 Q661 -14 541 -14 Z M806 571 Q803 707 735 798.5 Q667 890 525 890 Q437 890 376 847 Q315 804 283.5 732 Q252 660 248 571 L806 571 Z M257 1221 L257 1413 L426 1413 L426 1221 L257 1221 Z M594 1221 L594 1413 L762 1413 L762 1221 L594 1221 Z " />
<glyph glyph-name="uni0436" unicode="&#x436;" horiz-adv-x="1432" d="M209 435 Q234 499 274.5 547.5 Q315 596 364 596 L109 999 L292 999 L512 628 L641 628 L641 1413 L792 1413 L792 628 L920 628 L1142 999 L1324 999 L1069 596 Q1119 596 1158.5 547.5 Q1198 499 1222 435 L1385 0 L1213 0 L1090 359 Q1065 434 1027.5 468 Q990 502 928 502 L792 502 L792 0 L641 0 L641 502 L503 502 Q442 502 405 468 Q368 434 343 359 L220 0 L46 0 L209 435 Z " />
<glyph glyph-name="uni0437" unicode="&#x437;" horiz-adv-x="924" d="M403 -457 Q312 -457 243.5 -435 Q175 -413 121 -373.5 Q67 -334 11 -271 L124 -182 Q211 -325 390 -325 Q534 -325 607 -230.5 Q680 -136 680 22 Q680 120 645 186.5 Q610 253 550.5 284.5 Q491 316 419 316 L217 316 L217 448 L463 448 Q513 458 551.5 491 Q590 524 611 569.5 Q632 615 632 660 Q632 781 571.5 834.5 Q511 888 387 888 Q306 888 242.5 845.5 Q179 803 140 731 L23 794 Q76 898 168.5 955 Q261 1012 387 1012 Q570 1012 676 925 Q782 838 782 663 Q782 617 762.5 562 Q743 507 700 459.5 Q657 412 590 390 Q670 380 725.5 325.5 Q781 271 809 190.5 Q837 110 837 22 Q837 -122 782.5 -230.5 Q728 -339 630 -398 Q532 -457 403 -457 Z " />
<glyph glyph-name="uni0438" unicode="&#x438;" horiz-adv-x="1117" d="M486 -22 Q311 -22 227 98.5 Q143 219 143 419 L143 999 L292 999 L292 409 Q292 279 339 191.5 Q386 104 502 104 Q581 104 649.5 149 Q718 194 759 272 Q800 350 800 446 L800 999 L948 999 L948 0 L800 0 L800 169 Q779 123 734 79 Q689 35 624.5 6.5 Q560 -22 486 -22 Z " />
<glyph glyph-name="uni0439" unicode="&#x439;" horiz-adv-x="1142" d="M559 1143 Q474 1143 405 1174.5 Q336 1206 296 1267 Q256 1328 256 1413 L379 1413 Q379 1366 403.5 1328.5 Q428 1291 469 1269.5 Q510 1248 559 1248 Q607 1248 648 1269 Q689 1290 713.5 1328 Q738 1366 738 1413 L861 1413 Q861 1329 821.5 1268 Q782 1207 713 1175 Q644 1143 559 1143 Z M513 -23 Q393 -23 316 34.5 Q239 92 203.5 188.5 Q168 285 168 405 L168 999 L318 999 L318 403 Q318 277 364.5 191.5 Q411 106 525 106 Q605 106 674.5 151.5 Q744 197 785 271.5 Q826 346 826 427 L826 999 L974 999 L974 0 L826 0 L826 168 Q804 124 758.5 80 Q713 36 649 6.5 Q585 -23 513 -23 Z " />
<glyph glyph-name="uni045D" unicode="&#x45d;" horiz-adv-x="1142" d="M510 1127 L268 1413 L440 1413 L652 1127 L510 1127 Z M513 -23 Q393 -23 316 34.5 Q239 92 203.5 188.5 Q168 285 168 405 L168 999 L318 999 L318 403 Q318 277 364.5 191.5 Q411 106 525 106 Q605 106 674.5 151.5 Q744 197 785 271.5 Q826 346 826 427 L826 999 L974 999 L974 0 L826 0 L826 168 Q804 124 758.5 80 Q713 36 649 6.5 Q585 -23 513 -23 Z " />
<glyph glyph-name="uni043A" unicode="&#x43a;" horiz-adv-x="963" d="M168 1413 L319 1413 L319 628 L446 628 L668 999 L851 999 L596 596 Q645 596 685 548 Q725 500 751 435 L914 0 L740 0 L617 359 Q592 434 554.5 468 Q517 502 455 502 L319 502 L319 0 L168 0 L168 1413 Z " />
<glyph glyph-name="uni045C" unicode="&#x45c;" horiz-adv-x="960" d="M422 1124 L634 1413 L808 1413 L540 1124 L422 1124 Z M168 999 L319 999 L319 628 L446 628 L668 999 L851 999 L596 596 Q645 596 685 548 Q725 500 751 435 L914 0 L740 0 L617 359 Q592 434 554.5 468 Q517 502 455 502 L319 502 L319 0 L168 0 L168 999 Z " />
<glyph glyph-name="uni043B" unicode="&#x43b;" horiz-adv-x="945" d="M34 0 L406 999 L539 999 L911 0 L748 0 L472 805 L195 0 L34 0 Z " />
<glyph glyph-name="uni043C" unicode="&#x43c;" horiz-adv-x="1393" d="M168 0 L168 999 L377 999 L698 184 L1016 998 L1225 998 L1225 0 L1077 0 L1077 809 L755 0 L639 0 L316 807 L316 0 L168 0 Z " />
<glyph glyph-name="uni043D" unicode="&#x43d;" horiz-adv-x="1142" d="M168 0 L168 999 L319 999 L319 609 L825 609 L825 999 L974 999 L974 0 L825 0 L825 491 L319 491 L319 0 L168 0 Z " />
<glyph glyph-name="uni043E" unicode="&#x43e;" horiz-adv-x="1119" d="M557 -20 Q420 -20 312.5 50.5 Q205 121 145.5 240.5 Q86 360 86 502 Q86 644 145.5 762.5 Q205 881 312 950.5 Q419 1020 557 1020 Q694 1020 802.5 950.5 Q911 881 972 762 Q1033 643 1033 502 Q1033 360 972 240.5 Q911 121 802.5 50.5 Q694 -20 557 -20 Z M558 104 Q665 104 738 160.5 Q811 217 846.5 307.5 Q882 398 882 502 Q882 607 846.5 696.5 Q811 786 738.5 841 Q666 896 560 896 Q454 896 381 841 Q308 786 272 696 Q236 606 236 502 Q236 397 272 306 Q308 215 380.5 159.5 Q453 104 558 104 Z " />
<glyph glyph-name="uni043F" unicode="&#x43f;" horiz-adv-x="1120" d="M168 999 L318 999 L318 840 Q366 920 450.5 968 Q535 1016 630 1016 Q750 1016 827 961 Q904 906 939.5 814.5 Q975 723 975 610 L975 0 L826 0 L826 591 Q826 713 778 793.5 Q730 874 615 874 Q535 874 467 831.5 Q399 789 358.5 718 Q318 647 318 566 L318 0 L168 0 L168 999 Z " />
<glyph glyph-name="uni0440" unicode="&#x440;" horiz-adv-x="1118" d="M168 999 L318 999 L318 861 Q368 936 445.5 978 Q523 1020 629 1020 Q754 1020 845.5 951.5 Q937 883 984.5 764.5 Q1032 646 1032 500 Q1032 353 984.5 235 Q937 117 845.5 48.5 Q754 -20 629 -20 Q425 -20 318 138 L318 -438 L168 -438 L168 999 Z M591 111 Q687 111 752 163.5 Q817 216 848 304 Q879 392 879 498 Q879 605 848 693.5 Q817 782 752 835 Q687 888 591 888 Q494 888 430.5 835 Q367 782 337 694 Q307 606 307 498 Q307 391 337 303.5 Q367 216 430.5 163.5 Q494 111 591 111 Z " />
<glyph glyph-name="uni0441" unicode="&#x441;" horiz-adv-x="974" d="M526 -20 Q388 -20 289.5 51 Q191 122 141.5 240.5 Q92 359 92 498 Q92 636 141.5 755.5 Q191 875 288.5 947.5 Q386 1020 524 1020 Q658 1020 759 949.5 Q860 879 913 754 L772 694 Q750 785 682 839.5 Q614 894 524 894 Q427 894 364 835.5 Q301 777 273 686.5 Q245 596 245 498 Q245 398 272.5 309 Q300 220 363 163 Q426 106 524 106 Q615 106 682 159 Q749 212 772 301 L902 245 Q857 120 759 50 Q661 -20 526 -20 Z " />
<glyph glyph-name="uni0442" unicode="&#x442;" horiz-adv-x="1699" d="M168 999 L319 999 L319 828 Q352 914 425 966 Q498 1018 590 1018 Q698 1018 778.5 966 Q859 914 898 815 Q944 914 1022.5 965 Q1101 1016 1206 1016 Q1326 1016 1404 961 Q1482 906 1518 814.5 Q1554 723 1554 610 L1554 0 L1403 0 L1403 591 Q1403 716 1354.5 803 Q1306 890 1190 890 Q1112 890 1054.5 845 Q997 800 966.5 726.5 Q936 653 936 569 L936 0 L784 0 L784 595 Q784 720 736.5 805 Q689 890 574 890 Q495 890 437.5 845 Q380 800 349.5 726.5 Q319 653 319 569 L319 0 L168 0 L168 999 Z " />
<glyph glyph-name="uni0443" unicode="&#x443;" horiz-adv-x="975" d="M251 -430 L418 7 L35 999 L200 999 L489 182 L775 999 L940 999 L405 -430 L251 -430 Z " />
<glyph glyph-name="uni045E" unicode="&#x45e;" horiz-adv-x="975" d="M482 1143 Q397 1143 328 1174.5 Q259 1206 219 1267 Q179 1328 179 1413 L302 1413 Q302 1366 326.5 1328.5 Q351 1291 392 1269.5 Q433 1248 482 1248 Q530 1248 571 1269 Q612 1290 636.5 1328 Q661 1366 661 1413 L784 1413 Q784 1329 744.5 1268 Q705 1207 636 1175 Q567 1143 482 1143 Z M251 -430 L418 7 L35 999 L200 999 L489 182 L775 999 L940 999 L405 -430 L251 -430 Z " />
<glyph glyph-name="uni0444" unicode="&#x444;" horiz-adv-x="1397" d="M623 -15 Q591 -20 559 -20 Q422 -20 314 49 Q206 118 146 236 Q86 354 86 496 Q86 637 146 755.5 Q206 874 314 943 Q422 1012 559 1012 Q604 1010 623 1006 L623 1413 L774 1413 L774 1006 Q802 1012 837 1012 Q974 1012 1082.5 943 Q1191 874 1251.5 755.5 Q1312 637 1312 496 Q1312 354 1251.5 236 Q1191 118 1082.5 49 Q974 -20 837 -20 Q806 -20 774 -15 L774 -430 L623 -430 L623 -15 Z M559 112 Q604 112 623 116 L623 874 Q591 879 559 879 Q453 879 384.5 827 Q316 775 284.5 688.5 Q253 602 253 496 Q253 389 284.5 302.5 Q316 216 384.5 164 Q453 112 559 112 Z M837 112 Q943 112 1012 164 Q1081 216 1112.5 302.5 Q1144 389 1144 496 Q1144 602 1112.5 688.5 Q1081 775 1012 827 Q943 879 837 879 Q806 879 774 874 L774 116 Q793 112 837 112 Z " />
<glyph glyph-name="uni0445" unicode="&#x445;" horiz-adv-x="922" d="M46 0 L382 504 L46 999 L229 999 L462 627 L696 999 L876 999 L543 504 L876 0 L696 0 L462 378 L229 0 L46 0 Z " />
<glyph glyph-name="uni0447" unicode="&#x447;" horiz-adv-x="1077" d="M757 433 Q735 389 689.5 345 Q644 301 580 272 Q516 243 444 243 Q324 243 246.5 300.5 Q169 358 133.5 454.5 Q98 551 98 671 L98 999 L249 999 L249 668 Q249 542 295.5 457 Q342 372 456 372 Q536 372 605.5 417.5 Q675 463 716 537 Q757 611 757 693 L757 999 L908 999 L908 0 L757 0 L757 433 Z " />
<glyph glyph-name="uni0446" unicode="&#x446;" horiz-adv-x="1147" d="M949 -23 Q912 -23 878.5 1.5 Q845 26 824 69.5 Q803 113 802 168 Q780 124 734.5 79.5 Q689 35 625 6 Q561 -23 489 -23 Q369 -23 291.5 34.5 Q214 92 178.5 188.5 Q143 285 143 405 L143 999 L294 999 L294 403 Q294 277 340.5 191.5 Q387 106 501 106 Q581 106 650.5 151.5 Q720 197 761 271.5 Q802 346 802 427 L802 999 L953 999 L953 213 Q953 139 994.5 100.5 Q1036 62 1098 62 L1064 -307 L949 -307 L949 -23 Z " />
<glyph glyph-name="uni0448" unicode="&#x448;" horiz-adv-x="1722" d="M1133 -18 Q1024 -18 943.5 33.5 Q863 85 825 184 Q777 85 699 34.5 Q621 -16 516 -16 Q395 -16 317.5 38.5 Q240 93 204 185 Q168 277 168 391 L168 999 L319 999 L319 409 Q319 284 367 196.5 Q415 109 530 109 Q609 109 667.5 154 Q726 199 756.5 273 Q787 347 787 431 L787 999 L938 999 L938 405 Q938 279 985 194 Q1032 109 1147 109 Q1226 109 1284 154 Q1342 199 1372.5 273 Q1403 347 1403 431 L1403 999 L1554 999 L1554 0 L1403 0 L1403 172 Q1369 87 1296.5 34.5 Q1224 -18 1133 -18 Z " />
<glyph glyph-name="uni0449" unicode="&#x449;" horiz-adv-x="1724" d="M1525 -23 Q1489 -23 1455.5 3 Q1422 29 1401 74 Q1380 119 1379 172 Q1344 87 1271.5 34.5 Q1199 -18 1108 -18 Q1000 -18 919.5 33.5 Q839 85 800 184 Q753 85 675 34.5 Q597 -16 492 -16 Q371 -16 293.5 38.5 Q216 93 180 185 Q144 277 144 391 L144 999 L295 999 L295 409 Q295 284 343 196.5 Q391 109 506 109 Q585 109 643.5 154 Q702 199 732.5 273 Q763 347 763 431 L763 999 L914 999 L914 405 Q914 279 961 194 Q1008 109 1123 109 Q1202 109 1260 154 Q1318 199 1348.5 273 Q1379 347 1379 431 L1379 999 L1530 999 L1530 213 Q1530 139 1571.5 100.5 Q1613 62 1675 62 L1640 -307 L1525 -307 L1525 -23 Z " />
<glyph glyph-name="uni045F" unicode="&#x45f;" horiz-adv-x="1142" d="M496 -307 L496 0 L168 0 L168 999 L318 999 L318 120 L826 120 L826 999 L974 999 L974 0 L644 0 L644 -307 L496 -307 Z " />
<glyph glyph-name="uni044C" unicode="&#x44c;" horiz-adv-x="1107" d="M577 -20 Q464 -20 370.5 24.5 Q277 69 221 158.5 Q165 248 165 376 L165 999 L314 999 L314 669 Q354 729 421 769 Q488 809 582 809 Q698 809 795.5 762.5 Q893 716 951.5 622.5 Q1010 529 1010 395 Q1010 260 950.5 166.5 Q891 73 792.5 26.5 Q694 -20 577 -20 Z M577 112 Q657 112 717.5 148.5 Q778 185 810.5 249.5 Q843 314 843 395 Q843 474 810 538.5 Q777 603 717 640 Q657 677 577 677 Q503 677 445.5 645 Q388 613 354 556.5 Q320 500 314 429 L314 362 Q320 289 353.5 232.5 Q387 176 444.5 144 Q502 112 577 112 Z " />
<glyph glyph-name="uni044A" unicode="&#x44a;" horiz-adv-x="1160" d="M632 -20 Q519 -20 428 24.5 Q337 69 283 158 Q229 247 229 376 L229 876 L29 876 L29 999 L378 999 L378 669 Q402 705 447 737 Q492 769 551 789 Q610 809 675 809 Q791 809 881 763 Q971 717 1022.5 624 Q1074 531 1074 395 Q1074 259 1016 165.5 Q958 72 858 26 Q758 -20 632 -20 Z M650 112 Q730 112 788 148.5 Q846 185 876.5 249 Q907 313 907 395 Q907 474 874.5 538.5 Q842 603 782 640 Q722 677 642 677 Q567 677 506.5 645 Q446 613 412 556.5 Q378 500 378 429 L378 362 Q378 291 411 234 Q444 177 505.5 144.5 Q567 112 650 112 Z " />
<glyph glyph-name="uni044B" unicode="&#x44b;" horiz-adv-x="1415" d="M595 -20 Q482 -20 388.5 24.5 Q295 69 239.5 158.5 Q184 248 184 376 L184 999 L332 999 L332 669 Q371 729 439 769 Q507 809 600 809 Q717 809 814.5 762.5 Q912 716 970.5 622.5 Q1029 529 1029 395 Q1029 260 969.5 166.5 Q910 73 811 26.5 Q712 -20 595 -20 Z M1182 0 L1182 999 L1329 999 L1329 0 L1182 0 Z M595 112 Q675 112 735.5 148.5 Q796 185 828.5 249.5 Q861 314 861 395 Q861 474 828 538.5 Q795 603 735 640 Q675 677 595 677 Q521 677 463.5 645 Q406 613 372 556.5 Q338 500 332 429 L332 362 Q338 289 372 232.5 Q406 176 463.5 144 Q521 112 595 112 Z " />
<glyph glyph-name="uni0459" unicode="&#x459;" horiz-adv-x="1620" d="M208 -22 Q155 -22 63 22 L111 131 Q138 116 157 107.5 Q176 99 199 99 Q242 99 276.5 208 Q311 317 311 619 L311 999 L945 999 L945 665 L1131 665 Q1255 665 1340 637 Q1425 609 1474 534.5 Q1523 460 1523 326 Q1523 225 1473 151 Q1423 77 1334 38.5 Q1245 0 1132 0 L795 0 L795 881 L459 881 L459 618 Q459 248 385.5 113 Q312 -22 208 -22 Z M1131 122 Q1355 122 1355 326 Q1355 447 1295 495 Q1235 543 1131 543 L945 543 L945 122 L1131 122 Z " />
<glyph glyph-name="uni045A" unicode="&#x45a;" horiz-adv-x="1651" d="M168 999 L318 999 L318 609 L826 609 L826 999 L974 999 L974 609 L1162 609 Q1289 609 1373 586 Q1457 563 1505.5 496 Q1554 429 1554 304 Q1554 154 1447 77 Q1340 0 1163 0 L826 0 L826 491 L318 491 L318 0 L168 0 L168 999 Z M1162 122 Q1232 122 1280 135.5 Q1328 149 1357 189 Q1386 229 1386 304 Q1386 387 1357.5 426.5 Q1329 466 1283.5 476.5 Q1238 487 1162 487 L974 487 L974 122 L1162 122 Z " />
<glyph glyph-name="uni0455" unicode="&#x455;" horiz-adv-x="867" d="M442 -20 Q352 -20 275.5 13 Q199 46 146.5 102.5 Q94 159 72 226 L197 294 Q213 244 249 202.5 Q285 161 336 136.5 Q387 112 444 112 Q529 112 586 152 Q643 192 643 278 Q643 332 612.5 365 Q582 398 536 415 Q490 432 411 452 Q312 476 251 501.5 Q190 527 147 582 Q104 637 104 732 Q104 813 147 877.5 Q190 942 261.5 978 Q333 1014 415 1014 Q531 1014 615.5 959.5 Q700 905 748 818 L631 751 Q598 813 546 846 Q494 879 416 879 Q341 879 291 841.5 Q241 804 241 735 Q241 692 268.5 665.5 Q296 639 338 624 Q380 609 454 592 Q560 566 626 539 Q692 512 740 451 Q788 390 788 284 Q788 193 740 123.5 Q692 54 613 17 Q534 -20 442 -20 Z " />
<glyph glyph-name="uni0454" unicode="&#x454;" horiz-adv-x="968" d="M520 -20 Q380 -20 282 50.5 Q184 121 135 239 Q86 357 86 498 Q86 638 134.5 756 Q183 874 280.5 945 Q378 1016 518 1016 Q652 1016 752.5 947 Q853 878 907 754 L766 694 Q742 783 675 835.5 Q608 888 518 888 Q428 888 368 839 Q308 790 277.5 712.5 Q247 635 240 544 L643 544 L643 433 L240 433 Q254 295 322.5 201 Q391 107 518 107 Q608 107 675 160.5 Q742 214 766 301 L895 245 Q851 118 753 49 Q655 -20 520 -20 Z " />
<glyph glyph-name="uni044D" unicode="&#x44d;" horiz-adv-x="968" d="M448 -20 Q312 -20 214 49 Q116 118 72 245 L202 301 Q225 214 292.5 160.5 Q360 107 450 107 Q577 107 645 201 Q713 295 727 433 L325 433 L325 544 L728 544 Q722 634 691 712 Q660 790 599.5 839 Q539 888 450 888 Q360 888 292.5 835.5 Q225 783 202 694 L61 754 Q114 878 215 947 Q316 1016 450 1016 Q590 1016 687.5 945 Q785 874 833.5 756 Q882 638 882 498 Q882 357 833 239 Q784 121 686 50.5 Q588 -20 448 -20 Z " />
<glyph glyph-name="uni0456" unicode="&#x456;" horiz-adv-x="494" d="M159 1222 L159 1413 L335 1413 L335 1222 L159 1222 Z M170 0 L170 999 L320 999 L320 0 L170 0 Z " />
<glyph glyph-name="uni0457" unicode="&#x457;" horiz-adv-x="483" d="M-5 1185 L-5 1351 L151 1351 L151 1185 L-5 1185 Z M327 1185 L327 1351 L483 1351 L483 1185 L327 1185 Z M159 0 L159 999 L322 999 L322 0 L159 0 Z " />
<glyph glyph-name="uni0458" unicode="&#x458;" horiz-adv-x="492" d="M156 1224 L156 1421 L332 1421 L332 1224 L156 1224 Z M66 -438 Q34 -438 0.5 -431 Q-33 -424 -56.5 -416.5 Q-80 -409 -86 -407 L-54 -295 Q-49 -296 -32 -299.5 Q-15 -303 11 -306.5 Q37 -310 61 -310 Q120 -310 145.5 -272 Q171 -234 171 -175 L171 999 L322 999 L322 -154 Q322 -284 258 -361 Q194 -438 66 -438 Z " />
<glyph glyph-name="uni044E" unicode="&#x44e;" horiz-adv-x="1444" d="M885 -20 Q749 -20 641.5 48 Q534 116 473.5 233 Q413 350 412 491 L319 491 L319 0 L168 0 L168 1413 L319 1413 L319 609 L421 609 Q444 724 508 815.5 Q572 907 669.5 959.5 Q767 1012 885 1012 Q1022 1012 1130 943 Q1238 874 1298 755.5 Q1358 637 1358 496 Q1358 354 1298 236 Q1238 118 1130 49 Q1022 -20 885 -20 Z M885 112 Q991 112 1060 164 Q1129 216 1160.5 302.5 Q1192 389 1192 496 Q1192 602 1160.5 688.5 Q1129 775 1060 827 Q991 879 885 879 Q779 879 710 827 Q641 775 609.5 688.5 Q578 602 578 496 Q578 389 609.5 302.5 Q641 216 710 164 Q779 112 885 112 Z " />
<glyph glyph-name="uni044F" unicode="&#x44f;" horiz-adv-x="983" d="M207 342 Q235 408 273.5 455.5 Q312 503 360 503 Q245 524 183.5 580.5 Q122 637 122 754 Q122 818 154 873.5 Q186 929 258 964 Q330 999 445 999 L815 999 L815 0 L665 0 L665 457 L523 457 Q462 457 424.5 423 Q387 389 361 314 L249 0 L76 0 L207 342 Z M665 585 L665 879 L440 879 Q367 879 328.5 842.5 Q290 806 290 745 Q290 668 337 626.5 Q384 585 494 585 L665 585 Z " />
<glyph glyph-name="uni0452" unicode="&#x452;" horiz-adv-x="1123" d="M612 -456 Q513 -456 436 -416 Q359 -376 277 -295 L372 -198 Q431 -261 482 -293 Q533 -325 598 -325 Q693 -325 743 -280.5 Q793 -236 810 -160.5 Q827 -85 827 30 L827 590 Q827 714 780 794 Q733 874 616 874 Q535 874 466.5 830 Q398 786 358.5 709.5 Q319 633 319 541 L319 0 L170 0 L170 1146 L-13 1146 L-13 1263 L170 1263 L170 1413 L319 1413 L319 1263 L622 1263 L622 1146 L319 1146 L319 837 Q367 918 453.5 966.5 Q540 1015 635 1015 Q753 1015 830 961 Q907 907 942.5 816.5 Q978 726 978 614 L978 37 Q978 -199 889.5 -327.5 Q801 -456 612 -456 Z " />
<glyph glyph-name="uni0463" unicode="&#x463;" horiz-adv-x="995" d="M170 1146 L-27 1146 L-27 1263 L170 1263 L170 1413 L318 1413 L318 1263 L545 1263 L545 1146 L318 1146 L318 665 L505 665 Q630 665 715.5 637 Q801 609 850 534.5 Q899 460 899 326 Q899 225 848.5 151 Q798 77 709 38.5 Q620 0 505 0 L170 0 L170 1146 Z M505 122 Q609 122 669.5 168 Q730 214 730 326 Q730 448 670 495.5 Q610 543 505 543 L318 543 L318 122 L505 122 Z " />
<glyph glyph-name="uni0465" unicode="&#x465;" horiz-adv-x="1339" d="M891 -20 Q753 -20 656 48 Q559 116 509.5 230 Q460 344 457 483 L318 483 L318 0 L168 0 L168 999 L318 999 L318 602 L465 602 Q482 719 534.5 812.5 Q587 906 677 961 Q767 1016 889 1016 Q1023 1016 1124 947 Q1225 878 1279 754 L1137 694 Q1112 783 1045.5 835.5 Q979 888 889 888 Q802 888 739.5 838.5 Q677 789 645 721 Q613 653 612 602 L1014 602 L1014 490 L612 490 Q614 318 685 212.5 Q756 107 889 107 Q978 107 1045 160.5 Q1112 214 1137 301 L1265 245 Q1222 118 1124.5 49 Q1027 -20 891 -20 Z " />
<glyph glyph-name="uni0467" unicode="&#x467;" horiz-adv-x="1008" d="M63 0 L444 999 L566 999 L945 0 L780 0 L664 363 L572 363 L572 0 L436 0 L436 363 L349 363 L212 0 L63 0 Z M388 479 L627 479 L506 813 L388 479 Z " />
<glyph glyph-name="uni0469" unicode="&#x469;" horiz-adv-x="1343" d="M168 0 L168 999 L318 999 L318 512 L591 512 L777 999 L901 999 L1280 0 L1113 0 L999 363 L907 363 L907 0 L770 0 L770 363 L684 363 L547 0 L396 0 L546 393 L318 393 L318 0 L168 0 Z M723 479 L962 479 L841 813 L723 479 Z " />
<glyph glyph-name="uni046B" unicode="&#x46b;" horiz-adv-x="1256" d="M1193 0 L1019 0 L896 359 Q872 432 828.5 460.5 Q785 489 702 489 L702 0 L554 0 L554 489 Q496 489 459.5 477 Q423 465 400 437.5 Q377 410 360 359 L237 0 L63 0 L226 435 Q252 502 305.5 549 Q359 596 451 596 L217 881 L217 999 L1038 999 L1038 881 L807 596 Q898 596 951 549 Q1004 502 1030 435 L1193 0 Z M626 599 L852 881 L403 881 L626 599 Z " />
<glyph glyph-name="uni046D" unicode="&#x46d;" horiz-adv-x="1575" d="M1512 0 L1339 0 L1217 359 Q1195 420 1171.5 450 Q1148 480 1113.5 490.5 Q1079 501 1019 501 L1019 0 L873 0 L873 501 Q813 501 778 489 Q743 477 720.5 447 Q698 417 679 359 L556 0 L382 0 L540 419 Q551 458 579 495 L318 495 L318 0 L168 0 L168 999 L318 999 L318 615 L753 615 L537 881 L537 999 L1357 999 L1357 881 L1137 612 Q1200 612 1242 584.5 Q1284 557 1307 520.5 Q1330 484 1349 435 L1512 0 Z M945 599 L1171 881 L721 881 L945 599 Z " />
<glyph glyph-name="uni0473" unicode="&#x473;" horiz-adv-x="1119" d="M559 -20 Q422 -20 314 49 Q206 118 146 236 Q86 354 86 496 Q86 637 146 755.5 Q206 874 314 943 Q422 1012 559 1012 Q696 1012 804 943 Q912 874 972.5 756 Q1033 638 1033 496 Q1033 354 973 236 Q913 118 804.5 49 Q696 -20 559 -20 Z M861 570 Q846 708 771.5 793.5 Q697 879 559 879 Q421 879 345.5 793.5 Q270 708 255 570 L861 570 Z M559 112 Q706 112 780 208.5 Q854 305 862 458 L253 458 Q261 305 336 208.5 Q411 112 559 112 Z " />
<glyph glyph-name="uni0475" unicode="&#x475;" horiz-adv-x="967" d="M36 999 L199 999 L439 196 L582 595 Q657 802 748.5 899.5 Q840 997 931 999 L931 846 Q895 834 870 818 Q845 802 811 751 Q777 700 738 600 L505 0 L372 0 L36 999 Z " />
<glyph glyph-name="uni0479" unicode="&#x479;" horiz-adv-x="2094" d="M557 -20 Q420 -20 312.5 50.5 Q205 121 145.5 240.5 Q86 360 86 502 Q86 644 145.5 762.5 Q205 881 312 950.5 Q419 1020 557 1020 Q694 1020 802.5 950.5 Q911 881 972 762 Q1033 643 1033 502 Q1033 360 972 240.5 Q911 121 802.5 50.5 Q694 -20 557 -20 Z M558 104 Q665 104 738 160.5 Q811 217 846.5 307.5 Q882 398 882 502 Q882 607 846.5 696.5 Q811 786 738.5 841 Q666 896 560 896 Q454 896 381 841 Q308 786 272 696 Q236 606 236 502 Q236 397 272 306 Q308 215 380.5 159.5 Q453 104 558 104 Z M1367 -430 L1538 5 L1154 999 L1319 999 L1612 182 L1896 999 L2059 999 L1524 -430 L1367 -430 Z " />
<glyph glyph-name="uni0493" unicode="&#x493;" horiz-adv-x="766" d="M168 0 L168 999 L739 999 L739 881 L318 881 L318 0 L168 0 Z " />
<glyph glyph-name="uni0497" unicode="&#x497;" horiz-adv-x="1433" d="M1462 168 L1462 -238 L1312 -238 L1312 0 L1213 0 L1090 359 Q1065 434 1027.5 468 Q990 502 928 502 L792 502 L792 0 L641 0 L641 502 L505 502 Q443 502 405.5 468 Q368 434 343 359 L220 0 L46 0 L209 435 Q234 499 274.5 547.5 Q315 596 364 596 L109 999 L292 999 L514 628 L641 628 L641 999 L792 999 L792 628 L920 628 L1142 999 L1324 999 L1069 596 Q1119 596 1159 547.5 Q1199 499 1224 435 L1324 168 L1462 168 Z " />
<glyph glyph-name="uni049B" unicode="&#x49b;" horiz-adv-x="963" d="M989 168 L989 -238 L839 -238 L839 0 L740 0 L617 359 Q592 434 554.5 468 Q517 502 455 502 L319 502 L319 0 L168 0 L168 1413 L319 1413 L319 628 L446 628 L668 999 L851 999 L596 596 Q645 596 685 548 Q725 500 751 435 L851 168 L989 168 Z " />
<glyph glyph-name="uni04A3" unicode="&#x4a3;" horiz-adv-x="1142" d="M974 168 L1119 168 L1119 -238 L969 -238 L969 0 L825 0 L825 491 L319 491 L319 0 L168 0 L168 999 L319 999 L319 609 L825 609 L825 999 L974 999 L974 168 Z " />
<glyph glyph-name="uni04AF" unicode="&#x4af;" horiz-adv-x="956" d="M403 0 L403 443 L52 999 L233 999 L478 600 L724 999 L904 999 L555 443 L555 0 L403 0 Z " />
<glyph glyph-name="uni04B1" unicode="&#x4b1;" horiz-adv-x="988" d="M555 443 L555 349 L780 349 L780 218 L555 218 L555 0 L403 0 L403 218 L55 218 L55 349 L403 349 L403 443 L52 999 L233 999 L478 600 L724 999 L904 999 L555 443 Z " />
<glyph glyph-name="uni04B3" unicode="&#x4b3;" horiz-adv-x="922" d="M765 168 L908 168 L908 -238 L758 -238 L758 0 L696 0 L462 378 L229 0 L46 0 L382 504 L46 999 L229 999 L462 627 L696 999 L876 999 L543 504 L765 168 Z " />
<glyph glyph-name="uni04B7" unicode="&#x4b7;" horiz-adv-x="1077" d="M1045 168 L1045 -238 L895 -238 L895 0 L757 0 L757 433 Q735 389 689.5 345 Q644 301 580 272 Q516 243 444 243 Q324 243 246.5 300.5 Q169 358 133.5 454.5 Q98 551 98 671 L98 999 L249 999 L249 668 Q249 542 295.5 457 Q342 372 456 372 Q536 372 605.5 417.5 Q675 463 716 537 Q757 611 757 693 L757 999 L908 999 L908 168 L1045 168 Z " />
<glyph glyph-name="uni04BB" unicode="&#x4bb;" horiz-adv-x="1124" d="M170 1413 L318 1413 L318 835 Q368 917 457 967 Q546 1017 643 1017 Q757 1017 832.5 963 Q908 909 943.5 818.5 Q979 728 979 616 L979 0 L828 0 L828 592 Q828 714 780.5 795.5 Q733 877 616 877 Q531 877 462.5 831.5 Q394 786 356 708.5 Q318 631 318 539 L318 0 L170 0 L170 1413 Z " />
<glyph glyph-name="uni04CF" unicode="&#x4cf;" horiz-adv-x="487" d="M168 0 L168 1413 L319 1413 L319 0 L168 0 Z " />
<glyph glyph-name="uni04D9" unicode="&#x4d9;" horiz-adv-x="1038" d="M497 1013 Q643 1013 744.5 944.5 Q846 876 896.5 760.5 Q947 645 947 505 Q947 367 897.5 248.5 Q848 130 750 58 Q652 -14 513 -14 Q360 -14 265.5 56.5 Q171 127 130 237 Q89 347 89 473 Q89 505 94 550 L790 550 Q791 641 757.5 716.5 Q724 792 658 837 Q592 882 498 882 Q407 882 340 858.5 Q273 835 217 775 L115 857 Q196 939 286.5 976 Q377 1013 497 1013 Z M232 428 Q235 292 303 200.5 Q371 109 513 109 Q601 109 662 152 Q723 195 754.5 267 Q786 339 790 428 L232 428 Z " />
<glyph glyph-name="uni04E3" unicode="&#x4e3;" horiz-adv-x="1117" d="M486 -22 Q311 -22 227 98.5 Q143 219 143 419 L143 999 L292 999 L292 409 Q292 279 339 191.5 Q386 104 502 104 Q581 104 649.5 149 Q718 194 759 272 Q800 350 800 446 L800 999 L948 999 L948 0 L800 0 L800 169 Q779 123 734 79 Q689 35 624.5 6.5 Q560 -22 486 -22 Z M290 1183 L290 1308 L831 1308 L831 1183 L290 1183 Z " />
<glyph glyph-name="uni04E9" unicode="&#x4e9;" horiz-adv-x="1119" d="M559 -20 Q422 -20 314 49 Q206 118 146 236 Q86 354 86 496 Q86 637 146 755.5 Q206 874 314 943 Q422 1012 559 1012 Q696 1012 804 943 Q912 874 972.5 756 Q1033 638 1033 496 Q1033 354 973 236 Q913 118 804.5 49 Q696 -20 559 -20 Z M861 570 Q846 708 771.5 793.5 Q697 879 559 879 Q421 879 345.5 793.5 Q270 708 255 570 L861 570 Z M559 112 Q706 112 780 208.5 Q854 305 862 458 L253 458 Q261 305 336 208.5 Q411 112 559 112 Z " />
<glyph glyph-name="uni04EF" unicode="&#x4ef;" horiz-adv-x="975" d="M251 -430 L418 7 L35 999 L200 999 L489 182 L775 999 L940 999 L405 -430 L251 -430 Z M219 1183 L219 1308 L760 1308 L760 1183 L219 1183 Z " />
<glyph glyph-name="uni045B" unicode="&#x45b;" horiz-adv-x="1124" d="M643 1017 Q757 1017 832.5 963 Q908 909 943.5 818.5 Q979 728 979 616 L979 0 L828 0 L828 592 Q828 714 780.5 795.5 Q733 877 616 877 Q531 877 462.5 831.5 Q394 786 356 708.5 Q318 631 318 539 L318 0 L170 0 L170 1128 L-11 1128 L-11 1244 L170 1244 L170 1413 L318 1413 L318 1244 L623 1244 L623 1128 L318 1128 L318 835 Q368 917 457 967 Q546 1017 643 1017 Z " />
<glyph glyph-name="uni0474" unicode="&#x474;" horiz-adv-x="1288" d="M32 1413 L198 1413 L579 210 L870 999 Q940 1190 1034.5 1287.5 Q1129 1385 1261 1413 L1261 1262 Q1183 1225 1134 1173.5 Q1085 1122 1066 1086.5 Q1047 1051 1017 982 L647 0 L510 0 L32 1413 Z " />
<glyph glyph-name="pi" unicode="&#x3c0;" horiz-adv-x="989" d="M827 -20 Q766 -20 719 12 Q672 44 646 97 Q620 150 620 210 L620 849 L338 849 L338 0 L188 0 L188 849 L106 849 L106 999 L852 999 L852 849 L770 849 L770 216 Q770 163 790 134.5 Q810 106 843 106 Q870 106 897 123 L937 11 Q885 -20 827 -20 Z " />
<glyph glyph-name="zero" unicode="0" horiz-adv-x="1155" d="M588 -20 Q403 -20 285 90 Q167 200 114.5 366 Q62 532 62 707 Q62 883 113 1049.5 Q164 1216 279 1326 Q394 1436 573 1436 Q740 1436 858.5 1333 Q977 1230 1037 1062 Q1097 894 1097 703 Q1097 514 1038.5 348.5 Q980 183 865 81.5 Q750 -20 588 -20 Z M582 124 Q705 124 783 215 Q861 306 895.5 440 Q930 574 930 709 Q930 848 895 979.5 Q860 1111 780 1199 Q700 1287 573 1287 Q447 1287 367 1198.5 Q287 1110 252 978 Q217 846 217 707 Q217 568 252.5 435 Q288 302 370 213 Q452 124 582 124 Z " />
<glyph glyph-name="one" unicode="1" horiz-adv-x="1155" d="M581 1086 L204 1086 L204 1211 L420 1211 Q502 1211 548.5 1260 Q595 1309 595 1386 L595 1413 L739 1413 L739 0 L581 0 L581 1086 Z " />
<glyph glyph-name="two" unicode="2" horiz-adv-x="1155" d="M80 142 Q235 241 348 333.5 Q461 426 553 522 Q687 665 754 781.5 Q821 898 821 1024 Q821 1152 754 1221.5 Q687 1291 576 1291 Q448 1291 373.5 1199.5 Q299 1108 291 950 L135 965 Q135 1111 188.5 1216 Q242 1321 340.5 1376.5 Q439 1432 571 1432 Q698 1432 791.5 1381.5 Q885 1331 935.5 1240 Q986 1149 986 1029 Q986 875 903 733 Q820 591 651 423 Q542 313 469 255.5 Q396 198 319 148 L298 134 L1056 134 L1056 0 L80 0 L80 142 Z " />
<glyph glyph-name="three" unicode="3" horiz-adv-x="1155" d="M556 -20 Q421 -20 313 27 Q205 74 142 168.5 Q79 263 79 399 L224 413 Q224 321 269.5 254.5 Q315 188 391 153 Q467 118 557 118 Q643 118 718 151 Q793 184 839.5 249.5 Q886 315 886 407 Q886 496 845 557.5 Q804 619 734 650 Q664 681 578 681 L478 681 L478 818 L578 818 Q683 818 745.5 879.5 Q808 941 808 1049 Q808 1125 773.5 1180 Q739 1235 680.5 1264 Q622 1293 553 1293 Q480 1293 420.5 1262.5 Q361 1232 326 1176.5 Q291 1121 290 1047 L147 1063 Q147 1177 200.5 1261 Q254 1345 346 1389.5 Q438 1434 552 1434 Q663 1434 755 1390 Q847 1346 901 1263 Q955 1180 955 1068 Q955 971 912.5 890.5 Q870 810 790 761 Q908 720 968 625 Q1028 530 1031 402 Q1031 267 968 171.5 Q905 76 797.5 28 Q690 -20 556 -20 Z " />
<glyph glyph-name="four" unicode="4" horiz-adv-x="1155" d="M696 0 L696 381 L44 381 L44 471 L710 1413 L851 1413 L851 516 L1076 516 L1076 381 L851 381 L851 0 L696 0 Z M231 516 L696 516 L696 1173 L231 516 Z " />
<glyph glyph-name="five" unicode="5" horiz-adv-x="1155" d="M574 -20 Q456 -20 360 31.5 Q264 83 200.5 172 Q137 261 113 372 L254 419 Q280 291 354.5 202.5 Q429 114 571 114 Q671 114 742 164 Q813 214 848.5 293.5 Q884 373 884 462 Q884 550 849.5 625.5 Q815 701 747.5 747 Q680 793 584 793 Q495 793 419 751.5 Q343 710 297 637 L161 701 L285 1413 L983 1413 L983 1275 L406 1275 L330 819 Q386 876 458 899.5 Q530 923 605 923 Q734 923 834.5 860.5 Q935 798 991 692 Q1047 586 1047 462 Q1047 333 985.5 222 Q924 111 816 45.5 Q708 -20 574 -20 Z " />
<glyph glyph-name="six" unicode="6" horiz-adv-x="1155" d="M583 -20 Q455 -20 348 43 Q241 106 178.5 213.5 Q116 321 116 449 Q116 583 184 694 L596 1413 L769 1413 L458 888 Q523 901 583 901 Q712 901 819 843 Q926 785 988 682 Q1050 579 1050 452 Q1050 327 989.5 218.5 Q929 110 822.5 45 Q716 -20 583 -20 Z M583 122 Q669 122 741.5 166.5 Q814 211 856.5 286.5 Q899 362 899 450 Q899 539 856.5 614.5 Q814 690 741.5 734 Q669 778 583 778 Q497 778 424.5 734 Q352 690 309.5 614.5 Q267 539 267 450 Q267 362 309.5 286.5 Q352 211 424.5 166.5 Q497 122 583 122 Z " />
<glyph glyph-name="seven" unicode="7" horiz-adv-x="1155" d="M262 0 L862 1275 L105 1275 L105 1413 L1045 1413 L1045 1335 L436 0 L262 0 Z " />
</font>
</svg>
