<?xml version="1.0" standalone="no"?>
<!DOCTYPE svg PUBLIC "-//W3C//DTD SVG 20010904//EN"
 "http://www.w3.org/TR/2001/REC-SVG-20010904/DTD/svg10.dtd">
<svg version="1.0" xmlns="http://www.w3.org/2000/svg"
 width="3568.000000pt" height="880.000000pt" viewBox="0 0 3568.000000 880.000000"
 preserveAspectRatio="xMidYMid meet">
<metadata>
Created by potrace 1.15, written by Peter Selinger 2001-2017
</metadata>
<g transform="translate(0.000000,880.000000) scale(0.100000,-0.100000)"
fill="#000000" stroke="none">
<path d="M15060 8054 c0 -636 2 -745 14 -741 36 14 1583 1053 1607 1080 53 58
72 156 47 241 -17 56 -100 141 -153 155 -27 7 -276 11 -777 11 l-738 0 0 -746z"/>
<path d="M20583 7144 c-526 -63 -1039 -279 -1453 -610 -119 -95 -352 -330
-446 -449 -363 -461 -570 -991 -614 -1575 -6 -85 -10 -910 -10 -2242 l0 -2108
850 0 850 0 0 2124 c0 2336 -4 2198 61 2391 183 548 769 888 1327 770 500
-105 869 -507 932 -1015 6 -56 10 -791 10 -2177 l0 -2093 860 0 859 0 4 2142
c3 1976 4 2148 20 2213 31 130 59 210 101 296 64 127 119 203 225 310 199 200
428 309 717 341 242 28 517 -41 736 -184 305 -199 497 -526 528 -898 6 -68 10
-955 10 -2167 l0 -2053 845 0 845 0 0 2138 c0 1342 -4 2178 -10 2247 -34 377
-127 707 -293 1038 -145 291 -328 539 -574 777 -401 391 -887 644 -1448 754
-330 65 -779 61 -1117 -10 -510 -107 -993 -355 -1348 -691 l-95 -91 -70 65
c-482 441 -1043 697 -1675 763 -133 14 -493 10 -627 -6z"/>
<path d="M3430 7124 c-1217 -51 -2302 -695 -2929 -1739 -531 -883 -645 -1994
-306 -2983 270 -788 816 -1462 1535 -1894 717 -432 1553 -593 2397 -462 462
71 951 254 1335 500 l68 44 0 -230 0 -230 800 0 801 0 -4 1848 c-4 1926 -3
1883 -48 2167 -158 990 -752 1887 -1608 2429 -471 298 -1027 488 -1571 535
-137 12 -365 19 -470 15z m318 -1655 c676 -73 1248 -472 1538 -1074 221 -459
253 -957 93 -1439 -204 -610 -714 -1086 -1335 -1246 -589 -152 -1225 -12
-1689 371 -78 64 -230 217 -292 294 -261 323 -413 761 -413 1187 0 902 627
1678 1515 1874 180 40 406 53 583 33z"/>
<path d="M10990 7119 c-1258 -76 -2393 -827 -2959 -1958 -196 -390 -316 -804
-362 -1246 -26 -251 -14 -638 27 -905 170 -1083 841 -2035 1810 -2568 382
-210 792 -344 1254 -409 179 -25 730 -25 910 0 683 96 1259 342 1787 763 136
109 410 385 529 534 91 114 269 369 262 375 -16 13 -1371 845 -1377 845 -4 0
-26 -28 -49 -62 -195 -295 -501 -553 -822 -694 -277 -122 -534 -170 -848 -161
-199 5 -313 23 -482 74 -456 137 -830 419 -1094 825 -215 330 -328 775 -297
1163 57 714 466 1313 1106 1621 641 309 1405 233 1985 -197 106 -78 294 -260
367 -356 l55 -73 32 23 c77 55 1281 920 1284 922 2 2 -25 41 -59 87 -515 676
-1274 1155 -2104 1328 -187 38 -336 58 -535 70 -181 11 -234 11 -420 -1z"/>
<path d="M31920 7120 c-672 -37 -1307 -258 -1854 -644 -173 -121 -296 -226
-462 -391 -567 -566 -906 -1251 -1021 -2065 -25 -179 -25 -730 0 -910 60 -425
162 -760 342 -1125 189 -381 400 -672 711 -975 214 -209 397 -350 646 -501
427 -258 900 -420 1423 -486 196 -24 624 -24 825 0 510 63 987 224 1413 479
67 40 125 74 130 76 4 2 7 -98 7 -222 l0 -226 800 0 801 0 -4 1873 c-2 1376
-7 1895 -15 1957 -40 280 -94 528 -162 730 -283 846 -871 1554 -1650 1988
-583 325 -1256 479 -1930 442z m381 -1650 c583 -59 1097 -372 1422 -865 202
-307 307 -661 307 -1038 0 -326 -64 -589 -211 -877 -188 -366 -473 -649 -839
-833 -267 -134 -499 -194 -790 -204 -258 -8 -447 18 -679 96 -495 165 -896
521 -1121 994 -329 692 -218 1494 288 2078 400 462 1020 710 1623 649z"/>
<path d="M15723 6532 l-772 -557 -1 -2902 0 -2903 780 0 780 0 0 3460 c0 1903
-3 3460 -7 3460 -5 -1 -355 -251 -780 -558z"/>
</g>
</svg>
