<svg xmlns="http://www.w3.org/2000/svg" version="1.0" viewBox="0 0 560.000000 477.000000" preserveAspectRatio="xMidYMid meet">
<g transform="translate(0.000000,477.000000) scale(0.100000,-0.100000)" fill="white" stroke="none">
<path d="M2963 4755 c-80 -22 -126 -49 -199 -118 -78 -73 -130 -140 -172 -223 -30 -59 -83 -210 -97 -271 -3 -18 -10 -33 -15 -33 -4 0 -42 16 -84 35 -241 110 -627 242 -785 269 -228 39 -377 7 -488 -104 -153 -153 -180 -362 -90 -693 17 -60 21 -90 13 -92 -6 -1 -81 -13 -166 -25 -202 -29 -425 -80 -525 -119 -106 -41 -226 -121 -275 -183 -102 -128 -96 -346 12 -509 253 -381 1462 -1129 2218 -1373 37 -12 150 -122 150 -146 0 -8 11 -61 25 -120 l26 -106 -26 -104 c-44 -181 -60 -320 -47 -410 25 -177 104 -290 252 -363 131 -65 239 -78 412 -52 305 46 694 201 1210 482 432 235 753 457 958 663 262 261 338 598 318 1405 -8 353 -34 567 -118 988 -76 376 -201 623 -372 730 -34 22 -131 47 -178 47 -165 0 -430 -152 -666 -382 l-141 -138 -49 72 c-120 176 -375 479 -515 613 -178 170 -372 277 -499 274 -19 0 -59 -7 -87 -14z m182 -284 c73 -34 214 -150 313 -256 146 -156 401 -491 500 -656 l22 -36 -114 -164 c-225 -322 -551 -865 -742 -1234 -91 -176 -260 -528 -313 -652 l-27 -63 -22 208 c-38 354 -42 424 -48 877 -7 475 2 749 36 1080 48 485 135 818 232 900 39 33 88 32 163 -4z m-1490 -341 c232 -57 415 -126 728 -274 64 -30 117 -61 117 -68 0 -7 -5 -44 -10 -83 -16 -129 -30 -337 -45 -682 -16 -373 -9 -795 20 -1135 8 -95 15 -181 15 -192 0 -59 -402 544 -610 914 -155 274 -187 337 -287 545 -200 421 -293 692 -293 860 0 117 30 144 165 145 57 0 116 -9 200 -30z m3322 -89 c65 -40 139 -191 202 -413 74 -257 137 -761 148 -1168 8 -333 -9 -551 -62 -773 -49 -209 -114 -296 -381 -511 -358 -288 -1036 -652 -1539 -825 -208 -72 -382 -98 -463 -70 -73 25 -101 133 -77 291 33 208 72 339 188 628 123 308 184 439 343 743 231 441 357 660 554 967 325 507 577 830 793 1016 146 126 225 156 294 115z m-3670 -933 c201 -424 489 -929 717 -1257 48 -68 85 -125 83 -127 -6 -7 -277 126 -481 235 -761 408 -1346 858 -1346 1034 0 40 37 75 123 117 127 61 375 118 627 144 224 23 188 42 277 -146z"/>
</g>
<g transform="translate(0.000000,477.000000) scale(0.100000,-0.100000)" stroke="none">
<path fill="#fec729" d="M1035 3264 c-439 -45 -765 -160 -765 -270 0 -183 615 -652 1405 -1071 185 -98 454 -228 460 -221 1 2 -36 57 -82 123 -233 330 -530 847 -729 1268 l-88 187 -36 -1 c-19 -1 -93 -7 -165 -15z"/>
<path fill="#ef672c" d="M1343 4155 c-63 -27 -78 -113 -48 -274 38 -198 232 -666 423 -1016 104 -192 237 -425 300 -525 215 -343 462 -696 470 -671 2 6 -3 98 -12 204 -45 544 -37 1234 20 1786 8 79 14 145 12 146 -8 7 -354 168 -429 198 -114 47 -311 111 -439 142 -119 28 -245 33 -297 10z"/>
<path fill="#d41e34" d="M2977 4480 c-119 -104 -197 -443 -259 -1130 -17 -190 -17 -1196 0 -1395 20 -230 53 -529 60 -548 6 -15 13 -6 32 40 40 99 237 509 324 678 184 357 506 894 719 1201 58 83 112 163 121 176 16 24 14 27 -70 154 -109 163 -177 253 -324 429 -225 268 -421 425 -532 425 -27 0 -47 -8 -71 -30z"/>
<path fill="#95ca4f" d="M4847 4050 c-80 -31 -231 -162 -376 -325 -256 -289 -660 -889 -938 -1395 -144 -261 -351 -663 -407 -787 -77 -171 -229 -554 -254 -638 -65 -220 -96 -405 -82 -491 12 -70 44 -122 86 -140 184 -77 855 173 1518 565 241 142 354 218 491 328 321 257 373 347 432 739 22 148 25 688 5 884 -20 195 -71 565 -92 671 -59 292 -164 535 -253 589 -39 24 -68 24 -130 0z"/>
</g>
</svg>
