<svg xmlns="http://www.w3.org/2000/svg" version="1.0" width="2477.000000pt" height="660.000000pt" viewBox="0 0 2477.000000 660.000000" preserveAspectRatio="xMidYMid meet">

<g transform="translate(0.000000,660.000000) scale(0.100000,-0.100000)" fill="#218fcc" stroke="none">
<path d="M22810 6020 l0 -580 -322 -2 -323 -3 0 -355 0 -355 322 -3 322 -2 4 -1243 c3 -1128 5 -1248 20 -1311 37 -149 98 -264 192 -360 140 -144 322 -221 621 -262 211 -29 860 -21 991 12 l23 6 0 410 0 410 -42 -6 c-24 -3 -122 -9 -219 -12 -298 -11 -412 24 -474 146 -44 87 -45 123 -45 1193 l0 1017 388 2 387 3 0 355 0 355 -387 3 -388 2 -2 578 -3 577 -532 3 -533 2 0 -580z"/>
<path d="M0 3300 l0 -3050 210 0 210 0 0 3050 0 3050 -210 0 -210 0 0 -3050z"/>
<path d="M3315 5530 c-305 -28 -611 -133 -865 -297 -450 -292 -737 -728 -849 -1291 -63 -317 -51 -736 29 -1047 98 -379 283 -707 527 -935 109 -102 257 -205 392 -274 167 -84 241 -112 397 -152 456 -115 1008 -88 1401 67 404 160 674 416 878 834 56 114 125 289 125 316 0 5 -190 9 -469 9 l-469 0 -7 -28 c-10 -46 -81 -146 -150 -210 -182 -171 -368 -247 -630 -259 -471 -21 -797 165 -920 526 -35 105 -65 251 -72 358 l-6 93 1395 0 1395 0 7 38 c9 57 7 243 -5 377 -37 437 -155 793 -370 1116 -108 162 -307 364 -454 462 -242 160 -448 241 -715 282 -118 19 -431 27 -565 15z m308 -800 c124 -12 204 -33 294 -76 184 -88 326 -299 408 -605 14 -52 25 -104 25 -116 l0 -23 -861 0 -862 0 7 63 c9 87 50 237 85 307 129 260 369 422 666 449 126 12 129 12 238 1z"/>
<path d="M12110 5534 c-450 -53 -745 -213 -959 -519 l-56 -80 -5 250 -5 250 -505 0 -505 0 0 -2615 0 -2615 533 -3 532 -2 0 920 c0 506 4 920 8 920 4 0 16 -14 26 -31 29 -49 202 -224 275 -278 266 -197 643 -294 1024 -262 362 30 652 151 915 381 554 483 772 1436 538 2345 -188 729 -676 1209 -1341 1320 -88 15 -405 27 -475 19z m117 -820 c148 -31 260 -92 381 -208 65 -61 149 -179 195 -271 149 -299 190 -813 97 -1235 -55 -255 -192 -473 -376 -600 -151 -104 -316 -146 -539 -137 -185 8 -298 42 -432 129 -299 195 -448 564 -446 1108 1 315 41 534 134 729 82 174 171 280 319 380 165 114 427 155 667 105z"/>
<path d="M16350 5533 c-180 -12 -398 -55 -562 -109 -43 -14 -144 -59 -225 -99 -356 -177 -613 -429 -795 -781 -177 -344 -261 -798 -229 -1233 14 -184 40 -338 81 -484 257 -914 1053 -1431 2093 -1358 405 29 726 130 1009 320 460 308 735 789 809 1416 16 133 16 477 0 595 -60 452 -224 837 -475 1120 -272 305 -662 512 -1111 589 -142 25 -426 36 -595 24z m287 -803 c430 -38 712 -324 802 -815 55 -294 53 -574 -5 -865 -59 -293 -194 -519 -392 -652 -258 -174 -698 -186 -969 -27 -85 50 -231 199 -283 289 -134 230 -185 464 -184 840 1 466 91 762 301 980 140 148 311 232 506 249 50 5 97 9 102 10 6 0 60 -4 122 -9z"/>
<path d="M21345 5534 c-246 -38 -467 -128 -653 -268 -168 -127 -300 -284 -398 -476 l-39 -75 -5 360 -5 360 -505 0 -505 0 -3 -1937 -2 -1938 535 0 534 0 3 997 c4 995 4 998 27 1123 27 146 61 261 103 345 159 315 403 479 773 516 133 13 423 -2 508 -27 16 -5 17 21 15 493 l-3 498 -50 13 c-51 13 -275 24 -330 16z"/>
<path d="M5773 5428 c2 -7 288 -422 635 -922 l631 -908 -53 -77 c-137 -195 -1336 -1952 -1336 -1956 0 -3 267 -5 594 -5 l594 0 404 610 405 610 404 -610 404 -610 608 0 608 0 -19 28 c-11 15 -225 324 -477 687 -252 363 -566 814 -697 1003 l-238 343 635 904 c349 498 635 907 635 910 0 3 -264 4 -587 3 l-588 -3 -335 -502 c-184 -276 -337 -502 -340 -502 -3 0 -158 227 -344 504 l-339 505 -604 0 c-480 0 -604 -3 -600 -12z"/>
<path d="M17057 884 c-181 -57 -287 -217 -287 -432 0 -181 86 -334 226 -403 56 -28 78 -33 162 -37 160 -7 274 40 364 153 42 51 96 161 85 171 -2 2 -31 7 -64 10 l-61 7 -7 -34 c-18 -81 -85 -162 -160 -194 -53 -23 -177 -23 -229 -1 -131 55 -193 178 -184 367 7 149 59 238 166 291 67 32 172 36 244 8 61 -23 143 -100 154 -146 7 -28 7 -28 74 -13 59 13 59 20 8 101 -39 61 -88 105 -158 137 -47 22 -71 26 -170 28 -82 2 -129 -2 -163 -13z"/>
<path d="M12170 455 l0 -425 57 0 56 0 -7 342 c-3 188 -4 340 -2 337 2 -2 61 -156 132 -342 l127 -338 46 3 46 3 132 350 132 350 -4 -265 c-3 -146 -7 -304 -10 -352 l-5 -88 60 0 60 0 0 425 0 426 -77 -3 -76 -3 -94 -250 c-51 -137 -110 -292 -130 -344 l-36 -94 -130 347 -129 346 -74 0 -74 0 0 -425z"/>
<path d="M14260 825 l0 -55 45 0 45 0 0 55 0 55 -45 0 -45 0 0 -55z"/>
<path d="M20916 871 c-9 -14 -316 -823 -316 -832 0 -5 26 -9 59 -9 l58 0 48 130 47 130 162 0 161 0 44 -126 c24 -69 50 -128 56 -130 7 -3 35 -4 62 -2 l50 3 -138 380 c-76 209 -146 399 -155 423 l-16 42 -58 0 c-32 0 -61 -4 -64 -9z m128 -325 l55 -156 -124 0 -124 0 38 108 c83 229 85 233 93 219 4 -8 32 -85 62 -171z"/>
<path d="M23380 825 l0 -55 45 0 45 0 0 55 0 55 -45 0 -45 0 0 -55z"/>
<path d="M13391 793 c-6 -21 -17 -59 -25 -85 l-14 -48 27 0 c22 0 33 12 74 79 26 44 47 82 47 85 0 3 -22 6 -50 6 -48 0 -49 -1 -59 -37z"/>
<path d="M22606 763 c-10 -38 -21 -76 -23 -85 -4 -14 1 -18 20 -18 21 0 33 12 63 63 21 34 44 72 52 85 14 22 14 22 -40 22 l-54 0 -18 -67z"/>
<path d="M18980 690 l0 -90 -45 0 -45 0 0 -40 0 -40 45 0 45 0 0 -209 c0 -122 4 -221 11 -239 16 -45 81 -63 168 -46 28 6 31 10 31 45 l0 39 -45 -7 c-42 -5 -45 -4 -55 21 -5 15 -10 110 -10 212 l0 184 55 0 55 0 0 40 0 40 -55 0 -55 0 0 90 0 90 -50 0 -50 0 0 -90z"/>
<path d="M13318 606 c-108 -29 -176 -106 -198 -223 -25 -128 19 -256 110 -322 105 -76 276 -60 359 34 30 34 67 103 59 110 -2 1 -24 5 -49 8 -44 6 -46 5 -57 -27 -21 -56 -64 -89 -127 -94 -32 -3 -68 1 -85 8 -59 24 -110 106 -110 178 l0 22 216 0 217 0 -6 64 c-10 108 -69 197 -152 231 -49 21 -126 25 -177 11z m142 -88 c45 -31 69 -66 77 -111 l6 -37 -163 0 -162 0 7 28 c12 49 53 109 87 125 48 24 109 21 148 -5z"/>
<path d="M14683 610 c-122 -26 -201 -128 -211 -275 -5 -84 7 -132 50 -205 27 -44 44 -60 91 -84 51 -26 69 -30 140 -30 125 1 199 43 243 139 37 78 34 85 -31 85 -49 0 -55 -2 -55 -20 0 -55 -60 -119 -118 -127 -140 -19 -220 75 -210 246 8 137 62 201 168 201 71 0 116 -27 137 -80 16 -40 17 -40 70 -40 64 0 65 6 21 80 -26 43 -44 60 -88 82 -61 30 -143 41 -207 28z"/>
<path d="M15311 610 c-180 -38 -269 -279 -169 -461 41 -76 94 -113 182 -130 135 -25 254 35 307 154 35 78 34 211 -2 287 -31 66 -70 107 -124 131 -50 22 -137 30 -194 19z m153 -92 c14 -6 37 -28 52 -50 23 -32 28 -53 32 -119 8 -137 -35 -227 -121 -250 -84 -22 -163 14 -196 90 -39 92 -22 248 34 301 50 47 133 59 199 28z"/>
<path d="M17877 609 c-91 -22 -151 -72 -191 -159 -30 -67 -29 -206 3 -277 27 -62 92 -125 147 -144 52 -18 170 -16 215 3 52 23 101 70 128 123 13 25 21 48 20 49 -2 2 -24 6 -49 9 l-46 6 -19 -42 c-47 -101 -183 -119 -262 -35 -29 30 -53 89 -53 128 l0 30 216 0 217 0 -6 60 c-12 113 -69 201 -151 235 -44 18 -125 25 -169 14z m133 -91 c45 -31 69 -66 77 -111 l6 -37 -163 0 -162 0 7 28 c29 120 147 180 235 120z"/>
<path d="M18537 606 c-28 -8 -62 -27 -83 -47 l-34 -33 0 37 0 37 -50 0 -50 0 0 -285 0 -285 50 0 50 0 0 185 c0 207 6 233 61 279 30 26 39 28 95 24 113 -7 124 -33 124 -300 l0 -188 44 0 44 0 4 188 c4 220 -2 280 -32 320 -47 63 -139 91 -223 68z"/>
<path d="M19862 610 c-121 -25 -200 -130 -210 -277 -8 -132 46 -241 144 -289 46 -23 70 -28 133 -28 122 -1 204 52 255 163 30 68 29 207 -2 277 -27 59 -82 117 -132 138 -47 19 -135 27 -188 16z m120 -81 c46 -12 95 -62 108 -109 14 -51 12 -149 -5 -206 -31 -107 -132 -151 -233 -103 -61 30 -92 95 -92 195 0 123 36 191 117 219 47 17 58 18 105 4z"/>
<path d="M21641 606 c-18 -6 -51 -27 -72 -44 l-39 -33 0 35 0 36 -50 0 -50 0 0 -285 0 -285 50 0 50 0 0 198 c0 217 4 232 59 269 40 27 115 31 148 8 35 -25 43 -77 43 -282 l0 -193 44 0 44 0 4 204 c3 202 3 205 28 231 56 60 137 74 187 31 l28 -24 3 -221 3 -221 50 0 51 0 -4 227 c-4 260 -9 284 -77 329 -75 49 -171 34 -248 -39 l-33 -31 -37 41 c-24 25 -53 45 -78 52 -48 13 -60 13 -104 -3z"/>
<path d="M22565 614 c-101 -25 -173 -85 -205 -170 -39 -105 -21 -248 41 -333 68 -95 236 -127 348 -66 54 30 104 89 117 138 5 24 3 27 -17 27 -13 0 -34 3 -45 6 -18 5 -25 -2 -44 -41 -32 -66 -69 -87 -145 -83 -97 6 -150 58 -170 171 l-7 37 221 0 c121 0 221 3 221 8 0 34 -24 141 -37 166 -21 43 -71 94 -113 116 -37 19 -130 32 -165 24z m134 -103 c34 -25 55 -59 66 -108 l7 -33 -161 0 c-155 0 -161 1 -161 20 0 26 32 90 57 112 48 44 137 48 192 9z"/>
<path d="M23800 609 c-129 -26 -224 -182 -206 -337 13 -107 79 -203 165 -240 45 -19 173 -21 225 -3 74 26 155 123 156 188 0 18 -6 22 -49 25 l-50 3 -10 -41 c-14 -54 -44 -90 -87 -104 -51 -17 -125 -8 -164 20 -100 71 -105 298 -8 386 40 35 42 36 110 32 66 -4 72 -6 104 -41 19 -20 34 -46 34 -57 0 -18 7 -20 55 -20 63 0 67 7 35 69 -48 95 -181 147 -310 120z"/>
<path d="M24401 609 c-83 -16 -135 -67 -156 -150 -6 -25 -4 -27 39 -33 54 -8 66 -3 66 29 0 13 11 37 24 52 22 25 30 28 90 28 58 0 69 -3 92 -27 21 -21 28 -39 32 -81 l4 -54 -68 -7 c-158 -16 -231 -41 -277 -95 -39 -47 -44 -102 -15 -159 34 -66 88 -95 177 -95 71 0 116 17 162 60 l26 24 21 -34 c22 -39 61 -53 112 -42 28 6 30 10 30 50 0 39 -2 43 -21 38 -42 -11 -49 17 -49 194 0 175 -7 209 -51 250 -51 47 -155 69 -238 52z m188 -378 c-13 -84 -68 -131 -153 -131 -59 0 -92 16 -107 51 -15 38 3 84 41 104 44 23 214 54 221 41 4 -6 3 -35 -2 -65z"/>
<path d="M19541 599 c-50 -10 -86 -30 -118 -68 l-22 -26 -1 48 0 47 -50 0 -50 0 0 -285 0 -285 49 0 50 0 3 183 c3 202 9 225 67 264 24 16 48 23 82 23 l49 0 0 49 c0 28 -3 52 -7 54 -5 2 -28 0 -52 -4z"/>
<path d="M23240 601 c-44 -9 -78 -27 -112 -59 l-28 -26 0 42 0 42 -50 0 -50 0 0 -285 0 -285 50 0 50 0 0 183 c0 157 2 187 18 216 23 43 74 71 129 71 l43 0 0 55 c0 30 -3 54 -7 54 -5 -1 -24 -4 -43 -8z"/>
<path d="M13720 594 c0 -3 36 -66 81 -140 l81 -134 -86 -140 c-47 -77 -86 -143 -86 -145 0 -3 24 -5 54 -5 l54 0 57 101 58 100 60 -100 59 -101 54 0 c30 0 54 2 54 4 0 3 -38 68 -84 144 l-84 139 84 137 c46 76 84 139 84 142 0 2 -24 4 -53 4 l-53 0 -55 -95 c-30 -52 -56 -94 -59 -95 -3 0 -29 43 -58 95 l-54 95 -54 0 c-30 0 -54 -3 -54 -6z"/>
<path d="M14260 315 l0 -285 45 0 45 0 0 285 0 285 -45 0 -45 0 0 -285z"/>
<path d="M23380 315 l0 -285 45 0 45 0 0 285 0 285 -45 0 -45 0 0 -285z"/>
<path d="M16090 385 l0 -45 120 0 120 0 0 45 0 45 -120 0 -120 0 0 -45z"/>
</g>
</svg>