<?xml version="1.0" standalone="no"?>
<!DOCTYPE svg PUBLIC "-//W3C//DTD SVG 20010904//EN"
 "http://www.w3.org/TR/2001/REC-SVG-20010904/DTD/svg10.dtd">
<svg version="1.0" xmlns="http://www.w3.org/2000/svg"
 width="2087.000000pt" height="398.000000pt" viewBox="0 0 2087.000000 398.000000"
 preserveAspectRatio="xMidYMid meet">
<metadata>
Created by potrace 1.15, written by Peter Selinger 2001-2017
</metadata>
<g transform="translate(0.000000,398.000000) scale(0.100000,-0.100000)"
fill="#000000" stroke="none">
<path d="M700 1990 l0 -1990 140 0 140 0 0 1990 0 1990 -140 0 -140 0 0 -1990z"/>
<path d="M2673 3750 c-309 -44 -507 -187 -610 -440 -37 -93 -52 -180 -59 -352
l-7 -158 -204 0 -203 0 0 -230 0 -230 205 0 205 0 0 -1030 0 -1030 350 0 350
0 0 1030 0 1030 235 0 235 0 0 230 0 230 -236 0 -236 0 4 143 c3 129 5 146 28
187 52 92 130 116 343 106 l137 -7 0 254 0 254 -57 7 c-102 11 -416 15 -480 6z"/>
<path d="M3500 3475 l0 -285 345 0 345 0 0 285 0 285 -345 0 -345 0 0 -285z"/>
<path d="M16120 3475 l0 -285 345 0 345 0 0 285 0 285 -345 0 -345 0 0 -285z"/>
<path d="M20170 2020 l0 -1740 350 0 350 0 0 1740 0 1740 -350 0 -350 0 0
-1740z"/>
<path d="M6046 2859 c-166 -24 -346 -100 -457 -192 -36 -30 -93 -91 -125 -135
-32 -44 -62 -81 -66 -81 -5 -1 -8 78 -8 174 l0 175 -330 0 -330 0 0 -1260 0
-1260 345 0 345 0 0 653 c0 358 5 715 10 792 23 331 114 494 319 567 73 26
265 36 342 18 122 -28 207 -101 253 -215 54 -136 56 -169 56 -1026 l0 -789
351 0 351 0 -5 878 c-4 952 -5 970 -63 1168 -93 321 -319 495 -695 534 -116
12 -208 11 -293 -1z"/>
<path d="M8620 2864 c-82 -8 -254 -35 -315 -51 -368 -93 -613 -311 -684 -608
-11 -44 -22 -101 -24 -127 l-5 -48 348 0 347 0 6 51 c7 55 44 144 77 187 31
39 106 89 161 107 114 38 363 36 467 -3 118 -45 181 -134 190 -267 6 -98 -3
-138 -40 -181 -70 -79 -201 -120 -493 -154 -655 -75 -901 -174 -1048 -421
-132 -222 -120 -588 26 -806 136 -203 361 -308 692 -320 158 -6 270 5 422 43
177 43 295 102 415 205 l57 49 6 -47 c4 -27 15 -79 24 -118 l17 -70 351 -3
351 -2 -24 59 c-54 133 -57 185 -64 1111 -5 787 -7 859 -24 910 -29 90 -75
166 -138 230 -136 140 -322 219 -598 255 -115 16 -415 27 -500 19z m567 -1579
c-7 -255 -32 -342 -130 -450 -99 -110 -217 -153 -415 -154 -302 -2 -432 94
-432 318 0 99 20 158 77 221 82 91 193 130 506 175 179 26 306 59 362 93 27
17 30 17 34 3 2 -9 1 -101 -2 -206z"/>
<path d="M11725 2859 c-120 -17 -278 -75 -374 -136 -74 -47 -163 -134 -220
-213 l-46 -65 -3 178 -2 177 -330 0 -330 0 0 -1260 0 -1260 344 0 345 0 4 773
c3 740 4 776 24 864 64 279 218 402 503 403 224 0 344 -80 405 -271 41 -132
45 -213 45 -1011 l0 -758 345 0 346 0 -4 903 c-4 953 -4 940 -52 1127 -9 36
-37 107 -62 159 -108 224 -321 355 -637 390 -109 13 -214 12 -301 0z"/>
<path d="M14335 2859 c-111 -13 -257 -51 -361 -93 -135 -55 -245 -129 -360
-241 -189 -185 -295 -393 -356 -697 -30 -150 -32 -464 -5 -601 126 -626 598
-1007 1251 -1007 607 0 1033 304 1171 837 13 51 27 115 31 143 l7 50 -332 0
c-257 0 -332 -3 -335 -12 -2 -7 -10 -44 -20 -83 -37 -160 -133 -295 -253 -357
-90 -47 -157 -61 -278 -61 -164 1 -271 47 -378 163 -220 237 -263 783 -90
1130 60 120 156 221 255 269 144 68 356 64 500 -11 112 -59 203 -185 229 -319
l12 -59 338 0 c202 0 339 4 339 9 0 43 -26 180 -47 246 -46 146 -115 258 -227
371 -157 156 -378 263 -641 309 -112 20 -343 27 -450 14z"/>
<path d="M18370 2864 c-168 -19 -229 -29 -318 -50 -240 -56 -427 -165 -553
-324 -87 -108 -140 -242 -164 -412 l-6 -48 345 0 c385 0 347 -8 361 74 11 63
50 141 94 185 82 82 180 113 361 112 140 0 213 -11 278 -43 100 -48 151 -133
159 -262 9 -133 -28 -191 -157 -250 -71 -32 -169 -51 -383 -76 -236 -28 -391
-54 -528 -88 -206 -53 -313 -107 -419 -212 -105 -106 -160 -227 -180 -397 -36
-299 72 -563 288 -707 162 -108 362 -153 626 -143 299 12 521 84 701 228 l83
67 7 -54 c3 -29 14 -81 23 -116 l17 -63 352 -3 352 -2 -25 53 c-53 118 -57
178 -64 1107 -7 932 -5 901 -65 1020 -32 63 -140 178 -212 226 -117 77 -286
133 -483 160 -105 14 -424 26 -490 18z m557 -1561 c-4 -140 -10 -225 -21 -262
-51 -182 -180 -308 -355 -347 -106 -24 -333 -16 -412 15 -74 28 -132 80 -164
145 -23 46 -26 67 -26 144 0 113 22 172 92 237 89 83 192 117 492 160 181 26
308 59 362 94 17 11 32 20 34 20 2 1 1 -92 -2 -206z"/>
<path d="M3500 1540 l0 -1260 345 0 345 0 0 1260 0 1260 -345 0 -345 0 0
-1260z"/>
<path d="M16120 1540 l0 -1260 345 0 345 0 0 1260 0 1260 -345 0 -345 0 0
-1260z"/>
</g>
</svg>
