<svg xmlns="http://www.w3.org/2000/svg" version="1.0" width="2586.000000pt" height="474.000000pt" viewBox="0 0 2586.000000 474.000000" preserveAspectRatio="xMidYMid meet">
<g transform="translate(0.000000,474.000000) scale(0.100000,-0.100000)" stroke="none">
<path fill="white" d="M2972 4730 c-86 -13 -157 -54 -252 -149 -67 -68 -95 -105 -132 -176 -43 -84 -97 -228 -113 -302 l-6 -33 -60 31 c-133 67 -409 170 -654 244 -227 69 -429 72 -548 7 -139 -75 -236 -248 -237 -421 0 -78 27 -246 55 -342 13 -46 23 -85 21 -87 -2 -1 -66 -12 -142 -23 -197 -29 -424 -76 -507 -106 -252 -90 -379 -215 -394 -390 -22 -269 181 -502 792 -910 471 -314 1025 -602 1420 -738 98 -34 116 -44 167 -93 50 -48 59 -63 69 -111 6 -31 19 -90 30 -132 17 -71 18 -80 4 -120 -26 -72 -65 -305 -65 -382 1 -205 84 -349 250 -430 146 -72 279 -82 503 -37 292 59 763 263 1244 538 330 190 520 321 734 508 171 150 242 253 303 435 81 243 101 448 93 953 -7 440 -25 604 -114 1046 -43 216 -70 304 -138 445 -84 178 -160 265 -275 318 -69 32 -193 29 -285 -7 -187 -72 -326 -168 -518 -356 -73 -71 -135 -126 -138 -122 -3 4 -38 52 -76 107 -192 273 -447 559 -602 673 -186 138 -297 180 -429 162z m146 -271 c98 -42 295 -223 454 -416 168 -203 394 -524 385 -546 -3 -7 -56 -86 -119 -177 -215 -309 -478 -744 -677 -1118 -97 -182 -321 -644 -371 -765 -13 -31 -27 -54 -31 -50 -7 8 -40 299 -60 523 -16 192 -23 992 -10 1241 17 334 53 663 97 884 24 122 90 316 126 369 58 88 104 100 206 55z m-1467 -345 c137 -32 312 -93 482 -165 170 -73 357 -166 357 -178 0 -5 -7 -69 -15 -143 -30 -279 -40 -528 -40 -1028 0 -402 4 -549 18 -723 10 -121 16 -221 14 -223 -15 -15 -334 447 -504 731 -420 699 -703 1353 -703 1622 0 39 20 92 42 111 46 37 184 36 349 -4z m3269 -74 c16 0 82 -63 107 -103 64 -102 147 -362 182 -572 124 -741 128 -1413 10 -1770 -39 -116 -62 -155 -150 -249 -295 -316 -1133 -804 -1734 -1009 -174 -60 -272 -80 -380 -81 -107 -1 -132 11 -167 82 -89 183 98 779 476 1517 364 710 734 1301 1095 1752 211 264 456 462 539 437 8 -2 18 -4 22 -4z m-3639 -907 c216 -458 505 -965 753 -1320 47 -68 81 -123 76 -123 -36 0 -471 221 -744 377 -642 369 -1103 747 -1106 907 -1 111 310 222 760 270 69 7 142 14 163 15 l38 1 60 -127z"/> <!-- petals -->
<path fill="white" d="M7695 3485 c-307 -54 -565 -191 -775 -411 -254 -267 -391 -605 -407 -1000 -13 -319 62 -643 206 -886 241 -408 637 -648 1115 -674 376 -21 737 109 1022 369 81 73 204 243 263 362 79 158 90 135 -111 240 -95 50 -226 118 -291 152 l-119 62 -11 -32 c-26 -77 -110 -227 -161 -289 -90 -108 -199 -179 -331 -213 -80 -21 -250 -21 -338 -1 -271 63 -456 285 -524 625 -23 118 -23 355 0 474 40 199 100 319 222 443 132 135 265 188 461 187 129 0 219 -23 324 -81 114 -63 232 -198 285 -328 14 -34 30 -58 37 -56 21 5 572 263 582 272 5 5 -12 47 -38 96 -184 346 -484 584 -846 671 -89 21 -134 26 -295 29 -133 2 -214 -1 -270 -11z"/>
<path fill="white" d="M9496 2413 c4 -750 9 -1035 19 -1115 55 -431 337 -703 788 -759 109 -14 350 -5 452 15 218 44 462 165 603 299 l32 31 0 -142 0 -142 340 0 340 0 0 1410 0 1410 -340 0 -340 0 0 -642 c0 -846 -11 -1045 -67 -1203 -46 -129 -106 -209 -217 -292 -111 -82 -218 -115 -376 -116 -123 0 -189 13 -285 59 -131 61 -232 204 -255 359 -6 42 -10 418 -10 953 l0 882 -345 0 -345 0 6 -1007z"/>
<path fill="white" d="M13960 3480 c-308 -26 -543 -153 -680 -368 -25 -39 -48 -71 -52 -71 -5 -1 -8 85 -8 189 l0 190 -325 0 -325 0 0 -1410 0 -1410 329 0 330 0 4 753 c3 726 4 755 25 846 60 265 228 449 486 535 57 19 197 43 309 52 l77 6 -2 346 -3 347 -35 1 c-19 1 -78 -2 -130 -6z"/>
<path fill="white" d="M15241 3500 c-511 -78 -824 -357 -881 -785 -7 -52 -10 -99 -6 -102 6 -6 543 -41 654 -42 l42 -1 0 58 c0 81 24 143 77 202 99 110 255 163 483 163 245 0 371 -57 441 -198 27 -56 32 -77 33 -146 l1 -81 -60 -19 c-129 -41 -423 -111 -685 -164 -410 -83 -517 -115 -676 -206 -377 -216 -538 -655 -387 -1061 95 -257 329 -449 652 -536 88 -23 113 -26 306 -26 196 -1 217 1 315 26 178 45 331 112 462 202 l66 45 7 -105 7 -104 339 0 339 0 0 1089 c0 1180 0 1188 -55 1322 -103 256 -388 422 -809 474 -172 21 -505 19 -665 -5z m847 -1780 c-3 -195 -3 -195 -34 -260 -17 -36 -50 -86 -73 -112 -181 -204 -628 -281 -882 -152 -182 92 -214 358 -60 497 82 74 189 112 426 152 279 48 478 100 585 155 l35 18 3 -51 c2 -29 2 -140 0 -247z"/>
<path fill="white" d="M18286 3500 c-339 -43 -662 -212 -872 -457 -139 -163 -227 -317 -288 -505 -92 -279 -109 -588 -50 -876 124 -606 555 -1032 1144 -1128 71 -12 137 -15 260 -11 173 5 260 19 395 64 265 87 511 265 665 481 68 95 175 304 167 325 -6 15 -566 311 -574 303 -3 -3 -22 -43 -43 -90 -115 -260 -288 -408 -521 -445 -146 -24 -286 -4 -418 60 -332 162 -490 655 -365 1136 70 272 258 472 495 528 85 20 245 19 328 -1 100 -25 217 -89 286 -159 71 -70 136 -165 161 -232 9 -27 20 -52 24 -56 6 -7 582 252 599 269 8 8 -58 134 -117 223 -74 112 -262 301 -367 370 -214 139 -412 199 -685 206 -85 2 -186 0 -224 -5z"/>
<path fill="white" d="M20952 3500 c-350 -54 -603 -197 -748 -421 -78 -120 -119 -242 -139 -411 l-6 -57 43 -5 c41 -5 588 -36 636 -36 20 0 22 4 22 63 0 51 6 76 31 125 77 156 259 236 534 235 318 0 453 -105 479 -370 l5 -53 -52 -15 c-146 -45 -464 -121 -729 -175 -394 -80 -541 -127 -693 -225 -187 -119 -318 -298 -377 -511 -17 -64 -21 -106 -21 -219 0 -123 3 -151 27 -229 47 -155 108 -258 221 -371 134 -134 322 -222 554 -261 139 -22 386 -15 511 16 184 45 352 118 477 206 l61 44 7 -88 c3 -48 7 -94 8 -102 2 -13 48 -15 342 -15 l340 0 3 965 c3 1056 -3 1247 -41 1377 -81 278 -326 451 -752 529 -144 27 -583 29 -743 4z m855 -1725 c-5 -229 -15 -283 -67 -365 -91 -142 -286 -245 -517 -271 -271 -31 -479 43 -543 193 -65 152 -17 308 122 399 80 51 177 81 373 114 264 44 449 92 580 150 45 20 50 21 54 6 2 -9 1 -110 -2 -226z"/>
<path fill="white" d="M24005 3496 c-538 -90 -943 -428 -1109 -926 -68 -205 -80 -288 -80 -545 0 -257 12 -340 79 -542 166 -499 568 -843 1100 -940 141 -26 448 -23 585 6 292 62 520 182 712 376 269 272 418 667 418 1105 -1 423 -146 795 -415 1065 -194 195 -415 315 -700 381 -105 24 -145 28 -315 30 -130 2 -222 -1 -275 -10z m451 -624 c249 -79 429 -281 503 -567 102 -386 -3 -812 -249 -1013 -118 -96 -263 -145 -435 -145 -387 0 -676 274 -745 705 -19 116 -8 371 20 478 43 165 135 319 247 413 72 60 198 123 283 142 91 20 294 13 376 -13z"/>
<path fill="white" d="M25555 959 c-75 -21 -155 -129 -155 -208 0 -85 58 -177 134 -212 50 -23 134 -24 184 -3 122 51 175 204 109 316 -57 98 -163 139 -272 107z m171 -36 c22 -11 53 -40 72 -67 27 -41 32 -57 32 -108 0 -92 -43 -159 -122 -193 -113 -46 -247 22 -277 140 -13 53 -6 97 25 152 54 95 170 128 270 76z"/>
<path fill="white" d="M25530 745 l0 -145 30 0 30 0 0 65 0 65 28 -6 c35 -9 32 -4 46 -66 11 -51 13 -53 47 -56 l37 -3 -10 43 c-6 24 -16 57 -24 75 -11 28 -11 33 7 49 29 26 25 78 -7 103 -22 17 -41 21 -105 21 l-79 0 0 -145z m145 65 c0 -22 -5 -25 -42 -28 -42 -3 -43 -2 -43 28 0 30 1 31 43 28 37 -3 42 -6 42 -28z"/>
<path fill="#fec729" d="M995 3244 c-253 -27 -515 -92 -639 -157 -64 -34 -96 -74 -96 -122 0 -60 89 -176 225 -294 272 -235 639 -477 1104 -729 189 -102 522 -264 529 -258 2 2 -48 80 -111 172 -141 208 -213 325 -380 614 -109 189 -314 591 -382 748 -18 42 -18 42 -69 41 -28 -1 -109 -8 -181 -15z"/>
<path fill="#ef672c" d="M1360 4139 c-86 -16 -111 -76 -92 -219 48 -361 432 -1153 907 -1870 159 -240 287 -410 293 -391 2 7 -1 69 -7 139 -45 530 -39 1325 14 1826 8 76 15 142 15 147 0 13 -220 121 -394 193 -190 80 -348 131 -496 162 -120 25 -166 27 -240 13z"/>
<path fill="#d41e34" d="M2973 4471 c-42 -26 -77 -80 -112 -171 -74 -191 -118 -449 -161 -935 -31 -355 -29 -1131 5 -1517 17 -201 43 -433 52 -462 3 -12 18 13 48 80 248 575 652 1300 1027 1843 67 96 123 181 125 190 2 9 -37 76 -88 151 -218 319 -414 549 -602 706 -142 119 -231 154 -294 115z"/>
<path fill="#8dc253" d="M4823 4032 c-100 -36 -328 -246 -489 -453 -357 -456 -697 -1002 -1051 -1683 -220 -425 -402 -862 -468 -1125 -35 -143 -58 -305 -50 -359 10 -64 40 -119 78 -142 174 -107 985 213 1719 677 243 153 475 346 572 472 195 256 229 1027 85 1901 -56 338 -161 623 -256 696 -44 33 -79 37 -140 16z"/>
</g>
</svg>
