<svg xmlns="http://www.w3.org/2000/svg" version="1.0" width="2156.000000pt" height="930.000000pt" viewBox="0 0 2156.000000 930.000000" preserveAspectRatio="xMidYMid meet">
<g transform="translate(0.000000,930.000000) scale(0.100000,-0.100000)" fill="#000000" stroke="none">
<path fill="white" d="M10690 9291 c-70 -13 -132 -47 -213 -116 -131 -112 -202 -226 -273 -443 -19 -57 -34 -112 -34 -123 0 -26 -9 -25 -98 20 -175 88 -630 248 -813 287 -114 24 -304 24 -381 1 -121 -37 -239 -159 -288 -299 -43 -123 -37 -303 16 -506 14 -53 28 -106 31 -118 4 -19 -4 -21 -154 -43 -515 -76 -753 -163 -885 -327 -105 -128 -104 -342 2 -518 165 -274 812 -738 1610 -1154 238 -123 621 -288 753 -324 37 -10 60 -26 108 -76 l61 -64 30 -136 30 -136 -26 -106 c-43 -178 -59 -297 -53 -390 7 -111 46 -230 95 -295 78 -104 253 -190 410 -201 100 -8 274 17 434 60 495 137 1392 608 1841 967 251 201 345 304 422 464 122 251 163 558 152 1149 -9 465 -27 630 -123 1121 -46 231 -80 339 -159 501 -95 194 -195 295 -329 330 -110 29 -203 12 -371 -70 -155 -76 -267 -159 -440 -327 l-150 -146 -77 111 c-161 232 -444 562 -584 679 -217 183 -390 256 -544 228z m175 -295 c106 -49 297 -224 466 -426 201 -242 438 -578 423 -602 -4 -7 -65 -96 -135 -198 -414 -603 -820 -1334 -1125 -2025 l-17 -40 -8 55 c-89 623 -103 1572 -33 2265 47 471 118 782 210 920 60 90 109 102 219 51z m-1565 -370 c155 -43 336 -105 480 -166 209 -89 400 -182 400 -196 0 -6 -7 -72 -15 -146 -19 -175 -43 -607 -51 -938 -7 -276 4 -619 32 -974 8 -109 13 -200 11 -203 -8 -8 -172 218 -309 427 -625 950 -1066 1952 -954 2168 27 53 63 63 196 58 81 -3 143 -12 210 -30z m3546 -118 c52 -48 103 -147 158 -307 51 -147 72 -234 106 -442 142 -881 112 -1702 -72 -1985 -48 -73 -208 -227 -343 -330 -493 -374 -1308 -790 -1793 -915 -135 -35 -279 -41 -330 -15 -73 38 -99 138 -76 297 29 212 87 410 206 704 231 571 662 1374 1046 1950 261 391 457 648 627 820 188 191 295 264 383 265 36 0 49 -6 88 -42z m-4001 -840 c175 -401 520 -1019 802 -1437 68 -101 122 -185 120 -188 -7 -7 -374 173 -572 282 -777 423 -1366 877 -1392 1073 -4 31 0 44 22 70 52 62 224 128 460 177 125 26 400 61 496 64 45 1 46 0 64 -41z"/>
<path fill="#888c8d" d="M9790 3335 c-358 -37 -621 -146 -816 -339 -159 -158 -243 -345 -269 -596 l-6 -66 288 -17 c158 -10 331 -20 384 -23 l96 -6 6 76 c3 50 14 95 31 131 76 167 295 266 591 269 196 1 324 -37 419 -124 74 -69 102 -136 120 -297 l6 -51 -102 -32 c-123 -38 -214 -62 -368 -96 -63 -14 -146 -32 -185 -40 -56 -12 -275 -57 -495 -101 -92 -19 -273 -82 -369 -130 -294 -145 -461 -349 -541 -661 -28 -112 -28 -307 1 -418 53 -207 123 -329 266 -467 191 -184 452 -283 779 -294 280 -10 501 36 735 152 96 48 222 126 233 144 17 26 23 4 30 -94 4 -58 9 -112 13 -122 6 -15 31 -16 282 -10 152 4 320 7 374 7 l98 0 -4 1223 c-3 1191 -4 1224 -24 1313 -37 161 -93 264 -200 365 -180 172 -447 271 -818 304 -191 18 -384 17 -555 0z m850 -1848 c0 -305 -19 -403 -99 -511 -57 -77 -123 -130 -226 -181 -111 -55 -208 -81 -350 -94 -177 -17 -335 8 -440 68 -96 56 -143 120 -165 226 -33 161 48 314 210 394 82 42 174 66 380 100 285 48 522 111 640 171 19 10 38 16 43 13 4 -2 7 -86 7 -186z"/>
<path fill="#888c8d" d="M16120 3334 c-601 -62 -975 -352 -1066 -823 -7 -42 -14 -99 -14 -127 l0 -50 288 -18 c158 -9 331 -20 385 -23 l97 -6 0 75 c0 63 5 84 31 136 84 170 291 264 584 265 245 2 399 -60 481 -193 33 -54 64 -165 64 -231 0 -42 -3 -48 -27 -56 -73 -26 -228 -72 -283 -83 -19 -4 -89 -19 -155 -34 -223 -50 -260 -58 -405 -86 -275 -55 -342 -71 -458 -109 -214 -70 -364 -161 -493 -298 -82 -87 -122 -144 -161 -231 -91 -199 -118 -387 -84 -577 58 -320 245 -558 551 -701 293 -137 703 -152 1050 -39 102 34 299 132 380 190 l63 45 6 -48 c3 -26 8 -80 12 -119 l6 -73 97 0 c53 0 221 3 374 7 l278 6 -4 1236 c-4 1351 -1 1283 -62 1433 -83 204 -261 353 -535 447 -247 86 -660 121 -1000 85z m848 -1964 c-4 -177 -8 -224 -23 -265 -19 -54 -69 -134 -107 -175 -112 -122 -313 -209 -529 -228 -311 -29 -532 58 -598 233 -29 77 -26 203 7 278 43 97 157 178 317 226 61 18 127 30 420 81 141 24 402 102 480 144 l30 16 3 -48 c2 -26 2 -144 0 -262z"/>
<path fill="#888c8d" d="M19520 3329 c-113 -8 -203 -25 -345 -65 -162 -46 -350 -142 -495 -254 -92 -70 -241 -231 -312 -336 -138 -204 -210 -391 -269 -694 -17 -89 -18 -482 0 -580 82 -468 273 -805 601 -1059 274 -212 615 -321 1006 -321 563 0 1027 238 1315 674 115 176 203 403 250 651 33 174 33 497 0 668 -47 248 -130 464 -244 632 -271 403 -706 649 -1212 685 -143 10 -145 10 -295 -1z m290 -683 c250 -41 434 -176 569 -418 76 -135 131 -374 131 -566 0 -501 -258 -872 -656 -942 -88 -16 -276 -8 -359 14 -106 29 -238 101 -315 173 -60 56 -160 173 -160 188 0 3 -11 22 -25 43 -35 53 -79 179 -106 302 -43 200 -28 472 36 665 130 391 484 607 885 541z"/>
<path fill="#888c8d" d="M1470 3324 c-619 -55 -1118 -423 -1338 -989 -88 -224 -122 -416 -122 -674 1 -302 54 -553 167 -790 147 -309 383 -551 682 -702 117 -58 204 -89 356 -126 103 -26 124 -27 340 -27 204 0 240 2 320 22 238 59 421 141 585 263 127 94 207 173 301 299 85 113 203 334 197 370 -2 17 -29 36 -108 77 -242 126 -379 198 -448 234 -39 22 -74 39 -76 39 -2 0 -14 -26 -27 -57 -61 -153 -141 -275 -243 -370 -131 -122 -291 -183 -480 -183 -244 1 -449 99 -585 281 -140 188 -206 412 -206 699 1 346 96 598 293 782 71 66 159 117 257 150 62 20 88 23 230 22 146 0 166 -3 233 -26 200 -71 361 -225 439 -419 15 -38 31 -69 35 -69 9 0 93 39 433 199 55 26 128 60 163 76 34 15 62 32 62 37 0 14 -57 126 -93 183 -160 253 -375 450 -614 562 -123 57 -224 89 -356 113 -108 20 -309 32 -397 24z"/>
<path fill="#888c8d" d="M13060 3324 c-223 -40 -358 -83 -515 -163 -361 -185 -635 -509 -763 -903 -73 -224 -94 -354 -94 -588 0 -225 23 -376 90 -585 67 -210 164 -387 302 -550 220 -260 502 -420 870 -495 151 -31 421 -31 570 0 147 30 278 74 395 132 310 154 522 368 673 678 28 58 53 113 54 124 3 20 -1 22 -252 153 -80 42 -199 104 -266 139 l-121 63 -42 -98 c-157 -367 -433 -545 -791 -509 -327 32 -567 256 -663 618 -47 177 -57 350 -32 536 26 190 64 308 141 432 171 276 453 398 779 337 215 -40 419 -206 516 -420 16 -36 29 -71 29 -80 0 -18 7 -15 145 50 55 26 127 60 160 75 33 15 98 45 145 67 47 22 116 55 153 72 81 38 81 31 7 165 -183 330 -484 584 -815 688 -165 51 -233 61 -445 64 -113 1 -216 0 -230 -2z"/>
<path fill="#888c8d" d="M8280 3299 c-192 -12 -343 -56 -492 -141 -113 -66 -245 -200 -309 -317 l-24 -43 -5 218 -5 219 -360 0 -360 0 0 -1565 0 -1565 363 -3 362 -2 0 697 c0 384 5 761 10 838 20 287 63 427 174 569 152 196 385 303 699 322 l117 7 0 382 c0 340 -2 384 -16 389 -9 3 -21 5 -27 5 -7 -1 -64 -5 -127 -10z"/>
<path fill="#888c8d" d="M5618 3233 l-208 -3 0 -813 c-1 -920 -7 -1047 -58 -1202 -36 -107 -54 -144 -102 -210 -129 -175 -336 -275 -570 -275 -299 0 -510 149 -584 412 -14 50 -16 174 -16 1072 l0 1016 -380 0 -380 0 0 -1092 c1 -601 5 -1139 10 -1195 24 -269 112 -474 272 -632 106 -105 215 -170 368 -220 198 -64 468 -80 700 -42 132 22 334 86 410 131 28 16 53 30 55 30 11 0 118 75 190 133 l80 65 5 -152 5 -151 375 0 375 0 0 1565 0 1565 -170 0 c-93 1 -263 -1 -377 -2z"/>
<path fill="#888c8d" d="M21112 589 c-34 -16 -73 -45 -88 -62 -98 -116 -99 -292 -1 -403 115 -131 313 -138 440 -16 59 57 80 105 85 198 4 72 1 89 -21 137 -53 116 -149 177 -278 177 -65 0 -85 -4 -137 -31z m255 -44 c37 -19 62 -41 89 -81 35 -50 39 -64 42 -128 3 -63 0 -77 -25 -126 -92 -175 -334 -183 -437 -15 -28 45 -31 58 -31 130 1 87 19 128 83 188 65 62 190 76 279 32z"/>
<path fill="#888c8d" d="M21120 325 l0 -185 40 0 40 0 0 80 0 80 28 0 c38 0 58 -25 67 -80 12 -80 12 -80 61 -80 39 0 45 3 40 18 -3 9 -10 40 -17 67 -6 28 -18 61 -26 74 -14 21 -13 25 10 50 33 36 39 58 27 97 -16 48 -58 64 -174 64 l-96 0 0 -185z m188 113 c16 -16 15 -43 -2 -57 -7 -6 -34 -14 -60 -17 l-46 -7 0 47 0 46 48 0 c26 0 53 -5 60 -12z"/>
<path fill="#FFC800" d="M8605 7700 c-288 -31 -553 -94 -695 -165 -70 -35 -97 -59 -111 -102 -62 -189 709 -773 1650 -1248 188 -95 341 -166 341 -157 0 4 -47 75 -105 157 -247 356 -560 901 -756 1318 -95 202 -104 217 -128 216 -14 -1 -102 -9 -196 -19z"/>
<path fill="#F26722" d="M8980 8661 c-55 -11 -76 -27 -94 -71 -20 -51 -20 -92 0 -211 70 -409 544 -1352 1052 -2094 86 -125 223 -307 228 -302 2 1 -3 77 -11 167 -49 582 -45 1330 10 1915 9 88 18 170 20 182 7 29 -6 37 -212 132 -460 213 -823 316 -993 282z"/>
<path fill="#D5172F" d="M10691 9005 c-63 -54 -110 -155 -160 -347 -51 -194 -83 -422 -123 -868 -18 -200 -18 -1276 0 -1490 14 -162 61 -602 65 -607 2 -1 31 62 66 140 110 245 354 733 474 948 195 348 459 773 656 1056 l99 142 -113 168 c-210 311 -472 617 -646 755 -110 87 -168 118 -231 125 -48 5 -57 3 -87 -22z"/>
<path fill="#92c039" d="M12665 8536 c-104 -48 -329 -259 -489 -459 -272 -339 -604 -843 -878 -1332 -542 -968 -835 -1707 -816 -2060 5 -93 24 -137 78 -172 28 -20 46 -23 124 -23 110 0 214 22 398 84 431 144 1078 477 1492 770 242 170 433 349 493 461 63 120 111 331 132 588 42 500 -44 1378 -174 1773 -116 353 -204 443 -360 370z"/>
</g>
</svg>
