<?xml version="1.0" standalone="no"?>
<!DOCTYPE svg PUBLIC "-//W3C//DTD SVG 20010904//EN"
 "http://www.w3.org/TR/2001/REC-SVG-20010904/DTD/svg10.dtd">
<svg version="1.0" xmlns="http://www.w3.org/2000/svg"
 width="1582.000000pt" height="442.000000pt" viewBox="0 0 1582.000000 442.000000"
 preserveAspectRatio="xMidYMid meet">
<metadata>
Created by potrace 1.15, written by Peter Selinger 2001-2017
</metadata>
<g transform="translate(0.000000,442.000000) scale(0.100000,-0.100000)"
fill="#D5172F" stroke="none">
<path d="M700 2210 l0 -2210 155 0 155 0 0 2210 0 2210 -155 0 -155 0 0 -2210z"/>
<path d="M15040 2245 l0 -1935 390 0 390 0 0 1935 0 1935 -390 0 -390 0 0
-1935z"/>
<path d="M2190 3530 l0 -420 -235 0 -235 0 0 -255 0 -255 235 0 235 0 0 -872
c1 -968 1 -971 64 -1105 25 -52 54 -93 98 -137 154 -152 395 -206 848 -192
118 4 238 10 265 14 l50 7 3 297 2 298 -32 -8 c-18 -4 -105 -7 -193 -7 -230 0
-283 25 -322 153 -17 52 -18 119 -18 802 l0 745 283 3 282 2 0 255 0 255 -282
2 -283 3 -3 418 -2 417 -380 0 -380 0 0 -420z"/>
<path d="M5402 3179 c-262 -34 -527 -193 -672 -404 -16 -24 -48 -76 -70 -117
l-40 -73 0 263 0 262 -365 0 -365 0 0 -1395 0 -1395 379 0 379 0 5 718 c5 766
6 788 58 951 112 350 402 522 816 482 65 -7 128 -14 141 -18 l22 -5 -2 358 -3
359 -65 11 c-76 14 -131 15 -218 3z"/>
<path d="M7086 3179 c-472 -38 -796 -194 -985 -472 -64 -94 -113 -230 -126
-344 -3 -32 -8 -68 -11 -80 l-4 -23 383 0 383 0 12 61 c24 132 99 242 200 293
143 73 407 84 582 25 83 -29 168 -109 193 -184 45 -131 31 -261 -35 -327 -92
-92 -212 -123 -678 -178 -341 -40 -610 -109 -760 -193 -47 -26 -105 -72 -156
-122 -67 -66 -89 -97 -127 -175 -59 -120 -77 -210 -77 -380 0 -143 17 -248 55
-343 101 -253 332 -419 655 -472 123 -19 353 -19 487 1 273 40 456 115 624
257 38 32 69 52 69 45 1 -23 27 -161 39 -205 l12 -43 388 0 389 0 -20 42 c-29
60 -55 201 -67 363 -6 81 -11 487 -11 958 0 913 0 907 -68 1047 -43 88 -162
214 -254 268 -87 52 -207 100 -310 127 -188 47 -556 73 -782 54z m654 -1662
c0 -331 -42 -480 -171 -607 -116 -114 -231 -154 -449 -154 -257 0 -380 55
-449 203 -22 49 -26 69 -26 156 0 89 3 106 27 155 78 159 213 223 573 275 270
39 399 71 455 114 14 11 28 20 33 20 4 1 7 -72 7 -162z"/>
<path d="M13050 3180 c-188 -20 -335 -61 -490 -139 -149 -74 -236 -136 -360
-261 -125 -125 -188 -211 -261 -359 -215 -438 -209 -1037 17 -1471 187 -360
484 -581 904 -671 92 -20 134 -23 345 -23 264 -1 334 8 515 66 240 77 427 206
570 396 52 69 173 302 209 405 l21 57 -338 0 -338 0 -18 -40 c-57 -129 -246
-266 -422 -305 -94 -22 -316 -16 -409 10 -265 74 -417 280 -442 602 l-6 83
1012 0 1011 0 0 119 c0 299 -56 567 -165 796 -187 391 -524 653 -925 719 -120
20 -320 27 -430 16z m302 -584 c154 -33 269 -123 345 -271 40 -78 84 -203 97
-277 l7 -38 -626 0 -625 0 0 28 c0 47 39 190 66 245 79 157 216 266 389 308
87 22 256 24 347 5z"/>
<path d="M8840 3106 c0 -3 196 -578 436 -1278 240 -700 454 -1326 476 -1390
l40 -118 428 0 428 0 17 48 c50 144 925 2733 925 2737 0 3 -171 5 -380 5
l-379 0 -9 -32 c-40 -141 -576 -1865 -582 -1872 -5 -5 -18 22 -29 60 -12 38
-144 467 -294 954 l-274 885 -401 3 c-221 1 -402 0 -402 -2z"/>
</g>
</svg>
